%FSLAX34Y34*%
%MOMM*%
%LNSOLDERMASK_BOTTOM*%
G71*
G01*
%ADD10C, 0.002*%
%ADD11R, 1.190X0.800*%
%ADD12R, 3.700X1.900*%
%ADD13R, 1.800X1.800*%
%ADD14R, 1.600X1.500*%
%ADD15R, 1.800X0.870*%
%ADD16R, 1.400X1.300*%
%ADD17R, 1.300X1.400*%
%ADD18R, 1.550X0.600*%
%ADD19R, 2.200X2.950*%
%ADD20C, 1.450*%
%ADD21C, 0.700*%
%ADD22R, 2.600X1.000*%
%ADD23R, 3.500X1.000*%
%ADD24R, 2.500X1.000*%
%ADD25C, 0.950*%
%ADD26R, 0.800X1.190*%
%ADD27R, 1.700X3.200*%
%ADD28R, 2.200X3.200*%
%ADD29C, 0.500*%
%ADD30R, 1.400X1.500*%
%ADD31C, 1.400*%
%ADD32C, 1.900*%
%ADD33C, 1.800*%
%ADD34C, 2.900*%
%ADD35C, 2.600*%
%ADD36C, 3.100*%
%ADD37C, 1.700*%
%ADD38C, 2.700*%
%ADD39C, 1.600*%
%LPD*%
G54D10*
X0Y1000000D02*
X954000Y1000000D01*
X954000Y6000D01*
X0Y6000D01*
X0Y1000000D01*
X472846Y663380D02*
G54D11*
D03*
X472849Y672785D02*
G54D11*
D03*
X472846Y682380D02*
G54D11*
D03*
X498746Y682380D02*
G54D11*
D03*
X498746Y663380D02*
G54D11*
D03*
X526918Y660912D02*
G54D12*
D03*
X526918Y683912D02*
G54D12*
D03*
X497986Y638583D02*
G54D13*
D03*
X469986Y638583D02*
G54D13*
D03*
X447073Y637075D02*
G54D14*
D03*
X447075Y656080D02*
G54D14*
D03*
G36*
X608637Y427127D02*
X608637Y457127D01*
X638637Y457127D01*
X638637Y427127D01*
X608637Y427127D01*
G37*
X426303Y516423D02*
G54D15*
D03*
X426302Y503723D02*
G54D15*
D03*
X426303Y491022D02*
G54D15*
D03*
X426302Y478322D02*
G54D15*
D03*
X369303Y478322D02*
G54D15*
D03*
X369303Y491022D02*
G54D15*
D03*
X369303Y503722D02*
G54D15*
D03*
X369303Y516422D02*
G54D15*
D03*
X446771Y493007D02*
G54D16*
D03*
X446771Y476007D02*
G54D16*
D03*
X446771Y517151D02*
G54D16*
D03*
X446770Y500151D02*
G54D16*
D03*
X475890Y515700D02*
G54D17*
D03*
X492890Y515700D02*
G54D17*
D03*
G36*
X224528Y603374D02*
X231600Y610445D01*
X249983Y592059D01*
X242912Y584988D01*
X224528Y603374D01*
G37*
G36*
X233508Y612354D02*
X240580Y619425D01*
X258964Y601040D01*
X251892Y593969D01*
X233508Y612354D01*
G37*
G36*
X242489Y621335D02*
X249561Y628406D01*
X267943Y610019D01*
X260871Y602949D01*
X242489Y621335D01*
G37*
G36*
X251468Y630314D02*
X258539Y637385D01*
X276925Y619001D01*
X269854Y611930D01*
X251468Y630314D01*
G37*
G36*
X286824Y594959D02*
X293895Y602030D01*
X312280Y583645D01*
X305209Y576574D01*
X286824Y594959D01*
G37*
G36*
X277843Y585978D02*
X284914Y593049D01*
X303300Y574666D01*
X296229Y567594D01*
X277843Y585978D01*
G37*
G36*
X268863Y576998D02*
X275934Y584069D01*
X294320Y565685D01*
X287249Y558614D01*
X268863Y576998D01*
G37*
G36*
X259883Y568018D02*
X266955Y575089D01*
X285339Y556704D01*
X278268Y549633D01*
X259883Y568018D01*
G37*
X44673Y489012D02*
G54D17*
D03*
X61675Y489008D02*
G54D17*
D03*
X601986Y738588D02*
G54D18*
D03*
X601986Y732088D02*
G54D18*
D03*
X601986Y725588D02*
G54D18*
D03*
X601986Y719088D02*
G54D18*
D03*
X601986Y712588D02*
G54D18*
D03*
X628339Y688088D02*
G54D19*
D03*
X628339Y763088D02*
G54D19*
D03*
G54D20*
X628736Y763088D02*
X628736Y688088D01*
X584909Y691572D02*
G54D16*
D03*
X584909Y708572D02*
G54D16*
D03*
X567050Y691572D02*
G54D16*
D03*
X567050Y708572D02*
G54D16*
D03*
G54D21*
X238627Y797707D02*
X223655Y797706D01*
G54D21*
X238631Y808816D02*
X223659Y808816D01*
X45240Y524071D02*
G54D16*
D03*
X45237Y507069D02*
G54D16*
D03*
X366218Y688888D02*
G54D22*
D03*
X366218Y676188D02*
G54D22*
D03*
X366218Y663488D02*
G54D22*
D03*
X366218Y650788D02*
G54D22*
D03*
X316218Y650788D02*
G54D22*
D03*
X316218Y663488D02*
G54D22*
D03*
X316218Y676188D02*
G54D22*
D03*
X316218Y688888D02*
G54D22*
D03*
X322093Y527484D02*
G54D16*
D03*
X322096Y544486D02*
G54D16*
D03*
X342093Y527484D02*
G54D16*
D03*
X342096Y544486D02*
G54D16*
D03*
G36*
X540144Y621624D02*
X553144Y621624D01*
X553144Y607624D01*
X540144Y607624D01*
X540144Y621624D01*
G37*
X563644Y614624D02*
G54D17*
D03*
X370980Y688888D02*
G54D23*
D03*
X316218Y688888D02*
G54D24*
D03*
X370980Y676188D02*
G54D23*
D03*
X370980Y663488D02*
G54D23*
D03*
X370980Y650788D02*
G54D23*
D03*
X311455Y650788D02*
G54D23*
D03*
X311455Y663488D02*
G54D23*
D03*
X311455Y676188D02*
G54D23*
D03*
X311456Y688888D02*
G54D23*
D03*
G54D25*
X484042Y60667D02*
X484042Y25267D01*
G54D25*
X471242Y60667D02*
X471242Y25267D01*
G54D25*
X458542Y60667D02*
X458542Y25267D01*
G54D25*
X445942Y60667D02*
X445942Y25267D01*
G54D25*
X420442Y60667D02*
X420442Y25267D01*
G54D25*
X496642Y60667D02*
X496642Y25267D01*
G54D25*
X407742Y60667D02*
X407742Y25267D01*
G54D25*
X395142Y60667D02*
X395142Y25267D01*
G54D25*
X382342Y60667D02*
X382342Y25267D01*
G54D25*
X369642Y60667D02*
X369642Y25267D01*
G54D25*
X634043Y60667D02*
X634042Y25267D01*
G54D25*
X621242Y60667D02*
X621242Y25267D01*
G54D25*
X608542Y60667D02*
X608542Y25267D01*
G54D25*
X595942Y60667D02*
X595942Y25267D01*
G54D25*
X570442Y60667D02*
X570442Y25267D01*
G54D25*
X646642Y60667D02*
X646642Y25267D01*
G54D25*
X557742Y60667D02*
X557742Y25267D01*
G54D25*
X545142Y60667D02*
X545142Y25267D01*
G54D25*
X532342Y60667D02*
X532342Y25267D01*
G54D25*
X519642Y60667D02*
X519642Y25267D01*
G54D25*
X784042Y60667D02*
X784042Y25267D01*
G54D25*
X771242Y60667D02*
X771242Y25267D01*
G54D25*
X758542Y60667D02*
X758542Y25267D01*
G54D25*
X745942Y60667D02*
X745942Y25267D01*
G54D25*
X720442Y60667D02*
X720442Y25267D01*
G54D25*
X796642Y60667D02*
X796642Y25267D01*
G54D25*
X707742Y60667D02*
X707742Y25267D01*
G54D25*
X695142Y60667D02*
X695142Y25267D01*
G54D25*
X682342Y60667D02*
X682342Y25267D01*
G54D25*
X669642Y60667D02*
X669642Y25267D01*
G54D25*
X934043Y60667D02*
X934043Y25267D01*
G54D25*
X921243Y60667D02*
X921243Y25267D01*
G54D25*
X908543Y60667D02*
X908543Y25267D01*
G54D25*
X895943Y60667D02*
X895943Y25267D01*
G54D25*
X870443Y60667D02*
X870443Y25267D01*
G54D25*
X946643Y60667D02*
X946643Y25267D01*
G54D25*
X857743Y60667D02*
X857743Y25267D01*
G54D25*
X845143Y60667D02*
X845143Y25267D01*
G54D25*
X832343Y60667D02*
X832343Y25267D01*
G54D25*
X819643Y60667D02*
X819643Y25267D01*
G54D25*
X934043Y240667D02*
X934042Y205267D01*
G54D25*
X921242Y240667D02*
X921242Y205267D01*
G54D25*
X908542Y240667D02*
X908542Y205267D01*
G54D25*
X895942Y240667D02*
X895942Y205267D01*
G54D25*
X870442Y240667D02*
X870442Y205267D01*
G54D25*
X946642Y240667D02*
X946642Y205267D01*
G54D25*
X857742Y240667D02*
X857742Y205267D01*
G54D25*
X845142Y240667D02*
X845142Y205267D01*
G54D25*
X832342Y240667D02*
X832342Y205267D01*
G54D25*
X819642Y240667D02*
X819642Y205267D01*
G54D25*
X784043Y240667D02*
X784042Y205267D01*
G54D25*
X771242Y240667D02*
X771242Y205267D01*
G54D25*
X758542Y240667D02*
X758542Y205267D01*
G54D25*
X745942Y240667D02*
X745942Y205267D01*
G54D25*
X720442Y240667D02*
X720442Y205267D01*
G54D25*
X796642Y240667D02*
X796642Y205267D01*
G54D25*
X707742Y240667D02*
X707742Y205267D01*
G54D25*
X695142Y240667D02*
X695142Y205267D01*
G54D25*
X682342Y240667D02*
X682342Y205267D01*
G54D25*
X669642Y240667D02*
X669642Y205267D01*
G54D25*
X784043Y420667D02*
X784042Y385267D01*
G54D25*
X771242Y420667D02*
X771242Y385267D01*
G54D25*
X758542Y420667D02*
X758542Y385267D01*
G54D25*
X745942Y420667D02*
X745942Y385267D01*
G54D25*
X720442Y420667D02*
X720442Y385267D01*
G54D25*
X796642Y420667D02*
X796642Y385267D01*
G54D25*
X707742Y420667D02*
X707742Y385267D01*
G54D25*
X695142Y420667D02*
X695142Y385267D01*
G54D25*
X682342Y420667D02*
X682342Y385267D01*
G54D25*
X669642Y420667D02*
X669642Y385267D01*
G54D25*
X340393Y60667D02*
X340392Y25267D01*
G54D25*
X327592Y60667D02*
X327592Y25267D01*
G54D25*
X314892Y60667D02*
X314892Y25267D01*
G54D25*
X302292Y60667D02*
X302292Y25267D01*
G54D25*
X276792Y60667D02*
X276792Y25267D01*
G54D25*
X352992Y60667D02*
X352992Y25267D01*
G54D25*
X264092Y60667D02*
X264092Y25267D01*
G54D25*
X251492Y60667D02*
X251492Y25267D01*
G54D25*
X238692Y60667D02*
X238692Y25267D01*
G54D25*
X225992Y60667D02*
X225992Y25267D01*
G54D25*
X190393Y60667D02*
X190392Y25267D01*
G54D25*
X177592Y60667D02*
X177592Y25267D01*
G54D25*
X164892Y60667D02*
X164892Y25267D01*
G54D25*
X152292Y60667D02*
X152292Y25267D01*
G54D25*
X126792Y60667D02*
X126792Y25267D01*
G54D25*
X202992Y60667D02*
X202992Y25267D01*
G54D25*
X114092Y60667D02*
X114092Y25267D01*
G54D25*
X101492Y60667D02*
X101492Y25267D01*
G54D25*
X88692Y60667D02*
X88692Y25267D01*
G54D25*
X75992Y60667D02*
X75992Y25267D01*
X542952Y741666D02*
G54D26*
D03*
X533547Y741664D02*
G54D26*
D03*
X523952Y741666D02*
G54D26*
D03*
X523952Y715767D02*
G54D26*
D03*
X542952Y715766D02*
G54D26*
D03*
X533548Y715764D02*
G54D26*
D03*
X587561Y461688D02*
G54D27*
D03*
X544355Y461688D02*
G54D28*
D03*
X609561Y561688D02*
G54D28*
D03*
X577561Y561688D02*
G54D27*
D03*
X545545Y561688D02*
G54D27*
D03*
X609561Y587088D02*
G54D16*
D03*
X609561Y604088D02*
G54D16*
D03*
X546644Y633674D02*
G54D17*
D03*
X563644Y633674D02*
G54D17*
D03*
G54D29*
X250000Y792689D02*
X250000Y813833D01*
X260000Y792689D02*
X260000Y813833D01*
X270000Y792689D02*
X270000Y813833D01*
X280000Y792689D02*
X280000Y813833D01*
X290000Y792689D02*
X290000Y813833D01*
X300000Y792689D02*
X300000Y813833D01*
X310000Y792689D02*
X310000Y813833D01*
X248804Y794000D02*
X316197Y794000D01*
X248806Y804000D02*
X316199Y804000D01*
G54D29*
X248808Y813833D02*
X248804Y792689D01*
X316197Y792689D01*
X316201Y813833D01*
X248808Y813833D01*
X558512Y434257D02*
G54D30*
D03*
X578354Y434414D02*
G54D30*
D03*
X344285Y921801D02*
G54D31*
D03*
X209697Y794528D02*
G54D31*
D03*
X181776Y810353D02*
G54D31*
D03*
X354554Y919673D02*
G54D31*
D03*
G54D25*
X934043Y420667D02*
X934042Y385267D01*
G54D25*
X921242Y420667D02*
X921242Y385267D01*
G54D25*
X908542Y420667D02*
X908542Y385267D01*
G54D25*
X895942Y420667D02*
X895942Y385267D01*
G54D25*
X870442Y420667D02*
X870442Y385267D01*
G54D25*
X946642Y420667D02*
X946642Y385267D01*
G54D25*
X857742Y420667D02*
X857742Y385267D01*
G54D25*
X845142Y420667D02*
X845142Y385267D01*
G54D25*
X832342Y420667D02*
X832342Y385267D01*
G54D25*
X819642Y420667D02*
X819642Y385267D01*
X23806Y767680D02*
G54D32*
D03*
X23806Y665680D02*
G54D32*
D03*
X66082Y767680D02*
G54D32*
D03*
X66081Y742180D02*
G54D32*
D03*
X66081Y691180D02*
G54D32*
D03*
X66081Y665680D02*
G54D32*
D03*
X66081Y640181D02*
G54D32*
D03*
X86082Y754930D02*
G54D32*
D03*
X86082Y729430D02*
G54D32*
D03*
X86081Y652930D02*
G54D32*
D03*
X86081Y678430D02*
G54D32*
D03*
X66079Y716680D02*
G54D32*
D03*
G36*
X43944Y422006D02*
X11944Y422006D01*
X11944Y454006D01*
X43944Y454006D01*
X43944Y422006D01*
G37*
X137290Y543125D02*
G54D33*
D03*
X137290Y503125D02*
G54D33*
D03*
X137290Y483125D02*
G54D33*
D03*
X137290Y463125D02*
G54D33*
D03*
X24453Y543124D02*
G54D33*
D03*
X24453Y523124D02*
G54D33*
D03*
X24453Y503124D02*
G54D33*
D03*
X24453Y463124D02*
G54D33*
D03*
X238572Y978303D02*
G54D34*
D03*
X263972Y978303D02*
G54D34*
D03*
X289372Y978303D02*
G54D34*
D03*
X314772Y978303D02*
G54D34*
D03*
X340172Y978303D02*
G54D34*
D03*
X365572Y978303D02*
G54D34*
D03*
X390972Y978303D02*
G54D34*
D03*
X416372Y978303D02*
G54D34*
D03*
X441472Y962406D02*
G54D31*
D03*
X306678Y352584D02*
G54D35*
D03*
X374678Y352584D02*
G54D35*
D03*
X374678Y306584D02*
G54D35*
D03*
X306678Y306584D02*
G54D35*
D03*
X306678Y252584D02*
G54D35*
D03*
X374678Y252584D02*
G54D35*
D03*
X374678Y206584D02*
G54D35*
D03*
X306678Y206584D02*
G54D35*
D03*
X406678Y352584D02*
G54D35*
D03*
X474678Y352584D02*
G54D35*
D03*
X474678Y306584D02*
G54D35*
D03*
X406678Y306584D02*
G54D35*
D03*
X206678Y352584D02*
G54D35*
D03*
X274678Y352584D02*
G54D35*
D03*
X274678Y306584D02*
G54D35*
D03*
X206678Y306584D02*
G54D35*
D03*
X306678Y452584D02*
G54D35*
D03*
X374678Y452584D02*
G54D35*
D03*
X374678Y406584D02*
G54D35*
D03*
X306678Y406584D02*
G54D35*
D03*
X118812Y876442D02*
G54D31*
D03*
X118812Y857392D02*
G54D31*
D03*
X106112Y695468D02*
G54D31*
D03*
X115638Y689118D02*
G54D31*
D03*
X709884Y772781D02*
G54D36*
D03*
X709884Y840781D02*
G54D36*
D03*
X755884Y840781D02*
G54D36*
D03*
X755884Y772781D02*
G54D36*
D03*
X832685Y680459D02*
G54D37*
D03*
X883486Y680459D02*
G54D37*
D03*
X761576Y719516D02*
G54D38*
D03*
X786976Y719515D02*
G54D38*
D03*
X761576Y973515D02*
G54D38*
D03*
X786976Y973515D02*
G54D38*
D03*
X891866Y811931D02*
G54D39*
D03*
X902767Y955342D02*
G54D39*
D03*
M02*
