%FSLAX34Y34*%
%MOMM*%
%LNSMDMASK_TOP*%
G71*
G01*
%ADD10C, 0.002*%
%ADD11R, 1.400X1.300*%
%ADD12R, 0.900X0.900*%
%ADD13R, 0.300X0.300*%
%ADD14R, 1.100X1.200*%
%ADD15R, 1.200X1.200*%
%ADD16R, 2.400X0.800*%
%ADD17R, 1.200X1.100*%
%ADD18R, 1.300X1.600*%
%ADD19R, 1.400X1.400*%
%ADD20R, 1.000X1.200*%
%ADD21R, 0.800X1.100*%
%ADD22R, 1.100X0.800*%
%ADD23R, 1.000X1.000*%
%ADD24R, 1.300X1.400*%
%ADD25R, 2.000X0.800*%
%ADD26R, 1.100X1.100*%
%ADD27R, 1.600X1.400*%
%ADD28R, 0.800X2.400*%
%ADD29R, 1.500X1.300*%
%ADD30R, 0.800X0.400*%
%ADD31R, 0.400X1.350*%
%ADD32R, 1.600X1.000*%
%ADD33R, 2.000X2.000*%
%ADD34R, 1.600X1.600*%
%ADD35R, 5.000X2.000*%
%ADD36R, 1.700X2.500*%
%ADD37R, 2.540X2.540*%
%LPD*%
G54D10*
X0Y1000000D02*
X954000Y1000000D01*
X954000Y6000D01*
X0Y6000D01*
X0Y1000000D01*
X194002Y755734D02*
G54D11*
D03*
X194002Y776734D02*
G54D11*
D03*
X153897Y775138D02*
G54D12*
D03*
X153897Y756088D02*
G54D12*
D03*
X180012Y756088D02*
G54D12*
D03*
X180059Y775196D02*
G54D12*
D03*
G36*
X375177Y870179D02*
X378177Y870179D01*
X378177Y867179D01*
X375177Y867179D01*
X375177Y870179D01*
G37*
G36*
X370177Y870179D02*
X373177Y870179D01*
X373177Y867179D01*
X370177Y867179D01*
X370177Y870179D01*
G37*
X366677Y868679D02*
G54D13*
D03*
X361677Y868679D02*
G54D13*
D03*
X356677Y868679D02*
G54D13*
D03*
X351677Y868679D02*
G54D13*
D03*
G36*
X345177Y870179D02*
X348177Y870179D01*
X348177Y867179D01*
X345177Y867179D01*
X345177Y870179D01*
G37*
X341677Y868679D02*
G54D13*
D03*
X336677Y868679D02*
G54D13*
D03*
X331677Y868679D02*
G54D13*
D03*
X326676Y868679D02*
G54D13*
D03*
G36*
X320177Y870179D02*
X323177Y870179D01*
X323177Y867179D01*
X320177Y867179D01*
X320177Y870179D01*
G37*
X316677Y868679D02*
G54D13*
D03*
X311677Y868679D02*
G54D13*
D03*
X306677Y868679D02*
G54D13*
D03*
X301677Y868679D02*
G54D13*
D03*
X296677Y868679D02*
G54D13*
D03*
G36*
X290177Y870179D02*
X293177Y870179D01*
X293177Y867179D01*
X290177Y867179D01*
X290177Y870179D01*
G37*
G36*
X285177Y870179D02*
X288177Y870179D01*
X288177Y867179D01*
X285177Y867179D01*
X285177Y870179D01*
G37*
X281677Y868679D02*
G54D13*
D03*
X276677Y868679D02*
G54D13*
D03*
X271677Y868679D02*
G54D13*
D03*
G36*
X265177Y870179D02*
X268177Y870179D01*
X268177Y867179D01*
X265177Y867179D01*
X265177Y870179D01*
G37*
X261677Y868679D02*
G54D13*
D03*
G36*
X255177Y870179D02*
X258177Y870179D01*
X258177Y867179D01*
X255177Y867179D01*
X255177Y870179D01*
G37*
X394640Y730715D02*
G54D13*
D03*
X394640Y735715D02*
G54D13*
D03*
X394640Y740715D02*
G54D13*
D03*
X394640Y745715D02*
G54D13*
D03*
X394640Y750715D02*
G54D13*
D03*
X394640Y755715D02*
G54D13*
D03*
X394640Y760715D02*
G54D13*
D03*
X394640Y765715D02*
G54D13*
D03*
X394640Y770715D02*
G54D13*
D03*
X394640Y775715D02*
G54D13*
D03*
X394640Y780715D02*
G54D13*
D03*
X394641Y785715D02*
G54D13*
D03*
X394641Y790715D02*
G54D13*
D03*
X394640Y795715D02*
G54D13*
D03*
X394640Y800715D02*
G54D13*
D03*
X394640Y805715D02*
G54D13*
D03*
X394641Y810715D02*
G54D13*
D03*
X394640Y815715D02*
G54D13*
D03*
X394640Y820715D02*
G54D13*
D03*
X394640Y825715D02*
G54D13*
D03*
X394640Y830715D02*
G54D13*
D03*
X394640Y835715D02*
G54D13*
D03*
X394640Y840715D02*
G54D13*
D03*
X394640Y845715D02*
G54D13*
D03*
X394640Y850715D02*
G54D13*
D03*
X256677Y712741D02*
G54D13*
D03*
X261676Y712741D02*
G54D13*
D03*
X266677Y712741D02*
G54D13*
D03*
X271677Y712741D02*
G54D13*
D03*
X276677Y712741D02*
G54D13*
D03*
X281677Y712741D02*
G54D13*
D03*
X286677Y712741D02*
G54D13*
D03*
X291677Y712741D02*
G54D13*
D03*
X296677Y712741D02*
G54D13*
D03*
X301676Y712741D02*
G54D13*
D03*
X306677Y712741D02*
G54D13*
D03*
X311677Y712741D02*
G54D13*
D03*
X316676Y712741D02*
G54D13*
D03*
X321677Y712741D02*
G54D13*
D03*
X326677Y712741D02*
G54D13*
D03*
X331677Y712741D02*
G54D13*
D03*
X336677Y712741D02*
G54D13*
D03*
X341677Y712741D02*
G54D13*
D03*
X346677Y712741D02*
G54D13*
D03*
X351676Y712741D02*
G54D13*
D03*
X356676Y712741D02*
G54D13*
D03*
X361677Y712741D02*
G54D13*
D03*
X366676Y712741D02*
G54D13*
D03*
X371676Y712741D02*
G54D13*
D03*
X376677Y712741D02*
G54D13*
D03*
X238703Y850705D02*
G54D13*
D03*
X238703Y845705D02*
G54D13*
D03*
X238703Y840705D02*
G54D13*
D03*
X238703Y835705D02*
G54D13*
D03*
X238703Y830705D02*
G54D13*
D03*
X238703Y825705D02*
G54D13*
D03*
X238703Y820705D02*
G54D13*
D03*
X238703Y815705D02*
G54D13*
D03*
X238703Y810705D02*
G54D13*
D03*
X238703Y805705D02*
G54D13*
D03*
X238703Y800705D02*
G54D13*
D03*
X238703Y795705D02*
G54D13*
D03*
X238703Y790705D02*
G54D13*
D03*
X238703Y785705D02*
G54D13*
D03*
X238703Y780705D02*
G54D13*
D03*
X238703Y775705D02*
G54D13*
D03*
X238703Y770705D02*
G54D13*
D03*
X238703Y765705D02*
G54D13*
D03*
X238703Y760705D02*
G54D13*
D03*
X238703Y755705D02*
G54D13*
D03*
X238703Y750705D02*
G54D13*
D03*
X238703Y745705D02*
G54D13*
D03*
X238703Y740705D02*
G54D13*
D03*
X238703Y735705D02*
G54D13*
D03*
X238703Y730705D02*
G54D13*
D03*
X458140Y760000D02*
G54D14*
D03*
X475140Y760000D02*
G54D14*
D03*
X557756Y782159D02*
G54D14*
D03*
X540756Y782159D02*
G54D14*
D03*
X557756Y800415D02*
G54D14*
D03*
X540756Y800415D02*
G54D14*
D03*
X523294Y800415D02*
G54D15*
D03*
X523294Y782159D02*
G54D15*
D03*
G36*
X489116Y844634D02*
X481338Y836856D01*
X472853Y845341D01*
X480631Y853119D01*
X489116Y844634D01*
G37*
G36*
X477096Y832614D02*
X469318Y824836D01*
X460832Y833321D01*
X468610Y841099D01*
X477096Y832614D01*
G37*
X376451Y658330D02*
G54D14*
D03*
X393450Y658334D02*
G54D14*
D03*
X538758Y680535D02*
G54D16*
D03*
X538759Y693234D02*
G54D16*
D03*
X538758Y705935D02*
G54D16*
D03*
X538758Y718634D02*
G54D16*
D03*
X271213Y903145D02*
G54D17*
D03*
X271216Y886146D02*
G54D17*
D03*
X269238Y936563D02*
G54D18*
D03*
X289238Y936563D02*
G54D18*
D03*
X309238Y936563D02*
G54D18*
D03*
X329238Y936563D02*
G54D18*
D03*
X349238Y936563D02*
G54D18*
D03*
X369238Y936563D02*
G54D18*
D03*
X389238Y936563D02*
G54D18*
D03*
X409238Y936593D02*
G54D18*
D03*
G36*
X395052Y905859D02*
X387274Y898081D01*
X378789Y906566D01*
X386567Y914344D01*
X395052Y905859D01*
G37*
G36*
X383041Y893848D02*
X375263Y886071D01*
X366778Y894556D01*
X374557Y902334D01*
X383041Y893848D01*
G37*
G36*
X314089Y902287D02*
X306311Y894509D01*
X297826Y902994D01*
X305604Y910772D01*
X314089Y902287D01*
G37*
G36*
X302076Y890268D02*
X294297Y882490D01*
X285813Y890976D01*
X293592Y898754D01*
X302076Y890268D01*
G37*
G36*
X429716Y852108D02*
X419816Y862008D01*
X431129Y873321D01*
X441029Y863422D01*
X429716Y852108D01*
G37*
G36*
X419194Y894697D02*
X409295Y904597D01*
X420608Y915910D01*
X430508Y906011D01*
X419194Y894697D01*
G37*
X245276Y898062D02*
G54D19*
D03*
X205986Y876631D02*
G54D19*
D03*
X186936Y894888D02*
G54D19*
D03*
X186936Y876631D02*
G54D19*
D03*
X205986Y852025D02*
G54D19*
D03*
X187332Y825434D02*
G54D19*
D03*
X205986Y827419D02*
G54D19*
D03*
X186936Y852025D02*
G54D19*
D03*
X206779Y800828D02*
G54D19*
D03*
G36*
X400144Y876441D02*
X390244Y886340D01*
X401558Y897654D01*
X411458Y887754D01*
X400144Y876441D01*
G37*
G36*
X281045Y654332D02*
X288824Y662109D01*
X297308Y653623D01*
X289529Y645846D01*
X281045Y654332D01*
G37*
G36*
X293069Y666351D02*
X300847Y674129D01*
X309332Y665644D01*
X301554Y657866D01*
X293069Y666351D01*
G37*
X306674Y690765D02*
G54D20*
D03*
X190743Y593562D02*
G54D15*
D03*
G36*
X209836Y655720D02*
X201350Y664205D01*
X209836Y672691D01*
X218321Y664205D01*
X209836Y655720D01*
G37*
X183889Y550305D02*
G54D21*
D03*
X173883Y528310D02*
G54D21*
D03*
X425527Y828096D02*
G54D22*
D03*
X442752Y841828D02*
G54D23*
D03*
X540539Y751433D02*
G54D14*
D03*
X523539Y751433D02*
G54D14*
D03*
X458818Y665428D02*
G54D14*
D03*
X441822Y665432D02*
G54D14*
D03*
X537941Y633943D02*
G54D24*
D03*
X495397Y634023D02*
G54D19*
D03*
X563222Y692044D02*
G54D17*
D03*
X563227Y709040D02*
G54D17*
D03*
X186539Y800828D02*
G54D19*
D03*
X562463Y746432D02*
G54D11*
D03*
X562463Y727432D02*
G54D11*
D03*
X519289Y661971D02*
G54D24*
D03*
X500289Y661971D02*
G54D24*
D03*
X582670Y724935D02*
G54D11*
D03*
X582670Y705935D02*
G54D11*
D03*
X485187Y718635D02*
G54D25*
D03*
X485186Y705934D02*
G54D25*
D03*
X485186Y693235D02*
G54D25*
D03*
X485186Y680535D02*
G54D25*
D03*
X458818Y647171D02*
G54D14*
D03*
X441822Y647175D02*
G54D14*
D03*
X575780Y800646D02*
G54D17*
D03*
X575782Y783647D02*
G54D17*
D03*
X492664Y929460D02*
G54D19*
D03*
X316040Y619652D02*
G54D26*
D03*
X388178Y511604D02*
G54D14*
D03*
X371178Y511604D02*
G54D14*
D03*
X441766Y945442D02*
G54D17*
D03*
X441766Y928442D02*
G54D17*
D03*
X267809Y639120D02*
G54D26*
D03*
X466450Y903693D02*
G54D27*
D03*
X166234Y627940D02*
G54D19*
D03*
G36*
X241065Y686948D02*
X233286Y679170D01*
X224801Y687656D01*
X232580Y695434D01*
X241065Y686948D01*
G37*
G36*
X229040Y674928D02*
X221262Y667150D01*
X212777Y675636D01*
X220555Y683414D01*
X229040Y674928D01*
G37*
X199764Y554274D02*
G54D17*
D03*
X199767Y571276D02*
G54D17*
D03*
X163883Y550310D02*
G54D21*
D03*
X235324Y480673D02*
G54D15*
D03*
X216935Y480739D02*
G54D15*
D03*
G36*
X435915Y707466D02*
X445815Y697566D01*
X435915Y687666D01*
X426016Y697566D01*
X435915Y707466D01*
G37*
G36*
X460522Y732072D02*
X470421Y722172D01*
X460522Y712273D01*
X450622Y722172D01*
X460522Y732072D01*
G37*
X150878Y791166D02*
G54D14*
D03*
X167878Y791166D02*
G54D14*
D03*
X677503Y160707D02*
G54D11*
D03*
X677500Y141702D02*
G54D11*
D03*
X677500Y133714D02*
G54D11*
D03*
X677493Y114717D02*
G54D11*
D03*
X733143Y154667D02*
G54D28*
D03*
X720442Y154668D02*
G54D28*
D03*
X707742Y154668D02*
G54D28*
D03*
X695042Y154668D02*
G54D28*
D03*
X695042Y104668D02*
G54D28*
D03*
X707743Y104667D02*
G54D28*
D03*
X720443Y104667D02*
G54D28*
D03*
X733143Y104667D02*
G54D28*
D03*
X377503Y160707D02*
G54D11*
D03*
X377500Y141702D02*
G54D11*
D03*
X377500Y133714D02*
G54D11*
D03*
X377493Y114717D02*
G54D11*
D03*
X433143Y154667D02*
G54D28*
D03*
X420442Y154668D02*
G54D28*
D03*
X407742Y154668D02*
G54D28*
D03*
X395043Y154668D02*
G54D28*
D03*
X395042Y104668D02*
G54D28*
D03*
X407743Y104667D02*
G54D28*
D03*
X420443Y104667D02*
G54D28*
D03*
X433142Y104667D02*
G54D28*
D03*
X827503Y160707D02*
G54D11*
D03*
X827500Y141702D02*
G54D11*
D03*
X827500Y133714D02*
G54D11*
D03*
X827493Y114717D02*
G54D11*
D03*
X883142Y154667D02*
G54D28*
D03*
X870442Y154668D02*
G54D28*
D03*
X857742Y154668D02*
G54D28*
D03*
X845043Y154668D02*
G54D28*
D03*
X845042Y104668D02*
G54D28*
D03*
X857743Y104667D02*
G54D28*
D03*
X870443Y104667D02*
G54D28*
D03*
X883142Y104667D02*
G54D28*
D03*
X527503Y160707D02*
G54D11*
D03*
X527500Y141702D02*
G54D11*
D03*
X527500Y133714D02*
G54D11*
D03*
X527493Y114717D02*
G54D11*
D03*
X583143Y154667D02*
G54D28*
D03*
X570442Y154668D02*
G54D28*
D03*
X557742Y154668D02*
G54D28*
D03*
X545043Y154668D02*
G54D28*
D03*
X545042Y104668D02*
G54D28*
D03*
X557743Y104667D02*
G54D28*
D03*
X570442Y104667D02*
G54D28*
D03*
X583142Y104667D02*
G54D28*
D03*
X827503Y340707D02*
G54D11*
D03*
X827500Y321702D02*
G54D11*
D03*
X827500Y313714D02*
G54D11*
D03*
X827493Y294717D02*
G54D11*
D03*
X883143Y334667D02*
G54D28*
D03*
X870442Y334668D02*
G54D28*
D03*
X857742Y334668D02*
G54D28*
D03*
X845043Y334668D02*
G54D28*
D03*
X845042Y284668D02*
G54D28*
D03*
X857742Y284667D02*
G54D28*
D03*
X870442Y284667D02*
G54D28*
D03*
X883142Y284667D02*
G54D28*
D03*
X677503Y340707D02*
G54D11*
D03*
X677500Y321702D02*
G54D11*
D03*
X677500Y313714D02*
G54D11*
D03*
X677493Y294717D02*
G54D11*
D03*
X733143Y334667D02*
G54D28*
D03*
X720442Y334668D02*
G54D28*
D03*
X707742Y334668D02*
G54D28*
D03*
X695043Y334668D02*
G54D28*
D03*
X695042Y284667D02*
G54D28*
D03*
X707743Y284667D02*
G54D28*
D03*
X720442Y284667D02*
G54D28*
D03*
X733142Y284667D02*
G54D28*
D03*
X733143Y514667D02*
G54D28*
D03*
X720442Y514668D02*
G54D28*
D03*
X707742Y514668D02*
G54D28*
D03*
X695042Y514668D02*
G54D28*
D03*
X695042Y464668D02*
G54D28*
D03*
X707742Y464668D02*
G54D28*
D03*
X720442Y464668D02*
G54D28*
D03*
X733142Y464668D02*
G54D28*
D03*
X677503Y520707D02*
G54D11*
D03*
X677500Y501702D02*
G54D11*
D03*
X677500Y493714D02*
G54D11*
D03*
X677493Y474717D02*
G54D11*
D03*
X233853Y160707D02*
G54D11*
D03*
X233850Y141702D02*
G54D11*
D03*
X233850Y133714D02*
G54D11*
D03*
X233843Y114717D02*
G54D11*
D03*
X289493Y154667D02*
G54D28*
D03*
X276793Y154668D02*
G54D28*
D03*
X264093Y154668D02*
G54D28*
D03*
X251393Y154668D02*
G54D28*
D03*
X251393Y104668D02*
G54D28*
D03*
X264093Y104667D02*
G54D28*
D03*
X276793Y104667D02*
G54D28*
D03*
X289492Y104667D02*
G54D28*
D03*
X83853Y160707D02*
G54D11*
D03*
X83850Y141702D02*
G54D11*
D03*
X83850Y133714D02*
G54D11*
D03*
X83843Y114717D02*
G54D11*
D03*
X139493Y154667D02*
G54D28*
D03*
X126793Y154668D02*
G54D28*
D03*
X114093Y154668D02*
G54D28*
D03*
X101393Y154668D02*
G54D28*
D03*
X101393Y104668D02*
G54D28*
D03*
X114093Y104667D02*
G54D28*
D03*
X126793Y104667D02*
G54D28*
D03*
X139492Y104667D02*
G54D28*
D03*
X476353Y647411D02*
G54D17*
D03*
X476357Y664407D02*
G54D17*
D03*
X504026Y743496D02*
G54D17*
D03*
X504026Y760496D02*
G54D17*
D03*
X466450Y944124D02*
G54D11*
D03*
X466450Y925124D02*
G54D11*
D03*
X558512Y434257D02*
G54D29*
D03*
X578354Y434414D02*
G54D29*
D03*
X442752Y829128D02*
G54D23*
D03*
X412034Y825715D02*
G54D30*
D03*
X412034Y805715D02*
G54D30*
D03*
X150878Y809423D02*
G54D14*
D03*
X167878Y809423D02*
G54D14*
D03*
X166521Y844196D02*
G54D17*
D03*
X166521Y827196D02*
G54D17*
D03*
X253522Y622054D02*
G54D17*
D03*
X253519Y605052D02*
G54D17*
D03*
X235662Y622054D02*
G54D17*
D03*
X235659Y605052D02*
G54D17*
D03*
X253522Y587923D02*
G54D17*
D03*
X253519Y570921D02*
G54D17*
D03*
X235662Y587923D02*
G54D17*
D03*
X235659Y570921D02*
G54D17*
D03*
X216942Y517181D02*
G54D17*
D03*
X216935Y500176D02*
G54D17*
D03*
X235327Y517111D02*
G54D17*
D03*
X235324Y500110D02*
G54D17*
D03*
X217218Y622033D02*
G54D17*
D03*
X217215Y605031D02*
G54D17*
D03*
X217215Y587732D02*
G54D17*
D03*
X217212Y570730D02*
G54D17*
D03*
X217670Y535130D02*
G54D14*
D03*
X200666Y535137D02*
G54D14*
D03*
X235827Y552986D02*
G54D14*
D03*
X218825Y552989D02*
G54D14*
D03*
X330328Y619652D02*
G54D26*
D03*
X166872Y732184D02*
G54D15*
D03*
X186872Y732184D02*
G54D15*
D03*
X166872Y711787D02*
G54D15*
D03*
X186872Y711787D02*
G54D15*
D03*
X166872Y691390D02*
G54D15*
D03*
X166234Y672340D02*
G54D11*
D03*
X166234Y653340D02*
G54D11*
D03*
X131512Y710390D02*
G54D15*
D03*
X112512Y710390D02*
G54D15*
D03*
X827503Y520707D02*
G54D11*
D03*
X827500Y501702D02*
G54D11*
D03*
X827500Y493714D02*
G54D11*
D03*
X827493Y474717D02*
G54D11*
D03*
X883143Y514667D02*
G54D28*
D03*
X870443Y514668D02*
G54D28*
D03*
X857743Y514668D02*
G54D28*
D03*
X845043Y514668D02*
G54D28*
D03*
X845043Y464668D02*
G54D28*
D03*
X857743Y464667D02*
G54D28*
D03*
X870443Y464667D02*
G54D28*
D03*
X883142Y464667D02*
G54D28*
D03*
X130940Y463125D02*
G54D23*
D03*
X130940Y483125D02*
G54D23*
D03*
X130940Y503125D02*
G54D23*
D03*
X128290Y543125D02*
G54D23*
D03*
X30803Y503124D02*
G54D23*
D03*
X30803Y523124D02*
G54D23*
D03*
X30803Y543124D02*
G54D23*
D03*
X30803Y463124D02*
G54D23*
D03*
X805185Y844298D02*
G54D31*
D03*
G36*
X809685Y851047D02*
X813685Y851048D01*
X813686Y837548D01*
X809686Y837547D01*
X809685Y851047D01*
G37*
G36*
X816185Y851048D02*
X820185Y851048D01*
X820185Y837548D01*
X816185Y837548D01*
X816185Y851048D01*
G37*
X824685Y844298D02*
G54D31*
D03*
X831185Y844298D02*
G54D31*
D03*
X837685Y844298D02*
G54D31*
D03*
X844185Y844298D02*
G54D31*
D03*
X850685Y844298D02*
G54D31*
D03*
X857185Y844298D02*
G54D31*
D03*
X863685Y844298D02*
G54D31*
D03*
X805185Y901798D02*
G54D31*
D03*
X811685Y901798D02*
G54D31*
D03*
X818185Y901798D02*
G54D31*
D03*
G36*
X822685Y908548D02*
X826685Y908548D01*
X826685Y895048D01*
X822685Y895048D01*
X822685Y908548D01*
G37*
X831185Y901798D02*
G54D31*
D03*
X837685Y901798D02*
G54D31*
D03*
X844185Y901798D02*
G54D31*
D03*
X850685Y901798D02*
G54D31*
D03*
G36*
X855185Y908547D02*
X859185Y908548D01*
X859186Y895048D01*
X855186Y895047D01*
X855185Y908547D01*
G37*
X863685Y901798D02*
G54D31*
D03*
G36*
X894767Y944467D02*
X910767Y944467D01*
X910767Y934467D01*
X894767Y934467D01*
X894767Y944467D01*
G37*
X902765Y924387D02*
G54D32*
D03*
G36*
X894765Y915100D02*
X910765Y915100D01*
X910765Y905100D01*
X894765Y905100D01*
X894765Y915100D01*
G37*
G36*
X894765Y900812D02*
X910765Y900813D01*
X910766Y890813D01*
X894766Y890812D01*
X894765Y900812D01*
G37*
G36*
X894765Y886525D02*
X910765Y886525D01*
X910765Y876525D01*
X894765Y876525D01*
X894765Y886525D01*
G37*
X902767Y867234D02*
G54D32*
D03*
G36*
X894765Y857950D02*
X910765Y857950D01*
X910765Y847950D01*
X894765Y847950D01*
X894765Y857950D01*
G37*
X902765Y838662D02*
G54D32*
D03*
X882387Y867235D02*
G54D17*
D03*
X882387Y850235D02*
G54D17*
D03*
X932134Y793175D02*
G54D21*
D03*
X922128Y771180D02*
G54D21*
D03*
X912129Y793180D02*
G54D21*
D03*
X915134Y752856D02*
G54D14*
D03*
X932134Y752856D02*
G54D14*
D03*
X909891Y812455D02*
G54D14*
D03*
X926891Y812455D02*
G54D14*
D03*
X898765Y729931D02*
G54D33*
D03*
X928134Y729931D02*
G54D33*
D03*
X855141Y815975D02*
G54D17*
D03*
X855141Y798974D02*
G54D17*
D03*
X872641Y815975D02*
G54D17*
D03*
X872641Y798975D02*
G54D17*
D03*
X902767Y955342D02*
G54D32*
D03*
X881146Y938675D02*
G54D17*
D03*
X881146Y955675D02*
G54D17*
D03*
X863078Y938675D02*
G54D17*
D03*
X863078Y955675D02*
G54D17*
D03*
X831011Y922007D02*
G54D34*
D03*
G36*
X874831Y690458D02*
X940831Y690459D01*
X940831Y670459D01*
X874831Y670458D01*
X874831Y690458D01*
G37*
X816486Y680459D02*
G54D35*
D03*
X811968Y754988D02*
G54D22*
D03*
X833963Y744982D02*
G54D22*
D03*
X811963Y734982D02*
G54D22*
D03*
G36*
X834610Y787943D02*
X826831Y780165D01*
X818346Y788650D01*
X826124Y796428D01*
X834610Y787943D01*
G37*
G36*
X822589Y775923D02*
X814811Y768144D01*
X806325Y776629D01*
X814103Y784408D01*
X822589Y775923D01*
G37*
X781322Y782307D02*
G54D34*
D03*
X781322Y804532D02*
G54D34*
D03*
X781322Y826757D02*
G54D34*
D03*
X831011Y943438D02*
G54D34*
D03*
X891866Y811931D02*
G54D26*
D03*
X790754Y895974D02*
G54D17*
D03*
X790754Y912974D02*
G54D17*
D03*
X751444Y891646D02*
G54D36*
D03*
X751444Y931646D02*
G54D36*
D03*
G36*
X778904Y937646D02*
X789904Y937646D01*
X789904Y925646D01*
X778904Y925646D01*
X778904Y937646D01*
G37*
G36*
X795904Y937646D02*
X806904Y937646D01*
X806904Y925646D01*
X795904Y925646D01*
X795904Y937646D01*
G37*
X772511Y878974D02*
G54D17*
D03*
X772511Y895974D02*
G54D17*
D03*
X730270Y902324D02*
G54D17*
D03*
X730270Y919324D02*
G54D17*
D03*
X712172Y902324D02*
G54D17*
D03*
X712172Y919324D02*
G54D17*
D03*
X712172Y938182D02*
G54D14*
D03*
X729172Y938182D02*
G54D14*
D03*
X720603Y878350D02*
G54D37*
D03*
X720603Y964075D02*
G54D37*
D03*
X801404Y931646D02*
G54D14*
D03*
X801404Y931646D02*
G54D14*
D03*
M02*
