%FSLAX34Y34*%
%MOMM*%
%LNSILK_TOP*%
G71*
G01*
%ADD10C, 0.002*%
%ADD11C, 0.150*%
%ADD12C, 0.100*%
%ADD13C, 0.200*%
%ADD14C, 0.000*%
%ADD15C, 0.500*%
%ADD16C, 0.300*%
%ADD17C, 0.064*%
%ADD18C, 0.178*%
%LPD*%
G54D10*
X0Y1000000D02*
X954000Y1000000D01*
X954000Y6000D01*
X0Y6000D01*
X0Y1000000D01*
G54D11*
X184002Y785234D02*
X204002Y785234D01*
X204002Y747234D01*
X184002Y747234D01*
G54D12*
G75*
G01X247309Y718906D02*
G03X247309Y718906I-2500J0D01*
G01*
G36*
G75*
G01X247309Y718906D02*
G03X247309Y718906I-2500J0D01*
G01*
G37*
X247309Y718906D01*
G54D11*
X449640Y751000D02*
X449640Y769000D01*
X483640Y769000D01*
X483640Y751000D01*
X449640Y751000D01*
G54D11*
X566256Y791159D02*
X566256Y773159D01*
X532256Y773159D01*
X532256Y791159D01*
X566256Y791159D01*
G54D11*
X566256Y809415D02*
X566256Y791415D01*
X532256Y791415D01*
X532256Y809415D01*
X566256Y809415D01*
G54D11*
X480631Y857362D02*
X493359Y844634D01*
X469317Y820593D01*
X456589Y833320D01*
X480631Y857362D01*
G54D11*
X367950Y649334D02*
X367950Y667334D01*
X401950Y667334D01*
X401950Y649334D01*
X367950Y649334D01*
G54D11*
X503758Y673534D02*
X523758Y673534D01*
X523758Y724634D01*
X503758Y724634D01*
X503758Y673534D01*
G54D11*
X508758Y673534D02*
X518758Y673534D01*
X518759Y678534D01*
X508758Y678534D01*
X508758Y673534D01*
G54D13*
X318624Y924207D02*
X318624Y908207D01*
X327024Y908207D01*
G54D13*
X339824Y908207D02*
X331424Y908207D01*
X331424Y924207D01*
X339824Y924207D01*
G54D13*
X331424Y916207D02*
X339824Y916207D01*
G54D13*
X344224Y908207D02*
X344224Y924207D01*
X350224Y924207D01*
X352624Y923207D01*
X353824Y921207D01*
X353824Y911207D01*
X352624Y909207D01*
X350224Y908207D01*
X344224Y908207D01*
G54D13*
X358224Y911207D02*
X359424Y909207D01*
X361824Y908207D01*
X364224Y908207D01*
X366624Y909207D01*
X367824Y911207D01*
X367824Y913207D01*
X366624Y915207D01*
X364224Y916207D01*
X361824Y916207D01*
X359424Y917207D01*
X358224Y919207D01*
X358224Y921207D01*
X359424Y923207D01*
X361824Y924207D01*
X364224Y924207D01*
X366624Y923207D01*
X367824Y921207D01*
G54D11*
X262213Y911645D02*
X280213Y911645D01*
X280213Y877645D01*
X262213Y877645D01*
X262213Y911645D01*
G54D11*
X386566Y918587D02*
X399294Y905859D01*
X375253Y881817D01*
X362525Y894545D01*
X386566Y918587D01*
G54D11*
X305604Y915015D02*
X318332Y902287D01*
X294290Y878246D01*
X281562Y890974D01*
X305604Y915015D01*
G54D11*
X276806Y654330D02*
X289534Y641602D01*
X313575Y665644D01*
X300848Y678372D01*
X276806Y654330D01*
G54D11*
X157883Y545810D02*
X157883Y532810D01*
X167883Y532810D01*
G54D11*
X177883Y545810D02*
X169883Y545810D01*
G54D11*
X549039Y760433D02*
X549039Y742433D01*
X515039Y742433D01*
X515039Y760433D01*
X549039Y760433D01*
G54D11*
X467322Y674432D02*
X467322Y656432D01*
X433322Y656432D01*
X433322Y674432D01*
X467322Y674432D01*
G54D11*
X572227Y683540D02*
X554227Y683540D01*
X554227Y717540D01*
X572227Y717540D01*
X572227Y683540D01*
G54D11*
X552463Y755932D02*
X572463Y755932D01*
X572463Y717932D01*
X552463Y717932D01*
X552463Y755932D01*
G54D11*
X528789Y671971D02*
X528789Y651971D01*
X490789Y651971D01*
X490789Y671971D01*
X528789Y671971D01*
G54D11*
X572670Y734435D02*
X592670Y734435D01*
X592670Y696435D01*
X572670Y696435D01*
X572670Y734435D01*
G54D11*
X467322Y656176D02*
X467322Y638176D01*
X433322Y638176D01*
X433322Y656176D01*
X467322Y656176D01*
G54D11*
X584780Y809147D02*
X566780Y809146D01*
X566780Y775147D01*
X584780Y775146D01*
X584780Y809147D01*
G54D11*
X396677Y520604D02*
X396677Y502604D01*
X362677Y502604D01*
X362677Y520604D01*
X396677Y520604D01*
G54D11*
X432766Y953942D02*
X450766Y953942D01*
X450766Y919943D01*
X432766Y919942D01*
X432766Y953942D01*
G54D11*
X245304Y686949D02*
X232576Y699677D01*
X208534Y675636D01*
X221262Y662908D01*
X245304Y686949D01*
G54D11*
X190767Y545776D02*
X208767Y545776D01*
X208767Y579776D01*
X190767Y579776D01*
X190767Y545776D01*
G54D11*
X189889Y545804D02*
X189889Y532804D01*
X179889Y532804D01*
G54D11*
X142378Y782166D02*
X142378Y800166D01*
X176378Y800166D01*
X176378Y782166D01*
X142378Y782166D01*
G54D11*
X740143Y119667D02*
X740143Y139668D01*
X689042Y139667D01*
X689042Y119667D01*
X740143Y119667D01*
G54D11*
X740143Y124667D02*
X740143Y134667D01*
X735143Y134668D01*
X735143Y124667D01*
X740143Y124667D01*
G54D11*
X440143Y119667D02*
X440143Y139668D01*
X389043Y139667D01*
X389042Y119667D01*
X440143Y119667D01*
G54D11*
X440143Y124667D02*
X440143Y134667D01*
X435143Y134668D01*
X435143Y124667D01*
X440143Y124667D01*
G54D11*
X890142Y119667D02*
X890142Y139668D01*
X839042Y139667D01*
X839042Y119667D01*
X890142Y119667D01*
G54D11*
X890142Y124667D02*
X890142Y134667D01*
X885142Y134668D01*
X885142Y124667D01*
X890142Y124667D01*
G54D11*
X590143Y119667D02*
X590142Y139668D01*
X539042Y139667D01*
X539042Y119667D01*
X590143Y119667D01*
G54D11*
X590142Y124667D02*
X590142Y134667D01*
X585142Y134668D01*
X585143Y124667D01*
X590142Y124667D01*
G54D11*
X890143Y299667D02*
X890142Y319668D01*
X839042Y319667D01*
X839042Y299667D01*
X890143Y299667D01*
G54D11*
X890142Y304667D02*
X890142Y314667D01*
X885142Y314668D01*
X885143Y304667D01*
X890142Y304667D01*
G54D11*
X740143Y299667D02*
X740142Y319668D01*
X689042Y319667D01*
X689042Y299667D01*
X740143Y299667D01*
G54D11*
X740142Y304667D02*
X740142Y314667D01*
X735142Y314668D01*
X735143Y304667D01*
X740142Y304667D01*
G54D11*
X740143Y479667D02*
X740142Y499668D01*
X689042Y499668D01*
X689042Y479668D01*
X740143Y479667D01*
G54D11*
X740142Y484668D02*
X740142Y494668D01*
X735142Y494668D01*
X735143Y484668D01*
X740142Y484668D01*
G54D11*
X296493Y119667D02*
X296493Y139668D01*
X245392Y139667D01*
X245392Y119667D01*
X296493Y119667D01*
G54D11*
X296493Y124667D02*
X296493Y134667D01*
X291493Y134668D01*
X291493Y124667D01*
X296493Y124667D01*
G54D11*
X146493Y119667D02*
X146493Y139668D01*
X95392Y139667D01*
X95392Y119667D01*
X146493Y119667D01*
G54D11*
X146493Y124667D02*
X146493Y134667D01*
X141493Y134668D01*
X141493Y124667D01*
X146493Y124667D01*
G54D11*
X485357Y638907D02*
X467357Y638907D01*
X467357Y672907D01*
X485357Y672907D01*
X485357Y638907D01*
G54D11*
X513026Y734996D02*
X495026Y734996D01*
X495026Y768996D01*
X513026Y768996D01*
X513026Y734996D01*
G54D11*
X456450Y953624D02*
X476450Y953624D01*
X476450Y915624D01*
X456450Y915624D01*
X456450Y953624D01*
G54D14*
G75*
G01X536340Y668718D02*
G03X536340Y668718I-2000J0D01*
G01*
G36*
G75*
G01X536340Y668718D02*
G03X536340Y668718I-2000J0D01*
G01*
G37*
X536340Y668718D01*
G54D15*
X449012Y461152D02*
X478381Y461152D01*
X478381Y488537D01*
X449012Y488537D01*
X449012Y461152D01*
G54D13*
X196808Y789368D02*
X216841Y789368D01*
X216841Y811990D01*
X196808Y811990D01*
X196808Y789368D01*
G54D13*
X176379Y789368D02*
X196808Y789368D01*
X196808Y811990D01*
X176379Y811990D01*
X176379Y789368D01*
G54D11*
X142378Y800423D02*
X142378Y818423D01*
X176378Y818423D01*
X176378Y800423D01*
X142378Y800423D01*
G54D11*
X157521Y852696D02*
X175521Y852696D01*
X175521Y818696D01*
X157521Y818696D01*
X157521Y852696D01*
G54D11*
X262518Y630552D02*
X244519Y630553D01*
X244519Y596553D01*
X262518Y596552D01*
X262518Y630552D01*
G54D11*
X244659Y630552D02*
X226660Y630553D01*
X226660Y596553D01*
X244659Y596552D01*
X244659Y630552D01*
G54D11*
X262518Y596421D02*
X244519Y596421D01*
X244519Y562421D01*
X262518Y562421D01*
X262518Y596421D01*
G54D11*
X244659Y596421D02*
X226660Y596421D01*
X226660Y562421D01*
X244659Y562421D01*
X244659Y596421D01*
G54D11*
X225938Y525679D02*
X207939Y525679D01*
X207939Y491680D01*
X225939Y491679D01*
X225938Y525679D01*
G54D11*
X244324Y525610D02*
X226324Y525610D01*
X226324Y491610D01*
X244324Y491610D01*
X244324Y525610D01*
G54D11*
X226215Y630531D02*
X208215Y630532D01*
X208215Y596532D01*
X226215Y596531D01*
X226215Y630531D01*
G54D11*
X226212Y596230D02*
X208212Y596230D01*
X208212Y562230D01*
X226212Y562230D01*
X226212Y596230D01*
G54D11*
X226168Y526133D02*
X226169Y544133D01*
X192169Y544132D01*
X192168Y526132D01*
X226168Y526133D01*
G54D11*
X244325Y543989D02*
X244325Y561989D01*
X210325Y561989D01*
X210325Y543989D01*
X244325Y543989D01*
G54D11*
X148975Y765952D02*
X183900Y765952D01*
G54D11*
X166438Y778652D02*
X166438Y750078D01*
G54D11*
X156234Y681840D02*
X176234Y681840D01*
X176234Y643840D01*
X156234Y643840D01*
X156234Y681840D01*
G54D11*
X141012Y720390D02*
X141012Y700390D01*
X103012Y700390D01*
X103012Y720390D01*
X141012Y720390D01*
G54D11*
X890143Y479667D02*
X890143Y499668D01*
X839042Y499667D01*
X839042Y479667D01*
X890143Y479667D01*
G54D11*
X890143Y484667D02*
X890143Y494667D01*
X885143Y494668D01*
X885143Y484667D01*
X890143Y484667D01*
G54D13*
X102083Y477106D02*
X64583Y477106D01*
X64583Y457106D01*
X102083Y457106D01*
X102083Y477106D01*
G54D13*
X105258Y472106D02*
X115258Y472106D01*
G54D13*
X105258Y462106D02*
X115258Y462106D01*
G54D13*
X101978Y544327D02*
X101978Y506624D01*
X64672Y506624D01*
X64672Y544327D01*
X101978Y544327D01*
G54D12*
X805185Y850548D02*
X801435Y850548D01*
G54D12*
X867435Y895548D02*
X863685Y895548D01*
G54D12*
X805185Y895548D02*
X801435Y895548D01*
G54D12*
X801435Y873048D02*
X801435Y895548D01*
G54D12*
X801435Y850548D02*
X801435Y873048D01*
G54D12*
X867435Y873048D02*
X867435Y895548D01*
G54D12*
X867435Y850548D02*
X867435Y873048D01*
G54D12*
X801435Y895548D02*
X867435Y895548D01*
G54D12*
X867435Y850548D02*
X801435Y850548D01*
G54D12*
G75*
G01X799520Y847685D02*
G03X799520Y847685I-1191J0D01*
G01*
G36*
G75*
G01X799520Y847685D02*
G03X799520Y847685I-1191J0D01*
G01*
G37*
X799520Y847685D01*
G54D11*
X873387Y875735D02*
X891387Y875735D01*
X891387Y841735D01*
X873387Y841735D01*
X873387Y875735D01*
G54D11*
X906128Y788680D02*
X906128Y775680D01*
X916128Y775680D01*
G54D11*
X926128Y788680D02*
X918128Y788680D01*
G54D11*
X938135Y788674D02*
X938135Y775674D01*
X928135Y775674D01*
G54D11*
X906634Y743856D02*
X906634Y761856D01*
X940634Y761856D01*
X940634Y743856D01*
X906634Y743856D01*
G54D11*
X901391Y803455D02*
X901391Y821455D01*
X935391Y821455D01*
X935391Y803455D01*
X901391Y803455D01*
G54D11*
X846141Y824475D02*
X864141Y824475D01*
X864141Y790475D01*
X846141Y790475D01*
X846141Y824475D01*
G54D11*
X863641Y824475D02*
X881641Y824475D01*
X881641Y790475D01*
X863641Y790475D01*
X863641Y824475D01*
G54D11*
X890146Y930175D02*
X872147Y930175D01*
X872147Y964175D01*
X890146Y964175D01*
X890146Y930175D01*
G54D11*
X872078Y930175D02*
X854078Y930175D01*
X854078Y964175D01*
X872078Y964175D01*
X872078Y930175D01*
G54D16*
X702884Y776781D02*
X702884Y836781D01*
X762884Y836781D01*
X762884Y776781D01*
X702884Y776781D01*
G54D12*
G75*
G01X750884Y806781D02*
G03X750884Y806781I-18000J0D01*
G01*
G36*
G75*
G01X750884Y806781D02*
G03X750884Y806781I-18000J0D01*
G01*
G37*
X750884Y806781D01*
G54D13*
G75*
G01X903086Y680459D02*
G03X903086Y680459I-45000J0D01*
G01*
G54D11*
X816463Y728981D02*
X829463Y728981D01*
X829463Y738981D01*
G54D11*
X816463Y748982D02*
X816463Y740981D01*
G54D11*
X816469Y760988D02*
X829469Y760988D01*
X829469Y750988D01*
G54D11*
X826124Y800671D02*
X838852Y787943D01*
X814811Y763901D01*
X802083Y776629D01*
X826124Y800671D01*
G54D11*
X799754Y887474D02*
X781754Y887474D01*
X781754Y921474D01*
X799754Y921474D01*
X799754Y887474D01*
G54D17*
X788976Y897041D02*
X789421Y897841D01*
X789865Y898108D01*
X790754Y898108D01*
G54D17*
X790754Y895974D02*
X787199Y895974D01*
X787199Y897308D01*
X787421Y897841D01*
X787865Y898108D01*
X788310Y898108D01*
X788754Y897841D01*
X788976Y897308D01*
X788976Y895974D01*
G54D17*
X790754Y900951D02*
X787199Y900951D01*
X789421Y899351D01*
X789865Y899351D01*
X789865Y901485D01*
G54D17*
X789420Y907021D02*
X788086Y908354D01*
X791642Y908354D01*
G54D17*
X788753Y911731D02*
X790975Y911731D01*
X791420Y911464D01*
X791642Y910931D01*
X791642Y910398D01*
X791420Y909864D01*
X790975Y909598D01*
X788753Y909598D01*
X788309Y909864D01*
X788086Y910398D01*
X788086Y910931D01*
X788309Y911464D01*
X788753Y911731D01*
G54D17*
X791642Y912975D02*
X788086Y912975D01*
G54D17*
X790309Y913775D02*
X791642Y914575D01*
G54D17*
X790753Y912975D02*
X789642Y914575D01*
G54D11*
X775904Y922646D02*
X775904Y940647D01*
X809904Y940646D01*
X809904Y922646D01*
X775904Y922646D01*
G54D17*
X783927Y930379D02*
X784372Y931179D01*
X784816Y931445D01*
X785705Y931445D01*
G54D17*
X785705Y929312D02*
X782149Y929312D01*
X782149Y930645D01*
X782372Y931179D01*
X782816Y931445D01*
X783261Y931445D01*
X783705Y931179D01*
X783927Y930645D01*
X783927Y929312D01*
G54D17*
X782816Y932689D02*
X782372Y932956D01*
X782149Y933489D01*
X782149Y934022D01*
X782372Y934556D01*
X782816Y934822D01*
X783261Y934822D01*
X783705Y934556D01*
X783927Y934022D01*
X784149Y934556D01*
X784594Y934822D01*
X785038Y934822D01*
X785483Y934556D01*
X785705Y934022D01*
X785705Y933489D01*
X785483Y932956D01*
X785038Y932689D01*
G54D17*
X799181Y927736D02*
X797848Y929069D01*
X801404Y929069D01*
G54D17*
X798515Y932446D02*
X800737Y932446D01*
X801181Y932180D01*
X801404Y931646D01*
X801404Y931113D01*
X801181Y930580D01*
X800737Y930313D01*
X798515Y930313D01*
X798070Y930580D01*
X797848Y931113D01*
X797848Y931646D01*
X798070Y932180D01*
X798515Y932446D01*
G54D17*
X801404Y933690D02*
X797848Y933690D01*
G54D17*
X800070Y934490D02*
X801404Y935290D01*
G54D17*
X800515Y933690D02*
X799404Y935290D01*
G54D11*
X781511Y870474D02*
X763511Y870474D01*
X763511Y904474D01*
X781511Y904474D01*
X781511Y870474D01*
G54D17*
X773177Y877730D02*
X773622Y877464D01*
X773844Y876930D01*
X773844Y876397D01*
X773622Y875864D01*
X773177Y875597D01*
X770955Y875597D01*
X770511Y875864D01*
X770288Y876397D01*
X770288Y876930D01*
X770511Y877464D01*
X770955Y877730D01*
G54D17*
X773844Y880574D02*
X770288Y880574D01*
X772511Y878974D01*
X772955Y878974D01*
X772955Y881107D01*
G54D11*
X739270Y893824D02*
X721270Y893824D01*
X721270Y927824D01*
X739270Y927824D01*
X739270Y893824D01*
G54D17*
X729603Y899481D02*
X730048Y899214D01*
X730270Y898681D01*
X730270Y898147D01*
X730048Y897614D01*
X729603Y897347D01*
X727381Y897347D01*
X726937Y897614D01*
X726714Y898147D01*
X726714Y898681D01*
X726937Y899214D01*
X727381Y899481D01*
G54D17*
X728048Y900724D02*
X726714Y902058D01*
X730270Y902058D01*
G54D17*
X728048Y915414D02*
X726714Y916747D01*
X730270Y916747D01*
G54D17*
X730270Y917991D02*
X728270Y917991D01*
G54D17*
X728714Y917991D02*
X728403Y918257D01*
X728270Y918791D01*
X728403Y919324D01*
X728714Y919591D01*
X730270Y919591D01*
G54D17*
X730270Y920835D02*
X726714Y920835D01*
X726714Y922701D01*
G54D17*
X728492Y920835D02*
X728492Y922701D01*
G54D11*
X721172Y893824D02*
X703172Y893824D01*
X703172Y927824D01*
X721172Y927824D01*
X721172Y893824D01*
G54D17*
X711061Y899747D02*
X711506Y900547D01*
X711950Y900813D01*
X712839Y900813D01*
G54D17*
X712839Y898680D02*
X709284Y898680D01*
X709284Y900013D01*
X709506Y900547D01*
X709950Y900813D01*
X710395Y900813D01*
X710839Y900547D01*
X711061Y900013D01*
X711061Y898680D01*
G54D17*
X712839Y904190D02*
X712839Y902057D01*
X712617Y902057D01*
X712172Y902324D01*
X710839Y903924D01*
X710395Y904190D01*
X709950Y904190D01*
X709506Y903924D01*
X709284Y903390D01*
X709284Y902857D01*
X709506Y902324D01*
X709950Y902057D01*
G54D17*
X712172Y917014D02*
X708617Y917014D01*
X710839Y915414D01*
X711284Y915414D01*
X711284Y917547D01*
G54D17*
X708617Y918791D02*
X708617Y920924D01*
X709061Y920657D01*
X709728Y920124D01*
X710617Y919591D01*
X711284Y919324D01*
X712172Y919324D01*
G54D17*
X712172Y922168D02*
X708617Y922168D01*
G54D17*
X710839Y922968D02*
X712172Y923768D01*
G54D17*
X711284Y922168D02*
X710172Y923768D01*
G54D11*
X703672Y929182D02*
X703672Y947182D01*
X737672Y947182D01*
X737672Y929182D01*
X703672Y929182D01*
G54D17*
X712172Y938182D02*
X712617Y938982D01*
X713061Y939248D01*
X713950Y939248D01*
G54D17*
X713950Y937115D02*
X710395Y937115D01*
X710395Y938448D01*
X710617Y938982D01*
X711061Y939248D01*
X711506Y939248D01*
X711950Y938982D01*
X712172Y938448D01*
X712172Y937115D01*
G54D17*
X711728Y940492D02*
X710395Y941825D01*
X713950Y941825D01*
G54D17*
X729172Y936595D02*
X727839Y937928D01*
X731394Y937928D01*
G54D17*
X728505Y941305D02*
X730727Y941305D01*
X731172Y941039D01*
X731394Y940505D01*
X731394Y939972D01*
X731172Y939439D01*
X730727Y939172D01*
X728505Y939172D01*
X728061Y939439D01*
X727839Y939972D01*
X727839Y940505D01*
X728061Y941039D01*
X728505Y941305D01*
G54D17*
X731394Y942549D02*
X727839Y942549D01*
G54D17*
X730061Y943349D02*
X731394Y944149D01*
G54D17*
X730505Y942549D02*
X729394Y944149D01*
G54D18*
X774024Y992031D02*
X774024Y996298D01*
X778468Y996298D01*
X780246Y995231D01*
X781135Y993098D01*
X781135Y990965D01*
X780246Y988831D01*
X778468Y987765D01*
X769579Y987765D01*
X767801Y988831D01*
X766912Y990965D01*
X766912Y993098D01*
X767801Y995231D01*
X769579Y996298D01*
G54D18*
X772940Y699595D02*
X774717Y702795D01*
X776495Y703862D01*
X780051Y703862D01*
G54D18*
X780050Y695328D02*
X765828Y695328D01*
X765828Y700662D01*
X766717Y702795D01*
X768495Y703862D01*
X770273Y703862D01*
X772051Y702795D01*
X772940Y700662D01*
X772940Y695328D01*
M02*
