%FSLAX34Y34*%
%MOMM*%
%LNCOPPER_BOTTOM*%
G71*
G01*
%ADD10C, 0.002*%
%ADD11R, 1.590X1.200*%
%ADD12C, 1.150*%
%ADD13R, 4.100X2.300*%
%ADD14C, 1.400*%
%ADD15C, 0.500*%
%ADD16R, 2.200X2.200*%
%ADD17R, 2.000X1.900*%
%ADD18C, 1.800*%
%ADD19C, 1.500*%
%ADD20C, 1.300*%
%ADD21R, 2.800X1.870*%
%ADD22R, 1.900X2.000*%
%ADD23R, 1.950X1.000*%
%ADD24R, 2.600X3.350*%
%ADD25C, 1.350*%
%ADD26C, 1.850*%
%ADD27C, 0.900*%
%ADD28R, 1.800X1.700*%
%ADD29C, 1.300*%
%ADD30C, 0.400*%
%ADD31C, 1.350*%
%ADD32C, 1.200*%
%ADD33C, 1.600*%
%ADD34C, 1.400*%
%ADD35R, 3.200X1.600*%
%ADD36R, 1.700X1.800*%
%ADD37R, 4.100X1.600*%
%ADD38R, 3.100X1.600*%
%ADD39C, 0.700*%
%ADD40R, 1.200X1.590*%
%ADD41C, 1.100*%
%ADD42C, 1.000*%
%ADD43R, 2.000X2.100*%
%ADD44C, 0.150*%
%ADD45C, 0.300*%
%ADD46C, 0.950*%
%ADD47C, 1.800*%
%ADD48C, 1.400*%
%ADD49C, 2.100*%
%ADD50C, 1.800*%
%ADD51C, 1.600*%
%ADD52C, 2.900*%
%ADD53C, 2.800*%
%ADD54C, 0.286*%
%ADD55C, 0.100*%
%ADD56C, 3.300*%
%ADD57C, 1.900*%
%ADD58C, 2.900*%
%ADD59C, 0.498*%
%ADD60C, 0.304*%
%ADD61C, 0.330*%
%ADD62C, 0.367*%
%ADD63C, 0.272*%
%ADD64C, 0.299*%
%ADD65C, 0.475*%
%ADD66C, 0.417*%
%ADD67C, 0.385*%
%ADD68R, 0.990X0.600*%
%ADD69C, 0.550*%
%ADD70R, 3.500X1.700*%
%ADD71C, 0.800*%
%ADD72R, 1.600X1.600*%
%ADD73R, 1.400X1.300*%
%ADD74C, 1.000*%
%ADD75C, 0.700*%
%ADD76R, 1.600X0.670*%
%ADD77R, 1.200X1.100*%
%ADD78R, 1.100X1.200*%
%ADD79C, 0.500*%
%ADD80R, 1.350X0.400*%
%ADD81R, 2.000X2.750*%
%ADD82C, 0.750*%
%ADD83C, 1.250*%
%ADD84C, 0.350*%
%ADD85C, 0.800*%
%ADD86C, 0.280*%
%ADD87C, 3.000*%
%ADD88R, 2.400X0.800*%
%ADD89R, 3.300X0.800*%
%ADD90R, 2.300X0.800*%
%ADD91C, 0.900*%
%ADD92C, 0.750*%
%ADD93R, 0.600X0.990*%
%ADD94C, 2.000*%
%ADD95R, 1.500X3.000*%
%ADD96R, 2.000X3.000*%
%ADD97R, 1.200X1.300*%
%ADD98C, 0.600*%
%ADD99C, 1.300*%
%ADD100C, 2.800*%
%ADD101C, 1.200*%
%ADD102C, 2.300*%
%ADD103C, 2.000*%
%ADD104C, 2.500*%
%ADD105C, 1.100*%
%ADD106C, 2.100*%
%LPD*%
G54D10*
X0Y1000000D02*
X954000Y1000000D01*
X954000Y6000D01*
X0Y6000D01*
X0Y1000000D01*
G36*
X0Y1000000D02*
X954000Y1000000D01*
X954000Y6000D01*
X0Y6000D01*
X0Y1000000D01*
G37*
%LPC*%
X472846Y663380D02*
G54D11*
D03*
X472849Y672785D02*
G54D11*
D03*
X472846Y682380D02*
G54D11*
D03*
X498746Y682380D02*
G54D11*
D03*
X498746Y663380D02*
G54D11*
D03*
G54D12*
X472846Y663380D02*
X461586Y663380D01*
X459447Y665519D01*
X459447Y678616D01*
X463212Y682380D01*
X472846Y682380D01*
X526918Y660912D02*
G54D13*
D03*
X526918Y683912D02*
G54D13*
D03*
G54D12*
X498746Y682380D02*
X534786Y682380D01*
G54D12*
X498746Y663380D02*
X535023Y663380D01*
G54D14*
X546644Y614624D02*
X546644Y633674D01*
G36*
X493267Y681559D02*
X493267Y662509D01*
X542480Y660524D01*
X545453Y673481D01*
X541686Y685527D01*
X493267Y681559D01*
G37*
G54D15*
X493267Y681559D02*
X493267Y662509D01*
X542480Y660524D01*
X545453Y673481D01*
X541686Y685527D01*
X493267Y681559D01*
X497986Y638583D02*
G54D16*
D03*
X469986Y638583D02*
G54D16*
D03*
X447073Y637075D02*
G54D17*
D03*
X447075Y656080D02*
G54D17*
D03*
X517256Y642274D02*
G54D18*
D03*
X602712Y628919D02*
G54D18*
D03*
X343444Y616728D02*
G54D19*
D03*
X353704Y621278D02*
G54D19*
D03*
X361677Y586318D02*
G54D20*
D03*
G36*
X605637Y424127D02*
X605637Y460127D01*
X641637Y460127D01*
X641637Y424127D01*
X605637Y424127D01*
G37*
X336696Y632371D02*
G54D19*
D03*
X426303Y516423D02*
G54D21*
D03*
X426302Y503723D02*
G54D21*
D03*
X426303Y491022D02*
G54D21*
D03*
X426302Y478322D02*
G54D21*
D03*
X369303Y478322D02*
G54D21*
D03*
X369303Y491022D02*
G54D21*
D03*
X369303Y503722D02*
G54D21*
D03*
X369303Y516422D02*
G54D21*
D03*
X446771Y493007D02*
G54D17*
D03*
X446771Y476007D02*
G54D17*
D03*
X446771Y517151D02*
G54D17*
D03*
X446770Y500151D02*
G54D17*
D03*
X475890Y515700D02*
G54D22*
D03*
X492890Y515700D02*
G54D22*
D03*
G36*
X220286Y603375D02*
X231600Y614688D01*
X254226Y592058D01*
X242911Y580746D01*
X220286Y603375D01*
G37*
G36*
X229266Y612355D02*
X240580Y623668D01*
X263206Y601039D01*
X251892Y589726D01*
X229266Y612355D01*
G37*
G36*
X238246Y621336D02*
X249561Y632648D01*
X272186Y610019D01*
X260871Y598706D01*
X238246Y621336D01*
G37*
G36*
X247226Y630313D02*
X258539Y641628D01*
X281167Y619001D01*
X269854Y607687D01*
X247226Y630313D01*
G37*
G36*
X282581Y594959D02*
X293895Y606273D01*
X316522Y583645D01*
X305209Y572331D01*
X282581Y594959D01*
G37*
G36*
X273601Y585977D02*
X284914Y597292D01*
X307543Y574666D01*
X296230Y563351D01*
X273601Y585977D01*
G37*
G36*
X264621Y576998D02*
X275934Y588312D01*
X298562Y565685D01*
X287249Y554371D01*
X264621Y576998D01*
G37*
G36*
X255641Y568018D02*
X266955Y579332D01*
X289582Y556704D01*
X278268Y545391D01*
X255641Y568018D01*
G37*
X44673Y489012D02*
G54D22*
D03*
X61675Y489008D02*
G54D22*
D03*
X601986Y738588D02*
G54D23*
D03*
X601986Y732088D02*
G54D23*
D03*
X601986Y725588D02*
G54D23*
D03*
X601986Y719088D02*
G54D23*
D03*
X601986Y712588D02*
G54D23*
D03*
X628339Y688088D02*
G54D24*
D03*
X628339Y763088D02*
G54D24*
D03*
X461027Y743720D02*
G54D25*
D03*
G36*
X588767Y749414D02*
X583356Y744002D01*
X575678Y744002D01*
X570267Y749414D01*
X570267Y757092D01*
X575678Y762502D01*
X583356Y762502D01*
X588767Y757092D01*
X588767Y749414D01*
G37*
G54D26*
X628736Y763088D02*
X628736Y688088D01*
G54D27*
X601986Y719088D02*
X562784Y719088D01*
X559460Y715764D01*
X476397Y572278D02*
G54D20*
D03*
X458934Y580215D02*
G54D20*
D03*
X489224Y562752D02*
G54D20*
D03*
G54D12*
X523952Y715767D02*
X523952Y723814D01*
X525726Y725588D01*
X601986Y725588D01*
X584909Y691572D02*
G54D28*
D03*
X584909Y708572D02*
G54D28*
D03*
X567050Y691572D02*
G54D28*
D03*
X567050Y708572D02*
G54D28*
D03*
G54D29*
X566653Y691572D02*
X599826Y691572D01*
X603310Y688088D01*
X609660Y688088D01*
X476828Y736649D02*
G54D25*
D03*
G54D29*
X514477Y642274D02*
X496002Y642274D01*
G54D30*
X467666Y770318D02*
X430740Y733393D01*
X430740Y620712D01*
X440281Y611171D01*
X584368Y611171D01*
X637210Y664014D01*
X637210Y769445D01*
X636338Y770318D01*
X467666Y770318D01*
G54D29*
X468795Y634733D02*
X468795Y644570D01*
X460063Y653302D01*
X447472Y653302D01*
G54D31*
X447472Y654889D02*
X447472Y667177D01*
X452981Y672687D01*
X458934Y672687D01*
G54D32*
X322733Y550836D02*
X322733Y552420D01*
X307243Y567911D01*
X302982Y567911D01*
X290572Y580322D01*
G54D32*
X341783Y553611D02*
X329865Y565530D01*
X323324Y565530D01*
X299552Y589302D01*
X223659Y808816D02*
G54D33*
D03*
X223655Y797706D02*
G54D33*
D03*
G54D29*
X238627Y797707D02*
X223655Y797706D01*
G54D29*
X238631Y808816D02*
X223659Y808816D01*
X393577Y529018D02*
G54D33*
D03*
X45240Y524071D02*
G54D17*
D03*
X45237Y507069D02*
G54D17*
D03*
G54D29*
X24453Y523124D02*
X46830Y523124D01*
G54D29*
X45237Y507069D02*
X45237Y489571D01*
X479969Y823102D02*
G54D34*
D03*
X471153Y808731D02*
G54D34*
D03*
X492669Y822706D02*
G54D34*
D03*
X497842Y812784D02*
G54D34*
D03*
X499160Y799594D02*
G54D34*
D03*
X366218Y688888D02*
G54D35*
D03*
X366218Y676188D02*
G54D35*
D03*
X366218Y663488D02*
G54D35*
D03*
X366218Y650788D02*
G54D35*
D03*
X316218Y650788D02*
G54D35*
D03*
X316218Y663488D02*
G54D35*
D03*
X316218Y676188D02*
G54D35*
D03*
X316218Y688888D02*
G54D35*
D03*
G54D32*
X316218Y688888D02*
X316218Y676188D01*
G54D32*
X367012Y688888D02*
X341786Y688888D01*
X336697Y683799D01*
X336696Y632371D01*
G54D32*
X451791Y570293D02*
X377702Y570293D01*
X361677Y586318D01*
G54D32*
X458934Y580215D02*
X381544Y580215D01*
G36*
X292573Y663488D02*
X289072Y659987D01*
X289072Y642319D01*
X303610Y633543D01*
X329950Y607202D01*
X344615Y603380D01*
X345428Y634587D01*
X328362Y651652D01*
X292573Y663488D01*
G37*
G54D30*
X292573Y663488D02*
X289072Y659987D01*
X289072Y642319D01*
X303610Y633543D01*
X329950Y607202D01*
X344615Y603380D01*
X345428Y634587D01*
X328362Y651652D01*
X292573Y663488D01*
G36*
X317250Y701659D02*
X366218Y701659D01*
X366218Y663488D01*
X317250Y663488D01*
X317250Y701659D01*
G37*
G54D30*
X317250Y701659D02*
X366218Y701659D01*
X366218Y663488D01*
X317250Y663488D01*
X317250Y701659D01*
G54D29*
X567216Y614624D02*
X588417Y614624D01*
X602712Y628919D01*
G36*
X462606Y590037D02*
X476397Y572278D01*
X459331Y562752D01*
X451791Y570293D01*
X441671Y588946D01*
X462606Y590037D01*
G37*
G54D30*
X462606Y590037D02*
X476397Y572278D01*
X459331Y562752D01*
X451791Y570293D01*
X441671Y588946D01*
X462606Y590037D01*
X322093Y527484D02*
G54D17*
D03*
X322096Y544486D02*
G54D17*
D03*
X342093Y527484D02*
G54D17*
D03*
X342096Y544486D02*
G54D17*
D03*
G54D32*
X426303Y516423D02*
X446308Y516423D01*
X446770Y515960D01*
G54D32*
X426302Y503723D02*
X442008Y503723D01*
X446770Y498960D01*
G54D32*
X426302Y478322D02*
X443264Y478322D01*
X446770Y474816D01*
G36*
X538144Y623624D02*
X555144Y623624D01*
X555144Y605624D01*
X538144Y605624D01*
X538144Y623624D01*
G37*
X563644Y614624D02*
G54D36*
D03*
X370980Y688888D02*
G54D37*
D03*
X316218Y688888D02*
G54D38*
D03*
X370980Y676188D02*
G54D37*
D03*
X370980Y663488D02*
G54D37*
D03*
X370980Y650788D02*
G54D37*
D03*
X311455Y650788D02*
G54D37*
D03*
X311455Y663488D02*
G54D37*
D03*
X311455Y676188D02*
G54D37*
D03*
X311456Y688888D02*
G54D37*
D03*
G54D32*
X316218Y688888D02*
X316218Y700627D01*
X317250Y701659D01*
X389878Y701659D01*
X393450Y698087D01*
X393450Y664749D01*
X733142Y86067D02*
G54D19*
D03*
X433142Y86067D02*
G54D19*
D03*
X883142Y86067D02*
G54D19*
D03*
X583142Y86067D02*
G54D19*
D03*
G36*
X363237Y8249D02*
X363237Y73249D01*
X502687Y73249D01*
X502687Y8249D01*
X363237Y8249D01*
G37*
G36*
X513237Y8249D02*
X513237Y73249D01*
X652687Y73249D01*
X652687Y8249D01*
X513237Y8249D01*
G37*
G36*
X663237Y8249D02*
X663237Y73249D01*
X802687Y73249D01*
X802687Y8249D01*
X663237Y8249D01*
G37*
G36*
X813237Y8249D02*
X813237Y73249D01*
X952687Y73249D01*
X952687Y8249D01*
X813237Y8249D01*
G37*
X883142Y266067D02*
G54D19*
D03*
X733142Y266066D02*
G54D19*
D03*
G36*
X813237Y188249D02*
X813237Y253249D01*
X952687Y253249D01*
X952687Y188249D01*
X813237Y188249D01*
G37*
G36*
X663237Y188249D02*
X663237Y253249D01*
X802687Y253249D01*
X802687Y188249D01*
X663237Y188249D01*
G37*
X733142Y446067D02*
G54D19*
D03*
G36*
X663237Y368249D02*
X663237Y433249D01*
X802687Y433249D01*
X802687Y368249D01*
X663237Y368249D01*
G37*
X289492Y86067D02*
G54D19*
D03*
G36*
X219587Y8249D02*
X219587Y73249D01*
X359037Y73249D01*
X359037Y8249D01*
X219587Y8249D01*
G37*
X139492Y86067D02*
G54D19*
D03*
G36*
X69587Y8249D02*
X69587Y73249D01*
X209037Y73249D01*
X209037Y8249D01*
X69587Y8249D01*
G37*
G54D29*
X270712Y562362D02*
X270712Y559452D01*
X262096Y550836D01*
G54D39*
X25547Y182705D02*
X964969Y182705D01*
G54D29*
X569375Y605107D02*
X569375Y657179D01*
X546928Y679626D01*
X523808Y679626D01*
X542952Y741666D02*
G54D40*
D03*
X533547Y741664D02*
G54D40*
D03*
X523952Y741666D02*
G54D40*
D03*
X523952Y715767D02*
G54D40*
D03*
X542952Y715766D02*
G54D40*
D03*
X533548Y715764D02*
G54D40*
D03*
G54D12*
X523952Y741666D02*
X523952Y733861D01*
X525725Y732088D01*
X601986Y732088D01*
G54D32*
X533547Y741664D02*
X533547Y750475D01*
X534341Y751268D01*
G54D32*
X548231Y753252D02*
X579517Y753252D01*
G36*
X581739Y753252D02*
X543866Y753252D01*
X543866Y737774D01*
X581739Y737774D01*
X581739Y753252D01*
G37*
G54D30*
X581739Y753252D02*
X543866Y753252D01*
X543866Y737774D01*
X581739Y737774D01*
X581739Y753252D01*
G54D32*
X548231Y753252D02*
X536325Y753252D01*
X534341Y751268D01*
G54D32*
X533548Y715764D02*
X559460Y715764D01*
X566653Y708572D01*
G36*
X546644Y633674D02*
X563644Y633674D01*
X569662Y615140D01*
X569375Y605107D01*
X546640Y605357D01*
X546644Y633674D01*
G37*
G54D30*
X546644Y633674D02*
X563644Y633674D01*
X569662Y615140D01*
X569375Y605107D01*
X546640Y605357D01*
X546644Y633674D01*
G54D32*
X353704Y621278D02*
X384946Y590037D01*
X462606Y590037D01*
X476397Y576246D01*
X476397Y572278D01*
X609561Y587088D02*
G54D17*
D03*
X609561Y604088D02*
G54D17*
D03*
X454166Y847306D02*
G54D34*
D03*
X393450Y636048D02*
G54D34*
D03*
G54D32*
X370980Y663488D02*
X392982Y663488D01*
G54D32*
X393450Y664749D02*
X393450Y636048D01*
G54D29*
X569375Y605107D02*
X569375Y593024D01*
X560534Y584184D01*
X533944Y584184D01*
X529181Y579421D01*
X529181Y544496D01*
X513703Y529018D01*
X393577Y529018D01*
X343626Y529018D01*
X342093Y527484D01*
G54D29*
X446771Y517151D02*
X474439Y517151D01*
X475890Y515700D01*
G54D29*
X492890Y515700D02*
X519039Y515700D01*
X543561Y540223D01*
X543561Y561688D01*
G54D29*
X543561Y461688D02*
X543164Y491575D01*
X519039Y515700D01*
G36*
X543561Y540223D02*
X545545Y561688D01*
X528877Y560860D01*
X529181Y544496D01*
X513703Y529018D01*
X451494Y528224D01*
X446771Y517151D01*
X520489Y517151D01*
X543561Y540223D01*
G37*
G54D15*
X543561Y540223D02*
X545545Y561688D01*
X528877Y560860D01*
X529181Y544496D01*
X513703Y529018D01*
X451494Y528224D01*
X446771Y517151D01*
X520489Y517151D01*
X543561Y540223D01*
G54D39*
X641922Y192278D02*
X642716Y959438D01*
X546644Y633674D02*
G54D36*
D03*
X563644Y633674D02*
G54D36*
D03*
G36*
X248808Y813833D02*
X248804Y792689D01*
X316197Y792689D01*
X316201Y813833D01*
X248808Y813833D01*
G37*
G54D41*
X248808Y813833D02*
X248804Y792689D01*
X316197Y792689D01*
X316201Y813833D01*
X248808Y813833D01*
X416330Y704570D02*
G54D20*
D03*
X253135Y698538D02*
G54D20*
D03*
G54D42*
X253135Y698538D02*
X275698Y721100D01*
X399800Y721100D01*
X416330Y704570D01*
G54D42*
X523952Y715767D02*
X476114Y715767D01*
X461027Y730854D01*
X461027Y743720D01*
G54D42*
X523952Y741666D02*
X523952Y749750D01*
X518069Y755634D01*
X485525Y755634D01*
X476828Y746937D01*
X476828Y736649D01*
G54D30*
X579517Y753252D02*
X579517Y769298D01*
X454166Y835399D02*
G54D34*
D03*
G54D32*
X366218Y676188D02*
X353692Y676188D01*
X347016Y669512D01*
X347016Y627968D01*
X353704Y621278D01*
G54D42*
X489224Y562752D02*
X459331Y562752D01*
X451791Y570293D01*
G54D32*
X463784Y840256D02*
X458928Y835399D01*
X454166Y835399D01*
G54D32*
X471153Y808731D02*
X471153Y835718D01*
X472825Y837390D01*
G54D32*
X479969Y823102D02*
X479969Y832628D01*
X481556Y834215D01*
X285361Y603492D02*
G54D20*
D03*
G36*
X339884Y550837D02*
X300197Y550838D01*
X300197Y568798D01*
X288672Y580323D01*
X297652Y589303D01*
X321425Y565531D01*
X327966Y565531D01*
X339884Y553612D01*
X339884Y550837D01*
G37*
G54D30*
X339884Y550837D02*
X300197Y550838D01*
X300197Y568798D01*
X288672Y580323D01*
X297652Y589303D01*
X321425Y565531D01*
X327966Y565531D01*
X339884Y553612D01*
X339884Y550837D01*
G54D29*
X342093Y527484D02*
X285448Y527484D01*
X262096Y550836D01*
G54D32*
X285361Y603492D02*
X299552Y589302D01*
X558512Y434257D02*
G54D43*
D03*
X578354Y434414D02*
G54D43*
D03*
G36*
X453735Y628316D02*
X472785Y628316D01*
X472785Y647366D01*
X453735Y647366D01*
X453735Y628316D01*
G37*
G54D44*
X453735Y628316D02*
X472785Y628316D01*
X472785Y647366D01*
X453735Y647366D01*
X453735Y628316D01*
G36*
X508147Y641731D02*
X520053Y641731D01*
X520053Y663162D01*
X508147Y663162D01*
X508147Y641731D01*
G37*
G54D45*
X508147Y641731D02*
X520053Y641731D01*
X520053Y663162D01*
X508147Y663162D01*
X508147Y641731D01*
X238272Y536162D02*
G54D34*
D03*
G54D46*
X601986Y738588D02*
X562784Y738588D01*
X559707Y741664D01*
X533547Y741664D01*
G54D32*
X369303Y478322D02*
X296112Y478322D01*
X238272Y536162D01*
G54D32*
X426303Y491022D02*
X410620Y491022D01*
X397920Y478322D01*
X369303Y478322D01*
G54D32*
X426302Y503723D02*
X407445Y503723D01*
X394744Y491022D01*
X369303Y491022D01*
G54D32*
X426303Y516423D02*
X404270Y516423D01*
X391570Y503723D01*
X369303Y503722D01*
G36*
X397920Y478322D02*
X369303Y478322D01*
X369303Y525112D01*
X372812Y528621D01*
X414104Y528621D01*
X426303Y516423D01*
X426303Y491022D01*
X410620Y491022D01*
X397920Y478322D01*
G37*
G54D30*
X397920Y478322D02*
X369303Y478322D01*
X369303Y525112D01*
X372812Y528621D01*
X414104Y528621D01*
X426303Y516423D01*
X426303Y491022D01*
X410620Y491022D01*
X397920Y478322D01*
G54D29*
X369303Y516422D02*
X369303Y529080D01*
G54D32*
X305105Y663488D02*
X292573Y663488D01*
X289072Y659987D01*
X289072Y642319D01*
X297848Y633543D01*
G54D32*
X316218Y650788D02*
X316218Y636810D01*
X336300Y616728D01*
X345031Y616728D01*
X381544Y580215D01*
G54D32*
X297848Y633543D02*
X303610Y633543D01*
X329950Y607202D01*
X340792Y607202D01*
X361677Y586318D01*
G54D47*
X630839Y688088D02*
X630839Y665204D01*
G54D47*
X630839Y785971D02*
X630839Y763088D01*
G54D47*
X628339Y688088D02*
X609660Y688088D01*
X200172Y742537D02*
G54D48*
D03*
X199344Y732184D02*
G54D48*
D03*
X199222Y722140D02*
G54D48*
D03*
X198791Y711787D02*
G54D48*
D03*
X188713Y691390D02*
G54D48*
D03*
X344285Y921801D02*
G54D34*
D03*
X209697Y794528D02*
G54D34*
D03*
X181776Y810353D02*
G54D34*
D03*
X512181Y783746D02*
G54D34*
D03*
X514431Y800415D02*
G54D34*
D03*
G54D42*
X512181Y783746D02*
X466144Y783746D01*
G54D42*
X514431Y800415D02*
X523294Y791552D01*
X523294Y779909D01*
X518018Y774633D01*
X464145Y774633D01*
X578354Y444126D02*
G54D20*
D03*
G54D42*
X578354Y434414D02*
X578354Y444126D01*
X587442Y453215D01*
X354554Y919673D02*
G54D34*
D03*
G36*
X238627Y797707D02*
X253750Y797707D01*
X253750Y808815D01*
X238627Y808815D01*
X238627Y797707D01*
G37*
G54D30*
X238627Y797707D02*
X253750Y797707D01*
X253750Y808815D01*
X238627Y808815D01*
X238627Y797707D01*
X883142Y446067D02*
G54D19*
D03*
G36*
X813237Y368249D02*
X813237Y433249D01*
X952687Y433249D01*
X952687Y368249D01*
X813237Y368249D01*
G37*
X23806Y767680D02*
G54D49*
D03*
X23806Y742180D02*
G54D49*
D03*
X23806Y716680D02*
G54D49*
D03*
X23806Y691180D02*
G54D49*
D03*
X23806Y665680D02*
G54D49*
D03*
X23806Y640180D02*
G54D49*
D03*
X66082Y767680D02*
G54D49*
D03*
X66081Y742180D02*
G54D49*
D03*
X66081Y691180D02*
G54D49*
D03*
X66081Y665680D02*
G54D49*
D03*
X66081Y640181D02*
G54D49*
D03*
X46081Y754930D02*
G54D49*
D03*
X46081Y729430D02*
G54D49*
D03*
X46081Y652930D02*
G54D49*
D03*
X86082Y754930D02*
G54D49*
D03*
X86082Y729430D02*
G54D49*
D03*
X86081Y652930D02*
G54D49*
D03*
X46081Y678430D02*
G54D49*
D03*
X86081Y678430D02*
G54D49*
D03*
X66079Y716680D02*
G54D49*
D03*
G36*
X45944Y420006D02*
X9944Y420006D01*
X9944Y456006D01*
X45944Y456006D01*
X45944Y420006D01*
G37*
G54D29*
X24453Y523124D02*
X46830Y523124D01*
X137290Y543125D02*
G54D50*
D03*
X137290Y503125D02*
G54D50*
D03*
X137290Y483125D02*
G54D50*
D03*
X137290Y463125D02*
G54D50*
D03*
X24453Y543124D02*
G54D50*
D03*
X24453Y523124D02*
G54D50*
D03*
X24453Y503124D02*
G54D50*
D03*
X24453Y463124D02*
G54D50*
D03*
G54D51*
X24453Y463124D02*
X24457Y443081D01*
X29532Y438006D01*
X238572Y978303D02*
G54D52*
D03*
X263972Y978303D02*
G54D52*
D03*
X289372Y978303D02*
G54D52*
D03*
X314772Y978303D02*
G54D52*
D03*
X340172Y978303D02*
G54D52*
D03*
X365572Y978303D02*
G54D52*
D03*
X390972Y978303D02*
G54D52*
D03*
X416372Y978303D02*
G54D52*
D03*
G54D42*
X263972Y975922D02*
X263972Y948214D01*
X275975Y936212D01*
X406150Y936212D01*
X452981Y889381D01*
G54D42*
X289372Y975525D02*
X289372Y951389D01*
X297803Y942959D01*
X410119Y942959D01*
G54D42*
X314772Y974731D02*
X314772Y954168D01*
X319234Y949706D01*
X413691Y949706D01*
X473619Y889778D01*
G54D42*
X340172Y974731D02*
X340172Y959327D01*
X343444Y956056D01*
X419247Y956056D01*
G54D42*
X454166Y847306D02*
X454166Y888196D01*
X452981Y889381D01*
G54D42*
X463784Y840256D02*
X463784Y889293D01*
X410119Y942959D01*
G54D42*
X473619Y889778D02*
X473619Y838184D01*
X472825Y837390D01*
G54D42*
X481556Y834215D02*
X481556Y893746D01*
X419247Y956056D01*
G54D42*
X365572Y978303D02*
X365572Y967661D01*
X370828Y962406D01*
X423216Y962406D01*
X489097Y896524D01*
G54D42*
X492669Y822706D02*
X492669Y892952D01*
X489097Y896524D01*
X441472Y962406D02*
G54D34*
D03*
G54D42*
X503781Y850090D02*
X503781Y897715D01*
G54D42*
X503781Y897715D02*
X503781Y900096D01*
X441472Y962406D01*
G54D42*
X503781Y850090D02*
X503781Y818723D01*
X497842Y812784D01*
G54D42*
X416372Y978303D02*
X438671Y978303D01*
X514656Y902318D01*
X514656Y815090D01*
X499160Y799594D01*
G36*
X263972Y978303D02*
X263972Y948214D01*
X275975Y936212D01*
X406150Y936212D01*
X454166Y888196D01*
X454166Y835399D01*
X458928Y835399D01*
X463784Y840256D01*
X466616Y840256D01*
X471153Y835718D01*
X471153Y808731D01*
X471153Y814287D01*
X479969Y823102D01*
X492272Y823102D01*
X492669Y822706D01*
X492669Y817956D01*
X497842Y812784D01*
X497842Y800911D01*
X499160Y799594D01*
X514656Y815090D01*
X514656Y902318D01*
X438671Y978303D01*
X263972Y978303D01*
G37*
G54D30*
X263972Y978303D02*
X263972Y948214D01*
X275975Y936212D01*
X406150Y936212D01*
X454166Y888196D01*
X454166Y835399D01*
X458928Y835399D01*
X463784Y840256D01*
X466616Y840256D01*
X471153Y835718D01*
X471153Y808731D01*
X471153Y814287D01*
X479969Y823102D01*
X492272Y823102D01*
X492669Y822706D01*
X492669Y817956D01*
X497842Y812784D01*
X497842Y800911D01*
X499160Y799594D01*
X514656Y815090D01*
X514656Y902318D01*
X438671Y978303D01*
X263972Y978303D01*
G54D42*
X86082Y754930D02*
X95000Y763848D01*
X95000Y897080D01*
X110876Y912956D01*
X335440Y912956D01*
X344285Y921801D01*
X306678Y352584D02*
G54D53*
D03*
X374678Y352584D02*
G54D53*
D03*
X374678Y306584D02*
G54D53*
D03*
X306678Y306584D02*
G54D53*
D03*
X306678Y252584D02*
G54D53*
D03*
X374678Y252584D02*
G54D53*
D03*
X374678Y206584D02*
G54D53*
D03*
X306678Y206584D02*
G54D53*
D03*
X406678Y352584D02*
G54D53*
D03*
X474678Y352584D02*
G54D53*
D03*
X474678Y306584D02*
G54D53*
D03*
X406678Y306584D02*
G54D53*
D03*
X206678Y352584D02*
G54D53*
D03*
X274678Y352584D02*
G54D53*
D03*
X274678Y306584D02*
G54D53*
D03*
X206678Y306584D02*
G54D53*
D03*
X306678Y452584D02*
G54D53*
D03*
X374678Y452584D02*
G54D53*
D03*
X374678Y406584D02*
G54D53*
D03*
X306678Y406584D02*
G54D53*
D03*
G54D54*
X264857Y390547D02*
X260057Y381547D01*
X255257Y390547D01*
G54D54*
X249657Y391547D02*
X243657Y397547D01*
X243657Y381547D01*
G54D54*
X237097Y381547D02*
X238057Y381547D01*
X238057Y382347D01*
X237097Y382347D01*
X237097Y381547D01*
X238057Y381547D01*
G54D54*
X221897Y394547D02*
X221897Y384547D01*
X223097Y382547D01*
X225497Y381547D01*
X227897Y381547D01*
X230297Y382547D01*
X231497Y384547D01*
X231497Y394547D01*
X230297Y396547D01*
X227897Y397547D01*
X225497Y397547D01*
X223097Y396547D01*
X221897Y394547D01*
X262096Y550836D02*
G54D34*
D03*
X322096Y550836D02*
G54D34*
D03*
X342096Y550836D02*
G54D34*
D03*
G54D42*
X188713Y691390D02*
X188713Y503330D01*
X239458Y452584D01*
X306678Y452584D01*
G54D42*
X198791Y711787D02*
X183710Y711787D01*
X179138Y707215D01*
X179138Y448125D01*
X274678Y352584D01*
G54D42*
X199222Y722140D02*
X181362Y722140D01*
X171200Y711978D01*
X171200Y343042D01*
X184852Y329390D01*
X293008Y329390D01*
X306678Y343060D01*
X306678Y352584D01*
G54D42*
X200172Y742537D02*
X176359Y742537D01*
X155325Y721502D01*
X155325Y300815D01*
X203556Y252584D01*
X306678Y252584D01*
G54D42*
X354554Y919673D02*
X340136Y905256D01*
X116431Y905256D01*
X102750Y891574D01*
X102750Y750842D01*
X97988Y746080D01*
X97988Y635590D01*
X94206Y631809D01*
X74453Y631809D01*
X66081Y640181D01*
G36*
X179138Y707215D02*
X163262Y715152D01*
X155325Y721502D01*
X176359Y742537D01*
X200172Y742537D01*
X198791Y711787D01*
X183710Y711787D01*
X179138Y707215D01*
G37*
G54D55*
X179138Y707215D02*
X163262Y715152D01*
X155325Y721502D01*
X176359Y742537D01*
X200172Y742537D01*
X198791Y711787D01*
X183710Y711787D01*
X179138Y707215D01*
X118812Y876442D02*
G54D34*
D03*
X118812Y857392D02*
G54D34*
D03*
G36*
X102750Y750842D02*
X88650Y750842D01*
X88650Y762142D01*
X102750Y762142D01*
X102750Y750842D01*
G37*
G54D30*
X102750Y750842D02*
X88650Y750842D01*
X88650Y762142D01*
X102750Y762142D01*
X102750Y750842D01*
G54D32*
X106112Y695468D02*
X106112Y736742D01*
X110688Y741318D01*
X110688Y795292D01*
X117225Y801830D01*
G54D32*
X181776Y810353D02*
X125748Y810353D01*
X117225Y801830D01*
G54D32*
X209697Y794528D02*
X125798Y794528D01*
X118812Y787542D01*
X118812Y738330D01*
X115638Y735155D01*
X115638Y689118D01*
X106112Y695468D02*
G54D34*
D03*
X115638Y689118D02*
G54D34*
D03*
G54D42*
X268038Y425592D02*
X333125Y425592D01*
X350588Y443055D01*
X350588Y477980D01*
X268038Y425592D02*
G54D34*
D03*
X102938Y425592D02*
G54D34*
D03*
G54D42*
X61675Y489008D02*
X61675Y466855D01*
X102938Y425592D01*
G54D42*
X199344Y732184D02*
X180294Y732184D01*
X163262Y715152D01*
X163262Y338915D01*
X179772Y322405D01*
X390858Y322405D01*
X406678Y306584D01*
G54D42*
X118812Y857392D02*
X381385Y857392D01*
X464145Y774633D01*
G54D42*
X118812Y876442D02*
X373448Y876442D01*
X466144Y783746D01*
X709884Y772781D02*
G54D56*
D03*
X709884Y840781D02*
G54D56*
D03*
X755884Y840781D02*
G54D56*
D03*
X755884Y772781D02*
G54D56*
D03*
X832685Y680459D02*
G54D57*
D03*
X883486Y680459D02*
G54D57*
D03*
X761576Y719516D02*
G54D58*
D03*
X786976Y719515D02*
G54D58*
D03*
X761576Y973515D02*
G54D58*
D03*
X786976Y973515D02*
G54D58*
D03*
X891866Y811931D02*
G54D18*
D03*
X902767Y955342D02*
G54D18*
D03*
G54D29*
X891866Y811931D02*
X902767Y955342D01*
G54D30*
X676547Y652131D02*
X676547Y999794D01*
X954359Y999794D01*
X954359Y652131D01*
X676547Y652131D01*
%LPD*%
G54D59*
G36*
X447073Y634584D02*
X436573Y634584D01*
X436573Y639566D01*
X447073Y639566D01*
X447073Y634584D01*
G37*
G36*
X449564Y637075D02*
X449564Y627075D01*
X444582Y627075D01*
X444582Y637075D01*
X449564Y637075D01*
G37*
G54D60*
G36*
X427820Y478322D02*
X427820Y468472D01*
X424784Y468472D01*
X424784Y478322D01*
X427820Y478322D01*
G37*
G36*
X426302Y476804D02*
X411802Y476804D01*
X411802Y479840D01*
X426302Y479840D01*
X426302Y476804D01*
G37*
G36*
X426302Y479840D02*
X440802Y479840D01*
X440802Y476804D01*
X426302Y476804D01*
X426302Y479840D01*
G37*
G54D61*
G36*
X609561Y602438D02*
X599061Y602438D01*
X599061Y605738D01*
X609561Y605738D01*
X609561Y602438D01*
G37*
G36*
X607911Y604088D02*
X607911Y614088D01*
X611211Y614088D01*
X611211Y604088D01*
X607911Y604088D01*
G37*
G36*
X609561Y605738D02*
X620061Y605738D01*
X620061Y602438D01*
X609561Y602438D01*
X609561Y605738D01*
G37*
G54D62*
G36*
X544810Y633674D02*
X544810Y643174D01*
X548478Y643174D01*
X548478Y633674D01*
X544810Y633674D01*
G37*
G36*
X546644Y631840D02*
X537644Y631840D01*
X537644Y635508D01*
X546644Y635508D01*
X546644Y631840D01*
G37*
G54D63*
G36*
X558512Y432897D02*
X548012Y432897D01*
X548012Y435617D01*
X558512Y435617D01*
X558512Y432897D01*
G37*
G36*
X557152Y434257D02*
X557152Y445257D01*
X559872Y445257D01*
X559872Y434257D01*
X557152Y434257D01*
G37*
G54D64*
G36*
X66082Y769176D02*
X77082Y769176D01*
X77082Y766186D01*
X66082Y766186D01*
X66082Y769176D01*
G37*
G36*
X67577Y767680D02*
X67577Y756680D01*
X64587Y756680D01*
X64587Y767680D01*
X67577Y767680D01*
G37*
G36*
X66082Y766186D02*
X55082Y766186D01*
X55082Y769176D01*
X66082Y769176D01*
X66082Y766186D01*
G37*
G54D65*
G36*
X236195Y978303D02*
X236195Y993303D01*
X240949Y993303D01*
X240949Y978303D01*
X236195Y978303D01*
G37*
G36*
X240949Y978303D02*
X240949Y963303D01*
X236195Y963303D01*
X236195Y978303D01*
X240949Y978303D01*
G37*
G36*
X238572Y975926D02*
X223572Y975926D01*
X223572Y980680D01*
X238572Y980680D01*
X238572Y975926D01*
G37*
G54D66*
G36*
X709884Y770698D02*
X692884Y770698D01*
X692884Y774865D01*
X709884Y774865D01*
X709884Y770698D01*
G37*
G36*
X707800Y772781D02*
X707800Y789781D01*
X711967Y789781D01*
X711967Y772781D01*
X707800Y772781D01*
G37*
G36*
X709884Y774865D02*
X726884Y774865D01*
X726884Y770698D01*
X709884Y770698D01*
X709884Y774865D01*
G37*
G36*
X711967Y772781D02*
X711967Y755781D01*
X707800Y755781D01*
X707800Y772781D01*
X711967Y772781D01*
G37*
G54D66*
G36*
X709884Y842865D02*
X726884Y842865D01*
X726884Y838698D01*
X709884Y838698D01*
X709884Y842865D01*
G37*
G36*
X711967Y840781D02*
X711967Y823781D01*
X707800Y823781D01*
X707800Y840781D01*
X711967Y840781D01*
G37*
G36*
X709884Y838698D02*
X692884Y838698D01*
X692884Y842865D01*
X709884Y842865D01*
X709884Y838698D01*
G37*
G36*
X707800Y840781D02*
X707800Y857781D01*
X711967Y857781D01*
X711967Y840781D01*
X707800Y840781D01*
G37*
G54D67*
G36*
X759651Y719516D02*
X759651Y734516D01*
X763501Y734516D01*
X763501Y719516D01*
X759651Y719516D01*
G37*
G36*
X763501Y719516D02*
X763501Y704516D01*
X759651Y704516D01*
X759651Y719516D01*
X763501Y719516D01*
G37*
G36*
X761576Y717590D02*
X746576Y717590D01*
X746576Y721440D01*
X761576Y721440D01*
X761576Y717590D01*
G37*
G54D67*
G36*
X759651Y973515D02*
X759651Y988515D01*
X763501Y988515D01*
X763501Y973515D01*
X759651Y973515D01*
G37*
G36*
X763501Y973515D02*
X763501Y958515D01*
X759651Y958515D01*
X759651Y973515D01*
X763501Y973515D01*
G37*
G36*
X761576Y971590D02*
X746576Y971590D01*
X746576Y975440D01*
X761576Y975440D01*
X761576Y971590D01*
G37*
X472846Y663380D02*
G54D68*
D03*
X472849Y672785D02*
G54D68*
D03*
X472846Y682380D02*
G54D68*
D03*
X498746Y682380D02*
G54D68*
D03*
X498746Y663380D02*
G54D68*
D03*
G54D69*
X472846Y663380D02*
X461586Y663380D01*
X459447Y665519D01*
X459447Y678616D01*
X463212Y682380D01*
X472846Y682380D01*
X526918Y660912D02*
G54D70*
D03*
X526918Y683912D02*
G54D70*
D03*
G54D69*
X498746Y682380D02*
X534786Y682380D01*
G54D69*
X498746Y663380D02*
X535023Y663380D01*
G54D71*
X546644Y614624D02*
X546644Y633674D01*
X497986Y638583D02*
G54D72*
D03*
X469986Y638583D02*
G54D72*
D03*
X447073Y637075D02*
G54D73*
D03*
X447075Y656080D02*
G54D73*
D03*
X517256Y642274D02*
G54D74*
D03*
X602712Y628919D02*
G54D74*
D03*
X343444Y616728D02*
G54D75*
D03*
X353704Y621278D02*
G54D75*
D03*
X361677Y586318D02*
G54D75*
D03*
G36*
X611637Y430127D02*
X611637Y454127D01*
X635637Y454127D01*
X635637Y430127D01*
X611637Y430127D01*
G37*
X336696Y632371D02*
G54D75*
D03*
X369499Y551773D02*
G54D75*
D03*
X426303Y516423D02*
G54D76*
D03*
X426302Y503723D02*
G54D76*
D03*
X426303Y491022D02*
G54D76*
D03*
X426302Y478322D02*
G54D76*
D03*
X369303Y478322D02*
G54D76*
D03*
X369303Y491022D02*
G54D76*
D03*
X369303Y503722D02*
G54D76*
D03*
X369303Y516422D02*
G54D76*
D03*
X446771Y493007D02*
G54D77*
D03*
X446771Y476007D02*
G54D77*
D03*
X446771Y517151D02*
G54D77*
D03*
X446770Y500151D02*
G54D77*
D03*
X475890Y515700D02*
G54D78*
D03*
X492890Y515700D02*
G54D78*
D03*
G54D30*
X446771Y474816D02*
X446771Y462981D01*
G36*
X225943Y603374D02*
X231600Y609031D01*
X248569Y592059D01*
X242912Y586402D01*
X225943Y603374D01*
G37*
G36*
X234923Y612354D02*
X240580Y618011D01*
X257549Y601040D01*
X251892Y595383D01*
X234923Y612354D01*
G37*
G36*
X243903Y621335D02*
X249560Y626992D01*
X266529Y610019D01*
X260872Y604363D01*
X243903Y621335D01*
G37*
G36*
X252883Y630314D02*
X258539Y635971D01*
X275510Y619001D01*
X269854Y613344D01*
X252883Y630314D01*
G37*
G36*
X288238Y594959D02*
X293895Y600616D01*
X310865Y583645D01*
X305209Y577988D01*
X288238Y594959D01*
G37*
G36*
X279258Y585978D02*
X284914Y591635D01*
X301886Y574666D01*
X296229Y569008D01*
X279258Y585978D01*
G37*
G36*
X270278Y576998D02*
X275934Y582655D01*
X292905Y565685D01*
X287249Y560028D01*
X270278Y576998D01*
G37*
G36*
X261298Y568018D02*
X266955Y573675D01*
X283925Y556704D01*
X278268Y551047D01*
X261298Y568018D01*
G37*
G54D30*
X302096Y550836D02*
X225995Y626938D01*
G54D30*
X278531Y631113D02*
X219703Y572284D01*
X256925Y735790D02*
G54D79*
D03*
X584208Y599001D02*
G54D75*
D03*
X509278Y543042D02*
G54D75*
D03*
G54D69*
X472849Y672785D02*
X486009Y672785D01*
X44673Y489012D02*
G54D78*
D03*
X61675Y489008D02*
G54D78*
D03*
X252420Y462079D02*
G54D75*
D03*
X200666Y517637D02*
G54D75*
D03*
X561821Y889398D02*
G54D75*
D03*
X601986Y738588D02*
G54D80*
D03*
X601986Y732088D02*
G54D80*
D03*
X601986Y725588D02*
G54D80*
D03*
X601986Y719088D02*
G54D80*
D03*
X601986Y712588D02*
G54D80*
D03*
X628339Y688088D02*
G54D81*
D03*
X628339Y763088D02*
G54D81*
D03*
X461027Y743720D02*
G54D82*
D03*
G36*
X585767Y750658D02*
X582111Y747002D01*
X576923Y747002D01*
X573267Y750658D01*
X573267Y755846D01*
X576923Y759502D01*
X582111Y759502D01*
X585767Y755846D01*
X585767Y750658D01*
G37*
G54D83*
X628736Y763088D02*
X628736Y688088D01*
G54D30*
X601986Y712588D02*
X581288Y712588D01*
G54D45*
X601986Y719088D02*
X562784Y719088D01*
X559460Y715764D01*
X476397Y572278D02*
G54D75*
D03*
X458934Y580215D02*
G54D75*
D03*
X489224Y562752D02*
G54D75*
D03*
X512771Y622417D02*
G54D75*
D03*
G54D84*
X523952Y715767D02*
X523952Y723814D01*
X525726Y725588D01*
X601986Y725588D01*
X584909Y691572D02*
G54D77*
D03*
X584909Y708572D02*
G54D77*
D03*
X567050Y691572D02*
G54D77*
D03*
X567050Y708572D02*
G54D77*
D03*
G54D30*
X584909Y708572D02*
X566653Y708572D01*
G54D15*
X566653Y691572D02*
X599826Y691572D01*
X603310Y688088D01*
X609660Y688088D01*
X476828Y736649D02*
G54D82*
D03*
G54D15*
X514477Y642274D02*
X496002Y642274D01*
X510786Y702586D02*
G54D75*
D03*
G54D15*
X468795Y634733D02*
X468795Y644570D01*
X460063Y653302D01*
X447472Y653302D01*
G54D69*
X447472Y654889D02*
X447472Y667177D01*
X452981Y672687D01*
X458934Y672687D01*
X578652Y672820D02*
G54D75*
D03*
G54D30*
X322733Y550836D02*
X322733Y552420D01*
X307243Y567911D01*
X302982Y567911D01*
X290572Y580322D01*
G54D30*
X341783Y553611D02*
X329865Y565530D01*
X323324Y565530D01*
X299552Y589302D01*
X314333Y498116D02*
G54D75*
D03*
X223659Y808816D02*
G54D85*
D03*
X223655Y797706D02*
G54D85*
D03*
G54D15*
X238627Y797707D02*
X223655Y797706D01*
G54D15*
X238631Y808816D02*
X223659Y808816D01*
G54D86*
X248808Y813833D02*
X248808Y827839D01*
G54D86*
X316201Y813833D02*
X316201Y827839D01*
G54D86*
X248804Y782446D02*
X248804Y792689D01*
G54D86*
X316197Y781652D02*
X316197Y792689D01*
G54D86*
X316201Y813833D02*
X324062Y813833D01*
G54D86*
X316197Y792689D02*
X324059Y792689D01*
X487053Y485892D02*
G54D75*
D03*
X463240Y446204D02*
G54D75*
D03*
X393577Y529018D02*
G54D74*
D03*
X526740Y595429D02*
G54D75*
D03*
X565634Y521611D02*
G54D75*
D03*
X560475Y487876D02*
G54D75*
D03*
X45240Y524071D02*
G54D77*
D03*
X45237Y507069D02*
G54D77*
D03*
G54D15*
X24453Y523124D02*
X46830Y523124D01*
G54D15*
X45237Y507069D02*
X45237Y489571D01*
X285758Y508911D02*
G54D75*
D03*
X479969Y823102D02*
G54D85*
D03*
X471153Y808731D02*
G54D85*
D03*
X492669Y822706D02*
G54D85*
D03*
X497842Y812784D02*
G54D85*
D03*
X499160Y799594D02*
G54D85*
D03*
X393311Y430726D02*
G54D75*
D03*
X575080Y839110D02*
G54D87*
D03*
X366218Y688888D02*
G54D88*
D03*
X366218Y676188D02*
G54D88*
D03*
X366218Y663488D02*
G54D88*
D03*
X366218Y650788D02*
G54D88*
D03*
X316218Y650788D02*
G54D88*
D03*
X316218Y663488D02*
G54D88*
D03*
X316218Y676188D02*
G54D88*
D03*
X316218Y688888D02*
G54D88*
D03*
G54D30*
X316218Y688888D02*
X316218Y676188D01*
G54D30*
X366218Y630633D02*
X366218Y650788D01*
X460780Y622020D02*
G54D75*
D03*
X372277Y634720D02*
G54D75*
D03*
X415140Y605748D02*
G54D75*
D03*
G54D30*
X367012Y688888D02*
X341786Y688888D01*
X336697Y683799D01*
X336696Y632371D01*
G54D30*
X451791Y570293D02*
X377702Y570293D01*
X361677Y586318D01*
G54D30*
X458934Y580215D02*
X381544Y580215D01*
G54D15*
X567216Y614624D02*
X588417Y614624D01*
X602712Y628919D01*
X322093Y527484D02*
G54D77*
D03*
X322096Y544486D02*
G54D77*
D03*
X342093Y527484D02*
G54D77*
D03*
X342096Y544486D02*
G54D77*
D03*
X333383Y577570D02*
G54D75*
D03*
G54D30*
X426303Y516423D02*
X446308Y516423D01*
X446770Y515960D01*
G54D30*
X426302Y503723D02*
X442008Y503723D01*
X446770Y498960D01*
G54D30*
X426302Y478322D02*
X443264Y478322D01*
X446770Y474816D01*
G36*
X541144Y620624D02*
X552144Y620624D01*
X552144Y608624D01*
X541144Y608624D01*
X541144Y620624D01*
G37*
X563644Y614624D02*
G54D78*
D03*
X625880Y632339D02*
G54D75*
D03*
X370980Y688888D02*
G54D89*
D03*
X316218Y688888D02*
G54D90*
D03*
X370980Y676188D02*
G54D89*
D03*
X370980Y663488D02*
G54D89*
D03*
X370980Y650788D02*
G54D89*
D03*
X311455Y650788D02*
G54D89*
D03*
X311455Y663488D02*
G54D89*
D03*
X311455Y676188D02*
G54D89*
D03*
X311456Y688888D02*
G54D89*
D03*
G54D30*
X316218Y688888D02*
X316218Y700627D01*
X317250Y701659D01*
X389878Y701659D01*
X393450Y698087D01*
X393450Y664749D01*
X946643Y174275D02*
G54D75*
D03*
G54D30*
X946643Y60667D02*
X946643Y174275D01*
X796642Y174275D02*
G54D91*
D03*
X669642Y174275D02*
G54D91*
D03*
G54D15*
X796642Y60667D02*
X796642Y174275D01*
G54D15*
X669642Y60667D02*
X669642Y174275D01*
X733142Y86067D02*
G54D91*
D03*
X496642Y174275D02*
G54D91*
D03*
X369642Y174275D02*
G54D91*
D03*
G54D15*
X496642Y60667D02*
X496642Y174275D01*
G54D15*
X369642Y60667D02*
X369642Y174275D01*
X433142Y86067D02*
G54D91*
D03*
X946643Y174275D02*
G54D91*
D03*
X819642Y174275D02*
G54D91*
D03*
G54D15*
X946643Y60667D02*
X946643Y174275D01*
G54D15*
X819642Y60667D02*
X819642Y174275D01*
X883142Y86067D02*
G54D91*
D03*
X646642Y174275D02*
G54D91*
D03*
X519642Y174275D02*
G54D91*
D03*
G54D15*
X519642Y60667D02*
X519642Y174275D01*
G54D15*
X646642Y60667D02*
X646642Y174275D01*
X583142Y86067D02*
G54D91*
D03*
G54D92*
X484042Y60667D02*
X484042Y25267D01*
G54D92*
X471242Y60667D02*
X471242Y25267D01*
G54D92*
X458542Y60667D02*
X458542Y25267D01*
G54D92*
X445942Y60667D02*
X445942Y25267D01*
G54D92*
X420442Y60667D02*
X420442Y25267D01*
G54D92*
X496642Y60667D02*
X496642Y25267D01*
G54D92*
X407742Y60667D02*
X407742Y25267D01*
G54D92*
X395142Y60667D02*
X395142Y25267D01*
G54D92*
X382342Y60667D02*
X382342Y25267D01*
G54D92*
X369642Y60667D02*
X369642Y25267D01*
G54D92*
X634043Y60667D02*
X634042Y25267D01*
G54D92*
X621242Y60667D02*
X621242Y25267D01*
G54D92*
X608542Y60667D02*
X608542Y25267D01*
G54D92*
X595942Y60667D02*
X595942Y25267D01*
G54D92*
X570442Y60667D02*
X570442Y25267D01*
G54D92*
X646642Y60667D02*
X646642Y25267D01*
G54D92*
X557742Y60667D02*
X557742Y25267D01*
G54D92*
X545142Y60667D02*
X545142Y25267D01*
G54D92*
X532342Y60667D02*
X532342Y25267D01*
G54D92*
X519642Y60667D02*
X519642Y25267D01*
G54D92*
X784042Y60667D02*
X784042Y25267D01*
G54D92*
X771242Y60667D02*
X771242Y25267D01*
G54D92*
X758542Y60667D02*
X758542Y25267D01*
G54D92*
X745942Y60667D02*
X745942Y25267D01*
G54D92*
X720442Y60667D02*
X720442Y25267D01*
G54D92*
X796642Y60667D02*
X796642Y25267D01*
G54D92*
X707742Y60667D02*
X707742Y25267D01*
G54D92*
X695142Y60667D02*
X695142Y25267D01*
G54D92*
X682342Y60667D02*
X682342Y25267D01*
G54D92*
X669642Y60667D02*
X669642Y25267D01*
G54D92*
X934043Y60667D02*
X934043Y25267D01*
G54D92*
X921243Y60667D02*
X921243Y25267D01*
G54D92*
X908543Y60667D02*
X908543Y25267D01*
G54D92*
X895943Y60667D02*
X895943Y25267D01*
G54D92*
X870443Y60667D02*
X870443Y25267D01*
G54D92*
X946643Y60667D02*
X946643Y25267D01*
G54D92*
X857743Y60667D02*
X857743Y25267D01*
G54D92*
X845143Y60667D02*
X845143Y25267D01*
G54D92*
X832343Y60667D02*
X832343Y25267D01*
G54D92*
X819643Y60667D02*
X819643Y25267D01*
X946642Y354275D02*
G54D91*
D03*
X819642Y354275D02*
G54D91*
D03*
X883142Y266067D02*
G54D91*
D03*
G54D15*
X946642Y240667D02*
X946642Y354275D01*
G54D15*
X819642Y240667D02*
X819642Y354275D01*
X796642Y354275D02*
G54D91*
D03*
X669642Y354275D02*
G54D91*
D03*
G54D15*
X796642Y240666D02*
X796642Y354275D01*
G54D15*
X669642Y240666D02*
X669642Y354275D01*
X733142Y266066D02*
G54D91*
D03*
G54D92*
X934043Y240667D02*
X934042Y205267D01*
G54D92*
X921242Y240667D02*
X921242Y205267D01*
G54D92*
X908542Y240667D02*
X908542Y205267D01*
G54D92*
X895942Y240667D02*
X895942Y205267D01*
G54D92*
X870442Y240667D02*
X870442Y205267D01*
G54D92*
X946642Y240667D02*
X946642Y205267D01*
G54D92*
X857742Y240667D02*
X857742Y205267D01*
G54D92*
X845142Y240667D02*
X845142Y205267D01*
G54D92*
X832342Y240667D02*
X832342Y205267D01*
G54D92*
X819642Y240667D02*
X819642Y205267D01*
G54D92*
X784043Y240667D02*
X784042Y205267D01*
G54D92*
X771242Y240667D02*
X771242Y205267D01*
G54D92*
X758542Y240667D02*
X758542Y205267D01*
G54D92*
X745942Y240667D02*
X745942Y205267D01*
G54D92*
X720442Y240667D02*
X720442Y205267D01*
G54D92*
X796642Y240667D02*
X796642Y205267D01*
G54D92*
X707742Y240667D02*
X707742Y205267D01*
G54D92*
X695142Y240667D02*
X695142Y205267D01*
G54D92*
X682342Y240667D02*
X682342Y205267D01*
G54D92*
X669642Y240667D02*
X669642Y205267D01*
X796642Y534275D02*
G54D91*
D03*
X669642Y534275D02*
G54D91*
D03*
X733142Y446067D02*
G54D91*
D03*
G54D15*
X796642Y420667D02*
X796642Y534275D01*
G54D15*
X669642Y420667D02*
X669642Y534275D01*
G54D92*
X784043Y420667D02*
X784042Y385267D01*
G54D92*
X771242Y420667D02*
X771242Y385267D01*
G54D92*
X758542Y420667D02*
X758542Y385267D01*
G54D92*
X745942Y420667D02*
X745942Y385267D01*
G54D92*
X720442Y420667D02*
X720442Y385267D01*
G54D92*
X796642Y420667D02*
X796642Y385267D01*
G54D92*
X707742Y420667D02*
X707742Y385267D01*
G54D92*
X695142Y420667D02*
X695142Y385267D01*
G54D92*
X682342Y420667D02*
X682342Y385267D01*
G54D92*
X669642Y420667D02*
X669642Y385267D01*
X352992Y174275D02*
G54D91*
D03*
X225992Y174275D02*
G54D91*
D03*
X289492Y86067D02*
G54D91*
D03*
G54D15*
X352992Y60667D02*
X352992Y174275D01*
G54D15*
X225992Y60667D02*
X225992Y174275D01*
X289492Y86067D02*
G54D91*
D03*
G54D92*
X340393Y60667D02*
X340392Y25267D01*
G54D92*
X327592Y60667D02*
X327592Y25267D01*
G54D92*
X314892Y60667D02*
X314892Y25267D01*
G54D92*
X302292Y60667D02*
X302292Y25267D01*
G54D92*
X276792Y60667D02*
X276792Y25267D01*
G54D92*
X352992Y60667D02*
X352992Y25267D01*
G54D92*
X264092Y60667D02*
X264092Y25267D01*
G54D92*
X251492Y60667D02*
X251492Y25267D01*
G54D92*
X238692Y60667D02*
X238692Y25267D01*
G54D92*
X225992Y60667D02*
X225992Y25267D01*
X202992Y174275D02*
G54D91*
D03*
X75992Y174275D02*
G54D91*
D03*
X139492Y86067D02*
G54D91*
D03*
G54D15*
X202992Y60667D02*
X202992Y174275D01*
G54D15*
X75992Y60667D02*
X75992Y174275D01*
X139492Y86067D02*
G54D91*
D03*
G54D92*
X190393Y60667D02*
X190392Y25267D01*
G54D92*
X177592Y60667D02*
X177592Y25267D01*
G54D92*
X164892Y60667D02*
X164892Y25267D01*
G54D92*
X152292Y60667D02*
X152292Y25267D01*
G54D92*
X126792Y60667D02*
X126792Y25267D01*
G54D92*
X202992Y60667D02*
X202992Y25267D01*
G54D92*
X114092Y60667D02*
X114092Y25267D01*
G54D92*
X101492Y60667D02*
X101492Y25267D01*
G54D92*
X88692Y60667D02*
X88692Y25267D01*
G54D92*
X75992Y60667D02*
X75992Y25267D01*
G54D15*
X270712Y562362D02*
X270712Y559452D01*
X262096Y550836D01*
G54D39*
X569375Y605107D02*
X569375Y657179D01*
X546928Y679626D01*
X523808Y679626D01*
X542952Y741666D02*
G54D93*
D03*
X533547Y741664D02*
G54D93*
D03*
X523952Y741666D02*
G54D93*
D03*
X523952Y715767D02*
G54D93*
D03*
X542952Y715766D02*
G54D93*
D03*
X533548Y715764D02*
G54D93*
D03*
G54D84*
X523952Y741666D02*
X523952Y733861D01*
X525725Y732088D01*
X601986Y732088D01*
G54D30*
X533547Y741664D02*
X533547Y750475D01*
X534341Y751268D01*
G54D30*
X548231Y753252D02*
X579517Y753252D01*
G54D30*
X533547Y702270D02*
X533548Y715764D01*
G54D30*
X548231Y753252D02*
X536325Y753252D01*
X534341Y751268D01*
G54D30*
X533548Y715764D02*
X559460Y715764D01*
X566653Y708572D01*
X600480Y659723D02*
G54D75*
D03*
X422680Y881179D02*
G54D75*
D03*
X547561Y511732D02*
G54D94*
D03*
X587561Y461688D02*
G54D95*
D03*
X544355Y461688D02*
G54D96*
D03*
X609561Y561688D02*
G54D96*
D03*
X577561Y561688D02*
G54D95*
D03*
X545545Y561688D02*
G54D95*
D03*
G54D15*
X609561Y561688D02*
X609561Y587088D01*
X624372Y512086D02*
G54D75*
D03*
G54D30*
X353704Y621278D02*
X384946Y590037D01*
X462606Y590037D01*
X476397Y576246D01*
X476397Y572278D01*
X609561Y587088D02*
G54D77*
D03*
X609561Y604088D02*
G54D77*
D03*
X275975Y735790D02*
G54D79*
D03*
X301375Y735790D02*
G54D79*
D03*
X326775Y735790D02*
G54D79*
D03*
X352175Y735790D02*
G54D79*
D03*
X256925Y761190D02*
G54D79*
D03*
X275975Y761190D02*
G54D79*
D03*
X301375Y761190D02*
G54D79*
D03*
X326775Y761190D02*
G54D79*
D03*
X352175Y761190D02*
G54D79*
D03*
X352175Y786590D02*
G54D79*
D03*
X352175Y811990D02*
G54D79*
D03*
X352175Y837390D02*
G54D79*
D03*
X326775Y837390D02*
G54D79*
D03*
X301375Y837390D02*
G54D79*
D03*
X275975Y837390D02*
G54D79*
D03*
X377575Y735790D02*
G54D79*
D03*
X377575Y761190D02*
G54D79*
D03*
X377575Y786590D02*
G54D79*
D03*
X377575Y811990D02*
G54D79*
D03*
X454166Y847306D02*
G54D85*
D03*
X393450Y636048D02*
G54D85*
D03*
G54D30*
X370980Y663488D02*
X392982Y663488D01*
G54D30*
X393450Y664749D02*
X393450Y636048D01*
X377575Y837390D02*
G54D79*
D03*
G54D15*
X569375Y605107D02*
X569375Y593024D01*
X560534Y584184D01*
X533944Y584184D01*
X529181Y579421D01*
X529181Y544496D01*
X513703Y529018D01*
X393577Y529018D01*
X343626Y529018D01*
X342093Y527484D01*
G54D15*
X446771Y517151D02*
X474439Y517151D01*
X475890Y515700D01*
G54D15*
X492890Y515700D02*
X519039Y515700D01*
X543561Y540223D01*
X543561Y561688D01*
G54D15*
X543561Y461688D02*
X543164Y491575D01*
X519039Y515700D01*
X546644Y633674D02*
G54D78*
D03*
X563644Y633674D02*
G54D78*
D03*
G54D45*
X252000Y792689D02*
X252000Y813833D01*
X258000Y792689D02*
X258000Y813833D01*
X264000Y792689D02*
X264000Y813833D01*
X270000Y792689D02*
X270000Y813833D01*
X276000Y792689D02*
X276000Y813833D01*
X282000Y792689D02*
X282000Y813833D01*
X288000Y792689D02*
X288000Y813833D01*
X294000Y792689D02*
X294000Y813833D01*
X300000Y792689D02*
X300000Y813833D01*
X306000Y792689D02*
X306000Y813833D01*
X312000Y792689D02*
X312000Y813833D01*
X248805Y796000D02*
X316198Y796000D01*
X248806Y802000D02*
X316199Y802000D01*
X248807Y808000D02*
X316200Y808000D01*
G54D45*
X248808Y813833D02*
X248804Y792689D01*
X316197Y792689D01*
X316201Y813833D01*
X248808Y813833D01*
X326775Y811990D02*
G54D79*
D03*
X326775Y786590D02*
G54D79*
D03*
X416330Y704570D02*
G54D75*
D03*
X253135Y698538D02*
G54D75*
D03*
G54D30*
X253135Y698538D02*
X275698Y721100D01*
X399800Y721100D01*
X416330Y704570D01*
X495705Y729573D02*
G54D75*
D03*
G54D30*
X523952Y715767D02*
X476114Y715767D01*
X461027Y730854D01*
X461027Y743720D01*
G54D30*
X523952Y741666D02*
X523952Y749750D01*
X518069Y755634D01*
X485525Y755634D01*
X476828Y746937D01*
X476828Y736649D01*
X607227Y785532D02*
G54D75*
D03*
X454166Y835399D02*
G54D85*
D03*
X584605Y634323D02*
G54D75*
D03*
G54D30*
X366218Y676188D02*
X353692Y676188D01*
X347016Y669512D01*
X347016Y627968D01*
X353704Y621278D01*
G54D30*
X489224Y562752D02*
X459331Y562752D01*
X451791Y570293D01*
G54D30*
X463784Y840256D02*
X458928Y835399D01*
X454166Y835399D01*
G54D30*
X471153Y808731D02*
X471153Y835718D01*
X472825Y837390D01*
G54D30*
X479969Y823102D02*
X479969Y832628D01*
X481556Y834215D01*
X285361Y603492D02*
G54D75*
D03*
X296018Y618070D02*
G54D75*
D03*
G54D15*
X342093Y527484D02*
X285448Y527484D01*
X262096Y550836D01*
G54D30*
X285361Y603492D02*
X299552Y589302D01*
X558512Y434257D02*
G54D97*
D03*
X578354Y434414D02*
G54D97*
D03*
X253115Y837390D02*
G54D79*
D03*
X238272Y536162D02*
G54D85*
D03*
G54D84*
X601986Y738588D02*
X562784Y738588D01*
X559707Y741664D01*
X533547Y741664D01*
G54D30*
X369303Y478322D02*
X296112Y478322D01*
X238272Y536162D01*
G54D30*
X426303Y491022D02*
X410620Y491022D01*
X397920Y478322D01*
X369303Y478322D01*
G54D30*
X426302Y503723D02*
X407445Y503723D01*
X394744Y491022D01*
X369303Y491022D01*
G54D30*
X426303Y516423D02*
X404270Y516423D01*
X391570Y503723D01*
X369303Y503722D01*
G54D15*
X369303Y516422D02*
X369303Y529080D01*
X499753Y595429D02*
G54D75*
D03*
X349733Y498911D02*
G54D75*
D03*
X504516Y446204D02*
G54D75*
D03*
X338146Y465254D02*
G54D75*
D03*
G54D30*
X305105Y663488D02*
X292573Y663488D01*
X289072Y659987D01*
X289072Y642319D01*
X297848Y633543D01*
G54D30*
X316218Y650788D02*
X316218Y636810D01*
X336300Y616728D01*
X345031Y616728D01*
X381544Y580215D01*
G54D30*
X297848Y633543D02*
X303610Y633543D01*
X329950Y607202D01*
X340792Y607202D01*
X361677Y586318D01*
G54D42*
X628339Y763088D02*
X603310Y763088D01*
G54D42*
X630839Y688088D02*
X630839Y665204D01*
G54D42*
X630839Y785971D02*
X630839Y763088D01*
G54D42*
X628339Y688088D02*
X609660Y688088D01*
G54D15*
X628339Y725588D02*
X616022Y725588D01*
G54D15*
X628339Y738088D02*
X616022Y738088D01*
G54D15*
X628339Y713088D02*
X616022Y713088D01*
X200172Y742537D02*
G54D98*
D03*
X199344Y732184D02*
G54D98*
D03*
X199222Y722140D02*
G54D98*
D03*
X198791Y711787D02*
G54D98*
D03*
X188713Y691390D02*
G54D98*
D03*
G54D71*
X546644Y600337D02*
X546644Y614624D01*
X148042Y735923D02*
G54D75*
D03*
X344285Y921801D02*
G54D85*
D03*
X209697Y794528D02*
G54D85*
D03*
X181776Y810353D02*
G54D85*
D03*
X512181Y783746D02*
G54D85*
D03*
X514431Y800415D02*
G54D85*
D03*
G54D30*
X512181Y783746D02*
X466144Y783746D01*
G54D30*
X514431Y800415D02*
X523294Y791552D01*
X523294Y779909D01*
X518018Y774633D01*
X464145Y774633D01*
X556030Y762752D02*
G54D75*
D03*
X578354Y444126D02*
G54D75*
D03*
G54D30*
X578354Y434414D02*
X578354Y444126D01*
X587442Y453215D01*
X542616Y435092D02*
G54D75*
D03*
X564840Y460492D02*
G54D75*
D03*
X137466Y952756D02*
G54D75*
D03*
X354554Y919673D02*
G54D85*
D03*
X159691Y930531D02*
G54D75*
D03*
X946642Y534275D02*
G54D91*
D03*
X819642Y534275D02*
G54D91*
D03*
X883142Y446067D02*
G54D91*
D03*
G54D15*
X946642Y420667D02*
X946642Y534275D01*
G54D15*
X819642Y420667D02*
X819642Y534275D01*
X883142Y446067D02*
G54D91*
D03*
G54D92*
X934043Y420667D02*
X934042Y385267D01*
G54D92*
X921242Y420667D02*
X921242Y385267D01*
G54D92*
X908542Y420667D02*
X908542Y385267D01*
G54D92*
X895942Y420667D02*
X895942Y385267D01*
G54D92*
X870442Y420667D02*
X870442Y385267D01*
G54D92*
X946642Y420667D02*
X946642Y385267D01*
G54D92*
X857742Y420667D02*
X857742Y385267D01*
G54D92*
X845142Y420667D02*
X845142Y385267D01*
G54D92*
X832342Y420667D02*
X832342Y385267D01*
G54D92*
X819642Y420667D02*
X819642Y385267D01*
X23806Y767680D02*
G54D99*
D03*
X23806Y742180D02*
G54D99*
D03*
X23806Y716680D02*
G54D99*
D03*
X23806Y691180D02*
G54D99*
D03*
X23806Y665680D02*
G54D99*
D03*
X23806Y640180D02*
G54D99*
D03*
X66082Y767680D02*
G54D99*
D03*
X66081Y742180D02*
G54D99*
D03*
X66081Y691180D02*
G54D99*
D03*
X66081Y665680D02*
G54D99*
D03*
X66081Y640181D02*
G54D99*
D03*
X46081Y754930D02*
G54D99*
D03*
X46081Y729430D02*
G54D99*
D03*
X46081Y652930D02*
G54D99*
D03*
X86082Y754930D02*
G54D99*
D03*
X86082Y729430D02*
G54D99*
D03*
X86081Y652930D02*
G54D99*
D03*
X46081Y678430D02*
G54D99*
D03*
X86081Y678430D02*
G54D99*
D03*
X66079Y716680D02*
G54D99*
D03*
X75080Y839110D02*
G54D100*
D03*
G36*
X40944Y425006D02*
X14944Y425006D01*
X14944Y451006D01*
X40944Y451006D01*
X40944Y425006D01*
G37*
G54D15*
X24453Y523124D02*
X46830Y523124D01*
X137290Y543125D02*
G54D101*
D03*
X137290Y503125D02*
G54D101*
D03*
X137290Y483125D02*
G54D101*
D03*
X137290Y463125D02*
G54D101*
D03*
X24453Y543124D02*
G54D101*
D03*
X24453Y523124D02*
G54D101*
D03*
X24453Y503124D02*
G54D101*
D03*
X24453Y463124D02*
G54D101*
D03*
G54D71*
X24453Y463124D02*
X24457Y443081D01*
X29532Y438006D01*
X238572Y978303D02*
G54D102*
D03*
X263972Y978303D02*
G54D102*
D03*
X289372Y978303D02*
G54D102*
D03*
X314772Y978303D02*
G54D102*
D03*
X340172Y978303D02*
G54D102*
D03*
X365572Y978303D02*
G54D102*
D03*
X390972Y978303D02*
G54D102*
D03*
X416372Y978303D02*
G54D102*
D03*
G54D30*
X263972Y975922D02*
X263972Y948214D01*
X275975Y936212D01*
X406150Y936212D01*
X452981Y889381D01*
G54D30*
X289372Y975525D02*
X289372Y951389D01*
X297803Y942959D01*
X410119Y942959D01*
G54D30*
X314772Y974731D02*
X314772Y954168D01*
X319234Y949706D01*
X413691Y949706D01*
X473619Y889778D01*
G54D30*
X340172Y974731D02*
X340172Y959327D01*
X343444Y956056D01*
X419247Y956056D01*
G54D30*
X454166Y847306D02*
X454166Y888196D01*
X452981Y889381D01*
G54D30*
X463784Y840256D02*
X463784Y889293D01*
X410119Y942959D01*
G54D30*
X473619Y889778D02*
X473619Y838184D01*
X472825Y837390D01*
G54D30*
X481556Y834215D02*
X481556Y893746D01*
X419247Y956056D01*
G54D30*
X365572Y978303D02*
X365572Y967661D01*
X370828Y962406D01*
X423216Y962406D01*
X489097Y896524D01*
G54D30*
X492669Y822706D02*
X492669Y892952D01*
X489097Y896524D01*
X441472Y962406D02*
G54D85*
D03*
G54D30*
X503781Y850090D02*
X503781Y897715D01*
G54D30*
X503781Y897715D02*
X503781Y900096D01*
X441472Y962406D01*
G54D30*
X503781Y850090D02*
X503781Y818723D01*
X497842Y812784D01*
G54D30*
X416372Y978303D02*
X438671Y978303D01*
X514656Y902318D01*
X514656Y815090D01*
X499160Y799594D01*
X405218Y868479D02*
G54D75*
D03*
G54D30*
X86082Y754930D02*
X95000Y763848D01*
X95000Y897080D01*
X110876Y912956D01*
X335440Y912956D01*
X344285Y921801D01*
X269228Y921799D02*
G54D75*
D03*
X443318Y885942D02*
G54D75*
D03*
X306678Y352584D02*
G54D103*
D03*
X374678Y352584D02*
G54D103*
D03*
X374678Y306584D02*
G54D103*
D03*
X306678Y306584D02*
G54D103*
D03*
X306678Y252584D02*
G54D103*
D03*
X374678Y252584D02*
G54D103*
D03*
X374678Y206584D02*
G54D103*
D03*
X306678Y206584D02*
G54D103*
D03*
X406678Y352584D02*
G54D103*
D03*
X474678Y352584D02*
G54D103*
D03*
X474678Y306584D02*
G54D103*
D03*
X406678Y306584D02*
G54D103*
D03*
X206678Y352584D02*
G54D103*
D03*
X274678Y352584D02*
G54D103*
D03*
X274678Y306584D02*
G54D103*
D03*
X206678Y306584D02*
G54D103*
D03*
X306678Y452584D02*
G54D103*
D03*
X374678Y452584D02*
G54D103*
D03*
X374678Y406584D02*
G54D103*
D03*
X306678Y406584D02*
G54D103*
D03*
X262096Y550836D02*
G54D85*
D03*
X322096Y550836D02*
G54D85*
D03*
X342096Y550836D02*
G54D85*
D03*
G54D30*
X188713Y691390D02*
X188713Y503330D01*
X239458Y452584D01*
X306678Y452584D01*
G54D30*
X198791Y711787D02*
X183710Y711787D01*
X179138Y707215D01*
X179138Y448125D01*
X274678Y352584D01*
G54D30*
X199222Y722140D02*
X181362Y722140D01*
X171200Y711978D01*
X171200Y343042D01*
X184852Y329390D01*
X293008Y329390D01*
X306678Y343060D01*
X306678Y352584D01*
G54D30*
X200172Y742537D02*
X176359Y742537D01*
X155325Y721502D01*
X155325Y300815D01*
X203556Y252584D01*
X306678Y252584D01*
G54D30*
X354554Y919673D02*
X340136Y905256D01*
X116431Y905256D01*
X102750Y891574D01*
X102750Y750842D01*
X97988Y746080D01*
X97988Y635590D01*
X94206Y631809D01*
X74453Y631809D01*
X66081Y640181D01*
X211542Y688298D02*
G54D75*
D03*
X203605Y650198D02*
G54D75*
D03*
X118812Y876442D02*
G54D85*
D03*
X118812Y857392D02*
G54D85*
D03*
X118416Y892431D02*
G54D75*
D03*
X121658Y827034D02*
G54D75*
D03*
G54D30*
X106112Y695468D02*
X106112Y736742D01*
X110688Y741318D01*
X110688Y795292D01*
X117225Y801830D01*
G54D30*
X181776Y810353D02*
X125748Y810353D01*
X117225Y801830D01*
G54D30*
X209697Y794528D02*
X125798Y794528D01*
X118812Y787542D01*
X118812Y738330D01*
X115638Y735155D01*
X115638Y689118D01*
X106112Y695468D02*
G54D85*
D03*
X115638Y689118D02*
G54D85*
D03*
G54D30*
X268038Y425592D02*
X333125Y425592D01*
X350588Y443055D01*
X350588Y477980D01*
X268038Y425592D02*
G54D85*
D03*
X102938Y425592D02*
G54D85*
D03*
G54D30*
X61675Y489008D02*
X61675Y466855D01*
X102938Y425592D01*
G54D30*
X199344Y732184D02*
X180294Y732184D01*
X163262Y715152D01*
X163262Y338915D01*
X179772Y322405D01*
X390858Y322405D01*
X406678Y306584D01*
X472921Y978298D02*
G54D75*
D03*
X199871Y978298D02*
G54D75*
D03*
G54D30*
X118812Y857392D02*
X381385Y857392D01*
X464145Y774633D01*
G54D30*
X118812Y876442D02*
X373448Y876442D01*
X466144Y783746D01*
X228027Y890800D02*
G54D75*
D03*
X159720Y890695D02*
G54D75*
D03*
X232716Y930531D02*
G54D75*
D03*
X552140Y328729D02*
G54D75*
D03*
X244166Y271579D02*
G54D75*
D03*
X202890Y385879D02*
G54D75*
D03*
X94940Y360479D02*
G54D75*
D03*
X69540Y262054D02*
G54D75*
D03*
X193366Y220779D02*
G54D75*
D03*
X450540Y233479D02*
G54D75*
D03*
X545790Y262054D02*
G54D75*
D03*
X44140Y379529D02*
G54D75*
D03*
X709884Y772781D02*
G54D104*
D03*
X709884Y840781D02*
G54D104*
D03*
X755884Y840781D02*
G54D104*
D03*
X755884Y772781D02*
G54D104*
D03*
X832685Y680459D02*
G54D105*
D03*
X883486Y680459D02*
G54D105*
D03*
X761576Y719516D02*
G54D106*
D03*
X786976Y719515D02*
G54D106*
D03*
X761576Y973515D02*
G54D106*
D03*
X786976Y973515D02*
G54D106*
D03*
X891866Y811931D02*
G54D74*
D03*
X902767Y955342D02*
G54D74*
D03*
G54D15*
X891866Y811931D02*
X902767Y955342D01*
M02*
