; Drill file
; Format: 2.4 (00.0000)
M48
INCH
T01C0.0157
T02C0.0197
T03C0.0236
T04C0.0276
T05C0.0315
T06C0.0354
T07C0.0394
T08C0.0413
T09C0.0551
T10C0.0591
T11C0.0984
%
G05
G90
T01
X007430Y027220
X007830Y028020
X007840Y028430
X007850Y028830
X007880Y029230
X010120Y028970
X010870Y028970
X011870Y028970
X012870Y028970
X013870Y028970
X013870Y029970
X012870Y029970
X011870Y029970
X010870Y029970
X010120Y029970
X012870Y030970
X013870Y030970
X013870Y031970
X013870Y032970
X012870Y032970
X011870Y032970
X010870Y032970
X009970Y032970
X012870Y031970
X014870Y031970
X014870Y030970
X014870Y029970
X014870Y028970
X014870Y032970
T02
X005490Y003390
X002990Y006860
X002740Y010320
X003740Y014190
X001740Y014940
X004050Y016760
X007990Y015190
X010550Y016760
X009940Y018190
X011250Y020040
X012380Y019610
X013770Y019640
X013310Y018320
X015480Y016960
X018240Y017570
X019860Y017570
X021360Y017130
X022240Y018130
X022770Y017490
X022070Y019210
X022270Y020540
X024580Y020160
X026360Y021030
X023000Y023580
X023730Y024760
X023020Y024970
X023640Y025970
X022780Y026490
X024640Y024900
X027260Y026290
X028260Y028910
X030640Y029540
X032080Y027980
X033700Y027790
X033780Y026790
X036390Y027730
X037200Y026040
X035330Y030540
X035110Y031970
X036580Y033100
X036580Y034160
X034140Y033850
X033140Y033850
X032010Y033850
X032010Y034480
X030830Y033850
X028830Y033730
X027260Y031790
X023910Y030930
X021890Y030030
X020160Y030860
X020250Y031510
X019650Y031480
X019600Y032000
X019400Y032390
X018900Y032410
X018550Y031840
X017880Y032890
X017880Y033360
X017450Y034880
X016640Y034690
X015950Y034190
X013960Y036210
X013550Y036290
X010600Y036290
X009160Y036640
X008980Y035070
X006290Y035070
X006290Y036640
X005410Y037510
X004660Y035140
X004680Y034510
X004680Y033760
X004790Y032560
X007160Y031900
X008260Y031280
X008810Y031410
X008810Y031840
X005830Y028970
X004550Y027130
X004180Y027380
X008330Y027100
X008020Y025600
X009970Y027500
X011650Y024330
X011230Y023760
X013130Y022740
X013470Y021690
X012680Y021690
X014550Y021720
X015500Y020830
X014240Y023080
X013520Y024280
X013930Y024460
X013260Y024900
X014660Y024990
X015490Y025040
X016340Y023850
X018140Y024490
X018070Y022840
X018760Y022530
X019260Y022160
X020050Y021380
X019680Y023440
X020740Y023440
X020190Y024500
X020360Y025290
X020110Y027660
X019520Y028720
X018770Y029000
X018150Y029280
X016390Y027740
X010320Y021690
X009380Y021110
X007900Y020380
X009610Y010690
X007610Y008690
X007990Y006860
X008900Y006860
X011400Y003390
X013900Y006860
X014550Y006860
X017740Y009190
X019550Y006860
X020460Y006860
X021490Y010320
X021740Y012940
X026360Y013950
X028860Y010480
X031360Y013950
X032270Y013950
X034770Y010480
X037270Y013950
X034770Y017560
X032270Y021030
X031360Y021030
X028860Y017560
X037270Y021030
X030080Y026600
X032950Y030410
X033830Y029660
X035540Y037610
X036640Y038600
X032450Y038160
X030450Y037350
X029260Y038790
X027830Y039040
X022120Y035020
X018620Y038520
X017380Y037890
X007870Y038520
X019180Y019130
X025460Y006860
X026360Y006860
X028860Y003390
X031360Y006860
X032270Y006860
X034770Y003390
X037270Y006860
X022960Y003390
X017050Y003390
T03
X000960Y018230
X000960Y019810
X000960Y020600
X000960Y021380
X000940Y025200
X000940Y026210
X000940Y027210
X000940Y028220
X000940Y029220
X000940Y030220
X001810Y029720
X002600Y029220
X001810Y028720
X002600Y028220
X003390Y028720
X003390Y029720
X002600Y030220
X002600Y027210
X001810Y026710
X002600Y026210
X003390Y025710
X002600Y025200
X001810Y025710
X003390Y026710
X005410Y021380
X005410Y019810
X005410Y019020
X005410Y018230
X022820Y029660
T04
X023920Y027780
X023920Y029350
T05
X027950Y030420
X029760Y030420
X029760Y033100
X027950Y033100
T06
X008140Y012070
X008140Y013880
X010810Y013880
X012070Y013880
X012070Y012070
X010810Y012070
X012070Y009940
X012070Y008130
X014750Y008130
X014750Y009940
X014750Y012070
X016010Y012070
X016010Y013880
X014750Y013880
X014750Y016010
X014750Y017820
X012070Y017820
X012070Y016010
X018690Y013880
X018690Y012070
X029980Y028330
X030980Y028330
X030980Y038330
X029980Y038330
T07
X032780Y026790
X034780Y026790
T08
X001100Y017240
X024550Y017410
T09
X021560Y020150
T10
X009390Y038520
X010390Y038520
X011390Y038520
X012390Y038520
X013390Y038520
X014390Y038520
X015390Y038520
X016390Y038520
T11
X002960Y033040
X022640Y033040
M30
