%FSLAX34Y34*%
%MOMM*%
%LNSOLDERMASK_TOP*%
G71*
G01*
%ADD10C, 1.900*%
%ADD11C, 2.100*%
%ADD12R, 1.800X1.800*%
%ADD13R, 1.600X1.600*%
%ADD14R, 1.600X1.500*%
%ADD15R, 1.100X1.100*%
%ADD16R, 0.500X0.500*%
%ADD17C, 0.200*%
%ADD18C, 0.500*%
%ADD19R, 1.300X1.400*%
%ADD20R, 1.400X1.400*%
%ADD21R, 2.600X1.000*%
%ADD22R, 1.400X1.300*%
%ADD23R, 1.500X1.800*%
%ADD24R, 1.800X1.600*%
%ADD25C, 2.400*%
%ADD26R, 1.200X1.400*%
%ADD27C, 2.700*%
%ADD28R, 1.000X1.100*%
%ADD29R, 1.500X1.600*%
%ADD30R, 2.200X1.000*%
%ADD31R, 1.300X1.300*%
%ADD32R, 1.100X1.000*%
%ADD33R, 1.100X1.600*%
%ADD34R, 1.000X2.600*%
%ADD35C, 0.950*%
%ADD36R, 1.400X1.600*%
%LPD*%
X43918Y-654498D02*
G54D10*
D03*
X145917Y-654498D02*
G54D10*
D03*
X247917Y-654498D02*
G54D10*
D03*
X349917Y-654498D02*
G54D10*
D03*
X451917Y-654498D02*
G54D10*
D03*
X528417Y-654498D02*
G54D10*
D03*
X43918Y-612222D02*
G54D10*
D03*
X69418Y-612223D02*
G54D10*
D03*
X94918Y-612222D02*
G54D11*
D03*
X120417Y-612223D02*
G54D10*
D03*
X145917Y-612223D02*
G54D10*
D03*
X171417Y-612223D02*
G54D10*
D03*
X196917Y-612223D02*
G54D10*
D03*
X222417Y-612223D02*
G54D10*
D03*
X247917Y-612223D02*
G54D10*
D03*
X273417Y-612223D02*
G54D10*
D03*
X298917Y-612223D02*
G54D10*
D03*
X324417Y-612223D02*
G54D10*
D03*
X349917Y-612223D02*
G54D10*
D03*
X375417Y-612223D02*
G54D10*
D03*
X400917Y-612223D02*
G54D10*
D03*
X426417Y-612223D02*
G54D10*
D03*
X451917Y-612223D02*
G54D10*
D03*
X477417Y-612223D02*
G54D10*
D03*
X502918Y-612223D02*
G54D10*
D03*
X528418Y-612223D02*
G54D10*
D03*
X56668Y-592222D02*
G54D10*
D03*
X82168Y-592222D02*
G54D10*
D03*
X107668Y-592223D02*
G54D10*
D03*
X158667Y-592223D02*
G54D10*
D03*
X184167Y-592223D02*
G54D10*
D03*
X209667Y-592223D02*
G54D10*
D03*
X260667Y-592223D02*
G54D10*
D03*
X286167Y-592223D02*
G54D10*
D03*
X311667Y-592223D02*
G54D10*
D03*
X362667Y-592223D02*
G54D10*
D03*
X388167Y-592223D02*
G54D10*
D03*
X413667Y-592223D02*
G54D10*
D03*
X464668Y-592223D02*
G54D10*
D03*
X490168Y-592223D02*
G54D10*
D03*
X515668Y-592223D02*
G54D10*
D03*
X82090Y-671248D02*
G54D12*
D03*
X107490Y-671248D02*
G54D12*
D03*
X184090Y-671248D02*
G54D12*
D03*
X209490Y-671248D02*
G54D12*
D03*
X286090Y-671248D02*
G54D12*
D03*
X311490Y-671248D02*
G54D12*
D03*
X388090Y-671248D02*
G54D12*
D03*
X413490Y-671248D02*
G54D12*
D03*
X490090Y-671248D02*
G54D12*
D03*
X515490Y-671248D02*
G54D12*
D03*
X111626Y-582274D02*
G54D13*
D03*
X89401Y-582274D02*
G54D13*
D03*
X64001Y-582274D02*
G54D13*
D03*
X40585Y-582274D02*
G54D13*
D03*
X97415Y-216593D02*
G54D14*
D03*
X97415Y-195593D02*
G54D14*
D03*
X57310Y-197190D02*
G54D15*
D03*
X57310Y-216240D02*
G54D15*
D03*
X83424Y-216240D02*
G54D15*
D03*
X83472Y-197131D02*
G54D15*
D03*
G36*
X277589Y-101149D02*
X282589Y-101148D01*
X282590Y-106148D01*
X277590Y-106149D01*
X277589Y-101149D01*
G37*
G36*
X272589Y-101149D02*
X277589Y-101148D01*
X277590Y-106148D01*
X272590Y-106149D01*
X272589Y-101149D01*
G37*
X270089Y-103649D02*
G54D16*
D03*
X265089Y-103649D02*
G54D16*
D03*
X260090Y-103649D02*
G54D16*
D03*
X255089Y-103649D02*
G54D16*
D03*
G36*
X247589Y-101149D02*
X252589Y-101148D01*
X252590Y-106148D01*
X247590Y-106149D01*
X247589Y-101149D01*
G37*
X245089Y-103649D02*
G54D16*
D03*
X240090Y-103649D02*
G54D16*
D03*
X235090Y-103649D02*
G54D16*
D03*
X230089Y-103649D02*
G54D16*
D03*
G36*
X222589Y-101149D02*
X227589Y-101148D01*
X227590Y-106148D01*
X222590Y-106149D01*
X222589Y-101149D01*
G37*
X220089Y-103649D02*
G54D16*
D03*
X215089Y-103649D02*
G54D16*
D03*
X210089Y-103649D02*
G54D16*
D03*
X205090Y-103648D02*
G54D16*
D03*
X200089Y-103649D02*
G54D16*
D03*
G36*
X192589Y-101149D02*
X197589Y-101148D01*
X197590Y-106148D01*
X192590Y-106149D01*
X192589Y-101149D01*
G37*
G36*
X187589Y-101149D02*
X192589Y-101148D01*
X192590Y-106148D01*
X187590Y-106149D01*
X187589Y-101149D01*
G37*
X185089Y-103649D02*
G54D16*
D03*
X180090Y-103648D02*
G54D16*
D03*
X175090Y-103649D02*
G54D16*
D03*
G36*
X167589Y-101149D02*
X172589Y-101148D01*
X172590Y-106148D01*
X167590Y-106149D01*
X167589Y-101149D01*
G37*
X165090Y-103649D02*
G54D16*
D03*
G36*
X157589Y-101149D02*
X162589Y-101148D01*
X162590Y-106148D01*
X157590Y-106149D01*
X157589Y-101149D01*
G37*
G36*
X280584Y-100618D02*
X281584Y-101618D01*
X281584Y-106118D01*
X281084Y-106618D01*
X279084Y-106618D01*
X278584Y-106118D01*
X278584Y-101618D01*
X279584Y-100618D01*
X280584Y-100618D01*
G37*
G54D17*
X280584Y-100618D02*
X281584Y-101618D01*
X281584Y-106118D01*
X281084Y-106618D01*
X279084Y-106618D01*
X278584Y-106118D01*
X278584Y-101618D01*
X279584Y-100618D01*
X280584Y-100618D01*
G36*
X160584Y-100618D02*
X161584Y-101618D01*
X161584Y-106118D01*
X161084Y-106618D01*
X159084Y-106618D01*
X158584Y-106118D01*
X158584Y-101618D01*
X159584Y-100618D01*
X160584Y-100618D01*
G37*
G54D17*
X160584Y-100618D02*
X161584Y-101618D01*
X161584Y-106118D01*
X161084Y-106618D01*
X159084Y-106618D01*
X158584Y-106118D01*
X158584Y-101618D01*
X159584Y-100618D01*
X160584Y-100618D01*
G36*
X270584Y-96618D02*
X271584Y-97618D01*
X271584Y-109118D01*
X271084Y-109618D01*
X269084Y-109618D01*
X268584Y-109118D01*
X268584Y-97618D01*
X269584Y-96618D01*
X270584Y-96618D01*
G37*
G54D17*
X270584Y-96618D02*
X271584Y-97618D01*
X271584Y-109118D01*
X271084Y-109618D01*
X269084Y-109618D01*
X268584Y-109118D01*
X268584Y-97618D01*
X269584Y-96618D01*
X270584Y-96618D01*
G36*
X265584Y-96618D02*
X266584Y-97618D01*
X266584Y-109118D01*
X266084Y-109618D01*
X264084Y-109618D01*
X263584Y-109118D01*
X263584Y-97618D01*
X264584Y-96618D01*
X265584Y-96618D01*
G37*
G54D17*
X265584Y-96618D02*
X266584Y-97618D01*
X266584Y-109118D01*
X266084Y-109618D01*
X264084Y-109618D01*
X263584Y-109118D01*
X263584Y-97618D01*
X264584Y-96618D01*
X265584Y-96618D01*
G36*
X260584Y-96618D02*
X261584Y-97618D01*
X261584Y-109118D01*
X261084Y-109618D01*
X259084Y-109618D01*
X258584Y-109118D01*
X258584Y-97618D01*
X259584Y-96618D01*
X260584Y-96618D01*
G37*
G54D17*
X260584Y-96618D02*
X261584Y-97618D01*
X261584Y-109118D01*
X261084Y-109618D01*
X259084Y-109618D01*
X258584Y-109118D01*
X258584Y-97618D01*
X259584Y-96618D01*
X260584Y-96618D01*
G36*
X255584Y-96618D02*
X256584Y-97618D01*
X256584Y-109118D01*
X256084Y-109618D01*
X254084Y-109618D01*
X253584Y-109118D01*
X253584Y-97618D01*
X254584Y-96618D01*
X255584Y-96618D01*
G37*
G54D17*
X255584Y-96618D02*
X256584Y-97618D01*
X256584Y-109118D01*
X256084Y-109618D01*
X254084Y-109618D01*
X253584Y-109118D01*
X253584Y-97618D01*
X254584Y-96618D01*
X255584Y-96618D01*
G36*
X250584Y-96618D02*
X251584Y-97618D01*
X251584Y-109118D01*
X251084Y-109618D01*
X249084Y-109618D01*
X248584Y-109118D01*
X248584Y-97618D01*
X249584Y-96618D01*
X250584Y-96618D01*
G37*
G54D17*
X250584Y-96618D02*
X251584Y-97618D01*
X251584Y-109118D01*
X251084Y-109618D01*
X249084Y-109618D01*
X248584Y-109118D01*
X248584Y-97618D01*
X249584Y-96618D01*
X250584Y-96618D01*
G36*
X245584Y-96618D02*
X246584Y-97618D01*
X246584Y-109118D01*
X246084Y-109618D01*
X244084Y-109618D01*
X243584Y-109118D01*
X243584Y-97618D01*
X244584Y-96618D01*
X245584Y-96618D01*
G37*
G54D17*
X245584Y-96618D02*
X246584Y-97618D01*
X246584Y-109118D01*
X246084Y-109618D01*
X244084Y-109618D01*
X243584Y-109118D01*
X243584Y-97618D01*
X244584Y-96618D01*
X245584Y-96618D01*
G36*
X240584Y-96618D02*
X241584Y-97618D01*
X241584Y-109118D01*
X241084Y-109618D01*
X239084Y-109618D01*
X238584Y-109118D01*
X238584Y-97618D01*
X239584Y-96618D01*
X240584Y-96618D01*
G37*
G54D17*
X240584Y-96618D02*
X241584Y-97618D01*
X241584Y-109118D01*
X241084Y-109618D01*
X239084Y-109618D01*
X238584Y-109118D01*
X238584Y-97618D01*
X239584Y-96618D01*
X240584Y-96618D01*
G36*
X235584Y-96618D02*
X236584Y-97618D01*
X236584Y-109118D01*
X236084Y-109618D01*
X234084Y-109618D01*
X233584Y-109118D01*
X233584Y-97618D01*
X234584Y-96618D01*
X235584Y-96618D01*
G37*
G54D17*
X235584Y-96618D02*
X236584Y-97618D01*
X236584Y-109118D01*
X236084Y-109618D01*
X234084Y-109618D01*
X233584Y-109118D01*
X233584Y-97618D01*
X234584Y-96618D01*
X235584Y-96618D01*
G36*
X230584Y-96618D02*
X231584Y-97618D01*
X231584Y-109118D01*
X231084Y-109618D01*
X229084Y-109618D01*
X228584Y-109118D01*
X228584Y-97618D01*
X229584Y-96618D01*
X230584Y-96618D01*
G37*
G54D17*
X230584Y-96618D02*
X231584Y-97618D01*
X231584Y-109118D01*
X231084Y-109618D01*
X229084Y-109618D01*
X228584Y-109118D01*
X228584Y-97618D01*
X229584Y-96618D01*
X230584Y-96618D01*
G36*
X225584Y-96618D02*
X226584Y-97618D01*
X226584Y-109118D01*
X226084Y-109618D01*
X224084Y-109618D01*
X223584Y-109118D01*
X223584Y-97618D01*
X224584Y-96618D01*
X225584Y-96618D01*
G37*
G54D17*
X225584Y-96618D02*
X226584Y-97618D01*
X226584Y-109118D01*
X226084Y-109618D01*
X224084Y-109618D01*
X223584Y-109118D01*
X223584Y-97618D01*
X224584Y-96618D01*
X225584Y-96618D01*
G36*
X220584Y-96618D02*
X221584Y-97618D01*
X221584Y-109118D01*
X221084Y-109618D01*
X219084Y-109618D01*
X218584Y-109118D01*
X218584Y-97618D01*
X219584Y-96618D01*
X220584Y-96618D01*
G37*
G54D17*
X220584Y-96618D02*
X221584Y-97618D01*
X221584Y-109118D01*
X221084Y-109618D01*
X219084Y-109618D01*
X218584Y-109118D01*
X218584Y-97618D01*
X219584Y-96618D01*
X220584Y-96618D01*
G36*
X215584Y-96618D02*
X216584Y-97618D01*
X216584Y-109118D01*
X216084Y-109618D01*
X214084Y-109618D01*
X213584Y-109118D01*
X213584Y-97618D01*
X214584Y-96618D01*
X215584Y-96618D01*
G37*
G54D17*
X215584Y-96618D02*
X216584Y-97618D01*
X216584Y-109118D01*
X216084Y-109618D01*
X214084Y-109618D01*
X213584Y-109118D01*
X213584Y-97618D01*
X214584Y-96618D01*
X215584Y-96618D01*
G36*
X210584Y-96618D02*
X211584Y-97618D01*
X211584Y-109118D01*
X211084Y-109618D01*
X209084Y-109618D01*
X208584Y-109118D01*
X208584Y-97618D01*
X209584Y-96618D01*
X210584Y-96618D01*
G37*
G54D17*
X210584Y-96618D02*
X211584Y-97618D01*
X211584Y-109118D01*
X211084Y-109618D01*
X209084Y-109618D01*
X208584Y-109118D01*
X208584Y-97618D01*
X209584Y-96618D01*
X210584Y-96618D01*
G36*
X205584Y-96618D02*
X206584Y-97618D01*
X206584Y-109118D01*
X206084Y-109618D01*
X204084Y-109618D01*
X203584Y-109118D01*
X203584Y-97618D01*
X204584Y-96618D01*
X205584Y-96618D01*
G37*
G54D17*
X205584Y-96618D02*
X206584Y-97618D01*
X206584Y-109118D01*
X206084Y-109618D01*
X204084Y-109618D01*
X203584Y-109118D01*
X203584Y-97618D01*
X204584Y-96618D01*
X205584Y-96618D01*
G36*
X200584Y-96618D02*
X201584Y-97618D01*
X201584Y-109118D01*
X201084Y-109618D01*
X199084Y-109618D01*
X198584Y-109118D01*
X198584Y-97618D01*
X199584Y-96618D01*
X200584Y-96618D01*
G37*
G54D17*
X200584Y-96618D02*
X201584Y-97618D01*
X201584Y-109118D01*
X201084Y-109618D01*
X199084Y-109618D01*
X198584Y-109118D01*
X198584Y-97618D01*
X199584Y-96618D01*
X200584Y-96618D01*
G36*
X195584Y-96618D02*
X196584Y-97618D01*
X196584Y-109118D01*
X196084Y-109618D01*
X194084Y-109618D01*
X193584Y-109118D01*
X193584Y-97618D01*
X194584Y-96618D01*
X195584Y-96618D01*
G37*
G54D17*
X195584Y-96618D02*
X196584Y-97618D01*
X196584Y-109118D01*
X196084Y-109618D01*
X194084Y-109618D01*
X193584Y-109118D01*
X193584Y-97618D01*
X194584Y-96618D01*
X195584Y-96618D01*
G36*
X190584Y-96618D02*
X191584Y-97618D01*
X191584Y-109118D01*
X191084Y-109618D01*
X189084Y-109618D01*
X188584Y-109118D01*
X188584Y-97618D01*
X189584Y-96618D01*
X190584Y-96618D01*
G37*
G54D17*
X190584Y-96618D02*
X191584Y-97618D01*
X191584Y-109118D01*
X191084Y-109618D01*
X189084Y-109618D01*
X188584Y-109118D01*
X188584Y-97618D01*
X189584Y-96618D01*
X190584Y-96618D01*
G36*
X185584Y-96618D02*
X186584Y-97618D01*
X186584Y-109118D01*
X186084Y-109618D01*
X184084Y-109618D01*
X183584Y-109118D01*
X183584Y-97618D01*
X184584Y-96618D01*
X185584Y-96618D01*
G37*
G54D17*
X185584Y-96618D02*
X186584Y-97618D01*
X186584Y-109118D01*
X186084Y-109618D01*
X184084Y-109618D01*
X183584Y-109118D01*
X183584Y-97618D01*
X184584Y-96618D01*
X185584Y-96618D01*
G36*
X180584Y-96618D02*
X181584Y-97618D01*
X181584Y-109118D01*
X181084Y-109618D01*
X179084Y-109618D01*
X178584Y-109118D01*
X178584Y-97618D01*
X179584Y-96618D01*
X180584Y-96618D01*
G37*
G54D17*
X180584Y-96618D02*
X181584Y-97618D01*
X181584Y-109118D01*
X181084Y-109618D01*
X179084Y-109618D01*
X178584Y-109118D01*
X178584Y-97618D01*
X179584Y-96618D01*
X180584Y-96618D01*
G36*
X175584Y-96618D02*
X176584Y-97618D01*
X176584Y-109118D01*
X176084Y-109618D01*
X174084Y-109618D01*
X173584Y-109118D01*
X173584Y-97618D01*
X174584Y-96618D01*
X175584Y-96618D01*
G37*
G54D17*
X175584Y-96618D02*
X176584Y-97618D01*
X176584Y-109118D01*
X176084Y-109618D01*
X174084Y-109618D01*
X173584Y-109118D01*
X173584Y-97618D01*
X174584Y-96618D01*
X175584Y-96618D01*
G36*
X170584Y-96618D02*
X171584Y-97618D01*
X171584Y-109118D01*
X171084Y-109618D01*
X169084Y-109618D01*
X168584Y-109118D01*
X168584Y-97618D01*
X169584Y-96618D01*
X170584Y-96618D01*
G37*
G54D17*
X170584Y-96618D02*
X171584Y-97618D01*
X171584Y-109118D01*
X171084Y-109618D01*
X169084Y-109618D01*
X168584Y-109118D01*
X168584Y-97618D01*
X169584Y-96618D01*
X170584Y-96618D01*
G36*
X165584Y-96618D02*
X166584Y-97618D01*
X166584Y-109118D01*
X166084Y-109618D01*
X164084Y-109618D01*
X163584Y-109118D01*
X163584Y-97618D01*
X164584Y-96618D01*
X165584Y-96618D01*
G37*
G54D17*
X165584Y-96618D02*
X166584Y-97618D01*
X166584Y-109118D01*
X166084Y-109618D01*
X164084Y-109618D01*
X163584Y-109118D01*
X163584Y-97618D01*
X164584Y-96618D01*
X165584Y-96618D01*
G36*
X275584Y-96618D02*
X276584Y-97618D01*
X276584Y-109118D01*
X276084Y-109618D01*
X274084Y-109618D01*
X273584Y-109118D01*
X273584Y-97618D01*
X274584Y-96618D01*
X275584Y-96618D01*
G37*
G54D17*
X275584Y-96618D02*
X276584Y-97618D01*
X276584Y-109118D01*
X276084Y-109618D01*
X274084Y-109618D01*
X273584Y-109118D01*
X273584Y-97618D01*
X274584Y-96618D01*
X275584Y-96618D01*
X298053Y-241612D02*
G54D16*
D03*
X298053Y-236612D02*
G54D16*
D03*
X298053Y-231613D02*
G54D16*
D03*
X298053Y-226612D02*
G54D16*
D03*
X298053Y-221612D02*
G54D16*
D03*
X298053Y-216613D02*
G54D16*
D03*
X298053Y-211612D02*
G54D16*
D03*
X298053Y-206612D02*
G54D16*
D03*
X298053Y-201612D02*
G54D16*
D03*
X298053Y-196612D02*
G54D16*
D03*
X298053Y-191612D02*
G54D16*
D03*
X298053Y-186612D02*
G54D16*
D03*
X298053Y-181612D02*
G54D16*
D03*
X298053Y-176612D02*
G54D16*
D03*
X298053Y-171613D02*
G54D16*
D03*
X298053Y-166612D02*
G54D16*
D03*
X298053Y-161612D02*
G54D16*
D03*
X298053Y-156612D02*
G54D16*
D03*
X298053Y-151612D02*
G54D16*
D03*
X298053Y-146613D02*
G54D16*
D03*
X298053Y-141612D02*
G54D16*
D03*
X298053Y-136612D02*
G54D16*
D03*
X298053Y-131612D02*
G54D16*
D03*
X298053Y-126612D02*
G54D16*
D03*
X298053Y-121612D02*
G54D16*
D03*
G36*
X301084Y-242118D02*
X300084Y-243118D01*
X295584Y-243118D01*
X295084Y-242618D01*
X295084Y-240618D01*
X295584Y-240118D01*
X300084Y-240118D01*
X301084Y-241118D01*
X301084Y-242118D01*
G37*
G54D17*
X301084Y-242118D02*
X300084Y-243118D01*
X295584Y-243118D01*
X295084Y-242618D01*
X295084Y-240618D01*
X295584Y-240118D01*
X300084Y-240118D01*
X301084Y-241118D01*
X301084Y-242118D01*
G36*
X301084Y-122118D02*
X300084Y-123118D01*
X295584Y-123118D01*
X295084Y-122618D01*
X295084Y-120618D01*
X295584Y-120118D01*
X300084Y-120118D01*
X301084Y-121118D01*
X301084Y-122118D01*
G37*
G54D17*
X301084Y-122118D02*
X300084Y-123118D01*
X295584Y-123118D01*
X295084Y-122618D01*
X295084Y-120618D01*
X295584Y-120118D01*
X300084Y-120118D01*
X301084Y-121118D01*
X301084Y-122118D01*
G36*
X305084Y-232118D02*
X304084Y-233118D01*
X292584Y-233118D01*
X292084Y-232618D01*
X292084Y-230618D01*
X292584Y-230118D01*
X304084Y-230118D01*
X305084Y-231118D01*
X305084Y-232118D01*
G37*
G54D17*
X305084Y-232118D02*
X304084Y-233118D01*
X292584Y-233118D01*
X292084Y-232618D01*
X292084Y-230618D01*
X292584Y-230118D01*
X304084Y-230118D01*
X305084Y-231118D01*
X305084Y-232118D01*
G36*
X305084Y-227118D02*
X304084Y-228118D01*
X292584Y-228118D01*
X292084Y-227618D01*
X292084Y-225618D01*
X292584Y-225118D01*
X304084Y-225118D01*
X305084Y-226118D01*
X305084Y-227118D01*
G37*
G54D17*
X305084Y-227118D02*
X304084Y-228118D01*
X292584Y-228118D01*
X292084Y-227618D01*
X292084Y-225618D01*
X292584Y-225118D01*
X304084Y-225118D01*
X305084Y-226118D01*
X305084Y-227118D01*
G36*
X305084Y-222118D02*
X304084Y-223118D01*
X292584Y-223118D01*
X292084Y-222618D01*
X292084Y-220618D01*
X292584Y-220118D01*
X304084Y-220118D01*
X305084Y-221118D01*
X305084Y-222118D01*
G37*
G54D17*
X305084Y-222118D02*
X304084Y-223118D01*
X292584Y-223118D01*
X292084Y-222618D01*
X292084Y-220618D01*
X292584Y-220118D01*
X304084Y-220118D01*
X305084Y-221118D01*
X305084Y-222118D01*
G36*
X305084Y-217118D02*
X304084Y-218118D01*
X292584Y-218118D01*
X292084Y-217618D01*
X292084Y-215618D01*
X292584Y-215118D01*
X304084Y-215118D01*
X305084Y-216118D01*
X305084Y-217118D01*
G37*
G54D17*
X305084Y-217118D02*
X304084Y-218118D01*
X292584Y-218118D01*
X292084Y-217618D01*
X292084Y-215618D01*
X292584Y-215118D01*
X304084Y-215118D01*
X305084Y-216118D01*
X305084Y-217118D01*
G36*
X305084Y-212118D02*
X304084Y-213118D01*
X292584Y-213118D01*
X292084Y-212618D01*
X292084Y-210618D01*
X292584Y-210118D01*
X304084Y-210118D01*
X305084Y-211118D01*
X305084Y-212118D01*
G37*
G54D17*
X305084Y-212118D02*
X304084Y-213118D01*
X292584Y-213118D01*
X292084Y-212618D01*
X292084Y-210618D01*
X292584Y-210118D01*
X304084Y-210118D01*
X305084Y-211118D01*
X305084Y-212118D01*
G36*
X305084Y-207118D02*
X304084Y-208118D01*
X292584Y-208118D01*
X292084Y-207618D01*
X292084Y-205618D01*
X292584Y-205118D01*
X304084Y-205118D01*
X305084Y-206118D01*
X305084Y-207118D01*
G37*
G54D17*
X305084Y-207118D02*
X304084Y-208118D01*
X292584Y-208118D01*
X292084Y-207618D01*
X292084Y-205618D01*
X292584Y-205118D01*
X304084Y-205118D01*
X305084Y-206118D01*
X305084Y-207118D01*
G36*
X305084Y-202118D02*
X304084Y-203118D01*
X292584Y-203118D01*
X292084Y-202618D01*
X292084Y-200618D01*
X292584Y-200118D01*
X304084Y-200118D01*
X305084Y-201118D01*
X305084Y-202118D01*
G37*
G54D17*
X305084Y-202118D02*
X304084Y-203118D01*
X292584Y-203118D01*
X292084Y-202618D01*
X292084Y-200618D01*
X292584Y-200118D01*
X304084Y-200118D01*
X305084Y-201118D01*
X305084Y-202118D01*
G36*
X305084Y-197118D02*
X304084Y-198118D01*
X292584Y-198118D01*
X292084Y-197618D01*
X292084Y-195618D01*
X292584Y-195118D01*
X304084Y-195118D01*
X305084Y-196118D01*
X305084Y-197118D01*
G37*
G54D17*
X305084Y-197118D02*
X304084Y-198118D01*
X292584Y-198118D01*
X292084Y-197618D01*
X292084Y-195618D01*
X292584Y-195118D01*
X304084Y-195118D01*
X305084Y-196118D01*
X305084Y-197118D01*
G36*
X305084Y-192118D02*
X304084Y-193118D01*
X292584Y-193118D01*
X292084Y-192618D01*
X292084Y-190618D01*
X292584Y-190118D01*
X304084Y-190118D01*
X305084Y-191118D01*
X305084Y-192118D01*
G37*
G54D17*
X305084Y-192118D02*
X304084Y-193118D01*
X292584Y-193118D01*
X292084Y-192618D01*
X292084Y-190618D01*
X292584Y-190118D01*
X304084Y-190118D01*
X305084Y-191118D01*
X305084Y-192118D01*
G36*
X305084Y-187118D02*
X304084Y-188118D01*
X292584Y-188118D01*
X292084Y-187618D01*
X292084Y-185618D01*
X292584Y-185118D01*
X304084Y-185118D01*
X305084Y-186118D01*
X305084Y-187118D01*
G37*
G54D17*
X305084Y-187118D02*
X304084Y-188118D01*
X292584Y-188118D01*
X292084Y-187618D01*
X292084Y-185618D01*
X292584Y-185118D01*
X304084Y-185118D01*
X305084Y-186118D01*
X305084Y-187118D01*
G36*
X305084Y-182118D02*
X304084Y-183118D01*
X292584Y-183118D01*
X292084Y-182618D01*
X292084Y-180618D01*
X292584Y-180118D01*
X304084Y-180118D01*
X305084Y-181118D01*
X305084Y-182118D01*
G37*
G54D17*
X305084Y-182118D02*
X304084Y-183118D01*
X292584Y-183118D01*
X292084Y-182618D01*
X292084Y-180618D01*
X292584Y-180118D01*
X304084Y-180118D01*
X305084Y-181118D01*
X305084Y-182118D01*
G36*
X305084Y-177118D02*
X304084Y-178118D01*
X292584Y-178118D01*
X292084Y-177618D01*
X292084Y-175618D01*
X292584Y-175118D01*
X304084Y-175118D01*
X305084Y-176118D01*
X305084Y-177118D01*
G37*
G54D17*
X305084Y-177118D02*
X304084Y-178118D01*
X292584Y-178118D01*
X292084Y-177618D01*
X292084Y-175618D01*
X292584Y-175118D01*
X304084Y-175118D01*
X305084Y-176118D01*
X305084Y-177118D01*
G36*
X305084Y-172118D02*
X304084Y-173118D01*
X292584Y-173118D01*
X292084Y-172618D01*
X292084Y-170618D01*
X292584Y-170118D01*
X304084Y-170118D01*
X305084Y-171118D01*
X305084Y-172118D01*
G37*
G54D17*
X305084Y-172118D02*
X304084Y-173118D01*
X292584Y-173118D01*
X292084Y-172618D01*
X292084Y-170618D01*
X292584Y-170118D01*
X304084Y-170118D01*
X305084Y-171118D01*
X305084Y-172118D01*
G36*
X305084Y-167118D02*
X304084Y-168118D01*
X292584Y-168118D01*
X292084Y-167618D01*
X292084Y-165618D01*
X292584Y-165118D01*
X304084Y-165118D01*
X305084Y-166118D01*
X305084Y-167118D01*
G37*
G54D17*
X305084Y-167118D02*
X304084Y-168118D01*
X292584Y-168118D01*
X292084Y-167618D01*
X292084Y-165618D01*
X292584Y-165118D01*
X304084Y-165118D01*
X305084Y-166118D01*
X305084Y-167118D01*
G36*
X305084Y-162118D02*
X304084Y-163118D01*
X292584Y-163118D01*
X292084Y-162618D01*
X292084Y-160618D01*
X292584Y-160118D01*
X304084Y-160118D01*
X305084Y-161118D01*
X305084Y-162118D01*
G37*
G54D17*
X305084Y-162118D02*
X304084Y-163118D01*
X292584Y-163118D01*
X292084Y-162618D01*
X292084Y-160618D01*
X292584Y-160118D01*
X304084Y-160118D01*
X305084Y-161118D01*
X305084Y-162118D01*
G36*
X305084Y-157118D02*
X304084Y-158118D01*
X292584Y-158118D01*
X292084Y-157618D01*
X292084Y-155618D01*
X292584Y-155118D01*
X304084Y-155118D01*
X305084Y-156118D01*
X305084Y-157118D01*
G37*
G54D17*
X305084Y-157118D02*
X304084Y-158118D01*
X292584Y-158118D01*
X292084Y-157618D01*
X292084Y-155618D01*
X292584Y-155118D01*
X304084Y-155118D01*
X305084Y-156118D01*
X305084Y-157118D01*
G36*
X305084Y-152118D02*
X304084Y-153118D01*
X292584Y-153118D01*
X292084Y-152618D01*
X292084Y-150618D01*
X292584Y-150118D01*
X304084Y-150118D01*
X305084Y-151118D01*
X305084Y-152118D01*
G37*
G54D17*
X305084Y-152118D02*
X304084Y-153118D01*
X292584Y-153118D01*
X292084Y-152618D01*
X292084Y-150618D01*
X292584Y-150118D01*
X304084Y-150118D01*
X305084Y-151118D01*
X305084Y-152118D01*
G36*
X305084Y-147118D02*
X304084Y-148118D01*
X292584Y-148118D01*
X292084Y-147618D01*
X292084Y-145618D01*
X292584Y-145118D01*
X304084Y-145118D01*
X305084Y-146118D01*
X305084Y-147118D01*
G37*
G54D17*
X305084Y-147118D02*
X304084Y-148118D01*
X292584Y-148118D01*
X292084Y-147618D01*
X292084Y-145618D01*
X292584Y-145118D01*
X304084Y-145118D01*
X305084Y-146118D01*
X305084Y-147118D01*
G36*
X305084Y-142118D02*
X304084Y-143118D01*
X292584Y-143118D01*
X292084Y-142618D01*
X292084Y-140618D01*
X292584Y-140118D01*
X304084Y-140118D01*
X305084Y-141118D01*
X305084Y-142118D01*
G37*
G54D17*
X305084Y-142118D02*
X304084Y-143118D01*
X292584Y-143118D01*
X292084Y-142618D01*
X292084Y-140618D01*
X292584Y-140118D01*
X304084Y-140118D01*
X305084Y-141118D01*
X305084Y-142118D01*
G36*
X305084Y-137118D02*
X304084Y-138118D01*
X292584Y-138118D01*
X292084Y-137618D01*
X292084Y-135618D01*
X292584Y-135118D01*
X304084Y-135118D01*
X305084Y-136118D01*
X305084Y-137118D01*
G37*
G54D17*
X305084Y-137118D02*
X304084Y-138118D01*
X292584Y-138118D01*
X292084Y-137618D01*
X292084Y-135618D01*
X292584Y-135118D01*
X304084Y-135118D01*
X305084Y-136118D01*
X305084Y-137118D01*
G36*
X305084Y-132118D02*
X304084Y-133118D01*
X292584Y-133118D01*
X292084Y-132618D01*
X292084Y-130618D01*
X292584Y-130118D01*
X304084Y-130118D01*
X305084Y-131118D01*
X305084Y-132118D01*
G37*
G54D17*
X305084Y-132118D02*
X304084Y-133118D01*
X292584Y-133118D01*
X292084Y-132618D01*
X292084Y-130618D01*
X292584Y-130118D01*
X304084Y-130118D01*
X305084Y-131118D01*
X305084Y-132118D01*
G36*
X305084Y-127118D02*
X304084Y-128118D01*
X292584Y-128118D01*
X292084Y-127618D01*
X292084Y-125618D01*
X292584Y-125118D01*
X304084Y-125118D01*
X305084Y-126118D01*
X305084Y-127118D01*
G37*
G54D17*
X305084Y-127118D02*
X304084Y-128118D01*
X292584Y-128118D01*
X292084Y-127618D01*
X292084Y-125618D01*
X292584Y-125118D01*
X304084Y-125118D01*
X305084Y-126118D01*
X305084Y-127118D01*
G36*
X305084Y-237118D02*
X304084Y-238118D01*
X292584Y-238118D01*
X292084Y-237618D01*
X292084Y-235618D01*
X292584Y-235118D01*
X304084Y-235118D01*
X305084Y-236118D01*
X305084Y-237118D01*
G37*
G54D17*
X305084Y-237118D02*
X304084Y-238118D01*
X292584Y-238118D01*
X292084Y-237618D01*
X292084Y-235618D01*
X292584Y-235118D01*
X304084Y-235118D01*
X305084Y-236118D01*
X305084Y-237118D01*
X160089Y-259586D02*
G54D16*
D03*
X165089Y-259586D02*
G54D16*
D03*
X170089Y-259586D02*
G54D16*
D03*
X175089Y-259586D02*
G54D16*
D03*
X180089Y-259586D02*
G54D16*
D03*
X185089Y-259586D02*
G54D16*
D03*
X190089Y-259586D02*
G54D16*
D03*
X195089Y-259586D02*
G54D16*
D03*
X200089Y-259586D02*
G54D16*
D03*
X205089Y-259586D02*
G54D16*
D03*
X210089Y-259586D02*
G54D16*
D03*
X215090Y-259586D02*
G54D16*
D03*
X220089Y-259586D02*
G54D16*
D03*
X225089Y-259586D02*
G54D16*
D03*
X230089Y-259586D02*
G54D16*
D03*
X235089Y-259586D02*
G54D16*
D03*
X240089Y-259586D02*
G54D16*
D03*
X245090Y-259586D02*
G54D16*
D03*
X250090Y-259586D02*
G54D16*
D03*
X255089Y-259586D02*
G54D16*
D03*
X260089Y-259586D02*
G54D16*
D03*
X265089Y-259586D02*
G54D16*
D03*
X270089Y-259586D02*
G54D16*
D03*
X275089Y-259586D02*
G54D16*
D03*
X280090Y-259586D02*
G54D16*
D03*
G36*
X159584Y-262618D02*
X158584Y-261618D01*
X158584Y-257118D01*
X159084Y-256618D01*
X161084Y-256618D01*
X161584Y-257118D01*
X161584Y-261618D01*
X160584Y-262618D01*
X159584Y-262618D01*
G37*
G54D17*
X159584Y-262618D02*
X158584Y-261618D01*
X158584Y-257118D01*
X159084Y-256618D01*
X161084Y-256618D01*
X161584Y-257118D01*
X161584Y-261618D01*
X160584Y-262618D01*
X159584Y-262618D01*
G36*
X279584Y-262618D02*
X278584Y-261618D01*
X278584Y-257118D01*
X279084Y-256618D01*
X281084Y-256618D01*
X281584Y-257118D01*
X281584Y-261618D01*
X280584Y-262618D01*
X279584Y-262618D01*
G37*
G54D17*
X279584Y-262618D02*
X278584Y-261618D01*
X278584Y-257118D01*
X279084Y-256618D01*
X281084Y-256618D01*
X281584Y-257118D01*
X281584Y-261618D01*
X280584Y-262618D01*
X279584Y-262618D01*
G36*
X169584Y-266618D02*
X168584Y-265618D01*
X168584Y-254118D01*
X169084Y-253618D01*
X171084Y-253618D01*
X171584Y-254118D01*
X171584Y-265618D01*
X170584Y-266618D01*
X169584Y-266618D01*
G37*
G54D17*
X169584Y-266618D02*
X168584Y-265618D01*
X168584Y-254118D01*
X169084Y-253618D01*
X171084Y-253618D01*
X171584Y-254118D01*
X171584Y-265618D01*
X170584Y-266618D01*
X169584Y-266618D01*
G36*
X174584Y-266618D02*
X173584Y-265618D01*
X173584Y-254118D01*
X174084Y-253618D01*
X176084Y-253618D01*
X176584Y-254118D01*
X176584Y-265618D01*
X175584Y-266618D01*
X174584Y-266618D01*
G37*
G54D17*
X174584Y-266618D02*
X173584Y-265618D01*
X173584Y-254118D01*
X174084Y-253618D01*
X176084Y-253618D01*
X176584Y-254118D01*
X176584Y-265618D01*
X175584Y-266618D01*
X174584Y-266618D01*
G36*
X179584Y-266618D02*
X178584Y-265618D01*
X178584Y-254118D01*
X179084Y-253618D01*
X181084Y-253618D01*
X181584Y-254118D01*
X181584Y-265618D01*
X180584Y-266618D01*
X179584Y-266618D01*
G37*
G54D17*
X179584Y-266618D02*
X178584Y-265618D01*
X178584Y-254118D01*
X179084Y-253618D01*
X181084Y-253618D01*
X181584Y-254118D01*
X181584Y-265618D01*
X180584Y-266618D01*
X179584Y-266618D01*
G36*
X184584Y-266618D02*
X183584Y-265618D01*
X183584Y-254118D01*
X184084Y-253618D01*
X186084Y-253618D01*
X186584Y-254118D01*
X186584Y-265618D01*
X185584Y-266618D01*
X184584Y-266618D01*
G37*
G54D17*
X184584Y-266618D02*
X183584Y-265618D01*
X183584Y-254118D01*
X184084Y-253618D01*
X186084Y-253618D01*
X186584Y-254118D01*
X186584Y-265618D01*
X185584Y-266618D01*
X184584Y-266618D01*
G36*
X189584Y-266618D02*
X188584Y-265618D01*
X188584Y-254118D01*
X189084Y-253618D01*
X191084Y-253618D01*
X191584Y-254118D01*
X191584Y-265618D01*
X190584Y-266618D01*
X189584Y-266618D01*
G37*
G54D17*
X189584Y-266618D02*
X188584Y-265618D01*
X188584Y-254118D01*
X189084Y-253618D01*
X191084Y-253618D01*
X191584Y-254118D01*
X191584Y-265618D01*
X190584Y-266618D01*
X189584Y-266618D01*
G36*
X194584Y-266618D02*
X193584Y-265618D01*
X193584Y-254118D01*
X194084Y-253618D01*
X196084Y-253618D01*
X196584Y-254118D01*
X196584Y-265618D01*
X195584Y-266618D01*
X194584Y-266618D01*
G37*
G54D17*
X194584Y-266618D02*
X193584Y-265618D01*
X193584Y-254118D01*
X194084Y-253618D01*
X196084Y-253618D01*
X196584Y-254118D01*
X196584Y-265618D01*
X195584Y-266618D01*
X194584Y-266618D01*
G36*
X199584Y-266618D02*
X198584Y-265618D01*
X198584Y-254118D01*
X199084Y-253618D01*
X201084Y-253618D01*
X201584Y-254118D01*
X201584Y-265618D01*
X200584Y-266618D01*
X199584Y-266618D01*
G37*
G54D17*
X199584Y-266618D02*
X198584Y-265618D01*
X198584Y-254118D01*
X199084Y-253618D01*
X201084Y-253618D01*
X201584Y-254118D01*
X201584Y-265618D01*
X200584Y-266618D01*
X199584Y-266618D01*
G36*
X204584Y-266618D02*
X203584Y-265618D01*
X203584Y-254118D01*
X204084Y-253618D01*
X206084Y-253618D01*
X206584Y-254118D01*
X206584Y-265618D01*
X205584Y-266618D01*
X204584Y-266618D01*
G37*
G54D17*
X204584Y-266618D02*
X203584Y-265618D01*
X203584Y-254118D01*
X204084Y-253618D01*
X206084Y-253618D01*
X206584Y-254118D01*
X206584Y-265618D01*
X205584Y-266618D01*
X204584Y-266618D01*
G36*
X209584Y-266618D02*
X208584Y-265618D01*
X208584Y-254118D01*
X209084Y-253618D01*
X211084Y-253618D01*
X211584Y-254118D01*
X211584Y-265618D01*
X210584Y-266618D01*
X209584Y-266618D01*
G37*
G54D17*
X209584Y-266618D02*
X208584Y-265618D01*
X208584Y-254118D01*
X209084Y-253618D01*
X211084Y-253618D01*
X211584Y-254118D01*
X211584Y-265618D01*
X210584Y-266618D01*
X209584Y-266618D01*
G36*
X214584Y-266618D02*
X213584Y-265618D01*
X213584Y-254118D01*
X214084Y-253618D01*
X216084Y-253618D01*
X216584Y-254118D01*
X216584Y-265618D01*
X215584Y-266618D01*
X214584Y-266618D01*
G37*
G54D17*
X214584Y-266618D02*
X213584Y-265618D01*
X213584Y-254118D01*
X214084Y-253618D01*
X216084Y-253618D01*
X216584Y-254118D01*
X216584Y-265618D01*
X215584Y-266618D01*
X214584Y-266618D01*
G36*
X219584Y-266618D02*
X218584Y-265618D01*
X218584Y-254118D01*
X219084Y-253618D01*
X221084Y-253618D01*
X221584Y-254118D01*
X221584Y-265618D01*
X220584Y-266618D01*
X219584Y-266618D01*
G37*
G54D17*
X219584Y-266618D02*
X218584Y-265618D01*
X218584Y-254118D01*
X219084Y-253618D01*
X221084Y-253618D01*
X221584Y-254118D01*
X221584Y-265618D01*
X220584Y-266618D01*
X219584Y-266618D01*
G36*
X224584Y-266618D02*
X223584Y-265618D01*
X223584Y-254118D01*
X224084Y-253618D01*
X226084Y-253618D01*
X226584Y-254118D01*
X226584Y-265618D01*
X225584Y-266618D01*
X224584Y-266618D01*
G37*
G54D17*
X224584Y-266618D02*
X223584Y-265618D01*
X223584Y-254118D01*
X224084Y-253618D01*
X226084Y-253618D01*
X226584Y-254118D01*
X226584Y-265618D01*
X225584Y-266618D01*
X224584Y-266618D01*
G36*
X229584Y-266618D02*
X228584Y-265618D01*
X228584Y-254118D01*
X229084Y-253618D01*
X231084Y-253618D01*
X231584Y-254118D01*
X231584Y-265618D01*
X230584Y-266618D01*
X229584Y-266618D01*
G37*
G54D17*
X229584Y-266618D02*
X228584Y-265618D01*
X228584Y-254118D01*
X229084Y-253618D01*
X231084Y-253618D01*
X231584Y-254118D01*
X231584Y-265618D01*
X230584Y-266618D01*
X229584Y-266618D01*
G36*
X234584Y-266618D02*
X233584Y-265618D01*
X233584Y-254118D01*
X234084Y-253618D01*
X236084Y-253618D01*
X236584Y-254118D01*
X236584Y-265618D01*
X235584Y-266618D01*
X234584Y-266618D01*
G37*
G54D17*
X234584Y-266618D02*
X233584Y-265618D01*
X233584Y-254118D01*
X234084Y-253618D01*
X236084Y-253618D01*
X236584Y-254118D01*
X236584Y-265618D01*
X235584Y-266618D01*
X234584Y-266618D01*
G36*
X239584Y-266618D02*
X238584Y-265618D01*
X238584Y-254118D01*
X239084Y-253618D01*
X241084Y-253618D01*
X241584Y-254118D01*
X241584Y-265618D01*
X240584Y-266618D01*
X239584Y-266618D01*
G37*
G54D17*
X239584Y-266618D02*
X238584Y-265618D01*
X238584Y-254118D01*
X239084Y-253618D01*
X241084Y-253618D01*
X241584Y-254118D01*
X241584Y-265618D01*
X240584Y-266618D01*
X239584Y-266618D01*
G36*
X244584Y-266618D02*
X243584Y-265618D01*
X243584Y-254118D01*
X244084Y-253618D01*
X246084Y-253618D01*
X246584Y-254118D01*
X246584Y-265618D01*
X245584Y-266618D01*
X244584Y-266618D01*
G37*
G54D17*
X244584Y-266618D02*
X243584Y-265618D01*
X243584Y-254118D01*
X244084Y-253618D01*
X246084Y-253618D01*
X246584Y-254118D01*
X246584Y-265618D01*
X245584Y-266618D01*
X244584Y-266618D01*
G36*
X249584Y-266618D02*
X248584Y-265618D01*
X248584Y-254118D01*
X249084Y-253618D01*
X251084Y-253618D01*
X251584Y-254118D01*
X251584Y-265618D01*
X250584Y-266618D01*
X249584Y-266618D01*
G37*
G54D17*
X249584Y-266618D02*
X248584Y-265618D01*
X248584Y-254118D01*
X249084Y-253618D01*
X251084Y-253618D01*
X251584Y-254118D01*
X251584Y-265618D01*
X250584Y-266618D01*
X249584Y-266618D01*
G36*
X254584Y-266618D02*
X253584Y-265618D01*
X253584Y-254118D01*
X254084Y-253618D01*
X256084Y-253618D01*
X256584Y-254118D01*
X256584Y-265618D01*
X255584Y-266618D01*
X254584Y-266618D01*
G37*
G54D17*
X254584Y-266618D02*
X253584Y-265618D01*
X253584Y-254118D01*
X254084Y-253618D01*
X256084Y-253618D01*
X256584Y-254118D01*
X256584Y-265618D01*
X255584Y-266618D01*
X254584Y-266618D01*
G36*
X259584Y-266618D02*
X258584Y-265618D01*
X258584Y-254118D01*
X259084Y-253618D01*
X261084Y-253618D01*
X261584Y-254118D01*
X261584Y-265618D01*
X260584Y-266618D01*
X259584Y-266618D01*
G37*
G54D17*
X259584Y-266618D02*
X258584Y-265618D01*
X258584Y-254118D01*
X259084Y-253618D01*
X261084Y-253618D01*
X261584Y-254118D01*
X261584Y-265618D01*
X260584Y-266618D01*
X259584Y-266618D01*
G36*
X264584Y-266618D02*
X263584Y-265618D01*
X263584Y-254118D01*
X264084Y-253618D01*
X266084Y-253618D01*
X266584Y-254118D01*
X266584Y-265618D01*
X265584Y-266618D01*
X264584Y-266618D01*
G37*
G54D17*
X264584Y-266618D02*
X263584Y-265618D01*
X263584Y-254118D01*
X264084Y-253618D01*
X266084Y-253618D01*
X266584Y-254118D01*
X266584Y-265618D01*
X265584Y-266618D01*
X264584Y-266618D01*
G36*
X269584Y-266618D02*
X268584Y-265618D01*
X268584Y-254118D01*
X269084Y-253618D01*
X271084Y-253618D01*
X271584Y-254118D01*
X271584Y-265618D01*
X270584Y-266618D01*
X269584Y-266618D01*
G37*
G54D17*
X269584Y-266618D02*
X268584Y-265618D01*
X268584Y-254118D01*
X269084Y-253618D01*
X271084Y-253618D01*
X271584Y-254118D01*
X271584Y-265618D01*
X270584Y-266618D01*
X269584Y-266618D01*
G36*
X274584Y-266618D02*
X273584Y-265618D01*
X273584Y-254118D01*
X274084Y-253618D01*
X276084Y-253618D01*
X276584Y-254117D01*
X276584Y-265618D01*
X275584Y-266618D01*
X274584Y-266618D01*
G37*
G54D17*
X274584Y-266618D02*
X273584Y-265618D01*
X273584Y-254118D01*
X274084Y-253618D01*
X276084Y-253618D01*
X276584Y-254117D01*
X276584Y-265618D01*
X275584Y-266618D01*
X274584Y-266618D01*
G36*
X164584Y-266618D02*
X163584Y-265618D01*
X163584Y-254118D01*
X164084Y-253618D01*
X166084Y-253618D01*
X166584Y-254118D01*
X166584Y-265618D01*
X165584Y-266618D01*
X164584Y-266618D01*
G37*
G54D17*
X164584Y-266618D02*
X163584Y-265618D01*
X163584Y-254118D01*
X164084Y-253618D01*
X166084Y-253618D01*
X166584Y-254118D01*
X166584Y-265618D01*
X165584Y-266618D01*
X164584Y-266618D01*
X142116Y-121622D02*
G54D16*
D03*
X142116Y-126622D02*
G54D16*
D03*
X142116Y-131622D02*
G54D16*
D03*
X142116Y-136623D02*
G54D16*
D03*
X142116Y-141622D02*
G54D16*
D03*
X142116Y-146622D02*
G54D16*
D03*
X142116Y-151622D02*
G54D16*
D03*
X142116Y-156622D02*
G54D16*
D03*
X142116Y-161622D02*
G54D16*
D03*
X142116Y-166622D02*
G54D16*
D03*
X142116Y-171622D02*
G54D16*
D03*
X142116Y-176622D02*
G54D16*
D03*
X142116Y-181622D02*
G54D16*
D03*
X142116Y-186622D02*
G54D16*
D03*
X142116Y-191622D02*
G54D16*
D03*
X142116Y-196622D02*
G54D16*
D03*
X142116Y-201622D02*
G54D16*
D03*
X142116Y-206622D02*
G54D16*
D03*
X142116Y-211622D02*
G54D16*
D03*
X142116Y-216622D02*
G54D16*
D03*
X142116Y-221622D02*
G54D16*
D03*
X142116Y-226622D02*
G54D16*
D03*
X142116Y-231622D02*
G54D16*
D03*
X142116Y-236622D02*
G54D16*
D03*
X142116Y-241622D02*
G54D16*
D03*
G36*
X139084Y-121118D02*
X140084Y-120118D01*
X144584Y-120118D01*
X145084Y-120618D01*
X145084Y-122618D01*
X144584Y-123118D01*
X140084Y-123118D01*
X139084Y-122118D01*
X139084Y-121118D01*
G37*
G54D17*
X139084Y-121118D02*
X140084Y-120118D01*
X144584Y-120118D01*
X145084Y-120618D01*
X145084Y-122618D01*
X144584Y-123118D01*
X140084Y-123118D01*
X139084Y-122118D01*
X139084Y-121118D01*
G36*
X139084Y-241118D02*
X140084Y-240118D01*
X144584Y-240118D01*
X145084Y-240618D01*
X145084Y-242618D01*
X144584Y-243118D01*
X140084Y-243118D01*
X139084Y-242118D01*
X139084Y-241118D01*
G37*
G54D17*
X139084Y-241118D02*
X140084Y-240118D01*
X144584Y-240118D01*
X145084Y-240618D01*
X145084Y-242618D01*
X144584Y-243118D01*
X140084Y-243118D01*
X139084Y-242118D01*
X139084Y-241118D01*
G36*
X135084Y-131118D02*
X136084Y-130118D01*
X147584Y-130118D01*
X148084Y-130618D01*
X148084Y-132618D01*
X147584Y-133118D01*
X136084Y-133118D01*
X135084Y-132118D01*
X135084Y-131118D01*
G37*
G54D17*
X135084Y-131118D02*
X136084Y-130118D01*
X147584Y-130118D01*
X148084Y-130618D01*
X148084Y-132618D01*
X147584Y-133118D01*
X136084Y-133118D01*
X135084Y-132118D01*
X135084Y-131118D01*
G36*
X135084Y-136118D02*
X136084Y-135118D01*
X147584Y-135118D01*
X148084Y-135618D01*
X148084Y-137618D01*
X147584Y-138118D01*
X136084Y-138118D01*
X135084Y-137118D01*
X135084Y-136118D01*
G37*
G54D17*
X135084Y-136118D02*
X136084Y-135118D01*
X147584Y-135118D01*
X148084Y-135618D01*
X148084Y-137618D01*
X147584Y-138118D01*
X136084Y-138118D01*
X135084Y-137118D01*
X135084Y-136118D01*
G36*
X135084Y-141118D02*
X136084Y-140118D01*
X147584Y-140118D01*
X148084Y-140618D01*
X148084Y-142618D01*
X147584Y-143118D01*
X136084Y-143118D01*
X135084Y-142118D01*
X135084Y-141118D01*
G37*
G54D17*
X135084Y-141118D02*
X136084Y-140118D01*
X147584Y-140118D01*
X148084Y-140618D01*
X148084Y-142618D01*
X147584Y-143118D01*
X136084Y-143118D01*
X135084Y-142118D01*
X135084Y-141118D01*
G36*
X135084Y-146118D02*
X136084Y-145118D01*
X147584Y-145118D01*
X148084Y-145618D01*
X148084Y-147618D01*
X147584Y-148118D01*
X136084Y-148118D01*
X135084Y-147118D01*
X135084Y-146118D01*
G37*
G54D17*
X135084Y-146118D02*
X136084Y-145118D01*
X147584Y-145118D01*
X148084Y-145618D01*
X148084Y-147618D01*
X147584Y-148118D01*
X136084Y-148118D01*
X135084Y-147118D01*
X135084Y-146118D01*
G36*
X135084Y-151118D02*
X136084Y-150118D01*
X147584Y-150118D01*
X148084Y-150618D01*
X148084Y-152618D01*
X147584Y-153118D01*
X136084Y-153118D01*
X135084Y-152118D01*
X135084Y-151118D01*
G37*
G54D17*
X135084Y-151118D02*
X136084Y-150118D01*
X147584Y-150118D01*
X148084Y-150618D01*
X148084Y-152618D01*
X147584Y-153118D01*
X136084Y-153118D01*
X135084Y-152118D01*
X135084Y-151118D01*
G36*
X135084Y-156118D02*
X136084Y-155118D01*
X147584Y-155118D01*
X148084Y-155618D01*
X148084Y-157618D01*
X147584Y-158118D01*
X136084Y-158118D01*
X135084Y-157118D01*
X135084Y-156118D01*
G37*
G54D17*
X135084Y-156118D02*
X136084Y-155118D01*
X147584Y-155118D01*
X148084Y-155618D01*
X148084Y-157618D01*
X147584Y-158118D01*
X136084Y-158118D01*
X135084Y-157118D01*
X135084Y-156118D01*
G36*
X135084Y-161118D02*
X136084Y-160118D01*
X147584Y-160118D01*
X148084Y-160618D01*
X148084Y-162618D01*
X147584Y-163118D01*
X136084Y-163118D01*
X135084Y-162118D01*
X135084Y-161118D01*
G37*
G54D17*
X135084Y-161118D02*
X136084Y-160118D01*
X147584Y-160118D01*
X148084Y-160618D01*
X148084Y-162618D01*
X147584Y-163118D01*
X136084Y-163118D01*
X135084Y-162118D01*
X135084Y-161118D01*
G36*
X135084Y-166118D02*
X136084Y-165118D01*
X147584Y-165118D01*
X148084Y-165618D01*
X148084Y-167618D01*
X147584Y-168118D01*
X136084Y-168118D01*
X135084Y-167118D01*
X135084Y-166118D01*
G37*
G54D17*
X135084Y-166118D02*
X136084Y-165118D01*
X147584Y-165118D01*
X148084Y-165618D01*
X148084Y-167618D01*
X147584Y-168118D01*
X136084Y-168118D01*
X135084Y-167118D01*
X135084Y-166118D01*
G36*
X135084Y-171118D02*
X136084Y-170118D01*
X147584Y-170118D01*
X148084Y-170618D01*
X148084Y-172618D01*
X147584Y-173118D01*
X136084Y-173118D01*
X135084Y-172118D01*
X135084Y-171118D01*
G37*
G54D17*
X135084Y-171118D02*
X136084Y-170118D01*
X147584Y-170118D01*
X148084Y-170618D01*
X148084Y-172618D01*
X147584Y-173118D01*
X136084Y-173118D01*
X135084Y-172118D01*
X135084Y-171118D01*
G36*
X135084Y-176118D02*
X136084Y-175118D01*
X147584Y-175118D01*
X148084Y-175618D01*
X148084Y-177618D01*
X147584Y-178118D01*
X136084Y-178118D01*
X135084Y-177118D01*
X135084Y-176118D01*
G37*
G54D17*
X135084Y-176118D02*
X136084Y-175118D01*
X147584Y-175118D01*
X148084Y-175618D01*
X148084Y-177618D01*
X147584Y-178118D01*
X136084Y-178118D01*
X135084Y-177118D01*
X135084Y-176118D01*
G36*
X135084Y-181118D02*
X136084Y-180118D01*
X147584Y-180118D01*
X148084Y-180618D01*
X148084Y-182618D01*
X147584Y-183118D01*
X136084Y-183118D01*
X135084Y-182118D01*
X135084Y-181118D01*
G37*
G54D17*
X135084Y-181118D02*
X136084Y-180118D01*
X147584Y-180118D01*
X148084Y-180618D01*
X148084Y-182618D01*
X147584Y-183118D01*
X136084Y-183118D01*
X135084Y-182118D01*
X135084Y-181118D01*
G36*
X135084Y-186118D02*
X136084Y-185118D01*
X147584Y-185118D01*
X148084Y-185618D01*
X148084Y-187618D01*
X147584Y-188118D01*
X136084Y-188118D01*
X135084Y-187118D01*
X135084Y-186118D01*
G37*
G54D17*
X135084Y-186118D02*
X136084Y-185118D01*
X147584Y-185118D01*
X148084Y-185618D01*
X148084Y-187618D01*
X147584Y-188118D01*
X136084Y-188118D01*
X135084Y-187118D01*
X135084Y-186118D01*
G36*
X135084Y-191118D02*
X136084Y-190118D01*
X147584Y-190118D01*
X148084Y-190618D01*
X148084Y-192618D01*
X147584Y-193118D01*
X136084Y-193118D01*
X135084Y-192118D01*
X135084Y-191118D01*
G37*
G54D17*
X135084Y-191118D02*
X136084Y-190118D01*
X147584Y-190118D01*
X148084Y-190618D01*
X148084Y-192618D01*
X147584Y-193118D01*
X136084Y-193118D01*
X135084Y-192118D01*
X135084Y-191118D01*
G36*
X135084Y-196118D02*
X136084Y-195118D01*
X147584Y-195118D01*
X148084Y-195618D01*
X148084Y-197618D01*
X147584Y-198118D01*
X136084Y-198118D01*
X135084Y-197118D01*
X135084Y-196118D01*
G37*
G54D17*
X135084Y-196118D02*
X136084Y-195118D01*
X147584Y-195118D01*
X148084Y-195618D01*
X148084Y-197618D01*
X147584Y-198118D01*
X136084Y-198118D01*
X135084Y-197118D01*
X135084Y-196118D01*
G36*
X135084Y-201118D02*
X136084Y-200118D01*
X147584Y-200118D01*
X148084Y-200618D01*
X148084Y-202618D01*
X147584Y-203118D01*
X136084Y-203118D01*
X135084Y-202118D01*
X135084Y-201118D01*
G37*
G54D17*
X135084Y-201118D02*
X136084Y-200118D01*
X147584Y-200118D01*
X148084Y-200618D01*
X148084Y-202618D01*
X147584Y-203118D01*
X136084Y-203118D01*
X135084Y-202118D01*
X135084Y-201118D01*
G36*
X135084Y-206118D02*
X136084Y-205118D01*
X147584Y-205118D01*
X148084Y-205618D01*
X148084Y-207618D01*
X147584Y-208118D01*
X136084Y-208118D01*
X135084Y-207118D01*
X135084Y-206118D01*
G37*
G54D17*
X135084Y-206118D02*
X136084Y-205118D01*
X147584Y-205118D01*
X148084Y-205618D01*
X148084Y-207618D01*
X147584Y-208118D01*
X136084Y-208118D01*
X135084Y-207118D01*
X135084Y-206118D01*
G36*
X135084Y-211118D02*
X136084Y-210118D01*
X147584Y-210118D01*
X148084Y-210618D01*
X148084Y-212618D01*
X147584Y-213118D01*
X136084Y-213118D01*
X135084Y-212118D01*
X135084Y-211118D01*
G37*
G54D17*
X135084Y-211118D02*
X136084Y-210118D01*
X147584Y-210118D01*
X148084Y-210618D01*
X148084Y-212618D01*
X147584Y-213118D01*
X136084Y-213118D01*
X135084Y-212118D01*
X135084Y-211118D01*
G36*
X135084Y-216118D02*
X136084Y-215118D01*
X147584Y-215118D01*
X148084Y-215618D01*
X148084Y-217618D01*
X147584Y-218118D01*
X136084Y-218118D01*
X135084Y-217118D01*
X135084Y-216118D01*
G37*
G54D17*
X135084Y-216118D02*
X136084Y-215118D01*
X147584Y-215118D01*
X148084Y-215618D01*
X148084Y-217618D01*
X147584Y-218118D01*
X136084Y-218118D01*
X135084Y-217118D01*
X135084Y-216118D01*
G36*
X135084Y-221118D02*
X136084Y-220118D01*
X147584Y-220118D01*
X148084Y-220618D01*
X148084Y-222618D01*
X147584Y-223118D01*
X136084Y-223118D01*
X135084Y-222118D01*
X135084Y-221118D01*
G37*
G54D17*
X135084Y-221118D02*
X136084Y-220118D01*
X147584Y-220118D01*
X148084Y-220618D01*
X148084Y-222618D01*
X147584Y-223118D01*
X136084Y-223118D01*
X135084Y-222118D01*
X135084Y-221118D01*
G36*
X135084Y-226118D02*
X136084Y-225118D01*
X147584Y-225118D01*
X148084Y-225618D01*
X148084Y-227618D01*
X147584Y-228118D01*
X136084Y-228118D01*
X135084Y-227118D01*
X135084Y-226118D01*
G37*
G54D17*
X135084Y-226118D02*
X136084Y-225118D01*
X147584Y-225118D01*
X148084Y-225618D01*
X148084Y-227618D01*
X147584Y-228118D01*
X136084Y-228118D01*
X135084Y-227118D01*
X135084Y-226118D01*
G36*
X135084Y-231118D02*
X136084Y-230118D01*
X147584Y-230118D01*
X148084Y-230618D01*
X148084Y-232618D01*
X147584Y-233118D01*
X136084Y-233118D01*
X135084Y-232118D01*
X135084Y-231118D01*
G37*
G54D17*
X135084Y-231118D02*
X136084Y-230118D01*
X147584Y-230118D01*
X148084Y-230618D01*
X148084Y-232618D01*
X147584Y-233118D01*
X136084Y-233118D01*
X135084Y-232118D01*
X135084Y-231118D01*
G36*
X135084Y-236118D02*
X136084Y-235118D01*
X147584Y-235118D01*
X148084Y-235618D01*
X148084Y-237618D01*
X147584Y-238118D01*
X136084Y-238118D01*
X135084Y-237118D01*
X135084Y-236118D01*
G37*
G54D17*
X135084Y-236118D02*
X136084Y-235118D01*
X147584Y-235118D01*
X148084Y-235618D01*
X148084Y-237618D01*
X147584Y-238118D01*
X136084Y-238118D01*
X135084Y-237118D01*
X135084Y-236118D01*
G36*
X135084Y-126118D02*
X136084Y-125118D01*
X147584Y-125118D01*
X148084Y-125618D01*
X148084Y-127618D01*
X147584Y-128118D01*
X136084Y-128118D01*
X135084Y-127118D01*
X135084Y-126118D01*
G37*
G54D17*
X135084Y-126118D02*
X136084Y-125118D01*
X147584Y-125118D01*
X148084Y-125618D01*
X148084Y-127618D01*
X147584Y-128118D01*
X136084Y-128118D01*
X135084Y-127118D01*
X135084Y-126118D01*
G54D18*
G75*
G01X317517Y-410562D02*
G03X317517Y-410562I-5000J0D01*
G01*
G36*
G75*
G01X317517Y-410562D02*
G03X317517Y-410562I-5000J0D01*
G01*
G37*
X317517Y-410562D01*
G54D18*
G75*
G01X317562Y-430257D02*
G03X317562Y-430257I-5000J0D01*
G01*
G36*
G75*
G01X317562Y-430257D02*
G03X317562Y-430257I-5000J0D01*
G01*
G37*
X317562Y-430257D01*
G54D18*
G75*
G01X317562Y-450574D02*
G03X317562Y-450574I-5000J0D01*
G01*
G36*
G75*
G01X317562Y-450574D02*
G03X317562Y-450574I-5000J0D01*
G01*
G37*
X317562Y-450574D01*
G54D18*
G75*
G01X317562Y-470574D02*
G03X317562Y-470574I-5000J0D01*
G01*
G36*
G75*
G01X317562Y-470574D02*
G03X317562Y-470574I-5000J0D01*
G01*
G37*
X317562Y-470574D01*
G54D18*
G75*
G01X317562Y-510574D02*
G03X317562Y-510574I-5000J0D01*
G01*
G36*
G75*
G01X317562Y-510574D02*
G03X317562Y-510574I-5000J0D01*
G01*
G37*
X317562Y-510574D01*
G54D18*
G75*
G01X317562Y-530574D02*
G03X317562Y-530574I-5000J0D01*
G01*
G36*
G75*
G01X317562Y-530574D02*
G03X317562Y-530574I-5000J0D01*
G01*
G37*
X317562Y-530574D01*
G54D18*
G75*
G01X317562Y-490574D02*
G03X317562Y-490574I-5000J0D01*
G01*
G36*
G75*
G01X317562Y-490574D02*
G03X317562Y-490574I-5000J0D01*
G01*
G37*
X317562Y-490574D01*
G54D18*
G75*
G01X514363Y-410562D02*
G03X514363Y-410562I-5000J0D01*
G01*
G36*
G75*
G01X514363Y-410562D02*
G03X514363Y-410562I-5000J0D01*
G01*
G37*
X514363Y-410562D01*
G54D18*
G75*
G01X514408Y-430257D02*
G03X514408Y-430257I-5000J0D01*
G01*
G36*
G75*
G01X514408Y-430257D02*
G03X514408Y-430257I-5000J0D01*
G01*
G37*
X514408Y-430257D01*
G54D18*
G75*
G01X514408Y-450574D02*
G03X514408Y-450574I-5000J0D01*
G01*
G36*
G75*
G01X514408Y-450574D02*
G03X514408Y-450574I-5000J0D01*
G01*
G37*
X514408Y-450574D01*
G54D18*
G75*
G01X514408Y-470574D02*
G03X514408Y-470574I-5000J0D01*
G01*
G36*
G75*
G01X514408Y-470574D02*
G03X514408Y-470574I-5000J0D01*
G01*
G37*
X514408Y-470574D01*
G54D18*
G75*
G01X514408Y-510574D02*
G03X514408Y-510574I-5000J0D01*
G01*
G36*
G75*
G01X514408Y-510574D02*
G03X514408Y-510574I-5000J0D01*
G01*
G37*
X514408Y-510574D01*
X361552Y-212328D02*
G54D19*
D03*
X378552Y-212328D02*
G54D19*
D03*
X465931Y-190169D02*
G54D19*
D03*
X448931Y-190169D02*
G54D19*
D03*
X465931Y-171912D02*
G54D19*
D03*
X448931Y-171912D02*
G54D19*
D03*
X509408Y-490574D02*
G54D10*
D03*
X447344Y-171912D02*
G54D20*
D03*
X447344Y-190169D02*
G54D20*
D03*
G36*
X393943Y-127693D02*
X384751Y-136886D01*
X374851Y-126986D01*
X384043Y-117794D01*
X393943Y-127693D01*
G37*
G36*
X381922Y-139714D02*
X372730Y-148906D01*
X362831Y-139007D01*
X372023Y-129814D01*
X381922Y-139714D01*
G37*
X279863Y-313998D02*
G54D19*
D03*
X296863Y-313994D02*
G54D19*
D03*
G54D18*
G75*
G01X514408Y-490574D02*
G03X514408Y-490574I-5000J0D01*
G01*
G36*
G75*
G01X514408Y-490574D02*
G03X514408Y-490574I-5000J0D01*
G01*
G37*
X514408Y-490574D01*
G36*
X510462Y-545200D02*
X510462Y-515200D01*
X540462Y-515200D01*
X540462Y-545200D01*
X510462Y-545200D01*
G37*
X491383Y-307668D02*
G54D21*
D03*
X491384Y-294968D02*
G54D21*
D03*
X491384Y-282268D02*
G54D21*
D03*
X491383Y-269568D02*
G54D21*
D03*
X174626Y-69182D02*
G54D22*
D03*
X174629Y-86181D02*
G54D22*
D03*
X172650Y-35764D02*
G54D23*
D03*
X192650Y-35764D02*
G54D23*
D03*
X212650Y-35764D02*
G54D23*
D03*
X232650Y-35764D02*
G54D23*
D03*
X252650Y-35764D02*
G54D23*
D03*
X272650Y-35764D02*
G54D23*
D03*
X292650Y-35764D02*
G54D23*
D03*
X312650Y-35735D02*
G54D23*
D03*
G36*
X299879Y-66469D02*
X290686Y-75661D01*
X280787Y-65762D01*
X289979Y-56569D01*
X299879Y-66469D01*
G37*
G36*
X287868Y-78480D02*
X278675Y-87671D01*
X268776Y-77771D01*
X277970Y-68579D01*
X287868Y-78480D01*
G37*
G36*
X218916Y-70040D02*
X209723Y-79233D01*
X199824Y-69333D01*
X209016Y-60141D01*
X218916Y-70040D01*
G37*
G36*
X206903Y-82060D02*
X197709Y-91252D01*
X187811Y-81351D01*
X197004Y-72160D01*
X206903Y-82060D01*
G37*
X345741Y-115645D02*
G54D24*
D03*
G36*
X322606Y-79045D02*
X311293Y-67731D01*
X324021Y-55003D01*
X335334Y-66317D01*
X322606Y-79045D01*
G37*
X163918Y-534324D02*
G54D11*
D03*
X184562Y-534330D02*
G54D11*
D03*
X203612Y-534330D02*
G54D11*
D03*
X203610Y-421490D02*
G54D11*
D03*
G36*
X286628Y-513249D02*
X286628Y-545249D01*
X254628Y-545249D01*
X254628Y-513249D01*
X286628Y-513249D01*
G37*
G54D18*
G75*
G01X189559Y-421491D02*
G03X189559Y-421491I-5000J0D01*
G01*
G36*
G75*
G01X189559Y-421491D02*
G03X189559Y-421491I-5000J0D01*
G01*
G37*
X189559Y-421491D01*
G54D18*
G75*
G01X208609Y-421491D02*
G03X208609Y-421491I-5000J0D01*
G01*
G36*
G75*
G01X208609Y-421491D02*
G03X208609Y-421491I-5000J0D01*
G01*
G37*
X208609Y-421491D01*
G54D18*
G75*
G01X229246Y-421491D02*
G03X229246Y-421491I-5000J0D01*
G01*
G36*
G75*
G01X229246Y-421491D02*
G03X229246Y-421491I-5000J0D01*
G01*
G37*
X229246Y-421491D01*
G54D18*
G75*
G01X248296Y-421491D02*
G03X248296Y-421491I-5000J0D01*
G01*
G36*
G75*
G01X248296Y-421491D02*
G03X248296Y-421491I-5000J0D01*
G01*
G37*
X248296Y-421491D01*
G54D18*
G75*
G01X249307Y-534324D02*
G03X249307Y-534324I-6000J0D01*
G01*
G36*
G75*
G01X249307Y-534324D02*
G03X249307Y-534324I-6000J0D01*
G01*
G37*
X249307Y-534324D01*
G54D18*
G75*
G01X208609Y-534328D02*
G03X208609Y-534328I-5000J0D01*
G01*
G36*
G75*
G01X208609Y-534328D02*
G03X208609Y-534328I-5000J0D01*
G01*
G37*
X208609Y-534328D01*
G54D18*
G75*
G01X189559Y-534328D02*
G03X189559Y-534328I-5000J0D01*
G01*
G36*
G75*
G01X189559Y-534328D02*
G03X189559Y-534328I-5000J0D01*
G01*
G37*
X189559Y-534328D01*
X148689Y-74265D02*
G54D13*
D03*
X109398Y-95696D02*
G54D13*
D03*
X90348Y-77440D02*
G54D13*
D03*
X90348Y-95696D02*
G54D13*
D03*
X109398Y-120302D02*
G54D13*
D03*
X90348Y-144909D02*
G54D13*
D03*
X109398Y-144909D02*
G54D13*
D03*
X90348Y-120302D02*
G54D13*
D03*
X110192Y-171499D02*
G54D13*
D03*
X511025Y-186929D02*
G54D25*
D03*
X511022Y-161528D02*
G54D25*
D03*
X362060Y-28831D02*
G54D12*
D03*
X362060Y-56831D02*
G54D12*
D03*
X385078Y-28831D02*
G54D12*
D03*
X385078Y-56831D02*
G54D12*
D03*
G36*
X303556Y-97301D02*
X292243Y-85987D01*
X304971Y-73259D01*
X316284Y-84573D01*
X303556Y-97301D01*
G37*
G36*
X183043Y-317996D02*
X192237Y-308804D01*
X202135Y-318705D01*
X192941Y-327896D01*
X183043Y-317996D01*
G37*
G36*
X195067Y-305976D02*
X204260Y-296784D01*
X214159Y-306684D01*
X204967Y-315876D01*
X195067Y-305976D01*
G37*
X156934Y-350273D02*
G54D22*
D03*
X156931Y-367275D02*
G54D22*
D03*
X139075Y-350273D02*
G54D22*
D03*
X139072Y-367275D02*
G54D22*
D03*
X156934Y-384404D02*
G54D22*
D03*
X156931Y-401406D02*
G54D22*
D03*
X139075Y-384404D02*
G54D22*
D03*
X139072Y-401406D02*
G54D22*
D03*
X70284Y-240144D02*
G54D20*
D03*
X163922Y-421491D02*
G54D10*
D03*
X224246Y-421491D02*
G54D10*
D03*
X243296Y-421491D02*
G54D10*
D03*
X210087Y-277562D02*
G54D26*
D03*
X83880Y-378765D02*
G54D20*
D03*
X88106Y-360252D02*
G54D26*
D03*
G36*
X121186Y-304925D02*
X111286Y-295025D01*
X121186Y-285126D01*
X131085Y-295026D01*
X121186Y-304925D01*
G37*
X120354Y-455146D02*
G54D22*
D03*
X120348Y-472152D02*
G54D22*
D03*
X138740Y-455216D02*
G54D22*
D03*
X138737Y-472218D02*
G54D22*
D03*
X491924Y-460596D02*
G54D27*
D03*
X441124Y-485996D02*
G54D27*
D03*
X441123Y-435195D02*
G54D27*
D03*
X441123Y-409796D02*
G54D27*
D03*
X441124Y-511396D02*
G54D27*
D03*
X87301Y-424023D02*
G54D28*
D03*
G36*
X72295Y-438518D02*
X82295Y-438517D01*
X82295Y-449517D01*
X72295Y-449518D01*
X72295Y-438518D01*
G37*
X326559Y-141612D02*
G54D20*
D03*
X346164Y-141612D02*
G54D20*
D03*
X421307Y-215402D02*
G54D22*
D03*
X421316Y-232404D02*
G54D22*
D03*
X455858Y-232007D02*
G54D19*
D03*
X438858Y-232007D02*
G54D19*
D03*
G36*
X371052Y-395312D02*
X376610Y-400870D01*
X376610Y-408754D01*
X371052Y-414312D01*
X363168Y-414312D01*
X357610Y-408754D01*
X357610Y-400870D01*
X363168Y-395312D01*
X371052Y-395312D01*
G37*
G36*
X358352Y-382612D02*
X363910Y-388170D01*
X363910Y-396054D01*
X358352Y-401612D01*
X350468Y-401612D01*
X344910Y-396054D01*
X344910Y-388170D01*
X350468Y-382612D01*
X358352Y-382612D01*
G37*
G36*
X391022Y-413569D02*
X396580Y-419127D01*
X396580Y-427011D01*
X391022Y-432569D01*
X383138Y-432569D01*
X377580Y-427011D01*
X377580Y-419127D01*
X383138Y-413569D01*
X391022Y-413569D01*
G37*
X386043Y-314838D02*
G54D19*
D03*
X369046Y-314833D02*
G54D19*
D03*
X351126Y-308483D02*
G54D13*
D03*
X478978Y-345448D02*
G54D13*
D03*
X440878Y-340686D02*
G54D13*
D03*
X516244Y-296159D02*
G54D22*
D03*
X516248Y-279162D02*
G54D22*
D03*
X312562Y-530574D02*
G54D11*
D03*
X88364Y-171499D02*
G54D13*
D03*
X486751Y-235738D02*
G54D14*
D03*
X486751Y-254738D02*
G54D14*
D03*
X478978Y-326628D02*
G54D29*
D03*
X459978Y-326628D02*
G54D29*
D03*
X507389Y-235738D02*
G54D14*
D03*
X507389Y-254738D02*
G54D14*
D03*
X437812Y-269568D02*
G54D30*
D03*
X437811Y-282268D02*
G54D30*
D03*
X437811Y-294968D02*
G54D30*
D03*
X437811Y-307668D02*
G54D30*
D03*
X386043Y-333094D02*
G54D19*
D03*
X369046Y-333090D02*
G54D19*
D03*
X483955Y-190268D02*
G54D22*
D03*
X483957Y-173269D02*
G54D22*
D03*
X415127Y-42868D02*
G54D13*
D03*
X126607Y-49612D02*
G54D13*
D03*
X222628Y-341562D02*
G54D31*
D03*
X241836Y-329339D02*
G54D32*
D03*
X154050Y-26654D02*
G54D19*
D03*
X137050Y-26654D02*
G54D19*
D03*
X120630Y-350294D02*
G54D22*
D03*
X120627Y-367296D02*
G54D22*
D03*
X120627Y-384596D02*
G54D22*
D03*
X120624Y-401598D02*
G54D22*
D03*
X121083Y-437198D02*
G54D19*
D03*
X104078Y-437191D02*
G54D19*
D03*
X139239Y-419341D02*
G54D19*
D03*
X122237Y-419338D02*
G54D19*
D03*
X174397Y-339161D02*
G54D20*
D03*
X362060Y-75881D02*
G54D24*
D03*
X385078Y-75881D02*
G54D24*
D03*
X66282Y-352824D02*
G54D13*
D03*
G36*
X153829Y-272282D02*
X144636Y-281475D01*
X134737Y-271575D01*
X143929Y-262383D01*
X153829Y-272282D01*
G37*
G36*
X141805Y-284302D02*
X132612Y-293495D01*
X122713Y-283595D01*
X131905Y-274403D01*
X141805Y-284302D01*
G37*
X102556Y-419109D02*
G54D22*
D03*
X102559Y-402107D02*
G54D22*
D03*
X67295Y-424017D02*
G54D28*
D03*
X138737Y-491655D02*
G54D20*
D03*
X120348Y-491588D02*
G54D20*
D03*
X86187Y-612222D02*
G54D33*
D03*
G36*
X339328Y-263448D02*
X350642Y-274762D01*
X339328Y-286075D01*
X328014Y-274762D01*
X339328Y-263448D01*
G37*
G36*
X363934Y-238842D02*
X375248Y-250155D01*
X363934Y-261469D01*
X352620Y-250155D01*
X363934Y-238842D01*
G37*
X90284Y-240144D02*
G54D20*
D03*
X70284Y-260540D02*
G54D20*
D03*
X90284Y-260540D02*
G54D20*
D03*
X70284Y-280937D02*
G54D20*
D03*
X90284Y-280937D02*
G54D20*
D03*
G36*
X409646Y-113608D02*
X420253Y-124215D01*
X408939Y-135528D01*
X398332Y-124922D01*
X409646Y-113608D01*
G37*
G36*
X423081Y-127043D02*
X433688Y-137650D01*
X422374Y-148963D01*
X411767Y-138356D01*
X423081Y-127043D01*
G37*
X243307Y-534324D02*
G54D11*
D03*
X509408Y-510574D02*
G54D10*
D03*
X54290Y-181161D02*
G54D19*
D03*
X71290Y-181161D02*
G54D19*
D03*
X43918Y-781498D02*
G54D10*
D03*
X145917Y-781498D02*
G54D10*
D03*
X247917Y-781498D02*
G54D10*
D03*
X349917Y-781498D02*
G54D10*
D03*
X451917Y-781498D02*
G54D10*
D03*
X528417Y-781498D02*
G54D10*
D03*
X43918Y-739222D02*
G54D10*
D03*
X69418Y-739223D02*
G54D10*
D03*
X94918Y-739222D02*
G54D11*
D03*
X120417Y-739223D02*
G54D10*
D03*
X145917Y-739223D02*
G54D10*
D03*
X171417Y-739223D02*
G54D10*
D03*
X196917Y-739223D02*
G54D10*
D03*
X222417Y-739223D02*
G54D10*
D03*
X247917Y-739223D02*
G54D10*
D03*
X273417Y-739223D02*
G54D10*
D03*
X298917Y-739223D02*
G54D10*
D03*
X324417Y-739223D02*
G54D10*
D03*
X349917Y-739223D02*
G54D10*
D03*
X375417Y-739223D02*
G54D10*
D03*
X400917Y-739223D02*
G54D10*
D03*
X426417Y-739223D02*
G54D10*
D03*
X451917Y-739223D02*
G54D10*
D03*
X477417Y-739223D02*
G54D10*
D03*
X502918Y-739223D02*
G54D10*
D03*
X528418Y-739223D02*
G54D10*
D03*
X56668Y-719222D02*
G54D10*
D03*
X82168Y-719222D02*
G54D10*
D03*
X107668Y-719223D02*
G54D10*
D03*
X158667Y-719223D02*
G54D10*
D03*
X184167Y-719223D02*
G54D10*
D03*
X209667Y-719223D02*
G54D10*
D03*
X260667Y-719223D02*
G54D10*
D03*
X286167Y-719223D02*
G54D10*
D03*
X311667Y-719223D02*
G54D10*
D03*
X362667Y-719223D02*
G54D10*
D03*
X388167Y-719223D02*
G54D10*
D03*
X413667Y-719223D02*
G54D10*
D03*
X464668Y-719223D02*
G54D10*
D03*
X490168Y-719223D02*
G54D10*
D03*
X515668Y-719223D02*
G54D10*
D03*
X82090Y-798248D02*
G54D12*
D03*
X107490Y-798248D02*
G54D12*
D03*
X184090Y-798248D02*
G54D12*
D03*
X209490Y-798248D02*
G54D12*
D03*
X286090Y-798248D02*
G54D12*
D03*
X311490Y-798248D02*
G54D12*
D03*
X388090Y-798248D02*
G54D12*
D03*
X413490Y-798248D02*
G54D12*
D03*
X490090Y-798248D02*
G54D12*
D03*
X515490Y-798248D02*
G54D12*
D03*
X111626Y-709274D02*
G54D13*
D03*
X89401Y-709274D02*
G54D13*
D03*
X64001Y-709274D02*
G54D13*
D03*
X40585Y-709274D02*
G54D13*
D03*
X86187Y-739222D02*
G54D33*
D03*
X696643Y-844651D02*
G54D14*
D03*
X696640Y-863656D02*
G54D14*
D03*
X696641Y-871644D02*
G54D14*
D03*
X696633Y-890642D02*
G54D14*
D03*
X752283Y-850691D02*
G54D34*
D03*
X739583Y-850691D02*
G54D34*
D03*
X726883Y-850691D02*
G54D34*
D03*
X714183Y-850691D02*
G54D34*
D03*
X714183Y-900691D02*
G54D34*
D03*
X726883Y-900691D02*
G54D34*
D03*
X739583Y-900691D02*
G54D34*
D03*
X752283Y-900691D02*
G54D34*
D03*
X201343Y-844651D02*
G54D14*
D03*
X201340Y-863656D02*
G54D14*
D03*
X201340Y-871644D02*
G54D14*
D03*
X201333Y-890642D02*
G54D14*
D03*
X256983Y-850691D02*
G54D34*
D03*
X244283Y-850691D02*
G54D34*
D03*
X231583Y-850691D02*
G54D34*
D03*
X218883Y-850691D02*
G54D34*
D03*
X218883Y-900691D02*
G54D34*
D03*
X231583Y-900691D02*
G54D34*
D03*
X244283Y-900691D02*
G54D34*
D03*
X256983Y-900691D02*
G54D34*
D03*
X366443Y-844651D02*
G54D14*
D03*
X366441Y-863656D02*
G54D14*
D03*
X366440Y-871644D02*
G54D14*
D03*
X366433Y-890642D02*
G54D14*
D03*
X422083Y-850691D02*
G54D34*
D03*
X409383Y-850691D02*
G54D34*
D03*
X396683Y-850691D02*
G54D34*
D03*
X383983Y-850691D02*
G54D34*
D03*
X383983Y-900691D02*
G54D34*
D03*
X396683Y-900691D02*
G54D34*
D03*
X409383Y-900691D02*
G54D34*
D03*
X422083Y-900691D02*
G54D34*
D03*
X861743Y-844651D02*
G54D14*
D03*
X861740Y-863656D02*
G54D14*
D03*
X861740Y-871644D02*
G54D14*
D03*
X861733Y-890642D02*
G54D14*
D03*
X917383Y-850691D02*
G54D34*
D03*
X904683Y-850691D02*
G54D34*
D03*
X891983Y-850691D02*
G54D34*
D03*
X879284Y-850691D02*
G54D34*
D03*
X879283Y-900691D02*
G54D34*
D03*
X891983Y-900691D02*
G54D34*
D03*
X904683Y-900691D02*
G54D34*
D03*
X917383Y-900691D02*
G54D34*
D03*
X531543Y-844651D02*
G54D14*
D03*
X531540Y-863656D02*
G54D14*
D03*
X531540Y-871644D02*
G54D14*
D03*
X531533Y-890642D02*
G54D14*
D03*
X587183Y-850691D02*
G54D34*
D03*
X574483Y-850691D02*
G54D34*
D03*
X561783Y-850691D02*
G54D34*
D03*
X549083Y-850691D02*
G54D34*
D03*
X549083Y-900691D02*
G54D34*
D03*
X561783Y-900691D02*
G54D34*
D03*
X574483Y-900691D02*
G54D34*
D03*
X587183Y-900691D02*
G54D34*
D03*
G54D35*
X129189Y-944692D02*
X129189Y-980092D01*
G54D35*
X116489Y-944692D02*
X116489Y-980092D01*
X35450Y-844651D02*
G54D14*
D03*
X35447Y-863656D02*
G54D14*
D03*
X35447Y-871644D02*
G54D14*
D03*
X35440Y-890642D02*
G54D14*
D03*
G54D35*
X141989Y-944692D02*
X141989Y-980092D01*
G54D35*
X129189Y-944692D02*
X129189Y-980092D01*
G54D35*
X116489Y-944692D02*
X116489Y-980092D01*
G54D35*
X103889Y-944692D02*
X103889Y-980092D01*
G54D35*
X78389Y-944692D02*
X78389Y-980092D01*
G54D35*
X154589Y-944692D02*
X154589Y-980092D01*
G54D35*
X65689Y-944692D02*
X65689Y-980092D01*
G54D35*
X53089Y-944692D02*
X53089Y-980092D01*
G54D35*
X40289Y-944692D02*
X40289Y-980092D01*
G54D35*
X27589Y-944692D02*
X27589Y-980092D01*
X91090Y-850691D02*
G54D34*
D03*
X78389Y-850691D02*
G54D34*
D03*
X65689Y-850691D02*
G54D34*
D03*
X52989Y-850691D02*
G54D34*
D03*
X52989Y-900691D02*
G54D34*
D03*
X65689Y-900691D02*
G54D34*
D03*
X78389Y-900691D02*
G54D34*
D03*
X91089Y-900691D02*
G54D34*
D03*
G54D35*
X295083Y-944692D02*
X295083Y-980092D01*
G54D35*
X282383Y-944692D02*
X282383Y-980092D01*
G54D35*
X307883Y-944692D02*
X307883Y-980092D01*
G54D35*
X295083Y-944692D02*
X295083Y-980092D01*
G54D35*
X282383Y-944692D02*
X282383Y-980092D01*
G54D35*
X269783Y-944692D02*
X269783Y-980092D01*
G54D35*
X244283Y-944692D02*
X244283Y-980092D01*
G54D35*
X320483Y-944692D02*
X320483Y-980092D01*
G54D35*
X231583Y-944692D02*
X231583Y-980092D01*
G54D35*
X218983Y-944692D02*
X218983Y-980092D01*
G54D35*
X206183Y-944692D02*
X206183Y-980092D01*
G54D35*
X193483Y-944692D02*
X193483Y-980092D01*
G54D35*
X460183Y-944692D02*
X460183Y-980092D01*
G54D35*
X447483Y-944692D02*
X447483Y-980092D01*
G54D35*
X472983Y-944692D02*
X472983Y-980092D01*
G54D35*
X460183Y-944692D02*
X460183Y-980092D01*
G54D35*
X447483Y-944692D02*
X447483Y-980092D01*
G54D35*
X434883Y-944692D02*
X434883Y-980092D01*
G54D35*
X409383Y-944692D02*
X409383Y-980092D01*
G54D35*
X485583Y-944692D02*
X485583Y-980092D01*
G54D35*
X396683Y-944692D02*
X396683Y-980092D01*
G54D35*
X384083Y-944692D02*
X384083Y-980092D01*
G54D35*
X371283Y-944692D02*
X371283Y-980092D01*
G54D35*
X358583Y-944692D02*
X358583Y-980092D01*
G54D35*
X625283Y-944692D02*
X625283Y-980092D01*
G54D35*
X612583Y-944692D02*
X612583Y-980092D01*
G54D35*
X638083Y-944692D02*
X638083Y-980092D01*
G54D35*
X625283Y-944692D02*
X625283Y-980092D01*
G54D35*
X612583Y-944692D02*
X612583Y-980092D01*
G54D35*
X599983Y-944692D02*
X599983Y-980092D01*
G54D35*
X574483Y-944692D02*
X574483Y-980092D01*
G54D35*
X650683Y-944692D02*
X650683Y-980092D01*
G54D35*
X561783Y-944692D02*
X561783Y-980092D01*
G54D35*
X549183Y-944692D02*
X549183Y-980092D01*
G54D35*
X536383Y-944692D02*
X536383Y-980092D01*
G54D35*
X523683Y-944692D02*
X523683Y-980092D01*
G54D35*
X790383Y-944692D02*
X790383Y-980092D01*
G54D35*
X777683Y-944692D02*
X777683Y-980092D01*
G54D35*
X803183Y-944692D02*
X803183Y-980092D01*
G54D35*
X790383Y-944692D02*
X790383Y-980092D01*
G54D35*
X777683Y-944692D02*
X777683Y-980092D01*
G54D35*
X765083Y-944692D02*
X765083Y-980092D01*
G54D35*
X739583Y-944692D02*
X739583Y-980092D01*
G54D35*
X815783Y-944692D02*
X815783Y-980092D01*
G54D35*
X726883Y-944692D02*
X726883Y-980092D01*
G54D35*
X714283Y-944692D02*
X714283Y-980092D01*
G54D35*
X701483Y-944692D02*
X701483Y-980092D01*
G54D35*
X688783Y-944692D02*
X688783Y-980092D01*
G54D35*
X955483Y-944692D02*
X955483Y-980092D01*
G54D35*
X942783Y-944692D02*
X942783Y-980092D01*
G54D35*
X968284Y-944692D02*
X968283Y-980092D01*
G54D35*
X955483Y-944692D02*
X955483Y-980092D01*
G54D35*
X942783Y-944692D02*
X942783Y-980092D01*
G54D35*
X930183Y-944692D02*
X930183Y-980092D01*
G54D35*
X904683Y-944692D02*
X904683Y-980092D01*
G54D35*
X980883Y-944692D02*
X980883Y-980092D01*
G54D35*
X891983Y-944692D02*
X891983Y-980092D01*
G54D35*
X879383Y-944692D02*
X879383Y-980092D01*
G54D35*
X866583Y-944692D02*
X866583Y-980092D01*
G54D35*
X853883Y-944692D02*
X853883Y-980092D01*
X861553Y-645108D02*
G54D14*
D03*
X861550Y-664113D02*
G54D14*
D03*
X861550Y-672100D02*
G54D14*
D03*
X861543Y-691098D02*
G54D14*
D03*
X917193Y-651147D02*
G54D34*
D03*
X904492Y-651147D02*
G54D34*
D03*
X891792Y-651147D02*
G54D34*
D03*
X879092Y-651147D02*
G54D34*
D03*
X879092Y-701147D02*
G54D34*
D03*
X891792Y-701147D02*
G54D34*
D03*
X904492Y-701147D02*
G54D34*
D03*
X917192Y-701147D02*
G54D34*
D03*
X696056Y-645901D02*
G54D14*
D03*
X696053Y-664906D02*
G54D14*
D03*
X696053Y-672894D02*
G54D14*
D03*
X696046Y-691892D02*
G54D14*
D03*
X751696Y-651941D02*
G54D34*
D03*
X738996Y-651941D02*
G54D34*
D03*
X726296Y-651941D02*
G54D34*
D03*
X713596Y-651941D02*
G54D34*
D03*
X713596Y-701941D02*
G54D34*
D03*
X726296Y-701941D02*
G54D34*
D03*
X738996Y-701941D02*
G54D34*
D03*
X751696Y-701941D02*
G54D34*
D03*
G54D35*
X955292Y-745148D02*
X955292Y-780548D01*
G54D35*
X942592Y-745148D02*
X942592Y-780548D01*
G54D35*
X968093Y-745148D02*
X968092Y-780548D01*
G54D35*
X955292Y-745148D02*
X955292Y-780548D01*
G54D35*
X942592Y-745148D02*
X942592Y-780548D01*
G54D35*
X929992Y-745148D02*
X929992Y-780548D01*
G54D35*
X904492Y-745148D02*
X904492Y-780548D01*
G54D35*
X980692Y-745148D02*
X980692Y-780548D01*
G54D35*
X891792Y-745148D02*
X891792Y-780548D01*
G54D35*
X879192Y-745148D02*
X879192Y-780548D01*
G54D35*
X866392Y-745148D02*
X866392Y-780548D01*
G54D35*
X853692Y-745148D02*
X853692Y-780548D01*
G54D35*
X789796Y-745941D02*
X789796Y-781341D01*
G54D35*
X777096Y-745941D02*
X777096Y-781341D01*
G54D35*
X802596Y-745941D02*
X802595Y-781341D01*
G54D35*
X789796Y-745941D02*
X789796Y-781341D01*
G54D35*
X777096Y-745941D02*
X777096Y-781341D01*
G54D35*
X764496Y-745941D02*
X764496Y-781341D01*
G54D35*
X738996Y-745941D02*
X738996Y-781341D01*
G54D35*
X815195Y-745941D02*
X815195Y-781341D01*
G54D35*
X726296Y-745941D02*
X726296Y-781341D01*
G54D35*
X713696Y-745941D02*
X713696Y-781341D01*
G54D35*
X700896Y-745941D02*
X700896Y-781341D01*
G54D35*
X688196Y-745941D02*
X688196Y-781341D01*
X751864Y-454547D02*
G54D34*
D03*
X739164Y-454547D02*
G54D34*
D03*
X726464Y-454547D02*
G54D34*
D03*
X713764Y-454547D02*
G54D34*
D03*
X713764Y-504547D02*
G54D34*
D03*
X726464Y-504547D02*
G54D34*
D03*
X739164Y-504547D02*
G54D34*
D03*
X751864Y-504547D02*
G54D34*
D03*
X696224Y-448508D02*
G54D14*
D03*
X696222Y-467512D02*
G54D14*
D03*
X696222Y-475500D02*
G54D14*
D03*
X696214Y-494498D02*
G54D14*
D03*
X862743Y-447861D02*
G54D14*
D03*
X862741Y-466866D02*
G54D14*
D03*
X862741Y-474853D02*
G54D14*
D03*
X862733Y-493851D02*
G54D14*
D03*
X918383Y-453900D02*
G54D34*
D03*
X905683Y-453900D02*
G54D34*
D03*
X892983Y-453900D02*
G54D34*
D03*
X880283Y-453900D02*
G54D34*
D03*
X880283Y-503900D02*
G54D34*
D03*
X892983Y-503900D02*
G54D34*
D03*
X905683Y-503900D02*
G54D34*
D03*
X918383Y-503900D02*
G54D34*
D03*
G54D35*
X956483Y-547901D02*
X956483Y-583301D01*
G54D35*
X943783Y-547901D02*
X943783Y-583301D01*
G54D35*
X969283Y-547901D02*
X969283Y-583301D01*
G54D35*
X956483Y-547901D02*
X956483Y-583301D01*
G54D35*
X943783Y-547901D02*
X943783Y-583301D01*
G54D35*
X931183Y-547901D02*
X931183Y-583301D01*
G54D35*
X905683Y-547901D02*
X905683Y-583301D01*
G54D35*
X981883Y-547901D02*
X981883Y-583301D01*
G54D35*
X892983Y-547901D02*
X892983Y-583301D01*
G54D35*
X880383Y-547901D02*
X880383Y-583301D01*
G54D35*
X867583Y-547901D02*
X867583Y-583301D01*
G54D35*
X854883Y-547901D02*
X854883Y-583301D01*
G54D35*
X789964Y-548548D02*
X789964Y-583948D01*
G54D35*
X777264Y-548548D02*
X777264Y-583948D01*
G54D35*
X802764Y-548548D02*
X802764Y-583948D01*
G54D35*
X789964Y-548548D02*
X789964Y-583948D01*
G54D35*
X777264Y-548548D02*
X777264Y-583948D01*
G54D35*
X764664Y-548548D02*
X764664Y-583948D01*
G54D35*
X739164Y-548548D02*
X739164Y-583948D01*
G54D35*
X815364Y-548548D02*
X815364Y-583948D01*
G54D35*
X726464Y-548548D02*
X726464Y-583948D01*
G54D35*
X713864Y-548548D02*
X713864Y-583948D01*
G54D35*
X701064Y-548548D02*
X701064Y-583948D01*
G54D35*
X688364Y-548548D02*
X688364Y-583948D01*
G54D35*
X917589Y-341526D02*
X917589Y-396770D01*
X861950Y-251804D02*
G54D14*
D03*
X861947Y-270810D02*
G54D14*
D03*
X861947Y-278797D02*
G54D14*
D03*
X861940Y-297794D02*
G54D14*
D03*
X917590Y-257844D02*
G54D34*
D03*
X904890Y-257844D02*
G54D34*
D03*
X892190Y-257844D02*
G54D34*
D03*
X879490Y-257844D02*
G54D34*
D03*
X879490Y-307844D02*
G54D34*
D03*
X892190Y-307844D02*
G54D34*
D03*
X904890Y-307844D02*
G54D34*
D03*
X917589Y-307844D02*
G54D34*
D03*
X697643Y-251011D02*
G54D14*
D03*
X697641Y-270016D02*
G54D14*
D03*
X697641Y-278003D02*
G54D14*
D03*
X697633Y-297001D02*
G54D14*
D03*
X753283Y-257050D02*
G54D34*
D03*
X740583Y-257050D02*
G54D34*
D03*
X727883Y-257050D02*
G54D34*
D03*
X715183Y-257050D02*
G54D34*
D03*
X715183Y-307050D02*
G54D34*
D03*
X727883Y-307050D02*
G54D34*
D03*
X740583Y-307050D02*
G54D34*
D03*
X753283Y-307050D02*
G54D34*
D03*
G54D35*
X955689Y-351844D02*
X955689Y-387244D01*
G54D35*
X942989Y-351844D02*
X942989Y-387244D01*
G54D35*
X968490Y-351844D02*
X968489Y-387244D01*
G54D35*
X955689Y-351844D02*
X955689Y-387244D01*
G54D35*
X942989Y-351844D02*
X942989Y-387244D01*
G54D35*
X930389Y-351844D02*
X930389Y-387244D01*
G54D35*
X904889Y-351844D02*
X904889Y-387244D01*
G54D35*
X981089Y-351844D02*
X981089Y-387244D01*
G54D35*
X892189Y-351844D02*
X892189Y-387244D01*
G54D35*
X879589Y-351844D02*
X879589Y-387244D01*
G54D35*
X866789Y-351844D02*
X866789Y-387244D01*
G54D35*
X854089Y-351844D02*
X854089Y-387244D01*
G54D35*
X791383Y-351051D02*
X791383Y-386451D01*
G54D35*
X778683Y-351051D02*
X778683Y-386451D01*
G54D35*
X804183Y-351051D02*
X804183Y-386451D01*
G54D35*
X791383Y-351051D02*
X791383Y-386451D01*
G54D35*
X778683Y-351051D02*
X778683Y-386451D01*
G54D35*
X766083Y-351051D02*
X766083Y-386451D01*
G54D35*
X740583Y-351051D02*
X740583Y-386451D01*
G54D35*
X816783Y-351051D02*
X816783Y-386451D01*
G54D35*
X727883Y-351051D02*
X727883Y-386451D01*
G54D35*
X715283Y-351051D02*
X715283Y-386451D01*
G54D35*
X702483Y-351051D02*
X702483Y-386451D01*
G54D35*
X689783Y-351051D02*
X689783Y-386451D01*
G54D35*
X641464Y-743900D02*
X641464Y-785650D01*
G54D35*
X628664Y-743900D02*
X628664Y-785650D01*
G54D35*
X615964Y-743900D02*
X615964Y-785650D01*
G54D35*
X603364Y-743900D02*
X603364Y-785650D01*
G54D35*
X590564Y-743900D02*
X590564Y-785650D01*
G54D35*
X577864Y-743900D02*
X577864Y-785650D01*
X591271Y-674498D02*
G54D34*
D03*
X603971Y-674498D02*
G54D34*
D03*
X616671Y-674498D02*
G54D34*
D03*
X629371Y-674498D02*
G54D34*
D03*
G36*
X624370Y-611499D02*
X634370Y-611498D01*
X634372Y-637498D01*
X624372Y-637498D01*
X624370Y-611499D01*
G37*
X616671Y-624498D02*
G54D34*
D03*
X603971Y-624498D02*
G54D34*
D03*
X591271Y-624498D02*
G54D34*
D03*
X652683Y-687010D02*
G54D36*
D03*
X630508Y-687010D02*
G54D36*
D03*
G54D35*
X654064Y-743900D02*
X654064Y-785650D01*
X584868Y-708265D02*
G54D19*
D03*
X601868Y-708265D02*
G54D19*
D03*
X652708Y-698856D02*
G54D22*
D03*
X652708Y-715856D02*
G54D22*
D03*
G54D35*
X641464Y-521650D02*
X641464Y-563400D01*
G54D35*
X628664Y-521650D02*
X628664Y-563400D01*
G54D35*
X615964Y-521650D02*
X615964Y-563400D01*
G54D35*
X603364Y-521650D02*
X603364Y-563400D01*
G54D35*
X590564Y-521650D02*
X590564Y-563400D01*
G54D35*
X577864Y-521650D02*
X577864Y-563400D01*
X591271Y-452248D02*
G54D34*
D03*
X603971Y-452248D02*
G54D34*
D03*
X616671Y-452248D02*
G54D34*
D03*
X629371Y-452248D02*
G54D34*
D03*
G36*
X624370Y-389249D02*
X634370Y-389248D01*
X634372Y-415248D01*
X624372Y-415248D01*
X624370Y-389249D01*
G37*
X616671Y-402248D02*
G54D34*
D03*
X603971Y-402248D02*
G54D34*
D03*
X591271Y-402248D02*
G54D34*
D03*
X652683Y-464760D02*
G54D36*
D03*
X630508Y-464760D02*
G54D36*
D03*
G54D35*
X654064Y-521650D02*
X654064Y-563400D01*
X584868Y-486015D02*
G54D19*
D03*
X601868Y-486015D02*
G54D19*
D03*
X652708Y-476606D02*
G54D22*
D03*
X652708Y-493606D02*
G54D22*
D03*
G54D35*
X641464Y-286700D02*
X641464Y-328450D01*
G54D35*
X628664Y-286700D02*
X628664Y-328450D01*
G54D35*
X615964Y-286700D02*
X615964Y-328450D01*
G54D35*
X603364Y-286700D02*
X603364Y-328450D01*
G54D35*
X590564Y-286700D02*
X590564Y-328450D01*
G54D35*
X577864Y-286700D02*
X577864Y-328450D01*
X591271Y-217298D02*
G54D34*
D03*
X603971Y-217298D02*
G54D34*
D03*
X616671Y-217298D02*
G54D34*
D03*
X629371Y-217298D02*
G54D34*
D03*
G36*
X624370Y-154299D02*
X634370Y-154298D01*
X634372Y-180298D01*
X624372Y-180298D01*
X624370Y-154299D01*
G37*
X616671Y-167298D02*
G54D34*
D03*
X603971Y-167298D02*
G54D34*
D03*
X591271Y-167298D02*
G54D34*
D03*
X652683Y-229810D02*
G54D36*
D03*
X630508Y-229810D02*
G54D36*
D03*
G54D35*
X654064Y-286700D02*
X654064Y-328450D01*
X584868Y-251065D02*
G54D19*
D03*
X601868Y-251065D02*
G54D19*
D03*
X652708Y-241656D02*
G54D22*
D03*
X652708Y-258656D02*
G54D22*
D03*
G54D35*
X917589Y-131976D02*
X917589Y-187220D01*
X861950Y-42254D02*
G54D14*
D03*
X861947Y-61260D02*
G54D14*
D03*
X861947Y-69247D02*
G54D14*
D03*
X861940Y-88244D02*
G54D14*
D03*
X917590Y-48294D02*
G54D34*
D03*
X904890Y-48294D02*
G54D34*
D03*
X892190Y-48294D02*
G54D34*
D03*
X879490Y-48294D02*
G54D34*
D03*
X879490Y-98294D02*
G54D34*
D03*
X892190Y-98294D02*
G54D34*
D03*
X904890Y-98294D02*
G54D34*
D03*
X917589Y-98294D02*
G54D34*
D03*
G54D35*
X955689Y-142294D02*
X955689Y-177694D01*
G54D35*
X942989Y-142294D02*
X942989Y-177694D01*
G54D35*
X968490Y-142294D02*
X968489Y-177694D01*
G54D35*
X955689Y-142294D02*
X955689Y-177694D01*
G54D35*
X942989Y-142294D02*
X942989Y-177694D01*
G54D35*
X930389Y-142294D02*
X930389Y-177694D01*
G54D35*
X904889Y-142294D02*
X904889Y-177694D01*
G54D35*
X981089Y-142294D02*
X981089Y-177694D01*
G54D35*
X892189Y-142294D02*
X892189Y-177694D01*
G54D35*
X879589Y-142294D02*
X879589Y-177694D01*
G54D35*
X866789Y-142294D02*
X866789Y-177694D01*
G54D35*
X854089Y-142294D02*
X854089Y-177694D01*
X696643Y-44551D02*
G54D14*
D03*
X696640Y-63556D02*
G54D14*
D03*
X696640Y-71544D02*
G54D14*
D03*
X696633Y-90541D02*
G54D14*
D03*
X752283Y-50591D02*
G54D34*
D03*
X739583Y-50591D02*
G54D34*
D03*
X726883Y-50591D02*
G54D34*
D03*
X714184Y-50591D02*
G54D34*
D03*
X714183Y-100591D02*
G54D34*
D03*
X726883Y-100591D02*
G54D34*
D03*
X739583Y-100591D02*
G54D34*
D03*
X752283Y-100591D02*
G54D34*
D03*
G54D35*
X790383Y-144591D02*
X790383Y-179991D01*
G54D35*
X777683Y-144591D02*
X777683Y-179991D01*
G54D35*
X803184Y-144591D02*
X803183Y-179991D01*
G54D35*
X790383Y-144591D02*
X790383Y-179991D01*
G54D35*
X777683Y-144591D02*
X777683Y-179991D01*
G54D35*
X765083Y-144591D02*
X765083Y-179991D01*
G54D35*
X739583Y-144591D02*
X739583Y-179991D01*
G54D35*
X815783Y-144591D02*
X815783Y-179991D01*
G54D35*
X726883Y-144591D02*
X726883Y-179991D01*
G54D35*
X714283Y-144591D02*
X714283Y-179991D01*
G54D35*
X701483Y-144591D02*
X701483Y-179991D01*
G54D35*
X688783Y-144591D02*
X688783Y-179991D01*
X403578Y-332854D02*
G54D22*
D03*
X403582Y-315858D02*
G54D22*
D03*
M02*
