%FSLAX34Y34*%
%MOMM*%
%LNSILK_TOP*%
G71*
G01*
%ADD10C, 0.100*%
%ADD11C, 0.089*%
%ADD12C, 0.189*%
%ADD13C, 0.150*%
%ADD14C, 0.222*%
%LPD*%
G54D10*
G75*
G01X150722Y-253422D02*
G03X150722Y-253422I-2500J0D01*
G01*
G36*
G75*
G01X150722Y-253422D02*
G03X150722Y-253422I-2500J0D01*
G01*
G37*
X150722Y-253422D01*
G54D11*
X330958Y-210459D02*
X330958Y-216237D01*
X331490Y-217126D01*
X332558Y-217570D01*
X333624Y-217570D01*
X334690Y-217126D01*
X335224Y-216237D01*
X335224Y-210459D01*
G54D11*
X337180Y-216237D02*
X337714Y-217126D01*
X338780Y-217570D01*
X339847Y-217570D01*
X340914Y-217126D01*
X341447Y-216237D01*
X341447Y-215348D01*
X340914Y-214459D01*
X339847Y-214015D01*
X338780Y-214015D01*
X337714Y-213570D01*
X337180Y-212681D01*
X337180Y-211792D01*
X337714Y-210904D01*
X338780Y-210459D01*
X339847Y-210459D01*
X340914Y-210904D01*
X341447Y-211792D01*
G54D11*
X343404Y-217570D02*
X343404Y-210459D01*
X346070Y-210459D01*
X347136Y-210904D01*
X347670Y-211792D01*
X347670Y-212681D01*
X347136Y-213570D01*
X346070Y-214015D01*
X347136Y-214459D01*
X347670Y-215348D01*
X347670Y-216237D01*
X347136Y-217126D01*
X346070Y-217570D01*
X343404Y-217570D01*
G54D11*
X343404Y-214015D02*
X346070Y-214015D01*
G54D12*
X367604Y-463377D02*
X371004Y-465266D01*
X372138Y-467155D01*
X372138Y-470933D01*
G54D12*
X363072Y-470933D02*
X363072Y-455822D01*
X368738Y-455822D01*
X371004Y-456766D01*
X372138Y-458655D01*
X372138Y-460544D01*
X371004Y-462432D01*
X368738Y-463377D01*
X363072Y-463377D01*
G54D12*
X376294Y-470933D02*
X376294Y-455822D01*
X384228Y-455821D01*
G54D12*
X376294Y-463377D02*
X384228Y-463377D01*
G54D12*
X388383Y-470933D02*
X388383Y-455821D01*
X394050Y-465266D01*
X399716Y-455822D01*
X399716Y-470933D01*
G54D12*
X412939Y-458655D02*
X411806Y-456766D01*
X409539Y-455822D01*
X407272Y-455822D01*
X405006Y-456766D01*
X403872Y-458655D01*
X403872Y-463377D01*
X403872Y-464321D01*
X407272Y-462432D01*
X409539Y-462432D01*
X411806Y-463377D01*
X412939Y-465266D01*
X412939Y-468099D01*
X411806Y-469988D01*
X409539Y-470933D01*
X407272Y-470933D01*
X405006Y-469988D01*
X403872Y-468099D01*
X403872Y-463377D01*
G54D12*
X417096Y-468099D02*
X418228Y-469988D01*
X420495Y-470933D01*
X422762Y-470933D01*
X425028Y-469988D01*
X426162Y-468100D01*
X426162Y-463377D01*
X426162Y-462432D01*
X422762Y-464321D01*
X420495Y-464322D01*
X418228Y-463377D01*
X417096Y-461488D01*
X417096Y-458655D01*
X418228Y-456766D01*
X420496Y-455822D01*
X422762Y-455822D01*
X425028Y-456766D01*
X426162Y-458655D01*
X426162Y-463377D01*
G54D12*
X430318Y-470933D02*
X430318Y-455822D01*
G54D12*
X439385Y-470932D02*
X439385Y-455822D01*
G54D12*
X430318Y-463377D02*
X439385Y-463377D01*
G54D12*
X443542Y-455822D02*
X443541Y-470933D01*
X449208Y-461488D01*
X454874Y-470932D01*
X454874Y-455822D01*
G54D13*
X353052Y-221328D02*
X353052Y-203328D01*
X387052Y-203328D01*
X387052Y-221328D01*
X353052Y-221328D01*
G54D13*
X474431Y-181169D02*
X474431Y-199169D01*
X440431Y-199169D01*
X440431Y-181169D01*
X474431Y-181169D01*
G54D13*
X474431Y-162912D02*
X474431Y-180912D01*
X440431Y-180912D01*
X440431Y-162912D01*
X474431Y-162912D01*
G54D13*
X384044Y-114965D02*
X396771Y-127693D01*
X372730Y-151735D01*
X360002Y-139007D01*
X384044Y-114965D01*
G54D13*
X271363Y-322994D02*
X271363Y-304994D01*
X305363Y-304994D01*
X305363Y-322994D01*
X271363Y-322994D01*
G54D13*
X456384Y-314668D02*
X476384Y-314668D01*
X476383Y-263568D01*
X456384Y-263568D01*
X456384Y-314668D01*
G54D13*
X461384Y-314668D02*
X471384Y-314668D01*
X471384Y-309668D01*
X461384Y-309668D01*
X461384Y-314668D01*
G54D14*
X216128Y-34532D02*
X216128Y-52310D01*
X225461Y-52310D01*
G54D14*
X239683Y-52310D02*
X230350Y-52310D01*
X230350Y-34532D01*
X239683Y-34532D01*
G54D14*
X230350Y-43421D02*
X239683Y-43421D01*
G54D14*
X244572Y-52310D02*
X244572Y-34532D01*
X251238Y-34532D01*
X253905Y-35643D01*
X255238Y-37865D01*
X255238Y-48976D01*
X253905Y-51198D01*
X251238Y-52310D01*
X244572Y-52310D01*
G54D14*
X260128Y-48976D02*
X261461Y-51198D01*
X264128Y-52310D01*
X266794Y-52310D01*
X269461Y-51198D01*
X270794Y-48976D01*
X270794Y-46754D01*
X269461Y-44532D01*
X266794Y-43421D01*
X264128Y-43421D01*
X261461Y-42310D01*
X260128Y-40087D01*
X260128Y-37865D01*
X261461Y-35643D01*
X264128Y-34532D01*
X266794Y-34532D01*
X269461Y-35643D01*
X270794Y-37865D01*
G54D13*
X165626Y-60682D02*
X183626Y-60682D01*
X183626Y-94682D01*
X165626Y-94682D01*
X165626Y-60682D01*
G54D13*
X289979Y-53741D02*
X302707Y-66469D01*
X278666Y-90510D01*
X265938Y-77782D01*
X289979Y-53741D01*
G54D13*
X209016Y-57312D02*
X221744Y-70040D01*
X197702Y-94082D01*
X184974Y-81354D01*
X209016Y-57312D01*
G54D13*
X351060Y-17831D02*
X373060Y-17831D01*
X373060Y-67831D01*
X351060Y-67831D01*
X351060Y-17831D01*
G54D13*
X374078Y-17831D02*
X396078Y-17831D01*
X396078Y-67831D01*
X374078Y-67831D01*
X374078Y-17831D01*
G54D13*
X180218Y-317998D02*
X192946Y-330726D01*
X216988Y-306684D01*
X204260Y-293956D01*
X180218Y-317998D01*
G54D13*
X165931Y-341775D02*
X147931Y-341775D01*
X147931Y-375775D01*
X165931Y-375775D01*
X165931Y-341775D01*
G54D13*
X148072Y-341775D02*
X130072Y-341775D01*
X130072Y-375775D01*
X148072Y-375775D01*
X148072Y-341775D01*
G54D13*
X165931Y-375906D02*
X147931Y-375906D01*
X147931Y-409906D01*
X165931Y-409906D01*
X165931Y-375906D01*
G54D13*
X148072Y-375906D02*
X130072Y-375906D01*
X130072Y-409906D01*
X148072Y-409906D01*
X148072Y-375906D01*
G54D13*
X129351Y-446649D02*
X111352Y-446648D01*
X111352Y-480648D01*
X129352Y-480648D01*
X129351Y-446649D01*
G54D13*
X147737Y-446718D02*
X129737Y-446718D01*
X129737Y-480718D01*
X147737Y-480718D01*
X147737Y-446718D01*
G54D13*
X61295Y-427517D02*
X61295Y-440518D01*
X71295Y-440517D01*
G54D13*
X81295Y-427517D02*
X73295Y-427517D01*
G54D13*
X412316Y-206904D02*
X430316Y-206904D01*
X430316Y-240904D01*
X412316Y-240904D01*
X412316Y-206904D01*
G54D13*
X464358Y-223007D02*
X464358Y-241007D01*
X430358Y-241007D01*
X430358Y-223007D01*
X464358Y-223007D01*
G54D13*
X394546Y-305833D02*
X394546Y-323833D01*
X360546Y-323833D01*
X360546Y-305833D01*
X394546Y-305833D01*
G54D13*
X525248Y-304662D02*
X507248Y-304662D01*
X507248Y-270662D01*
X525249Y-270662D01*
X525248Y-304662D01*
G54D13*
X476751Y-226238D02*
X496751Y-226238D01*
X496751Y-264238D01*
X476751Y-264238D01*
X476751Y-226238D01*
G54D13*
X488478Y-316628D02*
X488478Y-336628D01*
X450478Y-336628D01*
X450478Y-316628D01*
X488478Y-316628D01*
G54D13*
X497389Y-226238D02*
X517389Y-226238D01*
X517389Y-264238D01*
X497389Y-264238D01*
X497389Y-226238D01*
G54D13*
X394546Y-324090D02*
X394546Y-342090D01*
X360546Y-342090D01*
X360546Y-324089D01*
X394546Y-324090D01*
G54D13*
X492955Y-198769D02*
X474956Y-198768D01*
X474955Y-164769D01*
X492956Y-164768D01*
X492955Y-198769D01*
G54D13*
X162550Y-17654D02*
X162550Y-35654D01*
X128550Y-35654D01*
X128550Y-17654D01*
X162550Y-17654D01*
G54D13*
X129627Y-341796D02*
X111628Y-341796D01*
X111628Y-375796D01*
X129627Y-375796D01*
X129627Y-341796D01*
G54D13*
X129624Y-376098D02*
X111624Y-376097D01*
X111624Y-410097D01*
X129624Y-410098D01*
X129624Y-376098D01*
G54D13*
X129581Y-446194D02*
X129581Y-428195D01*
X95582Y-428195D01*
X95581Y-446195D01*
X129581Y-446194D01*
G54D13*
X147738Y-428338D02*
X147738Y-410338D01*
X113738Y-410338D01*
X113738Y-428338D01*
X147738Y-428338D01*
G54D13*
X156654Y-272281D02*
X143926Y-259553D01*
X119884Y-283595D01*
X132612Y-296323D01*
X156654Y-272281D01*
G54D13*
X93559Y-427607D02*
X111559Y-427608D01*
X111559Y-393608D01*
X93559Y-393607D01*
X93559Y-427607D01*
G54D13*
X93302Y-427523D02*
X93302Y-440523D01*
X83302Y-440523D01*
G54D13*
X395504Y-124922D02*
X409646Y-110780D01*
X436516Y-137650D01*
X422374Y-151792D01*
X395504Y-124922D01*
G54D13*
X45790Y-190161D02*
X45790Y-172161D01*
X79790Y-172161D01*
X79790Y-190161D01*
X45790Y-190161D01*
G54D13*
X759283Y-885691D02*
X759283Y-865690D01*
X708183Y-865691D01*
X708183Y-885691D01*
X759283Y-885691D01*
G54D13*
X759283Y-880691D02*
X759283Y-870691D01*
X754283Y-870690D01*
X754283Y-880691D01*
X759283Y-880691D01*
G54D13*
X263983Y-885691D02*
X263983Y-865690D01*
X212883Y-865691D01*
X212883Y-885691D01*
X263983Y-885691D01*
G54D13*
X263983Y-880691D02*
X263983Y-870691D01*
X258983Y-870690D01*
X258983Y-880691D01*
X263983Y-880691D01*
G54D13*
X429083Y-885691D02*
X429083Y-865690D01*
X377983Y-865691D01*
X377983Y-885691D01*
X429083Y-885691D01*
G54D13*
X429083Y-880691D02*
X429083Y-870691D01*
X424083Y-870690D01*
X424083Y-880691D01*
X429083Y-880691D01*
G54D13*
X924383Y-885691D02*
X924383Y-865690D01*
X873283Y-865691D01*
X873283Y-885691D01*
X924383Y-885691D01*
G54D13*
X924383Y-880691D02*
X924383Y-870691D01*
X919383Y-870690D01*
X919383Y-880691D01*
X924383Y-880691D01*
G54D13*
X594183Y-885691D02*
X594183Y-865690D01*
X543083Y-865691D01*
X543083Y-885691D01*
X594183Y-885691D01*
G54D13*
X594183Y-880691D02*
X594183Y-870691D01*
X589183Y-870690D01*
X589183Y-880691D01*
X594183Y-880691D01*
G54D13*
X98090Y-885691D02*
X98089Y-865690D01*
X46989Y-865691D01*
X46989Y-885691D01*
X98090Y-885691D01*
G54D13*
X98089Y-880691D02*
X98089Y-870691D01*
X93089Y-870690D01*
X93090Y-880691D01*
X98089Y-880691D01*
G54D13*
X924193Y-686147D02*
X924192Y-666147D01*
X873092Y-666147D01*
X873092Y-686147D01*
X924193Y-686147D01*
G54D13*
X924192Y-681147D02*
X924192Y-671147D01*
X919192Y-671147D01*
X919193Y-681147D01*
X924192Y-681147D01*
G54D13*
X758696Y-686941D02*
X758696Y-666940D01*
X707596Y-666941D01*
X707596Y-686941D01*
X758696Y-686941D01*
G54D13*
X758696Y-681941D02*
X758696Y-671941D01*
X753696Y-671940D01*
X753696Y-681941D01*
X758696Y-681941D01*
G54D13*
X758864Y-489547D02*
X758864Y-469547D01*
X707764Y-469547D01*
X707764Y-489547D01*
X758864Y-489547D01*
G54D13*
X758864Y-484547D02*
X758864Y-474547D01*
X753864Y-474547D01*
X753864Y-484547D01*
X758864Y-484547D01*
G54D13*
X925383Y-488900D02*
X925383Y-468900D01*
X874283Y-468900D01*
X874283Y-488900D01*
X925383Y-488900D01*
G54D13*
X925383Y-483900D02*
X925383Y-473900D01*
X920383Y-473900D01*
X920383Y-483900D01*
X925383Y-483900D01*
G54D13*
X924590Y-292844D02*
X924590Y-272844D01*
X873489Y-272844D01*
X873489Y-292844D01*
X924590Y-292844D01*
G54D13*
X924590Y-287844D02*
X924590Y-277844D01*
X919590Y-277844D01*
X919590Y-287844D01*
X924590Y-287844D01*
G54D13*
X760283Y-292050D02*
X760283Y-272050D01*
X709183Y-272050D01*
X709183Y-292050D01*
X760283Y-292050D01*
G54D13*
X760283Y-287050D02*
X760283Y-277050D01*
X755283Y-277050D01*
X755283Y-287050D01*
X760283Y-287050D01*
G54D13*
X584271Y-639498D02*
X584271Y-659498D01*
X635371Y-659498D01*
X635371Y-639498D01*
X584271Y-639498D01*
G54D13*
X584271Y-644498D02*
X584271Y-654498D01*
X589271Y-654498D01*
X589271Y-644498D01*
X584271Y-644498D01*
G54D13*
X576368Y-717265D02*
X576368Y-699265D01*
X610368Y-699265D01*
X610368Y-717265D01*
X576368Y-717265D01*
G54D13*
X584271Y-417248D02*
X584271Y-437248D01*
X635371Y-437248D01*
X635371Y-417248D01*
X584271Y-417248D01*
G54D13*
X584271Y-422248D02*
X584271Y-432248D01*
X589271Y-432248D01*
X589271Y-422248D01*
X584271Y-422248D01*
G54D13*
X576368Y-495015D02*
X576368Y-477015D01*
X610368Y-477015D01*
X610368Y-495015D01*
X576368Y-495015D01*
G54D13*
X584271Y-182298D02*
X584271Y-202298D01*
X635371Y-202298D01*
X635371Y-182298D01*
X584271Y-182298D01*
G54D13*
X584271Y-187298D02*
X584271Y-197298D01*
X589271Y-197298D01*
X589271Y-187298D01*
X584271Y-187298D01*
G54D13*
X576368Y-260065D02*
X576368Y-242065D01*
X610368Y-242065D01*
X610368Y-260065D01*
X576368Y-260065D01*
G54D13*
X924590Y-83294D02*
X924590Y-63294D01*
X873489Y-63294D01*
X873489Y-83294D01*
X924590Y-83294D01*
G54D13*
X924590Y-78294D02*
X924590Y-68294D01*
X919590Y-68294D01*
X919590Y-78294D01*
X924590Y-78294D01*
G54D13*
X759283Y-85591D02*
X759283Y-65590D01*
X708183Y-65591D01*
X708183Y-85591D01*
X759283Y-85591D01*
G54D13*
X759283Y-80591D02*
X759283Y-70591D01*
X754283Y-70590D01*
X754283Y-80591D01*
X759283Y-80591D01*
G54D13*
X412582Y-341358D02*
X394582Y-341358D01*
X394582Y-307358D01*
X412582Y-307358D01*
X412582Y-341358D01*
M02*
