%FSLAX34Y34*%
%MOMM*%
%LNCOPPER_BOTTOM*%
G71*
G01*
%ADD10C, 2.100*%
%ADD11C, 2.300*%
%ADD12C, 1.200*%
%ADD13R, 2.400X2.800*%
%ADD14R, 1.590X1.200*%
%ADD15C, 1.150*%
%ADD16R, 4.200X2.300*%
%ADD17C, 1.600*%
%ADD18C, 0.500*%
%ADD19R, 2.200X2.200*%
%ADD20R, 2.200X2.100*%
%ADD21C, 2.400*%
%ADD22C, 1.900*%
%ADD23C, 3.000*%
%ADD24R, 2.200X2.800*%
%ADD25R, 1.900X2.000*%
%ADD26C, 2.500*%
%ADD27C, 2.600*%
%ADD28R, 2.800X1.870*%
%ADD29R, 2.000X1.900*%
%ADD30R, 2.300X2.500*%
%ADD31C, 2.900*%
%ADD32C, 1.300*%
%ADD33R, 1.950X1.000*%
%ADD34R, 2.500X2.900*%
%ADD35C, 2.200*%
%ADD36C, 0.950*%
%ADD37C, 2.000*%
%ADD38C, 1.000*%
%ADD39C, 0.300*%
%ADD40C, 0.400*%
%ADD41C, 1.350*%
%ADD42C, 2.000*%
%ADD43C, 1.700*%
%ADD44C, 1.800*%
%ADD45R, 3.200X1.600*%
%ADD46C, 1.100*%
%ADD47R, 1.100X1.800*%
%ADD48C, 0.150*%
%ADD49R, 4.100X1.600*%
%ADD50R, 3.100X1.600*%
%ADD51C, 1.500*%
%ADD52C, 0.827*%
%ADD53C, 0.498*%
%ADD54C, 0.467*%
%ADD55C, 0.433*%
%ADD56C, 0.333*%
%ADD57C, 0.372*%
%ADD58C, 0.325*%
%ADD59C, 0.304*%
%ADD60C, 1.300*%
%ADD61C, 1.500*%
%ADD62R, 1.600X2.000*%
%ADD63R, 0.990X0.600*%
%ADD64C, 0.550*%
%ADD65R, 3.600X1.700*%
%ADD66C, 0.800*%
%ADD67R, 1.600X1.600*%
%ADD68R, 1.400X1.300*%
%ADD69R, 1.400X1.400*%
%ADD70C, 1.600*%
%ADD71C, 0.700*%
%ADD72R, 1.000X1.600*%
%ADD73R, 1.100X1.200*%
%ADD74C, 1.800*%
%ADD75R, 1.600X0.670*%
%ADD76R, 1.200X1.100*%
%ADD77R, 1.300X1.500*%
%ADD78C, 2.100*%
%ADD79R, 1.350X0.400*%
%ADD80R, 1.900X2.300*%
%ADD81C, 1.400*%
%ADD82C, 0.350*%
%ADD83C, 1.200*%
%ADD84C, 0.250*%
%ADD85C, 0.600*%
%ADD86C, 0.280*%
%ADD87C, 2.600*%
%ADD88R, 2.400X0.800*%
%ADD89R, 0.300X1.000*%
%ADD90R, 3.300X0.800*%
%ADD91R, 2.300X0.800*%
%ADD92C, 0.900*%
%ADD93C, 0.750*%
%LPD*%
G36*
X250Y50D02*
X1000250Y50D01*
X1000250Y-999950D01*
X250Y-999950D01*
X250Y50D01*
G37*
%LPC*%
X43918Y-654498D02*
G54D10*
D03*
X69418Y-654498D02*
G54D10*
D03*
X94918Y-654498D02*
G54D10*
D03*
X120418Y-654498D02*
G54D10*
D03*
X145917Y-654498D02*
G54D10*
D03*
X171417Y-654498D02*
G54D10*
D03*
X196917Y-654498D02*
G54D10*
D03*
X222417Y-654498D02*
G54D10*
D03*
X247917Y-654498D02*
G54D10*
D03*
X273417Y-654498D02*
G54D10*
D03*
X298917Y-654498D02*
G54D10*
D03*
X324417Y-654498D02*
G54D10*
D03*
X349917Y-654498D02*
G54D10*
D03*
X375417Y-654498D02*
G54D10*
D03*
X400917Y-654498D02*
G54D10*
D03*
X426417Y-654498D02*
G54D10*
D03*
X451917Y-654498D02*
G54D10*
D03*
X477417Y-654498D02*
G54D10*
D03*
X502917Y-654498D02*
G54D10*
D03*
X528417Y-654498D02*
G54D10*
D03*
X43918Y-612222D02*
G54D10*
D03*
X69418Y-612223D02*
G54D10*
D03*
X94918Y-612222D02*
G54D11*
D03*
X120417Y-612223D02*
G54D10*
D03*
X145917Y-612223D02*
G54D10*
D03*
X171417Y-612223D02*
G54D10*
D03*
X196917Y-612223D02*
G54D10*
D03*
X222417Y-612223D02*
G54D10*
D03*
X247917Y-612223D02*
G54D10*
D03*
X273417Y-612223D02*
G54D10*
D03*
X298917Y-612223D02*
G54D10*
D03*
X324417Y-612223D02*
G54D10*
D03*
X349917Y-612223D02*
G54D10*
D03*
X375417Y-612223D02*
G54D10*
D03*
X400917Y-612223D02*
G54D10*
D03*
X426417Y-612223D02*
G54D10*
D03*
X451917Y-612223D02*
G54D10*
D03*
X477417Y-612223D02*
G54D10*
D03*
X502918Y-612223D02*
G54D10*
D03*
X528418Y-612223D02*
G54D10*
D03*
X56667Y-632223D02*
G54D10*
D03*
X82168Y-632223D02*
G54D10*
D03*
X107668Y-632223D02*
G54D10*
D03*
X158667Y-632223D02*
G54D10*
D03*
X184167Y-632223D02*
G54D10*
D03*
X209667Y-632223D02*
G54D10*
D03*
X260667Y-632223D02*
G54D10*
D03*
X286167Y-632223D02*
G54D10*
D03*
X311667Y-632223D02*
G54D10*
D03*
X362667Y-632223D02*
G54D10*
D03*
X388167Y-632223D02*
G54D10*
D03*
X413667Y-632223D02*
G54D10*
D03*
X464668Y-632223D02*
G54D10*
D03*
X490168Y-632223D02*
G54D10*
D03*
X515668Y-632223D02*
G54D10*
D03*
X56668Y-592222D02*
G54D10*
D03*
X82168Y-592222D02*
G54D10*
D03*
X107668Y-592223D02*
G54D10*
D03*
X158667Y-592223D02*
G54D10*
D03*
X184167Y-592223D02*
G54D10*
D03*
X209667Y-592223D02*
G54D10*
D03*
X260667Y-592223D02*
G54D10*
D03*
X286167Y-592223D02*
G54D10*
D03*
X311667Y-592223D02*
G54D10*
D03*
X362667Y-592223D02*
G54D10*
D03*
X388167Y-592223D02*
G54D10*
D03*
X413667Y-592223D02*
G54D10*
D03*
X464668Y-592223D02*
G54D10*
D03*
X490168Y-592223D02*
G54D10*
D03*
X515668Y-592223D02*
G54D10*
D03*
G54D12*
X184167Y-592223D02*
X184167Y-577095D01*
G54D12*
X286167Y-592223D02*
X286167Y-577095D01*
G54D12*
X490168Y-592223D02*
X490168Y-577095D01*
G54D12*
X388167Y-592223D02*
X388167Y-577095D01*
G54D12*
X490168Y-577095D02*
X97295Y-577095D01*
X82167Y-592223D01*
X477554Y-335700D02*
G54D13*
D03*
X449563Y-335692D02*
G54D13*
D03*
X379037Y-290137D02*
G54D14*
D03*
X379039Y-299542D02*
G54D14*
D03*
X379037Y-309137D02*
G54D14*
D03*
X404937Y-309137D02*
G54D14*
D03*
X404937Y-290137D02*
G54D14*
D03*
G54D15*
X379037Y-309137D02*
X367777Y-309137D01*
X365638Y-306998D01*
X365638Y-293901D01*
X369402Y-290137D01*
X379037Y-290137D01*
X435158Y-310622D02*
G54D16*
D03*
X435158Y-287622D02*
G54D16*
D03*
G54D15*
X404937Y-290137D02*
X440977Y-290137D01*
X443095Y-288019D01*
G54D15*
X404937Y-309137D02*
X441213Y-309137D01*
X443095Y-311019D01*
G54D17*
X449554Y-381078D02*
X449558Y-345220D01*
G36*
X412158Y-290769D02*
X399458Y-290769D01*
X399458Y-309819D01*
X412158Y-309819D01*
X412158Y-290769D01*
G37*
G54D18*
X412158Y-290769D02*
X399458Y-290769D01*
X399458Y-309819D01*
X412158Y-309819D01*
X412158Y-290769D01*
X402986Y-333744D02*
G54D19*
D03*
X374986Y-333745D02*
G54D19*
D03*
X353264Y-335252D02*
G54D20*
D03*
X353266Y-316248D02*
G54D20*
D03*
X426587Y-238064D02*
G54D20*
D03*
X426587Y-259638D02*
G54D20*
D03*
X420668Y-330054D02*
G54D10*
D03*
X449555Y-381078D02*
G54D19*
D03*
X506125Y-343408D02*
G54D21*
D03*
X249238Y-355831D02*
G54D10*
D03*
X263530Y-348461D02*
G54D10*
D03*
X250806Y-371328D02*
G54D22*
D03*
X509408Y-490574D02*
G54D22*
D03*
G36*
X507462Y-548200D02*
X507462Y-512200D01*
X543462Y-512200D01*
X543462Y-548200D01*
X507462Y-548200D01*
G37*
X9585Y-137312D02*
G54D23*
D03*
X230250Y-53610D02*
G54D24*
D03*
X245330Y-53608D02*
G54D24*
D03*
X259617Y-53608D02*
G54D24*
D03*
X273905Y-53608D02*
G54D24*
D03*
X288192Y-53608D02*
G54D24*
D03*
X302483Y-53610D02*
G54D24*
D03*
X316768Y-53608D02*
G54D24*
D03*
X331055Y-53608D02*
G54D24*
D03*
X302483Y-73990D02*
G54D25*
D03*
X319483Y-73990D02*
G54D25*
D03*
G54D12*
X316768Y-53608D02*
X316768Y-73656D01*
X319483Y-76371D01*
X238522Y-342734D02*
G54D10*
D03*
X163918Y-534324D02*
G54D26*
D03*
X184562Y-534330D02*
G54D26*
D03*
X203612Y-534330D02*
G54D26*
D03*
X203610Y-421490D02*
G54D26*
D03*
G36*
X288628Y-511249D02*
X288628Y-547249D01*
X252628Y-547249D01*
X252628Y-511249D01*
X288628Y-511249D01*
G37*
X511025Y-186929D02*
G54D27*
D03*
X511022Y-161528D02*
G54D27*
D03*
X153325Y-47881D02*
G54D21*
D03*
X329715Y-455905D02*
G54D28*
D03*
X329715Y-468605D02*
G54D28*
D03*
X329715Y-481305D02*
G54D28*
D03*
X329715Y-494005D02*
G54D28*
D03*
X272716Y-494005D02*
G54D28*
D03*
X272715Y-481305D02*
G54D28*
D03*
X272715Y-468605D02*
G54D28*
D03*
X272715Y-455905D02*
G54D28*
D03*
X350183Y-479320D02*
G54D29*
D03*
X350183Y-496320D02*
G54D29*
D03*
X350183Y-455177D02*
G54D29*
D03*
X350183Y-472177D02*
G54D29*
D03*
X369149Y-492511D02*
G54D29*
D03*
X369149Y-475511D02*
G54D29*
D03*
X141684Y-436166D02*
G54D22*
D03*
X459978Y-529033D02*
G54D30*
D03*
X163922Y-421491D02*
G54D10*
D03*
X224246Y-421491D02*
G54D10*
D03*
X243296Y-421491D02*
G54D10*
D03*
G36*
X121799Y-368952D02*
X133114Y-357639D01*
X155739Y-380268D01*
X144425Y-391581D01*
X121799Y-368952D01*
G37*
G36*
X130779Y-359972D02*
X142093Y-348659D01*
X164719Y-371287D01*
X153405Y-382600D01*
X130779Y-359972D01*
G37*
G36*
X139759Y-350990D02*
X151075Y-339678D01*
X173699Y-362308D01*
X162384Y-373620D01*
X139759Y-350990D01*
G37*
G36*
X148739Y-342013D02*
X160052Y-330699D01*
X182681Y-353325D01*
X171368Y-364639D01*
X148739Y-342013D01*
G37*
G36*
X184094Y-377368D02*
X195408Y-366054D01*
X218036Y-388681D01*
X206722Y-399995D01*
X184094Y-377368D01*
G37*
G36*
X175114Y-386349D02*
X186427Y-375035D01*
X209056Y-397661D01*
X197742Y-408975D01*
X175114Y-386349D01*
G37*
G36*
X166134Y-395329D02*
X177447Y-384015D01*
X200075Y-406641D01*
X188762Y-417955D01*
X166134Y-395329D01*
G37*
G36*
X157154Y-404308D02*
X168468Y-392994D01*
X191095Y-415623D01*
X179781Y-426936D01*
X157154Y-404308D01*
G37*
X236065Y-513547D02*
G54D25*
D03*
X219063Y-513544D02*
G54D25*
D03*
X479818Y-529034D02*
G54D30*
D03*
X491924Y-460596D02*
G54D31*
D03*
X441124Y-485996D02*
G54D31*
D03*
X441123Y-435195D02*
G54D31*
D03*
X441123Y-409796D02*
G54D31*
D03*
X441124Y-511396D02*
G54D31*
D03*
G54D32*
X414136Y-485996D02*
X457024Y-485996D01*
X479818Y-508790D01*
X479818Y-530622D01*
X505398Y-233740D02*
G54D33*
D03*
X505398Y-240240D02*
G54D33*
D03*
X505398Y-246740D02*
G54D33*
D03*
X505398Y-253240D02*
G54D33*
D03*
X505398Y-259740D02*
G54D33*
D03*
X532148Y-284240D02*
G54D34*
D03*
X532148Y-209240D02*
G54D34*
D03*
X404823Y-219827D02*
G54D35*
D03*
X426587Y-199567D02*
G54D20*
D03*
X426587Y-221141D02*
G54D20*
D03*
X447225Y-227269D02*
G54D20*
D03*
X447225Y-248843D02*
G54D20*
D03*
X447225Y-188772D02*
G54D20*
D03*
X447224Y-210346D02*
G54D20*
D03*
G54D32*
X426588Y-238064D02*
X426587Y-221141D01*
G54D12*
X447225Y-227269D02*
X447224Y-210346D01*
G54D15*
X413530Y-209135D02*
X414734Y-210339D01*
X444368Y-210340D01*
G36*
X506402Y-223008D02*
X500992Y-228419D01*
X493314Y-228419D01*
X487902Y-223008D01*
X487902Y-215330D01*
X493314Y-209919D01*
X500992Y-209919D01*
X506402Y-215330D01*
X506402Y-223008D01*
G37*
G54D32*
X532148Y-209240D02*
X532148Y-284240D01*
G54D36*
X505398Y-253240D02*
X476216Y-253240D01*
X410162Y-250281D02*
G54D37*
D03*
G36*
X371052Y-395312D02*
X376610Y-400870D01*
X376610Y-408754D01*
X371052Y-414312D01*
X363168Y-414312D01*
X357610Y-408754D01*
X357610Y-400870D01*
X363168Y-395312D01*
X371052Y-395312D01*
G37*
G36*
X358352Y-382612D02*
X363910Y-388170D01*
X363910Y-396054D01*
X358352Y-401612D01*
X350468Y-401612D01*
X344910Y-396054D01*
X344910Y-388170D01*
X350468Y-382612D01*
X358352Y-382612D01*
G37*
G36*
X391022Y-413569D02*
X396580Y-419127D01*
X396580Y-427011D01*
X391022Y-432569D01*
X383138Y-432569D01*
X377580Y-427011D01*
X377580Y-419127D01*
X383138Y-413569D01*
X391022Y-413569D01*
G37*
G54D17*
X477550Y-367221D02*
X477554Y-345225D01*
G54D15*
X426588Y-238064D02*
X463489Y-238064D01*
X472165Y-246740D01*
X505398Y-246740D01*
G54D15*
X505398Y-240240D02*
X478762Y-240240D01*
X465791Y-227269D01*
X447225Y-227269D01*
X467862Y-188772D02*
G54D20*
D03*
X467862Y-210346D02*
G54D20*
D03*
G54D38*
X505398Y-233740D02*
X482580Y-233740D01*
X467862Y-219021D01*
X467862Y-210346D01*
G54D32*
X532148Y-209240D02*
X504515Y-209240D01*
X493316Y-198041D01*
X486172Y-198041D01*
X478888Y-190756D01*
X467862Y-190756D01*
G54D32*
X467862Y-189248D02*
X447225Y-189248D01*
X488322Y-280756D02*
G54D29*
D03*
X488322Y-263756D02*
G54D29*
D03*
X470066Y-280756D02*
G54D29*
D03*
X470066Y-263756D02*
G54D29*
D03*
G36*
X484750Y-257852D02*
X446034Y-257852D01*
X410162Y-250281D01*
X446034Y-228634D01*
X484750Y-228634D01*
X484750Y-257852D01*
G37*
G54D39*
X484750Y-257852D02*
X446034Y-257852D01*
X410162Y-250281D01*
X446034Y-228634D01*
X484750Y-228634D01*
X484750Y-257852D01*
G54D12*
X470066Y-280756D02*
X528664Y-280756D01*
X532148Y-284240D01*
G36*
X491312Y-233740D02*
X458379Y-233740D01*
X426587Y-221141D01*
X442066Y-183692D01*
X472220Y-184089D01*
X486172Y-198040D01*
X493316Y-198040D01*
X499752Y-204477D01*
X491312Y-233740D01*
G37*
G54D40*
X491312Y-233740D02*
X458379Y-233740D01*
X426587Y-221141D01*
X442066Y-183692D01*
X472220Y-184089D01*
X486172Y-198040D01*
X493316Y-198040D01*
X499752Y-204477D01*
X491312Y-233740D01*
X391353Y-233297D02*
G54D35*
D03*
G54D32*
X420668Y-330054D02*
X402192Y-330054D01*
G54D40*
X358378Y-202009D02*
X334152Y-226235D01*
X334152Y-351615D01*
X343694Y-361156D01*
X487780Y-361156D01*
X538242Y-310695D01*
X538242Y-202882D01*
X537369Y-202009D01*
X358378Y-202009D01*
G54D32*
X373002Y-337594D02*
X373002Y-327758D01*
X364270Y-319026D01*
X351678Y-319026D01*
G54D41*
X353662Y-317438D02*
X353662Y-305150D01*
X359172Y-299641D01*
X365125Y-299641D01*
G54D17*
X477554Y-335700D02*
X477554Y-325154D01*
X461832Y-309431D01*
X439524Y-309431D01*
G54D32*
X350183Y-456367D02*
X359133Y-456367D01*
X369149Y-466383D01*
X369149Y-475511D01*
G54D12*
X224246Y-421491D02*
X224246Y-418318D01*
X213519Y-407591D01*
X207670Y-407591D01*
X192085Y-392005D01*
G54D12*
X243296Y-421491D02*
X243296Y-418715D01*
X229790Y-405209D01*
X223250Y-405209D01*
X201065Y-383024D01*
G54D32*
X163922Y-421491D02*
X163922Y-420168D01*
X174124Y-409965D01*
X312562Y-530574D02*
G54D11*
D03*
X410961Y-485996D02*
G54D35*
D03*
X411113Y-511396D02*
G54D35*
D03*
X127071Y-161924D02*
G54D42*
D03*
X127068Y-176208D02*
G54D42*
D03*
G36*
X157777Y-153732D02*
X240327Y-153732D01*
X240327Y-185482D01*
X157777Y-185482D01*
X157777Y-153732D01*
G37*
G54D43*
X157777Y-153732D02*
X240327Y-153732D01*
X240327Y-185482D01*
X157777Y-185482D01*
X157777Y-153732D01*
G54D44*
X145218Y-175418D02*
X127071Y-175418D01*
G54D44*
X145218Y-162718D02*
X127071Y-162718D01*
X289846Y-440928D02*
G54D22*
D03*
X184562Y-513541D02*
G54D25*
D03*
X201564Y-513544D02*
G54D25*
D03*
G54D32*
X184562Y-534330D02*
X184562Y-511953D01*
G54D32*
X201564Y-513544D02*
X219062Y-513544D01*
X388144Y-147638D02*
G54D37*
D03*
X374566Y-160422D02*
G54D37*
D03*
X400844Y-159544D02*
G54D37*
D03*
X407988Y-174625D02*
G54D37*
D03*
X426640Y-163512D02*
G54D37*
D03*
G54D12*
G75*
G01X400644Y-147638D02*
G03X379305Y-138799I-12500J0D01*
G01*
G54D12*
X374566Y-160422D02*
X371788Y-157644D01*
X312822Y-157644D01*
X245330Y-90152D01*
X245330Y-53608D01*
G54D12*
X388144Y-147638D02*
X314722Y-147241D01*
X259618Y-92136D01*
X259618Y-53608D01*
G54D12*
X400644Y-147638D02*
X400644Y-159344D01*
X400844Y-159544D01*
G54D12*
X379305Y-138799D02*
X318980Y-138799D01*
X273905Y-93724D01*
X273905Y-53608D01*
G54D12*
G75*
G01X408782Y-147638D02*
G03X377825Y-129764I-20638J0D01*
G01*
G54D12*
X377825Y-129764D02*
X321899Y-129764D01*
X288192Y-96058D01*
X288192Y-53608D01*
G54D12*
X407988Y-174625D02*
X413940Y-168672D01*
X413940Y-152796D01*
X408782Y-147638D01*
G54D12*
G75*
G01X413530Y-209135D02*
G03X392509Y-217842I-8707J-8707D01*
G01*
G54D12*
X392509Y-217842D02*
X392509Y-232141D01*
X391353Y-233297D01*
X269630Y-259627D02*
G54D45*
D03*
X269630Y-272327D02*
G54D45*
D03*
X269630Y-285027D02*
G54D45*
D03*
X269630Y-297727D02*
G54D45*
D03*
X219630Y-297727D02*
G54D45*
D03*
X219630Y-285027D02*
G54D45*
D03*
X219630Y-272327D02*
G54D45*
D03*
X219630Y-259627D02*
G54D45*
D03*
G54D12*
X219630Y-259627D02*
X219630Y-272327D01*
G54D12*
G75*
G01X416061Y-140170D02*
G03X380604Y-119699I-27964J-7492D01*
G01*
G54D12*
X331055Y-53608D02*
X331055Y-101661D01*
X349093Y-119699D01*
X380604Y-119699D01*
G54D38*
X426640Y-163512D02*
X426640Y-150750D01*
X416060Y-140170D01*
G36*
X230250Y-53610D02*
X230250Y-88169D01*
X288192Y-96058D01*
X288192Y-53608D01*
X230250Y-53610D01*
G37*
G54D40*
X230250Y-53610D02*
X230250Y-88169D01*
X288192Y-96058D01*
X288192Y-53608D01*
X230250Y-53610D01*
G36*
X423862Y-159941D02*
X406003Y-159941D01*
X406003Y-150019D01*
X423862Y-150019D01*
X423862Y-159941D01*
G37*
G54D40*
X423862Y-159941D02*
X406003Y-159941D01*
X406003Y-150019D01*
X423862Y-150019D01*
X423862Y-159941D01*
G54D46*
X426587Y-259638D02*
X436430Y-259638D01*
X447224Y-248843D01*
G54D46*
X447225Y-188772D02*
X437382Y-188772D01*
X426587Y-199567D01*
G36*
X488322Y-280875D02*
X527050Y-280875D01*
X527050Y-288250D01*
X488322Y-288250D01*
X488322Y-280875D01*
G37*
G54D40*
X488322Y-280875D02*
X527050Y-280875D01*
X527050Y-288250D01*
X488322Y-288250D01*
X488322Y-280875D01*
G54D32*
X426587Y-259638D02*
X419519Y-259638D01*
X410162Y-250281D01*
X330152Y-530574D02*
G54D25*
D03*
X347152Y-530574D02*
G54D25*
D03*
G54D32*
X312562Y-530574D02*
X330152Y-530574D01*
G54D12*
X238522Y-342734D02*
X238522Y-266303D01*
X244475Y-260350D01*
G54D12*
X270424Y-259627D02*
X245198Y-259627D01*
X244475Y-260350D01*
G54D12*
X225186Y-349011D02*
X233216Y-357041D01*
X248027Y-357041D01*
X249238Y-355831D01*
G54D12*
X263530Y-348461D02*
X248840Y-333772D01*
X248840Y-280591D01*
X257104Y-272327D01*
X269630Y-272327D01*
G54D12*
X338666Y-402034D02*
X289719Y-402034D01*
X259013Y-371328D01*
X250408Y-371328D01*
G54D12*
X367110Y-404812D02*
X367110Y-386556D01*
X360760Y-380206D01*
X346671Y-380206D01*
X344587Y-382290D01*
X297359Y-382290D01*
X263530Y-348461D01*
G54D12*
X354410Y-392112D02*
X294481Y-392112D01*
X265112Y-362744D01*
X249238Y-355831D01*
G36*
X195985Y-285027D02*
X189309Y-302816D01*
X250806Y-371328D01*
X263530Y-348461D01*
X248840Y-333772D01*
X248840Y-313928D01*
X231775Y-296862D01*
X195985Y-285027D01*
G37*
G54D40*
X195985Y-285027D02*
X189309Y-302816D01*
X250806Y-371328D01*
X263530Y-348461D01*
X248840Y-333772D01*
X248840Y-313928D01*
X231775Y-296862D01*
X195985Y-285027D01*
G36*
X220662Y-246856D02*
X269630Y-246856D01*
X269630Y-285027D01*
X220662Y-285027D01*
X220662Y-246856D01*
G37*
G54D40*
X220662Y-246856D02*
X269630Y-246856D01*
X269630Y-285027D01*
X220662Y-285027D01*
X220662Y-246856D01*
G54D32*
X230250Y-77454D02*
X230250Y-88169D01*
X269478Y-127397D01*
G54D17*
X470628Y-357704D02*
X491830Y-357704D01*
X506125Y-343408D01*
G54D12*
X338666Y-402034D02*
X345678Y-402034D01*
X361950Y-418306D01*
X382318Y-418306D01*
X387080Y-423069D01*
G36*
X354410Y-392112D02*
X367110Y-392112D01*
X367110Y-404812D01*
X354410Y-404812D01*
X354410Y-392112D01*
G37*
G54D40*
X354410Y-392112D02*
X367110Y-392112D01*
X367110Y-404812D01*
X354410Y-404812D01*
X354410Y-392112D01*
G54D32*
X411113Y-511396D02*
X376921Y-511396D01*
X369149Y-503624D01*
X369149Y-492511D01*
X223988Y-449418D02*
G54D29*
D03*
X223991Y-432416D02*
G54D29*
D03*
X243038Y-449418D02*
G54D29*
D03*
X243041Y-432416D02*
G54D29*
D03*
G54D32*
X241847Y-449418D02*
X191848Y-449418D01*
X163922Y-421491D01*
G54D12*
X329715Y-455905D02*
X349720Y-455905D01*
X350183Y-456367D01*
G54D12*
X329715Y-468605D02*
X345420Y-468605D01*
X350183Y-473367D01*
G54D12*
X329715Y-494005D02*
X346677Y-494005D01*
X350183Y-497511D01*
G54D12*
X329716Y-481305D02*
X317604Y-481305D01*
X293688Y-505222D01*
X244390Y-505222D01*
X236064Y-513547D01*
G54D12*
X244563Y-504544D02*
X237700Y-497681D01*
G54D32*
X273906Y-455905D02*
X274868Y-455905D01*
X289846Y-440928D01*
G54D32*
X272716Y-455905D02*
X249526Y-455905D01*
X243038Y-449418D01*
G54D12*
X237700Y-497681D02*
X203200Y-497681D01*
X141684Y-436166D01*
G54D32*
X289846Y-440928D02*
X292227Y-443309D01*
X362744Y-443309D01*
X373460Y-454025D01*
X459978Y-454025D01*
X477550Y-436453D01*
X477550Y-367221D01*
G36*
X445318Y-347704D02*
X464318Y-347703D01*
X464319Y-367703D01*
X445319Y-367704D01*
X445318Y-347704D01*
G37*
X471819Y-357703D02*
G54D25*
D03*
X399897Y-53562D02*
G54D47*
D03*
X404897Y-53562D02*
G54D47*
D03*
X409897Y-53562D02*
G54D47*
D03*
X414897Y-53562D02*
G54D47*
D03*
X419897Y-53562D02*
G54D47*
D03*
X424897Y-53562D02*
G54D47*
D03*
X429897Y-53562D02*
G54D47*
D03*
X434897Y-53562D02*
G54D47*
D03*
G54D12*
G75*
G01X103404Y-603736D02*
G03X86433Y-603736I-8486J-8486D01*
G01*
G54D12*
G75*
G01X120417Y-600224D02*
G03X111932Y-603738I0J-12000D01*
G01*
G54D12*
X103404Y-603736D02*
X111932Y-603738D01*
G54D12*
G75*
G01X77903Y-603738D02*
G03X66311Y-600632I-8486J-8486D01*
G01*
G54D12*
X77902Y-603738D02*
X86433Y-603736D01*
G54D12*
G75*
G01X86433Y-620707D02*
G03X103404Y-620707I8485J8485D01*
G01*
G54D12*
G75*
G01X111932Y-620705D02*
G03X128903Y-620705I8485J8485D01*
G01*
G54D12*
X103404Y-620707D02*
X111932Y-620705D01*
G54D12*
G75*
G01X59025Y-618220D02*
G03X77903Y-620705I10392J6000D01*
G01*
G54D12*
X77902Y-620705D02*
X86433Y-620707D01*
G54D12*
X66312Y-600632D02*
X65078Y-600632D01*
X56668Y-592222D01*
G54D12*
X120417Y-600224D02*
X150667Y-600224D01*
X158667Y-592223D01*
G54D12*
G75*
G01X205403Y-603738D02*
G03X188432Y-603738I-8485J-8485D01*
G01*
G54D12*
G75*
G01X222417Y-600225D02*
G03X213931Y-603740I0J-12000D01*
G01*
G54D12*
X205403Y-603738D02*
X213932Y-603740D01*
G54D12*
G75*
G01X179902Y-603740D02*
G03X168311Y-600634I-8485J-8485D01*
G01*
G54D12*
X179902Y-603740D02*
X188432Y-603738D01*
G54D12*
X168311Y-600634D02*
X167078Y-600634D01*
X158667Y-592223D01*
G54D12*
X222417Y-600225D02*
X252666Y-600225D01*
X260667Y-592225D01*
G54D12*
G75*
G01X307403Y-603738D02*
G03X290432Y-603738I-8485J-8485D01*
G01*
G54D12*
G75*
G01X324417Y-600225D02*
G03X315931Y-603740I0J-12000D01*
G01*
G54D12*
X307403Y-603738D02*
X315932Y-603740D01*
G54D12*
G75*
G01X281902Y-603740D02*
G03X270311Y-600634I-8485J-8485D01*
G01*
G54D12*
X281902Y-603740D02*
X290432Y-603738D01*
G54D12*
X270311Y-600634D02*
X269078Y-600634D01*
X260667Y-592223D01*
G54D12*
X324417Y-600225D02*
X354666Y-600225D01*
X362667Y-592225D01*
G54D12*
G75*
G01X409403Y-603738D02*
G03X392432Y-603738I-8485J-8485D01*
G01*
G54D12*
G75*
G01X426417Y-600225D02*
G03X417931Y-603740I0J-12000D01*
G01*
G54D12*
X409403Y-603738D02*
X417932Y-603740D01*
G54D12*
G75*
G01X383902Y-603740D02*
G03X372311Y-600634I-8485J-8485D01*
G01*
G54D12*
X383902Y-603740D02*
X392432Y-603738D01*
G54D12*
X372311Y-600634D02*
X371078Y-600634D01*
X362667Y-592223D01*
G54D12*
X426417Y-600225D02*
X456666Y-600225D01*
X464667Y-592225D01*
G54D12*
X128902Y-620705D02*
X137436Y-620705D01*
X145917Y-612223D01*
G54D12*
X59025Y-618220D02*
X49916Y-618220D01*
X43918Y-612222D01*
G54D12*
G75*
G01X188432Y-620708D02*
G03X205403Y-620708I8486J8485D01*
G01*
G54D12*
G75*
G01X213931Y-620706D02*
G03X230902Y-620706I8486J8485D01*
G01*
G54D12*
X205403Y-620708D02*
X213932Y-620706D01*
G54D12*
G75*
G01X161024Y-618221D02*
G03X179902Y-620706I10393J6000D01*
G01*
G54D12*
X179902Y-620706D02*
X188432Y-620708D01*
G54D12*
X230902Y-620706D02*
X239435Y-620706D01*
X247917Y-612225D01*
G54D12*
X161024Y-618221D02*
X151915Y-618221D01*
X145917Y-612223D01*
G54D12*
G75*
G01X290432Y-620708D02*
G03X307403Y-620708I8486J8485D01*
G01*
G54D12*
G75*
G01X315931Y-620706D02*
G03X332902Y-620706I8486J8485D01*
G01*
G54D12*
X307403Y-620708D02*
X315932Y-620706D01*
G54D12*
G75*
G01X263024Y-618221D02*
G03X281902Y-620706I10393J6000D01*
G01*
G54D12*
X281902Y-620706D02*
X290432Y-620708D01*
G54D12*
X332902Y-620706D02*
X341435Y-620706D01*
X349917Y-612225D01*
G54D12*
X263024Y-618221D02*
X253915Y-618221D01*
X247917Y-612223D01*
G54D12*
G75*
G01X392432Y-620708D02*
G03X409403Y-620708I8486J8485D01*
G01*
G54D12*
G75*
G01X417931Y-620706D02*
G03X434902Y-620706I8486J8485D01*
G01*
G54D12*
X409403Y-620708D02*
X417932Y-620706D01*
G54D12*
G75*
G01X365024Y-618221D02*
G03X383902Y-620706I10393J6000D01*
G01*
G54D12*
X383902Y-620706D02*
X392432Y-620708D01*
G54D12*
X434902Y-620706D02*
X443435Y-620706D01*
X451917Y-612225D01*
G54D12*
X365024Y-618221D02*
X355915Y-618221D01*
X349917Y-612223D01*
G54D32*
X230250Y-53610D02*
X230250Y-77454D01*
G54D32*
X230250Y-53610D02*
X159053Y-53610D01*
X153325Y-47881D01*
G54D46*
X426587Y-221141D02*
X406137Y-221141D01*
X404823Y-219827D01*
X459978Y-529033D02*
G54D30*
D03*
X479818Y-529034D02*
G54D30*
D03*
G54D32*
X410961Y-485996D02*
X457024Y-485996D01*
X479818Y-508790D01*
X479818Y-530622D01*
G54D32*
X269478Y-246062D02*
X269478Y-127397D01*
G54D12*
X467862Y-210346D02*
X488329Y-210346D01*
X497152Y-219169D01*
X243307Y-534324D02*
G54D11*
D03*
X509408Y-510574D02*
G54D22*
D03*
G54D12*
X225186Y-349011D02*
X225186Y-303284D01*
X219630Y-297727D01*
G54D12*
X250408Y-371328D02*
X248027Y-368947D01*
X231423Y-368947D01*
X216694Y-354218D01*
X216694Y-330200D01*
X189309Y-302816D01*
X189309Y-291703D01*
X195985Y-285027D01*
X208518Y-285027D01*
G54D17*
X509408Y-510574D02*
X519703Y-510574D01*
X525464Y-516335D01*
X525463Y-530201D01*
G54D17*
X243307Y-534324D02*
X265552Y-534324D01*
X270628Y-529249D01*
G36*
X243307Y-534324D02*
X262334Y-534324D01*
X262334Y-506412D01*
X243307Y-506412D01*
X243307Y-534324D01*
G37*
G54D48*
X243307Y-534324D02*
X262334Y-534324D01*
X262334Y-506412D01*
X243307Y-506412D01*
X243307Y-534324D01*
X274393Y-259627D02*
G54D49*
D03*
X219630Y-259627D02*
G54D50*
D03*
X274393Y-272327D02*
G54D49*
D03*
X274393Y-285027D02*
G54D49*
D03*
X274393Y-297727D02*
G54D49*
D03*
X214868Y-297727D02*
G54D49*
D03*
X214868Y-285027D02*
G54D49*
D03*
X214868Y-272327D02*
G54D49*
D03*
X214868Y-259627D02*
G54D49*
D03*
G54D12*
X219630Y-259627D02*
X219630Y-247888D01*
X220662Y-246856D01*
X293291Y-246856D01*
X296862Y-250428D01*
X296862Y-282178D01*
X294410Y-285027D01*
X278361Y-285027D01*
X43918Y-781498D02*
G54D10*
D03*
X69418Y-781498D02*
G54D10*
D03*
X94918Y-781498D02*
G54D10*
D03*
X120418Y-781498D02*
G54D10*
D03*
X145917Y-781498D02*
G54D10*
D03*
X171417Y-781498D02*
G54D10*
D03*
X196917Y-781498D02*
G54D10*
D03*
X222417Y-781498D02*
G54D10*
D03*
X247917Y-781498D02*
G54D10*
D03*
X273417Y-781498D02*
G54D10*
D03*
X298917Y-781498D02*
G54D10*
D03*
X324417Y-781498D02*
G54D10*
D03*
X349917Y-781498D02*
G54D10*
D03*
X375417Y-781498D02*
G54D10*
D03*
X400917Y-781498D02*
G54D10*
D03*
X426417Y-781498D02*
G54D10*
D03*
X451917Y-781498D02*
G54D10*
D03*
X477417Y-781498D02*
G54D10*
D03*
X502917Y-781498D02*
G54D10*
D03*
X528417Y-781498D02*
G54D10*
D03*
X43918Y-739222D02*
G54D10*
D03*
X69418Y-739223D02*
G54D10*
D03*
X94918Y-739222D02*
G54D11*
D03*
X120417Y-739223D02*
G54D10*
D03*
X145917Y-739223D02*
G54D10*
D03*
X171417Y-739223D02*
G54D10*
D03*
X196917Y-739223D02*
G54D10*
D03*
X222417Y-739223D02*
G54D10*
D03*
X247917Y-739223D02*
G54D10*
D03*
X273417Y-739223D02*
G54D10*
D03*
X298917Y-739223D02*
G54D10*
D03*
X324417Y-739223D02*
G54D10*
D03*
X349917Y-739223D02*
G54D10*
D03*
X375417Y-739223D02*
G54D10*
D03*
X400917Y-739223D02*
G54D10*
D03*
X426417Y-739223D02*
G54D10*
D03*
X451917Y-739223D02*
G54D10*
D03*
X477417Y-739223D02*
G54D10*
D03*
X502918Y-739223D02*
G54D10*
D03*
X528418Y-739223D02*
G54D10*
D03*
X56667Y-759223D02*
G54D10*
D03*
X82168Y-759223D02*
G54D10*
D03*
X107668Y-759223D02*
G54D10*
D03*
X158667Y-759223D02*
G54D10*
D03*
X184167Y-759223D02*
G54D10*
D03*
X209667Y-759223D02*
G54D10*
D03*
X260667Y-759223D02*
G54D10*
D03*
X286167Y-759223D02*
G54D10*
D03*
X311667Y-759223D02*
G54D10*
D03*
X362667Y-759223D02*
G54D10*
D03*
X388167Y-759223D02*
G54D10*
D03*
X413667Y-759223D02*
G54D10*
D03*
X464668Y-759223D02*
G54D10*
D03*
X490168Y-759223D02*
G54D10*
D03*
X515668Y-759223D02*
G54D10*
D03*
X56668Y-719222D02*
G54D10*
D03*
X82168Y-719222D02*
G54D10*
D03*
X107668Y-719223D02*
G54D10*
D03*
X158667Y-719223D02*
G54D10*
D03*
X184167Y-719223D02*
G54D10*
D03*
X209667Y-719223D02*
G54D10*
D03*
X260667Y-719223D02*
G54D10*
D03*
X286167Y-719223D02*
G54D10*
D03*
X311667Y-719223D02*
G54D10*
D03*
X362667Y-719223D02*
G54D10*
D03*
X388167Y-719223D02*
G54D10*
D03*
X413667Y-719223D02*
G54D10*
D03*
X464668Y-719223D02*
G54D10*
D03*
X490168Y-719223D02*
G54D10*
D03*
X515668Y-719223D02*
G54D10*
D03*
G54D12*
X184167Y-719223D02*
X184167Y-704095D01*
G54D12*
X286167Y-719223D02*
X286167Y-704095D01*
G54D12*
X490168Y-719223D02*
X490168Y-704095D01*
G54D12*
X388167Y-719223D02*
X388167Y-704095D01*
G54D12*
X490168Y-704095D02*
X97295Y-704095D01*
X82167Y-719223D01*
G54D12*
G75*
G01X103404Y-730736D02*
G03X86433Y-730736I-8486J-8486D01*
G01*
G54D12*
G75*
G01X120417Y-727224D02*
G03X111932Y-730738I0J-12000D01*
G01*
G54D12*
X103404Y-730736D02*
X111932Y-730738D01*
G54D12*
G75*
G01X77903Y-730738D02*
G03X66311Y-727632I-8486J-8486D01*
G01*
G54D12*
X77902Y-730738D02*
X86433Y-730736D01*
G54D12*
G75*
G01X86433Y-747707D02*
G03X103404Y-747707I8485J8485D01*
G01*
G54D12*
G75*
G01X111932Y-747705D02*
G03X128903Y-747705I8485J8485D01*
G01*
G54D12*
X103404Y-747707D02*
X111932Y-747705D01*
G54D12*
G75*
G01X59025Y-745220D02*
G03X77903Y-747705I10392J6000D01*
G01*
G54D12*
X77902Y-747705D02*
X86433Y-747707D01*
G54D12*
X66312Y-727632D02*
X65078Y-727632D01*
X56668Y-719222D01*
G54D12*
X120417Y-727224D02*
X150667Y-727224D01*
X158667Y-719223D01*
G54D12*
G75*
G01X205403Y-730738D02*
G03X188432Y-730738I-8485J-8485D01*
G01*
G54D12*
G75*
G01X222417Y-727225D02*
G03X213931Y-730740I0J-12000D01*
G01*
G54D12*
X205403Y-730738D02*
X213932Y-730740D01*
G54D12*
G75*
G01X179902Y-730740D02*
G03X168311Y-727634I-8485J-8485D01*
G01*
G54D12*
X179902Y-730740D02*
X188432Y-730738D01*
G54D12*
X168311Y-727634D02*
X167078Y-727634D01*
X158667Y-719223D01*
G54D12*
X222417Y-727225D02*
X252666Y-727225D01*
X260667Y-719225D01*
G54D12*
G75*
G01X307403Y-730738D02*
G03X290432Y-730738I-8485J-8485D01*
G01*
G54D12*
G75*
G01X324417Y-727225D02*
G03X315931Y-730740I0J-12000D01*
G01*
G54D12*
X307403Y-730738D02*
X315932Y-730740D01*
G54D12*
G75*
G01X281902Y-730740D02*
G03X270311Y-727634I-8485J-8485D01*
G01*
G54D12*
X281902Y-730740D02*
X290432Y-730738D01*
G54D12*
X270311Y-727634D02*
X269078Y-727634D01*
X260667Y-719223D01*
G54D12*
X324417Y-727225D02*
X354666Y-727225D01*
X362667Y-719225D01*
G54D12*
G75*
G01X409403Y-730738D02*
G03X392432Y-730738I-8485J-8485D01*
G01*
G54D12*
G75*
G01X426417Y-727225D02*
G03X417931Y-730740I0J-12000D01*
G01*
G54D12*
X409403Y-730738D02*
X417932Y-730740D01*
G54D12*
G75*
G01X383902Y-730740D02*
G03X372311Y-727634I-8485J-8485D01*
G01*
G54D12*
X383902Y-730740D02*
X392432Y-730738D01*
G54D12*
X372311Y-727634D02*
X371078Y-727634D01*
X362667Y-719223D01*
G54D12*
X426417Y-727225D02*
X456666Y-727225D01*
X464667Y-719225D01*
G54D12*
X128903Y-747705D02*
X137436Y-747705D01*
X145917Y-739223D01*
G54D12*
X59025Y-745220D02*
X49916Y-745220D01*
X43918Y-739222D01*
G54D12*
G75*
G01X188432Y-747708D02*
G03X205403Y-747708I8486J8485D01*
G01*
G54D12*
G75*
G01X213931Y-747706D02*
G03X230902Y-747706I8486J8485D01*
G01*
G54D12*
X205403Y-747708D02*
X213932Y-747706D01*
G54D12*
G75*
G01X161024Y-745221D02*
G03X179902Y-747706I10393J6000D01*
G01*
G54D12*
X179902Y-747706D02*
X188432Y-747708D01*
G54D12*
X230902Y-747706D02*
X239435Y-747706D01*
X247917Y-739225D01*
G54D12*
X161024Y-745221D02*
X151915Y-745221D01*
X145917Y-739223D01*
G54D12*
G75*
G01X290432Y-747708D02*
G03X307403Y-747708I8486J8485D01*
G01*
G54D12*
G75*
G01X315931Y-747706D02*
G03X332902Y-747706I8486J8485D01*
G01*
G54D12*
X307403Y-747708D02*
X315932Y-747706D01*
G54D12*
G75*
G01X263024Y-745221D02*
G03X281902Y-747706I10393J6000D01*
G01*
G54D12*
X281902Y-747706D02*
X290432Y-747708D01*
G54D12*
X332902Y-747706D02*
X341435Y-747706D01*
X349917Y-739225D01*
G54D12*
X263024Y-745221D02*
X253915Y-745221D01*
X247917Y-739223D01*
G54D12*
G75*
G01X392432Y-747708D02*
G03X409403Y-747708I8486J8485D01*
G01*
G54D12*
G75*
G01X417931Y-747706D02*
G03X434902Y-747706I8486J8485D01*
G01*
G54D12*
X409403Y-747708D02*
X417932Y-747706D01*
G54D12*
G75*
G01X365024Y-745221D02*
G03X383902Y-747706I10393J6000D01*
G01*
G54D12*
X383902Y-747706D02*
X392432Y-747708D01*
G54D12*
X434902Y-747706D02*
X443435Y-747706D01*
X451917Y-739225D01*
G54D12*
X365024Y-745221D02*
X355915Y-745221D01*
X349917Y-739223D01*
X752283Y-919292D02*
G54D51*
D03*
X256983Y-919292D02*
G54D51*
D03*
X422083Y-919292D02*
G54D51*
D03*
X917383Y-919292D02*
G54D51*
D03*
X91089Y-919292D02*
G54D51*
D03*
X587183Y-919292D02*
G54D51*
D03*
G36*
X21184Y-997110D02*
X21184Y-932110D01*
X160634Y-932110D01*
X160634Y-997110D01*
X21184Y-997110D01*
G37*
G36*
X187078Y-997110D02*
X187078Y-932110D01*
X326528Y-932110D01*
X326528Y-997110D01*
X187078Y-997110D01*
G37*
G36*
X352178Y-997110D02*
X352178Y-932110D01*
X491628Y-932110D01*
X491628Y-997110D01*
X352178Y-997110D01*
G37*
G36*
X517278Y-997110D02*
X517278Y-932110D01*
X656728Y-932110D01*
X656728Y-997110D01*
X517278Y-997110D01*
G37*
G36*
X682378Y-997110D02*
X682378Y-932110D01*
X821828Y-932110D01*
X821828Y-997110D01*
X682378Y-997110D01*
G37*
G36*
X847478Y-997110D02*
X847478Y-932110D01*
X986928Y-932110D01*
X986928Y-997110D01*
X847478Y-997110D01*
G37*
G54D39*
X7541Y-817562D02*
X1001712Y-817562D01*
G54D39*
X7541Y-691356D02*
X558800Y-691356D01*
X917192Y-719748D02*
G54D51*
D03*
X751696Y-720542D02*
G54D51*
D03*
G36*
X847287Y-797566D02*
X847287Y-732566D01*
X986737Y-732566D01*
X986737Y-797566D01*
X847287Y-797566D01*
G37*
G36*
X681790Y-798359D02*
X681790Y-733359D01*
X821240Y-733359D01*
X821240Y-798359D01*
X681790Y-798359D01*
G37*
X751864Y-523148D02*
G54D51*
D03*
X918383Y-522501D02*
G54D51*
D03*
G36*
X848478Y-600319D02*
X848478Y-535319D01*
X987928Y-535319D01*
X987928Y-600319D01*
X848478Y-600319D01*
G37*
G36*
X681959Y-600966D02*
X681959Y-535966D01*
X821409Y-535966D01*
X821409Y-600966D01*
X681959Y-600966D01*
G37*
X917589Y-326444D02*
G54D51*
D03*
X753283Y-325651D02*
G54D51*
D03*
G36*
X847684Y-404262D02*
X847684Y-339262D01*
X987134Y-339262D01*
X987134Y-404262D01*
X847684Y-404262D01*
G37*
G36*
X683378Y-403469D02*
X683378Y-338469D01*
X822828Y-338469D01*
X822828Y-403469D01*
X683378Y-403469D01*
G37*
G36*
X571458Y-802668D02*
X571458Y-724968D01*
X660108Y-724968D01*
X660108Y-802668D01*
X571458Y-802668D01*
G37*
G36*
X571458Y-580418D02*
X571458Y-502718D01*
X660108Y-502718D01*
X660108Y-580418D01*
X571458Y-580418D01*
G37*
G36*
X571458Y-345468D02*
X571458Y-267768D01*
X660108Y-267768D01*
X660108Y-345468D01*
X571458Y-345468D01*
G37*
X917589Y-116894D02*
G54D51*
D03*
G36*
X847684Y-194712D02*
X847684Y-129712D01*
X987134Y-129712D01*
X987134Y-194712D01*
X847684Y-194712D01*
G37*
X752283Y-119191D02*
G54D51*
D03*
G36*
X682378Y-197009D02*
X682378Y-132009D01*
X821828Y-132009D01*
X821828Y-197009D01*
X682378Y-197009D01*
G37*
%LPD*%
G54D52*
G36*
X449563Y-339826D02*
X437063Y-339826D01*
X437063Y-331560D01*
X449563Y-331559D01*
X449563Y-339826D01*
G37*
G36*
X449563Y-331559D02*
X462063Y-331558D01*
X462063Y-339825D01*
X449563Y-339826D01*
X449563Y-331559D01*
G37*
G54D53*
G36*
X353264Y-337744D02*
X341764Y-337744D01*
X341764Y-332761D01*
X353264Y-332761D01*
X353264Y-337744D01*
G37*
G36*
X355755Y-335252D02*
X355755Y-346252D01*
X350772Y-346252D01*
X350772Y-335252D01*
X355755Y-335252D01*
G37*
G54D54*
G36*
X449555Y-378744D02*
X461055Y-378745D01*
X461055Y-383412D01*
X449555Y-383411D01*
X449555Y-378744D01*
G37*
G36*
X451888Y-381078D02*
X451888Y-392578D01*
X447221Y-392578D01*
X447221Y-381078D01*
X451888Y-381078D01*
G37*
G36*
X449555Y-383411D02*
X438055Y-383411D01*
X438055Y-378744D01*
X449555Y-378744D01*
X449555Y-383411D01*
G37*
G36*
X447221Y-381078D02*
X447221Y-369578D01*
X451888Y-369578D01*
X451888Y-381078D01*
X447221Y-381078D01*
G37*
G54D55*
G36*
X509408Y-488408D02*
X519408Y-488408D01*
X519408Y-492741D01*
X509408Y-492741D01*
X509408Y-488408D01*
G37*
G36*
X509408Y-492741D02*
X499408Y-492741D01*
X499408Y-488408D01*
X509408Y-488408D01*
X509408Y-492741D01*
G37*
G54D56*
G36*
X304149Y-53610D02*
X304150Y-68110D01*
X300817Y-68110D01*
X300816Y-53610D01*
X304149Y-53610D01*
G37*
G36*
X300816Y-53610D02*
X300816Y-39110D01*
X304149Y-39110D01*
X304149Y-53610D01*
X300816Y-53610D01*
G37*
G54D18*
G36*
X161418Y-534324D02*
X161418Y-521324D01*
X166418Y-521324D01*
X166418Y-534324D01*
X161418Y-534324D01*
G37*
G36*
X166418Y-534324D02*
X166418Y-547324D01*
X161418Y-547324D01*
X161418Y-534324D01*
X166418Y-534324D01*
G37*
G54D57*
G36*
X511025Y-188789D02*
X497525Y-188789D01*
X497525Y-185069D01*
X511025Y-185069D01*
X511025Y-188789D01*
G37*
G36*
X511025Y-185069D02*
X524525Y-185069D01*
X524525Y-188789D01*
X511025Y-188789D01*
X511025Y-185069D01*
G37*
G54D58*
G36*
X461602Y-529033D02*
X461602Y-542033D01*
X458352Y-542033D01*
X458352Y-529033D01*
X461602Y-529033D01*
G37*
G36*
X459978Y-530658D02*
X447978Y-530658D01*
X447978Y-527408D01*
X459978Y-527408D01*
X459978Y-530658D01*
G37*
G36*
X458352Y-529033D02*
X458352Y-516033D01*
X461602Y-516033D01*
X461602Y-529033D01*
X458352Y-529033D01*
G37*
G54D59*
G36*
X345630Y-530574D02*
X345630Y-520074D01*
X348674Y-520074D01*
X348674Y-530574D01*
X345630Y-530574D01*
G37*
G36*
X347152Y-529053D02*
X357152Y-529053D01*
X357152Y-532096D01*
X347152Y-532096D01*
X347152Y-529053D01*
G37*
G36*
X348674Y-530574D02*
X348674Y-541074D01*
X345630Y-541074D01*
X345630Y-530574D01*
X348674Y-530574D01*
G37*
G54D58*
G36*
X461602Y-529033D02*
X461602Y-542033D01*
X458352Y-542033D01*
X458352Y-529033D01*
X461602Y-529033D01*
G37*
G36*
X459978Y-530658D02*
X447978Y-530658D01*
X447978Y-527408D01*
X459978Y-527408D01*
X459978Y-530658D01*
G37*
G36*
X458352Y-529033D02*
X458352Y-516033D01*
X461602Y-516033D01*
X461602Y-529033D01*
X458352Y-529033D01*
G37*
X43918Y-654498D02*
G54D60*
D03*
X69418Y-654498D02*
G54D60*
D03*
X94918Y-654498D02*
G54D60*
D03*
X120418Y-654498D02*
G54D60*
D03*
X145917Y-654498D02*
G54D60*
D03*
X171417Y-654498D02*
G54D60*
D03*
X196917Y-654498D02*
G54D60*
D03*
X222417Y-654498D02*
G54D60*
D03*
X247917Y-654498D02*
G54D60*
D03*
X273417Y-654498D02*
G54D60*
D03*
X298917Y-654498D02*
G54D60*
D03*
X324417Y-654498D02*
G54D60*
D03*
X349917Y-654498D02*
G54D60*
D03*
X375417Y-654498D02*
G54D60*
D03*
X400917Y-654498D02*
G54D60*
D03*
X426417Y-654498D02*
G54D60*
D03*
X451917Y-654498D02*
G54D60*
D03*
X477417Y-654498D02*
G54D60*
D03*
X502917Y-654498D02*
G54D60*
D03*
X528417Y-654498D02*
G54D60*
D03*
X43918Y-612222D02*
G54D60*
D03*
X69418Y-612223D02*
G54D60*
D03*
X94918Y-612222D02*
G54D61*
D03*
X120417Y-612223D02*
G54D60*
D03*
X145917Y-612223D02*
G54D60*
D03*
X171417Y-612223D02*
G54D60*
D03*
X196917Y-612223D02*
G54D60*
D03*
X222417Y-612223D02*
G54D60*
D03*
X247917Y-612223D02*
G54D60*
D03*
X273417Y-612223D02*
G54D60*
D03*
X298917Y-612223D02*
G54D60*
D03*
X324417Y-612223D02*
G54D60*
D03*
X349917Y-612223D02*
G54D60*
D03*
X375417Y-612223D02*
G54D60*
D03*
X400917Y-612223D02*
G54D60*
D03*
X426417Y-612223D02*
G54D60*
D03*
X451917Y-612223D02*
G54D60*
D03*
X477417Y-612223D02*
G54D60*
D03*
X502918Y-612223D02*
G54D60*
D03*
X528418Y-612223D02*
G54D60*
D03*
X56667Y-632223D02*
G54D60*
D03*
X82168Y-632223D02*
G54D60*
D03*
X107668Y-632223D02*
G54D60*
D03*
X158667Y-632223D02*
G54D60*
D03*
X184167Y-632223D02*
G54D60*
D03*
X209667Y-632223D02*
G54D60*
D03*
X260667Y-632223D02*
G54D60*
D03*
X286167Y-632223D02*
G54D60*
D03*
X311667Y-632223D02*
G54D60*
D03*
X362667Y-632223D02*
G54D60*
D03*
X388167Y-632223D02*
G54D60*
D03*
X413667Y-632223D02*
G54D60*
D03*
X464668Y-632223D02*
G54D60*
D03*
X490168Y-632223D02*
G54D60*
D03*
X515668Y-632223D02*
G54D60*
D03*
X56668Y-592222D02*
G54D60*
D03*
X82168Y-592222D02*
G54D60*
D03*
X107668Y-592223D02*
G54D60*
D03*
X158667Y-592223D02*
G54D60*
D03*
X184167Y-592223D02*
G54D60*
D03*
X209667Y-592223D02*
G54D60*
D03*
X260667Y-592223D02*
G54D60*
D03*
X286167Y-592223D02*
G54D60*
D03*
X311667Y-592223D02*
G54D60*
D03*
X362667Y-592223D02*
G54D60*
D03*
X388167Y-592223D02*
G54D60*
D03*
X413667Y-592223D02*
G54D60*
D03*
X464668Y-592223D02*
G54D60*
D03*
X490168Y-592223D02*
G54D60*
D03*
X515668Y-592223D02*
G54D60*
D03*
G54D40*
X184167Y-592223D02*
X184167Y-577095D01*
G54D40*
X286167Y-592223D02*
X286167Y-577095D01*
G54D40*
X490168Y-592223D02*
X490168Y-577095D01*
G54D40*
X388167Y-592223D02*
X388167Y-577095D01*
G54D40*
X490168Y-577095D02*
X97295Y-577095D01*
X82167Y-592223D01*
X477554Y-335700D02*
G54D62*
D03*
X449563Y-335692D02*
G54D62*
D03*
X379037Y-290137D02*
G54D63*
D03*
X379039Y-299542D02*
G54D63*
D03*
X379037Y-309137D02*
G54D63*
D03*
X404937Y-309137D02*
G54D63*
D03*
X404937Y-290137D02*
G54D63*
D03*
G54D64*
X379037Y-309137D02*
X367777Y-309137D01*
X365638Y-306998D01*
X365638Y-293901D01*
X369402Y-290137D01*
X379037Y-290137D01*
X435158Y-310622D02*
G54D65*
D03*
X435158Y-287622D02*
G54D65*
D03*
G54D64*
X404937Y-290137D02*
X440977Y-290137D01*
X443095Y-288019D01*
G54D64*
X404937Y-309137D02*
X441213Y-309137D01*
X443095Y-311019D01*
G54D66*
X449554Y-381078D02*
X449558Y-345220D01*
X402986Y-333744D02*
G54D67*
D03*
X374986Y-333745D02*
G54D67*
D03*
X353264Y-335252D02*
G54D68*
D03*
X353266Y-316248D02*
G54D68*
D03*
X426587Y-238064D02*
G54D68*
D03*
X426587Y-259638D02*
G54D68*
D03*
X420668Y-330054D02*
G54D60*
D03*
X449555Y-381078D02*
G54D69*
D03*
X506125Y-343408D02*
G54D70*
D03*
X249238Y-355831D02*
G54D60*
D03*
X263530Y-348461D02*
G54D60*
D03*
X250806Y-371328D02*
G54D60*
D03*
X509408Y-490574D02*
G54D60*
D03*
G36*
X513462Y-542200D02*
X513462Y-518200D01*
X537462Y-518200D01*
X537462Y-542200D01*
X513462Y-542200D01*
G37*
X255332Y-184688D02*
G54D71*
D03*
X248702Y-127661D02*
G54D71*
D03*
X197902Y-133614D02*
G54D71*
D03*
X209014Y-211004D02*
G54D71*
D03*
X230250Y-53610D02*
G54D72*
D03*
X245330Y-53608D02*
G54D72*
D03*
X259617Y-53608D02*
G54D72*
D03*
X273905Y-53608D02*
G54D72*
D03*
X288192Y-53608D02*
G54D72*
D03*
X302483Y-53610D02*
G54D72*
D03*
X316768Y-53608D02*
G54D72*
D03*
X331055Y-53608D02*
G54D72*
D03*
X302483Y-73990D02*
G54D73*
D03*
X319483Y-73990D02*
G54D73*
D03*
G54D40*
X302483Y-53610D02*
X302483Y-86690D01*
G54D40*
X316768Y-53608D02*
X316768Y-73656D01*
X319483Y-76371D01*
X238522Y-342734D02*
G54D60*
D03*
X163918Y-534324D02*
G54D61*
D03*
X184562Y-534330D02*
G54D61*
D03*
X203612Y-534330D02*
G54D61*
D03*
X203610Y-421490D02*
G54D61*
D03*
G36*
X283628Y-516249D02*
X283628Y-542249D01*
X257628Y-542249D01*
X257628Y-516249D01*
X283628Y-516249D01*
G37*
X511025Y-186929D02*
G54D74*
D03*
X511022Y-161528D02*
G54D74*
D03*
X277674Y-423729D02*
G54D71*
D03*
X153325Y-47881D02*
G54D70*
D03*
X329715Y-455905D02*
G54D75*
D03*
X329715Y-468605D02*
G54D75*
D03*
X329715Y-481305D02*
G54D75*
D03*
X329715Y-494005D02*
G54D75*
D03*
X272716Y-494005D02*
G54D75*
D03*
X272715Y-481305D02*
G54D75*
D03*
X272715Y-468605D02*
G54D75*
D03*
X272715Y-455905D02*
G54D75*
D03*
X350183Y-479320D02*
G54D76*
D03*
X350183Y-496320D02*
G54D76*
D03*
X350183Y-455177D02*
G54D76*
D03*
X350183Y-472177D02*
G54D76*
D03*
X369149Y-492511D02*
G54D76*
D03*
X369149Y-475511D02*
G54D76*
D03*
G54D40*
X350183Y-497511D02*
X350183Y-509347D01*
X141684Y-436166D02*
G54D60*
D03*
X459978Y-529033D02*
G54D77*
D03*
X107018Y-308636D02*
G54D71*
D03*
X163922Y-421491D02*
G54D60*
D03*
X224246Y-421491D02*
G54D60*
D03*
X243296Y-421491D02*
G54D60*
D03*
G36*
X127456Y-368952D02*
X133113Y-363296D01*
X150082Y-380268D01*
X144425Y-385924D01*
X127456Y-368952D01*
G37*
G36*
X136436Y-359972D02*
X142093Y-354315D01*
X159063Y-371287D01*
X153405Y-376944D01*
X136436Y-359972D01*
G37*
G36*
X145416Y-350991D02*
X151074Y-345335D01*
X168042Y-362308D01*
X162385Y-367964D01*
X145416Y-350991D01*
G37*
G36*
X154396Y-342013D02*
X160052Y-336356D01*
X177024Y-353325D01*
X171367Y-358982D01*
X154396Y-342013D01*
G37*
G36*
X189751Y-377368D02*
X195408Y-371711D01*
X212379Y-388681D01*
X206722Y-394338D01*
X189751Y-377368D01*
G37*
G36*
X180771Y-386348D02*
X186428Y-380691D01*
X203399Y-397661D01*
X197742Y-403318D01*
X180771Y-386348D01*
G37*
G36*
X171791Y-395328D02*
X177448Y-389671D01*
X194419Y-406642D01*
X188762Y-412299D01*
X171791Y-395328D01*
G37*
G36*
X162811Y-404308D02*
X168468Y-398651D01*
X185438Y-415623D01*
X179781Y-421279D01*
X162811Y-404308D01*
G37*
G54D40*
X203610Y-436575D02*
X203610Y-421490D01*
X127509Y-345389D01*
G54D40*
X180044Y-341214D02*
X121216Y-400042D01*
X243940Y-224895D02*
G54D71*
D03*
X176993Y-200158D02*
G54D71*
D03*
X163374Y-234023D02*
G54D71*
D03*
X147102Y-101070D02*
G54D71*
D03*
X487620Y-376501D02*
G54D71*
D03*
X403166Y-432461D02*
G54D71*
D03*
G54D64*
X379039Y-299542D02*
X392199Y-299542D01*
X236065Y-513547D02*
G54D73*
D03*
X219063Y-513544D02*
G54D73*
D03*
X479818Y-529034D02*
G54D77*
D03*
X85190Y-483658D02*
G54D71*
D03*
X155833Y-510248D02*
G54D71*
D03*
X101858Y-457067D02*
G54D71*
D03*
X407849Y-85592D02*
G54D71*
D03*
X491924Y-460596D02*
G54D78*
D03*
X441124Y-485996D02*
G54D78*
D03*
X441123Y-435195D02*
G54D78*
D03*
X441123Y-409796D02*
G54D78*
D03*
X441124Y-511396D02*
G54D78*
D03*
G54D40*
X491942Y-441968D02*
X491942Y-478058D01*
G54D40*
X509405Y-460596D02*
X474461Y-460596D01*
G54D18*
X414136Y-485996D02*
X457024Y-485996D01*
X479818Y-508790D01*
X479818Y-530622D01*
G54D40*
X331656Y-507108D02*
X331656Y-495946D01*
X329715Y-494005D01*
X279658Y-220926D02*
G54D71*
D03*
X505398Y-233740D02*
G54D79*
D03*
X505398Y-240240D02*
G54D79*
D03*
X505398Y-246740D02*
G54D79*
D03*
X505398Y-253240D02*
G54D79*
D03*
X505398Y-259740D02*
G54D79*
D03*
X532148Y-284240D02*
G54D80*
D03*
X532148Y-209240D02*
G54D80*
D03*
X404823Y-219827D02*
G54D81*
D03*
X426587Y-199567D02*
G54D68*
D03*
X426587Y-221141D02*
G54D68*
D03*
X447225Y-227269D02*
G54D68*
D03*
X447225Y-248843D02*
G54D68*
D03*
X447225Y-188772D02*
G54D68*
D03*
X447224Y-210346D02*
G54D68*
D03*
G54D18*
X426588Y-238064D02*
X426587Y-221141D01*
G54D40*
X447225Y-227269D02*
X447224Y-210346D01*
G54D82*
X413530Y-209135D02*
X414734Y-210339D01*
X444368Y-210340D01*
G36*
X503402Y-221763D02*
X499746Y-225419D01*
X494558Y-225419D01*
X490902Y-221763D01*
X490902Y-216575D01*
X494558Y-212919D01*
X499746Y-212919D01*
X503402Y-216575D01*
X503402Y-221763D01*
G37*
G54D18*
X532148Y-209240D02*
X532148Y-284240D01*
G54D40*
X520480Y-259740D02*
X484700Y-259740D01*
G54D82*
X505398Y-253240D02*
X476216Y-253240D01*
X410162Y-250281D02*
G54D81*
D03*
G36*
X369808Y-398312D02*
X373610Y-402114D01*
X373610Y-407510D01*
X369808Y-411312D01*
X364412Y-411312D01*
X360610Y-407510D01*
X360610Y-402114D01*
X364412Y-398312D01*
X369808Y-398312D01*
G37*
G36*
X357108Y-385612D02*
X360910Y-389414D01*
X360910Y-394810D01*
X357108Y-398612D01*
X351712Y-398612D01*
X347910Y-394810D01*
X347910Y-389414D01*
X351712Y-385612D01*
X357108Y-385612D01*
G37*
G36*
X389778Y-416569D02*
X393580Y-420371D01*
X393580Y-425767D01*
X389778Y-429569D01*
X384382Y-429569D01*
X380580Y-425767D01*
X380580Y-420371D01*
X384382Y-416569D01*
X389778Y-416569D01*
G37*
G54D66*
X477550Y-367221D02*
X477554Y-345225D01*
X422930Y-350308D02*
G54D71*
D03*
G54D82*
X426588Y-238064D02*
X463489Y-238064D01*
X472165Y-246740D01*
X505398Y-246740D01*
G54D82*
X505398Y-240240D02*
X478762Y-240240D01*
X465791Y-227269D01*
X447225Y-227269D01*
X467862Y-188772D02*
G54D68*
D03*
X467862Y-210346D02*
G54D68*
D03*
G54D40*
X505398Y-233740D02*
X482580Y-233740D01*
X467862Y-219021D01*
X467862Y-210346D01*
G54D18*
X532148Y-209240D02*
X504515Y-209240D01*
X493316Y-198041D01*
X486172Y-198041D01*
X478888Y-190756D01*
X467862Y-190756D01*
G54D18*
X467862Y-189248D02*
X447225Y-189248D01*
X488322Y-280756D02*
G54D76*
D03*
X488322Y-263756D02*
G54D76*
D03*
X470066Y-280756D02*
G54D76*
D03*
X470066Y-263756D02*
G54D76*
D03*
G54D40*
X488322Y-263756D02*
X470066Y-263756D01*
X454984Y-263756D01*
G54D40*
X470066Y-280756D02*
X528664Y-280756D01*
X532148Y-284240D01*
G54D82*
X470066Y-263756D02*
X470066Y-259391D01*
X476216Y-253240D01*
X391353Y-233297D02*
G54D81*
D03*
G54D18*
X420668Y-330054D02*
X402192Y-330054D01*
X403086Y-268154D02*
G54D71*
D03*
G54D18*
X373002Y-337594D02*
X373002Y-327758D01*
X364270Y-319026D01*
X351678Y-319026D01*
G54D64*
X353662Y-317438D02*
X353662Y-305150D01*
X359172Y-299641D01*
X365125Y-299641D01*
G54D66*
X477554Y-335700D02*
X477554Y-325154D01*
X461832Y-309431D01*
X439524Y-309431D01*
X502702Y-323320D02*
G54D71*
D03*
G54D18*
X350183Y-456367D02*
X359133Y-456367D01*
X369149Y-466383D01*
X369149Y-475511D01*
G54D40*
X224246Y-421491D02*
X224246Y-418318D01*
X213519Y-407591D01*
X207670Y-407591D01*
X192085Y-392005D01*
G54D40*
X243296Y-421491D02*
X243296Y-418715D01*
X229790Y-405209D01*
X223250Y-405209D01*
X201065Y-383024D01*
G54D18*
X163922Y-421491D02*
X163922Y-420168D01*
X174124Y-409965D01*
X312562Y-530574D02*
G54D61*
D03*
X221318Y-486832D02*
G54D71*
D03*
X410961Y-485996D02*
G54D81*
D03*
X411113Y-511396D02*
G54D81*
D03*
X127071Y-161924D02*
G54D83*
D03*
X127068Y-176208D02*
G54D83*
D03*
G54D84*
X160000Y-185482D02*
X160000Y-153732D01*
X165000Y-185482D02*
X165000Y-153732D01*
X170000Y-185482D02*
X170000Y-153732D01*
X175000Y-185482D02*
X175000Y-153732D01*
X180000Y-185482D02*
X180000Y-153732D01*
X185000Y-185482D02*
X185000Y-153732D01*
X190000Y-185482D02*
X190000Y-153732D01*
X195000Y-185482D02*
X195000Y-153732D01*
X200000Y-185482D02*
X200000Y-153732D01*
X205000Y-185482D02*
X205000Y-153732D01*
X210000Y-185482D02*
X210000Y-153732D01*
X215000Y-185482D02*
X215000Y-153732D01*
X220000Y-185482D02*
X220000Y-153732D01*
X225000Y-185482D02*
X225000Y-153732D01*
X230000Y-185482D02*
X230000Y-153732D01*
X235000Y-185482D02*
X235000Y-153732D01*
X240000Y-185482D02*
X240000Y-153732D01*
X157777Y-185000D02*
X240327Y-185000D01*
X157777Y-180000D02*
X240327Y-180000D01*
X157777Y-175000D02*
X240327Y-175000D01*
X157777Y-170000D02*
X240327Y-170000D01*
X157777Y-165000D02*
X240327Y-165000D01*
X157777Y-160000D02*
X240327Y-160000D01*
X157777Y-155000D02*
X240327Y-155000D01*
G54D18*
X157777Y-153732D02*
X240327Y-153732D01*
X240327Y-185482D01*
X157777Y-185482D01*
X157777Y-153732D01*
G54D85*
X145218Y-175418D02*
X127071Y-175418D01*
G54D85*
X145218Y-162718D02*
X127071Y-162718D01*
G54D86*
X157777Y-153732D02*
X157777Y-139726D01*
G54D86*
X240327Y-153732D02*
X240327Y-139726D01*
G54D86*
X157777Y-195724D02*
X157777Y-185482D01*
G54D86*
X240327Y-196518D02*
X240327Y-185482D01*
G54D86*
X240327Y-153732D02*
X255332Y-153732D01*
G54D86*
X240327Y-185482D02*
X255332Y-185482D01*
X390466Y-486436D02*
G54D71*
D03*
X366653Y-526123D02*
G54D71*
D03*
X68520Y-155442D02*
G54D71*
D03*
G54D18*
X250490Y-494005D02*
X289823Y-494005D01*
X289846Y-440928D02*
G54D60*
D03*
X404753Y-407061D02*
G54D71*
D03*
X459522Y-420554D02*
G54D71*
D03*
X462300Y-476514D02*
G54D71*
D03*
X384036Y-255454D02*
G54D71*
D03*
X184562Y-513541D02*
G54D73*
D03*
X201564Y-513544D02*
G54D73*
D03*
G54D18*
X184562Y-534330D02*
X184562Y-511953D01*
G54D18*
X201564Y-513544D02*
X219062Y-513544D01*
X189170Y-463417D02*
G54D71*
D03*
X388144Y-147638D02*
G54D81*
D03*
X374566Y-160422D02*
G54D81*
D03*
X400844Y-159544D02*
G54D81*
D03*
X407988Y-174625D02*
G54D81*
D03*
X426640Y-163512D02*
G54D81*
D03*
G54D40*
G75*
G01X400644Y-147638D02*
G03X379305Y-138799I-12500J0D01*
G01*
G54D40*
X374566Y-160422D02*
X371788Y-157644D01*
X312822Y-157644D01*
X245330Y-90152D01*
X245330Y-53608D01*
G54D40*
X388144Y-147638D02*
X314722Y-147241D01*
X259618Y-92136D01*
X259618Y-53608D01*
G54D40*
X400644Y-147638D02*
X400644Y-159344D01*
X400844Y-159544D01*
G54D40*
X379305Y-138799D02*
X318980Y-138799D01*
X273905Y-93724D01*
X273905Y-53608D01*
G54D40*
G75*
G01X408782Y-147638D02*
G03X377825Y-129764I-20638J0D01*
G01*
G54D40*
X377825Y-129764D02*
X321899Y-129764D01*
X288192Y-96058D01*
X288192Y-53608D01*
G54D40*
X407988Y-174625D02*
X413940Y-168672D01*
X413940Y-152796D01*
X408782Y-147638D01*
X314980Y-102261D02*
G54D71*
D03*
G54D40*
G75*
G01X413530Y-209135D02*
G03X392509Y-217842I-8707J-8707D01*
G01*
G54D40*
X392509Y-217842D02*
X392509Y-232141D01*
X391353Y-233297D01*
X296724Y-541601D02*
G54D71*
D03*
X103842Y-52254D02*
G54D71*
D03*
X478492Y-125676D02*
G54D87*
D03*
X269630Y-259627D02*
G54D88*
D03*
X269630Y-272327D02*
G54D88*
D03*
X269630Y-285027D02*
G54D88*
D03*
X269630Y-297727D02*
G54D88*
D03*
X219630Y-297727D02*
G54D88*
D03*
X219630Y-285027D02*
G54D88*
D03*
X219630Y-272327D02*
G54D88*
D03*
X219630Y-259627D02*
G54D88*
D03*
G54D40*
X219630Y-259627D02*
X219630Y-272327D01*
G54D40*
X269630Y-317882D02*
X269630Y-297727D01*
G54D40*
G75*
G01X416061Y-140170D02*
G03X380604Y-119699I-27964J-7492D01*
G01*
G54D40*
X331055Y-53608D02*
X331055Y-101661D01*
X349093Y-119699D01*
X380604Y-119699D01*
G54D40*
X426640Y-163512D02*
X426640Y-150750D01*
X416060Y-140170D01*
G54D18*
X426587Y-259638D02*
X436430Y-259638D01*
X447224Y-248843D01*
G54D18*
X447225Y-188772D02*
X437382Y-188772D01*
X426587Y-199567D01*
X364192Y-350308D02*
G54D71*
D03*
G54D18*
X426587Y-259638D02*
X419519Y-259638D01*
X410162Y-250281D01*
X274102Y-328082D02*
G54D71*
D03*
X318552Y-366579D02*
G54D71*
D03*
X330152Y-530574D02*
G54D73*
D03*
X347152Y-530574D02*
G54D73*
D03*
G54D18*
X312562Y-530574D02*
X330152Y-530574D01*
G54D40*
X238522Y-342734D02*
X238522Y-266303D01*
X244475Y-260350D01*
G54D40*
X270424Y-259627D02*
X245198Y-259627D01*
X244475Y-260350D01*
G54D40*
X225186Y-349011D02*
X233216Y-357041D01*
X248027Y-357041D01*
X249238Y-355831D01*
G54D40*
X263530Y-348461D02*
X248840Y-333772D01*
X248840Y-280591D01*
X257104Y-272327D01*
X269630Y-272327D01*
G54D40*
X338666Y-402034D02*
X289719Y-402034D01*
X259013Y-371328D01*
X250408Y-371328D01*
G54D40*
X367110Y-404812D02*
X367110Y-386556D01*
X360760Y-380206D01*
X346671Y-380206D01*
X344587Y-382290D01*
X297359Y-382290D01*
X263530Y-348461D01*
G54D40*
X354410Y-392112D02*
X294481Y-392112D01*
X265112Y-362744D01*
X249238Y-355831D01*
G54D18*
X230250Y-77454D02*
X230250Y-88169D01*
X269478Y-127397D01*
X281246Y-145123D02*
G54D71*
D03*
X66140Y-370945D02*
G54D71*
D03*
G54D66*
X470628Y-357704D02*
X491830Y-357704D01*
X506125Y-343408D01*
G54D40*
X338666Y-402034D02*
X345678Y-402034D01*
X361950Y-418306D01*
X382318Y-418306D01*
X387080Y-423069D01*
G54D18*
X411113Y-511396D02*
X376921Y-511396D01*
X369149Y-503624D01*
X369149Y-492511D01*
X223988Y-449418D02*
G54D76*
D03*
X223991Y-432416D02*
G54D76*
D03*
X243038Y-449418D02*
G54D76*
D03*
X243041Y-432416D02*
G54D76*
D03*
G54D18*
X241847Y-449418D02*
X191848Y-449418D01*
X163922Y-421491D01*
X225286Y-390789D02*
G54D71*
D03*
G54D40*
X329715Y-455905D02*
X349720Y-455905D01*
X350183Y-456367D01*
G54D40*
X329715Y-468605D02*
X345420Y-468605D01*
X350183Y-473367D01*
G54D40*
X329715Y-494005D02*
X346677Y-494005D01*
X350183Y-497511D01*
G54D40*
X329716Y-481305D02*
X317604Y-481305D01*
X293688Y-505222D01*
X244390Y-505222D01*
X236064Y-513547D01*
G54D40*
X244563Y-504544D02*
X237700Y-497681D01*
G54D18*
X273906Y-455905D02*
X274868Y-455905D01*
X289846Y-440928D01*
G54D18*
X272716Y-455905D02*
X249526Y-455905D01*
X243038Y-449418D01*
G54D40*
X237700Y-497681D02*
X203200Y-497681D01*
X141684Y-436166D01*
G54D18*
X289846Y-440928D02*
X292227Y-443309D01*
X362744Y-443309D01*
X373460Y-454025D01*
X459978Y-454025D01*
X477550Y-436453D01*
X477550Y-367221D01*
G36*
X449319Y-351704D02*
X460319Y-351703D01*
X460319Y-363703D01*
X449319Y-363704D01*
X449319Y-351704D01*
G37*
X471819Y-357703D02*
G54D73*
D03*
X399897Y-53562D02*
G54D89*
D03*
X404897Y-53562D02*
G54D89*
D03*
X409897Y-53562D02*
G54D89*
D03*
X414897Y-53562D02*
G54D89*
D03*
X419897Y-53562D02*
G54D89*
D03*
X424897Y-53562D02*
G54D89*
D03*
X429897Y-53562D02*
G54D89*
D03*
X434897Y-53562D02*
G54D89*
D03*
G54D40*
G75*
G01X103404Y-603736D02*
G03X86433Y-603736I-8486J-8486D01*
G01*
G54D40*
G75*
G01X120417Y-600224D02*
G03X111932Y-603738I0J-12000D01*
G01*
G54D40*
X103404Y-603736D02*
X111932Y-603738D01*
G54D40*
G75*
G01X77903Y-603738D02*
G03X66311Y-600632I-8486J-8486D01*
G01*
G54D40*
X77902Y-603738D02*
X86433Y-603736D01*
G54D40*
G75*
G01X86433Y-620707D02*
G03X103404Y-620707I8485J8485D01*
G01*
G54D40*
G75*
G01X111932Y-620705D02*
G03X128903Y-620705I8485J8485D01*
G01*
G54D40*
X103404Y-620707D02*
X111932Y-620705D01*
G54D40*
G75*
G01X59025Y-618220D02*
G03X77903Y-620705I10392J6000D01*
G01*
G54D40*
X77902Y-620705D02*
X86433Y-620707D01*
G54D40*
X66312Y-600632D02*
X65078Y-600632D01*
X56668Y-592222D01*
G54D40*
X120417Y-600224D02*
X150667Y-600224D01*
X158667Y-592223D01*
G54D40*
G75*
G01X205403Y-603738D02*
G03X188432Y-603738I-8485J-8485D01*
G01*
G54D40*
G75*
G01X222417Y-600225D02*
G03X213931Y-603740I0J-12000D01*
G01*
G54D40*
X205403Y-603738D02*
X213932Y-603740D01*
G54D40*
G75*
G01X179902Y-603740D02*
G03X168311Y-600634I-8485J-8485D01*
G01*
G54D40*
X179902Y-603740D02*
X188432Y-603738D01*
G54D40*
X168311Y-600634D02*
X167078Y-600634D01*
X158667Y-592223D01*
G54D40*
X222417Y-600225D02*
X252666Y-600225D01*
X260667Y-592225D01*
G54D40*
G75*
G01X307403Y-603738D02*
G03X290432Y-603738I-8485J-8485D01*
G01*
G54D40*
G75*
G01X324417Y-600225D02*
G03X315931Y-603740I0J-12000D01*
G01*
G54D40*
X307403Y-603738D02*
X315932Y-603740D01*
G54D40*
G75*
G01X281902Y-603740D02*
G03X270311Y-600634I-8485J-8485D01*
G01*
G54D40*
X281902Y-603740D02*
X290432Y-603738D01*
G54D40*
X270311Y-600634D02*
X269078Y-600634D01*
X260667Y-592223D01*
G54D40*
X324417Y-600225D02*
X354666Y-600225D01*
X362667Y-592225D01*
G54D40*
G75*
G01X409403Y-603738D02*
G03X392432Y-603738I-8485J-8485D01*
G01*
G54D40*
G75*
G01X426417Y-600225D02*
G03X417931Y-603740I0J-12000D01*
G01*
G54D40*
X409403Y-603738D02*
X417932Y-603740D01*
G54D40*
G75*
G01X383902Y-603740D02*
G03X372311Y-600634I-8485J-8485D01*
G01*
G54D40*
X383902Y-603740D02*
X392432Y-603738D01*
G54D40*
X372311Y-600634D02*
X371078Y-600634D01*
X362667Y-592223D01*
G54D40*
X426417Y-600225D02*
X456666Y-600225D01*
X464667Y-592225D01*
G54D40*
X128902Y-620705D02*
X137436Y-620705D01*
X145917Y-612223D01*
G54D40*
X59025Y-618220D02*
X49916Y-618220D01*
X43918Y-612222D01*
G54D40*
G75*
G01X188432Y-620708D02*
G03X205403Y-620708I8486J8485D01*
G01*
G54D40*
G75*
G01X213931Y-620706D02*
G03X230902Y-620706I8486J8485D01*
G01*
G54D40*
X205403Y-620708D02*
X213932Y-620706D01*
G54D40*
G75*
G01X161024Y-618221D02*
G03X179902Y-620706I10393J6000D01*
G01*
G54D40*
X179902Y-620706D02*
X188432Y-620708D01*
G54D40*
X230902Y-620706D02*
X239435Y-620706D01*
X247917Y-612225D01*
G54D40*
X161024Y-618221D02*
X151915Y-618221D01*
X145917Y-612223D01*
G54D40*
G75*
G01X290432Y-620708D02*
G03X307403Y-620708I8486J8485D01*
G01*
G54D40*
G75*
G01X315931Y-620706D02*
G03X332902Y-620706I8486J8485D01*
G01*
G54D40*
X307403Y-620708D02*
X315932Y-620706D01*
G54D40*
G75*
G01X263024Y-618221D02*
G03X281902Y-620706I10393J6000D01*
G01*
G54D40*
X281902Y-620706D02*
X290432Y-620708D01*
G54D40*
X332902Y-620706D02*
X341435Y-620706D01*
X349917Y-612225D01*
G54D40*
X263024Y-618221D02*
X253915Y-618221D01*
X247917Y-612223D01*
G54D40*
G75*
G01X392432Y-620708D02*
G03X409403Y-620708I8486J8485D01*
G01*
G54D40*
G75*
G01X417931Y-620706D02*
G03X434902Y-620706I8486J8485D01*
G01*
G54D40*
X409403Y-620708D02*
X417932Y-620706D01*
G54D40*
G75*
G01X365024Y-618221D02*
G03X383902Y-620706I10393J6000D01*
G01*
G54D40*
X383902Y-620706D02*
X392432Y-620708D01*
G54D40*
X434902Y-620706D02*
X443435Y-620706D01*
X451917Y-612225D01*
G54D40*
X365024Y-618221D02*
X355915Y-618221D01*
X349917Y-612223D01*
X145911Y-670189D02*
G54D71*
D03*
X349905Y-671379D02*
G54D71*
D03*
X451902Y-672173D02*
G54D71*
D03*
X56614Y-668204D02*
G54D71*
D03*
G54D18*
X230250Y-53610D02*
X230250Y-77454D01*
G54D18*
X230250Y-53610D02*
X159053Y-53610D01*
X153325Y-47881D01*
X529293Y-339989D02*
G54D71*
D03*
G54D18*
X426587Y-221141D02*
X406137Y-221141D01*
X404823Y-219827D01*
X459978Y-529033D02*
G54D77*
D03*
X479818Y-529034D02*
G54D77*
D03*
G54D18*
X410961Y-485996D02*
X457024Y-485996D01*
X479818Y-508790D01*
X479818Y-530622D01*
G54D18*
X269478Y-246062D02*
X269478Y-127397D01*
G54D40*
X467862Y-210346D02*
X488329Y-210346D01*
X497152Y-219169D01*
X243307Y-534324D02*
G54D61*
D03*
X509408Y-510574D02*
G54D60*
D03*
G54D40*
X225186Y-349011D02*
X225186Y-303284D01*
X219630Y-297727D01*
G54D40*
X250408Y-371328D02*
X248027Y-368947D01*
X231423Y-368947D01*
X216694Y-354218D01*
X216694Y-330200D01*
X189309Y-302816D01*
X189309Y-291703D01*
X195985Y-285027D01*
X208518Y-285027D01*
G54D66*
X509408Y-510574D02*
X519703Y-510574D01*
X525464Y-516335D01*
X525463Y-530201D01*
G54D66*
X243307Y-534324D02*
X265552Y-534324D01*
X270628Y-529249D01*
X274393Y-259627D02*
G54D90*
D03*
X219630Y-259627D02*
G54D91*
D03*
X274393Y-272327D02*
G54D90*
D03*
X274393Y-285027D02*
G54D90*
D03*
X274393Y-297727D02*
G54D90*
D03*
X214868Y-297727D02*
G54D90*
D03*
X214868Y-285027D02*
G54D90*
D03*
X214868Y-272327D02*
G54D90*
D03*
X214868Y-259627D02*
G54D90*
D03*
G54D40*
X219630Y-259627D02*
X219630Y-247888D01*
X220662Y-246856D01*
X293291Y-246856D01*
X296862Y-250428D01*
X296862Y-282178D01*
X294410Y-285027D01*
X278361Y-285027D01*
X43918Y-781498D02*
G54D60*
D03*
X69418Y-781498D02*
G54D60*
D03*
X94918Y-781498D02*
G54D60*
D03*
X120418Y-781498D02*
G54D60*
D03*
X145917Y-781498D02*
G54D60*
D03*
X171417Y-781498D02*
G54D60*
D03*
X196917Y-781498D02*
G54D60*
D03*
X222417Y-781498D02*
G54D60*
D03*
X247917Y-781498D02*
G54D60*
D03*
X273417Y-781498D02*
G54D60*
D03*
X298917Y-781498D02*
G54D60*
D03*
X324417Y-781498D02*
G54D60*
D03*
X349917Y-781498D02*
G54D60*
D03*
X375417Y-781498D02*
G54D60*
D03*
X400917Y-781498D02*
G54D60*
D03*
X426417Y-781498D02*
G54D60*
D03*
X451917Y-781498D02*
G54D60*
D03*
X477417Y-781498D02*
G54D60*
D03*
X502917Y-781498D02*
G54D60*
D03*
X528417Y-781498D02*
G54D60*
D03*
X43918Y-739222D02*
G54D60*
D03*
X69418Y-739223D02*
G54D60*
D03*
X94918Y-739222D02*
G54D61*
D03*
X120417Y-739223D02*
G54D60*
D03*
X145917Y-739223D02*
G54D60*
D03*
X171417Y-739223D02*
G54D60*
D03*
X196917Y-739223D02*
G54D60*
D03*
X222417Y-739223D02*
G54D60*
D03*
X247917Y-739223D02*
G54D60*
D03*
X273417Y-739223D02*
G54D60*
D03*
X298917Y-739223D02*
G54D60*
D03*
X324417Y-739223D02*
G54D60*
D03*
X349917Y-739223D02*
G54D60*
D03*
X375417Y-739223D02*
G54D60*
D03*
X400917Y-739223D02*
G54D60*
D03*
X426417Y-739223D02*
G54D60*
D03*
X451917Y-739223D02*
G54D60*
D03*
X477417Y-739223D02*
G54D60*
D03*
X502918Y-739223D02*
G54D60*
D03*
X528418Y-739223D02*
G54D60*
D03*
X56667Y-759223D02*
G54D60*
D03*
X82168Y-759223D02*
G54D60*
D03*
X107668Y-759223D02*
G54D60*
D03*
X158667Y-759223D02*
G54D60*
D03*
X184167Y-759223D02*
G54D60*
D03*
X209667Y-759223D02*
G54D60*
D03*
X260667Y-759223D02*
G54D60*
D03*
X286167Y-759223D02*
G54D60*
D03*
X311667Y-759223D02*
G54D60*
D03*
X362667Y-759223D02*
G54D60*
D03*
X388167Y-759223D02*
G54D60*
D03*
X413667Y-759223D02*
G54D60*
D03*
X464668Y-759223D02*
G54D60*
D03*
X490168Y-759223D02*
G54D60*
D03*
X515668Y-759223D02*
G54D60*
D03*
X56668Y-719222D02*
G54D60*
D03*
X82168Y-719222D02*
G54D60*
D03*
X107668Y-719223D02*
G54D60*
D03*
X158667Y-719223D02*
G54D60*
D03*
X184167Y-719223D02*
G54D60*
D03*
X209667Y-719223D02*
G54D60*
D03*
X260667Y-719223D02*
G54D60*
D03*
X286167Y-719223D02*
G54D60*
D03*
X311667Y-719223D02*
G54D60*
D03*
X362667Y-719223D02*
G54D60*
D03*
X388167Y-719223D02*
G54D60*
D03*
X413667Y-719223D02*
G54D60*
D03*
X464668Y-719223D02*
G54D60*
D03*
X490168Y-719223D02*
G54D60*
D03*
X515668Y-719223D02*
G54D60*
D03*
G54D40*
X184167Y-719223D02*
X184167Y-704095D01*
G54D40*
X286167Y-719223D02*
X286167Y-704095D01*
G54D40*
X490168Y-719223D02*
X490168Y-704095D01*
G54D40*
X388167Y-719223D02*
X388167Y-704095D01*
G54D40*
X490168Y-704095D02*
X97295Y-704095D01*
X82167Y-719223D01*
G54D40*
G75*
G01X103404Y-730736D02*
G03X86433Y-730736I-8486J-8486D01*
G01*
G54D40*
G75*
G01X120417Y-727224D02*
G03X111932Y-730738I0J-12000D01*
G01*
G54D40*
X103404Y-730736D02*
X111932Y-730738D01*
G54D40*
G75*
G01X77903Y-730738D02*
G03X66311Y-727632I-8486J-8486D01*
G01*
G54D40*
X77902Y-730738D02*
X86433Y-730736D01*
G54D40*
G75*
G01X86433Y-747707D02*
G03X103404Y-747707I8485J8485D01*
G01*
G54D40*
G75*
G01X111932Y-747705D02*
G03X128903Y-747705I8485J8485D01*
G01*
G54D40*
X103404Y-747707D02*
X111932Y-747705D01*
G54D40*
G75*
G01X59025Y-745220D02*
G03X77903Y-747705I10392J6000D01*
G01*
G54D40*
X77902Y-747705D02*
X86433Y-747707D01*
G54D40*
X66312Y-727632D02*
X65078Y-727632D01*
X56668Y-719222D01*
G54D40*
X120417Y-727224D02*
X150667Y-727224D01*
X158667Y-719223D01*
G54D40*
G75*
G01X205403Y-730738D02*
G03X188432Y-730738I-8485J-8485D01*
G01*
G54D40*
G75*
G01X222417Y-727225D02*
G03X213931Y-730740I0J-12000D01*
G01*
G54D40*
X205403Y-730738D02*
X213932Y-730740D01*
G54D40*
G75*
G01X179902Y-730740D02*
G03X168311Y-727634I-8485J-8485D01*
G01*
G54D40*
X179902Y-730740D02*
X188432Y-730738D01*
G54D40*
X168311Y-727634D02*
X167078Y-727634D01*
X158667Y-719223D01*
G54D40*
X222417Y-727225D02*
X252666Y-727225D01*
X260667Y-719225D01*
G54D40*
G75*
G01X307403Y-730738D02*
G03X290432Y-730738I-8485J-8485D01*
G01*
G54D40*
G75*
G01X324417Y-727225D02*
G03X315931Y-730740I0J-12000D01*
G01*
G54D40*
X307403Y-730738D02*
X315932Y-730740D01*
G54D40*
G75*
G01X281902Y-730740D02*
G03X270311Y-727634I-8485J-8485D01*
G01*
G54D40*
X281902Y-730740D02*
X290432Y-730738D01*
G54D40*
X270311Y-727634D02*
X269078Y-727634D01*
X260667Y-719223D01*
G54D40*
X324417Y-727225D02*
X354666Y-727225D01*
X362667Y-719225D01*
G54D40*
G75*
G01X409403Y-730738D02*
G03X392432Y-730738I-8485J-8485D01*
G01*
G54D40*
G75*
G01X426417Y-727225D02*
G03X417931Y-730740I0J-12000D01*
G01*
G54D40*
X409403Y-730738D02*
X417932Y-730740D01*
G54D40*
G75*
G01X383902Y-730740D02*
G03X372311Y-727634I-8485J-8485D01*
G01*
G54D40*
X383902Y-730740D02*
X392432Y-730738D01*
G54D40*
X372311Y-727634D02*
X371078Y-727634D01*
X362667Y-719223D01*
G54D40*
X426417Y-727225D02*
X456666Y-727225D01*
X464667Y-719225D01*
G54D40*
X128903Y-747705D02*
X137436Y-747705D01*
X145917Y-739223D01*
G54D40*
X59025Y-745220D02*
X49916Y-745220D01*
X43918Y-739222D01*
G54D40*
G75*
G01X188432Y-747708D02*
G03X205403Y-747708I8486J8485D01*
G01*
G54D40*
G75*
G01X213931Y-747706D02*
G03X230902Y-747706I8486J8485D01*
G01*
G54D40*
X205403Y-747708D02*
X213932Y-747706D01*
G54D40*
G75*
G01X161024Y-745221D02*
G03X179902Y-747706I10393J6000D01*
G01*
G54D40*
X179902Y-747706D02*
X188432Y-747708D01*
G54D40*
X230902Y-747706D02*
X239435Y-747706D01*
X247917Y-739225D01*
G54D40*
X161024Y-745221D02*
X151915Y-745221D01*
X145917Y-739223D01*
G54D40*
G75*
G01X290432Y-747708D02*
G03X307403Y-747708I8486J8485D01*
G01*
G54D40*
G75*
G01X315931Y-747706D02*
G03X332902Y-747706I8486J8485D01*
G01*
G54D40*
X307403Y-747708D02*
X315932Y-747706D01*
G54D40*
G75*
G01X263024Y-745221D02*
G03X281902Y-747706I10393J6000D01*
G01*
G54D40*
X281902Y-747706D02*
X290432Y-747708D01*
G54D40*
X332902Y-747706D02*
X341435Y-747706D01*
X349917Y-739225D01*
G54D40*
X263024Y-745221D02*
X253915Y-745221D01*
X247917Y-739223D01*
G54D40*
G75*
G01X392432Y-747708D02*
G03X409403Y-747708I8486J8485D01*
G01*
G54D40*
G75*
G01X417931Y-747706D02*
G03X434902Y-747706I8486J8485D01*
G01*
G54D40*
X409403Y-747708D02*
X417932Y-747706D01*
G54D40*
G75*
G01X365024Y-745221D02*
G03X383902Y-747706I10393J6000D01*
G01*
G54D40*
X383902Y-747706D02*
X392432Y-747708D01*
G54D40*
X434902Y-747706D02*
X443435Y-747706D01*
X451917Y-739225D01*
G54D40*
X365024Y-745221D02*
X355915Y-745221D01*
X349917Y-739223D01*
X145911Y-797189D02*
G54D71*
D03*
X349905Y-798379D02*
G54D71*
D03*
X451902Y-799173D02*
G54D71*
D03*
X56614Y-795204D02*
G54D71*
D03*
X980883Y-831083D02*
G54D71*
D03*
G54D40*
X980883Y-944692D02*
X980883Y-831083D01*
X815783Y-831083D02*
G54D92*
D03*
X688783Y-831083D02*
G54D92*
D03*
G54D18*
X815783Y-944692D02*
X815783Y-831083D01*
G54D18*
X688783Y-944692D02*
X688783Y-831083D01*
X752283Y-919292D02*
G54D92*
D03*
X320483Y-831083D02*
G54D92*
D03*
X193483Y-831083D02*
G54D92*
D03*
G54D18*
X320483Y-944692D02*
X320483Y-831083D01*
G54D18*
X193483Y-944692D02*
X193483Y-831083D01*
X256983Y-919292D02*
G54D92*
D03*
X485583Y-831083D02*
G54D92*
D03*
X358583Y-831083D02*
G54D92*
D03*
G54D18*
X485583Y-944692D02*
X485583Y-831083D01*
G54D18*
X358583Y-944692D02*
X358583Y-831083D01*
X422083Y-919292D02*
G54D92*
D03*
X980883Y-831083D02*
G54D92*
D03*
X853883Y-831083D02*
G54D92*
D03*
G54D18*
X980883Y-944692D02*
X980883Y-831083D01*
G54D18*
X853883Y-944692D02*
X853883Y-831083D01*
X917383Y-919292D02*
G54D92*
D03*
X650683Y-831083D02*
G54D92*
D03*
X523683Y-831083D02*
G54D92*
D03*
G54D93*
X141989Y-944692D02*
X141989Y-980092D01*
G54D93*
X129189Y-944692D02*
X129189Y-980092D01*
G54D93*
X116489Y-944692D02*
X116489Y-980092D01*
G54D93*
X103889Y-944692D02*
X103889Y-980092D01*
G54D93*
X78389Y-944692D02*
X78389Y-980092D01*
G54D93*
X154589Y-944692D02*
X154589Y-980092D01*
G54D93*
X65689Y-944692D02*
X65689Y-980092D01*
G54D93*
X53089Y-944692D02*
X53089Y-980092D01*
G54D93*
X40289Y-944692D02*
X40289Y-980092D01*
G54D93*
X27589Y-944692D02*
X27589Y-980092D01*
X154589Y-831083D02*
G54D92*
D03*
X27589Y-831083D02*
G54D92*
D03*
G54D18*
X154589Y-944692D02*
X154589Y-831083D01*
G54D18*
X27589Y-944692D02*
X27589Y-831083D01*
X91089Y-919292D02*
G54D92*
D03*
G54D18*
X523683Y-944692D02*
X523683Y-831083D01*
G54D18*
X650683Y-944692D02*
X650683Y-831083D01*
X587183Y-919292D02*
G54D92*
D03*
G54D93*
X307883Y-944692D02*
X307883Y-980092D01*
G54D93*
X295083Y-944692D02*
X295083Y-980092D01*
G54D93*
X282383Y-944692D02*
X282383Y-980092D01*
G54D93*
X269783Y-944692D02*
X269783Y-980092D01*
G54D93*
X244283Y-944692D02*
X244283Y-980092D01*
G54D93*
X320483Y-944692D02*
X320483Y-980092D01*
G54D93*
X231583Y-944692D02*
X231583Y-980092D01*
G54D93*
X218983Y-944692D02*
X218983Y-980092D01*
G54D93*
X206183Y-944692D02*
X206183Y-980092D01*
G54D93*
X193483Y-944692D02*
X193483Y-980092D01*
G54D93*
X472983Y-944692D02*
X472983Y-980092D01*
G54D93*
X460183Y-944692D02*
X460183Y-980092D01*
G54D93*
X447483Y-944692D02*
X447483Y-980092D01*
G54D93*
X434883Y-944692D02*
X434883Y-980092D01*
G54D93*
X409383Y-944692D02*
X409383Y-980092D01*
G54D93*
X485583Y-944692D02*
X485583Y-980092D01*
G54D93*
X396683Y-944692D02*
X396683Y-980092D01*
G54D93*
X384083Y-944692D02*
X384083Y-980092D01*
G54D93*
X371283Y-944692D02*
X371283Y-980092D01*
G54D93*
X358583Y-944692D02*
X358583Y-980092D01*
G54D93*
X638083Y-944692D02*
X638083Y-980092D01*
G54D93*
X625283Y-944692D02*
X625283Y-980092D01*
G54D93*
X612583Y-944692D02*
X612583Y-980092D01*
G54D93*
X599983Y-944692D02*
X599983Y-980092D01*
G54D93*
X574483Y-944692D02*
X574483Y-980092D01*
G54D93*
X650683Y-944692D02*
X650683Y-980092D01*
G54D93*
X561783Y-944692D02*
X561783Y-980092D01*
G54D93*
X549183Y-944692D02*
X549183Y-980092D01*
G54D93*
X536383Y-944692D02*
X536383Y-980092D01*
G54D93*
X523683Y-944692D02*
X523683Y-980092D01*
G54D93*
X803183Y-944692D02*
X803183Y-980092D01*
G54D93*
X790383Y-944692D02*
X790383Y-980092D01*
G54D93*
X777683Y-944692D02*
X777683Y-980092D01*
G54D93*
X765083Y-944692D02*
X765083Y-980092D01*
G54D93*
X739583Y-944692D02*
X739583Y-980092D01*
G54D93*
X815783Y-944692D02*
X815783Y-980092D01*
G54D93*
X726883Y-944692D02*
X726883Y-980092D01*
G54D93*
X714283Y-944692D02*
X714283Y-980092D01*
G54D93*
X701483Y-944692D02*
X701483Y-980092D01*
G54D93*
X688783Y-944692D02*
X688783Y-980092D01*
G54D93*
X968284Y-944692D02*
X968283Y-980092D01*
G54D93*
X955483Y-944692D02*
X955483Y-980092D01*
G54D93*
X942783Y-944692D02*
X942783Y-980092D01*
G54D93*
X930183Y-944692D02*
X930183Y-980092D01*
G54D93*
X904683Y-944692D02*
X904683Y-980092D01*
G54D93*
X980883Y-944692D02*
X980883Y-980092D01*
G54D93*
X891983Y-944692D02*
X891983Y-980092D01*
G54D93*
X879383Y-944692D02*
X879383Y-980092D01*
G54D93*
X866583Y-944692D02*
X866583Y-980092D01*
G54D93*
X853883Y-944692D02*
X853883Y-980092D01*
X980692Y-631540D02*
G54D92*
D03*
X853692Y-631540D02*
G54D92*
D03*
X917192Y-719748D02*
G54D92*
D03*
G54D18*
X980692Y-745148D02*
X980692Y-631540D01*
G54D18*
X853692Y-745148D02*
X853692Y-631540D01*
X815196Y-632333D02*
G54D92*
D03*
X688196Y-632333D02*
G54D92*
D03*
G54D18*
X815196Y-745942D02*
X815196Y-632333D01*
G54D18*
X688196Y-745942D02*
X688196Y-632333D01*
X751696Y-720542D02*
G54D92*
D03*
G54D93*
X968093Y-745148D02*
X968092Y-780548D01*
G54D93*
X955292Y-745148D02*
X955292Y-780548D01*
G54D93*
X942592Y-745148D02*
X942592Y-780548D01*
G54D93*
X929992Y-745148D02*
X929992Y-780548D01*
G54D93*
X904492Y-745148D02*
X904492Y-780548D01*
G54D93*
X980692Y-745148D02*
X980692Y-780548D01*
G54D93*
X891792Y-745148D02*
X891792Y-780548D01*
G54D93*
X879192Y-745148D02*
X879192Y-780548D01*
G54D93*
X866392Y-745148D02*
X866392Y-780548D01*
G54D93*
X853692Y-745148D02*
X853692Y-780548D01*
G54D93*
X802596Y-745941D02*
X802595Y-781341D01*
G54D93*
X789796Y-745941D02*
X789796Y-781341D01*
G54D93*
X777096Y-745941D02*
X777096Y-781341D01*
G54D93*
X764496Y-745941D02*
X764496Y-781341D01*
G54D93*
X738996Y-745941D02*
X738996Y-781341D01*
G54D93*
X815195Y-745941D02*
X815195Y-781341D01*
G54D93*
X726296Y-745941D02*
X726296Y-781341D01*
G54D93*
X713696Y-745941D02*
X713696Y-781341D01*
G54D93*
X700896Y-745941D02*
X700896Y-781341D01*
G54D93*
X688196Y-745941D02*
X688196Y-781341D01*
X815364Y-434940D02*
G54D92*
D03*
X688364Y-434940D02*
G54D92*
D03*
X751864Y-523148D02*
G54D92*
D03*
G54D18*
X815364Y-548548D02*
X815364Y-434940D01*
G54D18*
X688364Y-548548D02*
X688364Y-434940D01*
G54D18*
X854883Y-547901D02*
X854883Y-434293D01*
X918383Y-522501D02*
G54D92*
D03*
X981883Y-434293D02*
G54D92*
D03*
G54D18*
X981883Y-547901D02*
X981883Y-434293D01*
X854883Y-434293D02*
G54D92*
D03*
G54D93*
X969283Y-547901D02*
X969283Y-583301D01*
G54D93*
X956483Y-547901D02*
X956483Y-583301D01*
G54D93*
X943783Y-547901D02*
X943783Y-583301D01*
G54D93*
X931183Y-547901D02*
X931183Y-583301D01*
G54D93*
X905683Y-547901D02*
X905683Y-583301D01*
G54D93*
X981883Y-547901D02*
X981883Y-583301D01*
G54D93*
X892983Y-547901D02*
X892983Y-583301D01*
G54D93*
X880383Y-547901D02*
X880383Y-583301D01*
G54D93*
X867583Y-547901D02*
X867583Y-583301D01*
G54D93*
X854883Y-547901D02*
X854883Y-583301D01*
G54D93*
X802764Y-548548D02*
X802764Y-583948D01*
G54D93*
X789964Y-548548D02*
X789964Y-583948D01*
G54D93*
X777264Y-548548D02*
X777264Y-583948D01*
G54D93*
X764664Y-548548D02*
X764664Y-583948D01*
G54D93*
X739164Y-548548D02*
X739164Y-583948D01*
G54D93*
X815364Y-548548D02*
X815364Y-583948D01*
G54D93*
X726464Y-548548D02*
X726464Y-583948D01*
G54D93*
X713864Y-548548D02*
X713864Y-583948D01*
G54D93*
X701064Y-548548D02*
X701064Y-583948D01*
G54D93*
X688364Y-548548D02*
X688364Y-583948D01*
X981089Y-238236D02*
G54D92*
D03*
X854089Y-238236D02*
G54D92*
D03*
X917589Y-326444D02*
G54D92*
D03*
G54D18*
X981089Y-351844D02*
X981089Y-238236D01*
G54D18*
X854089Y-351844D02*
X854089Y-238236D01*
X917589Y-326444D02*
G54D92*
D03*
G54D18*
X689783Y-351051D02*
X689783Y-237443D01*
X753283Y-325651D02*
G54D92*
D03*
X816783Y-237443D02*
G54D92*
D03*
G54D18*
X816783Y-351051D02*
X816783Y-237443D01*
X689783Y-237443D02*
G54D92*
D03*
G54D93*
X968490Y-351844D02*
X968489Y-387244D01*
G54D93*
X955689Y-351844D02*
X955689Y-387244D01*
G54D93*
X942989Y-351844D02*
X942989Y-387244D01*
G54D93*
X930389Y-351844D02*
X930389Y-387244D01*
G54D93*
X904889Y-351844D02*
X904889Y-387244D01*
G54D93*
X981089Y-351844D02*
X981089Y-387244D01*
G54D93*
X892189Y-351844D02*
X892189Y-387244D01*
G54D93*
X879589Y-351844D02*
X879589Y-387244D01*
G54D93*
X866789Y-351844D02*
X866789Y-387244D01*
G54D93*
X854089Y-351844D02*
X854089Y-387244D01*
G54D93*
X804183Y-351051D02*
X804183Y-386451D01*
G54D93*
X791383Y-351051D02*
X791383Y-386451D01*
G54D93*
X778683Y-351051D02*
X778683Y-386451D01*
G54D93*
X766083Y-351051D02*
X766083Y-386451D01*
G54D93*
X740583Y-351051D02*
X740583Y-386451D01*
G54D93*
X816783Y-351051D02*
X816783Y-386451D01*
G54D93*
X727883Y-351051D02*
X727883Y-386451D01*
G54D93*
X715283Y-351051D02*
X715283Y-386451D01*
G54D93*
X702483Y-351051D02*
X702483Y-386451D01*
G54D93*
X689783Y-351051D02*
X689783Y-386451D01*
G54D93*
X641464Y-743900D02*
X641464Y-785650D01*
G54D93*
X628664Y-743900D02*
X628664Y-785650D01*
G54D93*
X615964Y-743900D02*
X615964Y-785650D01*
G54D93*
X603364Y-743900D02*
X603364Y-785650D01*
G54D93*
X590564Y-743900D02*
X590564Y-785650D01*
G54D93*
X577864Y-743900D02*
X577864Y-785650D01*
G54D93*
X654064Y-743900D02*
X654064Y-785650D01*
X594544Y-649335D02*
G54D71*
D03*
X653282Y-661638D02*
G54D71*
D03*
X625104Y-648938D02*
G54D71*
D03*
G54D93*
X641464Y-521650D02*
X641464Y-563400D01*
G54D93*
X628664Y-521650D02*
X628664Y-563400D01*
G54D93*
X615964Y-521650D02*
X615964Y-563400D01*
G54D93*
X603364Y-521650D02*
X603364Y-563400D01*
G54D93*
X590564Y-521650D02*
X590564Y-563400D01*
G54D93*
X577864Y-521650D02*
X577864Y-563400D01*
G54D93*
X654064Y-521650D02*
X654064Y-563400D01*
X594544Y-427085D02*
G54D71*
D03*
X653282Y-439388D02*
G54D71*
D03*
X625104Y-426688D02*
G54D71*
D03*
G54D93*
X641464Y-286700D02*
X641464Y-328450D01*
G54D93*
X628664Y-286700D02*
X628664Y-328450D01*
G54D93*
X615964Y-286700D02*
X615964Y-328450D01*
G54D93*
X603364Y-286700D02*
X603364Y-328450D01*
G54D93*
X590564Y-286700D02*
X590564Y-328450D01*
G54D93*
X577864Y-286700D02*
X577864Y-328450D01*
G54D93*
X654064Y-286700D02*
X654064Y-328450D01*
X594544Y-192135D02*
G54D71*
D03*
X653282Y-204438D02*
G54D71*
D03*
X625104Y-191738D02*
G54D71*
D03*
X981089Y-28686D02*
G54D92*
D03*
X854089Y-28686D02*
G54D92*
D03*
X917589Y-116894D02*
G54D92*
D03*
G54D18*
X981089Y-142294D02*
X981089Y-28686D01*
G54D18*
X854089Y-142294D02*
X854089Y-28686D01*
X917589Y-116894D02*
G54D92*
D03*
G54D93*
X968490Y-142294D02*
X968489Y-177694D01*
G54D93*
X955689Y-142294D02*
X955689Y-177694D01*
G54D93*
X942989Y-142294D02*
X942989Y-177694D01*
G54D93*
X930389Y-142294D02*
X930389Y-177694D01*
G54D93*
X904889Y-142294D02*
X904889Y-177694D01*
G54D93*
X981089Y-142294D02*
X981089Y-177694D01*
G54D93*
X892189Y-142294D02*
X892189Y-177694D01*
G54D93*
X879589Y-142294D02*
X879589Y-177694D01*
G54D93*
X866789Y-142294D02*
X866789Y-177694D01*
G54D93*
X854089Y-142294D02*
X854089Y-177694D01*
X815783Y-30983D02*
G54D71*
D03*
G54D40*
X815783Y-144591D02*
X815783Y-30983D01*
X815783Y-30983D02*
G54D92*
D03*
X688783Y-30983D02*
G54D92*
D03*
G54D18*
X815783Y-144591D02*
X815783Y-30983D01*
G54D18*
X688783Y-144591D02*
X688783Y-30983D01*
X752283Y-119191D02*
G54D92*
D03*
G54D93*
X803184Y-144591D02*
X803183Y-179991D01*
G54D93*
X790383Y-144591D02*
X790383Y-179991D01*
G54D93*
X777683Y-144591D02*
X777683Y-179991D01*
G54D93*
X765083Y-144591D02*
X765083Y-179991D01*
G54D93*
X739583Y-144591D02*
X739583Y-179991D01*
G54D93*
X815783Y-144591D02*
X815783Y-179991D01*
G54D93*
X726883Y-144591D02*
X726883Y-179991D01*
G54D93*
X714283Y-144591D02*
X714283Y-179991D01*
G54D93*
X701483Y-144591D02*
X701483Y-179991D01*
G54D93*
X688783Y-144591D02*
X688783Y-179991D01*
M02*
