%FSLAX34Y34*%
%MOMM*%
%LNSOLDERMASK_TOP*%
G71*
G01*
%ADD10C, 1.900*%
%ADD11C, 2.100*%
%ADD12R, 1.800X1.800*%
%ADD13R, 1.600X1.600*%
%ADD14R, 1.600X1.500*%
%ADD15R, 1.100X1.100*%
%ADD16R, 0.500X0.500*%
%ADD17C, 0.200*%
%ADD18C, 0.500*%
%ADD19R, 1.300X1.400*%
%ADD20R, 1.400X1.400*%
%ADD21R, 2.600X1.000*%
%ADD22R, 1.400X1.300*%
%ADD23R, 1.500X1.800*%
%ADD24R, 1.800X1.600*%
%ADD25C, 2.400*%
%ADD26R, 1.200X1.400*%
%ADD27C, 2.700*%
%ADD28R, 1.000X1.100*%
%ADD29R, 1.500X1.600*%
%ADD30R, 2.200X1.000*%
%ADD31R, 1.300X1.300*%
%ADD32R, 1.100X1.000*%
%ADD33R, 1.100X1.600*%
%ADD34R, 1.000X2.600*%
%ADD35C, 0.950*%
%ADD36R, 1.400X1.600*%
%LPD*%
X42330Y-651323D02*
G54D10*
D03*
X144330Y-651323D02*
G54D10*
D03*
X246330Y-651323D02*
G54D10*
D03*
X348330Y-651323D02*
G54D10*
D03*
X450330Y-651323D02*
G54D10*
D03*
X526830Y-651323D02*
G54D10*
D03*
X42330Y-609047D02*
G54D10*
D03*
X67830Y-609048D02*
G54D10*
D03*
X93331Y-609046D02*
G54D11*
D03*
X118830Y-609048D02*
G54D10*
D03*
X144330Y-609048D02*
G54D10*
D03*
X169830Y-609048D02*
G54D10*
D03*
X195330Y-609048D02*
G54D10*
D03*
X220830Y-609048D02*
G54D10*
D03*
X246330Y-609048D02*
G54D10*
D03*
X271830Y-609048D02*
G54D10*
D03*
X297330Y-609048D02*
G54D10*
D03*
X322830Y-609048D02*
G54D10*
D03*
X348330Y-609048D02*
G54D10*
D03*
X373830Y-609048D02*
G54D10*
D03*
X399330Y-609048D02*
G54D10*
D03*
X424830Y-609048D02*
G54D10*
D03*
X450330Y-609048D02*
G54D10*
D03*
X475830Y-609048D02*
G54D10*
D03*
X501330Y-609048D02*
G54D10*
D03*
X526830Y-609048D02*
G54D10*
D03*
X55080Y-589047D02*
G54D10*
D03*
X80580Y-589047D02*
G54D10*
D03*
X106080Y-589048D02*
G54D10*
D03*
X157080Y-589048D02*
G54D10*
D03*
X182580Y-589048D02*
G54D10*
D03*
X208080Y-589048D02*
G54D10*
D03*
X259080Y-589048D02*
G54D10*
D03*
X284580Y-589048D02*
G54D10*
D03*
X310080Y-589048D02*
G54D10*
D03*
X361080Y-589048D02*
G54D10*
D03*
X386580Y-589048D02*
G54D10*
D03*
X412080Y-589048D02*
G54D10*
D03*
X463080Y-589048D02*
G54D10*
D03*
X488580Y-589048D02*
G54D10*
D03*
X514080Y-589048D02*
G54D10*
D03*
X80502Y-668073D02*
G54D12*
D03*
X105902Y-668073D02*
G54D12*
D03*
X182502Y-668073D02*
G54D12*
D03*
X207902Y-668073D02*
G54D12*
D03*
X284502Y-668073D02*
G54D12*
D03*
X309902Y-668073D02*
G54D12*
D03*
X386502Y-668073D02*
G54D12*
D03*
X411902Y-668073D02*
G54D12*
D03*
X488502Y-668073D02*
G54D12*
D03*
X513902Y-668073D02*
G54D12*
D03*
X110038Y-579099D02*
G54D13*
D03*
X87813Y-579099D02*
G54D13*
D03*
X62413Y-579099D02*
G54D13*
D03*
X38998Y-579099D02*
G54D13*
D03*
X95828Y-213418D02*
G54D14*
D03*
X95828Y-192418D02*
G54D14*
D03*
X55722Y-194014D02*
G54D15*
D03*
X55722Y-213064D02*
G54D15*
D03*
X81837Y-213064D02*
G54D15*
D03*
X81884Y-193956D02*
G54D15*
D03*
G36*
X276002Y-97974D02*
X281002Y-97974D01*
X281002Y-102974D01*
X276002Y-102974D01*
X276002Y-97974D01*
G37*
G36*
X271002Y-97974D02*
X276002Y-97973D01*
X276002Y-102973D01*
X271002Y-102974D01*
X271002Y-97974D01*
G37*
X268502Y-100474D02*
G54D16*
D03*
X263502Y-100474D02*
G54D16*
D03*
X258502Y-100474D02*
G54D16*
D03*
X253502Y-100474D02*
G54D16*
D03*
G36*
X246002Y-97974D02*
X251002Y-97973D01*
X251002Y-102973D01*
X246002Y-102974D01*
X246002Y-97974D01*
G37*
X243502Y-100474D02*
G54D16*
D03*
X238502Y-100474D02*
G54D16*
D03*
X233502Y-100474D02*
G54D16*
D03*
X228502Y-100474D02*
G54D16*
D03*
G36*
X221002Y-97974D02*
X226002Y-97974D01*
X226002Y-102974D01*
X221002Y-102974D01*
X221002Y-97974D01*
G37*
X218502Y-100474D02*
G54D16*
D03*
X213502Y-100474D02*
G54D16*
D03*
X208502Y-100474D02*
G54D16*
D03*
X203502Y-100474D02*
G54D16*
D03*
X198502Y-100474D02*
G54D16*
D03*
G36*
X191002Y-97974D02*
X196002Y-97973D01*
X196002Y-102973D01*
X191002Y-102974D01*
X191002Y-97974D01*
G37*
G36*
X186002Y-97974D02*
X191002Y-97973D01*
X191002Y-102973D01*
X186002Y-102974D01*
X186002Y-97974D01*
G37*
X183502Y-100474D02*
G54D16*
D03*
X178502Y-100474D02*
G54D16*
D03*
X173502Y-100474D02*
G54D16*
D03*
G36*
X166002Y-97974D02*
X171002Y-97974D01*
X171002Y-102974D01*
X166002Y-102974D01*
X166002Y-97974D01*
G37*
X163502Y-100474D02*
G54D16*
D03*
G36*
X156002Y-97974D02*
X161002Y-97974D01*
X161002Y-102974D01*
X156002Y-102974D01*
X156002Y-97974D01*
G37*
G36*
X278997Y-97443D02*
X279996Y-98442D01*
X279997Y-102943D01*
X279497Y-103442D01*
X277496Y-103443D01*
X276996Y-102942D01*
X276997Y-98442D01*
X277996Y-97443D01*
X278997Y-97443D01*
G37*
G54D17*
X278997Y-97443D02*
X279996Y-98442D01*
X279997Y-102943D01*
X279497Y-103442D01*
X277496Y-103443D01*
X276996Y-102942D01*
X276997Y-98442D01*
X277996Y-97443D01*
X278997Y-97443D01*
G36*
X158996Y-97442D02*
X159996Y-98442D01*
X159997Y-102943D01*
X159496Y-103442D01*
X157497Y-103443D01*
X156997Y-102943D01*
X156997Y-98442D01*
X157997Y-97443D01*
X158996Y-97442D01*
G37*
G54D17*
X158996Y-97442D02*
X159996Y-98442D01*
X159997Y-102943D01*
X159496Y-103442D01*
X157497Y-103443D01*
X156997Y-102943D01*
X156997Y-98442D01*
X157997Y-97443D01*
X158996Y-97442D01*
G36*
X268997Y-93443D02*
X269996Y-94442D01*
X269996Y-105942D01*
X269497Y-106442D01*
X267497Y-106442D01*
X266997Y-105943D01*
X266996Y-94443D01*
X267996Y-93442D01*
X268997Y-93443D01*
G37*
G54D17*
X268997Y-93443D02*
X269996Y-94442D01*
X269996Y-105942D01*
X269497Y-106442D01*
X267497Y-106442D01*
X266997Y-105943D01*
X266996Y-94443D01*
X267996Y-93442D01*
X268997Y-93443D01*
G36*
X263997Y-93443D02*
X264997Y-94443D01*
X264997Y-105943D01*
X264497Y-106443D01*
X262497Y-106443D01*
X261997Y-105943D01*
X261997Y-94443D01*
X262996Y-93443D01*
X263997Y-93443D01*
G37*
G54D17*
X263997Y-93443D02*
X264997Y-94443D01*
X264997Y-105943D01*
X264497Y-106443D01*
X262497Y-106443D01*
X261997Y-105943D01*
X261997Y-94443D01*
X262996Y-93443D01*
X263997Y-93443D01*
G36*
X258997Y-93442D02*
X259996Y-94442D01*
X259997Y-105943D01*
X259496Y-106442D01*
X257496Y-106442D01*
X256996Y-105943D01*
X256997Y-94442D01*
X257996Y-93443D01*
X258997Y-93442D01*
G37*
G54D17*
X258997Y-93442D02*
X259996Y-94442D01*
X259997Y-105943D01*
X259496Y-106442D01*
X257496Y-106442D01*
X256996Y-105943D01*
X256997Y-94442D01*
X257996Y-93443D01*
X258997Y-93442D01*
G36*
X253997Y-93443D02*
X254997Y-94443D01*
X254997Y-105942D01*
X254497Y-106443D01*
X252497Y-106442D01*
X251997Y-105942D01*
X251997Y-94443D01*
X252996Y-93442D01*
X253997Y-93443D01*
G37*
G54D17*
X253997Y-93443D02*
X254997Y-94443D01*
X254997Y-105942D01*
X254497Y-106443D01*
X252497Y-106442D01*
X251997Y-105942D01*
X251997Y-94443D01*
X252996Y-93442D01*
X253997Y-93443D01*
G36*
X248997Y-93443D02*
X249996Y-94443D01*
X249996Y-105943D01*
X249497Y-106442D01*
X247496Y-106442D01*
X246997Y-105942D01*
X246997Y-94443D01*
X247997Y-93442D01*
X248997Y-93443D01*
G37*
G54D17*
X248997Y-93443D02*
X249996Y-94443D01*
X249996Y-105943D01*
X249497Y-106442D01*
X247496Y-106442D01*
X246997Y-105942D01*
X246997Y-94443D01*
X247997Y-93442D01*
X248997Y-93443D01*
G36*
X243996Y-93442D02*
X244997Y-94443D01*
X244996Y-105942D01*
X244497Y-106443D01*
X242496Y-106442D01*
X241996Y-105943D01*
X241997Y-94443D01*
X242997Y-93442D01*
X243996Y-93442D01*
G37*
G54D17*
X243996Y-93442D02*
X244997Y-94443D01*
X244996Y-105942D01*
X244497Y-106443D01*
X242496Y-106442D01*
X241996Y-105943D01*
X241997Y-94443D01*
X242997Y-93442D01*
X243996Y-93442D01*
G36*
X238996Y-93443D02*
X239997Y-94442D01*
X239996Y-105943D01*
X239496Y-106442D01*
X237497Y-106442D01*
X236997Y-105942D01*
X236997Y-94443D01*
X237997Y-93443D01*
X238996Y-93443D01*
G37*
G54D17*
X238996Y-93443D02*
X239997Y-94442D01*
X239996Y-105943D01*
X239496Y-106442D01*
X237497Y-106442D01*
X236997Y-105942D01*
X236997Y-94443D01*
X237997Y-93443D01*
X238996Y-93443D01*
G36*
X233996Y-93443D02*
X234996Y-94442D01*
X234997Y-105942D01*
X234496Y-106442D01*
X232497Y-106442D01*
X231996Y-105943D01*
X231996Y-94442D01*
X232996Y-93443D01*
X233996Y-93443D01*
G37*
G54D17*
X233996Y-93443D02*
X234996Y-94442D01*
X234997Y-105942D01*
X234496Y-106442D01*
X232497Y-106442D01*
X231996Y-105943D01*
X231996Y-94442D01*
X232996Y-93443D01*
X233996Y-93443D01*
G36*
X228996Y-93442D02*
X229997Y-94442D01*
X229997Y-105942D01*
X229497Y-106443D01*
X227496Y-106442D01*
X226996Y-105943D01*
X226996Y-94443D01*
X227997Y-93442D01*
X228996Y-93442D01*
G37*
G54D17*
X228996Y-93442D02*
X229997Y-94442D01*
X229997Y-105942D01*
X229497Y-106443D01*
X227496Y-106442D01*
X226996Y-105943D01*
X226996Y-94443D01*
X227997Y-93442D01*
X228996Y-93442D01*
G36*
X223997Y-93442D02*
X224997Y-94442D01*
X224997Y-105943D01*
X224497Y-106442D01*
X222497Y-106442D01*
X221996Y-105942D01*
X221997Y-94443D01*
X222997Y-93442D01*
X223997Y-93442D01*
G37*
G54D17*
X223997Y-93442D02*
X224997Y-94442D01*
X224997Y-105943D01*
X224497Y-106442D01*
X222497Y-106442D01*
X221996Y-105942D01*
X221997Y-94443D01*
X222997Y-93442D01*
X223997Y-93442D01*
G36*
X218997Y-93442D02*
X219997Y-94442D01*
X219997Y-105942D01*
X219496Y-106442D01*
X217496Y-106442D01*
X216997Y-105942D01*
X216997Y-94442D01*
X217997Y-93442D01*
X218997Y-93442D01*
G37*
G54D17*
X218997Y-93442D02*
X219997Y-94442D01*
X219997Y-105942D01*
X219496Y-106442D01*
X217496Y-106442D01*
X216997Y-105942D01*
X216997Y-94442D01*
X217997Y-93442D01*
X218997Y-93442D01*
G36*
X213996Y-93443D02*
X214996Y-94443D01*
X214996Y-105943D01*
X214497Y-106442D01*
X212496Y-106442D01*
X211996Y-105942D01*
X211996Y-94442D01*
X212996Y-93442D01*
X213996Y-93443D01*
G37*
G54D17*
X213996Y-93443D02*
X214996Y-94443D01*
X214996Y-105943D01*
X214497Y-106442D01*
X212496Y-106442D01*
X211996Y-105942D01*
X211996Y-94442D01*
X212996Y-93442D01*
X213996Y-93443D01*
G36*
X208997Y-93443D02*
X209997Y-94442D01*
X209997Y-105942D01*
X209496Y-106442D01*
X207497Y-106442D01*
X206997Y-105943D01*
X206997Y-94443D01*
X207997Y-93442D01*
X208997Y-93443D01*
G37*
G54D17*
X208997Y-93443D02*
X209997Y-94442D01*
X209997Y-105942D01*
X209496Y-106442D01*
X207497Y-106442D01*
X206997Y-105943D01*
X206997Y-94443D01*
X207997Y-93442D01*
X208997Y-93443D01*
G36*
X203997Y-93442D02*
X204997Y-94443D01*
X204996Y-105942D01*
X204497Y-106443D01*
X202497Y-106442D01*
X201996Y-105942D01*
X201997Y-94443D01*
X202996Y-93443D01*
X203997Y-93442D01*
G37*
G54D17*
X203997Y-93442D02*
X204997Y-94443D01*
X204996Y-105942D01*
X204497Y-106443D01*
X202497Y-106442D01*
X201996Y-105942D01*
X201997Y-94443D01*
X202996Y-93443D01*
X203997Y-93442D01*
G36*
X198997Y-93442D02*
X199997Y-94442D01*
X199997Y-105942D01*
X199496Y-106442D01*
X197497Y-106443D01*
X196997Y-105942D01*
X196997Y-94443D01*
X197997Y-93442D01*
X198997Y-93442D01*
G37*
G54D17*
X198997Y-93442D02*
X199997Y-94442D01*
X199997Y-105942D01*
X199496Y-106442D01*
X197497Y-106443D01*
X196997Y-105942D01*
X196997Y-94443D01*
X197997Y-93442D01*
X198997Y-93442D01*
G36*
X193997Y-93443D02*
X194997Y-94442D01*
X194996Y-105942D01*
X194497Y-106442D01*
X192496Y-106443D01*
X191996Y-105943D01*
X191997Y-94442D01*
X192997Y-93443D01*
X193997Y-93443D01*
G37*
G54D17*
X193997Y-93443D02*
X194997Y-94442D01*
X194996Y-105942D01*
X194497Y-106442D01*
X192496Y-106443D01*
X191996Y-105943D01*
X191997Y-94442D01*
X192997Y-93443D01*
X193997Y-93443D01*
G36*
X188996Y-93442D02*
X189997Y-94443D01*
X189997Y-105943D01*
X189497Y-106442D01*
X187497Y-106442D01*
X186997Y-105942D01*
X186997Y-94443D01*
X187997Y-93442D01*
X188996Y-93442D01*
G37*
G54D17*
X188996Y-93442D02*
X189997Y-94443D01*
X189997Y-105943D01*
X189497Y-106442D01*
X187497Y-106442D01*
X186997Y-105942D01*
X186997Y-94443D01*
X187997Y-93442D01*
X188996Y-93442D01*
G36*
X183997Y-93443D02*
X184996Y-94442D01*
X184996Y-105942D01*
X184497Y-106443D01*
X182496Y-106443D01*
X181997Y-105942D01*
X181997Y-94443D01*
X182996Y-93442D01*
X183997Y-93443D01*
G37*
G54D17*
X183997Y-93443D02*
X184996Y-94442D01*
X184996Y-105942D01*
X184497Y-106443D01*
X182496Y-106443D01*
X181997Y-105942D01*
X181997Y-94443D01*
X182996Y-93442D01*
X183997Y-93443D01*
G36*
X178997Y-93442D02*
X179996Y-94442D01*
X179996Y-105942D01*
X179497Y-106442D01*
X177497Y-106442D01*
X176997Y-105942D01*
X176997Y-94442D01*
X177997Y-93443D01*
X178997Y-93442D01*
G37*
G54D17*
X178997Y-93442D02*
X179996Y-94442D01*
X179996Y-105942D01*
X179497Y-106442D01*
X177497Y-106442D01*
X176997Y-105942D01*
X176997Y-94442D01*
X177997Y-93443D01*
X178997Y-93442D01*
G36*
X173997Y-93442D02*
X174997Y-94442D01*
X174997Y-105942D01*
X174497Y-106443D01*
X172496Y-106442D01*
X171997Y-105943D01*
X171997Y-94443D01*
X172996Y-93442D01*
X173997Y-93442D01*
G37*
G54D17*
X173997Y-93442D02*
X174997Y-94442D01*
X174997Y-105942D01*
X174497Y-106443D01*
X172496Y-106442D01*
X171997Y-105943D01*
X171997Y-94443D01*
X172996Y-93442D01*
X173997Y-93442D01*
G36*
X168997Y-93442D02*
X169996Y-94442D01*
X169997Y-105942D01*
X169497Y-106443D01*
X167496Y-106442D01*
X166996Y-105943D01*
X166996Y-94443D01*
X167997Y-93442D01*
X168997Y-93442D01*
G37*
G54D17*
X168997Y-93442D02*
X169996Y-94442D01*
X169997Y-105942D01*
X169497Y-106443D01*
X167496Y-106442D01*
X166996Y-105943D01*
X166996Y-94443D01*
X167997Y-93442D01*
X168997Y-93442D01*
G36*
X163996Y-93442D02*
X164997Y-94443D01*
X164997Y-105942D01*
X164496Y-106443D01*
X162497Y-106442D01*
X161997Y-105942D01*
X161997Y-94443D01*
X162997Y-93442D01*
X163996Y-93442D01*
G37*
G54D17*
X163996Y-93442D02*
X164997Y-94443D01*
X164997Y-105942D01*
X164496Y-106443D01*
X162497Y-106442D01*
X161997Y-105942D01*
X161997Y-94443D01*
X162997Y-93442D01*
X163996Y-93442D01*
G36*
X273997Y-93443D02*
X274996Y-94443D01*
X274996Y-105942D01*
X274497Y-106442D01*
X272497Y-106443D01*
X271997Y-105942D01*
X271997Y-94442D01*
X272997Y-93443D01*
X273997Y-93443D01*
G37*
G54D17*
X273997Y-93443D02*
X274996Y-94443D01*
X274996Y-105942D01*
X274497Y-106442D01*
X272497Y-106443D01*
X271997Y-105942D01*
X271997Y-94442D01*
X272997Y-93443D01*
X273997Y-93443D01*
X296466Y-238438D02*
G54D16*
D03*
X296466Y-233438D02*
G54D16*
D03*
X296466Y-228438D02*
G54D16*
D03*
X296466Y-223438D02*
G54D16*
D03*
X296466Y-218438D02*
G54D16*
D03*
X296466Y-213438D02*
G54D16*
D03*
X296466Y-208438D02*
G54D16*
D03*
X296466Y-203438D02*
G54D16*
D03*
X296466Y-198438D02*
G54D16*
D03*
X296466Y-193438D02*
G54D16*
D03*
X296466Y-188438D02*
G54D16*
D03*
X296466Y-183438D02*
G54D16*
D03*
X296466Y-178438D02*
G54D16*
D03*
X296466Y-173438D02*
G54D16*
D03*
X296466Y-168438D02*
G54D16*
D03*
X296466Y-163438D02*
G54D16*
D03*
X296466Y-158438D02*
G54D16*
D03*
X296466Y-153438D02*
G54D16*
D03*
X296466Y-148438D02*
G54D16*
D03*
X296466Y-143438D02*
G54D16*
D03*
X296466Y-138438D02*
G54D16*
D03*
X296466Y-133438D02*
G54D16*
D03*
X296466Y-128438D02*
G54D16*
D03*
X296466Y-123438D02*
G54D16*
D03*
X296466Y-118438D02*
G54D16*
D03*
G36*
X299496Y-238943D02*
X298497Y-239942D01*
X293997Y-239942D01*
X293496Y-239442D01*
X293496Y-237442D01*
X293996Y-236942D01*
X298497Y-236942D01*
X299496Y-237943D01*
X299496Y-238943D01*
G37*
G54D17*
X299496Y-238943D02*
X298497Y-239942D01*
X293997Y-239942D01*
X293496Y-239442D01*
X293496Y-237442D01*
X293996Y-236942D01*
X298497Y-236942D01*
X299496Y-237943D01*
X299496Y-238943D01*
G36*
X299497Y-118943D02*
X298496Y-119942D01*
X293996Y-119943D01*
X293497Y-119442D01*
X293497Y-117442D01*
X293996Y-116943D01*
X298496Y-116942D01*
X299496Y-117943D01*
X299497Y-118943D01*
G37*
G54D17*
X299497Y-118943D02*
X298496Y-119942D01*
X293996Y-119943D01*
X293497Y-119442D01*
X293497Y-117442D01*
X293996Y-116943D01*
X298496Y-116942D01*
X299496Y-117943D01*
X299497Y-118943D01*
G36*
X303497Y-228942D02*
X302497Y-229942D01*
X290996Y-229942D01*
X290497Y-229442D01*
X290496Y-227442D01*
X290996Y-226943D01*
X302496Y-226942D01*
X303497Y-227942D01*
X303497Y-228942D01*
G37*
G54D17*
X303497Y-228942D02*
X302497Y-229942D01*
X290996Y-229942D01*
X290497Y-229442D01*
X290496Y-227442D01*
X290996Y-226943D01*
X302496Y-226942D01*
X303497Y-227942D01*
X303497Y-228942D01*
G36*
X303497Y-223942D02*
X302496Y-224942D01*
X290996Y-224942D01*
X290496Y-224443D01*
X290497Y-222442D01*
X290996Y-221943D01*
X302497Y-221942D01*
X303496Y-222942D01*
X303497Y-223942D01*
G37*
G54D17*
X303497Y-223942D02*
X302496Y-224942D01*
X290996Y-224942D01*
X290496Y-224443D01*
X290497Y-222442D01*
X290996Y-221943D01*
X302497Y-221942D01*
X303496Y-222942D01*
X303497Y-223942D01*
G36*
X303497Y-218942D02*
X302497Y-219942D01*
X290996Y-219943D01*
X290497Y-219443D01*
X290497Y-217443D01*
X290997Y-216942D01*
X302496Y-216942D01*
X303497Y-217942D01*
X303497Y-218942D01*
G37*
G54D17*
X303497Y-218942D02*
X302497Y-219942D01*
X290996Y-219943D01*
X290497Y-219443D01*
X290497Y-217443D01*
X290997Y-216942D01*
X302496Y-216942D01*
X303497Y-217942D01*
X303497Y-218942D01*
G36*
X303497Y-213943D02*
X302496Y-214942D01*
X290996Y-214942D01*
X290497Y-214442D01*
X290496Y-212443D01*
X290997Y-211943D01*
X302496Y-211942D01*
X303497Y-212942D01*
X303497Y-213943D01*
G37*
G54D17*
X303497Y-213943D02*
X302496Y-214942D01*
X290996Y-214942D01*
X290497Y-214442D01*
X290496Y-212443D01*
X290997Y-211943D01*
X302496Y-211942D01*
X303497Y-212942D01*
X303497Y-213943D01*
G36*
X303497Y-208943D02*
X302496Y-209942D01*
X290997Y-209942D01*
X290496Y-209443D01*
X290497Y-207442D01*
X290997Y-206942D01*
X302496Y-206942D01*
X303497Y-207943D01*
X303497Y-208943D01*
G37*
G54D17*
X303497Y-208943D02*
X302496Y-209942D01*
X290997Y-209942D01*
X290496Y-209443D01*
X290497Y-207442D01*
X290997Y-206942D01*
X302496Y-206942D01*
X303497Y-207943D01*
X303497Y-208943D01*
G36*
X303497Y-203942D02*
X302497Y-204942D01*
X290997Y-204942D01*
X290497Y-204442D01*
X290496Y-202442D01*
X290996Y-201943D01*
X302497Y-201943D01*
X303497Y-202943D01*
X303497Y-203942D01*
G37*
G54D17*
X303497Y-203942D02*
X302497Y-204942D01*
X290997Y-204942D01*
X290497Y-204442D01*
X290496Y-202442D01*
X290996Y-201943D01*
X302497Y-201943D01*
X303497Y-202943D01*
X303497Y-203942D01*
G36*
X303496Y-198942D02*
X302496Y-199942D01*
X290997Y-199942D01*
X290496Y-199442D01*
X290496Y-197443D01*
X290997Y-196942D01*
X302497Y-196942D01*
X303496Y-197943D01*
X303496Y-198942D01*
G37*
G54D17*
X303496Y-198942D02*
X302496Y-199942D01*
X290997Y-199942D01*
X290496Y-199442D01*
X290496Y-197443D01*
X290997Y-196942D01*
X302497Y-196942D01*
X303496Y-197943D01*
X303496Y-198942D01*
G36*
X303497Y-193943D02*
X302497Y-194943D01*
X290996Y-194943D01*
X290496Y-194442D01*
X290497Y-192442D01*
X290997Y-191942D01*
X302497Y-191942D01*
X303497Y-192943D01*
X303497Y-193943D01*
G37*
G54D17*
X303497Y-193943D02*
X302497Y-194943D01*
X290996Y-194943D01*
X290496Y-194442D01*
X290497Y-192442D01*
X290997Y-191942D01*
X302497Y-191942D01*
X303497Y-192943D01*
X303497Y-193943D01*
G36*
X303497Y-188942D02*
X302496Y-189942D01*
X290996Y-189943D01*
X290496Y-189442D01*
X290496Y-187443D01*
X290996Y-186942D01*
X302496Y-186942D01*
X303497Y-187943D01*
X303497Y-188942D01*
G37*
G54D17*
X303497Y-188942D02*
X302496Y-189942D01*
X290996Y-189943D01*
X290496Y-189442D01*
X290496Y-187443D01*
X290996Y-186942D01*
X302496Y-186942D01*
X303497Y-187943D01*
X303497Y-188942D01*
G36*
X303496Y-183942D02*
X302497Y-184942D01*
X290996Y-184942D01*
X290496Y-184443D01*
X290496Y-182442D01*
X290996Y-181942D01*
X302497Y-181943D01*
X303497Y-182943D01*
X303496Y-183942D01*
G37*
G54D17*
X303496Y-183942D02*
X302497Y-184942D01*
X290996Y-184942D01*
X290496Y-184443D01*
X290496Y-182442D01*
X290996Y-181942D01*
X302497Y-181943D01*
X303497Y-182943D01*
X303496Y-183942D01*
G36*
X303497Y-178943D02*
X302497Y-179942D01*
X290997Y-179942D01*
X290496Y-179443D01*
X290496Y-177442D01*
X290996Y-176943D01*
X302496Y-176943D01*
X303497Y-177943D01*
X303497Y-178943D01*
G37*
G54D17*
X303497Y-178943D02*
X302497Y-179942D01*
X290997Y-179942D01*
X290496Y-179443D01*
X290496Y-177442D01*
X290996Y-176943D01*
X302496Y-176943D01*
X303497Y-177943D01*
X303497Y-178943D01*
G36*
X303496Y-173942D02*
X302496Y-174942D01*
X290996Y-174942D01*
X290496Y-174442D01*
X290497Y-172442D01*
X290997Y-171943D01*
X302497Y-171943D01*
X303497Y-172942D01*
X303496Y-173942D01*
G37*
G54D17*
X303496Y-173942D02*
X302496Y-174942D01*
X290996Y-174942D01*
X290496Y-174442D01*
X290497Y-172442D01*
X290997Y-171943D01*
X302497Y-171943D01*
X303497Y-172942D01*
X303496Y-173942D01*
G36*
X303497Y-168943D02*
X302496Y-169943D01*
X290996Y-169943D01*
X290497Y-169442D01*
X290496Y-167442D01*
X290996Y-166943D01*
X302497Y-166942D01*
X303497Y-167942D01*
X303497Y-168943D01*
G37*
G54D17*
X303497Y-168943D02*
X302496Y-169943D01*
X290996Y-169943D01*
X290497Y-169442D01*
X290496Y-167442D01*
X290996Y-166943D01*
X302497Y-166942D01*
X303497Y-167942D01*
X303497Y-168943D01*
G36*
X303497Y-163943D02*
X302496Y-164942D01*
X290996Y-164943D01*
X290496Y-164443D01*
X290497Y-162443D01*
X290997Y-161942D01*
X302496Y-161942D01*
X303497Y-162942D01*
X303497Y-163943D01*
G37*
G54D17*
X303497Y-163943D02*
X302496Y-164942D01*
X290996Y-164943D01*
X290496Y-164443D01*
X290497Y-162443D01*
X290997Y-161942D01*
X302496Y-161942D01*
X303497Y-162942D01*
X303497Y-163943D01*
G36*
X303497Y-158943D02*
X302496Y-159942D01*
X290997Y-159943D01*
X290497Y-159442D01*
X290496Y-157442D01*
X290997Y-156942D01*
X302497Y-156942D01*
X303497Y-157943D01*
X303497Y-158943D01*
G37*
G54D17*
X303497Y-158943D02*
X302496Y-159942D01*
X290997Y-159943D01*
X290497Y-159442D01*
X290496Y-157442D01*
X290997Y-156942D01*
X302497Y-156942D01*
X303497Y-157943D01*
X303497Y-158943D01*
G36*
X303496Y-153943D02*
X302496Y-154942D01*
X290997Y-154943D01*
X290496Y-154442D01*
X290496Y-152442D01*
X290997Y-151942D01*
X302496Y-151942D01*
X303497Y-152942D01*
X303496Y-153943D01*
G37*
G54D17*
X303496Y-153943D02*
X302496Y-154942D01*
X290997Y-154943D01*
X290496Y-154442D01*
X290496Y-152442D01*
X290997Y-151942D01*
X302496Y-151942D01*
X303497Y-152942D01*
X303496Y-153943D01*
G36*
X303497Y-148942D02*
X302496Y-149942D01*
X290996Y-149942D01*
X290496Y-149442D01*
X290496Y-147442D01*
X290996Y-146943D01*
X302497Y-146942D01*
X303497Y-147943D01*
X303497Y-148942D01*
G37*
G54D17*
X303497Y-148942D02*
X302496Y-149942D01*
X290996Y-149942D01*
X290496Y-149442D01*
X290496Y-147442D01*
X290996Y-146943D01*
X302497Y-146942D01*
X303497Y-147943D01*
X303497Y-148942D01*
G36*
X303497Y-143942D02*
X302496Y-144943D01*
X290997Y-144942D01*
X290496Y-144443D01*
X290496Y-142442D01*
X290996Y-141942D01*
X302496Y-141943D01*
X303496Y-142942D01*
X303497Y-143942D01*
G37*
G54D17*
X303497Y-143942D02*
X302496Y-144943D01*
X290997Y-144942D01*
X290496Y-144443D01*
X290496Y-142442D01*
X290996Y-141942D01*
X302496Y-141943D01*
X303496Y-142942D01*
X303497Y-143942D01*
G36*
X303497Y-138943D02*
X302496Y-139943D01*
X290997Y-139943D01*
X290496Y-139442D01*
X290496Y-137443D01*
X290997Y-136943D01*
X302496Y-136942D01*
X303496Y-137942D01*
X303497Y-138943D01*
G37*
G54D17*
X303497Y-138943D02*
X302496Y-139943D01*
X290997Y-139943D01*
X290496Y-139442D01*
X290496Y-137443D01*
X290997Y-136943D01*
X302496Y-136942D01*
X303496Y-137942D01*
X303497Y-138943D01*
G36*
X303497Y-133943D02*
X302496Y-134943D01*
X290996Y-134943D01*
X290496Y-134442D01*
X290497Y-132443D01*
X290996Y-131942D01*
X302496Y-131942D01*
X303497Y-132943D01*
X303497Y-133943D01*
G37*
G54D17*
X303497Y-133943D02*
X302496Y-134943D01*
X290996Y-134943D01*
X290496Y-134442D01*
X290497Y-132443D01*
X290996Y-131942D01*
X302496Y-131942D01*
X303497Y-132943D01*
X303497Y-133943D01*
G36*
X303497Y-128942D02*
X302497Y-129942D01*
X290997Y-129943D01*
X290496Y-129442D01*
X290496Y-127442D01*
X290996Y-126943D01*
X302496Y-126942D01*
X303497Y-127943D01*
X303497Y-128942D01*
G37*
G54D17*
X303497Y-128942D02*
X302497Y-129942D01*
X290997Y-129943D01*
X290496Y-129442D01*
X290496Y-127442D01*
X290996Y-126943D01*
X302496Y-126942D01*
X303497Y-127943D01*
X303497Y-128942D01*
G36*
X303497Y-123942D02*
X302496Y-124942D01*
X290996Y-124942D01*
X290496Y-124442D01*
X290496Y-122442D01*
X290997Y-121943D01*
X302496Y-121943D01*
X303496Y-122943D01*
X303497Y-123942D01*
G37*
G54D17*
X303497Y-123942D02*
X302496Y-124942D01*
X290996Y-124942D01*
X290496Y-124442D01*
X290496Y-122442D01*
X290997Y-121943D01*
X302496Y-121943D01*
X303496Y-122943D01*
X303497Y-123942D01*
G36*
X303497Y-233943D02*
X302496Y-234942D01*
X290997Y-234942D01*
X290496Y-234443D01*
X290496Y-232442D01*
X290996Y-231942D01*
X302496Y-231942D01*
X303497Y-232943D01*
X303497Y-233943D01*
G37*
G54D17*
X303497Y-233943D02*
X302496Y-234942D01*
X290997Y-234942D01*
X290496Y-234443D01*
X290496Y-232442D01*
X290996Y-231942D01*
X302496Y-231942D01*
X303497Y-232943D01*
X303497Y-233943D01*
X158502Y-256411D02*
G54D16*
D03*
X163502Y-256412D02*
G54D16*
D03*
X168502Y-256412D02*
G54D16*
D03*
X173502Y-256411D02*
G54D16*
D03*
X178502Y-256412D02*
G54D16*
D03*
X183502Y-256411D02*
G54D16*
D03*
X188502Y-256412D02*
G54D16*
D03*
X193502Y-256411D02*
G54D16*
D03*
X198502Y-256411D02*
G54D16*
D03*
X203502Y-256411D02*
G54D16*
D03*
X208502Y-256411D02*
G54D16*
D03*
X213502Y-256412D02*
G54D16*
D03*
X218502Y-256411D02*
G54D16*
D03*
X223502Y-256412D02*
G54D16*
D03*
X228502Y-256411D02*
G54D16*
D03*
X233502Y-256412D02*
G54D16*
D03*
X238502Y-256411D02*
G54D16*
D03*
X243502Y-256412D02*
G54D16*
D03*
X248502Y-256411D02*
G54D16*
D03*
X253502Y-256412D02*
G54D16*
D03*
X258502Y-256411D02*
G54D16*
D03*
X263502Y-256411D02*
G54D16*
D03*
X268502Y-256411D02*
G54D16*
D03*
X273502Y-256411D02*
G54D16*
D03*
X278502Y-256412D02*
G54D16*
D03*
G36*
X157997Y-259442D02*
X156996Y-258442D01*
X156997Y-253942D01*
X157497Y-253442D01*
X159496Y-253442D01*
X159996Y-253942D01*
X159997Y-258443D01*
X158996Y-259442D01*
X157997Y-259442D01*
G37*
G54D17*
X157997Y-259442D02*
X156996Y-258442D01*
X156997Y-253942D01*
X157497Y-253442D01*
X159496Y-253442D01*
X159996Y-253942D01*
X159997Y-258443D01*
X158996Y-259442D01*
X157997Y-259442D01*
G36*
X277997Y-259443D02*
X276997Y-258442D01*
X276996Y-253942D01*
X277497Y-253443D01*
X279497Y-253442D01*
X279997Y-253942D01*
X279997Y-258443D01*
X278997Y-259442D01*
X277997Y-259443D01*
G37*
G54D17*
X277997Y-259443D02*
X276997Y-258442D01*
X276996Y-253942D01*
X277497Y-253443D01*
X279497Y-253442D01*
X279997Y-253942D01*
X279997Y-258443D01*
X278997Y-259442D01*
X277997Y-259443D01*
G36*
X167997Y-263442D02*
X166997Y-262442D01*
X166996Y-250942D01*
X167496Y-250442D01*
X169496Y-250442D01*
X169997Y-250943D01*
X169997Y-262442D01*
X168997Y-263442D01*
X167997Y-263442D01*
G37*
G54D17*
X167997Y-263442D02*
X166997Y-262442D01*
X166996Y-250942D01*
X167496Y-250442D01*
X169496Y-250442D01*
X169997Y-250943D01*
X169997Y-262442D01*
X168997Y-263442D01*
X167997Y-263442D01*
G36*
X172997Y-263442D02*
X171997Y-262443D01*
X171997Y-250942D01*
X172497Y-250442D01*
X174497Y-250443D01*
X174996Y-250942D01*
X174997Y-262443D01*
X173997Y-263442D01*
X172997Y-263442D01*
G37*
G54D17*
X172997Y-263442D02*
X171997Y-262443D01*
X171997Y-250942D01*
X172497Y-250442D01*
X174497Y-250443D01*
X174996Y-250942D01*
X174997Y-262443D01*
X173997Y-263442D01*
X172997Y-263442D01*
G36*
X177996Y-263443D02*
X176997Y-262442D01*
X176997Y-250943D01*
X177497Y-250442D01*
X179497Y-250443D01*
X179997Y-250942D01*
X179997Y-262442D01*
X178996Y-263442D01*
X177996Y-263443D01*
G37*
G54D17*
X177996Y-263443D02*
X176997Y-262442D01*
X176997Y-250943D01*
X177497Y-250442D01*
X179497Y-250443D01*
X179997Y-250942D01*
X179997Y-262442D01*
X178996Y-263442D01*
X177996Y-263443D01*
G36*
X182997Y-263442D02*
X181997Y-262442D01*
X181996Y-250942D01*
X182496Y-250442D01*
X184497Y-250443D01*
X184997Y-250942D01*
X184997Y-262443D01*
X183997Y-263442D01*
X182997Y-263442D01*
G37*
G54D17*
X182997Y-263442D02*
X181997Y-262442D01*
X181996Y-250942D01*
X182496Y-250442D01*
X184497Y-250443D01*
X184997Y-250942D01*
X184997Y-262443D01*
X183997Y-263442D01*
X182997Y-263442D01*
G36*
X187997Y-263443D02*
X186996Y-262443D01*
X186997Y-250943D01*
X187497Y-250442D01*
X189496Y-250442D01*
X189997Y-250942D01*
X189996Y-262442D01*
X188997Y-263442D01*
X187997Y-263443D01*
G37*
G54D17*
X187997Y-263443D02*
X186996Y-262443D01*
X186997Y-250943D01*
X187497Y-250442D01*
X189496Y-250442D01*
X189997Y-250942D01*
X189996Y-262442D01*
X188997Y-263442D01*
X187997Y-263443D01*
G36*
X192997Y-263442D02*
X191996Y-262443D01*
X191996Y-250942D01*
X192496Y-250442D01*
X194497Y-250443D01*
X194997Y-250942D01*
X194997Y-262443D01*
X193997Y-263443D01*
X192997Y-263442D01*
G37*
G54D17*
X192997Y-263442D02*
X191996Y-262443D01*
X191996Y-250942D01*
X192496Y-250442D01*
X194497Y-250443D01*
X194997Y-250942D01*
X194997Y-262443D01*
X193997Y-263443D01*
X192997Y-263442D01*
G36*
X197996Y-263442D02*
X196996Y-262442D01*
X196996Y-250943D01*
X197497Y-250443D01*
X199496Y-250442D01*
X199997Y-250943D01*
X199996Y-262442D01*
X198997Y-263442D01*
X197996Y-263442D01*
G37*
G54D17*
X197996Y-263442D02*
X196996Y-262442D01*
X196996Y-250943D01*
X197497Y-250443D01*
X199496Y-250442D01*
X199997Y-250943D01*
X199996Y-262442D01*
X198997Y-263442D01*
X197996Y-263442D01*
G36*
X202996Y-263442D02*
X201996Y-262442D01*
X201997Y-250942D01*
X202497Y-250442D01*
X204497Y-250443D01*
X204997Y-250942D01*
X204997Y-262442D01*
X203997Y-263443D01*
X202996Y-263442D01*
G37*
G54D17*
X202996Y-263442D02*
X201996Y-262442D01*
X201997Y-250942D01*
X202497Y-250442D01*
X204497Y-250443D01*
X204997Y-250942D01*
X204997Y-262442D01*
X203997Y-263443D01*
X202996Y-263442D01*
G36*
X207997Y-263443D02*
X206996Y-262442D01*
X206997Y-250943D01*
X207497Y-250443D01*
X209497Y-250442D01*
X209997Y-250942D01*
X209997Y-262443D01*
X208997Y-263442D01*
X207997Y-263443D01*
G37*
G54D17*
X207997Y-263443D02*
X206996Y-262442D01*
X206997Y-250943D01*
X207497Y-250443D01*
X209497Y-250442D01*
X209997Y-250942D01*
X209997Y-262443D01*
X208997Y-263442D01*
X207997Y-263443D01*
G36*
X212997Y-263442D02*
X211997Y-262442D01*
X211997Y-250942D01*
X212496Y-250443D01*
X214497Y-250442D01*
X214996Y-250942D01*
X214996Y-262442D01*
X213997Y-263442D01*
X212997Y-263442D01*
G37*
G54D17*
X212997Y-263442D02*
X211997Y-262442D01*
X211997Y-250942D01*
X212496Y-250443D01*
X214497Y-250442D01*
X214996Y-250942D01*
X214996Y-262442D01*
X213997Y-263442D01*
X212997Y-263442D01*
G36*
X217997Y-263443D02*
X216997Y-262442D01*
X216996Y-250943D01*
X217496Y-250442D01*
X219497Y-250443D01*
X219996Y-250942D01*
X219997Y-262442D01*
X218997Y-263443D01*
X217997Y-263443D01*
G37*
G54D17*
X217997Y-263443D02*
X216997Y-262442D01*
X216996Y-250943D01*
X217496Y-250442D01*
X219497Y-250443D01*
X219996Y-250942D01*
X219997Y-262442D01*
X218997Y-263443D01*
X217997Y-263443D01*
G36*
X222996Y-263442D02*
X221996Y-262442D01*
X221997Y-250942D01*
X222496Y-250442D01*
X224497Y-250442D01*
X224997Y-250942D01*
X224997Y-262442D01*
X223997Y-263442D01*
X222996Y-263442D01*
G37*
G54D17*
X222996Y-263442D02*
X221996Y-262442D01*
X221997Y-250942D01*
X222496Y-250442D01*
X224497Y-250442D01*
X224997Y-250942D01*
X224997Y-262442D01*
X223997Y-263442D01*
X222996Y-263442D01*
G36*
X227997Y-263443D02*
X226997Y-262443D01*
X226996Y-250942D01*
X227497Y-250443D01*
X229496Y-250442D01*
X229996Y-250942D01*
X229997Y-262442D01*
X228997Y-263443D01*
X227997Y-263443D01*
G37*
G54D17*
X227997Y-263443D02*
X226997Y-262443D01*
X226996Y-250942D01*
X227497Y-250443D01*
X229496Y-250442D01*
X229996Y-250942D01*
X229997Y-262442D01*
X228997Y-263443D01*
X227997Y-263443D01*
G36*
X232997Y-263442D02*
X231996Y-262443D01*
X231997Y-250943D01*
X232497Y-250442D01*
X234497Y-250443D01*
X234997Y-250943D01*
X234997Y-262443D01*
X233996Y-263442D01*
X232997Y-263442D01*
G37*
G54D17*
X232997Y-263442D02*
X231996Y-262443D01*
X231997Y-250943D01*
X232497Y-250442D01*
X234497Y-250443D01*
X234997Y-250943D01*
X234997Y-262443D01*
X233996Y-263442D01*
X232997Y-263442D01*
G36*
X237997Y-263442D02*
X236997Y-262442D01*
X236996Y-250942D01*
X237496Y-250443D01*
X239496Y-250442D01*
X239996Y-250942D01*
X239997Y-262443D01*
X238997Y-263442D01*
X237997Y-263442D01*
G37*
G54D17*
X237997Y-263442D02*
X236997Y-262442D01*
X236996Y-250942D01*
X237496Y-250443D01*
X239496Y-250442D01*
X239996Y-250942D01*
X239997Y-262443D01*
X238997Y-263442D01*
X237997Y-263442D01*
G36*
X242997Y-263443D02*
X241997Y-262442D01*
X241997Y-250943D01*
X242497Y-250443D01*
X244497Y-250442D01*
X244997Y-250943D01*
X244996Y-262442D01*
X243997Y-263442D01*
X242997Y-263443D01*
G37*
G54D17*
X242997Y-263443D02*
X241997Y-262442D01*
X241997Y-250943D01*
X242497Y-250443D01*
X244497Y-250442D01*
X244997Y-250943D01*
X244996Y-262442D01*
X243997Y-263442D01*
X242997Y-263443D01*
G36*
X247997Y-263442D02*
X246997Y-262443D01*
X246996Y-250942D01*
X247496Y-250443D01*
X249497Y-250442D01*
X249997Y-250942D01*
X249997Y-262443D01*
X248997Y-263442D01*
X247997Y-263442D01*
G37*
G54D17*
X247997Y-263442D02*
X246997Y-262443D01*
X246996Y-250942D01*
X247496Y-250443D01*
X249497Y-250442D01*
X249997Y-250942D01*
X249997Y-262443D01*
X248997Y-263442D01*
X247997Y-263442D01*
G36*
X252997Y-263443D02*
X251996Y-262442D01*
X251997Y-250942D01*
X252497Y-250442D01*
X254497Y-250443D01*
X254997Y-250943D01*
X254996Y-262442D01*
X253997Y-263443D01*
X252997Y-263443D01*
G37*
G54D17*
X252997Y-263443D02*
X251996Y-262442D01*
X251997Y-250942D01*
X252497Y-250442D01*
X254497Y-250443D01*
X254997Y-250943D01*
X254996Y-262442D01*
X253997Y-263443D01*
X252997Y-263443D01*
G36*
X257997Y-263443D02*
X256997Y-262443D01*
X256997Y-250942D01*
X257497Y-250442D01*
X259497Y-250443D01*
X259997Y-250942D01*
X259997Y-262442D01*
X258997Y-263443D01*
X257997Y-263443D01*
G37*
G54D17*
X257997Y-263443D02*
X256997Y-262443D01*
X256997Y-250942D01*
X257497Y-250442D01*
X259497Y-250443D01*
X259997Y-250942D01*
X259997Y-262442D01*
X258997Y-263443D01*
X257997Y-263443D01*
G36*
X262997Y-263442D02*
X261996Y-262442D01*
X261997Y-250943D01*
X262497Y-250443D01*
X264496Y-250442D01*
X264996Y-250943D01*
X264997Y-262442D01*
X263997Y-263443D01*
X262997Y-263442D01*
G37*
G54D17*
X262997Y-263442D02*
X261996Y-262442D01*
X261997Y-250943D01*
X262497Y-250443D01*
X264496Y-250442D01*
X264996Y-250943D01*
X264997Y-262442D01*
X263997Y-263443D01*
X262997Y-263442D01*
G36*
X267997Y-263443D02*
X266997Y-262443D01*
X266997Y-250943D01*
X267497Y-250443D01*
X269497Y-250442D01*
X269996Y-250942D01*
X269996Y-262442D01*
X268997Y-263442D01*
X267997Y-263443D01*
G37*
G54D17*
X267997Y-263443D02*
X266997Y-262443D01*
X266997Y-250943D01*
X267497Y-250443D01*
X269497Y-250442D01*
X269996Y-250942D01*
X269996Y-262442D01*
X268997Y-263442D01*
X267997Y-263443D01*
G36*
X272997Y-263442D02*
X271997Y-262442D01*
X271997Y-250943D01*
X272497Y-250443D01*
X274497Y-250443D01*
X274997Y-250942D01*
X274996Y-262442D01*
X273997Y-263442D01*
X272997Y-263442D01*
G37*
G54D17*
X272997Y-263442D02*
X271997Y-262442D01*
X271997Y-250943D01*
X272497Y-250443D01*
X274497Y-250443D01*
X274997Y-250942D01*
X274996Y-262442D01*
X273997Y-263442D01*
X272997Y-263442D01*
G36*
X162997Y-263443D02*
X161997Y-262443D01*
X161997Y-250942D01*
X162497Y-250443D01*
X164497Y-250442D01*
X164996Y-250942D01*
X164997Y-262442D01*
X163997Y-263442D01*
X162997Y-263443D01*
G37*
G54D17*
X162997Y-263443D02*
X161997Y-262443D01*
X161997Y-250942D01*
X162497Y-250443D01*
X164497Y-250442D01*
X164996Y-250942D01*
X164997Y-262442D01*
X163997Y-263442D01*
X162997Y-263443D01*
X140528Y-118448D02*
G54D16*
D03*
X140528Y-123448D02*
G54D16*
D03*
X140528Y-128448D02*
G54D16*
D03*
X140528Y-133448D02*
G54D16*
D03*
X140528Y-138448D02*
G54D16*
D03*
X140528Y-143448D02*
G54D16*
D03*
X140528Y-148448D02*
G54D16*
D03*
X140528Y-153448D02*
G54D16*
D03*
X140528Y-158448D02*
G54D16*
D03*
X140528Y-163448D02*
G54D16*
D03*
X140528Y-168448D02*
G54D16*
D03*
X140528Y-173448D02*
G54D16*
D03*
X140528Y-178448D02*
G54D16*
D03*
X140528Y-183448D02*
G54D16*
D03*
X140528Y-188448D02*
G54D16*
D03*
X140528Y-193448D02*
G54D16*
D03*
X140528Y-198448D02*
G54D16*
D03*
X140528Y-203448D02*
G54D16*
D03*
X140528Y-208448D02*
G54D16*
D03*
X140528Y-213448D02*
G54D16*
D03*
X140528Y-218448D02*
G54D16*
D03*
X140528Y-223448D02*
G54D16*
D03*
X140528Y-228448D02*
G54D16*
D03*
X140528Y-233448D02*
G54D16*
D03*
X140528Y-238448D02*
G54D16*
D03*
G36*
X137497Y-117942D02*
X138497Y-116942D01*
X142997Y-116943D01*
X143497Y-117442D01*
X143496Y-119442D01*
X142997Y-119942D01*
X138497Y-119942D01*
X137497Y-118943D01*
X137497Y-117942D01*
G37*
G54D17*
X137497Y-117942D02*
X138497Y-116942D01*
X142997Y-116943D01*
X143497Y-117442D01*
X143496Y-119442D01*
X142997Y-119942D01*
X138497Y-119942D01*
X137497Y-118943D01*
X137497Y-117942D01*
G36*
X137496Y-237942D02*
X138496Y-236942D01*
X142997Y-236942D01*
X143496Y-237442D01*
X143497Y-239442D01*
X142997Y-239943D01*
X138497Y-239942D01*
X137497Y-238943D01*
X137496Y-237942D01*
G37*
G54D17*
X137496Y-237942D02*
X138496Y-236942D01*
X142997Y-236942D01*
X143496Y-237442D01*
X143497Y-239442D01*
X142997Y-239943D01*
X138497Y-239942D01*
X137497Y-238943D01*
X137496Y-237942D01*
G36*
X133497Y-127942D02*
X134496Y-126943D01*
X145996Y-126942D01*
X146496Y-127443D01*
X146497Y-129442D01*
X145997Y-129942D01*
X134496Y-129943D01*
X133497Y-128942D01*
X133497Y-127942D01*
G37*
G54D17*
X133497Y-127942D02*
X134496Y-126943D01*
X145996Y-126942D01*
X146496Y-127443D01*
X146497Y-129442D01*
X145997Y-129942D01*
X134496Y-129943D01*
X133497Y-128942D01*
X133497Y-127942D01*
G36*
X133496Y-132943D02*
X134497Y-131942D01*
X145996Y-131942D01*
X146496Y-132443D01*
X146497Y-134442D01*
X145996Y-134943D01*
X134496Y-134942D01*
X133497Y-133943D01*
X133496Y-132943D01*
G37*
G54D17*
X133496Y-132943D02*
X134497Y-131942D01*
X145996Y-131942D01*
X146496Y-132443D01*
X146497Y-134442D01*
X145996Y-134943D01*
X134496Y-134942D01*
X133497Y-133943D01*
X133496Y-132943D01*
G36*
X133496Y-137942D02*
X134496Y-136942D01*
X145997Y-136943D01*
X146497Y-137443D01*
X146497Y-139443D01*
X145997Y-139942D01*
X134497Y-139943D01*
X133497Y-138942D01*
X133496Y-137942D01*
G37*
G54D17*
X133496Y-137942D02*
X134496Y-136942D01*
X145997Y-136943D01*
X146497Y-137443D01*
X146497Y-139443D01*
X145997Y-139942D01*
X134497Y-139943D01*
X133497Y-138942D01*
X133496Y-137942D01*
G36*
X133497Y-142943D02*
X134496Y-141942D01*
X145996Y-141943D01*
X146496Y-142443D01*
X146497Y-144443D01*
X145997Y-144943D01*
X134496Y-144943D01*
X133496Y-143942D01*
X133497Y-142943D01*
G37*
G54D17*
X133497Y-142943D02*
X134496Y-141942D01*
X145996Y-141943D01*
X146496Y-142443D01*
X146497Y-144443D01*
X145997Y-144943D01*
X134496Y-144943D01*
X133496Y-143942D01*
X133497Y-142943D01*
G36*
X133497Y-147942D02*
X134497Y-146943D01*
X145997Y-146942D01*
X146497Y-147442D01*
X146497Y-149443D01*
X145996Y-149942D01*
X134497Y-149942D01*
X133497Y-148942D01*
X133497Y-147942D01*
G37*
G54D17*
X133497Y-147942D02*
X134497Y-146943D01*
X145997Y-146942D01*
X146497Y-147442D01*
X146497Y-149443D01*
X145996Y-149942D01*
X134497Y-149942D01*
X133497Y-148942D01*
X133497Y-147942D01*
G36*
X133496Y-152943D02*
X134497Y-151943D01*
X145997Y-151943D01*
X146496Y-152442D01*
X146497Y-154442D01*
X145997Y-154942D01*
X134497Y-154943D01*
X133497Y-153943D01*
X133496Y-152943D01*
G37*
G54D17*
X133496Y-152943D02*
X134497Y-151943D01*
X145997Y-151943D01*
X146496Y-152442D01*
X146497Y-154442D01*
X145997Y-154942D01*
X134497Y-154943D01*
X133497Y-153943D01*
X133496Y-152943D01*
G36*
X133497Y-157943D02*
X134496Y-156942D01*
X145996Y-156942D01*
X146496Y-157442D01*
X146497Y-159442D01*
X145997Y-159943D01*
X134496Y-159943D01*
X133497Y-158942D01*
X133497Y-157943D01*
G37*
G54D17*
X133497Y-157943D02*
X134496Y-156942D01*
X145996Y-156942D01*
X146496Y-157442D01*
X146497Y-159442D01*
X145997Y-159943D01*
X134496Y-159943D01*
X133497Y-158942D01*
X133497Y-157943D01*
G36*
X133497Y-162942D02*
X134496Y-161942D01*
X145997Y-161942D01*
X146497Y-162442D01*
X146497Y-164442D01*
X145997Y-164943D01*
X134497Y-164942D01*
X133497Y-163943D01*
X133497Y-162942D01*
G37*
G54D17*
X133497Y-162942D02*
X134496Y-161942D01*
X145997Y-161942D01*
X146497Y-162442D01*
X146497Y-164442D01*
X145997Y-164943D01*
X134497Y-164942D01*
X133497Y-163943D01*
X133497Y-162942D01*
G36*
X133496Y-167942D02*
X134496Y-166943D01*
X145996Y-166942D01*
X146496Y-167442D01*
X146496Y-169442D01*
X145996Y-169943D01*
X134497Y-169943D01*
X133496Y-168943D01*
X133496Y-167942D01*
G37*
G54D17*
X133496Y-167942D02*
X134496Y-166943D01*
X145996Y-166942D01*
X146496Y-167442D01*
X146496Y-169442D01*
X145996Y-169943D01*
X134497Y-169943D01*
X133496Y-168943D01*
X133496Y-167942D01*
G36*
X133497Y-172942D02*
X134497Y-171943D01*
X145997Y-171942D01*
X146496Y-172442D01*
X146497Y-174442D01*
X145997Y-174943D01*
X134496Y-174943D01*
X133497Y-173942D01*
X133497Y-172942D01*
G37*
G54D17*
X133497Y-172942D02*
X134497Y-171943D01*
X145997Y-171942D01*
X146496Y-172442D01*
X146497Y-174442D01*
X145997Y-174943D01*
X134496Y-174943D01*
X133497Y-173942D01*
X133497Y-172942D01*
G36*
X133497Y-177942D02*
X134497Y-176942D01*
X145996Y-176943D01*
X146496Y-177442D01*
X146497Y-179442D01*
X145996Y-179942D01*
X134497Y-179942D01*
X133497Y-178943D01*
X133497Y-177942D01*
G37*
G54D17*
X133497Y-177942D02*
X134497Y-176942D01*
X145996Y-176943D01*
X146496Y-177442D01*
X146497Y-179442D01*
X145996Y-179942D01*
X134497Y-179942D01*
X133497Y-178943D01*
X133497Y-177942D01*
G36*
X133497Y-182942D02*
X134496Y-181943D01*
X145997Y-181943D01*
X146496Y-182443D01*
X146496Y-184443D01*
X145997Y-184943D01*
X134497Y-184942D01*
X133497Y-183943D01*
X133497Y-182942D01*
G37*
G54D17*
X133497Y-182942D02*
X134496Y-181943D01*
X145997Y-181943D01*
X146496Y-182443D01*
X146496Y-184443D01*
X145997Y-184943D01*
X134497Y-184942D01*
X133497Y-183943D01*
X133497Y-182942D01*
G36*
X133497Y-187942D02*
X134497Y-186942D01*
X145997Y-186943D01*
X146496Y-187442D01*
X146497Y-189442D01*
X145997Y-189943D01*
X134496Y-189943D01*
X133497Y-188942D01*
X133497Y-187942D01*
G37*
G54D17*
X133497Y-187942D02*
X134497Y-186942D01*
X145997Y-186943D01*
X146496Y-187442D01*
X146497Y-189442D01*
X145997Y-189943D01*
X134496Y-189943D01*
X133497Y-188942D01*
X133497Y-187942D01*
G36*
X133497Y-192942D02*
X134496Y-191942D01*
X145997Y-191942D01*
X146496Y-192442D01*
X146497Y-194442D01*
X145997Y-194943D01*
X134497Y-194943D01*
X133497Y-193942D01*
X133497Y-192942D01*
G37*
G54D17*
X133497Y-192942D02*
X134496Y-191942D01*
X145997Y-191942D01*
X146496Y-192442D01*
X146497Y-194442D01*
X145997Y-194943D01*
X134497Y-194943D01*
X133497Y-193942D01*
X133497Y-192942D01*
G36*
X133497Y-197942D02*
X134496Y-196942D01*
X145997Y-196942D01*
X146497Y-197442D01*
X146497Y-199443D01*
X145996Y-199942D01*
X134496Y-199942D01*
X133497Y-198942D01*
X133497Y-197942D01*
G37*
G54D17*
X133497Y-197942D02*
X134496Y-196942D01*
X145997Y-196942D01*
X146497Y-197442D01*
X146497Y-199443D01*
X145996Y-199942D01*
X134496Y-199942D01*
X133497Y-198942D01*
X133497Y-197942D01*
G36*
X133497Y-202942D02*
X134497Y-201943D01*
X145997Y-201943D01*
X146497Y-202442D01*
X146497Y-204442D01*
X145996Y-204943D01*
X134497Y-204942D01*
X133497Y-203942D01*
X133497Y-202942D01*
G37*
G54D17*
X133497Y-202942D02*
X134497Y-201943D01*
X145997Y-201943D01*
X146497Y-202442D01*
X146497Y-204442D01*
X145996Y-204943D01*
X134497Y-204942D01*
X133497Y-203942D01*
X133497Y-202942D01*
G36*
X133497Y-207943D02*
X134496Y-206942D01*
X145996Y-206942D01*
X146496Y-207442D01*
X146497Y-209442D01*
X145997Y-209942D01*
X134497Y-209942D01*
X133496Y-208943D01*
X133497Y-207943D01*
G37*
G54D17*
X133497Y-207943D02*
X134496Y-206942D01*
X145996Y-206942D01*
X146496Y-207442D01*
X146497Y-209442D01*
X145997Y-209942D01*
X134497Y-209942D01*
X133496Y-208943D01*
X133497Y-207943D01*
G36*
X133497Y-212943D02*
X134496Y-211942D01*
X145997Y-211942D01*
X146497Y-212442D01*
X146497Y-214442D01*
X145996Y-214942D01*
X134496Y-214942D01*
X133497Y-213942D01*
X133497Y-212943D01*
G37*
G54D17*
X133497Y-212943D02*
X134496Y-211942D01*
X145997Y-211942D01*
X146497Y-212442D01*
X146497Y-214442D01*
X145996Y-214942D01*
X134496Y-214942D01*
X133497Y-213942D01*
X133497Y-212943D01*
G36*
X133497Y-217943D02*
X134497Y-216942D01*
X145997Y-216942D01*
X146497Y-217442D01*
X146497Y-219442D01*
X145997Y-219943D01*
X134496Y-219942D01*
X133497Y-218942D01*
X133497Y-217943D01*
G37*
G54D17*
X133497Y-217943D02*
X134497Y-216942D01*
X145997Y-216942D01*
X146497Y-217442D01*
X146497Y-219442D01*
X145997Y-219943D01*
X134496Y-219942D01*
X133497Y-218942D01*
X133497Y-217943D01*
G36*
X133497Y-222942D02*
X134496Y-221942D01*
X145996Y-221942D01*
X146497Y-222442D01*
X146496Y-224442D01*
X145996Y-224942D01*
X134497Y-224943D01*
X133497Y-223942D01*
X133497Y-222942D01*
G37*
G54D17*
X133497Y-222942D02*
X134496Y-221942D01*
X145996Y-221942D01*
X146497Y-222442D01*
X146496Y-224442D01*
X145996Y-224942D01*
X134497Y-224943D01*
X133497Y-223942D01*
X133497Y-222942D01*
G36*
X133497Y-227942D02*
X134496Y-226942D01*
X145997Y-226942D01*
X146496Y-227442D01*
X146497Y-229442D01*
X145997Y-229942D01*
X134497Y-229943D01*
X133497Y-228942D01*
X133497Y-227942D01*
G37*
G54D17*
X133497Y-227942D02*
X134496Y-226942D01*
X145997Y-226942D01*
X146496Y-227442D01*
X146497Y-229442D01*
X145997Y-229942D01*
X134497Y-229943D01*
X133497Y-228942D01*
X133497Y-227942D01*
G36*
X133497Y-232942D02*
X134496Y-231943D01*
X145996Y-231942D01*
X146496Y-232442D01*
X146497Y-234443D01*
X145997Y-234942D01*
X134497Y-234943D01*
X133497Y-233942D01*
X133497Y-232942D01*
G37*
G54D17*
X133497Y-232942D02*
X134496Y-231943D01*
X145996Y-231942D01*
X146496Y-232442D01*
X146497Y-234443D01*
X145997Y-234942D01*
X134497Y-234943D01*
X133497Y-233942D01*
X133497Y-232942D01*
G36*
X133496Y-122943D02*
X134497Y-121943D01*
X145996Y-121943D01*
X146496Y-122442D01*
X146496Y-124442D01*
X145996Y-124943D01*
X134496Y-124942D01*
X133497Y-123942D01*
X133496Y-122943D01*
G37*
G54D17*
X133496Y-122943D02*
X134497Y-121943D01*
X145996Y-121943D01*
X146496Y-122442D01*
X146496Y-124442D01*
X145996Y-124943D01*
X134496Y-124942D01*
X133497Y-123942D01*
X133496Y-122943D01*
G54D18*
G75*
G01X315930Y-407387D02*
G03X315930Y-407387I-5000J0D01*
G01*
G36*
G75*
G01X315930Y-407387D02*
G03X315930Y-407387I-5000J0D01*
G01*
G37*
X315930Y-407387D01*
G54D18*
G75*
G01X315975Y-427082D02*
G03X315975Y-427082I-5000J0D01*
G01*
G36*
G75*
G01X315975Y-427082D02*
G03X315975Y-427082I-5000J0D01*
G01*
G37*
X315975Y-427082D01*
G54D18*
G75*
G01X315975Y-447399D02*
G03X315975Y-447399I-5000J0D01*
G01*
G36*
G75*
G01X315975Y-447399D02*
G03X315975Y-447399I-5000J0D01*
G01*
G37*
X315975Y-447399D01*
G54D18*
G75*
G01X315975Y-467399D02*
G03X315975Y-467399I-5000J0D01*
G01*
G36*
G75*
G01X315975Y-467399D02*
G03X315975Y-467399I-5000J0D01*
G01*
G37*
X315975Y-467399D01*
G54D18*
G75*
G01X315975Y-507399D02*
G03X315975Y-507399I-5000J0D01*
G01*
G36*
G75*
G01X315975Y-507399D02*
G03X315975Y-507399I-5000J0D01*
G01*
G37*
X315975Y-507399D01*
G54D18*
G75*
G01X315975Y-527399D02*
G03X315975Y-527399I-5000J0D01*
G01*
G36*
G75*
G01X315975Y-527399D02*
G03X315975Y-527399I-5000J0D01*
G01*
G37*
X315975Y-527399D01*
G54D18*
G75*
G01X315975Y-487399D02*
G03X315975Y-487399I-5000J0D01*
G01*
G36*
G75*
G01X315975Y-487399D02*
G03X315975Y-487399I-5000J0D01*
G01*
G37*
X315975Y-487399D01*
G54D18*
G75*
G01X512776Y-407387D02*
G03X512776Y-407387I-5000J0D01*
G01*
G36*
G75*
G01X512776Y-407387D02*
G03X512776Y-407387I-5000J0D01*
G01*
G37*
X512776Y-407387D01*
G54D18*
G75*
G01X512820Y-427082D02*
G03X512820Y-427082I-5000J0D01*
G01*
G36*
G75*
G01X512820Y-427082D02*
G03X512820Y-427082I-5000J0D01*
G01*
G37*
X512820Y-427082D01*
G54D18*
G75*
G01X512820Y-447399D02*
G03X512820Y-447399I-5000J0D01*
G01*
G36*
G75*
G01X512820Y-447399D02*
G03X512820Y-447399I-5000J0D01*
G01*
G37*
X512820Y-447399D01*
G54D18*
G75*
G01X512820Y-467399D02*
G03X512820Y-467399I-5000J0D01*
G01*
G36*
G75*
G01X512820Y-467399D02*
G03X512820Y-467399I-5000J0D01*
G01*
G37*
X512820Y-467399D01*
G54D18*
G75*
G01X512820Y-507399D02*
G03X512820Y-507399I-5000J0D01*
G01*
G36*
G75*
G01X512820Y-507399D02*
G03X512820Y-507399I-5000J0D01*
G01*
G37*
X512820Y-507399D01*
X359965Y-209153D02*
G54D19*
D03*
X376965Y-209153D02*
G54D19*
D03*
X464344Y-186994D02*
G54D19*
D03*
X447344Y-186994D02*
G54D19*
D03*
X464344Y-168738D02*
G54D19*
D03*
X447344Y-168738D02*
G54D19*
D03*
X507820Y-487399D02*
G54D10*
D03*
X445756Y-168738D02*
G54D20*
D03*
X445756Y-186994D02*
G54D20*
D03*
G36*
X392355Y-124518D02*
X383163Y-133711D01*
X373264Y-123811D01*
X382456Y-114619D01*
X392355Y-124518D01*
G37*
G36*
X380335Y-136539D02*
X371143Y-145731D01*
X361243Y-135832D01*
X370435Y-126639D01*
X380335Y-136539D01*
G37*
X278276Y-310823D02*
G54D19*
D03*
X295275Y-310819D02*
G54D19*
D03*
G54D18*
G75*
G01X512820Y-487399D02*
G03X512820Y-487399I-5000J0D01*
G01*
G36*
G75*
G01X512820Y-487399D02*
G03X512820Y-487399I-5000J0D01*
G01*
G37*
X512820Y-487399D01*
G36*
X508874Y-542026D02*
X508874Y-512026D01*
X538874Y-512026D01*
X538874Y-542026D01*
X508874Y-542026D01*
G37*
X489796Y-304493D02*
G54D21*
D03*
X489796Y-291793D02*
G54D21*
D03*
X489796Y-279093D02*
G54D21*
D03*
X489796Y-266393D02*
G54D21*
D03*
X173038Y-66007D02*
G54D22*
D03*
X173041Y-83006D02*
G54D22*
D03*
X171062Y-32589D02*
G54D23*
D03*
X191062Y-32589D02*
G54D23*
D03*
X211062Y-32589D02*
G54D23*
D03*
X231062Y-32589D02*
G54D23*
D03*
X251062Y-32589D02*
G54D23*
D03*
X271062Y-32589D02*
G54D23*
D03*
X291062Y-32589D02*
G54D23*
D03*
X311062Y-32560D02*
G54D23*
D03*
G36*
X298291Y-63294D02*
X289099Y-72486D01*
X279199Y-62587D01*
X288392Y-53394D01*
X298291Y-63294D01*
G37*
G36*
X286281Y-75305D02*
X277087Y-84496D01*
X267189Y-74596D01*
X276382Y-65404D01*
X286281Y-75305D01*
G37*
G36*
X217328Y-66866D02*
X208136Y-76058D01*
X198236Y-66158D01*
X207429Y-56966D01*
X217328Y-66866D01*
G37*
G36*
X205315Y-78885D02*
X196122Y-88076D01*
X186223Y-78176D01*
X195417Y-68984D01*
X205315Y-78885D01*
G37*
X344154Y-112470D02*
G54D24*
D03*
G36*
X321019Y-75870D02*
X309705Y-64556D01*
X322433Y-51828D01*
X333747Y-63142D01*
X321019Y-75870D01*
G37*
X162330Y-531149D02*
G54D11*
D03*
X182975Y-531155D02*
G54D11*
D03*
X202025Y-531155D02*
G54D11*
D03*
X202022Y-418315D02*
G54D11*
D03*
G36*
X285040Y-510074D02*
X285040Y-542074D01*
X253040Y-542074D01*
X253040Y-510074D01*
X285040Y-510074D01*
G37*
G54D18*
G75*
G01X187971Y-418316D02*
G03X187971Y-418316I-5000J0D01*
G01*
G36*
G75*
G01X187971Y-418316D02*
G03X187971Y-418316I-5000J0D01*
G01*
G37*
X187971Y-418316D01*
G54D18*
G75*
G01X207022Y-418316D02*
G03X207022Y-418316I-5000J0D01*
G01*
G36*
G75*
G01X207022Y-418316D02*
G03X207022Y-418316I-5000J0D01*
G01*
G37*
X207022Y-418316D01*
G54D18*
G75*
G01X227659Y-418316D02*
G03X227659Y-418316I-5000J0D01*
G01*
G36*
G75*
G01X227659Y-418316D02*
G03X227659Y-418316I-5000J0D01*
G01*
G37*
X227659Y-418316D01*
G54D18*
G75*
G01X246709Y-418316D02*
G03X246709Y-418316I-5000J0D01*
G01*
G36*
G75*
G01X246709Y-418316D02*
G03X246709Y-418316I-5000J0D01*
G01*
G37*
X246709Y-418316D01*
G54D18*
G75*
G01X247719Y-531149D02*
G03X247719Y-531149I-6000J0D01*
G01*
G36*
G75*
G01X247719Y-531149D02*
G03X247719Y-531149I-6000J0D01*
G01*
G37*
X247719Y-531149D01*
G54D18*
G75*
G01X207022Y-531153D02*
G03X207022Y-531153I-5000J0D01*
G01*
G36*
G75*
G01X207022Y-531153D02*
G03X207022Y-531153I-5000J0D01*
G01*
G37*
X207022Y-531153D01*
G54D18*
G75*
G01X187972Y-531153D02*
G03X187972Y-531153I-5000J0D01*
G01*
G36*
G75*
G01X187972Y-531153D02*
G03X187972Y-531153I-5000J0D01*
G01*
G37*
X187972Y-531153D01*
X147101Y-71090D02*
G54D13*
D03*
X107811Y-92521D02*
G54D13*
D03*
X88761Y-74265D02*
G54D13*
D03*
X88761Y-92521D02*
G54D13*
D03*
X107811Y-117128D02*
G54D13*
D03*
X88761Y-141734D02*
G54D13*
D03*
X107811Y-141734D02*
G54D13*
D03*
X88761Y-117128D02*
G54D13*
D03*
X108604Y-168324D02*
G54D13*
D03*
X509438Y-183754D02*
G54D25*
D03*
X509435Y-158354D02*
G54D25*
D03*
X360472Y-25656D02*
G54D12*
D03*
X360472Y-53656D02*
G54D12*
D03*
X383491Y-25656D02*
G54D12*
D03*
X383491Y-53656D02*
G54D12*
D03*
G36*
X301969Y-94126D02*
X290655Y-82812D01*
X303383Y-70084D01*
X314697Y-81398D01*
X301969Y-94126D01*
G37*
G36*
X181456Y-314820D02*
X190649Y-305629D01*
X200547Y-315530D01*
X191354Y-324721D01*
X181456Y-314820D01*
G37*
G36*
X193480Y-302802D02*
X202672Y-293609D01*
X212572Y-303509D01*
X203379Y-312701D01*
X193480Y-302802D01*
G37*
X155347Y-347098D02*
G54D22*
D03*
X155344Y-364100D02*
G54D22*
D03*
X137487Y-347098D02*
G54D22*
D03*
X137484Y-364100D02*
G54D22*
D03*
X155347Y-381229D02*
G54D22*
D03*
X155344Y-398231D02*
G54D22*
D03*
X137487Y-381229D02*
G54D22*
D03*
X137484Y-398231D02*
G54D22*
D03*
X68696Y-236969D02*
G54D20*
D03*
X162334Y-418316D02*
G54D10*
D03*
X222659Y-418316D02*
G54D10*
D03*
X241709Y-418316D02*
G54D10*
D03*
X208500Y-274388D02*
G54D26*
D03*
X82293Y-375590D02*
G54D20*
D03*
X86519Y-357077D02*
G54D26*
D03*
G36*
X119598Y-301750D02*
X109699Y-291850D01*
X119598Y-281951D01*
X129498Y-291850D01*
X119598Y-301750D01*
G37*
X118767Y-451972D02*
G54D22*
D03*
X118760Y-468976D02*
G54D22*
D03*
X137152Y-452041D02*
G54D22*
D03*
X137149Y-469043D02*
G54D22*
D03*
X490336Y-457421D02*
G54D27*
D03*
X439536Y-482820D02*
G54D27*
D03*
X439536Y-432020D02*
G54D27*
D03*
X439536Y-406621D02*
G54D27*
D03*
X439536Y-508220D02*
G54D27*
D03*
X85714Y-420848D02*
G54D28*
D03*
G36*
X70708Y-435343D02*
X80708Y-435342D01*
X80708Y-446342D01*
X70708Y-446343D01*
X70708Y-435343D01*
G37*
X324971Y-138438D02*
G54D20*
D03*
X344577Y-138438D02*
G54D20*
D03*
X419720Y-212228D02*
G54D22*
D03*
X419728Y-229229D02*
G54D22*
D03*
X454270Y-228832D02*
G54D19*
D03*
X437270Y-228832D02*
G54D19*
D03*
G36*
X369464Y-392138D02*
X375022Y-397696D01*
X375022Y-405580D01*
X369464Y-411138D01*
X361580Y-411138D01*
X356022Y-405580D01*
X356022Y-397696D01*
X361580Y-392138D01*
X369464Y-392138D01*
G37*
G36*
X356764Y-379438D02*
X362322Y-384996D01*
X362322Y-392880D01*
X356764Y-398438D01*
X348880Y-398438D01*
X343322Y-392880D01*
X343322Y-384996D01*
X348880Y-379438D01*
X356764Y-379438D01*
G37*
G36*
X389434Y-410394D02*
X394992Y-415952D01*
X394992Y-423836D01*
X389434Y-429394D01*
X381550Y-429394D01*
X375992Y-423836D01*
X375992Y-415952D01*
X381550Y-410394D01*
X389434Y-410394D01*
G37*
X384456Y-311662D02*
G54D19*
D03*
X367459Y-311658D02*
G54D19*
D03*
X349538Y-305308D02*
G54D13*
D03*
X477390Y-342274D02*
G54D13*
D03*
X439290Y-337511D02*
G54D13*
D03*
X514657Y-292984D02*
G54D22*
D03*
X514661Y-275987D02*
G54D22*
D03*
X310975Y-527400D02*
G54D11*
D03*
X86776Y-168324D02*
G54D13*
D03*
X485164Y-232563D02*
G54D14*
D03*
X485164Y-251563D02*
G54D14*
D03*
X477390Y-323453D02*
G54D29*
D03*
X458390Y-323453D02*
G54D29*
D03*
X505801Y-232563D02*
G54D14*
D03*
X505801Y-251563D02*
G54D14*
D03*
X436224Y-266393D02*
G54D30*
D03*
X436224Y-279093D02*
G54D30*
D03*
X436224Y-291793D02*
G54D30*
D03*
X436224Y-304493D02*
G54D30*
D03*
X384456Y-329919D02*
G54D19*
D03*
X367459Y-329915D02*
G54D19*
D03*
X482368Y-187094D02*
G54D22*
D03*
X482369Y-170094D02*
G54D22*
D03*
X413540Y-39692D02*
G54D13*
D03*
X125020Y-46438D02*
G54D13*
D03*
X221040Y-338388D02*
G54D31*
D03*
X240248Y-326164D02*
G54D32*
D03*
X152463Y-23479D02*
G54D19*
D03*
X135462Y-23479D02*
G54D19*
D03*
X119043Y-347119D02*
G54D22*
D03*
X119040Y-364121D02*
G54D22*
D03*
X119040Y-381421D02*
G54D22*
D03*
X119037Y-398422D02*
G54D22*
D03*
X119496Y-434023D02*
G54D19*
D03*
X102491Y-434016D02*
G54D19*
D03*
X137652Y-416166D02*
G54D19*
D03*
X120650Y-416163D02*
G54D19*
D03*
X172809Y-335986D02*
G54D20*
D03*
X360472Y-72706D02*
G54D24*
D03*
X383491Y-72706D02*
G54D24*
D03*
X64694Y-349650D02*
G54D13*
D03*
G36*
X152241Y-269107D02*
X143049Y-278300D01*
X133149Y-268400D01*
X142342Y-259208D01*
X152241Y-269107D01*
G37*
G36*
X140217Y-281128D02*
X131024Y-290320D01*
X121125Y-280420D01*
X130318Y-271228D01*
X140217Y-281128D01*
G37*
X100968Y-415934D02*
G54D22*
D03*
X100971Y-398932D02*
G54D22*
D03*
X65708Y-420842D02*
G54D28*
D03*
X137150Y-488480D02*
G54D20*
D03*
X118760Y-488413D02*
G54D20*
D03*
X84600Y-609046D02*
G54D33*
D03*
G36*
X337740Y-260273D02*
X349054Y-271586D01*
X337740Y-282900D01*
X326427Y-271586D01*
X337740Y-260273D01*
G37*
G36*
X362347Y-235666D02*
X373660Y-246980D01*
X362346Y-258294D01*
X351033Y-246980D01*
X362347Y-235666D01*
G37*
X88696Y-236969D02*
G54D20*
D03*
X68696Y-257366D02*
G54D20*
D03*
X88696Y-257366D02*
G54D20*
D03*
X68696Y-277762D02*
G54D20*
D03*
X88696Y-277762D02*
G54D20*
D03*
G36*
X408059Y-110433D02*
X418665Y-121040D01*
X407351Y-132353D01*
X396745Y-121747D01*
X408059Y-110433D01*
G37*
G36*
X421494Y-123868D02*
X432100Y-134475D01*
X420786Y-145788D01*
X410180Y-135182D01*
X421494Y-123868D01*
G37*
X241719Y-531149D02*
G54D11*
D03*
X507821Y-507400D02*
G54D10*
D03*
X52703Y-177986D02*
G54D19*
D03*
X69703Y-177986D02*
G54D19*
D03*
X42330Y-778323D02*
G54D10*
D03*
X144330Y-778323D02*
G54D10*
D03*
X246330Y-778323D02*
G54D10*
D03*
X348330Y-778323D02*
G54D10*
D03*
X450330Y-778323D02*
G54D10*
D03*
X526830Y-778323D02*
G54D10*
D03*
X42330Y-736047D02*
G54D10*
D03*
X67830Y-736048D02*
G54D10*
D03*
X93331Y-736046D02*
G54D11*
D03*
X118830Y-736048D02*
G54D10*
D03*
X144330Y-736048D02*
G54D10*
D03*
X169830Y-736048D02*
G54D10*
D03*
X195330Y-736048D02*
G54D10*
D03*
X220830Y-736048D02*
G54D10*
D03*
X246330Y-736048D02*
G54D10*
D03*
X271830Y-736048D02*
G54D10*
D03*
X297330Y-736048D02*
G54D10*
D03*
X322830Y-736048D02*
G54D10*
D03*
X348330Y-736048D02*
G54D10*
D03*
X373830Y-736048D02*
G54D10*
D03*
X399330Y-736048D02*
G54D10*
D03*
X424830Y-736048D02*
G54D10*
D03*
X450330Y-736048D02*
G54D10*
D03*
X475830Y-736048D02*
G54D10*
D03*
X501330Y-736048D02*
G54D10*
D03*
X526830Y-736048D02*
G54D10*
D03*
X55080Y-716047D02*
G54D10*
D03*
X80580Y-716047D02*
G54D10*
D03*
X106080Y-716048D02*
G54D10*
D03*
X157080Y-716048D02*
G54D10*
D03*
X182580Y-716048D02*
G54D10*
D03*
X208080Y-716048D02*
G54D10*
D03*
X259080Y-716048D02*
G54D10*
D03*
X284580Y-716048D02*
G54D10*
D03*
X310080Y-716048D02*
G54D10*
D03*
X361080Y-716048D02*
G54D10*
D03*
X386580Y-716048D02*
G54D10*
D03*
X412080Y-716048D02*
G54D10*
D03*
X463080Y-716048D02*
G54D10*
D03*
X488580Y-716048D02*
G54D10*
D03*
X514080Y-716048D02*
G54D10*
D03*
X80502Y-795073D02*
G54D12*
D03*
X105902Y-795073D02*
G54D12*
D03*
X182502Y-795073D02*
G54D12*
D03*
X207902Y-795073D02*
G54D12*
D03*
X284502Y-795073D02*
G54D12*
D03*
X309902Y-795073D02*
G54D12*
D03*
X386502Y-795073D02*
G54D12*
D03*
X411902Y-795073D02*
G54D12*
D03*
X488502Y-795073D02*
G54D12*
D03*
X513902Y-795073D02*
G54D12*
D03*
X110038Y-706099D02*
G54D13*
D03*
X87813Y-706099D02*
G54D13*
D03*
X62413Y-706099D02*
G54D13*
D03*
X38998Y-706099D02*
G54D13*
D03*
X84600Y-736046D02*
G54D33*
D03*
X695056Y-841476D02*
G54D14*
D03*
X695053Y-860481D02*
G54D14*
D03*
X695053Y-868469D02*
G54D14*
D03*
X695046Y-887466D02*
G54D14*
D03*
X750696Y-847516D02*
G54D34*
D03*
X737996Y-847516D02*
G54D34*
D03*
X725296Y-847516D02*
G54D34*
D03*
X712596Y-847516D02*
G54D34*
D03*
X712596Y-897516D02*
G54D34*
D03*
X725296Y-897516D02*
G54D34*
D03*
X737996Y-897516D02*
G54D34*
D03*
X750696Y-897516D02*
G54D34*
D03*
X199756Y-841476D02*
G54D14*
D03*
X199753Y-860481D02*
G54D14*
D03*
X199753Y-868469D02*
G54D14*
D03*
X199746Y-887466D02*
G54D14*
D03*
X255396Y-847516D02*
G54D34*
D03*
X242696Y-847516D02*
G54D34*
D03*
X229996Y-847516D02*
G54D34*
D03*
X217296Y-847516D02*
G54D34*
D03*
X217296Y-897516D02*
G54D34*
D03*
X229996Y-897516D02*
G54D34*
D03*
X242696Y-897516D02*
G54D34*
D03*
X255396Y-897516D02*
G54D34*
D03*
X364856Y-841476D02*
G54D14*
D03*
X364853Y-860481D02*
G54D14*
D03*
X364853Y-868469D02*
G54D14*
D03*
X364846Y-887466D02*
G54D14*
D03*
X420496Y-847516D02*
G54D34*
D03*
X407796Y-847516D02*
G54D34*
D03*
X395096Y-847516D02*
G54D34*
D03*
X382396Y-847516D02*
G54D34*
D03*
X382396Y-897516D02*
G54D34*
D03*
X395096Y-897516D02*
G54D34*
D03*
X407796Y-897516D02*
G54D34*
D03*
X420496Y-897516D02*
G54D34*
D03*
X860156Y-841476D02*
G54D14*
D03*
X860153Y-860481D02*
G54D14*
D03*
X860153Y-868469D02*
G54D14*
D03*
X860146Y-887466D02*
G54D14*
D03*
X915796Y-847516D02*
G54D34*
D03*
X903096Y-847516D02*
G54D34*
D03*
X890396Y-847516D02*
G54D34*
D03*
X877696Y-847516D02*
G54D34*
D03*
X877696Y-897516D02*
G54D34*
D03*
X890396Y-897516D02*
G54D34*
D03*
X903096Y-897516D02*
G54D34*
D03*
X915796Y-897516D02*
G54D34*
D03*
X529956Y-841476D02*
G54D14*
D03*
X529953Y-860481D02*
G54D14*
D03*
X529953Y-868469D02*
G54D14*
D03*
X529946Y-887466D02*
G54D14*
D03*
X585596Y-847516D02*
G54D34*
D03*
X572896Y-847516D02*
G54D34*
D03*
X560196Y-847516D02*
G54D34*
D03*
X547496Y-847516D02*
G54D34*
D03*
X547496Y-897516D02*
G54D34*
D03*
X560196Y-897516D02*
G54D34*
D03*
X572896Y-897516D02*
G54D34*
D03*
X585596Y-897516D02*
G54D34*
D03*
G54D35*
X127602Y-941516D02*
X127602Y-976916D01*
G54D35*
X114902Y-941516D02*
X114902Y-976916D01*
X33862Y-841476D02*
G54D14*
D03*
X33859Y-860481D02*
G54D14*
D03*
X33859Y-868469D02*
G54D14*
D03*
X33852Y-887466D02*
G54D14*
D03*
G54D35*
X140402Y-941516D02*
X140402Y-976916D01*
G54D35*
X127602Y-941516D02*
X127602Y-976916D01*
G54D35*
X114902Y-941516D02*
X114902Y-976916D01*
G54D35*
X102302Y-941516D02*
X102302Y-976916D01*
G54D35*
X76802Y-941516D02*
X76802Y-976916D01*
G54D35*
X153002Y-941516D02*
X153002Y-976916D01*
G54D35*
X64102Y-941516D02*
X64102Y-976916D01*
G54D35*
X51502Y-941516D02*
X51502Y-976916D01*
G54D35*
X38702Y-941516D02*
X38702Y-976916D01*
G54D35*
X26002Y-941516D02*
X26002Y-976916D01*
X89502Y-847516D02*
G54D34*
D03*
X76802Y-847516D02*
G54D34*
D03*
X64102Y-847516D02*
G54D34*
D03*
X51402Y-847516D02*
G54D34*
D03*
X51402Y-897516D02*
G54D34*
D03*
X64102Y-897516D02*
G54D34*
D03*
X76802Y-897516D02*
G54D34*
D03*
X89502Y-897516D02*
G54D34*
D03*
G54D35*
X293496Y-941516D02*
X293496Y-976916D01*
G54D35*
X280796Y-941516D02*
X280796Y-976916D01*
G54D35*
X306296Y-941516D02*
X306296Y-976916D01*
G54D35*
X293496Y-941516D02*
X293496Y-976916D01*
G54D35*
X280796Y-941516D02*
X280796Y-976916D01*
G54D35*
X268196Y-941516D02*
X268196Y-976916D01*
G54D35*
X242696Y-941516D02*
X242696Y-976916D01*
G54D35*
X318896Y-941516D02*
X318896Y-976916D01*
G54D35*
X229996Y-941516D02*
X229996Y-976916D01*
G54D35*
X217396Y-941516D02*
X217396Y-976916D01*
G54D35*
X204596Y-941516D02*
X204596Y-976916D01*
G54D35*
X191896Y-941516D02*
X191896Y-976916D01*
G54D35*
X458596Y-941516D02*
X458596Y-976916D01*
G54D35*
X445896Y-941516D02*
X445896Y-976916D01*
G54D35*
X471396Y-941516D02*
X471396Y-976916D01*
G54D35*
X458596Y-941516D02*
X458596Y-976916D01*
G54D35*
X445896Y-941516D02*
X445896Y-976916D01*
G54D35*
X433296Y-941516D02*
X433296Y-976916D01*
G54D35*
X407796Y-941516D02*
X407796Y-976916D01*
G54D35*
X483996Y-941516D02*
X483996Y-976916D01*
G54D35*
X395096Y-941516D02*
X395096Y-976916D01*
G54D35*
X382496Y-941516D02*
X382496Y-976916D01*
G54D35*
X369696Y-941516D02*
X369696Y-976916D01*
G54D35*
X356996Y-941516D02*
X356996Y-976916D01*
G54D35*
X623696Y-941516D02*
X623696Y-976916D01*
G54D35*
X610996Y-941516D02*
X610996Y-976916D01*
G54D35*
X636496Y-941516D02*
X636496Y-976916D01*
G54D35*
X623696Y-941516D02*
X623696Y-976916D01*
G54D35*
X610996Y-941516D02*
X610996Y-976916D01*
G54D35*
X598396Y-941516D02*
X598396Y-976916D01*
G54D35*
X572896Y-941516D02*
X572896Y-976916D01*
G54D35*
X649096Y-941516D02*
X649096Y-976916D01*
G54D35*
X560196Y-941516D02*
X560196Y-976916D01*
G54D35*
X547596Y-941516D02*
X547596Y-976916D01*
G54D35*
X534796Y-941516D02*
X534796Y-976916D01*
G54D35*
X522096Y-941516D02*
X522096Y-976916D01*
G54D35*
X788796Y-941516D02*
X788796Y-976916D01*
G54D35*
X776096Y-941516D02*
X776096Y-976916D01*
G54D35*
X801596Y-941516D02*
X801596Y-976916D01*
G54D35*
X788796Y-941516D02*
X788796Y-976916D01*
G54D35*
X776096Y-941516D02*
X776096Y-976916D01*
G54D35*
X763496Y-941516D02*
X763496Y-976916D01*
G54D35*
X737996Y-941516D02*
X737996Y-976916D01*
G54D35*
X814196Y-941516D02*
X814196Y-976916D01*
G54D35*
X725296Y-941516D02*
X725296Y-976916D01*
G54D35*
X712696Y-941516D02*
X712696Y-976916D01*
G54D35*
X699896Y-941516D02*
X699896Y-976916D01*
G54D35*
X687196Y-941516D02*
X687196Y-976916D01*
G54D35*
X953896Y-941516D02*
X953896Y-976916D01*
G54D35*
X941196Y-941516D02*
X941196Y-976916D01*
G54D35*
X966696Y-941516D02*
X966696Y-976916D01*
G54D35*
X953896Y-941516D02*
X953896Y-976916D01*
G54D35*
X941196Y-941516D02*
X941196Y-976916D01*
G54D35*
X928596Y-941516D02*
X928596Y-976916D01*
G54D35*
X903096Y-941516D02*
X903096Y-976916D01*
G54D35*
X979296Y-941516D02*
X979296Y-976916D01*
G54D35*
X890396Y-941516D02*
X890396Y-976916D01*
G54D35*
X877796Y-941516D02*
X877796Y-976916D01*
G54D35*
X864996Y-941516D02*
X864996Y-976916D01*
G54D35*
X852296Y-941516D02*
X852296Y-976916D01*
X859965Y-641933D02*
G54D14*
D03*
X859962Y-660938D02*
G54D14*
D03*
X859962Y-668925D02*
G54D14*
D03*
X859955Y-687923D02*
G54D14*
D03*
X915605Y-647972D02*
G54D34*
D03*
X902905Y-647972D02*
G54D34*
D03*
X890205Y-647972D02*
G54D34*
D03*
X877505Y-647972D02*
G54D34*
D03*
X877505Y-697972D02*
G54D34*
D03*
X890205Y-697972D02*
G54D34*
D03*
X902905Y-697972D02*
G54D34*
D03*
X915605Y-697972D02*
G54D34*
D03*
X694468Y-642726D02*
G54D14*
D03*
X694466Y-661731D02*
G54D14*
D03*
X694466Y-669719D02*
G54D14*
D03*
X694458Y-688716D02*
G54D14*
D03*
X750108Y-648766D02*
G54D34*
D03*
X737408Y-648766D02*
G54D34*
D03*
X724708Y-648766D02*
G54D34*
D03*
X712008Y-648766D02*
G54D34*
D03*
X712008Y-698766D02*
G54D34*
D03*
X724708Y-698766D02*
G54D34*
D03*
X737408Y-698766D02*
G54D34*
D03*
X750108Y-698766D02*
G54D34*
D03*
G54D35*
X953705Y-741973D02*
X953705Y-777373D01*
G54D35*
X941005Y-741973D02*
X941005Y-777373D01*
G54D35*
X966505Y-741973D02*
X966505Y-777373D01*
G54D35*
X953705Y-741973D02*
X953705Y-777373D01*
G54D35*
X941005Y-741973D02*
X941005Y-777373D01*
G54D35*
X928405Y-741973D02*
X928405Y-777373D01*
G54D35*
X902905Y-741973D02*
X902905Y-777373D01*
G54D35*
X979105Y-741973D02*
X979105Y-777373D01*
G54D35*
X890205Y-741973D02*
X890205Y-777373D01*
G54D35*
X877605Y-741973D02*
X877605Y-777373D01*
G54D35*
X864805Y-741973D02*
X864805Y-777373D01*
G54D35*
X852105Y-741973D02*
X852105Y-777373D01*
G54D35*
X788208Y-742766D02*
X788208Y-778166D01*
G54D35*
X775508Y-742766D02*
X775508Y-778166D01*
G54D35*
X801008Y-742766D02*
X801008Y-778166D01*
G54D35*
X788208Y-742766D02*
X788208Y-778166D01*
G54D35*
X775508Y-742766D02*
X775508Y-778166D01*
G54D35*
X762908Y-742766D02*
X762908Y-778166D01*
G54D35*
X737408Y-742766D02*
X737408Y-778166D01*
G54D35*
X813608Y-742766D02*
X813608Y-778166D01*
G54D35*
X724708Y-742766D02*
X724708Y-778166D01*
G54D35*
X712108Y-742766D02*
X712108Y-778166D01*
G54D35*
X699308Y-742766D02*
X699308Y-778166D01*
G54D35*
X686608Y-742766D02*
X686608Y-778166D01*
X750277Y-451372D02*
G54D34*
D03*
X737577Y-451372D02*
G54D34*
D03*
X724877Y-451372D02*
G54D34*
D03*
X712177Y-451372D02*
G54D34*
D03*
X712177Y-501372D02*
G54D34*
D03*
X724877Y-501372D02*
G54D34*
D03*
X737577Y-501372D02*
G54D34*
D03*
X750277Y-501372D02*
G54D34*
D03*
X694637Y-445333D02*
G54D14*
D03*
X694634Y-464337D02*
G54D14*
D03*
X694634Y-472325D02*
G54D14*
D03*
X694627Y-491323D02*
G54D14*
D03*
X861156Y-444686D02*
G54D14*
D03*
X861153Y-463691D02*
G54D14*
D03*
X861153Y-471678D02*
G54D14*
D03*
X861146Y-490676D02*
G54D14*
D03*
X916796Y-450725D02*
G54D34*
D03*
X904096Y-450725D02*
G54D34*
D03*
X891396Y-450725D02*
G54D34*
D03*
X878696Y-450725D02*
G54D34*
D03*
X878696Y-500725D02*
G54D34*
D03*
X891396Y-500725D02*
G54D34*
D03*
X904096Y-500725D02*
G54D34*
D03*
X916796Y-500725D02*
G54D34*
D03*
G54D35*
X954896Y-544726D02*
X954896Y-580126D01*
G54D35*
X942196Y-544726D02*
X942196Y-580126D01*
G54D35*
X967696Y-544726D02*
X967695Y-580126D01*
G54D35*
X954896Y-544726D02*
X954896Y-580126D01*
G54D35*
X942196Y-544726D02*
X942196Y-580126D01*
G54D35*
X929596Y-544726D02*
X929596Y-580126D01*
G54D35*
X904096Y-544726D02*
X904096Y-580126D01*
G54D35*
X980295Y-544726D02*
X980295Y-580126D01*
G54D35*
X891396Y-544726D02*
X891396Y-580126D01*
G54D35*
X878796Y-544726D02*
X878796Y-580126D01*
G54D35*
X865996Y-544726D02*
X865996Y-580126D01*
G54D35*
X853296Y-544726D02*
X853296Y-580126D01*
G54D35*
X788377Y-545373D02*
X788377Y-580773D01*
G54D35*
X775677Y-545373D02*
X775677Y-580773D01*
G54D35*
X801177Y-545373D02*
X801176Y-580773D01*
G54D35*
X788377Y-545373D02*
X788377Y-580773D01*
G54D35*
X775677Y-545373D02*
X775677Y-580773D01*
G54D35*
X763077Y-545373D02*
X763077Y-580773D01*
G54D35*
X737577Y-545373D02*
X737577Y-580773D01*
G54D35*
X813776Y-545373D02*
X813776Y-580773D01*
G54D35*
X724877Y-545373D02*
X724877Y-580773D01*
G54D35*
X712277Y-545373D02*
X712277Y-580773D01*
G54D35*
X699477Y-545373D02*
X699477Y-580773D01*
G54D35*
X686777Y-545373D02*
X686777Y-580773D01*
G54D35*
X916002Y-338351D02*
X916002Y-393594D01*
X860362Y-248630D02*
G54D14*
D03*
X860359Y-267634D02*
G54D14*
D03*
X860359Y-275622D02*
G54D14*
D03*
X860352Y-294620D02*
G54D14*
D03*
X916002Y-254669D02*
G54D34*
D03*
X903302Y-254669D02*
G54D34*
D03*
X890602Y-254669D02*
G54D34*
D03*
X877902Y-254669D02*
G54D34*
D03*
X877902Y-304669D02*
G54D34*
D03*
X890602Y-304669D02*
G54D34*
D03*
X903302Y-304669D02*
G54D34*
D03*
X916002Y-304669D02*
G54D34*
D03*
X696056Y-247836D02*
G54D14*
D03*
X696053Y-266841D02*
G54D14*
D03*
X696053Y-274828D02*
G54D14*
D03*
X696046Y-293826D02*
G54D14*
D03*
X751696Y-253875D02*
G54D34*
D03*
X738996Y-253875D02*
G54D34*
D03*
X726296Y-253875D02*
G54D34*
D03*
X713596Y-253875D02*
G54D34*
D03*
X713596Y-303875D02*
G54D34*
D03*
X726296Y-303875D02*
G54D34*
D03*
X738996Y-303875D02*
G54D34*
D03*
X751696Y-303875D02*
G54D34*
D03*
G54D35*
X954102Y-348670D02*
X954102Y-384070D01*
G54D35*
X941402Y-348670D02*
X941402Y-384070D01*
G54D35*
X966902Y-348670D02*
X966902Y-384070D01*
G54D35*
X954102Y-348670D02*
X954102Y-384070D01*
G54D35*
X941402Y-348670D02*
X941402Y-384070D01*
G54D35*
X928802Y-348670D02*
X928802Y-384070D01*
G54D35*
X903302Y-348670D02*
X903302Y-384070D01*
G54D35*
X979502Y-348670D02*
X979502Y-384070D01*
G54D35*
X890602Y-348670D02*
X890602Y-384070D01*
G54D35*
X878002Y-348670D02*
X878002Y-384070D01*
G54D35*
X865202Y-348670D02*
X865202Y-384070D01*
G54D35*
X852502Y-348670D02*
X852502Y-384070D01*
G54D35*
X789796Y-347876D02*
X789796Y-383276D01*
G54D35*
X777096Y-347876D02*
X777096Y-383276D01*
G54D35*
X802596Y-347876D02*
X802595Y-383276D01*
G54D35*
X789796Y-347876D02*
X789796Y-383276D01*
G54D35*
X777096Y-347876D02*
X777096Y-383276D01*
G54D35*
X764496Y-347876D02*
X764496Y-383276D01*
G54D35*
X738996Y-347876D02*
X738996Y-383276D01*
G54D35*
X815195Y-347876D02*
X815195Y-383276D01*
G54D35*
X726296Y-347876D02*
X726296Y-383276D01*
G54D35*
X713696Y-347876D02*
X713696Y-383276D01*
G54D35*
X700896Y-347876D02*
X700896Y-383276D01*
G54D35*
X688196Y-347876D02*
X688196Y-383276D01*
G54D35*
X639876Y-740725D02*
X639876Y-782475D01*
G54D35*
X627076Y-740726D02*
X627076Y-782476D01*
G54D35*
X614376Y-740726D02*
X614376Y-782476D01*
G54D35*
X601776Y-740726D02*
X601776Y-782476D01*
G54D35*
X588976Y-740726D02*
X588976Y-782475D01*
G54D35*
X576276Y-740726D02*
X576276Y-782475D01*
X589684Y-671324D02*
G54D34*
D03*
X602384Y-671324D02*
G54D34*
D03*
X615084Y-671324D02*
G54D34*
D03*
X627784Y-671324D02*
G54D34*
D03*
G36*
X622783Y-608324D02*
X632783Y-608323D01*
X632785Y-634323D01*
X622785Y-634324D01*
X622783Y-608324D01*
G37*
X615084Y-621324D02*
G54D34*
D03*
X602384Y-621324D02*
G54D34*
D03*
X589684Y-621324D02*
G54D34*
D03*
X651096Y-683835D02*
G54D36*
D03*
X628920Y-683836D02*
G54D36*
D03*
G54D35*
X652476Y-740725D02*
X652476Y-782476D01*
X583280Y-705090D02*
G54D19*
D03*
X600280Y-705090D02*
G54D19*
D03*
X651120Y-695682D02*
G54D22*
D03*
X651120Y-712682D02*
G54D22*
D03*
G54D35*
X639876Y-518475D02*
X639876Y-560225D01*
G54D35*
X627076Y-518476D02*
X627076Y-560226D01*
G54D35*
X614376Y-518476D02*
X614376Y-560226D01*
G54D35*
X601776Y-518476D02*
X601776Y-560226D01*
G54D35*
X588976Y-518476D02*
X588976Y-560225D01*
G54D35*
X576276Y-518476D02*
X576276Y-560225D01*
X589684Y-449074D02*
G54D34*
D03*
X602384Y-449074D02*
G54D34*
D03*
X615084Y-449074D02*
G54D34*
D03*
X627784Y-449074D02*
G54D34*
D03*
G36*
X622783Y-386074D02*
X632783Y-386073D01*
X632785Y-412073D01*
X622785Y-412074D01*
X622783Y-386074D01*
G37*
X615084Y-399074D02*
G54D34*
D03*
X602384Y-399074D02*
G54D34*
D03*
X589684Y-399074D02*
G54D34*
D03*
X651096Y-461585D02*
G54D36*
D03*
X628920Y-461586D02*
G54D36*
D03*
G54D35*
X652476Y-518475D02*
X652476Y-560226D01*
X583280Y-482840D02*
G54D19*
D03*
X600280Y-482840D02*
G54D19*
D03*
X651120Y-473432D02*
G54D22*
D03*
X651120Y-490432D02*
G54D22*
D03*
G54D35*
X639876Y-283525D02*
X639876Y-325275D01*
G54D35*
X627076Y-283526D02*
X627076Y-325276D01*
G54D35*
X614376Y-283526D02*
X614376Y-325276D01*
G54D35*
X601776Y-283526D02*
X601776Y-325276D01*
G54D35*
X588976Y-283526D02*
X588976Y-325275D01*
G54D35*
X576276Y-283526D02*
X576276Y-325275D01*
X589684Y-214124D02*
G54D34*
D03*
X602384Y-214124D02*
G54D34*
D03*
X615084Y-214124D02*
G54D34*
D03*
X627784Y-214124D02*
G54D34*
D03*
G36*
X622783Y-151124D02*
X632783Y-151123D01*
X632785Y-177123D01*
X622785Y-177124D01*
X622783Y-151124D01*
G37*
X615084Y-164124D02*
G54D34*
D03*
X602384Y-164124D02*
G54D34*
D03*
X589684Y-164124D02*
G54D34*
D03*
X651096Y-226635D02*
G54D36*
D03*
X628920Y-226636D02*
G54D36*
D03*
G54D35*
X652476Y-283525D02*
X652476Y-325276D01*
X583280Y-247890D02*
G54D19*
D03*
X600280Y-247890D02*
G54D19*
D03*
X651120Y-238482D02*
G54D22*
D03*
X651120Y-255482D02*
G54D22*
D03*
G54D35*
X916002Y-128801D02*
X916002Y-184044D01*
X860362Y-39080D02*
G54D14*
D03*
X860359Y-58084D02*
G54D14*
D03*
X860359Y-66072D02*
G54D14*
D03*
X860352Y-85070D02*
G54D14*
D03*
X916002Y-45119D02*
G54D34*
D03*
X903302Y-45119D02*
G54D34*
D03*
X890602Y-45119D02*
G54D34*
D03*
X877902Y-45119D02*
G54D34*
D03*
X877902Y-95119D02*
G54D34*
D03*
X890602Y-95119D02*
G54D34*
D03*
X903302Y-95119D02*
G54D34*
D03*
X916002Y-95119D02*
G54D34*
D03*
G54D35*
X954102Y-139120D02*
X954102Y-174520D01*
G54D35*
X941402Y-139120D02*
X941402Y-174520D01*
G54D35*
X966902Y-139120D02*
X966902Y-174520D01*
G54D35*
X954102Y-139120D02*
X954102Y-174520D01*
G54D35*
X941402Y-139120D02*
X941402Y-174520D01*
G54D35*
X928802Y-139120D02*
X928802Y-174520D01*
G54D35*
X903302Y-139120D02*
X903302Y-174520D01*
G54D35*
X979502Y-139120D02*
X979502Y-174520D01*
G54D35*
X890602Y-139120D02*
X890602Y-174520D01*
G54D35*
X878002Y-139120D02*
X878002Y-174520D01*
G54D35*
X865202Y-139120D02*
X865202Y-174520D01*
G54D35*
X852502Y-139120D02*
X852502Y-174520D01*
X695056Y-41376D02*
G54D14*
D03*
X695053Y-60381D02*
G54D14*
D03*
X695053Y-68369D02*
G54D14*
D03*
X695046Y-87366D02*
G54D14*
D03*
X750696Y-47416D02*
G54D34*
D03*
X737996Y-47416D02*
G54D34*
D03*
X725296Y-47416D02*
G54D34*
D03*
X712596Y-47416D02*
G54D34*
D03*
X712596Y-97416D02*
G54D34*
D03*
X725296Y-97416D02*
G54D34*
D03*
X737996Y-97416D02*
G54D34*
D03*
X750696Y-97416D02*
G54D34*
D03*
G54D35*
X788796Y-141416D02*
X788796Y-176816D01*
G54D35*
X776096Y-141416D02*
X776096Y-176816D01*
G54D35*
X801596Y-141416D02*
X801596Y-176816D01*
G54D35*
X788796Y-141416D02*
X788796Y-176816D01*
G54D35*
X776096Y-141416D02*
X776096Y-176816D01*
G54D35*
X763496Y-141416D02*
X763496Y-176816D01*
G54D35*
X737996Y-141416D02*
X737996Y-176816D01*
G54D35*
X814196Y-141416D02*
X814196Y-176816D01*
G54D35*
X725296Y-141416D02*
X725296Y-176816D01*
G54D35*
X712696Y-141416D02*
X712696Y-176816D01*
G54D35*
X699896Y-141416D02*
X699896Y-176816D01*
G54D35*
X687196Y-141416D02*
X687196Y-176816D01*
X401990Y-329679D02*
G54D22*
D03*
X401994Y-312683D02*
G54D22*
D03*
M02*
