; Drill file
; Format: 2.4 (00.0000)
M48
INCH
T01C0.0197
T02C0.0236
T03C0.0276
T04C0.0394
T05C0.0413
T06C0.0433
T07C0.0984
%
G05
G90
T01
X003520Y-036070
X006020Y-032590
X005680Y-031260
X007550Y-032590
X010050Y-036070
X012550Y-032590
X014050Y-032590
X013710Y-031310
X017730Y-031340
X019050Y-032590
X020550Y-032590
X023050Y-036070
X025550Y-032590
X027050Y-032590
X029550Y-036070
X032050Y-032590
X033550Y-032590
X036050Y-036070
X038550Y-032590
X036050Y-028210
X038550Y-024740
X036090Y-020450
X038590Y-016970
X036060Y-012730
X033560Y-009250
X032090Y-009220
X029590Y-012700
X027090Y-009220
X025660Y-007920
X024550Y-007420
X023340Y-007440
X019730Y-012600
X020780Y-013260
X019140Y-014700
X018030Y-016430
X018140Y-018640
X015310Y-019030
X014370Y-020590
X011620Y-021200
X008650Y-019040
X007390Y-018120
X006070Y-019960
X003290Y-018920
X003950Y-017870
X002540Y-014480
X004150Y-012030
X006370Y-009090
X006910Y-007760
X008170Y-008180
X009540Y-008730
X010950Y-008570
X009990Y-007150
X011010Y-005590
X009730Y-004900
X007730Y-005140
X005730Y-003850
X004940Y-006250
X004940Y-006810
X002640Y-005990
X004030Y-001930
X012340Y-003900
X015990Y-003240
X015060Y-009930
X015810Y-010430
X016590Y-013670
X014280Y-013670
X012480Y-014310
X010730Y-012790
X008810Y-015260
X010870Y-016560
X015810Y-016900
X015870Y-015900
X023340Y-016690
X024550Y-016670
X025660Y-017170
X027040Y-017000
X029540Y-020470
X032040Y-017000
X033590Y-016970
X033550Y-024740
X032030Y-024770
X029530Y-028240
X027030Y-024770
X025660Y-025920
X024550Y-025420
X023340Y-025440
X017730Y-026340
X013710Y-026310
X005680Y-026260
X002170Y-026180
X002170Y-031180
X001020Y-032590
X016550Y-036070
X029550Y-004570
X032050Y-001090
X033560Y-001000
X036060Y-004480
X038560Y-001000
X038560Y-009250
X027050Y-001090
T02
X001670Y-030640
X002670Y-030640
X003670Y-030640
X004680Y-030640
X005680Y-030640
X006690Y-030640
X007690Y-030640
X008690Y-030640
X009700Y-030640
X010700Y-030640
X011710Y-030640
X012710Y-030640
X013710Y-030640
X014720Y-030640
X015720Y-030640
X016730Y-030640
X017730Y-030640
X018730Y-030640
X019740Y-030640
X020740Y-030640
X020240Y-029770
X019740Y-028980
X019240Y-029770
X018730Y-028980
X018230Y-029770
X017730Y-028980
X018230Y-028190
X019240Y-028190
X020240Y-028190
X020740Y-028980
X020740Y-025640
X019740Y-025640
X018730Y-025640
X017730Y-025640
X016730Y-025640
X015720Y-025640
X014720Y-025640
X013710Y-025640
X012710Y-025640
X011710Y-025640
X010700Y-025640
X009700Y-025640
X008690Y-025640
X007690Y-025640
X006690Y-025640
X005680Y-025640
X004680Y-025640
X003670Y-025640
X002670Y-025640
X001670Y-025640
X002170Y-024770
X002670Y-023980
X003170Y-024770
X003670Y-023980
X004180Y-023190
X004680Y-023980
X004180Y-024770
X005680Y-023980
X006180Y-024770
X006690Y-023980
X007190Y-024770
X007690Y-023980
X008190Y-024770
X008690Y-023980
X008190Y-023190
X007190Y-023190
X006180Y-023190
X006390Y-020910
X007200Y-020910
X007950Y-020910
X009520Y-020910
X010200Y-023190
X009700Y-023980
X010200Y-024770
X010700Y-023980
X011200Y-024770
X011710Y-023980
X012210Y-024770
X012710Y-023980
X012210Y-023190
X011200Y-023190
X013710Y-023980
X014220Y-024770
X014720Y-023980
X015220Y-024770
X015720Y-023980
X016220Y-024770
X016730Y-023980
X016220Y-023190
X015220Y-023190
X014220Y-023190
X012240Y-020760
X011350Y-017230
X009520Y-016470
X008770Y-016470
X007950Y-016470
X006390Y-016470
X005520Y-017050
X009810Y-014490
X009750Y-013880
X010310Y-013590
X009330Y-013370
X013890Y-015310
X014390Y-015810
X015180Y-016530
X016120Y-019010
X016120Y-020010
X018230Y-023190
X018730Y-023980
X018230Y-024770
X017730Y-023980
X019240Y-024770
X019740Y-023980
X020240Y-024770
X020740Y-023980
X020240Y-023190
X019240Y-023190
X019990Y-019980
X019990Y-019190
X019860Y-013390
X016500Y-012870
X016090Y-009730
X015280Y-009060
X015810Y-008530
X016000Y-006750
X015720Y-006160
X015220Y-005690
X014680Y-006190
X016730Y-006310
X019510Y-008500
X005970Y-001760
X003170Y-023190
X002170Y-023190
X001670Y-023980
X002170Y-028190
X001670Y-028980
X002170Y-029770
X002670Y-028980
X003170Y-029770
X003670Y-028980
X004180Y-028190
X004680Y-028980
X004180Y-029770
X005680Y-028980
X006180Y-029770
X006690Y-028980
X007190Y-029770
X007690Y-028980
X008190Y-029770
X008690Y-028980
X008190Y-028190
X007190Y-028190
X006180Y-028190
X003170Y-028190
X009700Y-028980
X010200Y-029770
X010700Y-028980
X011200Y-029770
X011710Y-028980
X012210Y-029770
X012710Y-028980
X012210Y-028190
X011200Y-028190
X010200Y-028190
X013710Y-028980
X014220Y-029770
X014720Y-028980
X015220Y-029770
X015720Y-028980
X016220Y-029770
X016730Y-028980
X016220Y-028190
X015220Y-028190
X014220Y-028190
T03
X020050Y-010380
X020050Y-008800
X020060Y-007230
X020060Y-006230
T04
X000310Y-005280
T05
X010590Y-020710
X020620Y-020750
T06
X017300Y-020010
X017300Y-019010
X017300Y-017010
X017300Y-016010
X019300Y-018010
T07
X018780Y-004820
M30
