%FSLAX34Y34*%
%MOMM*%
%LNCOPPER_BOTTOM*%
G71*
G01*
%ADD10C, 2.100*%
%ADD11C, 2.300*%
%ADD12C, 1.200*%
%ADD13R, 2.400X2.800*%
%ADD14R, 1.590X1.200*%
%ADD15C, 1.150*%
%ADD16R, 4.200X2.300*%
%ADD17C, 1.600*%
%ADD18C, 0.500*%
%ADD19R, 2.200X2.200*%
%ADD20R, 2.200X2.100*%
%ADD21C, 2.400*%
%ADD22C, 1.900*%
%ADD23C, 3.000*%
%ADD24R, 2.200X2.800*%
%ADD25R, 1.900X2.000*%
%ADD26C, 2.500*%
%ADD27C, 2.600*%
%ADD28R, 2.800X1.870*%
%ADD29R, 2.000X1.900*%
%ADD30R, 2.300X2.500*%
%ADD31C, 2.900*%
%ADD32C, 1.300*%
%ADD33R, 1.950X1.000*%
%ADD34R, 2.500X2.900*%
%ADD35C, 2.200*%
%ADD36C, 0.950*%
%ADD37C, 2.000*%
%ADD38C, 1.000*%
%ADD39C, 0.300*%
%ADD40C, 0.400*%
%ADD41C, 1.350*%
%ADD42C, 2.000*%
%ADD43C, 1.700*%
%ADD44C, 1.800*%
%ADD45R, 3.200X1.600*%
%ADD46C, 1.100*%
%ADD47R, 1.100X1.800*%
%ADD48C, 0.150*%
%ADD49R, 4.100X1.600*%
%ADD50R, 3.100X1.600*%
%ADD51C, 1.500*%
%ADD52C, 0.827*%
%ADD53C, 0.498*%
%ADD54C, 0.467*%
%ADD55C, 0.433*%
%ADD56C, 0.333*%
%ADD57C, 0.372*%
%ADD58C, 0.325*%
%ADD59C, 0.304*%
%ADD60C, 1.300*%
%ADD61C, 1.500*%
%ADD62R, 1.600X2.000*%
%ADD63R, 0.990X0.600*%
%ADD64C, 0.550*%
%ADD65R, 3.600X1.700*%
%ADD66C, 0.800*%
%ADD67R, 1.600X1.600*%
%ADD68R, 1.400X1.300*%
%ADD69R, 1.400X1.400*%
%ADD70C, 1.600*%
%ADD71C, 0.700*%
%ADD72R, 1.000X1.600*%
%ADD73R, 1.100X1.200*%
%ADD74C, 1.800*%
%ADD75R, 1.600X0.670*%
%ADD76R, 1.200X1.100*%
%ADD77R, 1.300X1.500*%
%ADD78C, 2.100*%
%ADD79R, 1.350X0.400*%
%ADD80R, 1.900X2.300*%
%ADD81C, 1.400*%
%ADD82C, 0.350*%
%ADD83C, 1.200*%
%ADD84C, 0.250*%
%ADD85C, 0.600*%
%ADD86C, 0.280*%
%ADD87C, 2.600*%
%ADD88R, 2.400X0.800*%
%ADD89R, 0.300X1.000*%
%ADD90R, 3.300X0.800*%
%ADD91R, 2.300X0.800*%
%ADD92C, 0.900*%
%ADD93C, 0.750*%
%LPD*%
G36*
X250Y50D02*
X1000250Y50D01*
X1000250Y-999950D01*
X250Y-999950D01*
X250Y50D01*
G37*
%LPC*%
X42330Y-651323D02*
G54D10*
D03*
X67830Y-651323D02*
G54D10*
D03*
X93330Y-651323D02*
G54D10*
D03*
X118830Y-651323D02*
G54D10*
D03*
X144330Y-651323D02*
G54D10*
D03*
X169830Y-651323D02*
G54D10*
D03*
X195330Y-651323D02*
G54D10*
D03*
X220830Y-651323D02*
G54D10*
D03*
X246330Y-651323D02*
G54D10*
D03*
X271830Y-651323D02*
G54D10*
D03*
X297330Y-651323D02*
G54D10*
D03*
X322830Y-651323D02*
G54D10*
D03*
X348330Y-651323D02*
G54D10*
D03*
X373830Y-651323D02*
G54D10*
D03*
X399330Y-651323D02*
G54D10*
D03*
X424830Y-651323D02*
G54D10*
D03*
X450330Y-651323D02*
G54D10*
D03*
X475830Y-651323D02*
G54D10*
D03*
X501330Y-651323D02*
G54D10*
D03*
X526830Y-651323D02*
G54D10*
D03*
X42330Y-609047D02*
G54D10*
D03*
X67830Y-609048D02*
G54D10*
D03*
X93331Y-609046D02*
G54D11*
D03*
X118830Y-609048D02*
G54D10*
D03*
X144330Y-609048D02*
G54D10*
D03*
X169830Y-609048D02*
G54D10*
D03*
X195330Y-609048D02*
G54D10*
D03*
X220830Y-609048D02*
G54D10*
D03*
X246330Y-609048D02*
G54D10*
D03*
X271830Y-609048D02*
G54D10*
D03*
X297330Y-609048D02*
G54D10*
D03*
X322830Y-609048D02*
G54D10*
D03*
X348330Y-609048D02*
G54D10*
D03*
X373830Y-609048D02*
G54D10*
D03*
X399330Y-609048D02*
G54D10*
D03*
X424830Y-609048D02*
G54D10*
D03*
X450330Y-609048D02*
G54D10*
D03*
X475830Y-609048D02*
G54D10*
D03*
X501330Y-609048D02*
G54D10*
D03*
X526830Y-609048D02*
G54D10*
D03*
X55080Y-629048D02*
G54D10*
D03*
X80580Y-629048D02*
G54D10*
D03*
X106080Y-629048D02*
G54D10*
D03*
X157080Y-629048D02*
G54D10*
D03*
X182580Y-629048D02*
G54D10*
D03*
X208080Y-629048D02*
G54D10*
D03*
X259080Y-629048D02*
G54D10*
D03*
X284580Y-629048D02*
G54D10*
D03*
X310080Y-629048D02*
G54D10*
D03*
X361080Y-629048D02*
G54D10*
D03*
X386580Y-629048D02*
G54D10*
D03*
X412080Y-629048D02*
G54D10*
D03*
X463080Y-629048D02*
G54D10*
D03*
X488580Y-629048D02*
G54D10*
D03*
X514080Y-629048D02*
G54D10*
D03*
X55080Y-589047D02*
G54D10*
D03*
X80580Y-589047D02*
G54D10*
D03*
X106080Y-589048D02*
G54D10*
D03*
X157080Y-589048D02*
G54D10*
D03*
X182580Y-589048D02*
G54D10*
D03*
X208080Y-589048D02*
G54D10*
D03*
X259080Y-589048D02*
G54D10*
D03*
X284580Y-589048D02*
G54D10*
D03*
X310080Y-589048D02*
G54D10*
D03*
X361080Y-589048D02*
G54D10*
D03*
X386580Y-589048D02*
G54D10*
D03*
X412080Y-589048D02*
G54D10*
D03*
X463080Y-589048D02*
G54D10*
D03*
X488580Y-589048D02*
G54D10*
D03*
X514080Y-589048D02*
G54D10*
D03*
G54D12*
X182580Y-589048D02*
X182580Y-573920D01*
G54D12*
X284580Y-589048D02*
X284580Y-573920D01*
G54D12*
X488580Y-589048D02*
X488580Y-573920D01*
G54D12*
X386580Y-589048D02*
X386580Y-573920D01*
G54D12*
X488580Y-573920D02*
X95708Y-573920D01*
X80580Y-589048D01*
X475967Y-332525D02*
G54D13*
D03*
X447976Y-332517D02*
G54D13*
D03*
X377450Y-286962D02*
G54D14*
D03*
X377452Y-296367D02*
G54D14*
D03*
X377450Y-305962D02*
G54D14*
D03*
X403349Y-305962D02*
G54D14*
D03*
X403350Y-286962D02*
G54D14*
D03*
G54D15*
X377449Y-305962D02*
X366189Y-305962D01*
X364050Y-303823D01*
X364050Y-290726D01*
X367815Y-286962D01*
X377450Y-286962D01*
X433570Y-307447D02*
G54D16*
D03*
X433570Y-284447D02*
G54D16*
D03*
G54D15*
X403350Y-286962D02*
X439389Y-286962D01*
X441508Y-284844D01*
G54D15*
X403349Y-305962D02*
X439626Y-305962D01*
X441508Y-307844D01*
G54D17*
X447967Y-377903D02*
X447971Y-342045D01*
G36*
X410570Y-287594D02*
X397870Y-287594D01*
X397870Y-306644D01*
X410570Y-306644D01*
X410570Y-287594D01*
G37*
G54D18*
X410570Y-287594D02*
X397870Y-287594D01*
X397870Y-306644D01*
X410570Y-306644D01*
X410570Y-287594D01*
X401398Y-330569D02*
G54D19*
D03*
X373398Y-330570D02*
G54D19*
D03*
X351676Y-332078D02*
G54D20*
D03*
X351678Y-313073D02*
G54D20*
D03*
X425000Y-234889D02*
G54D20*
D03*
X425000Y-256463D02*
G54D20*
D03*
X419080Y-326878D02*
G54D10*
D03*
X447967Y-377903D02*
G54D19*
D03*
X504537Y-340233D02*
G54D21*
D03*
X247650Y-352656D02*
G54D10*
D03*
X261942Y-345286D02*
G54D10*
D03*
X249218Y-368154D02*
G54D22*
D03*
X507820Y-487399D02*
G54D22*
D03*
G36*
X505874Y-545026D02*
X505874Y-509026D01*
X541874Y-509026D01*
X541874Y-545026D01*
X505874Y-545026D01*
G37*
X7998Y-134137D02*
G54D23*
D03*
X228663Y-50435D02*
G54D24*
D03*
X243742Y-50433D02*
G54D24*
D03*
X258030Y-50433D02*
G54D24*
D03*
X272317Y-50434D02*
G54D24*
D03*
X286605Y-50433D02*
G54D24*
D03*
X300895Y-50435D02*
G54D24*
D03*
X315180Y-50433D02*
G54D24*
D03*
X329467Y-50433D02*
G54D24*
D03*
X300895Y-70815D02*
G54D25*
D03*
X317895Y-70815D02*
G54D25*
D03*
G54D12*
X315180Y-50433D02*
X315180Y-70481D01*
X317895Y-73196D01*
X236934Y-339559D02*
G54D10*
D03*
X162330Y-531149D02*
G54D26*
D03*
X182975Y-531155D02*
G54D26*
D03*
X202025Y-531155D02*
G54D26*
D03*
X202022Y-418315D02*
G54D26*
D03*
G36*
X287040Y-508074D02*
X287040Y-544074D01*
X251040Y-544074D01*
X251040Y-508074D01*
X287040Y-508074D01*
G37*
X509438Y-183754D02*
G54D27*
D03*
X509435Y-158354D02*
G54D27*
D03*
X151737Y-44706D02*
G54D21*
D03*
X328128Y-452730D02*
G54D28*
D03*
X328128Y-465430D02*
G54D28*
D03*
X328128Y-478130D02*
G54D28*
D03*
X328128Y-490830D02*
G54D28*
D03*
X271128Y-490830D02*
G54D28*
D03*
X271128Y-478130D02*
G54D28*
D03*
X271128Y-465430D02*
G54D28*
D03*
X271128Y-452730D02*
G54D28*
D03*
X348596Y-476146D02*
G54D29*
D03*
X348596Y-493146D02*
G54D29*
D03*
X348596Y-452002D02*
G54D29*
D03*
X348596Y-469002D02*
G54D29*
D03*
X367561Y-489336D02*
G54D29*
D03*
X367561Y-472336D02*
G54D29*
D03*
X140097Y-432990D02*
G54D22*
D03*
X458390Y-525858D02*
G54D30*
D03*
X162334Y-418316D02*
G54D10*
D03*
X222659Y-418316D02*
G54D10*
D03*
X241709Y-418316D02*
G54D10*
D03*
G36*
X120211Y-365777D02*
X131526Y-354464D01*
X154152Y-377093D01*
X142837Y-388406D01*
X120211Y-365777D01*
G37*
G36*
X129192Y-356797D02*
X140506Y-345484D01*
X163132Y-368112D01*
X151818Y-379425D01*
X129192Y-356797D01*
G37*
G36*
X138172Y-347815D02*
X149487Y-336503D01*
X172112Y-359133D01*
X160797Y-370446D01*
X138172Y-347815D01*
G37*
G36*
X147151Y-338838D02*
X158464Y-327524D01*
X181093Y-350150D01*
X169780Y-361464D01*
X147151Y-338838D01*
G37*
G36*
X182507Y-374193D02*
X193820Y-362879D01*
X216448Y-385506D01*
X205135Y-396820D01*
X182507Y-374193D01*
G37*
G36*
X173527Y-383174D02*
X184840Y-371860D01*
X207468Y-394486D01*
X196155Y-405800D01*
X173527Y-383174D01*
G37*
G36*
X164547Y-392154D02*
X175860Y-380840D01*
X198488Y-403466D01*
X187175Y-414780D01*
X164547Y-392154D01*
G37*
G36*
X155567Y-401133D02*
X166881Y-389820D01*
X189507Y-412448D01*
X178193Y-423761D01*
X155567Y-401133D01*
G37*
X234477Y-510372D02*
G54D25*
D03*
X217475Y-510369D02*
G54D25*
D03*
X478231Y-525859D02*
G54D30*
D03*
X490336Y-457421D02*
G54D31*
D03*
X439536Y-482820D02*
G54D31*
D03*
X439536Y-432020D02*
G54D31*
D03*
X439536Y-406621D02*
G54D31*
D03*
X439536Y-508220D02*
G54D31*
D03*
G54D32*
X412548Y-482820D02*
X455436Y-482820D01*
X478231Y-505616D01*
X478231Y-527447D01*
X503811Y-230565D02*
G54D33*
D03*
X503811Y-237065D02*
G54D33*
D03*
X503811Y-243565D02*
G54D33*
D03*
X503811Y-250065D02*
G54D33*
D03*
X503811Y-256565D02*
G54D33*
D03*
X530561Y-281065D02*
G54D34*
D03*
X530561Y-206065D02*
G54D34*
D03*
X403236Y-216652D02*
G54D35*
D03*
X425000Y-196392D02*
G54D20*
D03*
X425000Y-217966D02*
G54D20*
D03*
X445637Y-224094D02*
G54D20*
D03*
X445637Y-245668D02*
G54D20*
D03*
X445637Y-185597D02*
G54D20*
D03*
X445637Y-207171D02*
G54D20*
D03*
G54D32*
X425000Y-234889D02*
X425000Y-217966D01*
G54D12*
X445637Y-224094D02*
X445637Y-207171D01*
G54D15*
X411943Y-205960D02*
X413147Y-207164D01*
X442780Y-207165D01*
G36*
X504815Y-219833D02*
X499404Y-225244D01*
X491726Y-225244D01*
X486315Y-219833D01*
X486315Y-212155D01*
X491726Y-206744D01*
X499404Y-206744D01*
X504815Y-212155D01*
X504815Y-219833D01*
G37*
G54D32*
X530561Y-206065D02*
X530561Y-281065D01*
G54D36*
X503811Y-250065D02*
X474629Y-250065D01*
X408574Y-247106D02*
G54D37*
D03*
G36*
X369464Y-392138D02*
X375022Y-397696D01*
X375022Y-405580D01*
X369464Y-411138D01*
X361580Y-411138D01*
X356022Y-405580D01*
X356022Y-397696D01*
X361580Y-392138D01*
X369464Y-392138D01*
G37*
G36*
X356764Y-379438D02*
X362322Y-384996D01*
X362322Y-392880D01*
X356764Y-398438D01*
X348880Y-398438D01*
X343322Y-392880D01*
X343322Y-384996D01*
X348880Y-379438D01*
X356764Y-379438D01*
G37*
G36*
X389434Y-410394D02*
X394992Y-415952D01*
X394992Y-423836D01*
X389434Y-429394D01*
X381550Y-429394D01*
X375992Y-423836D01*
X375992Y-415952D01*
X381550Y-410394D01*
X389434Y-410394D01*
G37*
G54D17*
X475962Y-364046D02*
X475967Y-342050D01*
G54D15*
X425000Y-234889D02*
X461901Y-234889D01*
X470578Y-243565D01*
X503811Y-243565D01*
G54D15*
X503811Y-237065D02*
X477174Y-237065D01*
X464203Y-224094D01*
X445637Y-224094D01*
X466275Y-185597D02*
G54D20*
D03*
X466274Y-207171D02*
G54D20*
D03*
G54D38*
X503811Y-230565D02*
X480993Y-230565D01*
X466274Y-215846D01*
X466274Y-207171D01*
G54D32*
X530561Y-206065D02*
X502928Y-206065D01*
X491728Y-194866D01*
X484584Y-194866D01*
X477300Y-187581D01*
X466275Y-187581D01*
G54D32*
X466275Y-186073D02*
X445638Y-186073D01*
X486734Y-277581D02*
G54D29*
D03*
X486734Y-260581D02*
G54D29*
D03*
X468478Y-277581D02*
G54D29*
D03*
X468478Y-260581D02*
G54D29*
D03*
G36*
X483162Y-254677D02*
X444446Y-254677D01*
X408574Y-247106D01*
X444446Y-225459D01*
X483162Y-225459D01*
X483162Y-254677D01*
G37*
G54D39*
X483162Y-254677D02*
X444446Y-254677D01*
X408574Y-247106D01*
X444446Y-225459D01*
X483162Y-225459D01*
X483162Y-254677D01*
G54D12*
X468478Y-277581D02*
X527077Y-277581D01*
X530561Y-281065D01*
G36*
X489724Y-230565D02*
X456792Y-230565D01*
X425000Y-217966D01*
X440478Y-180517D01*
X470632Y-180914D01*
X484584Y-194866D01*
X491728Y-194866D01*
X498165Y-201302D01*
X489724Y-230565D01*
G37*
G54D40*
X489724Y-230565D02*
X456792Y-230565D01*
X425000Y-217966D01*
X440478Y-180517D01*
X470632Y-180914D01*
X484584Y-194866D01*
X491728Y-194866D01*
X498165Y-201302D01*
X489724Y-230565D01*
X389766Y-230122D02*
G54D35*
D03*
G54D32*
X419080Y-326878D02*
X400605Y-326878D01*
G54D40*
X356790Y-198834D02*
X332565Y-223060D01*
X332565Y-348440D01*
X342106Y-357981D01*
X486193Y-357981D01*
X536654Y-307520D01*
X536654Y-199707D01*
X535781Y-198834D01*
X356790Y-198834D01*
G54D32*
X371414Y-334419D02*
X371414Y-324583D01*
X362682Y-315851D01*
X350091Y-315851D01*
G54D41*
X352075Y-314264D02*
X352075Y-301975D01*
X357584Y-296466D01*
X363538Y-296466D01*
G54D17*
X475967Y-332525D02*
X475967Y-321980D01*
X460244Y-306256D01*
X437936Y-306256D01*
G54D32*
X348596Y-453192D02*
X357546Y-453192D01*
X367561Y-463208D01*
X367561Y-472336D01*
G54D12*
X222659Y-418316D02*
X222659Y-415144D01*
X211931Y-404416D01*
X206083Y-404416D01*
X190498Y-388830D01*
G54D12*
X241709Y-418316D02*
X241709Y-415540D01*
X228203Y-402034D01*
X221662Y-402034D01*
X199478Y-379850D01*
G54D32*
X162334Y-418316D02*
X162334Y-416993D01*
X172537Y-406790D01*
X310975Y-527400D02*
G54D11*
D03*
X409374Y-482820D02*
G54D35*
D03*
X409526Y-508220D02*
G54D35*
D03*
X125484Y-158749D02*
G54D42*
D03*
X125480Y-173034D02*
G54D42*
D03*
G36*
X156189Y-150557D02*
X238740Y-150557D01*
X238740Y-182307D01*
X156190Y-182307D01*
X156189Y-150557D01*
G37*
G54D43*
X156189Y-150557D02*
X238740Y-150557D01*
X238740Y-182307D01*
X156190Y-182307D01*
X156189Y-150557D01*
G54D44*
X143631Y-172243D02*
X125484Y-172243D01*
G54D44*
X143631Y-159543D02*
X125484Y-159543D01*
X288258Y-437753D02*
G54D22*
D03*
X182975Y-510366D02*
G54D25*
D03*
X199977Y-510369D02*
G54D25*
D03*
G54D32*
X182975Y-531155D02*
X182975Y-508778D01*
G54D32*
X199977Y-510369D02*
X217475Y-510369D01*
X386556Y-144462D02*
G54D37*
D03*
X372978Y-157247D02*
G54D37*
D03*
X399256Y-156369D02*
G54D37*
D03*
X406400Y-171450D02*
G54D37*
D03*
X425053Y-160338D02*
G54D37*
D03*
G54D12*
G75*
G01X399056Y-144462D02*
G03X377717Y-135624I-12500J0D01*
G01*
G54D12*
X372978Y-157247D02*
X370200Y-154469D01*
X311234Y-154469D01*
X243742Y-86977D01*
X243742Y-50433D01*
G54D12*
X386556Y-144462D02*
X313134Y-144066D01*
X258030Y-88961D01*
X258030Y-50433D01*
G54D12*
X399056Y-144462D02*
X399056Y-156169D01*
X399256Y-156369D01*
G54D12*
X377717Y-135624D02*
X317392Y-135624D01*
X272318Y-90549D01*
X272318Y-50434D01*
G54D12*
G75*
G01X407194Y-144462D02*
G03X376237Y-126590I-20638J0D01*
G01*
G54D12*
X376237Y-126590D02*
X320312Y-126590D01*
X286605Y-92883D01*
X286605Y-50433D01*
G54D12*
X406400Y-171450D02*
X412353Y-165497D01*
X412353Y-149621D01*
X407194Y-144462D01*
G54D12*
G75*
G01X411943Y-205960D02*
G03X390922Y-214668I-8707J-8708D01*
G01*
G54D12*
X390922Y-214667D02*
X390922Y-228966D01*
X389766Y-230122D01*
X268043Y-256452D02*
G54D45*
D03*
X268043Y-269152D02*
G54D45*
D03*
X268043Y-281852D02*
G54D45*
D03*
X268043Y-294552D02*
G54D45*
D03*
X218042Y-294552D02*
G54D45*
D03*
X218043Y-281852D02*
G54D45*
D03*
X218043Y-269152D02*
G54D45*
D03*
X218043Y-256452D02*
G54D45*
D03*
G54D12*
X218043Y-256452D02*
X218043Y-269152D01*
G54D12*
G75*
G01X414473Y-136995D02*
G03X379017Y-116524I-27963J-7493D01*
G01*
G54D12*
X329467Y-50433D02*
X329467Y-98486D01*
X347505Y-116524D01*
X379017Y-116524D01*
G54D38*
X425053Y-160338D02*
X425053Y-147575D01*
X414473Y-136995D01*
G36*
X228663Y-50435D02*
X228663Y-84994D01*
X286605Y-92883D01*
X286605Y-50433D01*
X228663Y-50435D01*
G37*
G54D40*
X228663Y-50435D02*
X228663Y-84994D01*
X286605Y-92883D01*
X286605Y-50433D01*
X228663Y-50435D01*
G36*
X422275Y-156766D02*
X404416Y-156766D01*
X404416Y-146844D01*
X422275Y-146844D01*
X422275Y-156766D01*
G37*
G54D40*
X422275Y-156766D02*
X404416Y-156766D01*
X404416Y-146844D01*
X422275Y-146844D01*
X422275Y-156766D01*
G54D46*
X425000Y-256463D02*
X434842Y-256463D01*
X445637Y-245668D01*
G54D46*
X445638Y-185597D02*
X435795Y-185597D01*
X425000Y-196392D01*
G36*
X486734Y-277700D02*
X525462Y-277700D01*
X525462Y-285075D01*
X486734Y-285075D01*
X486734Y-277700D01*
G37*
G54D40*
X486734Y-277700D02*
X525462Y-277700D01*
X525462Y-285075D01*
X486734Y-285075D01*
X486734Y-277700D01*
G54D32*
X425000Y-256463D02*
X417932Y-256463D01*
X408574Y-247106D01*
X328565Y-527399D02*
G54D25*
D03*
X345564Y-527400D02*
G54D25*
D03*
G54D32*
X310975Y-527399D02*
X328565Y-527399D01*
G54D12*
X236934Y-339559D02*
X236934Y-263128D01*
X242888Y-257175D01*
G54D12*
X268836Y-256452D02*
X243610Y-256452D01*
X242888Y-257175D01*
G54D12*
X223599Y-345836D02*
X231628Y-353866D01*
X246440Y-353866D01*
X247650Y-352656D01*
G54D12*
X261942Y-345286D02*
X247253Y-330597D01*
X247253Y-277416D01*
X255516Y-269152D01*
X268043Y-269152D01*
G54D12*
X337078Y-398859D02*
X288131Y-398859D01*
X257426Y-368154D01*
X248821Y-368154D01*
G54D12*
X365522Y-401638D02*
X365522Y-383381D01*
X359172Y-377031D01*
X345084Y-377031D01*
X343000Y-379115D01*
X295772Y-379115D01*
X261942Y-345286D01*
G54D12*
X352822Y-388938D02*
X292894Y-388938D01*
X263525Y-359569D01*
X247650Y-352656D01*
G36*
X194398Y-281852D02*
X187722Y-299640D01*
X249218Y-368154D01*
X261942Y-345286D01*
X247253Y-330597D01*
X247253Y-310753D01*
X230188Y-293688D01*
X194398Y-281852D01*
G37*
G54D40*
X194398Y-281852D02*
X187722Y-299640D01*
X249218Y-368154D01*
X261942Y-345286D01*
X247253Y-330597D01*
X247253Y-310753D01*
X230188Y-293688D01*
X194398Y-281852D01*
G36*
X219075Y-243681D02*
X268042Y-243681D01*
X268042Y-281852D01*
X219075Y-281852D01*
X219075Y-243681D01*
G37*
G54D40*
X219075Y-243681D02*
X268042Y-243681D01*
X268042Y-281852D01*
X219075Y-281852D01*
X219075Y-243681D01*
G54D32*
X228663Y-74279D02*
X228663Y-84994D01*
X267890Y-124222D01*
G54D17*
X469041Y-354528D02*
X490242Y-354528D01*
X504537Y-340233D01*
G54D12*
X337078Y-398859D02*
X344091Y-398859D01*
X360362Y-415131D01*
X380730Y-415131D01*
X385492Y-419894D01*
G36*
X352822Y-388938D02*
X365522Y-388938D01*
X365522Y-401638D01*
X352822Y-401638D01*
X352822Y-388938D01*
G37*
G54D40*
X352822Y-388938D02*
X365522Y-388938D01*
X365522Y-401638D01*
X352822Y-401638D01*
X352822Y-388938D01*
G54D32*
X409526Y-508220D02*
X375333Y-508220D01*
X367561Y-500448D01*
X367561Y-489336D01*
X222400Y-446243D02*
G54D29*
D03*
X222403Y-429241D02*
G54D29*
D03*
X241450Y-446243D02*
G54D29*
D03*
X241453Y-429241D02*
G54D29*
D03*
G54D32*
X240260Y-446243D02*
X190261Y-446243D01*
X162334Y-418316D01*
G54D12*
X328128Y-452730D02*
X348133Y-452730D01*
X348596Y-453192D01*
G54D12*
X328128Y-465430D02*
X343833Y-465430D01*
X348596Y-470192D01*
G54D12*
X328128Y-490830D02*
X345090Y-490830D01*
X348596Y-494336D01*
G54D12*
X328128Y-478130D02*
X316017Y-478130D01*
X292100Y-502047D01*
X242802Y-502047D01*
X234477Y-510372D01*
G54D12*
X242975Y-501369D02*
X236112Y-494506D01*
G54D32*
X272319Y-452730D02*
X273281Y-452730D01*
X288258Y-437753D01*
G54D32*
X271128Y-452730D02*
X247938Y-452730D01*
X241450Y-446243D01*
G54D12*
X236112Y-494506D02*
X201612Y-494506D01*
X140097Y-432990D01*
G54D32*
X288258Y-437753D02*
X290639Y-440134D01*
X361156Y-440134D01*
X371872Y-450850D01*
X458390Y-450850D01*
X475962Y-433278D01*
X475962Y-364046D01*
G36*
X443731Y-344529D02*
X462731Y-344528D01*
X462732Y-364528D01*
X443732Y-364529D01*
X443731Y-344529D01*
G37*
X470231Y-354528D02*
G54D25*
D03*
X398310Y-50388D02*
G54D47*
D03*
X403310Y-50388D02*
G54D47*
D03*
X408310Y-50388D02*
G54D47*
D03*
X413310Y-50388D02*
G54D47*
D03*
X418310Y-50388D02*
G54D47*
D03*
X423310Y-50388D02*
G54D47*
D03*
X428310Y-50388D02*
G54D47*
D03*
X433310Y-50388D02*
G54D47*
D03*
G54D12*
G75*
G01X101816Y-600561D02*
G03X84845Y-600561I-8485J-8485D01*
G01*
G54D12*
G75*
G01X118830Y-597048D02*
G03X110344Y-600563I0J-12000D01*
G01*
G54D12*
X101816Y-600561D02*
X110344Y-600563D01*
G54D12*
G75*
G01X76315Y-600563D02*
G03X64724Y-597457I-8485J-8485D01*
G01*
G54D12*
X76315Y-600563D02*
X84846Y-600561D01*
G54D12*
G75*
G01X84845Y-617532D02*
G03X101816Y-617532I8486J8486D01*
G01*
G54D12*
G75*
G01X110344Y-617530D02*
G03X127315Y-617530I8486J8486D01*
G01*
G54D12*
X101816Y-617532D02*
X110344Y-617530D01*
G54D12*
G75*
G01X57437Y-615044D02*
G03X76315Y-617530I10393J6000D01*
G01*
G54D12*
X76315Y-617530D02*
X84846Y-617532D01*
G54D12*
X64724Y-597457D02*
X63491Y-597457D01*
X55080Y-589047D01*
G54D12*
X118830Y-597048D02*
X149080Y-597048D01*
X157080Y-589048D01*
G54D12*
G75*
G01X203816Y-600563D02*
G03X186845Y-600563I-8486J-8485D01*
G01*
G54D12*
G75*
G01X220829Y-597050D02*
G03X212344Y-600565I0J-12000D01*
G01*
G54D12*
X203816Y-600563D02*
X212344Y-600565D01*
G54D12*
G75*
G01X178315Y-600565D02*
G03X166723Y-597459I-8486J-8485D01*
G01*
G54D12*
X178314Y-600565D02*
X186845Y-600563D01*
G54D12*
X166724Y-597459D02*
X165491Y-597459D01*
X157080Y-589048D01*
G54D12*
X220829Y-597050D02*
X251079Y-597050D01*
X259080Y-589050D01*
G54D12*
G75*
G01X305816Y-600563D02*
G03X288845Y-600563I-8486J-8485D01*
G01*
G54D12*
G75*
G01X322829Y-597050D02*
G03X314344Y-600565I0J-12000D01*
G01*
G54D12*
X305816Y-600563D02*
X314344Y-600565D01*
G54D12*
G75*
G01X280315Y-600565D02*
G03X268723Y-597459I-8486J-8485D01*
G01*
G54D12*
X280314Y-600565D02*
X288845Y-600563D01*
G54D12*
X268724Y-597459D02*
X267491Y-597459D01*
X259080Y-589048D01*
G54D12*
X322829Y-597050D02*
X353079Y-597050D01*
X361080Y-589050D01*
G54D12*
G75*
G01X407816Y-600563D02*
G03X390845Y-600563I-8486J-8485D01*
G01*
G54D12*
G75*
G01X424829Y-597050D02*
G03X416344Y-600565I0J-12000D01*
G01*
G54D12*
X407816Y-600563D02*
X416344Y-600565D01*
G54D12*
G75*
G01X382315Y-600565D02*
G03X370723Y-597459I-8486J-8485D01*
G01*
G54D12*
X382314Y-600565D02*
X390845Y-600563D01*
G54D12*
X370724Y-597459D02*
X369491Y-597459D01*
X361080Y-589048D01*
G54D12*
X424829Y-597050D02*
X455079Y-597050D01*
X463080Y-589050D01*
G54D12*
X127315Y-617530D02*
X135848Y-617530D01*
X144330Y-609048D01*
G54D12*
X57438Y-615044D02*
X48328Y-615044D01*
X42330Y-609047D01*
G54D12*
G75*
G01X186845Y-617533D02*
G03X203816Y-617533I8485J8485D01*
G01*
G54D12*
G75*
G01X212344Y-617531D02*
G03X229315Y-617531I8485J8485D01*
G01*
G54D12*
X203816Y-617533D02*
X212344Y-617531D01*
G54D12*
G75*
G01X159437Y-615046D02*
G03X178315Y-617531I10392J6000D01*
G01*
G54D12*
X178314Y-617531D02*
X186845Y-617533D01*
G54D12*
X229314Y-617531D02*
X237848Y-617531D01*
X246329Y-609050D01*
G54D12*
X159437Y-615046D02*
X150328Y-615046D01*
X144330Y-609048D01*
G54D12*
G75*
G01X288845Y-617533D02*
G03X305816Y-617533I8485J8485D01*
G01*
G54D12*
G75*
G01X314344Y-617531D02*
G03X331315Y-617531I8485J8485D01*
G01*
G54D12*
X305816Y-617533D02*
X314344Y-617531D01*
G54D12*
G75*
G01X261437Y-615046D02*
G03X280315Y-617531I10392J6000D01*
G01*
G54D12*
X280314Y-617531D02*
X288845Y-617533D01*
G54D12*
X331314Y-617531D02*
X339848Y-617531D01*
X348329Y-609050D01*
G54D12*
X261437Y-615046D02*
X252328Y-615046D01*
X246330Y-609048D01*
G54D12*
G75*
G01X390845Y-617533D02*
G03X407816Y-617533I8485J8485D01*
G01*
G54D12*
G75*
G01X416344Y-617531D02*
G03X433315Y-617531I8485J8485D01*
G01*
G54D12*
X407816Y-617533D02*
X416344Y-617531D01*
G54D12*
G75*
G01X363437Y-615046D02*
G03X382315Y-617531I10392J6000D01*
G01*
G54D12*
X382314Y-617531D02*
X390845Y-617533D01*
G54D12*
X433314Y-617531D02*
X441848Y-617531D01*
X450329Y-609050D01*
G54D12*
X363437Y-615046D02*
X354328Y-615046D01*
X348330Y-609048D01*
G54D32*
X228663Y-50435D02*
X228663Y-74279D01*
G54D32*
X228663Y-50435D02*
X157466Y-50435D01*
X151737Y-44706D01*
G54D46*
X425000Y-217966D02*
X404550Y-217966D01*
X403236Y-216652D01*
X458390Y-525858D02*
G54D30*
D03*
X478231Y-525859D02*
G54D30*
D03*
G54D32*
X409374Y-482820D02*
X455436Y-482820D01*
X478231Y-505616D01*
X478231Y-527447D01*
G54D32*
X267890Y-242888D02*
X267890Y-124222D01*
G54D12*
X466274Y-207171D02*
X486742Y-207171D01*
X495565Y-215994D01*
X241719Y-531149D02*
G54D11*
D03*
X507821Y-507400D02*
G54D22*
D03*
G54D12*
X223599Y-345836D02*
X223599Y-300108D01*
X218042Y-294552D01*
G54D12*
X248821Y-368154D02*
X246440Y-365772D01*
X229836Y-365772D01*
X215106Y-351043D01*
X215106Y-327025D01*
X187722Y-299640D01*
X187722Y-288528D01*
X194398Y-281852D01*
X206930Y-281852D01*
G54D17*
X507821Y-507400D02*
X518116Y-507400D01*
X523876Y-513160D01*
X523876Y-527026D01*
G54D17*
X241719Y-531149D02*
X263965Y-531149D01*
X269040Y-526074D01*
G36*
X241719Y-531149D02*
X260747Y-531149D01*
X260747Y-503238D01*
X241719Y-503238D01*
X241719Y-531149D01*
G37*
G54D48*
X241719Y-531149D02*
X260747Y-531149D01*
X260747Y-503238D01*
X241719Y-503238D01*
X241719Y-531149D01*
X272805Y-256452D02*
G54D49*
D03*
X218043Y-256452D02*
G54D50*
D03*
X272805Y-269152D02*
G54D49*
D03*
X272805Y-281852D02*
G54D49*
D03*
X272805Y-294552D02*
G54D49*
D03*
X213280Y-294552D02*
G54D49*
D03*
X213280Y-281852D02*
G54D49*
D03*
X213280Y-269152D02*
G54D49*
D03*
X213280Y-256452D02*
G54D49*
D03*
G54D12*
X218043Y-256452D02*
X218043Y-244713D01*
X219075Y-243681D01*
X291703Y-243681D01*
X295275Y-247253D01*
X295275Y-279003D01*
X292823Y-281852D01*
X276774Y-281852D01*
X42330Y-778323D02*
G54D10*
D03*
X67830Y-778323D02*
G54D10*
D03*
X93330Y-778323D02*
G54D10*
D03*
X118830Y-778323D02*
G54D10*
D03*
X144330Y-778323D02*
G54D10*
D03*
X169830Y-778323D02*
G54D10*
D03*
X195330Y-778323D02*
G54D10*
D03*
X220830Y-778323D02*
G54D10*
D03*
X246330Y-778323D02*
G54D10*
D03*
X271830Y-778323D02*
G54D10*
D03*
X297330Y-778323D02*
G54D10*
D03*
X322830Y-778323D02*
G54D10*
D03*
X348330Y-778323D02*
G54D10*
D03*
X373830Y-778323D02*
G54D10*
D03*
X399330Y-778323D02*
G54D10*
D03*
X424830Y-778323D02*
G54D10*
D03*
X450330Y-778323D02*
G54D10*
D03*
X475830Y-778323D02*
G54D10*
D03*
X501330Y-778323D02*
G54D10*
D03*
X526830Y-778323D02*
G54D10*
D03*
X42330Y-736047D02*
G54D10*
D03*
X67830Y-736048D02*
G54D10*
D03*
X93331Y-736046D02*
G54D11*
D03*
X118830Y-736048D02*
G54D10*
D03*
X144330Y-736048D02*
G54D10*
D03*
X169830Y-736048D02*
G54D10*
D03*
X195330Y-736048D02*
G54D10*
D03*
X220830Y-736048D02*
G54D10*
D03*
X246330Y-736048D02*
G54D10*
D03*
X271830Y-736048D02*
G54D10*
D03*
X297330Y-736048D02*
G54D10*
D03*
X322830Y-736048D02*
G54D10*
D03*
X348330Y-736048D02*
G54D10*
D03*
X373830Y-736048D02*
G54D10*
D03*
X399330Y-736048D02*
G54D10*
D03*
X424830Y-736048D02*
G54D10*
D03*
X450330Y-736048D02*
G54D10*
D03*
X475830Y-736048D02*
G54D10*
D03*
X501330Y-736048D02*
G54D10*
D03*
X526830Y-736048D02*
G54D10*
D03*
X55080Y-756048D02*
G54D10*
D03*
X80580Y-756048D02*
G54D10*
D03*
X106080Y-756048D02*
G54D10*
D03*
X157080Y-756048D02*
G54D10*
D03*
X182580Y-756048D02*
G54D10*
D03*
X208080Y-756048D02*
G54D10*
D03*
X259080Y-756048D02*
G54D10*
D03*
X284580Y-756048D02*
G54D10*
D03*
X310080Y-756048D02*
G54D10*
D03*
X361080Y-756048D02*
G54D10*
D03*
X386580Y-756048D02*
G54D10*
D03*
X412080Y-756048D02*
G54D10*
D03*
X463080Y-756048D02*
G54D10*
D03*
X488580Y-756048D02*
G54D10*
D03*
X514080Y-756048D02*
G54D10*
D03*
X55080Y-716047D02*
G54D10*
D03*
X80580Y-716047D02*
G54D10*
D03*
X106080Y-716048D02*
G54D10*
D03*
X157080Y-716048D02*
G54D10*
D03*
X182580Y-716048D02*
G54D10*
D03*
X208080Y-716048D02*
G54D10*
D03*
X259080Y-716048D02*
G54D10*
D03*
X284580Y-716048D02*
G54D10*
D03*
X310080Y-716048D02*
G54D10*
D03*
X361080Y-716048D02*
G54D10*
D03*
X386580Y-716048D02*
G54D10*
D03*
X412080Y-716048D02*
G54D10*
D03*
X463080Y-716048D02*
G54D10*
D03*
X488580Y-716048D02*
G54D10*
D03*
X514080Y-716048D02*
G54D10*
D03*
G54D12*
X182580Y-716048D02*
X182580Y-700920D01*
G54D12*
X284580Y-716048D02*
X284580Y-700920D01*
G54D12*
X488580Y-716048D02*
X488580Y-700920D01*
G54D12*
X386580Y-716048D02*
X386580Y-700920D01*
G54D12*
X488580Y-700920D02*
X95708Y-700920D01*
X80580Y-716048D01*
G54D12*
G75*
G01X101816Y-727561D02*
G03X84845Y-727561I-8485J-8485D01*
G01*
G54D12*
G75*
G01X118830Y-724048D02*
G03X110344Y-727563I0J-12000D01*
G01*
G54D12*
X101816Y-727561D02*
X110344Y-727563D01*
G54D12*
G75*
G01X76315Y-727563D02*
G03X64724Y-724457I-8485J-8485D01*
G01*
G54D12*
X76315Y-727563D02*
X84846Y-727561D01*
G54D12*
G75*
G01X84845Y-744532D02*
G03X101816Y-744532I8486J8486D01*
G01*
G54D12*
G75*
G01X110344Y-744530D02*
G03X127315Y-744530I8486J8486D01*
G01*
G54D12*
X101816Y-744532D02*
X110344Y-744530D01*
G54D12*
G75*
G01X57437Y-742044D02*
G03X76315Y-744530I10393J6000D01*
G01*
G54D12*
X76315Y-744530D02*
X84846Y-744532D01*
G54D12*
X64724Y-724457D02*
X63491Y-724457D01*
X55080Y-716047D01*
G54D12*
X118830Y-724048D02*
X149080Y-724048D01*
X157080Y-716048D01*
G54D12*
G75*
G01X203816Y-727563D02*
G03X186845Y-727563I-8486J-8485D01*
G01*
G54D12*
G75*
G01X220829Y-724050D02*
G03X212344Y-727565I0J-12000D01*
G01*
G54D12*
X203816Y-727563D02*
X212344Y-727565D01*
G54D12*
G75*
G01X178315Y-727565D02*
G03X166723Y-724459I-8486J-8485D01*
G01*
G54D12*
X178314Y-727565D02*
X186845Y-727563D01*
G54D12*
X166724Y-724459D02*
X165491Y-724459D01*
X157080Y-716048D01*
G54D12*
X220829Y-724050D02*
X251079Y-724050D01*
X259080Y-716050D01*
G54D12*
G75*
G01X305816Y-727563D02*
G03X288845Y-727563I-8486J-8485D01*
G01*
G54D12*
G75*
G01X322829Y-724050D02*
G03X314344Y-727565I0J-12000D01*
G01*
G54D12*
X305816Y-727563D02*
X314344Y-727565D01*
G54D12*
G75*
G01X280315Y-727565D02*
G03X268723Y-724459I-8486J-8485D01*
G01*
G54D12*
X280314Y-727565D02*
X288845Y-727563D01*
G54D12*
X268724Y-724459D02*
X267491Y-724459D01*
X259080Y-716048D01*
G54D12*
X322829Y-724050D02*
X353079Y-724050D01*
X361080Y-716050D01*
G54D12*
G75*
G01X407816Y-727563D02*
G03X390845Y-727563I-8486J-8485D01*
G01*
G54D12*
G75*
G01X424829Y-724050D02*
G03X416344Y-727565I0J-12000D01*
G01*
G54D12*
X407816Y-727563D02*
X416344Y-727565D01*
G54D12*
G75*
G01X382315Y-727565D02*
G03X370723Y-724459I-8486J-8485D01*
G01*
G54D12*
X382314Y-727565D02*
X390845Y-727563D01*
G54D12*
X370724Y-724459D02*
X369491Y-724459D01*
X361080Y-716048D01*
G54D12*
X424829Y-724050D02*
X455079Y-724050D01*
X463080Y-716050D01*
G54D12*
X127315Y-744530D02*
X135848Y-744530D01*
X144330Y-736048D01*
G54D12*
X57438Y-742044D02*
X48328Y-742044D01*
X42330Y-736047D01*
G54D12*
G75*
G01X186845Y-744533D02*
G03X203816Y-744533I8485J8485D01*
G01*
G54D12*
G75*
G01X212344Y-744531D02*
G03X229315Y-744531I8485J8485D01*
G01*
G54D12*
X203816Y-744533D02*
X212344Y-744531D01*
G54D12*
G75*
G01X159437Y-742046D02*
G03X178315Y-744531I10392J6000D01*
G01*
G54D12*
X178314Y-744531D02*
X186845Y-744533D01*
G54D12*
X229314Y-744531D02*
X237848Y-744531D01*
X246329Y-736050D01*
G54D12*
X159437Y-742046D02*
X150328Y-742046D01*
X144330Y-736048D01*
G54D12*
G75*
G01X288845Y-744533D02*
G03X305816Y-744533I8485J8485D01*
G01*
G54D12*
G75*
G01X314344Y-744531D02*
G03X331315Y-744531I8485J8485D01*
G01*
G54D12*
X305816Y-744533D02*
X314344Y-744531D01*
G54D12*
G75*
G01X261437Y-742046D02*
G03X280315Y-744531I10392J6000D01*
G01*
G54D12*
X280314Y-744531D02*
X288845Y-744533D01*
G54D12*
X331314Y-744531D02*
X339848Y-744531D01*
X348329Y-736050D01*
G54D12*
X261437Y-742046D02*
X252328Y-742046D01*
X246330Y-736048D01*
G54D12*
G75*
G01X390845Y-744533D02*
G03X407816Y-744533I8485J8485D01*
G01*
G54D12*
G75*
G01X416344Y-744531D02*
G03X433315Y-744531I8485J8485D01*
G01*
G54D12*
X407816Y-744533D02*
X416344Y-744531D01*
G54D12*
G75*
G01X363437Y-742046D02*
G03X382315Y-744531I10392J6000D01*
G01*
G54D12*
X382314Y-744531D02*
X390845Y-744533D01*
G54D12*
X433314Y-744531D02*
X441848Y-744531D01*
X450329Y-736050D01*
G54D12*
X363437Y-742046D02*
X354328Y-742046D01*
X348330Y-736048D01*
X750696Y-916116D02*
G54D51*
D03*
X255396Y-916116D02*
G54D51*
D03*
X420496Y-916116D02*
G54D51*
D03*
X915796Y-916116D02*
G54D51*
D03*
X89502Y-916116D02*
G54D51*
D03*
X585596Y-916116D02*
G54D51*
D03*
G36*
X19596Y-993934D02*
X19596Y-928934D01*
X159046Y-928934D01*
X159046Y-993934D01*
X19596Y-993934D01*
G37*
G36*
X185490Y-993934D02*
X185490Y-928934D01*
X324940Y-928934D01*
X324940Y-993934D01*
X185490Y-993934D01*
G37*
G36*
X350590Y-993934D02*
X350590Y-928934D01*
X490040Y-928934D01*
X490040Y-993934D01*
X350590Y-993934D01*
G37*
G36*
X515690Y-993934D02*
X515690Y-928934D01*
X655140Y-928934D01*
X655140Y-993934D01*
X515690Y-993934D01*
G37*
G36*
X680790Y-993934D02*
X680790Y-928934D01*
X820240Y-928934D01*
X820240Y-993934D01*
X680790Y-993934D01*
G37*
G36*
X845890Y-993934D02*
X845890Y-928934D01*
X985340Y-928934D01*
X985340Y-993934D01*
X845890Y-993934D01*
G37*
G54D39*
X5953Y-814388D02*
X1000125Y-814388D01*
G54D39*
X5953Y-688181D02*
X557212Y-688181D01*
X915605Y-716573D02*
G54D51*
D03*
X750108Y-717366D02*
G54D51*
D03*
G36*
X845700Y-794391D02*
X845700Y-729391D01*
X985150Y-729391D01*
X985150Y-794391D01*
X845700Y-794391D01*
G37*
G36*
X680203Y-795184D02*
X680203Y-730184D01*
X819653Y-730184D01*
X819653Y-795184D01*
X680203Y-795184D01*
G37*
X750277Y-519973D02*
G54D51*
D03*
X916796Y-519326D02*
G54D51*
D03*
G36*
X846890Y-597144D02*
X846890Y-532144D01*
X986340Y-532144D01*
X986340Y-597144D01*
X846890Y-597144D01*
G37*
G36*
X680371Y-597791D02*
X680371Y-532791D01*
X819822Y-532791D01*
X819822Y-597791D01*
X680371Y-597791D01*
G37*
X916002Y-323270D02*
G54D51*
D03*
X751696Y-322476D02*
G54D51*
D03*
G36*
X846096Y-401088D02*
X846096Y-336088D01*
X985546Y-336088D01*
X985546Y-401088D01*
X846096Y-401088D01*
G37*
G36*
X681790Y-400294D02*
X681790Y-335294D01*
X821240Y-335294D01*
X821240Y-400294D01*
X681790Y-400294D01*
G37*
G36*
X569870Y-799493D02*
X569871Y-721793D01*
X658520Y-721793D01*
X658521Y-799493D01*
X569870Y-799493D01*
G37*
G36*
X569870Y-577243D02*
X569871Y-499543D01*
X658520Y-499543D01*
X658521Y-577243D01*
X569870Y-577243D01*
G37*
G36*
X569870Y-342293D02*
X569871Y-264593D01*
X658520Y-264593D01*
X658521Y-342293D01*
X569870Y-342293D01*
G37*
X916002Y-113720D02*
G54D51*
D03*
G36*
X846096Y-191538D02*
X846096Y-126538D01*
X985546Y-126538D01*
X985546Y-191538D01*
X846096Y-191538D01*
G37*
X750696Y-116016D02*
G54D51*
D03*
G36*
X680790Y-193834D02*
X680790Y-128834D01*
X820240Y-128834D01*
X820240Y-193834D01*
X680790Y-193834D01*
G37*
%LPD*%
G54D52*
G36*
X447976Y-336651D02*
X435476Y-336652D01*
X435475Y-328384D01*
X447975Y-328384D01*
X447976Y-336651D01*
G37*
G36*
X447975Y-328384D02*
X460475Y-328383D01*
X460476Y-336650D01*
X447976Y-336651D01*
X447975Y-328384D01*
G37*
G54D53*
G36*
X351676Y-334569D02*
X340176Y-334569D01*
X340176Y-329586D01*
X351676Y-329586D01*
X351676Y-334569D01*
G37*
G36*
X354168Y-332078D02*
X354168Y-343078D01*
X349185Y-343078D01*
X349185Y-332078D01*
X354168Y-332078D01*
G37*
G54D54*
G36*
X447967Y-375569D02*
X459467Y-375570D01*
X459467Y-380237D01*
X447967Y-380236D01*
X447967Y-375569D01*
G37*
G36*
X450301Y-377903D02*
X450300Y-389403D01*
X445633Y-389403D01*
X445634Y-377903D01*
X450301Y-377903D01*
G37*
G36*
X447967Y-380236D02*
X436467Y-380236D01*
X436467Y-375569D01*
X447967Y-375569D01*
X447967Y-380236D01*
G37*
G36*
X445634Y-377903D02*
X445634Y-366403D01*
X450301Y-366403D01*
X450301Y-377903D01*
X445634Y-377903D01*
G37*
G54D55*
G36*
X507820Y-485232D02*
X517820Y-485232D01*
X517820Y-489566D01*
X507820Y-489566D01*
X507820Y-485232D01*
G37*
G36*
X507820Y-489566D02*
X497820Y-489566D01*
X497820Y-485232D01*
X507820Y-485232D01*
X507820Y-489566D01*
G37*
G54D56*
G36*
X302562Y-50435D02*
X302563Y-64935D01*
X299230Y-64935D01*
X299229Y-50435D01*
X302562Y-50435D01*
G37*
G36*
X299229Y-50435D02*
X299228Y-35935D01*
X302561Y-35935D01*
X302562Y-50435D01*
X299229Y-50435D01*
G37*
G54D18*
G36*
X159830Y-531149D02*
X159830Y-518149D01*
X164830Y-518149D01*
X164830Y-531149D01*
X159830Y-531149D01*
G37*
G36*
X164830Y-531149D02*
X164830Y-544149D01*
X159830Y-544149D01*
X159830Y-531149D01*
X164830Y-531149D01*
G37*
G54D57*
G36*
X509438Y-185614D02*
X495938Y-185614D01*
X495938Y-181894D01*
X509438Y-181894D01*
X509438Y-185614D01*
G37*
G36*
X509438Y-181894D02*
X522938Y-181894D01*
X522938Y-185614D01*
X509438Y-185614D01*
X509438Y-181894D01*
G37*
G54D58*
G36*
X460015Y-525858D02*
X460015Y-538858D01*
X456765Y-538858D01*
X456765Y-525858D01*
X460015Y-525858D01*
G37*
G36*
X458390Y-527483D02*
X446390Y-527483D01*
X446390Y-524233D01*
X458390Y-524233D01*
X458390Y-527483D01*
G37*
G36*
X456765Y-525858D02*
X456765Y-512858D01*
X460015Y-512858D01*
X460015Y-525858D01*
X456765Y-525858D01*
G37*
G54D59*
G36*
X344043Y-527400D02*
X344043Y-516900D01*
X347086Y-516900D01*
X347086Y-527400D01*
X344043Y-527400D01*
G37*
G36*
X345564Y-525878D02*
X355564Y-525878D01*
X355564Y-528921D01*
X345564Y-528921D01*
X345564Y-525878D01*
G37*
G36*
X347086Y-527400D02*
X347086Y-537900D01*
X344043Y-537900D01*
X344043Y-527400D01*
X347086Y-527400D01*
G37*
G54D58*
G36*
X460015Y-525858D02*
X460015Y-538858D01*
X456765Y-538858D01*
X456765Y-525858D01*
X460015Y-525858D01*
G37*
G36*
X458390Y-527483D02*
X446390Y-527483D01*
X446390Y-524233D01*
X458390Y-524233D01*
X458390Y-527483D01*
G37*
G36*
X456765Y-525858D02*
X456765Y-512858D01*
X460015Y-512858D01*
X460015Y-525858D01*
X456765Y-525858D01*
G37*
X42330Y-651323D02*
G54D60*
D03*
X67830Y-651323D02*
G54D60*
D03*
X93330Y-651323D02*
G54D60*
D03*
X118830Y-651323D02*
G54D60*
D03*
X144330Y-651323D02*
G54D60*
D03*
X169830Y-651323D02*
G54D60*
D03*
X195330Y-651323D02*
G54D60*
D03*
X220830Y-651323D02*
G54D60*
D03*
X246330Y-651323D02*
G54D60*
D03*
X271830Y-651323D02*
G54D60*
D03*
X297330Y-651323D02*
G54D60*
D03*
X322830Y-651323D02*
G54D60*
D03*
X348330Y-651323D02*
G54D60*
D03*
X373830Y-651323D02*
G54D60*
D03*
X399330Y-651323D02*
G54D60*
D03*
X424830Y-651323D02*
G54D60*
D03*
X450330Y-651323D02*
G54D60*
D03*
X475830Y-651323D02*
G54D60*
D03*
X501330Y-651323D02*
G54D60*
D03*
X526830Y-651323D02*
G54D60*
D03*
X42330Y-609047D02*
G54D60*
D03*
X67830Y-609048D02*
G54D60*
D03*
X93331Y-609046D02*
G54D61*
D03*
X118830Y-609048D02*
G54D60*
D03*
X144330Y-609048D02*
G54D60*
D03*
X169830Y-609048D02*
G54D60*
D03*
X195330Y-609048D02*
G54D60*
D03*
X220830Y-609048D02*
G54D60*
D03*
X246330Y-609048D02*
G54D60*
D03*
X271830Y-609048D02*
G54D60*
D03*
X297330Y-609048D02*
G54D60*
D03*
X322830Y-609048D02*
G54D60*
D03*
X348330Y-609048D02*
G54D60*
D03*
X373830Y-609048D02*
G54D60*
D03*
X399330Y-609048D02*
G54D60*
D03*
X424830Y-609048D02*
G54D60*
D03*
X450330Y-609048D02*
G54D60*
D03*
X475830Y-609048D02*
G54D60*
D03*
X501330Y-609048D02*
G54D60*
D03*
X526830Y-609048D02*
G54D60*
D03*
X55080Y-629048D02*
G54D60*
D03*
X80580Y-629048D02*
G54D60*
D03*
X106080Y-629048D02*
G54D60*
D03*
X157080Y-629048D02*
G54D60*
D03*
X182580Y-629048D02*
G54D60*
D03*
X208080Y-629048D02*
G54D60*
D03*
X259080Y-629048D02*
G54D60*
D03*
X284580Y-629048D02*
G54D60*
D03*
X310080Y-629048D02*
G54D60*
D03*
X361080Y-629048D02*
G54D60*
D03*
X386580Y-629048D02*
G54D60*
D03*
X412080Y-629048D02*
G54D60*
D03*
X463080Y-629048D02*
G54D60*
D03*
X488580Y-629048D02*
G54D60*
D03*
X514080Y-629048D02*
G54D60*
D03*
X55080Y-589047D02*
G54D60*
D03*
X80580Y-589047D02*
G54D60*
D03*
X106080Y-589048D02*
G54D60*
D03*
X157080Y-589048D02*
G54D60*
D03*
X182580Y-589048D02*
G54D60*
D03*
X208080Y-589048D02*
G54D60*
D03*
X259080Y-589048D02*
G54D60*
D03*
X284580Y-589048D02*
G54D60*
D03*
X310080Y-589048D02*
G54D60*
D03*
X361080Y-589048D02*
G54D60*
D03*
X386580Y-589048D02*
G54D60*
D03*
X412080Y-589048D02*
G54D60*
D03*
X463080Y-589048D02*
G54D60*
D03*
X488580Y-589048D02*
G54D60*
D03*
X514080Y-589048D02*
G54D60*
D03*
G54D40*
X182580Y-589048D02*
X182580Y-573920D01*
G54D40*
X284580Y-589048D02*
X284580Y-573920D01*
G54D40*
X488580Y-589048D02*
X488580Y-573920D01*
G54D40*
X386580Y-589048D02*
X386580Y-573920D01*
G54D40*
X488580Y-573920D02*
X95708Y-573920D01*
X80580Y-589048D01*
X475967Y-332525D02*
G54D62*
D03*
X447976Y-332517D02*
G54D62*
D03*
X377450Y-286962D02*
G54D63*
D03*
X377452Y-296367D02*
G54D63*
D03*
X377450Y-305962D02*
G54D63*
D03*
X403349Y-305962D02*
G54D63*
D03*
X403350Y-286962D02*
G54D63*
D03*
G54D64*
X377449Y-305962D02*
X366189Y-305962D01*
X364050Y-303823D01*
X364050Y-290726D01*
X367815Y-286962D01*
X377450Y-286962D01*
X433570Y-307447D02*
G54D65*
D03*
X433570Y-284447D02*
G54D65*
D03*
G54D64*
X403350Y-286962D02*
X439389Y-286962D01*
X441508Y-284844D01*
G54D64*
X403349Y-305962D02*
X439626Y-305962D01*
X441508Y-307844D01*
G54D66*
X447967Y-377903D02*
X447971Y-342045D01*
X401398Y-330569D02*
G54D67*
D03*
X373398Y-330570D02*
G54D67*
D03*
X351676Y-332078D02*
G54D68*
D03*
X351678Y-313073D02*
G54D68*
D03*
X425000Y-234889D02*
G54D68*
D03*
X425000Y-256463D02*
G54D68*
D03*
X419080Y-326878D02*
G54D60*
D03*
X447967Y-377903D02*
G54D69*
D03*
X504537Y-340233D02*
G54D70*
D03*
X247650Y-352656D02*
G54D60*
D03*
X261942Y-345286D02*
G54D60*
D03*
X249218Y-368154D02*
G54D60*
D03*
X507820Y-487399D02*
G54D60*
D03*
G36*
X511874Y-539026D02*
X511874Y-515026D01*
X535874Y-515026D01*
X535874Y-539026D01*
X511874Y-539026D01*
G37*
X253745Y-181513D02*
G54D71*
D03*
X247114Y-124486D02*
G54D71*
D03*
X196314Y-130439D02*
G54D71*
D03*
X207427Y-207829D02*
G54D71*
D03*
X228663Y-50435D02*
G54D72*
D03*
X243742Y-50433D02*
G54D72*
D03*
X258030Y-50433D02*
G54D72*
D03*
X272317Y-50434D02*
G54D72*
D03*
X286605Y-50433D02*
G54D72*
D03*
X300895Y-50435D02*
G54D72*
D03*
X315180Y-50433D02*
G54D72*
D03*
X329467Y-50433D02*
G54D72*
D03*
X300895Y-70815D02*
G54D73*
D03*
X317895Y-70815D02*
G54D73*
D03*
G54D40*
X300895Y-50435D02*
X300895Y-83515D01*
G54D40*
X315180Y-50433D02*
X315180Y-70481D01*
X317895Y-73196D01*
X236934Y-339559D02*
G54D60*
D03*
X162330Y-531149D02*
G54D61*
D03*
X182975Y-531155D02*
G54D61*
D03*
X202025Y-531155D02*
G54D61*
D03*
X202022Y-418315D02*
G54D61*
D03*
G36*
X282040Y-513074D02*
X282040Y-539074D01*
X256040Y-539074D01*
X256040Y-513074D01*
X282040Y-513074D01*
G37*
X509438Y-183754D02*
G54D74*
D03*
X509435Y-158354D02*
G54D74*
D03*
X276086Y-420554D02*
G54D71*
D03*
X151737Y-44706D02*
G54D70*
D03*
X328128Y-452730D02*
G54D75*
D03*
X328128Y-465430D02*
G54D75*
D03*
X328128Y-478130D02*
G54D75*
D03*
X328128Y-490830D02*
G54D75*
D03*
X271128Y-490830D02*
G54D75*
D03*
X271128Y-478130D02*
G54D75*
D03*
X271128Y-465430D02*
G54D75*
D03*
X271128Y-452730D02*
G54D75*
D03*
X348596Y-476146D02*
G54D76*
D03*
X348596Y-493146D02*
G54D76*
D03*
X348596Y-452002D02*
G54D76*
D03*
X348596Y-469002D02*
G54D76*
D03*
X367561Y-489336D02*
G54D76*
D03*
X367561Y-472336D02*
G54D76*
D03*
G54D40*
X348596Y-494336D02*
X348596Y-506172D01*
X140097Y-432990D02*
G54D60*
D03*
X458390Y-525858D02*
G54D77*
D03*
X105430Y-305461D02*
G54D71*
D03*
X162334Y-418316D02*
G54D60*
D03*
X222659Y-418316D02*
G54D60*
D03*
X241709Y-418316D02*
G54D60*
D03*
G36*
X125868Y-365777D02*
X131526Y-360121D01*
X148495Y-377093D01*
X142838Y-382749D01*
X125868Y-365777D01*
G37*
G36*
X134848Y-356797D02*
X140506Y-351140D01*
X157475Y-368112D01*
X151818Y-373769D01*
X134848Y-356797D01*
G37*
G36*
X143829Y-347816D02*
X149486Y-342160D01*
X166455Y-359132D01*
X160797Y-364789D01*
X143829Y-347816D01*
G37*
G36*
X152808Y-338838D02*
X158465Y-333181D01*
X175436Y-350150D01*
X169780Y-355808D01*
X152808Y-338838D01*
G37*
G36*
X188164Y-374193D02*
X193820Y-368536D01*
X210791Y-385506D01*
X205135Y-391163D01*
X188164Y-374193D01*
G37*
G36*
X179184Y-383173D02*
X184840Y-377516D01*
X201811Y-394486D01*
X196155Y-400143D01*
X179184Y-383173D01*
G37*
G36*
X170203Y-392153D02*
X175860Y-386496D01*
X192831Y-403467D01*
X187174Y-409124D01*
X170203Y-392153D01*
G37*
G36*
X161224Y-401133D02*
X166881Y-395476D01*
X183850Y-412448D01*
X178193Y-418104D01*
X161224Y-401133D01*
G37*
G54D40*
X202022Y-433400D02*
X202022Y-418315D01*
X125921Y-342214D01*
G54D40*
X178457Y-338038D02*
X119628Y-396867D01*
X242352Y-221720D02*
G54D71*
D03*
X175406Y-196983D02*
G54D71*
D03*
X161786Y-230848D02*
G54D71*
D03*
X145514Y-97895D02*
G54D71*
D03*
X486033Y-373326D02*
G54D71*
D03*
X401578Y-429286D02*
G54D71*
D03*
G54D64*
X377452Y-296367D02*
X390612Y-296367D01*
X234477Y-510372D02*
G54D73*
D03*
X217475Y-510369D02*
G54D73*
D03*
X478231Y-525859D02*
G54D77*
D03*
X83602Y-480482D02*
G54D71*
D03*
X154246Y-507073D02*
G54D71*
D03*
X100270Y-453892D02*
G54D71*
D03*
X406261Y-82417D02*
G54D71*
D03*
X490336Y-457421D02*
G54D78*
D03*
X439536Y-482820D02*
G54D78*
D03*
X439536Y-432020D02*
G54D78*
D03*
X439536Y-406621D02*
G54D78*
D03*
X439536Y-508220D02*
G54D78*
D03*
G54D40*
X490355Y-438793D02*
X490355Y-474883D01*
G54D40*
X507818Y-457421D02*
X472874Y-457421D01*
G54D18*
X412548Y-482820D02*
X455436Y-482820D01*
X478231Y-505616D01*
X478231Y-527447D01*
G54D40*
X330069Y-503933D02*
X330069Y-492771D01*
X328128Y-490830D01*
X278070Y-217751D02*
G54D71*
D03*
X503811Y-230565D02*
G54D79*
D03*
X503811Y-237065D02*
G54D79*
D03*
X503811Y-243565D02*
G54D79*
D03*
X503811Y-250065D02*
G54D79*
D03*
X503811Y-256565D02*
G54D79*
D03*
X530561Y-281065D02*
G54D80*
D03*
X530561Y-206065D02*
G54D80*
D03*
X403236Y-216652D02*
G54D81*
D03*
X425000Y-196392D02*
G54D68*
D03*
X425000Y-217966D02*
G54D68*
D03*
X445637Y-224094D02*
G54D68*
D03*
X445637Y-245668D02*
G54D68*
D03*
X445637Y-185597D02*
G54D68*
D03*
X445637Y-207171D02*
G54D68*
D03*
G54D18*
X425000Y-234889D02*
X425000Y-217966D01*
G54D40*
X445637Y-224094D02*
X445637Y-207171D01*
G54D82*
X411943Y-205960D02*
X413147Y-207164D01*
X442780Y-207165D01*
G36*
X501815Y-218588D02*
X498159Y-222244D01*
X492971Y-222244D01*
X489315Y-218588D01*
X489315Y-213400D01*
X492971Y-209744D01*
X498159Y-209744D01*
X501815Y-213400D01*
X501815Y-218588D01*
G37*
G54D18*
X530561Y-206065D02*
X530561Y-281065D01*
G54D40*
X518892Y-256565D02*
X483113Y-256565D01*
G54D82*
X503811Y-250065D02*
X474629Y-250065D01*
X408574Y-247106D02*
G54D81*
D03*
G36*
X368220Y-395138D02*
X372022Y-398940D01*
X372022Y-404336D01*
X368220Y-408138D01*
X362824Y-408138D01*
X359022Y-404336D01*
X359022Y-398940D01*
X362824Y-395138D01*
X368220Y-395138D01*
G37*
G36*
X355520Y-382438D02*
X359322Y-386240D01*
X359322Y-391636D01*
X355520Y-395438D01*
X350124Y-395438D01*
X346322Y-391636D01*
X346322Y-386240D01*
X350124Y-382438D01*
X355520Y-382438D01*
G37*
G36*
X388190Y-413394D02*
X391992Y-417196D01*
X391992Y-422592D01*
X388190Y-426394D01*
X382794Y-426394D01*
X378992Y-422592D01*
X378992Y-417196D01*
X382794Y-413394D01*
X388190Y-413394D01*
G37*
G54D66*
X475962Y-364046D02*
X475967Y-342050D01*
X421342Y-347132D02*
G54D71*
D03*
G54D82*
X425000Y-234889D02*
X461901Y-234889D01*
X470578Y-243565D01*
X503811Y-243565D01*
G54D82*
X503811Y-237065D02*
X477174Y-237065D01*
X464203Y-224094D01*
X445637Y-224094D01*
X466275Y-185597D02*
G54D68*
D03*
X466274Y-207171D02*
G54D68*
D03*
G54D40*
X503811Y-230565D02*
X480993Y-230565D01*
X466274Y-215846D01*
X466274Y-207171D01*
G54D18*
X530561Y-206065D02*
X502928Y-206065D01*
X491728Y-194866D01*
X484584Y-194866D01*
X477300Y-187581D01*
X466275Y-187581D01*
G54D18*
X466275Y-186073D02*
X445638Y-186073D01*
X486734Y-277581D02*
G54D76*
D03*
X486734Y-260581D02*
G54D76*
D03*
X468478Y-277581D02*
G54D76*
D03*
X468478Y-260581D02*
G54D76*
D03*
G54D40*
X486734Y-260581D02*
X468478Y-260581D01*
X453397Y-260581D01*
G54D40*
X468478Y-277581D02*
X527077Y-277581D01*
X530561Y-281065D01*
G54D82*
X468478Y-260581D02*
X468478Y-256216D01*
X474629Y-250065D01*
X389766Y-230122D02*
G54D81*
D03*
G54D18*
X419080Y-326878D02*
X400605Y-326878D01*
X401499Y-264979D02*
G54D71*
D03*
G54D18*
X371414Y-334419D02*
X371414Y-324583D01*
X362682Y-315851D01*
X350091Y-315851D01*
G54D64*
X352075Y-314264D02*
X352075Y-301975D01*
X357584Y-296466D01*
X363538Y-296466D01*
G54D66*
X475967Y-332525D02*
X475967Y-321980D01*
X460244Y-306256D01*
X437936Y-306256D01*
X501114Y-320145D02*
G54D71*
D03*
G54D18*
X348596Y-453192D02*
X357546Y-453192D01*
X367561Y-463208D01*
X367561Y-472336D01*
G54D40*
X222659Y-418316D02*
X222659Y-415144D01*
X211931Y-404416D01*
X206083Y-404416D01*
X190498Y-388830D01*
G54D40*
X241709Y-418316D02*
X241709Y-415540D01*
X228203Y-402034D01*
X221662Y-402034D01*
X199478Y-379850D01*
G54D18*
X162334Y-418316D02*
X162334Y-416993D01*
X172537Y-406790D01*
X310975Y-527400D02*
G54D61*
D03*
X219730Y-483658D02*
G54D71*
D03*
X409374Y-482820D02*
G54D81*
D03*
X409526Y-508220D02*
G54D81*
D03*
X125484Y-158749D02*
G54D83*
D03*
X125480Y-173034D02*
G54D83*
D03*
G54D84*
X160000Y-182307D02*
X160000Y-150557D01*
X165000Y-182307D02*
X165000Y-150557D01*
X170000Y-182307D02*
X170000Y-150557D01*
X175000Y-182307D02*
X175000Y-150557D01*
X180000Y-182307D02*
X180000Y-150557D01*
X185000Y-182307D02*
X185000Y-150557D01*
X190000Y-182307D02*
X190000Y-150557D01*
X195000Y-182307D02*
X195000Y-150557D01*
X200000Y-182307D02*
X200000Y-150557D01*
X205000Y-182307D02*
X205000Y-150557D01*
X210000Y-182307D02*
X210000Y-150557D01*
X215000Y-182307D02*
X215000Y-150557D01*
X220000Y-182307D02*
X220000Y-150557D01*
X225000Y-182307D02*
X225000Y-150557D01*
X230000Y-182307D02*
X230000Y-150557D01*
X235000Y-182307D02*
X235000Y-150557D01*
X156190Y-180000D02*
X238740Y-180000D01*
X156190Y-175000D02*
X238740Y-175000D01*
X156190Y-170000D02*
X238740Y-170000D01*
X156189Y-165000D02*
X238740Y-165000D01*
X156189Y-160000D02*
X238740Y-160000D01*
X156189Y-155000D02*
X238740Y-155000D01*
G54D18*
X156189Y-150557D02*
X238740Y-150557D01*
X238740Y-182307D01*
X156190Y-182307D01*
X156189Y-150557D01*
G54D85*
X143631Y-172243D02*
X125484Y-172243D01*
G54D85*
X143631Y-159543D02*
X125484Y-159543D01*
G54D86*
X156189Y-150557D02*
X156190Y-136551D01*
G54D86*
X238740Y-150557D02*
X238740Y-136551D01*
G54D86*
X156189Y-192550D02*
X156190Y-182307D01*
G54D86*
X238740Y-193344D02*
X238740Y-182307D01*
G54D86*
X238740Y-150557D02*
X253745Y-150557D01*
G54D86*
X238740Y-182307D02*
X253745Y-182307D01*
X388878Y-483261D02*
G54D71*
D03*
X365066Y-522948D02*
G54D71*
D03*
X66933Y-152267D02*
G54D71*
D03*
G54D18*
X248903Y-490830D02*
X288236Y-490830D01*
X288258Y-437753D02*
G54D60*
D03*
X403166Y-403886D02*
G54D71*
D03*
X457934Y-417379D02*
G54D71*
D03*
X460712Y-473339D02*
G54D71*
D03*
X382449Y-252279D02*
G54D71*
D03*
X182975Y-510366D02*
G54D73*
D03*
X199977Y-510369D02*
G54D73*
D03*
G54D18*
X182975Y-531155D02*
X182975Y-508778D01*
G54D18*
X199977Y-510369D02*
X217475Y-510369D01*
X187583Y-460242D02*
G54D71*
D03*
X386556Y-144462D02*
G54D81*
D03*
X372978Y-157247D02*
G54D81*
D03*
X399256Y-156369D02*
G54D81*
D03*
X406400Y-171450D02*
G54D81*
D03*
X425053Y-160338D02*
G54D81*
D03*
G54D40*
G75*
G01X399056Y-144462D02*
G03X377717Y-135624I-12500J0D01*
G01*
G54D40*
X372978Y-157247D02*
X370200Y-154469D01*
X311234Y-154469D01*
X243742Y-86977D01*
X243742Y-50433D01*
G54D40*
X386556Y-144462D02*
X313134Y-144066D01*
X258030Y-88961D01*
X258030Y-50433D01*
G54D40*
X399056Y-144462D02*
X399056Y-156169D01*
X399256Y-156369D01*
G54D40*
X377717Y-135624D02*
X317392Y-135624D01*
X272318Y-90549D01*
X272318Y-50434D01*
G54D40*
G75*
G01X407194Y-144462D02*
G03X376237Y-126590I-20638J0D01*
G01*
G54D40*
X376237Y-126590D02*
X320312Y-126590D01*
X286605Y-92883D01*
X286605Y-50433D01*
G54D40*
X406400Y-171450D02*
X412353Y-165497D01*
X412353Y-149621D01*
X407194Y-144462D01*
X313392Y-99086D02*
G54D71*
D03*
G54D40*
G75*
G01X411943Y-205960D02*
G03X390922Y-214668I-8707J-8708D01*
G01*
G54D40*
X390922Y-214667D02*
X390922Y-228966D01*
X389766Y-230122D01*
X295136Y-538426D02*
G54D71*
D03*
X102255Y-49079D02*
G54D71*
D03*
X476905Y-122502D02*
G54D87*
D03*
X268043Y-256452D02*
G54D88*
D03*
X268043Y-269152D02*
G54D88*
D03*
X268043Y-281852D02*
G54D88*
D03*
X268043Y-294552D02*
G54D88*
D03*
X218042Y-294552D02*
G54D88*
D03*
X218043Y-281852D02*
G54D88*
D03*
X218043Y-269152D02*
G54D88*
D03*
X218043Y-256452D02*
G54D88*
D03*
G54D40*
X218043Y-256452D02*
X218043Y-269152D01*
G54D40*
X268043Y-314707D02*
X268043Y-294552D01*
G54D40*
G75*
G01X414473Y-136995D02*
G03X379017Y-116524I-27963J-7493D01*
G01*
G54D40*
X329467Y-50433D02*
X329467Y-98486D01*
X347505Y-116524D01*
X379017Y-116524D01*
G54D40*
X425053Y-160338D02*
X425053Y-147575D01*
X414473Y-136995D01*
G54D18*
X425000Y-256463D02*
X434842Y-256463D01*
X445637Y-245668D01*
G54D18*
X445638Y-185597D02*
X435795Y-185597D01*
X425000Y-196392D01*
X362605Y-347132D02*
G54D71*
D03*
G54D18*
X425000Y-256463D02*
X417932Y-256463D01*
X408574Y-247106D01*
X272514Y-324908D02*
G54D71*
D03*
X316964Y-363404D02*
G54D71*
D03*
X328565Y-527399D02*
G54D73*
D03*
X345564Y-527400D02*
G54D73*
D03*
G54D18*
X310975Y-527399D02*
X328565Y-527399D01*
G54D40*
X236934Y-339559D02*
X236934Y-263128D01*
X242888Y-257175D01*
G54D40*
X268836Y-256452D02*
X243610Y-256452D01*
X242888Y-257175D01*
G54D40*
X223599Y-345836D02*
X231628Y-353866D01*
X246440Y-353866D01*
X247650Y-352656D01*
G54D40*
X261942Y-345286D02*
X247253Y-330597D01*
X247253Y-277416D01*
X255516Y-269152D01*
X268043Y-269152D01*
G54D40*
X337078Y-398859D02*
X288131Y-398859D01*
X257426Y-368154D01*
X248821Y-368154D01*
G54D40*
X365522Y-401638D02*
X365522Y-383381D01*
X359172Y-377031D01*
X345084Y-377031D01*
X343000Y-379115D01*
X295772Y-379115D01*
X261942Y-345286D01*
G54D40*
X352822Y-388938D02*
X292894Y-388938D01*
X263525Y-359569D01*
X247650Y-352656D01*
G54D18*
X228663Y-74279D02*
X228663Y-84994D01*
X267890Y-124222D01*
X279658Y-141948D02*
G54D71*
D03*
X64552Y-367770D02*
G54D71*
D03*
G54D66*
X469041Y-354528D02*
X490242Y-354528D01*
X504537Y-340233D01*
G54D40*
X337078Y-398859D02*
X344091Y-398859D01*
X360362Y-415131D01*
X380730Y-415131D01*
X385492Y-419894D01*
G54D18*
X409526Y-508220D02*
X375333Y-508220D01*
X367561Y-500448D01*
X367561Y-489336D01*
X222400Y-446243D02*
G54D76*
D03*
X222403Y-429241D02*
G54D76*
D03*
X241450Y-446243D02*
G54D76*
D03*
X241453Y-429241D02*
G54D76*
D03*
G54D18*
X240260Y-446243D02*
X190261Y-446243D01*
X162334Y-418316D01*
X223699Y-387614D02*
G54D71*
D03*
G54D40*
X328128Y-452730D02*
X348133Y-452730D01*
X348596Y-453192D01*
G54D40*
X328128Y-465430D02*
X343833Y-465430D01*
X348596Y-470192D01*
G54D40*
X328128Y-490830D02*
X345090Y-490830D01*
X348596Y-494336D01*
G54D40*
X328128Y-478130D02*
X316017Y-478130D01*
X292100Y-502047D01*
X242802Y-502047D01*
X234477Y-510372D01*
G54D40*
X242975Y-501369D02*
X236112Y-494506D01*
G54D18*
X272319Y-452730D02*
X273281Y-452730D01*
X288258Y-437753D01*
G54D18*
X271128Y-452730D02*
X247938Y-452730D01*
X241450Y-446243D01*
G54D40*
X236112Y-494506D02*
X201612Y-494506D01*
X140097Y-432990D01*
G54D18*
X288258Y-437753D02*
X290639Y-440134D01*
X361156Y-440134D01*
X371872Y-450850D01*
X458390Y-450850D01*
X475962Y-433278D01*
X475962Y-364046D01*
G36*
X447731Y-348529D02*
X458731Y-348528D01*
X458731Y-360528D01*
X447731Y-360529D01*
X447731Y-348529D01*
G37*
X470231Y-354528D02*
G54D73*
D03*
X398310Y-50388D02*
G54D89*
D03*
X403310Y-50388D02*
G54D89*
D03*
X408310Y-50388D02*
G54D89*
D03*
X413310Y-50388D02*
G54D89*
D03*
X418310Y-50388D02*
G54D89*
D03*
X423310Y-50388D02*
G54D89*
D03*
X428310Y-50388D02*
G54D89*
D03*
X433310Y-50388D02*
G54D89*
D03*
G54D40*
G75*
G01X101816Y-600561D02*
G03X84845Y-600561I-8485J-8485D01*
G01*
G54D40*
G75*
G01X118830Y-597048D02*
G03X110344Y-600563I0J-12000D01*
G01*
G54D40*
X101816Y-600561D02*
X110344Y-600563D01*
G54D40*
G75*
G01X76315Y-600563D02*
G03X64724Y-597457I-8485J-8485D01*
G01*
G54D40*
X76315Y-600563D02*
X84846Y-600561D01*
G54D40*
G75*
G01X84845Y-617532D02*
G03X101816Y-617532I8486J8486D01*
G01*
G54D40*
G75*
G01X110344Y-617530D02*
G03X127315Y-617530I8486J8486D01*
G01*
G54D40*
X101816Y-617532D02*
X110344Y-617530D01*
G54D40*
G75*
G01X57437Y-615044D02*
G03X76315Y-617530I10393J6000D01*
G01*
G54D40*
X76315Y-617530D02*
X84846Y-617532D01*
G54D40*
X64724Y-597457D02*
X63491Y-597457D01*
X55080Y-589047D01*
G54D40*
X118830Y-597048D02*
X149080Y-597048D01*
X157080Y-589048D01*
G54D40*
G75*
G01X203816Y-600563D02*
G03X186845Y-600563I-8486J-8485D01*
G01*
G54D40*
G75*
G01X220829Y-597050D02*
G03X212344Y-600565I0J-12000D01*
G01*
G54D40*
X203816Y-600563D02*
X212344Y-600565D01*
G54D40*
G75*
G01X178315Y-600565D02*
G03X166723Y-597459I-8486J-8485D01*
G01*
G54D40*
X178314Y-600565D02*
X186845Y-600563D01*
G54D40*
X166724Y-597459D02*
X165491Y-597459D01*
X157080Y-589048D01*
G54D40*
X220829Y-597050D02*
X251079Y-597050D01*
X259080Y-589050D01*
G54D40*
G75*
G01X305816Y-600563D02*
G03X288845Y-600563I-8486J-8485D01*
G01*
G54D40*
G75*
G01X322829Y-597050D02*
G03X314344Y-600565I0J-12000D01*
G01*
G54D40*
X305816Y-600563D02*
X314344Y-600565D01*
G54D40*
G75*
G01X280315Y-600565D02*
G03X268723Y-597459I-8486J-8485D01*
G01*
G54D40*
X280314Y-600565D02*
X288845Y-600563D01*
G54D40*
X268724Y-597459D02*
X267491Y-597459D01*
X259080Y-589048D01*
G54D40*
X322829Y-597050D02*
X353079Y-597050D01*
X361080Y-589050D01*
G54D40*
G75*
G01X407816Y-600563D02*
G03X390845Y-600563I-8486J-8485D01*
G01*
G54D40*
G75*
G01X424829Y-597050D02*
G03X416344Y-600565I0J-12000D01*
G01*
G54D40*
X407816Y-600563D02*
X416344Y-600565D01*
G54D40*
G75*
G01X382315Y-600565D02*
G03X370723Y-597459I-8486J-8485D01*
G01*
G54D40*
X382314Y-600565D02*
X390845Y-600563D01*
G54D40*
X370724Y-597459D02*
X369491Y-597459D01*
X361080Y-589048D01*
G54D40*
X424829Y-597050D02*
X455079Y-597050D01*
X463080Y-589050D01*
G54D40*
X127315Y-617530D02*
X135848Y-617530D01*
X144330Y-609048D01*
G54D40*
X57438Y-615044D02*
X48328Y-615044D01*
X42330Y-609047D01*
G54D40*
G75*
G01X186845Y-617533D02*
G03X203816Y-617533I8485J8485D01*
G01*
G54D40*
G75*
G01X212344Y-617531D02*
G03X229315Y-617531I8485J8485D01*
G01*
G54D40*
X203816Y-617533D02*
X212344Y-617531D01*
G54D40*
G75*
G01X159437Y-615046D02*
G03X178315Y-617531I10392J6000D01*
G01*
G54D40*
X178314Y-617531D02*
X186845Y-617533D01*
G54D40*
X229314Y-617531D02*
X237848Y-617531D01*
X246329Y-609050D01*
G54D40*
X159437Y-615046D02*
X150328Y-615046D01*
X144330Y-609048D01*
G54D40*
G75*
G01X288845Y-617533D02*
G03X305816Y-617533I8485J8485D01*
G01*
G54D40*
G75*
G01X314344Y-617531D02*
G03X331315Y-617531I8485J8485D01*
G01*
G54D40*
X305816Y-617533D02*
X314344Y-617531D01*
G54D40*
G75*
G01X261437Y-615046D02*
G03X280315Y-617531I10392J6000D01*
G01*
G54D40*
X280314Y-617531D02*
X288845Y-617533D01*
G54D40*
X331314Y-617531D02*
X339848Y-617531D01*
X348329Y-609050D01*
G54D40*
X261437Y-615046D02*
X252328Y-615046D01*
X246330Y-609048D01*
G54D40*
G75*
G01X390845Y-617533D02*
G03X407816Y-617533I8485J8485D01*
G01*
G54D40*
G75*
G01X416344Y-617531D02*
G03X433315Y-617531I8485J8485D01*
G01*
G54D40*
X407816Y-617533D02*
X416344Y-617531D01*
G54D40*
G75*
G01X363437Y-615046D02*
G03X382315Y-617531I10392J6000D01*
G01*
G54D40*
X382314Y-617531D02*
X390845Y-617533D01*
G54D40*
X433314Y-617531D02*
X441848Y-617531D01*
X450329Y-609050D01*
G54D40*
X363437Y-615046D02*
X354328Y-615046D01*
X348330Y-609048D01*
X144324Y-667014D02*
G54D71*
D03*
X348318Y-668204D02*
G54D71*
D03*
X450314Y-668998D02*
G54D71*
D03*
X55027Y-665029D02*
G54D71*
D03*
G54D18*
X228663Y-50435D02*
X228663Y-74279D01*
G54D18*
X228663Y-50435D02*
X157466Y-50435D01*
X151737Y-44706D01*
X527705Y-336814D02*
G54D71*
D03*
G54D18*
X425000Y-217966D02*
X404550Y-217966D01*
X403236Y-216652D01*
X458390Y-525858D02*
G54D77*
D03*
X478231Y-525859D02*
G54D77*
D03*
G54D18*
X409374Y-482820D02*
X455436Y-482820D01*
X478231Y-505616D01*
X478231Y-527447D01*
G54D18*
X267890Y-242888D02*
X267890Y-124222D01*
G54D40*
X466274Y-207171D02*
X486742Y-207171D01*
X495565Y-215994D01*
X241719Y-531149D02*
G54D61*
D03*
X507821Y-507400D02*
G54D60*
D03*
G54D40*
X223599Y-345836D02*
X223599Y-300108D01*
X218042Y-294552D01*
G54D40*
X248821Y-368154D02*
X246440Y-365772D01*
X229836Y-365772D01*
X215106Y-351043D01*
X215106Y-327025D01*
X187722Y-299640D01*
X187722Y-288528D01*
X194398Y-281852D01*
X206930Y-281852D01*
G54D66*
X507821Y-507400D02*
X518116Y-507400D01*
X523876Y-513160D01*
X523876Y-527026D01*
G54D66*
X241719Y-531149D02*
X263965Y-531149D01*
X269040Y-526074D01*
X272805Y-256452D02*
G54D90*
D03*
X218043Y-256452D02*
G54D91*
D03*
X272805Y-269152D02*
G54D90*
D03*
X272805Y-281852D02*
G54D90*
D03*
X272805Y-294552D02*
G54D90*
D03*
X213280Y-294552D02*
G54D90*
D03*
X213280Y-281852D02*
G54D90*
D03*
X213280Y-269152D02*
G54D90*
D03*
X213280Y-256452D02*
G54D90*
D03*
G54D40*
X218043Y-256452D02*
X218043Y-244713D01*
X219075Y-243681D01*
X291703Y-243681D01*
X295275Y-247253D01*
X295275Y-279003D01*
X292823Y-281852D01*
X276774Y-281852D01*
X42330Y-778323D02*
G54D60*
D03*
X67830Y-778323D02*
G54D60*
D03*
X93330Y-778323D02*
G54D60*
D03*
X118830Y-778323D02*
G54D60*
D03*
X144330Y-778323D02*
G54D60*
D03*
X169830Y-778323D02*
G54D60*
D03*
X195330Y-778323D02*
G54D60*
D03*
X220830Y-778323D02*
G54D60*
D03*
X246330Y-778323D02*
G54D60*
D03*
X271830Y-778323D02*
G54D60*
D03*
X297330Y-778323D02*
G54D60*
D03*
X322830Y-778323D02*
G54D60*
D03*
X348330Y-778323D02*
G54D60*
D03*
X373830Y-778323D02*
G54D60*
D03*
X399330Y-778323D02*
G54D60*
D03*
X424830Y-778323D02*
G54D60*
D03*
X450330Y-778323D02*
G54D60*
D03*
X475830Y-778323D02*
G54D60*
D03*
X501330Y-778323D02*
G54D60*
D03*
X526830Y-778323D02*
G54D60*
D03*
X42330Y-736047D02*
G54D60*
D03*
X67830Y-736048D02*
G54D60*
D03*
X93331Y-736046D02*
G54D61*
D03*
X118830Y-736048D02*
G54D60*
D03*
X144330Y-736048D02*
G54D60*
D03*
X169830Y-736048D02*
G54D60*
D03*
X195330Y-736048D02*
G54D60*
D03*
X220830Y-736048D02*
G54D60*
D03*
X246330Y-736048D02*
G54D60*
D03*
X271830Y-736048D02*
G54D60*
D03*
X297330Y-736048D02*
G54D60*
D03*
X322830Y-736048D02*
G54D60*
D03*
X348330Y-736048D02*
G54D60*
D03*
X373830Y-736048D02*
G54D60*
D03*
X399330Y-736048D02*
G54D60*
D03*
X424830Y-736048D02*
G54D60*
D03*
X450330Y-736048D02*
G54D60*
D03*
X475830Y-736048D02*
G54D60*
D03*
X501330Y-736048D02*
G54D60*
D03*
X526830Y-736048D02*
G54D60*
D03*
X55080Y-756048D02*
G54D60*
D03*
X80580Y-756048D02*
G54D60*
D03*
X106080Y-756048D02*
G54D60*
D03*
X157080Y-756048D02*
G54D60*
D03*
X182580Y-756048D02*
G54D60*
D03*
X208080Y-756048D02*
G54D60*
D03*
X259080Y-756048D02*
G54D60*
D03*
X284580Y-756048D02*
G54D60*
D03*
X310080Y-756048D02*
G54D60*
D03*
X361080Y-756048D02*
G54D60*
D03*
X386580Y-756048D02*
G54D60*
D03*
X412080Y-756048D02*
G54D60*
D03*
X463080Y-756048D02*
G54D60*
D03*
X488580Y-756048D02*
G54D60*
D03*
X514080Y-756048D02*
G54D60*
D03*
X55080Y-716047D02*
G54D60*
D03*
X80580Y-716047D02*
G54D60*
D03*
X106080Y-716048D02*
G54D60*
D03*
X157080Y-716048D02*
G54D60*
D03*
X182580Y-716048D02*
G54D60*
D03*
X208080Y-716048D02*
G54D60*
D03*
X259080Y-716048D02*
G54D60*
D03*
X284580Y-716048D02*
G54D60*
D03*
X310080Y-716048D02*
G54D60*
D03*
X361080Y-716048D02*
G54D60*
D03*
X386580Y-716048D02*
G54D60*
D03*
X412080Y-716048D02*
G54D60*
D03*
X463080Y-716048D02*
G54D60*
D03*
X488580Y-716048D02*
G54D60*
D03*
X514080Y-716048D02*
G54D60*
D03*
G54D40*
X182580Y-716048D02*
X182580Y-700920D01*
G54D40*
X284580Y-716048D02*
X284580Y-700920D01*
G54D40*
X488580Y-716048D02*
X488580Y-700920D01*
G54D40*
X386580Y-716048D02*
X386580Y-700920D01*
G54D40*
X488580Y-700920D02*
X95708Y-700920D01*
X80580Y-716048D01*
G54D40*
G75*
G01X101816Y-727561D02*
G03X84845Y-727561I-8485J-8485D01*
G01*
G54D40*
G75*
G01X118830Y-724048D02*
G03X110344Y-727563I0J-12000D01*
G01*
G54D40*
X101816Y-727561D02*
X110344Y-727563D01*
G54D40*
G75*
G01X76315Y-727563D02*
G03X64724Y-724457I-8485J-8485D01*
G01*
G54D40*
X76315Y-727563D02*
X84846Y-727561D01*
G54D40*
G75*
G01X84845Y-744532D02*
G03X101816Y-744532I8486J8486D01*
G01*
G54D40*
G75*
G01X110344Y-744530D02*
G03X127315Y-744530I8486J8486D01*
G01*
G54D40*
X101816Y-744532D02*
X110344Y-744530D01*
G54D40*
G75*
G01X57437Y-742044D02*
G03X76315Y-744530I10393J6000D01*
G01*
G54D40*
X76315Y-744530D02*
X84846Y-744532D01*
G54D40*
X64724Y-724457D02*
X63491Y-724457D01*
X55080Y-716047D01*
G54D40*
X118830Y-724048D02*
X149080Y-724048D01*
X157080Y-716048D01*
G54D40*
G75*
G01X203816Y-727563D02*
G03X186845Y-727563I-8486J-8485D01*
G01*
G54D40*
G75*
G01X220829Y-724050D02*
G03X212344Y-727565I0J-12000D01*
G01*
G54D40*
X203816Y-727563D02*
X212344Y-727565D01*
G54D40*
G75*
G01X178315Y-727565D02*
G03X166723Y-724459I-8486J-8485D01*
G01*
G54D40*
X178314Y-727565D02*
X186845Y-727563D01*
G54D40*
X166724Y-724459D02*
X165491Y-724459D01*
X157080Y-716048D01*
G54D40*
X220829Y-724050D02*
X251079Y-724050D01*
X259080Y-716050D01*
G54D40*
G75*
G01X305816Y-727563D02*
G03X288845Y-727563I-8486J-8485D01*
G01*
G54D40*
G75*
G01X322829Y-724050D02*
G03X314344Y-727565I0J-12000D01*
G01*
G54D40*
X305816Y-727563D02*
X314344Y-727565D01*
G54D40*
G75*
G01X280315Y-727565D02*
G03X268723Y-724459I-8486J-8485D01*
G01*
G54D40*
X280314Y-727565D02*
X288845Y-727563D01*
G54D40*
X268724Y-724459D02*
X267491Y-724459D01*
X259080Y-716048D01*
G54D40*
X322829Y-724050D02*
X353079Y-724050D01*
X361080Y-716050D01*
G54D40*
G75*
G01X407816Y-727563D02*
G03X390845Y-727563I-8486J-8485D01*
G01*
G54D40*
G75*
G01X424829Y-724050D02*
G03X416344Y-727565I0J-12000D01*
G01*
G54D40*
X407816Y-727563D02*
X416344Y-727565D01*
G54D40*
G75*
G01X382315Y-727565D02*
G03X370723Y-724459I-8486J-8485D01*
G01*
G54D40*
X382314Y-727565D02*
X390845Y-727563D01*
G54D40*
X370724Y-724459D02*
X369491Y-724459D01*
X361080Y-716048D01*
G54D40*
X424829Y-724050D02*
X455079Y-724050D01*
X463080Y-716050D01*
G54D40*
X127315Y-744530D02*
X135848Y-744530D01*
X144330Y-736048D01*
G54D40*
X57438Y-742044D02*
X48328Y-742044D01*
X42330Y-736047D01*
G54D40*
G75*
G01X186845Y-744533D02*
G03X203816Y-744533I8485J8485D01*
G01*
G54D40*
G75*
G01X212344Y-744531D02*
G03X229315Y-744531I8485J8485D01*
G01*
G54D40*
X203816Y-744533D02*
X212344Y-744531D01*
G54D40*
G75*
G01X159437Y-742046D02*
G03X178315Y-744531I10392J6000D01*
G01*
G54D40*
X178314Y-744531D02*
X186845Y-744533D01*
G54D40*
X229314Y-744531D02*
X237848Y-744531D01*
X246329Y-736050D01*
G54D40*
X159437Y-742046D02*
X150328Y-742046D01*
X144330Y-736048D01*
G54D40*
G75*
G01X288845Y-744533D02*
G03X305816Y-744533I8485J8485D01*
G01*
G54D40*
G75*
G01X314344Y-744531D02*
G03X331315Y-744531I8485J8485D01*
G01*
G54D40*
X305816Y-744533D02*
X314344Y-744531D01*
G54D40*
G75*
G01X261437Y-742046D02*
G03X280315Y-744531I10392J6000D01*
G01*
G54D40*
X280314Y-744531D02*
X288845Y-744533D01*
G54D40*
X331314Y-744531D02*
X339848Y-744531D01*
X348329Y-736050D01*
G54D40*
X261437Y-742046D02*
X252328Y-742046D01*
X246330Y-736048D01*
G54D40*
G75*
G01X390845Y-744533D02*
G03X407816Y-744533I8485J8485D01*
G01*
G54D40*
G75*
G01X416344Y-744531D02*
G03X433315Y-744531I8485J8485D01*
G01*
G54D40*
X407816Y-744533D02*
X416344Y-744531D01*
G54D40*
G75*
G01X363437Y-742046D02*
G03X382315Y-744531I10392J6000D01*
G01*
G54D40*
X382314Y-744531D02*
X390845Y-744533D01*
G54D40*
X433314Y-744531D02*
X441848Y-744531D01*
X450329Y-736050D01*
G54D40*
X363437Y-742046D02*
X354328Y-742046D01*
X348330Y-736048D01*
X144324Y-794014D02*
G54D71*
D03*
X348318Y-795204D02*
G54D71*
D03*
X450314Y-795998D02*
G54D71*
D03*
X55027Y-792029D02*
G54D71*
D03*
X979296Y-827908D02*
G54D71*
D03*
G54D40*
X979296Y-941516D02*
X979296Y-827908D01*
X814196Y-827908D02*
G54D92*
D03*
X687196Y-827908D02*
G54D92*
D03*
G54D18*
X814196Y-941516D02*
X814196Y-827908D01*
G54D18*
X687196Y-941516D02*
X687196Y-827908D01*
X750696Y-916116D02*
G54D92*
D03*
X318896Y-827908D02*
G54D92*
D03*
X191896Y-827908D02*
G54D92*
D03*
G54D18*
X318896Y-941516D02*
X318896Y-827908D01*
G54D18*
X191896Y-941516D02*
X191896Y-827908D01*
X255396Y-916116D02*
G54D92*
D03*
X483996Y-827908D02*
G54D92*
D03*
X356996Y-827908D02*
G54D92*
D03*
G54D18*
X483996Y-941516D02*
X483996Y-827908D01*
G54D18*
X356996Y-941516D02*
X356996Y-827908D01*
X420496Y-916116D02*
G54D92*
D03*
X979296Y-827908D02*
G54D92*
D03*
X852296Y-827908D02*
G54D92*
D03*
G54D18*
X979296Y-941516D02*
X979296Y-827908D01*
G54D18*
X852296Y-941516D02*
X852296Y-827908D01*
X915796Y-916116D02*
G54D92*
D03*
X649096Y-827908D02*
G54D92*
D03*
X522096Y-827908D02*
G54D92*
D03*
G54D93*
X140402Y-941516D02*
X140402Y-976916D01*
G54D93*
X127602Y-941516D02*
X127602Y-976916D01*
G54D93*
X114902Y-941516D02*
X114902Y-976916D01*
G54D93*
X102302Y-941516D02*
X102302Y-976916D01*
G54D93*
X76802Y-941516D02*
X76802Y-976916D01*
G54D93*
X153002Y-941516D02*
X153002Y-976916D01*
G54D93*
X64102Y-941516D02*
X64102Y-976916D01*
G54D93*
X51502Y-941516D02*
X51502Y-976916D01*
G54D93*
X38702Y-941516D02*
X38702Y-976916D01*
G54D93*
X26002Y-941516D02*
X26002Y-976916D01*
X153002Y-827908D02*
G54D92*
D03*
X26002Y-827908D02*
G54D92*
D03*
G54D18*
X153002Y-941516D02*
X153002Y-827908D01*
G54D18*
X26002Y-941516D02*
X26002Y-827908D01*
X89502Y-916116D02*
G54D92*
D03*
G54D18*
X522096Y-941516D02*
X522096Y-827908D01*
G54D18*
X649096Y-941516D02*
X649096Y-827908D01*
X585596Y-916116D02*
G54D92*
D03*
G54D93*
X306296Y-941516D02*
X306296Y-976916D01*
G54D93*
X293496Y-941516D02*
X293496Y-976916D01*
G54D93*
X280796Y-941516D02*
X280796Y-976916D01*
G54D93*
X268196Y-941516D02*
X268196Y-976916D01*
G54D93*
X242696Y-941516D02*
X242696Y-976916D01*
G54D93*
X318896Y-941516D02*
X318896Y-976916D01*
G54D93*
X229996Y-941516D02*
X229996Y-976916D01*
G54D93*
X217396Y-941516D02*
X217396Y-976916D01*
G54D93*
X204596Y-941516D02*
X204596Y-976916D01*
G54D93*
X191896Y-941516D02*
X191896Y-976916D01*
G54D93*
X471396Y-941516D02*
X471396Y-976916D01*
G54D93*
X458596Y-941516D02*
X458596Y-976916D01*
G54D93*
X445896Y-941516D02*
X445896Y-976916D01*
G54D93*
X433296Y-941516D02*
X433296Y-976916D01*
G54D93*
X407796Y-941516D02*
X407796Y-976916D01*
G54D93*
X483996Y-941516D02*
X483996Y-976916D01*
G54D93*
X395096Y-941516D02*
X395096Y-976916D01*
G54D93*
X382496Y-941516D02*
X382496Y-976916D01*
G54D93*
X369696Y-941516D02*
X369696Y-976916D01*
G54D93*
X356996Y-941516D02*
X356996Y-976916D01*
G54D93*
X636496Y-941516D02*
X636496Y-976916D01*
G54D93*
X623696Y-941516D02*
X623696Y-976916D01*
G54D93*
X610996Y-941516D02*
X610996Y-976916D01*
G54D93*
X598396Y-941516D02*
X598396Y-976916D01*
G54D93*
X572896Y-941516D02*
X572896Y-976916D01*
G54D93*
X649096Y-941516D02*
X649096Y-976916D01*
G54D93*
X560196Y-941516D02*
X560196Y-976916D01*
G54D93*
X547596Y-941516D02*
X547596Y-976916D01*
G54D93*
X534796Y-941516D02*
X534796Y-976916D01*
G54D93*
X522096Y-941516D02*
X522096Y-976916D01*
G54D93*
X801596Y-941516D02*
X801596Y-976916D01*
G54D93*
X788796Y-941516D02*
X788796Y-976916D01*
G54D93*
X776096Y-941516D02*
X776096Y-976916D01*
G54D93*
X763496Y-941516D02*
X763496Y-976916D01*
G54D93*
X737996Y-941516D02*
X737996Y-976916D01*
G54D93*
X814196Y-941516D02*
X814196Y-976916D01*
G54D93*
X725296Y-941516D02*
X725296Y-976916D01*
G54D93*
X712696Y-941516D02*
X712696Y-976916D01*
G54D93*
X699896Y-941516D02*
X699896Y-976916D01*
G54D93*
X687196Y-941516D02*
X687196Y-976916D01*
G54D93*
X966696Y-941516D02*
X966696Y-976916D01*
G54D93*
X953896Y-941516D02*
X953896Y-976916D01*
G54D93*
X941196Y-941516D02*
X941196Y-976916D01*
G54D93*
X928596Y-941516D02*
X928596Y-976916D01*
G54D93*
X903096Y-941516D02*
X903096Y-976916D01*
G54D93*
X979296Y-941516D02*
X979296Y-976916D01*
G54D93*
X890396Y-941516D02*
X890396Y-976916D01*
G54D93*
X877796Y-941516D02*
X877796Y-976916D01*
G54D93*
X864996Y-941516D02*
X864996Y-976916D01*
G54D93*
X852296Y-941516D02*
X852296Y-976916D01*
X979105Y-628365D02*
G54D92*
D03*
X852105Y-628365D02*
G54D92*
D03*
X915605Y-716573D02*
G54D92*
D03*
G54D18*
X979105Y-741973D02*
X979105Y-628365D01*
G54D18*
X852105Y-741973D02*
X852105Y-628365D01*
X813608Y-629158D02*
G54D92*
D03*
X686608Y-629158D02*
G54D92*
D03*
G54D18*
X813608Y-742766D02*
X813608Y-629158D01*
G54D18*
X686608Y-742766D02*
X686608Y-629158D01*
X750108Y-717366D02*
G54D92*
D03*
G54D93*
X966505Y-741973D02*
X966505Y-777373D01*
G54D93*
X953705Y-741973D02*
X953705Y-777373D01*
G54D93*
X941005Y-741973D02*
X941005Y-777373D01*
G54D93*
X928405Y-741973D02*
X928405Y-777373D01*
G54D93*
X902905Y-741973D02*
X902905Y-777373D01*
G54D93*
X979105Y-741973D02*
X979105Y-777373D01*
G54D93*
X890205Y-741973D02*
X890205Y-777373D01*
G54D93*
X877605Y-741973D02*
X877605Y-777373D01*
G54D93*
X864805Y-741973D02*
X864805Y-777373D01*
G54D93*
X852105Y-741973D02*
X852105Y-777373D01*
G54D93*
X801008Y-742766D02*
X801008Y-778166D01*
G54D93*
X788208Y-742766D02*
X788208Y-778166D01*
G54D93*
X775508Y-742766D02*
X775508Y-778166D01*
G54D93*
X762908Y-742766D02*
X762908Y-778166D01*
G54D93*
X737408Y-742766D02*
X737408Y-778166D01*
G54D93*
X813608Y-742766D02*
X813608Y-778166D01*
G54D93*
X724708Y-742766D02*
X724708Y-778166D01*
G54D93*
X712108Y-742766D02*
X712108Y-778166D01*
G54D93*
X699308Y-742766D02*
X699308Y-778166D01*
G54D93*
X686608Y-742766D02*
X686608Y-778166D01*
X813777Y-431765D02*
G54D92*
D03*
X686777Y-431765D02*
G54D92*
D03*
X750277Y-519973D02*
G54D92*
D03*
G54D18*
X813777Y-545373D02*
X813777Y-431765D01*
G54D18*
X686777Y-545373D02*
X686777Y-431765D01*
G54D18*
X853296Y-544726D02*
X853296Y-431118D01*
X916796Y-519326D02*
G54D92*
D03*
X980296Y-431118D02*
G54D92*
D03*
G54D18*
X980296Y-544726D02*
X980296Y-431118D01*
X853296Y-431118D02*
G54D92*
D03*
G54D93*
X967696Y-544726D02*
X967695Y-580126D01*
G54D93*
X954896Y-544726D02*
X954896Y-580126D01*
G54D93*
X942196Y-544726D02*
X942196Y-580126D01*
G54D93*
X929596Y-544726D02*
X929596Y-580126D01*
G54D93*
X904096Y-544726D02*
X904096Y-580126D01*
G54D93*
X980295Y-544726D02*
X980295Y-580126D01*
G54D93*
X891396Y-544726D02*
X891396Y-580126D01*
G54D93*
X878796Y-544726D02*
X878796Y-580126D01*
G54D93*
X865996Y-544726D02*
X865996Y-580126D01*
G54D93*
X853296Y-544726D02*
X853296Y-580126D01*
G54D93*
X801177Y-545373D02*
X801176Y-580773D01*
G54D93*
X788377Y-545373D02*
X788377Y-580773D01*
G54D93*
X775677Y-545373D02*
X775677Y-580773D01*
G54D93*
X763077Y-545373D02*
X763077Y-580773D01*
G54D93*
X737577Y-545373D02*
X737577Y-580773D01*
G54D93*
X813776Y-545373D02*
X813776Y-580773D01*
G54D93*
X724877Y-545373D02*
X724877Y-580773D01*
G54D93*
X712277Y-545373D02*
X712277Y-580773D01*
G54D93*
X699477Y-545373D02*
X699477Y-580773D01*
G54D93*
X686777Y-545373D02*
X686777Y-580773D01*
X979502Y-235062D02*
G54D92*
D03*
X852502Y-235062D02*
G54D92*
D03*
X916002Y-323270D02*
G54D92*
D03*
G54D18*
X979502Y-348670D02*
X979502Y-235062D01*
G54D18*
X852502Y-348670D02*
X852502Y-235062D01*
X916002Y-323270D02*
G54D92*
D03*
G54D18*
X688196Y-347876D02*
X688196Y-234268D01*
X751696Y-322476D02*
G54D92*
D03*
X815196Y-234268D02*
G54D92*
D03*
G54D18*
X815196Y-347876D02*
X815196Y-234268D01*
X688196Y-234268D02*
G54D92*
D03*
G54D93*
X966902Y-348670D02*
X966902Y-384070D01*
G54D93*
X954102Y-348670D02*
X954102Y-384070D01*
G54D93*
X941402Y-348670D02*
X941402Y-384070D01*
G54D93*
X928802Y-348670D02*
X928802Y-384070D01*
G54D93*
X903302Y-348670D02*
X903302Y-384070D01*
G54D93*
X979502Y-348670D02*
X979502Y-384070D01*
G54D93*
X890602Y-348670D02*
X890602Y-384070D01*
G54D93*
X878002Y-348670D02*
X878002Y-384070D01*
G54D93*
X865202Y-348670D02*
X865202Y-384070D01*
G54D93*
X852502Y-348670D02*
X852502Y-384070D01*
G54D93*
X802596Y-347876D02*
X802595Y-383276D01*
G54D93*
X789796Y-347876D02*
X789796Y-383276D01*
G54D93*
X777096Y-347876D02*
X777096Y-383276D01*
G54D93*
X764496Y-347876D02*
X764496Y-383276D01*
G54D93*
X738996Y-347876D02*
X738996Y-383276D01*
G54D93*
X815195Y-347876D02*
X815195Y-383276D01*
G54D93*
X726296Y-347876D02*
X726296Y-383276D01*
G54D93*
X713696Y-347876D02*
X713696Y-383276D01*
G54D93*
X700896Y-347876D02*
X700896Y-383276D01*
G54D93*
X688196Y-347876D02*
X688196Y-383276D01*
G54D93*
X639876Y-740725D02*
X639876Y-782475D01*
G54D93*
X627076Y-740726D02*
X627076Y-782476D01*
G54D93*
X614376Y-740726D02*
X614376Y-782476D01*
G54D93*
X601776Y-740726D02*
X601776Y-782476D01*
G54D93*
X588976Y-740726D02*
X588976Y-782475D01*
G54D93*
X576276Y-740726D02*
X576276Y-782475D01*
G54D93*
X652476Y-740725D02*
X652476Y-782476D01*
X592956Y-646160D02*
G54D71*
D03*
X651694Y-658463D02*
G54D71*
D03*
X623516Y-645763D02*
G54D71*
D03*
G54D93*
X639876Y-518475D02*
X639876Y-560225D01*
G54D93*
X627076Y-518476D02*
X627076Y-560226D01*
G54D93*
X614376Y-518476D02*
X614376Y-560226D01*
G54D93*
X601776Y-518476D02*
X601776Y-560226D01*
G54D93*
X588976Y-518476D02*
X588976Y-560225D01*
G54D93*
X576276Y-518476D02*
X576276Y-560225D01*
G54D93*
X652476Y-518475D02*
X652476Y-560226D01*
X592956Y-423910D02*
G54D71*
D03*
X651694Y-436213D02*
G54D71*
D03*
X623516Y-423513D02*
G54D71*
D03*
G54D93*
X639876Y-283525D02*
X639876Y-325275D01*
G54D93*
X627076Y-283526D02*
X627076Y-325276D01*
G54D93*
X614376Y-283526D02*
X614376Y-325276D01*
G54D93*
X601776Y-283526D02*
X601776Y-325276D01*
G54D93*
X588976Y-283526D02*
X588976Y-325275D01*
G54D93*
X576276Y-283526D02*
X576276Y-325275D01*
G54D93*
X652476Y-283525D02*
X652476Y-325276D01*
X592956Y-188960D02*
G54D71*
D03*
X651694Y-201263D02*
G54D71*
D03*
X623516Y-188563D02*
G54D71*
D03*
X979502Y-25512D02*
G54D92*
D03*
X852502Y-25512D02*
G54D92*
D03*
X916002Y-113720D02*
G54D92*
D03*
G54D18*
X979502Y-139120D02*
X979502Y-25512D01*
G54D18*
X852502Y-139120D02*
X852502Y-25512D01*
X916002Y-113720D02*
G54D92*
D03*
G54D93*
X966902Y-139120D02*
X966902Y-174520D01*
G54D93*
X954102Y-139120D02*
X954102Y-174520D01*
G54D93*
X941402Y-139120D02*
X941402Y-174520D01*
G54D93*
X928802Y-139120D02*
X928802Y-174520D01*
G54D93*
X903302Y-139120D02*
X903302Y-174520D01*
G54D93*
X979502Y-139120D02*
X979502Y-174520D01*
G54D93*
X890602Y-139120D02*
X890602Y-174520D01*
G54D93*
X878002Y-139120D02*
X878002Y-174520D01*
G54D93*
X865202Y-139120D02*
X865202Y-174520D01*
G54D93*
X852502Y-139120D02*
X852502Y-174520D01*
X814196Y-27808D02*
G54D71*
D03*
G54D40*
X814196Y-141416D02*
X814196Y-27808D01*
X814196Y-27808D02*
G54D92*
D03*
X687196Y-27808D02*
G54D92*
D03*
G54D18*
X814196Y-141416D02*
X814196Y-27808D01*
G54D18*
X687196Y-141416D02*
X687196Y-27808D01*
X750696Y-116016D02*
G54D92*
D03*
G54D93*
X801596Y-141416D02*
X801596Y-176816D01*
G54D93*
X788796Y-141416D02*
X788796Y-176816D01*
G54D93*
X776096Y-141416D02*
X776096Y-176816D01*
G54D93*
X763496Y-141416D02*
X763496Y-176816D01*
G54D93*
X737996Y-141416D02*
X737996Y-176816D01*
G54D93*
X814196Y-141416D02*
X814196Y-176816D01*
G54D93*
X725296Y-141416D02*
X725296Y-176816D01*
G54D93*
X712696Y-141416D02*
X712696Y-176816D01*
G54D93*
X699896Y-141416D02*
X699896Y-176816D01*
G54D93*
X687196Y-141416D02*
X687196Y-176816D01*
M02*
