%FSLAX34Y34*%
%MOMM*%
%LNSILK_BOTTOM*%
G71*
G01*
%ADD10C, 0.150*%
%ADD11C, 0.300*%
%ADD12C, 0.033*%
%ADD13C, 0.200*%
%ADD14C, 0.000*%
%LPD*%
G54D10*
X488559Y-348698D02*
X488560Y-322698D01*
X438559Y-322698D01*
X438560Y-348698D01*
X488559Y-348698D01*
G54D10*
X397337Y-284537D02*
X386637Y-284537D01*
X386637Y-314737D01*
X397337Y-314737D01*
X397337Y-284537D01*
G54D10*
X394537Y-284537D02*
X389437Y-284537D01*
X389437Y-290137D01*
X394537Y-290137D01*
X394537Y-284537D01*
G54D10*
X413986Y-322744D02*
X413986Y-344744D01*
X363986Y-344744D01*
X363986Y-322744D01*
X413986Y-322744D01*
G54D10*
X363266Y-344748D02*
X343265Y-344748D01*
X343265Y-306748D01*
X363266Y-306748D01*
X363266Y-344748D01*
G54D10*
X416587Y-229851D02*
X436587Y-229851D01*
X436587Y-267851D01*
X416587Y-267851D01*
X416587Y-229851D01*
G54D10*
X293983Y-82990D02*
X293983Y-64990D01*
X327983Y-64990D01*
X327983Y-82990D01*
X293983Y-82990D01*
G54D10*
X320216Y-499905D02*
X320216Y-449905D01*
X282215Y-449905D01*
X282215Y-499905D01*
X320216Y-499905D01*
G54D10*
X306716Y-456505D02*
X306715Y-449905D01*
X295715Y-449905D01*
X295715Y-456505D01*
X306716Y-456505D01*
G54D11*
G75*
G01X316212Y-454478D02*
G03X316212Y-454478I-1000J0D01*
G01*
G36*
G75*
G01X316212Y-454478D02*
G03X316212Y-454478I-1000J0D01*
G01*
G37*
X316212Y-454478D01*
G54D10*
X347136Y-446677D02*
X359184Y-446677D01*
X359184Y-480677D01*
G54D10*
X378149Y-501011D02*
X360149Y-501011D01*
X360148Y-467011D01*
X378149Y-467011D01*
X378149Y-501011D01*
G54D10*
X158568Y-404308D02*
X144426Y-390166D01*
X180559Y-354033D01*
X194702Y-368175D01*
X158568Y-404308D01*
G54D10*
X155032Y-400773D02*
X147962Y-393702D01*
X151497Y-390166D01*
X158568Y-397237D01*
X155032Y-400773D01*
G54D10*
X244563Y-522544D02*
X244563Y-504544D01*
X210563Y-504544D01*
X210563Y-522544D01*
X244563Y-522544D01*
G54D12*
X224967Y-513603D02*
X225967Y-512603D01*
X225967Y-515270D01*
G54D12*
X228300Y-513103D02*
X228300Y-514770D01*
X228100Y-515103D01*
X227700Y-515269D01*
X227300Y-515270D01*
X226900Y-515103D01*
X226700Y-514769D01*
X226700Y-513103D01*
X226900Y-512769D01*
X227300Y-512603D01*
X227700Y-512603D01*
X228100Y-512769D01*
X228300Y-513103D01*
G54D12*
X229033Y-515269D02*
X229033Y-512603D01*
G54D12*
X229633Y-514269D02*
X230233Y-515269D01*
G54D12*
X229033Y-514603D02*
X230233Y-513769D01*
G54D10*
X341183Y-450646D02*
X341183Y-480677D01*
G54D10*
X341183Y-470820D02*
X341183Y-504820D01*
X359183Y-504820D01*
X359183Y-470820D01*
G54D13*
X415723Y-473196D02*
X415724Y-396995D01*
G54D13*
X517324Y-396996D02*
X415724Y-396995D01*
G54D13*
X530023Y-396996D02*
X428424Y-396996D01*
G54D13*
X530023Y-415995D02*
X530023Y-403396D01*
G54D13*
X530023Y-409595D02*
X530023Y-396996D01*
G54D10*
X416587Y-191354D02*
X436587Y-191354D01*
X436587Y-229354D01*
X416587Y-229354D01*
X416587Y-191354D01*
G54D10*
X437224Y-219056D02*
X457224Y-219056D01*
X457224Y-257056D01*
X437224Y-257056D01*
X437224Y-219056D01*
G54D10*
X437224Y-180559D02*
X457224Y-180559D01*
X457224Y-218559D01*
X437224Y-218559D01*
X437224Y-180559D01*
G54D10*
X457862Y-180559D02*
X477862Y-180559D01*
X477862Y-218559D01*
X457862Y-218559D01*
X457862Y-180559D01*
G54D10*
X497322Y-289256D02*
X479322Y-289256D01*
X479322Y-255256D01*
X497322Y-255256D01*
X497322Y-289256D01*
G54D10*
X479066Y-289256D02*
X461066Y-289256D01*
X461066Y-255256D01*
X479066Y-255256D01*
X479066Y-289256D01*
G54D10*
X176064Y-504544D02*
X176064Y-522544D01*
X210064Y-522544D01*
X210064Y-504544D01*
X176064Y-504544D01*
G54D12*
X190389Y-512819D02*
X191389Y-511819D01*
X191389Y-514485D01*
G54D12*
X193322Y-512985D02*
X193322Y-514485D01*
G54D12*
X193322Y-514152D02*
X193122Y-514419D01*
X192722Y-514485D01*
X192322Y-514419D01*
X192122Y-514152D01*
X192122Y-512985D01*
G54D12*
X194055Y-514485D02*
X194055Y-511819D01*
X195455Y-511819D01*
G54D12*
X194055Y-513152D02*
X195455Y-513152D01*
G54D10*
X234630Y-252627D02*
X254630Y-252627D01*
X254630Y-303727D01*
X234630Y-303727D01*
X234630Y-252627D01*
G54D10*
X239630Y-252627D02*
X249630Y-252627D01*
X249630Y-257627D01*
X239630Y-257627D01*
X239630Y-252627D01*
G54D10*
X321652Y-539574D02*
X321652Y-521574D01*
X355652Y-521574D01*
X355652Y-539574D01*
X321652Y-539574D01*
G54D14*
G75*
G01X141803Y-390526D02*
G03X141803Y-390526I-2500J0D01*
G01*
G36*
G75*
G01X141803Y-390526D02*
G03X141803Y-390526I-2500J0D01*
G01*
G37*
X141803Y-390526D01*
G54D14*
G75*
G01X261659Y-248445D02*
G03X261659Y-248445I-2500J0D01*
G01*
G36*
G75*
G01X261659Y-248445D02*
G03X261659Y-248445I-2500J0D01*
G01*
G37*
X261659Y-248445D01*
G54D12*
X223932Y-438320D02*
X224932Y-439320D01*
X222265Y-439320D01*
G54D12*
X224432Y-441653D02*
X222765Y-441653D01*
X222432Y-441453D01*
X222266Y-441053D01*
X222265Y-440653D01*
X222432Y-440253D01*
X222766Y-440053D01*
X224432Y-440053D01*
X224766Y-440253D01*
X224932Y-440653D01*
X224932Y-441053D01*
X224766Y-441453D01*
X224432Y-441653D01*
G54D12*
X222266Y-442386D02*
X224932Y-442386D01*
G54D12*
X223266Y-442986D02*
X222266Y-443586D01*
G54D12*
X222932Y-442386D02*
X223766Y-443586D01*
G54D10*
X234041Y-423916D02*
X234041Y-457916D01*
X252041Y-457916D01*
X252041Y-423916D01*
G54D12*
X242982Y-438320D02*
X243982Y-439320D01*
X241315Y-439320D01*
G54D12*
X243482Y-441653D02*
X241815Y-441653D01*
X241482Y-441453D01*
X241316Y-441053D01*
X241315Y-440653D01*
X241482Y-440253D01*
X241816Y-440053D01*
X243482Y-440053D01*
X243816Y-440253D01*
X243982Y-440653D01*
X243982Y-441053D01*
X243816Y-441453D01*
X243482Y-441653D01*
G54D12*
X241316Y-442386D02*
X243982Y-442386D01*
G54D12*
X242316Y-442986D02*
X241316Y-443586D01*
G54D12*
X241982Y-442386D02*
X242816Y-443586D01*
G54D10*
X232991Y-423916D02*
X232991Y-457916D01*
X214991Y-457916D01*
X214991Y-423916D01*
G54D10*
X446318Y-366703D02*
X446318Y-348704D01*
X480318Y-348703D01*
X480319Y-366704D01*
X446318Y-366703D01*
M02*
