; Drill file
; Format: 2.4 (00.0000)
M48
INCH
T01C0.0197
T02C0.0236
T03C0.0276
T04C0.0394
T05C0.0413
T06C0.0433
T07C0.0984
%
G05
G90
T01
X003590Y-036190
X006090Y-032720
X005740Y-031390
X007620Y-032720
X010120Y-036190
X012620Y-032720
X014120Y-032720
X013780Y-031430
X017790Y-031460
X019120Y-032720
X020620Y-032720
X023120Y-036190
X025620Y-032720
X027120Y-032720
X029620Y-036190
X032120Y-032720
X033620Y-032720
X036120Y-036190
X038620Y-032720
X036110Y-028340
X038610Y-024860
X036160Y-020570
X038660Y-017100
X036130Y-012850
X033630Y-009380
X032160Y-009350
X029660Y-012820
X027160Y-009350
X025720Y-008050
X024610Y-007550
X023410Y-007560
X019790Y-012730
X020840Y-013390
X019200Y-014820
X018090Y-016560
X018200Y-018760
X015370Y-019150
X014440Y-020710
X011680Y-021320
X008710Y-019170
X007450Y-018240
X006140Y-020090
X003350Y-019040
X004010Y-017990
X002600Y-014600
X004210Y-012150
X006430Y-009210
X006970Y-007880
X008230Y-008310
X009600Y-008850
X011010Y-008700
X010050Y-007270
X011070Y-005710
X009790Y-005030
X007790Y-005260
X005790Y-003980
X005000Y-006370
X005000Y-006940
X002700Y-006120
X004090Y-002060
X012400Y-004030
X016060Y-003370
X015120Y-010060
X015870Y-010560
X016650Y-013790
X014340Y-013790
X012540Y-014430
X010790Y-012920
X008870Y-015390
X010930Y-016680
X015870Y-017030
X015940Y-016030
X023410Y-016810
X024610Y-016800
X025720Y-017300
X027100Y-017120
X029600Y-020600
X032100Y-017120
X033660Y-017100
X033610Y-024860
X032090Y-024900
X029590Y-028370
X027090Y-024900
X025720Y-026050
X024610Y-025550
X023410Y-025560
X017790Y-026460
X013780Y-026430
X005740Y-026390
X002230Y-026310
X002230Y-031310
X001090Y-032720
X016620Y-036190
X029620Y-004690
X032120Y-001220
X033630Y-001130
X036130Y-004600
X038630Y-001130
X038630Y-009380
X027120Y-001220
T02
X001730Y-030770
X002730Y-030770
X003740Y-030770
X004740Y-030770
X005740Y-030770
X006750Y-030770
X007750Y-030770
X008760Y-030770
X009760Y-030770
X010760Y-030770
X011770Y-030770
X012770Y-030770
X013780Y-030770
X014780Y-030770
X015780Y-030770
X016790Y-030770
X017790Y-030770
X018800Y-030770
X019800Y-030770
X020800Y-030770
X020300Y-029890
X019800Y-029100
X019300Y-029890
X018800Y-029100
X018290Y-029890
X017790Y-029100
X018290Y-028320
X019300Y-028320
X020300Y-028320
X020800Y-029100
X020800Y-025770
X019800Y-025770
X018800Y-025770
X017790Y-025770
X016790Y-025770
X015780Y-025770
X014780Y-025770
X013780Y-025770
X012770Y-025770
X011770Y-025770
X010760Y-025770
X009760Y-025770
X008760Y-025770
X007750Y-025770
X006750Y-025770
X005740Y-025770
X004740Y-025770
X003740Y-025770
X002730Y-025770
X001730Y-025770
X002230Y-024890
X002730Y-024100
X003230Y-024890
X003740Y-024100
X004240Y-023320
X004740Y-024100
X004240Y-024890
X005740Y-024100
X006250Y-024890
X006750Y-024100
X007250Y-024890
X007750Y-024100
X008250Y-024890
X008760Y-024100
X008250Y-023320
X007250Y-023320
X006250Y-023320
X006450Y-021040
X007270Y-021040
X008020Y-021040
X009580Y-021040
X010260Y-023320
X009760Y-024100
X010260Y-024890
X010760Y-024100
X011270Y-024890
X011770Y-024100
X012270Y-024890
X012770Y-024100
X012270Y-023320
X011270Y-023320
X013780Y-024100
X014280Y-024890
X014780Y-024100
X015280Y-024890
X015780Y-024100
X016290Y-024890
X016790Y-024100
X016290Y-023320
X015280Y-023320
X014280Y-023320
X012310Y-020890
X011410Y-017360
X009580Y-016590
X008830Y-016590
X008020Y-016590
X006450Y-016590
X005580Y-017170
X009870Y-014620
X009810Y-014010
X010380Y-013720
X009390Y-013490
X013950Y-015440
X014450Y-015940
X015240Y-016660
X016180Y-019130
X016190Y-020130
X018290Y-023320
X018800Y-024100
X018290Y-024890
X017790Y-024100
X019300Y-024890
X019800Y-024100
X020300Y-024890
X020800Y-024100
X020300Y-023320
X019300Y-023320
X020060Y-020100
X020060Y-019310
X019930Y-013520
X016560Y-012990
X016150Y-009850
X015410Y-009180
X015940Y-008650
X016060Y-006880
X015780Y-006280
X015280Y-005810
X014750Y-006320
X016800Y-006440
X019570Y-008630
X006040Y-001890
X003230Y-023320
X002230Y-023320
X001730Y-024100
X002230Y-028320
X001730Y-029100
X002230Y-029890
X002730Y-029100
X003230Y-029890
X003740Y-029100
X004240Y-028320
X004740Y-029100
X004240Y-029890
X005740Y-029100
X006250Y-029890
X006750Y-029100
X007250Y-029890
X007750Y-029100
X008250Y-029890
X008760Y-029100
X008250Y-028320
X007250Y-028320
X006250Y-028320
X003230Y-028320
X009760Y-029100
X010260Y-029890
X010760Y-029100
X011270Y-029890
X011770Y-029100
X012270Y-029890
X012770Y-029100
X012270Y-028320
X011270Y-028320
X010260Y-028320
X013780Y-029100
X014280Y-029890
X014780Y-029100
X015280Y-029890
X015780Y-029100
X016290Y-029890
X016790Y-029100
X016290Y-028320
X015280Y-028320
X014280Y-028320
T03
X020120Y-010500
X020120Y-008930
X020120Y-007360
X020120Y-006360
T04
X000380Y-005410
T05
X010650Y-020840
X020690Y-020870
T06
X017370Y-020130
X017370Y-019130
X017370Y-017130
X017370Y-016130
X019370Y-018130
T07
X018840Y-004950
M30
