%FSLAX34Y34*%
%MOMM*%
%LNSILK_TOP*%
G71*
G01*
%ADD10C, 0.100*%
%ADD11C, 0.089*%
%ADD12C, 0.189*%
%ADD13C, 0.150*%
%ADD14C, 0.222*%
%LPD*%
G54D10*
G75*
G01X149134Y-250247D02*
G03X149134Y-250247I-2500J0D01*
G01*
G36*
G75*
G01X149134Y-250247D02*
G03X149134Y-250247I-2500J0D01*
G01*
G37*
X149134Y-250247D01*
G54D11*
X329370Y-207284D02*
X329370Y-213062D01*
X329903Y-213951D01*
X330970Y-214395D01*
X332036Y-214395D01*
X333103Y-213951D01*
X333636Y-213062D01*
X333636Y-207284D01*
G54D11*
X335593Y-213062D02*
X336126Y-213951D01*
X337193Y-214395D01*
X338260Y-214395D01*
X339326Y-213951D01*
X339860Y-213062D01*
X339860Y-212173D01*
X339326Y-211284D01*
X338260Y-210840D01*
X337193Y-210840D01*
X336126Y-210395D01*
X335593Y-209506D01*
X335593Y-208618D01*
X336126Y-207728D01*
X337193Y-207284D01*
X338260Y-207284D01*
X339326Y-207728D01*
X339860Y-208618D01*
G54D11*
X341816Y-214395D02*
X341816Y-207284D01*
X344482Y-207284D01*
X345549Y-207728D01*
X346082Y-208618D01*
X346082Y-209506D01*
X345549Y-210395D01*
X344482Y-210840D01*
X345549Y-211284D01*
X346082Y-212173D01*
X346082Y-213062D01*
X345549Y-213951D01*
X344482Y-214395D01*
X341816Y-214395D01*
G54D11*
X341816Y-210840D02*
X344482Y-210840D01*
G54D12*
X366017Y-460202D02*
X369417Y-462091D01*
X370550Y-463980D01*
X370550Y-467758D01*
G54D12*
X361484Y-467758D02*
X361484Y-452646D01*
X367150Y-452646D01*
X369417Y-453591D01*
X370550Y-455480D01*
X370550Y-457369D01*
X369417Y-459258D01*
X367150Y-460202D01*
X361484Y-460202D01*
G54D12*
X374707Y-467758D02*
X374707Y-452647D01*
X382640Y-452646D01*
G54D12*
X374707Y-460202D02*
X382640Y-460202D01*
G54D12*
X386796Y-467758D02*
X386796Y-452646D01*
X392462Y-462091D01*
X398129Y-452647D01*
X398129Y-467758D01*
G54D12*
X411352Y-455480D02*
X410218Y-453591D01*
X407952Y-452647D01*
X405685Y-452646D01*
X403418Y-453591D01*
X402285Y-455480D01*
X402285Y-460202D01*
X402285Y-461146D01*
X405685Y-459258D01*
X407952Y-459258D01*
X410218Y-460202D01*
X411352Y-462091D01*
X411352Y-464924D01*
X410218Y-466813D01*
X407952Y-467758D01*
X405685Y-467758D01*
X403418Y-466813D01*
X402284Y-464924D01*
X402285Y-460202D01*
G54D12*
X415508Y-464924D02*
X416641Y-466813D01*
X418908Y-467758D01*
X421174Y-467758D01*
X423441Y-466813D01*
X424574Y-464924D01*
X424574Y-460202D01*
X424574Y-459258D01*
X421174Y-461146D01*
X418908Y-461146D01*
X416641Y-460202D01*
X415508Y-458313D01*
X415508Y-455480D01*
X416641Y-453591D01*
X418908Y-452646D01*
X421174Y-452646D01*
X423441Y-453591D01*
X424574Y-455480D01*
X424574Y-460202D01*
G54D12*
X428731Y-467758D02*
X428731Y-452646D01*
G54D12*
X437798Y-467758D02*
X437798Y-452647D01*
G54D12*
X428731Y-460202D02*
X437798Y-460202D01*
G54D12*
X441954Y-452647D02*
X441954Y-467758D01*
X447620Y-458313D01*
X453287Y-467758D01*
X453287Y-452647D01*
G54D13*
X351465Y-218153D02*
X351465Y-200153D01*
X385465Y-200153D01*
X385465Y-218153D01*
X351465Y-218153D01*
G54D13*
X472844Y-177994D02*
X472844Y-195994D01*
X438844Y-195994D01*
X438844Y-177994D01*
X472844Y-177994D01*
G54D13*
X472844Y-159737D02*
X472844Y-177737D01*
X438844Y-177737D01*
X438844Y-159737D01*
X472844Y-159737D01*
G54D13*
X382456Y-111790D02*
X395184Y-124518D01*
X371142Y-148560D01*
X358414Y-135832D01*
X382456Y-111790D01*
G54D13*
X269775Y-319819D02*
X269775Y-301819D01*
X303775Y-301819D01*
X303775Y-319819D01*
X269775Y-319819D01*
G54D13*
X454796Y-311493D02*
X474796Y-311493D01*
X474796Y-260393D01*
X454796Y-260393D01*
X454796Y-311493D01*
G54D13*
X459796Y-311493D02*
X469796Y-311493D01*
X469796Y-306493D01*
X459796Y-306493D01*
X459796Y-311493D01*
G54D14*
X214540Y-31357D02*
X214540Y-49135D01*
X223874Y-49135D01*
G54D14*
X238096Y-49135D02*
X228762Y-49135D01*
X228762Y-31357D01*
X238096Y-31357D01*
G54D14*
X228762Y-40246D02*
X238096Y-40246D01*
G54D14*
X242984Y-49135D02*
X242984Y-31357D01*
X249650Y-31357D01*
X252318Y-32468D01*
X253651Y-34690D01*
X253650Y-45801D01*
X252318Y-48024D01*
X249651Y-49135D01*
X242984Y-49135D01*
G54D14*
X258540Y-45801D02*
X259874Y-48024D01*
X262540Y-49135D01*
X265206Y-49135D01*
X267874Y-48024D01*
X269207Y-45801D01*
X269207Y-43579D01*
X267874Y-41357D01*
X265206Y-40246D01*
X262540Y-40246D01*
X259874Y-39135D01*
X258540Y-36912D01*
X258540Y-34690D01*
X259874Y-32468D01*
X262540Y-31357D01*
X265206Y-31357D01*
X267874Y-32468D01*
X269207Y-34690D01*
G54D13*
X164038Y-57507D02*
X182038Y-57507D01*
X182038Y-91507D01*
X164038Y-91507D01*
X164038Y-57507D01*
G54D13*
X288392Y-50566D02*
X301120Y-63294D01*
X277078Y-87335D01*
X264350Y-74608D01*
X288392Y-50566D01*
G54D13*
X207428Y-54138D02*
X220156Y-66865D01*
X196115Y-90907D01*
X183387Y-78179D01*
X207428Y-54138D01*
G54D13*
X349472Y-14656D02*
X371472Y-14656D01*
X371472Y-64656D01*
X349472Y-64656D01*
X349472Y-14656D01*
G54D13*
X372491Y-14656D02*
X394491Y-14656D01*
X394491Y-64656D01*
X372491Y-64656D01*
X372491Y-14656D01*
G54D13*
X178631Y-314822D02*
X191358Y-327550D01*
X215400Y-303509D01*
X202672Y-290781D01*
X178631Y-314822D01*
G54D13*
X164344Y-338600D02*
X146344Y-338600D01*
X146344Y-372600D01*
X164344Y-372600D01*
X164344Y-338600D01*
G54D13*
X146484Y-338600D02*
X128484Y-338600D01*
X128484Y-372600D01*
X146484Y-372600D01*
X146484Y-338600D01*
G54D13*
X164344Y-372731D02*
X146344Y-372731D01*
X146344Y-406731D01*
X164344Y-406731D01*
X164344Y-372731D01*
G54D13*
X146484Y-372731D02*
X128484Y-372731D01*
X128484Y-406731D01*
X146484Y-406731D01*
X146484Y-372731D01*
G54D13*
X127764Y-443474D02*
X109764Y-443473D01*
X109764Y-477473D01*
X127764Y-477473D01*
X127764Y-443474D01*
G54D13*
X146149Y-443543D02*
X128150Y-443543D01*
X128150Y-477543D01*
X146149Y-477543D01*
X146149Y-443543D01*
G54D13*
X59708Y-424342D02*
X59708Y-437342D01*
X69708Y-437342D01*
G54D13*
X79708Y-424342D02*
X71708Y-424342D01*
G54D13*
X410728Y-203729D02*
X428728Y-203729D01*
X428728Y-237729D01*
X410728Y-237729D01*
X410728Y-203729D01*
G54D13*
X462770Y-219832D02*
X462770Y-237832D01*
X428770Y-237832D01*
X428770Y-219832D01*
X462770Y-219832D01*
G54D13*
X392959Y-302658D02*
X392959Y-320658D01*
X358959Y-320658D01*
X358959Y-302658D01*
X392959Y-302658D01*
G54D13*
X523661Y-301487D02*
X505661Y-301487D01*
X505661Y-267487D01*
X523661Y-267487D01*
X523661Y-301487D01*
G54D13*
X475164Y-223063D02*
X495164Y-223063D01*
X495164Y-261063D01*
X475164Y-261063D01*
X475164Y-223063D01*
G54D13*
X486890Y-313453D02*
X486890Y-333453D01*
X448890Y-333453D01*
X448890Y-313453D01*
X486890Y-313453D01*
G54D13*
X495801Y-223063D02*
X515801Y-223063D01*
X515801Y-261063D01*
X495801Y-261063D01*
X495801Y-223063D01*
G54D13*
X392959Y-320914D02*
X392959Y-338914D01*
X358959Y-338914D01*
X358959Y-320914D01*
X392959Y-320914D01*
G54D13*
X491368Y-195594D02*
X473368Y-195594D01*
X473368Y-161594D01*
X491368Y-161594D01*
X491368Y-195594D01*
G54D13*
X160963Y-14479D02*
X160963Y-32479D01*
X126963Y-32479D01*
X126963Y-14479D01*
X160963Y-14479D01*
G54D13*
X128040Y-338621D02*
X110040Y-338621D01*
X110040Y-372621D01*
X128040Y-372621D01*
X128040Y-338621D01*
G54D13*
X128037Y-372922D02*
X110037Y-372922D01*
X110037Y-406922D01*
X128037Y-406923D01*
X128037Y-372922D01*
G54D13*
X127994Y-443020D02*
X127994Y-425020D01*
X93994Y-425020D01*
X93994Y-443020D01*
X127994Y-443020D01*
G54D13*
X146150Y-425163D02*
X146150Y-407163D01*
X112150Y-407163D01*
X112150Y-425163D01*
X146150Y-425163D01*
G54D13*
X155066Y-269106D02*
X142338Y-256378D01*
X118297Y-280420D01*
X131024Y-293148D01*
X155066Y-269106D01*
G54D13*
X91972Y-424432D02*
X109972Y-424432D01*
X109972Y-390432D01*
X91972Y-390432D01*
X91972Y-424432D01*
G54D13*
X91714Y-424348D02*
X91714Y-437348D01*
X81714Y-437348D01*
G54D13*
X393916Y-121747D02*
X408059Y-107604D01*
X434929Y-134475D01*
X420786Y-148617D01*
X393916Y-121747D01*
G54D13*
X44203Y-186986D02*
X44203Y-168986D01*
X78203Y-168986D01*
X78203Y-186986D01*
X44203Y-186986D01*
G54D13*
X757696Y-882516D02*
X757696Y-862515D01*
X706596Y-862516D01*
X706596Y-882516D01*
X757696Y-882516D01*
G54D13*
X757696Y-877516D02*
X757696Y-867516D01*
X752696Y-867515D01*
X752696Y-877516D01*
X757696Y-877516D01*
G54D13*
X262396Y-882516D02*
X262396Y-862515D01*
X211296Y-862516D01*
X211296Y-882516D01*
X262396Y-882516D01*
G54D13*
X262396Y-877516D02*
X262396Y-867516D01*
X257396Y-867515D01*
X257396Y-877516D01*
X262396Y-877516D01*
G54D13*
X427496Y-882516D02*
X427496Y-862515D01*
X376396Y-862516D01*
X376396Y-882516D01*
X427496Y-882516D01*
G54D13*
X427496Y-877516D02*
X427496Y-867516D01*
X422496Y-867515D01*
X422496Y-877516D01*
X427496Y-877516D01*
G54D13*
X922796Y-882516D02*
X922796Y-862515D01*
X871696Y-862516D01*
X871696Y-882516D01*
X922796Y-882516D01*
G54D13*
X922796Y-877516D02*
X922796Y-867516D01*
X917796Y-867515D01*
X917796Y-877516D01*
X922796Y-877516D01*
G54D13*
X592596Y-882516D02*
X592596Y-862515D01*
X541496Y-862516D01*
X541496Y-882516D01*
X592596Y-882516D01*
G54D13*
X592596Y-877516D02*
X592596Y-867516D01*
X587596Y-867515D01*
X587596Y-877516D01*
X592596Y-877516D01*
G54D13*
X96502Y-882516D02*
X96502Y-862515D01*
X45402Y-862516D01*
X45402Y-882516D01*
X96502Y-882516D01*
G54D13*
X96502Y-877516D02*
X96502Y-867516D01*
X91502Y-867515D01*
X91502Y-877516D01*
X96502Y-877516D01*
G54D13*
X922605Y-682972D02*
X922605Y-662972D01*
X871505Y-662972D01*
X871505Y-682972D01*
X922605Y-682972D01*
G54D13*
X922605Y-677972D02*
X922605Y-667972D01*
X917605Y-667972D01*
X917605Y-677972D01*
X922605Y-677972D01*
G54D13*
X757108Y-683766D02*
X757108Y-663765D01*
X706008Y-663766D01*
X706008Y-683766D01*
X757108Y-683766D01*
G54D13*
X757108Y-678766D02*
X757108Y-668766D01*
X752108Y-668765D01*
X752108Y-678766D01*
X757108Y-678766D01*
G54D13*
X757277Y-486372D02*
X757277Y-466372D01*
X706177Y-466372D01*
X706177Y-486372D01*
X757277Y-486372D01*
G54D13*
X757277Y-481372D02*
X757277Y-471372D01*
X752277Y-471372D01*
X752277Y-481372D01*
X757277Y-481372D01*
G54D13*
X923796Y-485725D02*
X923796Y-465725D01*
X872696Y-465725D01*
X872696Y-485725D01*
X923796Y-485725D01*
G54D13*
X923796Y-480725D02*
X923796Y-470725D01*
X918796Y-470725D01*
X918796Y-480725D01*
X923796Y-480725D01*
G54D13*
X923002Y-289669D02*
X923002Y-269668D01*
X871902Y-269669D01*
X871902Y-289669D01*
X923002Y-289669D01*
G54D13*
X923002Y-284669D02*
X923002Y-274669D01*
X918002Y-274668D01*
X918002Y-284669D01*
X923002Y-284669D01*
G54D13*
X758696Y-288875D02*
X758696Y-268875D01*
X707596Y-268875D01*
X707596Y-288875D01*
X758696Y-288875D01*
G54D13*
X758696Y-283875D02*
X758696Y-273875D01*
X753696Y-273875D01*
X753696Y-283875D01*
X758696Y-283875D01*
G54D13*
X582684Y-636324D02*
X582684Y-656324D01*
X633784Y-656324D01*
X633784Y-636324D01*
X582684Y-636324D01*
G54D13*
X582684Y-641324D02*
X582684Y-651324D01*
X587684Y-651324D01*
X587684Y-641324D01*
X582684Y-641324D01*
G54D13*
X574780Y-714090D02*
X574780Y-696090D01*
X608780Y-696090D01*
X608780Y-714090D01*
X574780Y-714090D01*
G54D13*
X582684Y-414074D02*
X582684Y-434074D01*
X633784Y-434074D01*
X633784Y-414074D01*
X582684Y-414074D01*
G54D13*
X582684Y-419074D02*
X582684Y-429074D01*
X587684Y-429074D01*
X587684Y-419074D01*
X582684Y-419074D01*
G54D13*
X574780Y-491840D02*
X574780Y-473840D01*
X608780Y-473840D01*
X608780Y-491840D01*
X574780Y-491840D01*
G54D13*
X582684Y-179124D02*
X582684Y-199124D01*
X633784Y-199124D01*
X633784Y-179124D01*
X582684Y-179124D01*
G54D13*
X582684Y-184124D02*
X582684Y-194124D01*
X587684Y-194124D01*
X587684Y-184124D01*
X582684Y-184124D01*
G54D13*
X574780Y-256890D02*
X574780Y-238890D01*
X608780Y-238890D01*
X608780Y-256890D01*
X574780Y-256890D01*
G54D13*
X923002Y-80119D02*
X923002Y-60118D01*
X871902Y-60119D01*
X871902Y-80119D01*
X923002Y-80119D01*
G54D13*
X923002Y-75119D02*
X923002Y-65119D01*
X918002Y-65118D01*
X918002Y-75119D01*
X923002Y-75119D01*
G54D13*
X757696Y-82416D02*
X757696Y-62415D01*
X706596Y-62416D01*
X706596Y-82416D01*
X757696Y-82416D01*
G54D13*
X757696Y-77416D02*
X757696Y-67416D01*
X752696Y-67415D01*
X752696Y-77416D01*
X757696Y-77416D01*
G54D13*
X410994Y-338183D02*
X392994Y-338183D01*
X392994Y-304183D01*
X410994Y-304183D01*
X410994Y-338183D01*
M02*
