%FSLAX34Y34*%
%MOMM*%
%LNSILK_TOP*%
G71*
G01*
%ADD10C, 0.318*%
%ADD11C, 0.150*%
%ADD12C, 0.100*%
%ADD13C, 0.200*%
%ADD14C, 0.000*%
%LPD*%
G54D10*
X388360Y-79437D02*
X388360Y-61659D01*
X395026Y-61659D01*
X397693Y-62770D01*
X399026Y-64993D01*
X399026Y-67215D01*
X397693Y-69437D01*
X395026Y-70548D01*
X388360Y-70548D01*
G54D10*
X415916Y-76104D02*
X414582Y-78326D01*
X411916Y-79437D01*
X409249Y-79437D01*
X406582Y-78326D01*
X405249Y-76104D01*
X405249Y-64993D01*
X406582Y-62770D01*
X409249Y-61659D01*
X411916Y-61659D01*
X414582Y-62770D01*
X415916Y-64993D01*
G54D10*
X422138Y-79437D02*
X422138Y-61659D01*
X428804Y-61659D01*
X431471Y-62770D01*
X432805Y-64993D01*
X432805Y-67215D01*
X431471Y-69437D01*
X428804Y-70548D01*
X431471Y-71659D01*
X432805Y-73882D01*
X432805Y-76104D01*
X431471Y-78326D01*
X428804Y-79437D01*
X422138Y-79437D01*
G54D10*
X422138Y-70548D02*
X428804Y-70548D01*
G54D10*
X367323Y-91041D02*
X372656Y-101041D01*
X377989Y-91041D01*
G54D10*
X384212Y-89930D02*
X390878Y-83263D01*
X390878Y-101041D01*
G54D10*
X398167Y-101041D02*
X397101Y-101041D01*
X397101Y-100152D01*
X398167Y-100152D01*
X398167Y-101041D01*
X397101Y-101041D01*
G54D10*
X404390Y-97707D02*
X405723Y-99930D01*
X408390Y-101041D01*
X411056Y-101041D01*
X413723Y-99930D01*
X415056Y-97707D01*
X415056Y-92152D01*
X415056Y-91041D01*
X411056Y-93263D01*
X408390Y-93263D01*
X405723Y-92152D01*
X404390Y-89930D01*
X404390Y-86596D01*
X405723Y-84374D01*
X408390Y-83263D01*
X411056Y-83263D01*
X413723Y-84374D01*
X415056Y-86596D01*
X415056Y-92152D01*
G54D10*
X422345Y-101041D02*
X421279Y-101041D01*
X421279Y-100152D01*
X422345Y-100152D01*
X422345Y-101041D01*
X421279Y-101041D01*
G54D10*
X428568Y-89930D02*
X435234Y-83263D01*
X435234Y-101041D01*
G54D10*
X441457Y-92152D02*
X444123Y-91041D01*
X447323Y-91041D01*
X449457Y-93263D01*
X449457Y-101041D01*
G54D10*
X449457Y-97707D02*
X448123Y-95485D01*
X445457Y-95041D01*
X442790Y-95485D01*
X441457Y-97707D01*
X441990Y-99930D01*
X444123Y-101041D01*
X445457Y-101041D01*
X445990Y-101041D01*
X448123Y-99930D01*
X449457Y-97707D01*
G54D11*
X63602Y-187093D02*
X83602Y-187093D01*
X83602Y-225093D01*
X63602Y-225093D01*
G54D12*
G75*
G01X126909Y-253422D02*
G03X126909Y-253422I-2500J0D01*
G01*
G36*
G75*
G01X126909Y-253422D02*
G03X126909Y-253422I-2500J0D01*
G01*
G37*
X126909Y-253422D01*
G54D11*
X329240Y-221328D02*
X329240Y-203328D01*
X363240Y-203328D01*
X363240Y-221328D01*
X329240Y-221328D01*
G54D11*
X445856Y-181169D02*
X445856Y-199169D01*
X411856Y-199169D01*
X411856Y-181169D01*
X445856Y-181169D01*
G54D11*
X445856Y-162912D02*
X445856Y-180912D01*
X411856Y-180912D01*
X411856Y-162912D01*
X445856Y-162912D01*
G54D11*
X360231Y-114965D02*
X372959Y-127693D01*
X348917Y-151735D01*
X336189Y-139007D01*
X360231Y-114965D01*
G54D11*
X247550Y-322994D02*
X247550Y-304994D01*
X281550Y-304994D01*
X281550Y-322994D01*
X247550Y-322994D01*
G54D11*
X383358Y-298793D02*
X403358Y-298793D01*
X403358Y-247693D01*
X383358Y-247693D01*
X383358Y-298793D01*
G54D11*
X388358Y-298793D02*
X398358Y-298793D01*
X398359Y-293793D01*
X388358Y-293793D01*
X388358Y-298793D01*
G54D13*
X198224Y-48121D02*
X198224Y-64121D01*
X206624Y-64121D01*
G54D13*
X219424Y-64121D02*
X211024Y-64121D01*
X211024Y-48121D01*
X219424Y-48121D01*
G54D13*
X211024Y-56121D02*
X219424Y-56121D01*
G54D13*
X223824Y-64121D02*
X223824Y-48121D01*
X229824Y-48121D01*
X232224Y-49121D01*
X233424Y-51121D01*
X233424Y-61121D01*
X232224Y-63121D01*
X229824Y-64121D01*
X223824Y-64121D01*
G54D13*
X237824Y-61121D02*
X239024Y-63121D01*
X241424Y-64121D01*
X243824Y-64121D01*
X246224Y-63121D01*
X247424Y-61121D01*
X247424Y-59121D01*
X246224Y-57121D01*
X243824Y-56121D01*
X241424Y-56121D01*
X239024Y-55121D01*
X237824Y-53121D01*
X237824Y-51121D01*
X239024Y-49121D01*
X241424Y-48121D01*
X243824Y-48121D01*
X246224Y-49121D01*
X247424Y-51121D01*
G54D11*
X141813Y-60682D02*
X159813Y-60682D01*
X159813Y-94682D01*
X141813Y-94682D01*
X141813Y-60682D01*
G54D11*
X266166Y-53741D02*
X278894Y-66469D01*
X254853Y-90510D01*
X242125Y-77782D01*
X266166Y-53741D01*
G54D11*
X185204Y-57312D02*
X197932Y-70040D01*
X173890Y-94082D01*
X161162Y-81354D01*
X185204Y-57312D01*
G54D11*
X156406Y-317998D02*
X169134Y-330726D01*
X193175Y-306684D01*
X180448Y-293956D01*
X156406Y-317998D01*
G54D11*
X142118Y-341775D02*
X124119Y-341775D01*
X124119Y-375775D01*
X142118Y-375775D01*
X142118Y-341775D01*
G54D11*
X124259Y-341775D02*
X106260Y-341775D01*
X106260Y-375775D01*
X124259Y-375775D01*
X124259Y-341775D01*
G54D11*
X142118Y-375906D02*
X124119Y-375906D01*
X124119Y-409906D01*
X142118Y-409906D01*
X142118Y-375906D01*
G54D11*
X124259Y-375906D02*
X106260Y-375906D01*
X106260Y-409906D01*
X124259Y-409906D01*
X124259Y-375906D01*
G54D11*
X105538Y-446649D02*
X87539Y-446648D01*
X87539Y-480648D01*
X105539Y-480648D01*
X105538Y-446649D01*
G54D11*
X123924Y-446718D02*
X105924Y-446718D01*
X105924Y-480718D01*
X123924Y-480718D01*
X123924Y-446718D01*
G54D11*
X37483Y-426517D02*
X37483Y-439518D01*
X47483Y-439517D01*
G54D11*
X57483Y-426517D02*
X49483Y-426517D01*
G54D11*
X428639Y-211894D02*
X428639Y-229894D01*
X394639Y-229894D01*
X394639Y-211894D01*
X428639Y-211894D01*
G54D11*
X346922Y-297896D02*
X346922Y-315896D01*
X312922Y-315896D01*
X312922Y-297896D01*
X346922Y-297896D01*
G54D11*
X451827Y-288787D02*
X433827Y-288787D01*
X433827Y-254787D01*
X451827Y-254787D01*
X451827Y-288787D01*
G54D11*
X432063Y-216396D02*
X452063Y-216396D01*
X452063Y-254396D01*
X432063Y-254396D01*
X432063Y-216396D01*
G54D11*
X408389Y-300356D02*
X408389Y-320356D01*
X370389Y-320356D01*
X370389Y-300356D01*
X408389Y-300356D01*
G54D11*
X452270Y-237893D02*
X472270Y-237893D01*
X472270Y-275893D01*
X452270Y-275893D01*
X452270Y-237893D01*
G54D11*
X346922Y-316152D02*
X346922Y-334152D01*
X312922Y-334152D01*
X312922Y-316152D01*
X346922Y-316152D01*
G54D11*
X464380Y-163181D02*
X446380Y-163181D01*
X446380Y-197181D01*
X464380Y-197181D01*
X464380Y-163181D01*
G54D11*
X276277Y-451724D02*
X276277Y-469724D01*
X242277Y-469724D01*
X242277Y-451724D01*
X276277Y-451724D01*
G54D11*
X312366Y-18385D02*
X330366Y-18385D01*
X330366Y-52385D01*
X312366Y-52385D01*
X312366Y-18385D01*
G54D11*
X105815Y-341796D02*
X87815Y-341796D01*
X87815Y-375796D01*
X105815Y-375796D01*
X105815Y-341796D01*
G54D11*
X105812Y-376098D02*
X87812Y-376097D01*
X87812Y-410097D01*
X105812Y-410098D01*
X105812Y-376098D01*
G54D11*
X105768Y-446194D02*
X105769Y-428195D01*
X71769Y-428195D01*
X71768Y-446195D01*
X105768Y-446194D01*
G54D11*
X123925Y-428338D02*
X123925Y-410338D01*
X89925Y-410338D01*
X89925Y-428338D01*
X123925Y-428338D01*
G54D11*
X124904Y-285378D02*
X112176Y-272650D01*
X88134Y-296692D01*
X100862Y-309420D01*
X124904Y-285378D01*
G54D11*
X69746Y-427607D02*
X87746Y-427608D01*
X87746Y-393608D01*
X69746Y-393607D01*
X69746Y-427607D01*
G54D11*
X69489Y-426523D02*
X69489Y-439523D01*
X59489Y-439523D01*
G54D11*
X21978Y-190161D02*
X21978Y-172161D01*
X55978Y-172161D01*
X55978Y-190161D01*
X21978Y-190161D01*
G54D11*
X714993Y-880600D02*
X714993Y-860600D01*
X663892Y-860600D01*
X663892Y-880600D01*
X714993Y-880600D01*
G54D11*
X714993Y-875600D02*
X714993Y-865600D01*
X709993Y-865600D01*
X709993Y-875600D01*
X714993Y-875600D01*
G54D11*
X264993Y-880600D02*
X264993Y-860600D01*
X213892Y-860600D01*
X213892Y-880600D01*
X264993Y-880600D01*
G54D11*
X264993Y-875600D02*
X264993Y-865600D01*
X259993Y-865600D01*
X259993Y-875600D01*
X264993Y-875600D01*
G54D11*
X414993Y-880600D02*
X414993Y-860600D01*
X363893Y-860600D01*
X363892Y-880600D01*
X414993Y-880600D01*
G54D11*
X414993Y-875600D02*
X414993Y-865600D01*
X409993Y-865600D01*
X409993Y-875600D01*
X414993Y-875600D01*
G54D11*
X864992Y-880600D02*
X864992Y-860600D01*
X813892Y-860600D01*
X813892Y-880600D01*
X864992Y-880600D01*
G54D11*
X864992Y-875600D02*
X864992Y-865600D01*
X859992Y-865600D01*
X859992Y-875600D01*
X864992Y-875600D01*
G54D11*
X564993Y-880600D02*
X564992Y-860600D01*
X513892Y-860600D01*
X513892Y-880600D01*
X564993Y-880600D01*
G54D11*
X564992Y-875600D02*
X564992Y-865600D01*
X559992Y-865600D01*
X559993Y-875600D01*
X564992Y-875600D01*
G54D11*
X114993Y-880600D02*
X114992Y-860600D01*
X63892Y-860600D01*
X63892Y-880600D01*
X114993Y-880600D01*
G54D11*
X114992Y-875600D02*
X114992Y-865600D01*
X109992Y-865600D01*
X109993Y-875600D01*
X114992Y-875600D01*
G54D11*
X714993Y-700600D02*
X714992Y-680600D01*
X663892Y-680600D01*
X663892Y-700600D01*
X714993Y-700600D01*
G54D11*
X714992Y-695600D02*
X714992Y-685600D01*
X709992Y-685600D01*
X709993Y-695600D01*
X714992Y-695600D01*
G54D11*
X714993Y-520600D02*
X714992Y-500600D01*
X663892Y-500600D01*
X663892Y-520600D01*
X714993Y-520600D01*
G54D11*
X714992Y-515600D02*
X714992Y-505600D01*
X709992Y-505600D01*
X709993Y-515600D01*
X714992Y-515600D01*
G54D11*
X864993Y-520600D02*
X864993Y-500600D01*
X813893Y-500600D01*
X813892Y-520600D01*
X864993Y-520600D01*
G54D11*
X864993Y-515600D02*
X864993Y-505600D01*
X859993Y-505600D01*
X859993Y-515600D01*
X864993Y-515600D01*
G54D11*
X864993Y-340600D02*
X864993Y-320600D01*
X813892Y-320600D01*
X813892Y-340600D01*
X864993Y-340600D01*
G54D11*
X864993Y-335600D02*
X864993Y-325600D01*
X859993Y-325600D01*
X859993Y-335600D01*
X864993Y-335600D01*
G54D11*
X714993Y-340600D02*
X714993Y-320600D01*
X663893Y-320600D01*
X663892Y-340600D01*
X714993Y-340600D01*
G54D11*
X714993Y-335600D02*
X714993Y-325600D01*
X709993Y-325600D01*
X709993Y-335600D01*
X714993Y-335600D01*
G54D11*
X542202Y-649024D02*
X542202Y-669024D01*
X593302Y-669024D01*
X593302Y-649024D01*
X542202Y-649024D01*
G54D11*
X542202Y-654024D02*
X542202Y-664024D01*
X547202Y-664024D01*
X547202Y-654024D01*
X542202Y-654024D01*
G54D11*
X534299Y-726790D02*
X534299Y-708790D01*
X568299Y-708790D01*
X568299Y-726790D01*
X534299Y-726790D01*
G54D11*
X864993Y-160600D02*
X864993Y-140600D01*
X813892Y-140600D01*
X813892Y-160600D01*
X864993Y-160600D01*
G54D11*
X864993Y-155600D02*
X864993Y-145600D01*
X859993Y-145600D01*
X859993Y-155600D01*
X864993Y-155600D01*
G54D11*
X714992Y-160600D02*
X714992Y-140600D01*
X663892Y-140600D01*
X663892Y-160600D01*
X714992Y-160600D01*
G54D11*
X714992Y-155600D02*
X714992Y-145600D01*
X709992Y-145600D01*
X709992Y-155600D01*
X714992Y-155600D01*
G54D11*
X364957Y-333420D02*
X346957Y-333420D01*
X346957Y-299420D01*
X364957Y-299420D01*
X364957Y-333420D01*
G54D11*
X392626Y-237332D02*
X374626Y-237332D01*
X374626Y-203332D01*
X392626Y-203332D01*
X392626Y-237332D01*
G54D11*
X336050Y-18703D02*
X356050Y-18703D01*
X356050Y-56703D01*
X336050Y-56703D01*
X336050Y-18703D01*
G54D11*
X356687Y-18703D02*
X376687Y-18703D01*
X376687Y-56703D01*
X356687Y-56703D01*
X356687Y-18703D01*
G54D13*
X207715Y-456698D02*
X207715Y-494198D01*
X227715Y-494198D01*
X227715Y-456698D01*
X207715Y-456698D01*
G54D13*
X212715Y-453523D02*
X212715Y-443523D01*
G54D13*
X222715Y-453523D02*
X222715Y-443523D01*
G54D13*
X140494Y-456803D02*
X178197Y-456803D01*
X178197Y-494109D01*
X140494Y-494109D01*
X140494Y-456803D01*
G54D11*
X56472Y-271437D02*
X76472Y-271437D01*
X76472Y-309437D01*
X56472Y-309437D01*
X56472Y-271437D01*
G54D14*
G75*
G01X415940Y-303609D02*
G03X415940Y-303609I-2000J0D01*
G01*
G36*
G75*
G01X415940Y-303609D02*
G03X415940Y-303609I-2000J0D01*
G01*
G37*
X415940Y-303609D01*
G54D11*
X600639Y-662504D02*
X620639Y-662504D01*
X620639Y-700504D01*
X600639Y-700504D01*
X600639Y-662504D01*
G54D11*
X542202Y-441378D02*
X542202Y-461378D01*
X593302Y-461378D01*
X593302Y-441378D01*
X542202Y-441378D01*
G54D11*
X542202Y-446378D02*
X542202Y-456378D01*
X547202Y-456378D01*
X547202Y-446378D01*
X542202Y-446378D01*
G54D11*
X534299Y-519145D02*
X534299Y-501145D01*
X568299Y-501145D01*
X568299Y-519145D01*
X534299Y-519145D01*
G54D11*
X600639Y-454859D02*
X620639Y-454859D01*
X620639Y-492859D01*
X600639Y-492859D01*
X600639Y-454859D01*
G54D11*
X542202Y-233734D02*
X542202Y-253734D01*
X593302Y-253734D01*
X593302Y-233734D01*
X542202Y-233734D01*
G54D11*
X542202Y-238734D02*
X542202Y-248734D01*
X547202Y-248734D01*
X547202Y-238734D01*
X542202Y-238734D01*
G54D11*
X534299Y-311500D02*
X534299Y-293500D01*
X568299Y-293500D01*
X568299Y-311500D01*
X534299Y-311500D01*
G54D11*
X600639Y-247214D02*
X620639Y-247214D01*
X620639Y-285214D01*
X600639Y-285214D01*
X600639Y-247214D01*
M02*
