; Drill file
; Format: 2.4 (00.0000)
M48
INCH
T01C0.0157
T02C0.0197
T03C0.0236
T04C0.0276
T05C0.0413
T06C0.063
T07C0.0984
%
G05
G90
T01
X005440Y-009310
X006190Y-009310
X007190Y-009310
X008190Y-009310
X009190Y-009310
X009190Y-008310
X008190Y-008310
X007190Y-008310
X006190Y-008310
X005440Y-008310
X008190Y-007310
X009190Y-007310
X009190Y-006310
X009190Y-005310
X008190Y-005310
X007190Y-005310
X006190Y-005310
X008190Y-006310
X010190Y-006310
X010190Y-007310
X010190Y-008310
X010190Y-009310
X010190Y-005310
T02
X004310Y-035990
X006810Y-032520
X007720Y-032520
X004870Y-031390
X001810Y-032520
X001350Y-031310
X001350Y-026230
X004870Y-026310
X005260Y-020090
X006570Y-018240
X007840Y-019170
X010540Y-017360
X009870Y-016560
X007990Y-015390
X008890Y-014530
X008780Y-014050
X009190Y-013760
X008520Y-013490
X009980Y-013290
X010570Y-013480
X011670Y-014430
X013460Y-013790
X013390Y-015440
X014080Y-015750
X014580Y-016130
X015370Y-016900
X015120Y-014900
X015510Y-013780
X015690Y-012990
X015430Y-010620
X014840Y-009560
X014100Y-009280
X013470Y-009000
X011710Y-010480
X013870Y-006440
X014220Y-005880
X014720Y-005890
X014920Y-006280
X014970Y-006800
X013200Y-005390
X013200Y-004920
X011960Y-003590
X016260Y-002180
X019230Y-007350
X021810Y-009590
X023020Y-009570
X024100Y-009490
X025440Y-011260
X027940Y-014730
X030440Y-011260
X031340Y-011260
X033840Y-014730
X036340Y-011260
X033840Y-007650
X031340Y-004170
X030440Y-004170
X027940Y-007650
X025440Y-004170
X019590Y-012180
X019960Y-013390
X019050Y-013520
X018340Y-013310
X018320Y-014700
X018100Y-011790
X017590Y-017740
X017390Y-019070
X017670Y-020920
X018450Y-020920
X020010Y-022630
X021810Y-025940
X023020Y-025920
X024100Y-025840
X025440Y-025430
X027940Y-028910
X030440Y-025430
X027940Y-021820
X030440Y-018350
X031340Y-018350
X033840Y-021820
X036340Y-018350
X025440Y-018350
X024100Y-017670
X023020Y-017750
X021810Y-017760
X019900Y-018120
X014500Y-019150
X013560Y-020710
X010810Y-021320
X012900Y-026350
X016920Y-026380
X020010Y-027710
X019530Y-032520
X018630Y-032520
X016920Y-031460
X013630Y-032520
X012720Y-032520
X012900Y-031430
X010220Y-035990
X016130Y-035990
X022030Y-035990
X024530Y-032520
X025440Y-032520
X027940Y-035990
X030440Y-032520
X031340Y-032520
X033840Y-035990
X036340Y-032520
X036340Y-004170
X004920Y-003980
X003210Y-002060
X001820Y-006120
X004130Y-006440
X004130Y-006870
X005100Y-010840
X002780Y-012650
X001730Y-014600
X003140Y-017990
X002480Y-019040
X004700Y-017170
T03
X000850Y-030770
X001860Y-030770
X002860Y-030770
X003870Y-030770
X004870Y-030770
X005870Y-030770
X006880Y-030770
X007880Y-030770
X008890Y-030770
X009890Y-030770
X010890Y-030770
X011900Y-030770
X012900Y-030770
X013910Y-030770
X014910Y-030770
X015910Y-030770
X016920Y-030770
X017920Y-030770
X018920Y-030770
X019930Y-030770
X019430Y-029890
X018920Y-029100
X018420Y-028320
X017920Y-029100
X017420Y-028320
X016920Y-029100
X017420Y-029890
X018420Y-029890
X019930Y-029100
X019430Y-028320
X019930Y-025690
X018920Y-025690
X017920Y-025690
X016920Y-025690
X015910Y-025690
X014910Y-025690
X013910Y-025690
X012900Y-025690
X011900Y-025690
X010890Y-025690
X009890Y-025690
X008890Y-025690
X007880Y-025690
X006880Y-025690
X005870Y-025690
X004870Y-025690
X003870Y-025690
X002860Y-025690
X001860Y-025690
X000850Y-025690
X001360Y-024810
X001860Y-024020
X002360Y-024810
X002860Y-024020
X003360Y-023240
X003870Y-024020
X003360Y-024810
X004870Y-024020
X005370Y-024810
X005870Y-024020
X006380Y-024810
X006880Y-024020
X007380Y-024810
X007880Y-024020
X007380Y-023240
X006380Y-023240
X005370Y-023240
X005640Y-021040
X006390Y-021040
X007140Y-021040
X009390Y-023240
X008890Y-024020
X009390Y-024810
X009890Y-024020
X010390Y-024810
X010890Y-024020
X011400Y-024810
X011900Y-024020
X011400Y-023240
X010390Y-023240
X012900Y-024020
X013400Y-024810
X013910Y-024020
X014410Y-024810
X014910Y-024020
X015410Y-024810
X015910Y-024020
X015410Y-023240
X014410Y-023240
X013400Y-023240
X016920Y-024020
X017420Y-024810
X017920Y-024020
X017420Y-023240
X018420Y-023240
X018920Y-024020
X018420Y-024810
X019430Y-024810
X019930Y-024020
X019430Y-023240
X015410Y-028320
X014910Y-029100
X014410Y-028320
X013910Y-029100
X013400Y-028320
X012900Y-029100
X013400Y-029890
X014410Y-029890
X015410Y-029890
X015910Y-029100
X011900Y-029100
X011400Y-028320
X010890Y-029100
X010390Y-028320
X009890Y-029100
X009390Y-028320
X008890Y-029100
X009390Y-029890
X010390Y-029890
X011400Y-029890
X007880Y-029100
X007380Y-028320
X006880Y-029100
X006380Y-028320
X005870Y-029100
X005370Y-028320
X004870Y-029100
X005370Y-029890
X006380Y-029890
X007380Y-029890
X003870Y-029100
X003360Y-028320
X002860Y-029100
X002360Y-028320
X001860Y-029100
X002360Y-029890
X003360Y-029890
X001360Y-029890
X000850Y-029100
X001360Y-028320
X000850Y-024020
X001360Y-023240
X002360Y-023240
X005640Y-016590
X007140Y-016590
X007950Y-016590
X008700Y-016590
X018140Y-008630
T04
X019240Y-010500
X019240Y-008930
T05
X009780Y-020840
X019810Y-020870
T06
X016880Y-018130
T07
X017960Y-004740
M30
