%FSLAX34Y34*%
%MOMM*%
%LNSOLDERMASK_BOTTOM*%
G71*
G01*
%ADD10C, 1.700*%
%ADD11C, 1.900*%
%ADD12R, 1.190X0.800*%
%ADD13R, 3.700X1.900*%
%ADD14R, 1.800X1.800*%
%ADD15R, 1.600X1.500*%
%ADD16C, 1.300*%
%ADD17R, 1.800X0.870*%
%ADD18R, 1.400X1.300*%
%ADD19R, 1.300X1.400*%
%ADD20C, 1.600*%
%ADD21R, 1.550X0.600*%
%ADD22R, 2.100X2.500*%
%ADD23C, 0.700*%
%ADD24R, 2.600X1.000*%
%ADD25R, 0.500X1.200*%
%ADD26R, 1.500X1.700*%
%ADD27R, 3.500X1.000*%
%ADD28R, 2.500X1.000*%
%ADD29C, 0.950*%
%ADD30R, 0.800X1.190*%
%ADD31R, 1.700X3.200*%
%ADD32R, 2.200X3.200*%
%ADD33R, 1.000X1.600*%
%ADD34C, 0.500*%
%LPD*%
X21692Y-652498D02*
G54D10*
D03*
X123692Y-652498D02*
G54D10*
D03*
X225692Y-652498D02*
G54D10*
D03*
X327692Y-652498D02*
G54D10*
D03*
X429692Y-652498D02*
G54D10*
D03*
X506192Y-652498D02*
G54D10*
D03*
X21693Y-610222D02*
G54D10*
D03*
X47192Y-610223D02*
G54D10*
D03*
X72693Y-610222D02*
G54D11*
D03*
X98192Y-610223D02*
G54D10*
D03*
X123692Y-610223D02*
G54D10*
D03*
X149192Y-610223D02*
G54D10*
D03*
X174692Y-610223D02*
G54D10*
D03*
X200192Y-610223D02*
G54D10*
D03*
X225692Y-610223D02*
G54D10*
D03*
X251192Y-610223D02*
G54D10*
D03*
X276692Y-610223D02*
G54D10*
D03*
X302192Y-610223D02*
G54D10*
D03*
X327692Y-610223D02*
G54D10*
D03*
X353192Y-610223D02*
G54D10*
D03*
X378692Y-610223D02*
G54D10*
D03*
X404192Y-610223D02*
G54D10*
D03*
X429692Y-610223D02*
G54D10*
D03*
X455192Y-610223D02*
G54D10*
D03*
X480692Y-610223D02*
G54D10*
D03*
X506192Y-610223D02*
G54D10*
D03*
X34443Y-590222D02*
G54D10*
D03*
X59943Y-590222D02*
G54D10*
D03*
X85442Y-590223D02*
G54D10*
D03*
X136442Y-590223D02*
G54D10*
D03*
X161942Y-590223D02*
G54D10*
D03*
X187442Y-590223D02*
G54D10*
D03*
X238442Y-590223D02*
G54D10*
D03*
X263942Y-590223D02*
G54D10*
D03*
X289442Y-590223D02*
G54D10*
D03*
X340442Y-590223D02*
G54D10*
D03*
X365942Y-590223D02*
G54D10*
D03*
X391442Y-590223D02*
G54D10*
D03*
X442442Y-590223D02*
G54D10*
D03*
X467942Y-590223D02*
G54D10*
D03*
X493442Y-590223D02*
G54D10*
D03*
X354034Y-308947D02*
G54D12*
D03*
X354036Y-299542D02*
G54D12*
D03*
X354034Y-289947D02*
G54D12*
D03*
X379934Y-289947D02*
G54D12*
D03*
X379934Y-308947D02*
G54D12*
D03*
X408105Y-311416D02*
G54D13*
D03*
X408105Y-288416D02*
G54D13*
D03*
X379174Y-333744D02*
G54D14*
D03*
X351173Y-333745D02*
G54D14*
D03*
X328260Y-335252D02*
G54D15*
D03*
X328262Y-316248D02*
G54D15*
D03*
X223012Y-356830D02*
G54D16*
D03*
X233304Y-349462D02*
G54D16*
D03*
X225802Y-368948D02*
G54D16*
D03*
G36*
X489237Y-544200D02*
X489237Y-516200D01*
X517237Y-516200D01*
X517237Y-544200D01*
X489237Y-544200D01*
G37*
G36*
X263402Y-514249D02*
X263402Y-544249D01*
X233402Y-544249D01*
X233402Y-514249D01*
X263402Y-514249D01*
G37*
X307490Y-455905D02*
G54D17*
D03*
X307490Y-468605D02*
G54D17*
D03*
X307490Y-481305D02*
G54D17*
D03*
X307490Y-494005D02*
G54D17*
D03*
X250490Y-494005D02*
G54D17*
D03*
X250490Y-481305D02*
G54D17*
D03*
X250490Y-468605D02*
G54D17*
D03*
X250490Y-455905D02*
G54D17*
D03*
X327958Y-479320D02*
G54D18*
D03*
X327958Y-496320D02*
G54D18*
D03*
X327958Y-455177D02*
G54D18*
D03*
X327958Y-472177D02*
G54D18*
D03*
X357077Y-456627D02*
G54D19*
D03*
X374077Y-456627D02*
G54D19*
D03*
X143284Y-421491D02*
G54D20*
D03*
X202022Y-421491D02*
G54D20*
D03*
X221072Y-421491D02*
G54D20*
D03*
G36*
X103817Y-368952D02*
X110888Y-361882D01*
X129272Y-380268D01*
X122200Y-387338D01*
X103817Y-368952D01*
G37*
G36*
X112797Y-359972D02*
X119868Y-352901D01*
X138252Y-371287D01*
X131180Y-378358D01*
X112797Y-359972D01*
G37*
G36*
X121777Y-350991D02*
X128849Y-343921D01*
X147232Y-362308D01*
X140160Y-369378D01*
X121777Y-350991D01*
G37*
G36*
X130756Y-342013D02*
X137827Y-334942D01*
X156213Y-353325D01*
X149142Y-360397D01*
X130756Y-342013D01*
G37*
G36*
X166112Y-377368D02*
X173183Y-370297D01*
X191568Y-388681D01*
X184497Y-395752D01*
X166112Y-377368D01*
G37*
G36*
X157132Y-386349D02*
X164202Y-379277D01*
X182588Y-397661D01*
X175517Y-404732D01*
X157132Y-386349D01*
G37*
G36*
X148152Y-395329D02*
X155222Y-388258D01*
X173608Y-406641D01*
X166537Y-413713D01*
X148152Y-395329D01*
G37*
G36*
X139172Y-404308D02*
X146243Y-397237D01*
X164627Y-415623D01*
X157556Y-422694D01*
X139172Y-404308D01*
G37*
X213840Y-513547D02*
G54D19*
D03*
X196838Y-513544D02*
G54D19*
D03*
X483173Y-233740D02*
G54D21*
D03*
X483173Y-240240D02*
G54D21*
D03*
X483173Y-246740D02*
G54D21*
D03*
X483173Y-253240D02*
G54D21*
D03*
X483173Y-259740D02*
G54D21*
D03*
X509923Y-284240D02*
G54D22*
D03*
X509923Y-209240D02*
G54D22*
D03*
X466096Y-280756D02*
G54D18*
D03*
X466096Y-263756D02*
G54D18*
D03*
X448237Y-280756D02*
G54D18*
D03*
X448237Y-263756D02*
G54D18*
D03*
G54D23*
X119815Y-174621D02*
X104842Y-174621D01*
G54D23*
X119818Y-163512D02*
X104846Y-163512D01*
X162337Y-513541D02*
G54D19*
D03*
X179339Y-513544D02*
G54D19*
D03*
X247405Y-283440D02*
G54D24*
D03*
X247405Y-296140D02*
G54D24*
D03*
X247405Y-308840D02*
G54D24*
D03*
X247405Y-321540D02*
G54D24*
D03*
X197405Y-321540D02*
G54D24*
D03*
X197405Y-308840D02*
G54D24*
D03*
X197405Y-296140D02*
G54D24*
D03*
X197406Y-283440D02*
G54D24*
D03*
X201763Y-449418D02*
G54D18*
D03*
X201766Y-432416D02*
G54D18*
D03*
X220813Y-449418D02*
G54D18*
D03*
X220816Y-432416D02*
G54D18*
D03*
G36*
X421331Y-350704D02*
X434331Y-350703D01*
X434331Y-364703D01*
X421331Y-364704D01*
X421331Y-350704D01*
G37*
X444831Y-357703D02*
G54D19*
D03*
X203222Y-61378D02*
G54D25*
D03*
X208222Y-61378D02*
G54D25*
D03*
X213222Y-61378D02*
G54D25*
D03*
X218222Y-61378D02*
G54D25*
D03*
X223222Y-61378D02*
G54D25*
D03*
X228222Y-61378D02*
G54D25*
D03*
X233222Y-61378D02*
G54D25*
D03*
X238222Y-61378D02*
G54D25*
D03*
X448908Y-536166D02*
G54D26*
D03*
X468748Y-536167D02*
G54D26*
D03*
X252168Y-283440D02*
G54D27*
D03*
X197406Y-283440D02*
G54D28*
D03*
X252168Y-296140D02*
G54D27*
D03*
X252168Y-308840D02*
G54D27*
D03*
X252168Y-321540D02*
G54D27*
D03*
X192642Y-321540D02*
G54D27*
D03*
X192643Y-308840D02*
G54D27*
D03*
X192643Y-296140D02*
G54D27*
D03*
X192643Y-283440D02*
G54D27*
D03*
X21692Y-781498D02*
G54D10*
D03*
X123692Y-781498D02*
G54D10*
D03*
X225692Y-781498D02*
G54D10*
D03*
X327692Y-781498D02*
G54D10*
D03*
X429692Y-781498D02*
G54D10*
D03*
X506192Y-781498D02*
G54D10*
D03*
X21693Y-739222D02*
G54D10*
D03*
X47192Y-739223D02*
G54D10*
D03*
X72693Y-739222D02*
G54D11*
D03*
X98192Y-739223D02*
G54D10*
D03*
X123692Y-739223D02*
G54D10*
D03*
X149192Y-739223D02*
G54D10*
D03*
X174692Y-739223D02*
G54D10*
D03*
X200192Y-739223D02*
G54D10*
D03*
X225692Y-739223D02*
G54D10*
D03*
X251192Y-739223D02*
G54D10*
D03*
X276692Y-739223D02*
G54D10*
D03*
X302192Y-739223D02*
G54D10*
D03*
X327692Y-739223D02*
G54D10*
D03*
X353192Y-739223D02*
G54D10*
D03*
X378692Y-739223D02*
G54D10*
D03*
X404192Y-739223D02*
G54D10*
D03*
X429692Y-739223D02*
G54D10*
D03*
X455192Y-739223D02*
G54D10*
D03*
X480692Y-739223D02*
G54D10*
D03*
X506192Y-739223D02*
G54D10*
D03*
X34443Y-719222D02*
G54D10*
D03*
X59943Y-719222D02*
G54D10*
D03*
X85442Y-719223D02*
G54D10*
D03*
X136442Y-719223D02*
G54D10*
D03*
X161942Y-719223D02*
G54D10*
D03*
X187442Y-719223D02*
G54D10*
D03*
X238442Y-719223D02*
G54D10*
D03*
X263942Y-719223D02*
G54D10*
D03*
X289442Y-719223D02*
G54D10*
D03*
X340442Y-719223D02*
G54D10*
D03*
X365942Y-719223D02*
G54D10*
D03*
X391442Y-719223D02*
G54D10*
D03*
X442442Y-719223D02*
G54D10*
D03*
X467942Y-719223D02*
G54D10*
D03*
X493442Y-719223D02*
G54D10*
D03*
G54D29*
X160480Y-939601D02*
X160480Y-975001D01*
G54D29*
X147680Y-939601D02*
X147680Y-975001D01*
G54D29*
X134980Y-939601D02*
X134980Y-975001D01*
G54D29*
X122380Y-939601D02*
X122380Y-975001D01*
G54D29*
X96880Y-939601D02*
X96880Y-975001D01*
G54D29*
X173080Y-939601D02*
X173080Y-975001D01*
G54D29*
X84180Y-939601D02*
X84180Y-975001D01*
G54D29*
X71580Y-939601D02*
X71580Y-975001D01*
G54D29*
X58780Y-939601D02*
X58780Y-975001D01*
G54D29*
X46080Y-939601D02*
X46080Y-975001D01*
G54D29*
X310480Y-939601D02*
X310480Y-975001D01*
G54D29*
X297680Y-939601D02*
X297680Y-975001D01*
G54D29*
X284980Y-939601D02*
X284980Y-975001D01*
G54D29*
X272380Y-939601D02*
X272380Y-975001D01*
G54D29*
X246880Y-939601D02*
X246880Y-975001D01*
G54D29*
X323080Y-939601D02*
X323080Y-975001D01*
G54D29*
X234180Y-939601D02*
X234180Y-975001D01*
G54D29*
X221580Y-939601D02*
X221580Y-975001D01*
G54D29*
X208780Y-939601D02*
X208780Y-975001D01*
G54D29*
X196080Y-939601D02*
X196080Y-975001D01*
G54D29*
X460480Y-939601D02*
X460480Y-975001D01*
G54D29*
X447680Y-939601D02*
X447680Y-975001D01*
G54D29*
X434980Y-939601D02*
X434980Y-975001D01*
G54D29*
X422380Y-939601D02*
X422380Y-975001D01*
G54D29*
X396880Y-939601D02*
X396880Y-975001D01*
G54D29*
X473080Y-939601D02*
X473080Y-975001D01*
G54D29*
X384180Y-939601D02*
X384180Y-975001D01*
G54D29*
X371580Y-939601D02*
X371580Y-975001D01*
G54D29*
X358780Y-939601D02*
X358780Y-975001D01*
G54D29*
X346080Y-939601D02*
X346080Y-975001D01*
G54D29*
X610480Y-939601D02*
X610480Y-975001D01*
G54D29*
X597680Y-939601D02*
X597680Y-975001D01*
G54D29*
X584980Y-939601D02*
X584980Y-975001D01*
G54D29*
X572380Y-939601D02*
X572380Y-975001D01*
G54D29*
X546880Y-939601D02*
X546880Y-975001D01*
G54D29*
X623080Y-939601D02*
X623080Y-975001D01*
G54D29*
X534180Y-939601D02*
X534180Y-975001D01*
G54D29*
X521580Y-939601D02*
X521580Y-975001D01*
G54D29*
X508780Y-939601D02*
X508780Y-975001D01*
G54D29*
X496080Y-939601D02*
X496080Y-975001D01*
G54D29*
X760480Y-939601D02*
X760480Y-975001D01*
G54D29*
X747680Y-939601D02*
X747680Y-975001D01*
G54D29*
X734980Y-939601D02*
X734980Y-975001D01*
G54D29*
X722380Y-939601D02*
X722380Y-975001D01*
G54D29*
X696880Y-939601D02*
X696880Y-975001D01*
G54D29*
X773080Y-939601D02*
X773080Y-975001D01*
G54D29*
X684180Y-939601D02*
X684180Y-975001D01*
G54D29*
X671580Y-939601D02*
X671580Y-975001D01*
G54D29*
X658780Y-939601D02*
X658780Y-975001D01*
G54D29*
X646080Y-939601D02*
X646080Y-975001D01*
G54D29*
X910480Y-939601D02*
X910480Y-975001D01*
G54D29*
X897680Y-939601D02*
X897680Y-975001D01*
G54D29*
X884980Y-939601D02*
X884980Y-975001D01*
G54D29*
X872380Y-939601D02*
X872380Y-975001D01*
G54D29*
X846880Y-939601D02*
X846880Y-975001D01*
G54D29*
X923080Y-939601D02*
X923080Y-975001D01*
G54D29*
X834180Y-939601D02*
X834180Y-975001D01*
G54D29*
X821580Y-939601D02*
X821580Y-975001D01*
G54D29*
X808780Y-939601D02*
X808780Y-975001D01*
G54D29*
X796080Y-939601D02*
X796080Y-975001D01*
G54D29*
X760480Y-759600D02*
X760480Y-795000D01*
G54D29*
X747680Y-759600D02*
X747680Y-795000D01*
G54D29*
X734980Y-759600D02*
X734980Y-795000D01*
G54D29*
X722380Y-759600D02*
X722380Y-795000D01*
G54D29*
X696880Y-759600D02*
X696880Y-795000D01*
G54D29*
X773080Y-759600D02*
X773080Y-795000D01*
G54D29*
X684180Y-759600D02*
X684180Y-795000D01*
G54D29*
X671580Y-759600D02*
X671580Y-795000D01*
G54D29*
X658780Y-759600D02*
X658780Y-795000D01*
G54D29*
X646080Y-759600D02*
X646080Y-795000D01*
G54D29*
X910480Y-579601D02*
X910480Y-615001D01*
G54D29*
X897680Y-579601D02*
X897680Y-615001D01*
G54D29*
X884980Y-579601D02*
X884980Y-615001D01*
G54D29*
X872380Y-579601D02*
X872380Y-615001D01*
G54D29*
X846880Y-579601D02*
X846880Y-615001D01*
G54D29*
X923080Y-579601D02*
X923080Y-615001D01*
G54D29*
X834180Y-579601D02*
X834180Y-615001D01*
G54D29*
X821580Y-579601D02*
X821580Y-615001D01*
G54D29*
X808780Y-579601D02*
X808780Y-615001D01*
G54D29*
X796080Y-579601D02*
X796080Y-615001D01*
G54D29*
X760480Y-579601D02*
X760480Y-615001D01*
G54D29*
X747680Y-579601D02*
X747680Y-615001D01*
G54D29*
X734980Y-579601D02*
X734980Y-615001D01*
G54D29*
X722380Y-579601D02*
X722380Y-615001D01*
G54D29*
X696880Y-579601D02*
X696880Y-615001D01*
G54D29*
X773080Y-579601D02*
X773080Y-615001D01*
G54D29*
X684180Y-579601D02*
X684180Y-615001D01*
G54D29*
X671580Y-579601D02*
X671580Y-615001D01*
G54D29*
X658780Y-579601D02*
X658780Y-615001D01*
G54D29*
X646080Y-579601D02*
X646080Y-615001D01*
G54D29*
X910480Y-399601D02*
X910480Y-435001D01*
G54D29*
X897680Y-399601D02*
X897680Y-435001D01*
G54D29*
X884980Y-399601D02*
X884980Y-435001D01*
G54D29*
X872380Y-399601D02*
X872380Y-435001D01*
G54D29*
X846880Y-399601D02*
X846880Y-435001D01*
G54D29*
X923080Y-399601D02*
X923080Y-435001D01*
G54D29*
X834180Y-399601D02*
X834180Y-435001D01*
G54D29*
X821580Y-399601D02*
X821580Y-435001D01*
G54D29*
X808780Y-399601D02*
X808780Y-435001D01*
G54D29*
X796080Y-399601D02*
X796080Y-435001D01*
G54D29*
X760480Y-399601D02*
X760480Y-435001D01*
G54D29*
X747680Y-399601D02*
X747680Y-435001D01*
G54D29*
X734980Y-399601D02*
X734980Y-435001D01*
G54D29*
X722380Y-399601D02*
X722380Y-435001D01*
G54D29*
X696880Y-399601D02*
X696880Y-435001D01*
G54D29*
X773080Y-399601D02*
X773080Y-435001D01*
G54D29*
X684180Y-399601D02*
X684180Y-435001D01*
G54D29*
X671580Y-399601D02*
X671580Y-435001D01*
G54D29*
X658780Y-399601D02*
X658780Y-435001D01*
G54D29*
X646080Y-399601D02*
X646080Y-435001D01*
G54D29*
X600983Y-753425D02*
X600982Y-795175D01*
G54D29*
X588182Y-753426D02*
X588182Y-795176D01*
G54D29*
X575482Y-753426D02*
X575482Y-795176D01*
G54D29*
X562882Y-753426D02*
X562882Y-795176D01*
G54D29*
X550082Y-753426D02*
X550082Y-795175D01*
G54D29*
X537382Y-753426D02*
X537382Y-795175D01*
G54D29*
X613582Y-753425D02*
X613582Y-795176D01*
G54D29*
X910480Y-219601D02*
X910480Y-255001D01*
G54D29*
X897680Y-219601D02*
X897680Y-255001D01*
G54D29*
X884980Y-219601D02*
X884980Y-255001D01*
G54D29*
X872380Y-219601D02*
X872380Y-255001D01*
G54D29*
X846880Y-219601D02*
X846880Y-255001D01*
G54D29*
X923080Y-219601D02*
X923080Y-255001D01*
G54D29*
X834180Y-219601D02*
X834180Y-255001D01*
G54D29*
X821580Y-219601D02*
X821580Y-255001D01*
G54D29*
X808780Y-219601D02*
X808780Y-255001D01*
G54D29*
X796080Y-219601D02*
X796080Y-255001D01*
G54D29*
X760480Y-219601D02*
X760480Y-255001D01*
G54D29*
X747680Y-219601D02*
X747680Y-255001D01*
G54D29*
X734980Y-219601D02*
X734980Y-255001D01*
G54D29*
X722380Y-219601D02*
X722380Y-255001D01*
G54D29*
X696880Y-219601D02*
X696880Y-255001D01*
G54D29*
X773080Y-219601D02*
X773080Y-255001D01*
G54D29*
X684180Y-219601D02*
X684180Y-255001D01*
G54D29*
X671580Y-219601D02*
X671580Y-255001D01*
G54D29*
X658780Y-219601D02*
X658780Y-255001D01*
G54D29*
X646080Y-219601D02*
X646080Y-255001D01*
X143284Y-534328D02*
G54D20*
D03*
X162334Y-534328D02*
G54D20*
D03*
X181384Y-534328D02*
G54D20*
D03*
X181384Y-421490D02*
G54D20*
D03*
X424140Y-230661D02*
G54D30*
D03*
X414735Y-230663D02*
G54D30*
D03*
X405140Y-230661D02*
G54D30*
D03*
X405140Y-256561D02*
G54D30*
D03*
X424140Y-256561D02*
G54D30*
D03*
X414735Y-256563D02*
G54D30*
D03*
G54D29*
X600983Y-545780D02*
X600982Y-587530D01*
G54D29*
X588182Y-545780D02*
X588182Y-587530D01*
G54D29*
X575482Y-545780D02*
X575482Y-587530D01*
G54D29*
X562882Y-545780D02*
X562882Y-587530D01*
G54D29*
X550082Y-545780D02*
X550082Y-587530D01*
G54D29*
X537382Y-545780D02*
X537382Y-587530D01*
G54D29*
X613582Y-545780D02*
X613582Y-587530D01*
X468748Y-510640D02*
G54D31*
D03*
X424748Y-510640D02*
G54D32*
D03*
X490748Y-410640D02*
G54D32*
D03*
X458748Y-410640D02*
G54D31*
D03*
X424748Y-410640D02*
G54D31*
D03*
X490748Y-385240D02*
G54D18*
D03*
X490748Y-368240D02*
G54D18*
D03*
X323353Y-112719D02*
G54D33*
D03*
X427832Y-338654D02*
G54D19*
D03*
X444831Y-338653D02*
G54D19*
D03*
X407353Y-112719D02*
G54D33*
D03*
X395353Y-112719D02*
G54D33*
D03*
X383353Y-112719D02*
G54D33*
D03*
X371353Y-112719D02*
G54D33*
D03*
X359353Y-112719D02*
G54D33*
D03*
X347353Y-112719D02*
G54D33*
D03*
X335353Y-112719D02*
G54D33*
D03*
X178722Y-95806D02*
G54D33*
D03*
X262722Y-95806D02*
G54D33*
D03*
X250722Y-95806D02*
G54D33*
D03*
X238722Y-95806D02*
G54D33*
D03*
X226722Y-95806D02*
G54D33*
D03*
X214722Y-95806D02*
G54D33*
D03*
X202722Y-95806D02*
G54D33*
D03*
X190722Y-95806D02*
G54D33*
D03*
G54D34*
X130000Y-179638D02*
X130000Y-158494D01*
X140000Y-179638D02*
X140000Y-158494D01*
X150000Y-179638D02*
X150000Y-158494D01*
X160000Y-179638D02*
X160000Y-158494D01*
X170000Y-179638D02*
X170000Y-158494D01*
X180000Y-179638D02*
X180000Y-158494D01*
X190000Y-179638D02*
X190000Y-158494D01*
X129994Y-170000D02*
X197386Y-170000D01*
X129996Y-160000D02*
X197388Y-160000D01*
G54D34*
X129996Y-158494D02*
X129992Y-179638D01*
X197384Y-179638D01*
X197388Y-158494D01*
X129996Y-158494D01*
G54D29*
X600983Y-338135D02*
X600982Y-379885D01*
G54D29*
X588182Y-338136D02*
X588182Y-379886D01*
G54D29*
X575482Y-338136D02*
X575482Y-379886D01*
G54D29*
X562882Y-338136D02*
X562882Y-379886D01*
G54D29*
X550082Y-338136D02*
X550082Y-379885D01*
G54D29*
X537382Y-338136D02*
X537382Y-379885D01*
G54D29*
X613582Y-338135D02*
X613582Y-379886D01*
M02*
