%FSLAX34Y34*%
%MOMM*%
%LNSILK_TOP*%
G71*
G01*
%ADD10C, 0.318*%
%ADD11C, 0.150*%
%ADD12C, 0.100*%
%ADD13C, 0.200*%
%ADD14C, 0.000*%
%LPD*%
G54D10*
X389947Y-79437D02*
X389947Y-61659D01*
X396614Y-61659D01*
X399281Y-62770D01*
X400614Y-64993D01*
X400614Y-67215D01*
X399281Y-69437D01*
X396614Y-70548D01*
X389947Y-70548D01*
G54D10*
X417503Y-76104D02*
X416170Y-78326D01*
X413503Y-79437D01*
X410836Y-79437D01*
X408170Y-78326D01*
X406836Y-76104D01*
X406836Y-64993D01*
X408170Y-62770D01*
X410836Y-61659D01*
X413503Y-61659D01*
X416170Y-62770D01*
X417503Y-64993D01*
G54D10*
X423725Y-79437D02*
X423725Y-61659D01*
X430392Y-61659D01*
X433059Y-62770D01*
X434392Y-64993D01*
X434392Y-67215D01*
X433059Y-69437D01*
X430392Y-70548D01*
X433059Y-71659D01*
X434392Y-73882D01*
X434392Y-76104D01*
X433059Y-78326D01*
X430392Y-79437D01*
X423725Y-79437D01*
G54D10*
X423725Y-70548D02*
X430392Y-70548D01*
G54D10*
X368910Y-91041D02*
X374244Y-101041D01*
X379577Y-91041D01*
G54D10*
X385799Y-89930D02*
X392466Y-83263D01*
X392466Y-101041D01*
G54D10*
X399755Y-101041D02*
X398688Y-101041D01*
X398688Y-100152D01*
X399755Y-100152D01*
X399755Y-101041D01*
X398688Y-101041D01*
G54D10*
X405977Y-97707D02*
X407311Y-99930D01*
X409977Y-101041D01*
X412644Y-101041D01*
X415311Y-99930D01*
X416644Y-97707D01*
X416644Y-92152D01*
X416644Y-91041D01*
X412644Y-93263D01*
X409977Y-93263D01*
X407311Y-92152D01*
X405977Y-89930D01*
X405977Y-86596D01*
X407311Y-84374D01*
X409977Y-83263D01*
X412644Y-83263D01*
X415311Y-84374D01*
X416644Y-86596D01*
X416644Y-92152D01*
G54D10*
X423933Y-101041D02*
X422866Y-101041D01*
X422866Y-100152D01*
X423933Y-100152D01*
X423933Y-101041D01*
X422866Y-101041D01*
G54D10*
X430155Y-89930D02*
X436822Y-83263D01*
X436822Y-101041D01*
G54D10*
X443044Y-92152D02*
X445711Y-91041D01*
X448911Y-91041D01*
X451044Y-93263D01*
X451044Y-101041D01*
G54D10*
X451044Y-97707D02*
X449711Y-95485D01*
X447044Y-95041D01*
X444378Y-95485D01*
X443044Y-97707D01*
X443578Y-99930D01*
X445711Y-101041D01*
X447044Y-101041D01*
X447578Y-101041D01*
X449711Y-99930D01*
X451044Y-97707D01*
G54D11*
X65190Y-187093D02*
X85190Y-187093D01*
X85190Y-225093D01*
X65190Y-225093D01*
G54D12*
G75*
G01X128496Y-253422D02*
G03X128496Y-253422I-2500J0D01*
G01*
G36*
G75*
G01X128496Y-253422D02*
G03X128496Y-253422I-2500J0D01*
G01*
G37*
X128496Y-253422D01*
G54D11*
X330828Y-221328D02*
X330828Y-203328D01*
X364828Y-203328D01*
X364828Y-221328D01*
X330828Y-221328D01*
G54D11*
X447444Y-181169D02*
X447444Y-199169D01*
X413444Y-199169D01*
X413444Y-181169D01*
X447444Y-181169D01*
G54D11*
X447444Y-162912D02*
X447444Y-180912D01*
X413444Y-180912D01*
X413444Y-162912D01*
X447444Y-162912D01*
G54D11*
X361819Y-114965D02*
X374546Y-127693D01*
X350505Y-151735D01*
X337777Y-139007D01*
X361819Y-114965D01*
G54D11*
X249138Y-322994D02*
X249138Y-304994D01*
X283138Y-304994D01*
X283138Y-322994D01*
X249138Y-322994D01*
G54D11*
X384946Y-298793D02*
X404946Y-298793D01*
X404946Y-247693D01*
X384946Y-247693D01*
X384946Y-298793D01*
G54D11*
X389946Y-298793D02*
X399946Y-298793D01*
X399946Y-293793D01*
X389946Y-293793D01*
X389946Y-298793D01*
G54D13*
X199811Y-48121D02*
X199811Y-64121D01*
X208211Y-64121D01*
G54D13*
X221011Y-64121D02*
X212611Y-64121D01*
X212611Y-48121D01*
X221011Y-48121D01*
G54D13*
X212611Y-56121D02*
X221011Y-56121D01*
G54D13*
X225411Y-64121D02*
X225411Y-48121D01*
X231411Y-48121D01*
X233811Y-49121D01*
X235011Y-51121D01*
X235011Y-61121D01*
X233811Y-63121D01*
X231411Y-64121D01*
X225411Y-64121D01*
G54D13*
X239411Y-61121D02*
X240611Y-63121D01*
X243011Y-64121D01*
X245411Y-64121D01*
X247811Y-63121D01*
X249011Y-61121D01*
X249011Y-59121D01*
X247811Y-57121D01*
X245411Y-56121D01*
X243011Y-56121D01*
X240611Y-55121D01*
X239411Y-53121D01*
X239411Y-51121D01*
X240611Y-49121D01*
X243011Y-48121D01*
X245411Y-48121D01*
X247811Y-49121D01*
X249011Y-51121D01*
G54D11*
X143400Y-60682D02*
X161400Y-60682D01*
X161400Y-94682D01*
X143400Y-94682D01*
X143400Y-60682D01*
G54D11*
X267754Y-53741D02*
X280482Y-66469D01*
X256440Y-90510D01*
X243712Y-77782D01*
X267754Y-53741D01*
G54D11*
X186791Y-57312D02*
X199519Y-70040D01*
X175478Y-94082D01*
X162750Y-81354D01*
X186791Y-57312D01*
G54D11*
X157993Y-317998D02*
X170721Y-330726D01*
X194762Y-306684D01*
X182035Y-293956D01*
X157993Y-317998D01*
G54D11*
X143706Y-341775D02*
X125706Y-341775D01*
X125706Y-375775D01*
X143706Y-375775D01*
X143706Y-341775D01*
G54D11*
X125847Y-341775D02*
X107847Y-341775D01*
X107847Y-375775D01*
X125847Y-375775D01*
X125847Y-341775D01*
G54D11*
X143706Y-375906D02*
X125706Y-375906D01*
X125706Y-409906D01*
X143706Y-409906D01*
X143706Y-375906D01*
G54D11*
X125847Y-375906D02*
X107847Y-375906D01*
X107847Y-409906D01*
X125847Y-409906D01*
X125847Y-375906D01*
G54D11*
X107126Y-446649D02*
X89126Y-446648D01*
X89126Y-480648D01*
X107126Y-480648D01*
X107126Y-446649D01*
G54D11*
X125512Y-446718D02*
X107512Y-446718D01*
X107512Y-480718D01*
X125512Y-480718D01*
X125512Y-446718D01*
G54D11*
X39070Y-426517D02*
X39070Y-439518D01*
X49070Y-439517D01*
G54D11*
X59070Y-426517D02*
X51070Y-426517D01*
G54D11*
X430226Y-211894D02*
X430226Y-229894D01*
X396226Y-229894D01*
X396226Y-211894D01*
X430226Y-211894D01*
G54D11*
X348509Y-297896D02*
X348509Y-315896D01*
X314509Y-315896D01*
X314509Y-297896D01*
X348509Y-297896D01*
G54D11*
X453414Y-288787D02*
X435414Y-288787D01*
X435414Y-254787D01*
X453414Y-254787D01*
X453414Y-288787D01*
G54D11*
X433651Y-216396D02*
X453651Y-216396D01*
X453651Y-254396D01*
X433651Y-254396D01*
X433651Y-216396D01*
G54D11*
X409976Y-300356D02*
X409976Y-320356D01*
X371976Y-320356D01*
X371976Y-300356D01*
X409976Y-300356D01*
G54D11*
X453857Y-237893D02*
X473857Y-237893D01*
X473857Y-275893D01*
X453857Y-275893D01*
X453857Y-237893D01*
G54D11*
X348509Y-316152D02*
X348509Y-334152D01*
X314509Y-334152D01*
X314509Y-316152D01*
X348509Y-316152D01*
G54D11*
X465968Y-163181D02*
X447968Y-163181D01*
X447968Y-197181D01*
X465968Y-197181D01*
X465968Y-163181D01*
G54D11*
X277865Y-451724D02*
X277865Y-469724D01*
X243865Y-469724D01*
X243865Y-451724D01*
X277865Y-451724D01*
G54D11*
X313953Y-18385D02*
X331954Y-18385D01*
X331954Y-52385D01*
X313953Y-52385D01*
X313953Y-18385D01*
G54D11*
X107402Y-341796D02*
X89402Y-341796D01*
X89402Y-375796D01*
X107402Y-375796D01*
X107402Y-341796D01*
G54D11*
X107399Y-376098D02*
X89400Y-376097D01*
X89400Y-410097D01*
X107399Y-410098D01*
X107399Y-376098D01*
G54D11*
X107356Y-446194D02*
X107356Y-428195D01*
X73356Y-428195D01*
X73356Y-446195D01*
X107356Y-446194D01*
G54D11*
X125512Y-428338D02*
X125512Y-410338D01*
X91512Y-410338D01*
X91512Y-428338D01*
X125512Y-428338D01*
G54D11*
X126491Y-285378D02*
X113764Y-272650D01*
X89722Y-296692D01*
X102450Y-309420D01*
X126491Y-285378D01*
G54D11*
X71334Y-427607D02*
X89334Y-427608D01*
X89334Y-393608D01*
X71334Y-393607D01*
X71334Y-427607D01*
G54D11*
X71077Y-426523D02*
X71077Y-439523D01*
X61077Y-439523D01*
G54D11*
X23565Y-190161D02*
X23565Y-172161D01*
X57565Y-172161D01*
X57565Y-190161D01*
X23565Y-190161D01*
G54D11*
X716580Y-880600D02*
X716580Y-860600D01*
X665480Y-860600D01*
X665480Y-880600D01*
X716580Y-880600D01*
G54D11*
X716580Y-875600D02*
X716580Y-865600D01*
X711580Y-865600D01*
X711580Y-875600D01*
X716580Y-875600D01*
G54D11*
X266580Y-880600D02*
X266580Y-860600D01*
X215480Y-860600D01*
X215480Y-880600D01*
X266580Y-880600D01*
G54D11*
X266580Y-875600D02*
X266580Y-865600D01*
X261580Y-865600D01*
X261580Y-875600D01*
X266580Y-875600D01*
G54D11*
X416580Y-880600D02*
X416580Y-860600D01*
X365480Y-860600D01*
X365480Y-880600D01*
X416580Y-880600D01*
G54D11*
X416580Y-875600D02*
X416580Y-865600D01*
X411580Y-865600D01*
X411580Y-875600D01*
X416580Y-875600D01*
G54D11*
X866580Y-880600D02*
X866580Y-860600D01*
X815480Y-860600D01*
X815480Y-880600D01*
X866580Y-880600D01*
G54D11*
X866580Y-875600D02*
X866580Y-865600D01*
X861580Y-865600D01*
X861580Y-875600D01*
X866580Y-875600D01*
G54D11*
X566580Y-880600D02*
X566580Y-860600D01*
X515480Y-860600D01*
X515480Y-880600D01*
X566580Y-880600D01*
G54D11*
X566580Y-875600D02*
X566580Y-865600D01*
X561580Y-865600D01*
X561580Y-875600D01*
X566580Y-875600D01*
G54D11*
X116580Y-880600D02*
X116580Y-860600D01*
X65480Y-860600D01*
X65480Y-880600D01*
X116580Y-880600D01*
G54D11*
X116580Y-875600D02*
X116580Y-865600D01*
X111580Y-865600D01*
X111580Y-875600D01*
X116580Y-875600D01*
G54D11*
X716580Y-700600D02*
X716580Y-680600D01*
X665480Y-680600D01*
X665480Y-700600D01*
X716580Y-700600D01*
G54D11*
X716580Y-695600D02*
X716580Y-685600D01*
X711580Y-685600D01*
X711580Y-695600D01*
X716580Y-695600D01*
G54D11*
X716580Y-520600D02*
X716580Y-500600D01*
X665480Y-500600D01*
X665480Y-520600D01*
X716580Y-520600D01*
G54D11*
X716580Y-515600D02*
X716580Y-505600D01*
X711580Y-505600D01*
X711580Y-515600D01*
X716580Y-515600D01*
G54D11*
X866580Y-520600D02*
X866580Y-500600D01*
X815480Y-500600D01*
X815480Y-520600D01*
X866580Y-520600D01*
G54D11*
X866580Y-515600D02*
X866580Y-505600D01*
X861580Y-505600D01*
X861580Y-515600D01*
X866580Y-515600D01*
G54D11*
X866580Y-340600D02*
X866580Y-320600D01*
X815480Y-320600D01*
X815480Y-340600D01*
X866580Y-340600D01*
G54D11*
X866580Y-335600D02*
X866580Y-325600D01*
X861580Y-325600D01*
X861580Y-335600D01*
X866580Y-335600D01*
G54D11*
X716580Y-340600D02*
X716580Y-320600D01*
X665480Y-320600D01*
X665480Y-340600D01*
X716580Y-340600D01*
G54D11*
X716580Y-335600D02*
X716580Y-325600D01*
X711580Y-325600D01*
X711580Y-335600D01*
X716580Y-335600D01*
G54D11*
X543790Y-649024D02*
X543790Y-669024D01*
X594890Y-669024D01*
X594890Y-649024D01*
X543790Y-649024D01*
G54D11*
X543790Y-654024D02*
X543790Y-664024D01*
X548790Y-664024D01*
X548790Y-654024D01*
X543790Y-654024D01*
G54D11*
X535886Y-726790D02*
X535886Y-708790D01*
X569886Y-708790D01*
X569886Y-726790D01*
X535886Y-726790D01*
G54D11*
X866580Y-160600D02*
X866580Y-140600D01*
X815480Y-140600D01*
X815480Y-160600D01*
X866580Y-160600D01*
G54D11*
X866580Y-155600D02*
X866580Y-145600D01*
X861580Y-145600D01*
X861580Y-155600D01*
X866580Y-155600D01*
G54D11*
X716580Y-160600D02*
X716580Y-140600D01*
X665480Y-140600D01*
X665480Y-160600D01*
X716580Y-160600D01*
G54D11*
X716580Y-155600D02*
X716580Y-145600D01*
X711580Y-145600D01*
X711580Y-155600D01*
X716580Y-155600D01*
G54D11*
X366544Y-333420D02*
X348544Y-333420D01*
X348544Y-299420D01*
X366544Y-299420D01*
X366544Y-333420D01*
G54D11*
X394214Y-237332D02*
X376214Y-237332D01*
X376214Y-203332D01*
X394214Y-203332D01*
X394214Y-237332D01*
G54D11*
X337637Y-18703D02*
X357637Y-18703D01*
X357637Y-56703D01*
X337637Y-56703D01*
X337637Y-18703D01*
G54D11*
X358275Y-18703D02*
X378275Y-18703D01*
X378275Y-56703D01*
X358275Y-56703D01*
X358275Y-18703D01*
G54D13*
X209303Y-456698D02*
X209303Y-494198D01*
X229303Y-494198D01*
X229303Y-456698D01*
X209303Y-456698D01*
G54D13*
X214303Y-453523D02*
X214303Y-443523D01*
G54D13*
X224303Y-453523D02*
X224303Y-443523D01*
G54D13*
X142081Y-456803D02*
X179784Y-456803D01*
X179784Y-494109D01*
X142081Y-494109D01*
X142081Y-456803D01*
G54D11*
X58059Y-271437D02*
X78059Y-271437D01*
X78059Y-309437D01*
X58059Y-309437D01*
X58059Y-271437D01*
G54D14*
G75*
G01X417528Y-303609D02*
G03X417528Y-303609I-2000J0D01*
G01*
G36*
G75*
G01X417528Y-303609D02*
G03X417528Y-303609I-2000J0D01*
G01*
G37*
X417528Y-303609D01*
G54D11*
X602226Y-662504D02*
X622226Y-662504D01*
X622226Y-700504D01*
X602226Y-700504D01*
X602226Y-662504D01*
G54D11*
X543790Y-441378D02*
X543790Y-461378D01*
X594890Y-461378D01*
X594890Y-441378D01*
X543790Y-441378D01*
G54D11*
X543790Y-446378D02*
X543790Y-456378D01*
X548790Y-456378D01*
X548790Y-446378D01*
X543790Y-446378D01*
G54D11*
X535886Y-519145D02*
X535886Y-501145D01*
X569886Y-501145D01*
X569886Y-519145D01*
X535886Y-519145D01*
G54D11*
X602226Y-454859D02*
X622226Y-454859D01*
X622226Y-492859D01*
X602226Y-492859D01*
X602226Y-454859D01*
G54D11*
X543790Y-233734D02*
X543790Y-253734D01*
X594890Y-253734D01*
X594890Y-233734D01*
X543790Y-233734D01*
G54D11*
X543790Y-238734D02*
X543790Y-248734D01*
X548790Y-248734D01*
X548790Y-238734D01*
X543790Y-238734D01*
G54D11*
X535886Y-311500D02*
X535886Y-293500D01*
X569886Y-293500D01*
X569886Y-311500D01*
X535886Y-311500D01*
G54D11*
X602226Y-247214D02*
X622226Y-247214D01*
X622226Y-285214D01*
X602226Y-285214D01*
X602226Y-247214D01*
M02*
