%FSLAX34Y34*%
%MOMM*%
%LNSOLDERMASK_BOTTOM*%
G71*
G01*
%ADD10C, 1.700*%
%ADD11C, 1.900*%
%ADD12R, 1.190X0.800*%
%ADD13R, 3.700X1.900*%
%ADD14R, 1.800X1.800*%
%ADD15R, 1.600X1.500*%
%ADD16C, 1.300*%
%ADD17R, 1.800X0.870*%
%ADD18R, 1.400X1.300*%
%ADD19R, 1.300X1.400*%
%ADD20C, 1.600*%
%ADD21R, 1.550X0.600*%
%ADD22R, 2.100X2.500*%
%ADD23C, 0.700*%
%ADD24R, 2.600X1.000*%
%ADD25R, 0.500X1.200*%
%ADD26R, 1.500X1.700*%
%ADD27R, 3.500X1.000*%
%ADD28R, 2.500X1.000*%
%ADD29C, 0.950*%
%ADD30R, 0.800X1.190*%
%ADD31R, 1.700X3.200*%
%ADD32R, 2.200X3.200*%
%ADD33R, 1.000X1.600*%
%ADD34C, 0.500*%
%LPD*%
X20105Y-652498D02*
G54D10*
D03*
X122105Y-652498D02*
G54D10*
D03*
X224105Y-652498D02*
G54D10*
D03*
X326105Y-652498D02*
G54D10*
D03*
X428105Y-652498D02*
G54D10*
D03*
X504605Y-652498D02*
G54D10*
D03*
X20105Y-610222D02*
G54D10*
D03*
X45605Y-610223D02*
G54D10*
D03*
X71106Y-610222D02*
G54D11*
D03*
X96605Y-610223D02*
G54D10*
D03*
X122105Y-610223D02*
G54D10*
D03*
X147605Y-610223D02*
G54D10*
D03*
X173105Y-610223D02*
G54D10*
D03*
X198605Y-610223D02*
G54D10*
D03*
X224105Y-610223D02*
G54D10*
D03*
X249605Y-610223D02*
G54D10*
D03*
X275105Y-610223D02*
G54D10*
D03*
X300605Y-610223D02*
G54D10*
D03*
X326105Y-610223D02*
G54D10*
D03*
X351605Y-610223D02*
G54D10*
D03*
X377105Y-610223D02*
G54D10*
D03*
X402605Y-610223D02*
G54D10*
D03*
X428105Y-610223D02*
G54D10*
D03*
X453605Y-610223D02*
G54D10*
D03*
X479105Y-610223D02*
G54D10*
D03*
X504605Y-610223D02*
G54D10*
D03*
X32855Y-590222D02*
G54D10*
D03*
X58355Y-590222D02*
G54D10*
D03*
X83855Y-590223D02*
G54D10*
D03*
X134855Y-590223D02*
G54D10*
D03*
X160355Y-590223D02*
G54D10*
D03*
X185855Y-590223D02*
G54D10*
D03*
X236855Y-590223D02*
G54D10*
D03*
X262355Y-590223D02*
G54D10*
D03*
X287855Y-590223D02*
G54D10*
D03*
X338855Y-590223D02*
G54D10*
D03*
X364355Y-590223D02*
G54D10*
D03*
X389855Y-590223D02*
G54D10*
D03*
X440855Y-590223D02*
G54D10*
D03*
X466355Y-590223D02*
G54D10*
D03*
X491855Y-590223D02*
G54D10*
D03*
X352446Y-308947D02*
G54D12*
D03*
X352449Y-299542D02*
G54D12*
D03*
X352446Y-289947D02*
G54D12*
D03*
X378346Y-289947D02*
G54D12*
D03*
X378346Y-308947D02*
G54D12*
D03*
X406518Y-311416D02*
G54D13*
D03*
X406518Y-288416D02*
G54D13*
D03*
X377586Y-333744D02*
G54D14*
D03*
X349586Y-333745D02*
G54D14*
D03*
X326673Y-335252D02*
G54D15*
D03*
X326675Y-316248D02*
G54D15*
D03*
X221425Y-356830D02*
G54D16*
D03*
X231717Y-349462D02*
G54D16*
D03*
X224215Y-368948D02*
G54D16*
D03*
G36*
X487650Y-544200D02*
X487650Y-516200D01*
X515650Y-516200D01*
X515650Y-544200D01*
X487650Y-544200D01*
G37*
G36*
X261815Y-514249D02*
X261815Y-544249D01*
X231815Y-544249D01*
X231815Y-514249D01*
X261815Y-514249D01*
G37*
X305903Y-455905D02*
G54D17*
D03*
X305902Y-468605D02*
G54D17*
D03*
X305903Y-481305D02*
G54D17*
D03*
X305902Y-494005D02*
G54D17*
D03*
X248903Y-494005D02*
G54D17*
D03*
X248903Y-481305D02*
G54D17*
D03*
X248903Y-468605D02*
G54D17*
D03*
X248903Y-455905D02*
G54D17*
D03*
X326371Y-479320D02*
G54D18*
D03*
X326371Y-496320D02*
G54D18*
D03*
X326371Y-455177D02*
G54D18*
D03*
X326370Y-472177D02*
G54D18*
D03*
X355490Y-456627D02*
G54D19*
D03*
X372490Y-456627D02*
G54D19*
D03*
X141696Y-421491D02*
G54D20*
D03*
X200434Y-421491D02*
G54D20*
D03*
X219484Y-421491D02*
G54D20*
D03*
G36*
X102229Y-368952D02*
X109301Y-361882D01*
X127684Y-380268D01*
X120612Y-387338D01*
X102229Y-368952D01*
G37*
G36*
X111209Y-359972D02*
X118281Y-352901D01*
X136664Y-371287D01*
X129593Y-378358D01*
X111209Y-359972D01*
G37*
G36*
X120189Y-350991D02*
X127261Y-343921D01*
X145644Y-362308D01*
X138572Y-369378D01*
X120189Y-350991D01*
G37*
G36*
X129169Y-342013D02*
X136240Y-334942D01*
X154626Y-353325D01*
X147555Y-360397D01*
X129169Y-342013D01*
G37*
G36*
X164525Y-377368D02*
X171596Y-370297D01*
X189980Y-388681D01*
X182909Y-395752D01*
X164525Y-377368D01*
G37*
G36*
X155544Y-386349D02*
X162615Y-379277D01*
X181001Y-397661D01*
X173930Y-404732D01*
X155544Y-386349D01*
G37*
G36*
X146564Y-395329D02*
X153635Y-388258D01*
X172020Y-406641D01*
X164950Y-413713D01*
X146564Y-395329D01*
G37*
G36*
X137584Y-404308D02*
X144656Y-397237D01*
X163040Y-415623D01*
X155968Y-422694D01*
X137584Y-404308D01*
G37*
X212252Y-513547D02*
G54D19*
D03*
X195250Y-513544D02*
G54D19*
D03*
X481586Y-233740D02*
G54D21*
D03*
X481586Y-240240D02*
G54D21*
D03*
X481586Y-246740D02*
G54D21*
D03*
X481586Y-253240D02*
G54D21*
D03*
X481586Y-259740D02*
G54D21*
D03*
X508336Y-284240D02*
G54D22*
D03*
X508336Y-209240D02*
G54D22*
D03*
X464509Y-280756D02*
G54D18*
D03*
X464509Y-263756D02*
G54D18*
D03*
X446650Y-280756D02*
G54D18*
D03*
X446650Y-263756D02*
G54D18*
D03*
G54D23*
X118227Y-174621D02*
X103255Y-174621D01*
G54D23*
X118231Y-163512D02*
X103259Y-163512D01*
X160750Y-513541D02*
G54D19*
D03*
X177752Y-513544D02*
G54D19*
D03*
X245818Y-283440D02*
G54D24*
D03*
X245818Y-296140D02*
G54D24*
D03*
X245818Y-308840D02*
G54D24*
D03*
X245818Y-321540D02*
G54D24*
D03*
X195818Y-321540D02*
G54D24*
D03*
X195818Y-308840D02*
G54D24*
D03*
X195818Y-296140D02*
G54D24*
D03*
X195818Y-283440D02*
G54D24*
D03*
X200175Y-449418D02*
G54D18*
D03*
X200178Y-432416D02*
G54D18*
D03*
X219225Y-449418D02*
G54D18*
D03*
X219228Y-432416D02*
G54D18*
D03*
G36*
X419744Y-350704D02*
X432744Y-350703D01*
X432744Y-364703D01*
X419744Y-364704D01*
X419744Y-350704D01*
G37*
X443244Y-357703D02*
G54D19*
D03*
X201634Y-61378D02*
G54D25*
D03*
X206634Y-61378D02*
G54D25*
D03*
X211634Y-61378D02*
G54D25*
D03*
X216634Y-61378D02*
G54D25*
D03*
X221634Y-61378D02*
G54D25*
D03*
X226634Y-61378D02*
G54D25*
D03*
X231634Y-61378D02*
G54D25*
D03*
X236634Y-61378D02*
G54D25*
D03*
X447320Y-536166D02*
G54D26*
D03*
X467161Y-536167D02*
G54D26*
D03*
X250580Y-283440D02*
G54D27*
D03*
X195818Y-283440D02*
G54D28*
D03*
X250580Y-296140D02*
G54D27*
D03*
X250580Y-308840D02*
G54D27*
D03*
X250580Y-321540D02*
G54D27*
D03*
X191055Y-321540D02*
G54D27*
D03*
X191055Y-308840D02*
G54D27*
D03*
X191055Y-296140D02*
G54D27*
D03*
X191056Y-283440D02*
G54D27*
D03*
X20105Y-781498D02*
G54D10*
D03*
X122105Y-781498D02*
G54D10*
D03*
X224105Y-781498D02*
G54D10*
D03*
X326105Y-781498D02*
G54D10*
D03*
X428105Y-781498D02*
G54D10*
D03*
X504605Y-781498D02*
G54D10*
D03*
X20105Y-739222D02*
G54D10*
D03*
X45605Y-739223D02*
G54D10*
D03*
X71106Y-739222D02*
G54D11*
D03*
X96605Y-739223D02*
G54D10*
D03*
X122105Y-739223D02*
G54D10*
D03*
X147605Y-739223D02*
G54D10*
D03*
X173105Y-739223D02*
G54D10*
D03*
X198605Y-739223D02*
G54D10*
D03*
X224105Y-739223D02*
G54D10*
D03*
X249605Y-739223D02*
G54D10*
D03*
X275105Y-739223D02*
G54D10*
D03*
X300605Y-739223D02*
G54D10*
D03*
X326105Y-739223D02*
G54D10*
D03*
X351605Y-739223D02*
G54D10*
D03*
X377105Y-739223D02*
G54D10*
D03*
X402605Y-739223D02*
G54D10*
D03*
X428105Y-739223D02*
G54D10*
D03*
X453605Y-739223D02*
G54D10*
D03*
X479105Y-739223D02*
G54D10*
D03*
X504605Y-739223D02*
G54D10*
D03*
X32855Y-719222D02*
G54D10*
D03*
X58355Y-719222D02*
G54D10*
D03*
X83855Y-719223D02*
G54D10*
D03*
X134855Y-719223D02*
G54D10*
D03*
X160355Y-719223D02*
G54D10*
D03*
X185855Y-719223D02*
G54D10*
D03*
X236855Y-719223D02*
G54D10*
D03*
X262355Y-719223D02*
G54D10*
D03*
X287855Y-719223D02*
G54D10*
D03*
X338855Y-719223D02*
G54D10*
D03*
X364355Y-719223D02*
G54D10*
D03*
X389855Y-719223D02*
G54D10*
D03*
X440855Y-719223D02*
G54D10*
D03*
X466355Y-719223D02*
G54D10*
D03*
X491855Y-719223D02*
G54D10*
D03*
G54D29*
X158892Y-939601D02*
X158892Y-975001D01*
G54D29*
X146092Y-939601D02*
X146092Y-975001D01*
G54D29*
X133392Y-939601D02*
X133392Y-975001D01*
G54D29*
X120792Y-939601D02*
X120792Y-975001D01*
G54D29*
X95292Y-939601D02*
X95292Y-975001D01*
G54D29*
X171492Y-939601D02*
X171492Y-975001D01*
G54D29*
X82592Y-939601D02*
X82592Y-975001D01*
G54D29*
X69992Y-939601D02*
X69992Y-975001D01*
G54D29*
X57192Y-939601D02*
X57192Y-975001D01*
G54D29*
X44492Y-939601D02*
X44492Y-975001D01*
G54D29*
X308892Y-939601D02*
X308892Y-975001D01*
G54D29*
X296092Y-939601D02*
X296092Y-975001D01*
G54D29*
X283392Y-939601D02*
X283392Y-975001D01*
G54D29*
X270792Y-939601D02*
X270792Y-975001D01*
G54D29*
X245292Y-939601D02*
X245292Y-975001D01*
G54D29*
X321492Y-939601D02*
X321492Y-975001D01*
G54D29*
X232592Y-939601D02*
X232592Y-975001D01*
G54D29*
X219992Y-939601D02*
X219992Y-975001D01*
G54D29*
X207192Y-939601D02*
X207192Y-975001D01*
G54D29*
X194492Y-939601D02*
X194492Y-975001D01*
G54D29*
X458892Y-939601D02*
X458892Y-975001D01*
G54D29*
X446092Y-939601D02*
X446092Y-975001D01*
G54D29*
X433392Y-939601D02*
X433392Y-975001D01*
G54D29*
X420792Y-939601D02*
X420792Y-975001D01*
G54D29*
X395292Y-939601D02*
X395292Y-975001D01*
G54D29*
X471492Y-939601D02*
X471492Y-975001D01*
G54D29*
X382592Y-939601D02*
X382592Y-975001D01*
G54D29*
X369992Y-939601D02*
X369992Y-975001D01*
G54D29*
X357192Y-939601D02*
X357192Y-975001D01*
G54D29*
X344492Y-939601D02*
X344492Y-975001D01*
G54D29*
X608893Y-939601D02*
X608892Y-975001D01*
G54D29*
X596092Y-939601D02*
X596092Y-975001D01*
G54D29*
X583392Y-939601D02*
X583392Y-975001D01*
G54D29*
X570792Y-939601D02*
X570792Y-975001D01*
G54D29*
X545292Y-939601D02*
X545292Y-975001D01*
G54D29*
X621492Y-939601D02*
X621492Y-975001D01*
G54D29*
X532592Y-939601D02*
X532592Y-975001D01*
G54D29*
X519992Y-939601D02*
X519992Y-975001D01*
G54D29*
X507192Y-939601D02*
X507192Y-975001D01*
G54D29*
X494492Y-939601D02*
X494492Y-975001D01*
G54D29*
X758892Y-939601D02*
X758892Y-975001D01*
G54D29*
X746092Y-939601D02*
X746092Y-975001D01*
G54D29*
X733392Y-939601D02*
X733392Y-975001D01*
G54D29*
X720792Y-939601D02*
X720792Y-975001D01*
G54D29*
X695292Y-939601D02*
X695292Y-975001D01*
G54D29*
X771492Y-939601D02*
X771492Y-975001D01*
G54D29*
X682592Y-939601D02*
X682592Y-975001D01*
G54D29*
X669992Y-939601D02*
X669992Y-975001D01*
G54D29*
X657192Y-939601D02*
X657192Y-975001D01*
G54D29*
X644492Y-939601D02*
X644492Y-975001D01*
G54D29*
X908893Y-939601D02*
X908893Y-975001D01*
G54D29*
X896093Y-939601D02*
X896093Y-975001D01*
G54D29*
X883393Y-939601D02*
X883393Y-975001D01*
G54D29*
X870793Y-939601D02*
X870793Y-975001D01*
G54D29*
X845293Y-939601D02*
X845293Y-975001D01*
G54D29*
X921493Y-939601D02*
X921493Y-975001D01*
G54D29*
X832593Y-939601D02*
X832593Y-975001D01*
G54D29*
X819993Y-939601D02*
X819993Y-975001D01*
G54D29*
X807193Y-939601D02*
X807193Y-975001D01*
G54D29*
X794493Y-939601D02*
X794493Y-975001D01*
G54D29*
X758893Y-759600D02*
X758892Y-795000D01*
G54D29*
X746092Y-759600D02*
X746092Y-795000D01*
G54D29*
X733392Y-759600D02*
X733392Y-795000D01*
G54D29*
X720792Y-759600D02*
X720792Y-795000D01*
G54D29*
X695292Y-759600D02*
X695292Y-795000D01*
G54D29*
X771492Y-759600D02*
X771492Y-795000D01*
G54D29*
X682592Y-759600D02*
X682592Y-795000D01*
G54D29*
X669992Y-759600D02*
X669992Y-795000D01*
G54D29*
X657192Y-759600D02*
X657192Y-795000D01*
G54D29*
X644492Y-759600D02*
X644492Y-795000D01*
G54D29*
X908893Y-579601D02*
X908892Y-615001D01*
G54D29*
X896092Y-579601D02*
X896092Y-615001D01*
G54D29*
X883392Y-579601D02*
X883392Y-615001D01*
G54D29*
X870792Y-579601D02*
X870792Y-615001D01*
G54D29*
X845292Y-579601D02*
X845292Y-615001D01*
G54D29*
X921492Y-579601D02*
X921492Y-615001D01*
G54D29*
X832592Y-579601D02*
X832592Y-615001D01*
G54D29*
X819992Y-579601D02*
X819992Y-615001D01*
G54D29*
X807192Y-579601D02*
X807192Y-615001D01*
G54D29*
X794492Y-579601D02*
X794492Y-615001D01*
G54D29*
X758893Y-579601D02*
X758892Y-615001D01*
G54D29*
X746092Y-579601D02*
X746092Y-615001D01*
G54D29*
X733392Y-579601D02*
X733392Y-615001D01*
G54D29*
X720792Y-579601D02*
X720792Y-615001D01*
G54D29*
X695292Y-579601D02*
X695292Y-615001D01*
G54D29*
X771492Y-579601D02*
X771492Y-615001D01*
G54D29*
X682592Y-579601D02*
X682592Y-615001D01*
G54D29*
X669992Y-579601D02*
X669992Y-615001D01*
G54D29*
X657192Y-579601D02*
X657192Y-615001D01*
G54D29*
X644492Y-579601D02*
X644492Y-615001D01*
G54D29*
X908893Y-399601D02*
X908892Y-435001D01*
G54D29*
X896092Y-399601D02*
X896092Y-435001D01*
G54D29*
X883392Y-399601D02*
X883392Y-435001D01*
G54D29*
X870792Y-399601D02*
X870792Y-435001D01*
G54D29*
X845292Y-399601D02*
X845292Y-435001D01*
G54D29*
X921492Y-399601D02*
X921492Y-435001D01*
G54D29*
X832592Y-399601D02*
X832592Y-435001D01*
G54D29*
X819992Y-399601D02*
X819992Y-435001D01*
G54D29*
X807192Y-399601D02*
X807192Y-435001D01*
G54D29*
X794492Y-399601D02*
X794492Y-435001D01*
G54D29*
X758893Y-399601D02*
X758892Y-435001D01*
G54D29*
X746092Y-399601D02*
X746092Y-435001D01*
G54D29*
X733392Y-399601D02*
X733392Y-435001D01*
G54D29*
X720792Y-399601D02*
X720792Y-435001D01*
G54D29*
X695292Y-399601D02*
X695292Y-435001D01*
G54D29*
X771492Y-399601D02*
X771492Y-435001D01*
G54D29*
X682592Y-399601D02*
X682592Y-435001D01*
G54D29*
X669992Y-399601D02*
X669992Y-435001D01*
G54D29*
X657192Y-399601D02*
X657192Y-435001D01*
G54D29*
X644492Y-399601D02*
X644492Y-435001D01*
G54D29*
X599395Y-753425D02*
X599395Y-795175D01*
G54D29*
X586595Y-753426D02*
X586595Y-795176D01*
G54D29*
X573895Y-753426D02*
X573895Y-795176D01*
G54D29*
X561295Y-753426D02*
X561295Y-795176D01*
G54D29*
X548495Y-753426D02*
X548495Y-795175D01*
G54D29*
X535795Y-753426D02*
X535795Y-795175D01*
G54D29*
X611995Y-753425D02*
X611995Y-795176D01*
G54D29*
X908893Y-219601D02*
X908892Y-255001D01*
G54D29*
X896092Y-219601D02*
X896092Y-255001D01*
G54D29*
X883392Y-219601D02*
X883392Y-255001D01*
G54D29*
X870792Y-219601D02*
X870792Y-255001D01*
G54D29*
X845292Y-219601D02*
X845292Y-255001D01*
G54D29*
X921492Y-219601D02*
X921492Y-255001D01*
G54D29*
X832592Y-219601D02*
X832592Y-255001D01*
G54D29*
X819992Y-219601D02*
X819992Y-255001D01*
G54D29*
X807192Y-219601D02*
X807192Y-255001D01*
G54D29*
X794492Y-219601D02*
X794492Y-255001D01*
G54D29*
X758893Y-219601D02*
X758893Y-255001D01*
G54D29*
X746093Y-219601D02*
X746093Y-255001D01*
G54D29*
X733393Y-219601D02*
X733393Y-255001D01*
G54D29*
X720793Y-219601D02*
X720793Y-255001D01*
G54D29*
X695293Y-219601D02*
X695293Y-255001D01*
G54D29*
X771493Y-219601D02*
X771493Y-255001D01*
G54D29*
X682593Y-219601D02*
X682593Y-255001D01*
G54D29*
X669993Y-219601D02*
X669993Y-255001D01*
G54D29*
X657193Y-219601D02*
X657193Y-255001D01*
G54D29*
X644493Y-219601D02*
X644493Y-255001D01*
X141697Y-534328D02*
G54D20*
D03*
X160746Y-534328D02*
G54D20*
D03*
X179796Y-534328D02*
G54D20*
D03*
X179797Y-421490D02*
G54D20*
D03*
X422552Y-230661D02*
G54D30*
D03*
X413147Y-230663D02*
G54D30*
D03*
X403552Y-230661D02*
G54D30*
D03*
X403552Y-256561D02*
G54D30*
D03*
X422552Y-256561D02*
G54D30*
D03*
X413148Y-256563D02*
G54D30*
D03*
G54D29*
X599395Y-545780D02*
X599395Y-587530D01*
G54D29*
X586595Y-545780D02*
X586595Y-587530D01*
G54D29*
X573895Y-545780D02*
X573895Y-587530D01*
G54D29*
X561295Y-545780D02*
X561295Y-587530D01*
G54D29*
X548495Y-545780D02*
X548495Y-587530D01*
G54D29*
X535795Y-545780D02*
X535795Y-587530D01*
G54D29*
X611995Y-545780D02*
X611995Y-587530D01*
X467161Y-510640D02*
G54D31*
D03*
X423161Y-510640D02*
G54D32*
D03*
X489161Y-410640D02*
G54D32*
D03*
X457161Y-410640D02*
G54D31*
D03*
X423161Y-410640D02*
G54D31*
D03*
X489161Y-385240D02*
G54D18*
D03*
X489161Y-368240D02*
G54D18*
D03*
X321766Y-112719D02*
G54D33*
D03*
X426244Y-338654D02*
G54D19*
D03*
X443244Y-338653D02*
G54D19*
D03*
X405766Y-112719D02*
G54D33*
D03*
X393766Y-112719D02*
G54D33*
D03*
X381766Y-112719D02*
G54D33*
D03*
X369766Y-112719D02*
G54D33*
D03*
X357766Y-112719D02*
G54D33*
D03*
X345766Y-112719D02*
G54D33*
D03*
X333766Y-112719D02*
G54D33*
D03*
X177134Y-95806D02*
G54D33*
D03*
X261134Y-95806D02*
G54D33*
D03*
X249134Y-95806D02*
G54D33*
D03*
X237134Y-95806D02*
G54D33*
D03*
X225134Y-95806D02*
G54D33*
D03*
X213134Y-95806D02*
G54D33*
D03*
X201134Y-95806D02*
G54D33*
D03*
X189134Y-95806D02*
G54D33*
D03*
G54D34*
X130000Y-179638D02*
X130000Y-158494D01*
X140000Y-179638D02*
X140000Y-158494D01*
X150000Y-179638D02*
X150000Y-158494D01*
X160000Y-179638D02*
X160000Y-158494D01*
X170000Y-179638D02*
X170000Y-158494D01*
X180000Y-179638D02*
X180000Y-158494D01*
X190000Y-179638D02*
X190000Y-158494D01*
X128406Y-170000D02*
X195799Y-170000D01*
X128408Y-160000D02*
X195801Y-160000D01*
G54D34*
X128408Y-158494D02*
X128404Y-179638D01*
X195797Y-179638D01*
X195801Y-158494D01*
X128408Y-158494D01*
G54D29*
X599395Y-338135D02*
X599395Y-379885D01*
G54D29*
X586595Y-338136D02*
X586595Y-379886D01*
G54D29*
X573895Y-338136D02*
X573895Y-379886D01*
G54D29*
X561295Y-338136D02*
X561295Y-379886D01*
G54D29*
X548495Y-338136D02*
X548495Y-379885D01*
G54D29*
X535795Y-338136D02*
X535795Y-379885D01*
G54D29*
X611995Y-338135D02*
X611995Y-379886D01*
M02*
