; Drill file
; Format: 2.4 (00.0000)
M48
INCH
T01C0.0157
T02C0.0197
T03C0.0236
T04C0.0276
T05C0.0413
T06C0.063
T07C0.0984
%
G05
G90
T01
X005370Y-009310
X006130Y-009310
X007130Y-009310
X008120Y-009310
X009120Y-009310
X009120Y-008310
X008120Y-008310
X007130Y-008310
X006130Y-008310
X005370Y-008310
X008120Y-007310
X009120Y-007310
X009120Y-006310
X009120Y-005310
X008120Y-005310
X007130Y-005310
X006130Y-005310
X008120Y-006310
X010120Y-006310
X010120Y-007310
X010120Y-008310
X010120Y-009310
X010120Y-005310
T02
X004250Y-035990
X006750Y-032520
X007660Y-032520
X004810Y-031390
X001750Y-032520
X001290Y-031310
X001290Y-026230
X004810Y-026310
X005200Y-020090
X006510Y-018240
X007780Y-019170
X010470Y-017360
X009810Y-016560
X007930Y-015390
X008830Y-014530
X008720Y-014050
X009120Y-013760
X008450Y-013490
X009920Y-013290
X010500Y-013480
X011600Y-014430
X013400Y-013790
X013330Y-015440
X014020Y-015750
X014520Y-016130
X015310Y-016900
X015060Y-014900
X015450Y-013780
X015620Y-012990
X015370Y-010620
X014780Y-009560
X014030Y-009280
X013410Y-009000
X011650Y-010480
X013810Y-006440
X014160Y-005880
X014660Y-005890
X014860Y-006280
X014910Y-006800
X013140Y-005390
X013140Y-004920
X011900Y-003590
X016200Y-002180
X019170Y-007350
X021750Y-009590
X022950Y-009570
X024040Y-009490
X025370Y-011260
X027870Y-014730
X030370Y-011260
X031280Y-011260
X033780Y-014730
X036280Y-011260
X033780Y-007650
X031280Y-004170
X030370Y-004170
X027870Y-007650
X025370Y-004170
X019530Y-012180
X019900Y-013390
X018990Y-013520
X018280Y-013310
X018260Y-014700
X018040Y-011790
X017530Y-017740
X017330Y-019070
X017610Y-020920
X018390Y-020920
X019950Y-022630
X021750Y-025940
X022950Y-025920
X024040Y-025840
X025370Y-025430
X027870Y-028910
X030370Y-025430
X027870Y-021820
X030370Y-018350
X031280Y-018350
X033780Y-021820
X036280Y-018350
X025370Y-018350
X024040Y-017670
X022950Y-017750
X021750Y-017760
X019840Y-018120
X014440Y-019150
X013500Y-020710
X010740Y-021320
X012840Y-026350
X016850Y-026380
X019950Y-027710
X019470Y-032520
X018560Y-032520
X016850Y-031460
X013560Y-032520
X012660Y-032520
X012840Y-031430
X010160Y-035990
X016060Y-035990
X021970Y-035990
X024470Y-032520
X025370Y-032520
X027870Y-035990
X030370Y-032520
X031280Y-032520
X033780Y-035990
X036280Y-032520
X036280Y-004170
X004850Y-003980
X003150Y-002060
X001760Y-006120
X004070Y-006440
X004070Y-006870
X005040Y-010840
X002710Y-012650
X001670Y-014600
X003070Y-017990
X002420Y-019040
X004640Y-017170
T03
X000790Y-030770
X001800Y-030770
X002800Y-030770
X003800Y-030770
X004810Y-030770
X005810Y-030770
X006820Y-030770
X007820Y-030770
X008820Y-030770
X009830Y-030770
X010830Y-030770
X011830Y-030770
X012840Y-030770
X013840Y-030770
X014850Y-030770
X015850Y-030770
X016850Y-030770
X017860Y-030770
X018860Y-030770
X019870Y-030770
X019360Y-029890
X018860Y-029100
X018360Y-028320
X017860Y-029100
X017360Y-028320
X016850Y-029100
X017360Y-029890
X018360Y-029890
X019870Y-029100
X019360Y-028320
X019870Y-025690
X018860Y-025690
X017860Y-025690
X016850Y-025690
X015850Y-025690
X014850Y-025690
X013840Y-025690
X012840Y-025690
X011830Y-025690
X010830Y-025690
X009830Y-025690
X008820Y-025690
X007820Y-025690
X006820Y-025690
X005810Y-025690
X004810Y-025690
X003800Y-025690
X002800Y-025690
X001800Y-025690
X000790Y-025690
X001290Y-024810
X001800Y-024020
X002300Y-024810
X002800Y-024020
X003300Y-023240
X003800Y-024020
X003300Y-024810
X004810Y-024020
X005310Y-024810
X005810Y-024020
X006310Y-024810
X006820Y-024020
X007320Y-024810
X007820Y-024020
X007320Y-023240
X006310Y-023240
X005310Y-023240
X005580Y-021040
X006330Y-021040
X007080Y-021040
X009320Y-023240
X008820Y-024020
X009320Y-024810
X009830Y-024020
X010330Y-024810
X010830Y-024020
X011330Y-024810
X011830Y-024020
X011330Y-023240
X010330Y-023240
X012840Y-024020
X013340Y-024810
X013840Y-024020
X014340Y-024810
X014850Y-024020
X015350Y-024810
X015850Y-024020
X015350Y-023240
X014340Y-023240
X013340Y-023240
X016850Y-024020
X017360Y-024810
X017860Y-024020
X017360Y-023240
X018360Y-023240
X018860Y-024020
X018360Y-024810
X019360Y-024810
X019870Y-024020
X019360Y-023240
X015350Y-028320
X014850Y-029100
X014340Y-028320
X013840Y-029100
X013340Y-028320
X012840Y-029100
X013340Y-029890
X014340Y-029890
X015350Y-029890
X015850Y-029100
X011830Y-029100
X011330Y-028320
X010830Y-029100
X010330Y-028320
X009830Y-029100
X009320Y-028320
X008820Y-029100
X009320Y-029890
X010330Y-029890
X011330Y-029890
X007820Y-029100
X007320Y-028320
X006820Y-029100
X006310Y-028320
X005810Y-029100
X005310Y-028320
X004810Y-029100
X005310Y-029890
X006310Y-029890
X007320Y-029890
X003800Y-029100
X003300Y-028320
X002800Y-029100
X002300Y-028320
X001800Y-029100
X002300Y-029890
X003300Y-029890
X001290Y-029890
X000790Y-029100
X001290Y-028320
X000790Y-024020
X001290Y-023240
X002300Y-023240
X005580Y-016590
X007080Y-016590
X007890Y-016590
X008640Y-016590
X018080Y-008630
T04
X019180Y-010500
X019180Y-008930
T05
X009720Y-020840
X019750Y-020870
T06
X016820Y-018130
T07
X017900Y-004740
M30
