%FSLAX34Y34*%
%MOMM*%
%LNSOLDERMASK_BOTTOM*%
G71*
G01*
%ADD10C, 1.900*%
%ADD11C, 2.100*%
%ADD12R, 1.190X0.800*%
%ADD13R, 3.700X1.900*%
%ADD14R, 1.800X1.800*%
%ADD15R, 1.600X1.500*%
%ADD16C, 1.500*%
%ADD17R, 1.800X0.870*%
%ADD18R, 1.400X1.300*%
%ADD19R, 1.300X1.400*%
%ADD20R, 1.550X0.600*%
%ADD21R, 2.100X2.500*%
%ADD22C, 0.700*%
%ADD23R, 2.600X1.000*%
%ADD24R, 0.500X1.200*%
%ADD25R, 1.500X1.700*%
%ADD26R, 3.500X1.000*%
%ADD27R, 2.500X1.000*%
%ADD28C, 0.950*%
%ADD29R, 0.800X1.190*%
%ADD30R, 1.700X3.200*%
%ADD31R, 2.200X3.200*%
%ADD32R, 1.000X1.600*%
%ADD33C, 0.500*%
%LPD*%
X39155Y-650911D02*
G54D10*
D03*
X141155Y-650911D02*
G54D10*
D03*
X243155Y-650911D02*
G54D10*
D03*
X345155Y-650911D02*
G54D10*
D03*
X447155Y-650911D02*
G54D10*
D03*
X523655Y-650911D02*
G54D10*
D03*
X39155Y-608634D02*
G54D10*
D03*
X64655Y-608636D02*
G54D10*
D03*
X90156Y-608634D02*
G54D11*
D03*
X115655Y-608636D02*
G54D10*
D03*
X141155Y-608636D02*
G54D10*
D03*
X166655Y-608636D02*
G54D10*
D03*
X192155Y-608636D02*
G54D10*
D03*
X217655Y-608636D02*
G54D10*
D03*
X243155Y-608636D02*
G54D10*
D03*
X268655Y-608636D02*
G54D10*
D03*
X294155Y-608636D02*
G54D10*
D03*
X319655Y-608636D02*
G54D10*
D03*
X345155Y-608636D02*
G54D10*
D03*
X370655Y-608636D02*
G54D10*
D03*
X396155Y-608636D02*
G54D10*
D03*
X421655Y-608636D02*
G54D10*
D03*
X447155Y-608636D02*
G54D10*
D03*
X472655Y-608636D02*
G54D10*
D03*
X498155Y-608636D02*
G54D10*
D03*
X523655Y-608636D02*
G54D10*
D03*
X51905Y-588634D02*
G54D10*
D03*
X77405Y-588634D02*
G54D10*
D03*
X102905Y-588636D02*
G54D10*
D03*
X153905Y-588636D02*
G54D10*
D03*
X179405Y-588636D02*
G54D10*
D03*
X204905Y-588636D02*
G54D10*
D03*
X255905Y-588636D02*
G54D10*
D03*
X281405Y-588636D02*
G54D10*
D03*
X306905Y-588636D02*
G54D10*
D03*
X357905Y-588636D02*
G54D10*
D03*
X383405Y-588636D02*
G54D10*
D03*
X408905Y-588636D02*
G54D10*
D03*
X459905Y-588636D02*
G54D10*
D03*
X485405Y-588636D02*
G54D10*
D03*
X510905Y-588636D02*
G54D10*
D03*
X444522Y-364510D02*
G54D12*
D03*
X444524Y-355105D02*
G54D12*
D03*
X444522Y-345510D02*
G54D12*
D03*
X470421Y-345510D02*
G54D12*
D03*
X470422Y-364510D02*
G54D12*
D03*
X498593Y-366978D02*
G54D13*
D03*
X498593Y-343978D02*
G54D13*
D03*
X469661Y-389307D02*
G54D14*
D03*
X441661Y-389307D02*
G54D14*
D03*
X418748Y-390815D02*
G54D15*
D03*
X418750Y-371810D02*
G54D15*
D03*
X240475Y-355243D02*
G54D16*
D03*
X250768Y-347874D02*
G54D16*
D03*
X243265Y-367360D02*
G54D16*
D03*
G36*
X505700Y-543613D02*
X505700Y-513613D01*
X535700Y-513613D01*
X535700Y-543613D01*
X505700Y-543613D01*
G37*
G36*
X281865Y-511661D02*
X281865Y-543661D01*
X249865Y-543661D01*
X249865Y-511661D01*
X281865Y-511661D01*
G37*
X397978Y-511467D02*
G54D17*
D03*
X397978Y-524167D02*
G54D17*
D03*
X397978Y-536868D02*
G54D17*
D03*
X397978Y-549568D02*
G54D17*
D03*
X340978Y-549568D02*
G54D17*
D03*
X340978Y-536868D02*
G54D17*
D03*
X340978Y-524168D02*
G54D17*
D03*
X340978Y-511468D02*
G54D17*
D03*
X418446Y-534883D02*
G54D18*
D03*
X418446Y-551883D02*
G54D18*
D03*
X418446Y-510739D02*
G54D18*
D03*
X418446Y-527739D02*
G54D18*
D03*
X447565Y-512190D02*
G54D19*
D03*
X464565Y-512190D02*
G54D19*
D03*
X160746Y-419904D02*
G54D10*
D03*
X219484Y-419904D02*
G54D10*
D03*
X238534Y-419903D02*
G54D10*
D03*
G36*
X194304Y-424515D02*
X201376Y-417444D01*
X219759Y-435830D01*
X212687Y-442901D01*
X194304Y-424515D01*
G37*
G36*
X203284Y-415534D02*
X210356Y-408464D01*
X228739Y-426850D01*
X221668Y-433920D01*
X203284Y-415534D01*
G37*
G36*
X212264Y-406554D02*
X219336Y-399483D01*
X237719Y-417870D01*
X230647Y-424940D01*
X212264Y-406554D01*
G37*
G36*
X221244Y-397576D02*
X228314Y-390504D01*
X246701Y-408888D01*
X239630Y-415959D01*
X221244Y-397576D01*
G37*
G36*
X256600Y-432930D02*
X263670Y-425859D01*
X282055Y-444244D01*
X274985Y-451315D01*
X256600Y-432930D01*
G37*
G36*
X247619Y-441911D02*
X254690Y-434840D01*
X273076Y-453224D01*
X266005Y-460295D01*
X247619Y-441911D01*
G37*
G36*
X238639Y-450891D02*
X245710Y-443820D01*
X264095Y-462204D01*
X257024Y-469275D01*
X238639Y-450891D01*
G37*
G36*
X229659Y-459870D02*
X236731Y-452800D01*
X255115Y-471185D01*
X248043Y-478256D01*
X229659Y-459870D01*
G37*
X304327Y-569109D02*
G54D19*
D03*
X287325Y-569106D02*
G54D19*
D03*
X573661Y-289302D02*
G54D20*
D03*
X573661Y-295802D02*
G54D20*
D03*
X573661Y-302302D02*
G54D20*
D03*
X573661Y-308802D02*
G54D20*
D03*
X573661Y-315302D02*
G54D20*
D03*
X600411Y-339802D02*
G54D21*
D03*
X600411Y-264802D02*
G54D21*
D03*
X556584Y-336318D02*
G54D18*
D03*
X556584Y-319318D02*
G54D18*
D03*
X538725Y-336318D02*
G54D18*
D03*
X538725Y-319318D02*
G54D18*
D03*
G54D22*
X210302Y-230183D02*
X195330Y-230184D01*
G54D22*
X210306Y-219074D02*
X195334Y-219074D01*
X252825Y-569103D02*
G54D19*
D03*
X269827Y-569106D02*
G54D19*
D03*
X337893Y-315190D02*
G54D23*
D03*
X337893Y-327890D02*
G54D23*
D03*
X337893Y-340590D02*
G54D23*
D03*
X337893Y-353290D02*
G54D23*
D03*
X287892Y-353290D02*
G54D23*
D03*
X287893Y-340590D02*
G54D23*
D03*
X287893Y-327890D02*
G54D23*
D03*
X287893Y-315190D02*
G54D23*
D03*
X292250Y-504980D02*
G54D18*
D03*
X292253Y-487978D02*
G54D18*
D03*
X311300Y-504980D02*
G54D18*
D03*
X311303Y-487978D02*
G54D18*
D03*
G36*
X511819Y-406266D02*
X524819Y-406266D01*
X524819Y-420266D01*
X511819Y-420266D01*
X511819Y-406266D01*
G37*
X535319Y-413266D02*
G54D19*
D03*
X460000Y-84000D02*
G54D24*
D03*
X465000Y-84000D02*
G54D24*
D03*
X470000Y-84000D02*
G54D24*
D03*
X475000Y-84000D02*
G54D24*
D03*
X480000Y-84000D02*
G54D24*
D03*
X485000Y-84000D02*
G54D24*
D03*
X490000Y-84000D02*
G54D24*
D03*
X495000Y-84000D02*
G54D24*
D03*
X539395Y-591728D02*
G54D25*
D03*
X559236Y-591729D02*
G54D25*
D03*
X342655Y-315190D02*
G54D26*
D03*
X287893Y-315190D02*
G54D27*
D03*
X342655Y-327890D02*
G54D26*
D03*
X342655Y-340590D02*
G54D26*
D03*
X342655Y-353290D02*
G54D26*
D03*
X283130Y-353290D02*
G54D26*
D03*
X283130Y-340590D02*
G54D26*
D03*
X283130Y-327890D02*
G54D26*
D03*
X283130Y-315190D02*
G54D26*
D03*
X39155Y-779910D02*
G54D10*
D03*
X141155Y-779910D02*
G54D10*
D03*
X243155Y-779910D02*
G54D10*
D03*
X345155Y-779910D02*
G54D10*
D03*
X447155Y-779911D02*
G54D10*
D03*
X523655Y-779910D02*
G54D10*
D03*
X39155Y-737634D02*
G54D10*
D03*
X64655Y-737636D02*
G54D10*
D03*
X90156Y-737634D02*
G54D11*
D03*
X115655Y-737636D02*
G54D10*
D03*
X141155Y-737636D02*
G54D10*
D03*
X166655Y-737636D02*
G54D10*
D03*
X192155Y-737636D02*
G54D10*
D03*
X217655Y-737636D02*
G54D10*
D03*
X243155Y-737636D02*
G54D10*
D03*
X268655Y-737636D02*
G54D10*
D03*
X294155Y-737636D02*
G54D10*
D03*
X319655Y-737636D02*
G54D10*
D03*
X345155Y-737636D02*
G54D10*
D03*
X370655Y-737636D02*
G54D10*
D03*
X396155Y-737636D02*
G54D10*
D03*
X421655Y-737636D02*
G54D10*
D03*
X447155Y-737636D02*
G54D10*
D03*
X472655Y-737636D02*
G54D10*
D03*
X498155Y-737636D02*
G54D10*
D03*
X523655Y-737636D02*
G54D10*
D03*
X51905Y-717634D02*
G54D10*
D03*
X77405Y-717634D02*
G54D10*
D03*
X102905Y-717636D02*
G54D10*
D03*
X153905Y-717636D02*
G54D10*
D03*
X179405Y-717636D02*
G54D10*
D03*
X204905Y-717636D02*
G54D10*
D03*
X255905Y-717636D02*
G54D10*
D03*
X281405Y-717636D02*
G54D10*
D03*
X306905Y-717636D02*
G54D10*
D03*
X357905Y-717636D02*
G54D10*
D03*
X383405Y-717636D02*
G54D10*
D03*
X408905Y-717636D02*
G54D10*
D03*
X459905Y-717636D02*
G54D10*
D03*
X485405Y-717636D02*
G54D10*
D03*
X510905Y-717636D02*
G54D10*
D03*
G54D28*
X177942Y-938013D02*
X177942Y-973413D01*
G54D28*
X165142Y-938013D02*
X165142Y-973413D01*
G54D28*
X152442Y-938013D02*
X152442Y-973413D01*
G54D28*
X139842Y-938013D02*
X139842Y-973413D01*
G54D28*
X114342Y-938013D02*
X114342Y-973413D01*
G54D28*
X190542Y-938013D02*
X190542Y-973413D01*
G54D28*
X101642Y-938013D02*
X101642Y-973413D01*
G54D28*
X89042Y-938013D02*
X89042Y-973413D01*
G54D28*
X76242Y-938013D02*
X76242Y-973413D01*
G54D28*
X63542Y-938013D02*
X63542Y-973413D01*
G54D28*
X327942Y-938013D02*
X327942Y-973413D01*
G54D28*
X315142Y-938013D02*
X315142Y-973413D01*
G54D28*
X302442Y-938013D02*
X302442Y-973413D01*
G54D28*
X289842Y-938013D02*
X289842Y-973413D01*
G54D28*
X264342Y-938013D02*
X264342Y-973413D01*
G54D28*
X340542Y-938013D02*
X340542Y-973413D01*
G54D28*
X251642Y-938013D02*
X251642Y-973413D01*
G54D28*
X239042Y-938013D02*
X239042Y-973413D01*
G54D28*
X226242Y-938013D02*
X226242Y-973413D01*
G54D28*
X213542Y-938013D02*
X213542Y-973413D01*
G54D28*
X477942Y-938013D02*
X477942Y-973413D01*
G54D28*
X465142Y-938013D02*
X465142Y-973413D01*
G54D28*
X452442Y-938013D02*
X452442Y-973413D01*
G54D28*
X439842Y-938013D02*
X439842Y-973413D01*
G54D28*
X414342Y-938013D02*
X414342Y-973413D01*
G54D28*
X490542Y-938013D02*
X490542Y-973413D01*
G54D28*
X401642Y-938013D02*
X401642Y-973413D01*
G54D28*
X389042Y-938013D02*
X389042Y-973413D01*
G54D28*
X376242Y-938013D02*
X376242Y-973413D01*
G54D28*
X363542Y-938013D02*
X363542Y-973413D01*
G54D28*
X627943Y-938013D02*
X627942Y-973413D01*
G54D28*
X615142Y-938013D02*
X615142Y-973413D01*
G54D28*
X602442Y-938013D02*
X602442Y-973413D01*
G54D28*
X589842Y-938013D02*
X589842Y-973413D01*
G54D28*
X564342Y-938013D02*
X564342Y-973413D01*
G54D28*
X640542Y-938013D02*
X640542Y-973413D01*
G54D28*
X551642Y-938013D02*
X551642Y-973413D01*
G54D28*
X539042Y-938013D02*
X539042Y-973413D01*
G54D28*
X526242Y-938013D02*
X526242Y-973413D01*
G54D28*
X513542Y-938013D02*
X513542Y-973413D01*
G54D28*
X777942Y-938013D02*
X777942Y-973413D01*
G54D28*
X765142Y-938013D02*
X765142Y-973413D01*
G54D28*
X752442Y-938013D02*
X752442Y-973413D01*
G54D28*
X739842Y-938013D02*
X739842Y-973413D01*
G54D28*
X714342Y-938013D02*
X714342Y-973413D01*
G54D28*
X790542Y-938013D02*
X790542Y-973413D01*
G54D28*
X701642Y-938013D02*
X701642Y-973413D01*
G54D28*
X689042Y-938013D02*
X689042Y-973413D01*
G54D28*
X676242Y-938013D02*
X676242Y-973413D01*
G54D28*
X663542Y-938013D02*
X663542Y-973413D01*
G54D28*
X927943Y-938013D02*
X927943Y-973413D01*
G54D28*
X915143Y-938013D02*
X915143Y-973413D01*
G54D28*
X902443Y-938013D02*
X902443Y-973413D01*
G54D28*
X889843Y-938013D02*
X889843Y-973413D01*
G54D28*
X864343Y-938013D02*
X864343Y-973413D01*
G54D28*
X940543Y-938013D02*
X940543Y-973413D01*
G54D28*
X851643Y-938013D02*
X851643Y-973413D01*
G54D28*
X839043Y-938013D02*
X839043Y-973413D01*
G54D28*
X826243Y-938013D02*
X826243Y-973413D01*
G54D28*
X813543Y-938013D02*
X813543Y-973413D01*
G54D28*
X927943Y-758013D02*
X927942Y-793413D01*
G54D28*
X915142Y-758013D02*
X915142Y-793413D01*
G54D28*
X902442Y-758013D02*
X902442Y-793413D01*
G54D28*
X889842Y-758013D02*
X889842Y-793413D01*
G54D28*
X864342Y-758013D02*
X864342Y-793413D01*
G54D28*
X940542Y-758013D02*
X940542Y-793413D01*
G54D28*
X851642Y-758013D02*
X851642Y-793413D01*
G54D28*
X839042Y-758013D02*
X839042Y-793413D01*
G54D28*
X826242Y-758013D02*
X826242Y-793413D01*
G54D28*
X813542Y-758013D02*
X813542Y-793413D01*
G54D28*
X777943Y-758013D02*
X777942Y-793413D01*
G54D28*
X765142Y-758013D02*
X765142Y-793413D01*
G54D28*
X752442Y-758013D02*
X752442Y-793413D01*
G54D28*
X739842Y-758013D02*
X739842Y-793413D01*
G54D28*
X714342Y-758013D02*
X714342Y-793413D01*
G54D28*
X790542Y-758013D02*
X790542Y-793413D01*
G54D28*
X701642Y-758013D02*
X701642Y-793413D01*
G54D28*
X689042Y-758013D02*
X689042Y-793413D01*
G54D28*
X676242Y-758013D02*
X676242Y-793413D01*
G54D28*
X663542Y-758013D02*
X663542Y-793413D01*
G54D28*
X927943Y-578013D02*
X927942Y-613413D01*
G54D28*
X915142Y-578013D02*
X915142Y-613413D01*
G54D28*
X902442Y-578013D02*
X902442Y-613413D01*
G54D28*
X889842Y-578013D02*
X889842Y-613413D01*
G54D28*
X864342Y-578013D02*
X864342Y-613413D01*
G54D28*
X940542Y-578013D02*
X940542Y-613413D01*
G54D28*
X851642Y-578013D02*
X851642Y-613413D01*
G54D28*
X839042Y-578013D02*
X839042Y-613413D01*
G54D28*
X826242Y-578013D02*
X826242Y-613413D01*
G54D28*
X813542Y-578013D02*
X813542Y-613413D01*
G54D28*
X777943Y-578013D02*
X777942Y-613413D01*
G54D28*
X765142Y-578013D02*
X765142Y-613413D01*
G54D28*
X752442Y-578013D02*
X752442Y-613413D01*
G54D28*
X739842Y-578013D02*
X739842Y-613413D01*
G54D28*
X714342Y-578013D02*
X714342Y-613413D01*
G54D28*
X790542Y-578013D02*
X790542Y-613413D01*
G54D28*
X701642Y-578013D02*
X701642Y-613413D01*
G54D28*
X689042Y-578013D02*
X689042Y-613413D01*
G54D28*
X676242Y-578013D02*
X676242Y-613413D01*
G54D28*
X663542Y-578013D02*
X663542Y-613413D01*
G54D28*
X927943Y-398013D02*
X927942Y-433413D01*
G54D28*
X915142Y-398013D02*
X915142Y-433413D01*
G54D28*
X902442Y-398013D02*
X902442Y-433413D01*
G54D28*
X889842Y-398013D02*
X889842Y-433413D01*
G54D28*
X864342Y-398013D02*
X864342Y-433413D01*
G54D28*
X940542Y-398013D02*
X940542Y-433413D01*
G54D28*
X851642Y-398013D02*
X851642Y-433413D01*
G54D28*
X839042Y-398013D02*
X839042Y-433413D01*
G54D28*
X826242Y-398013D02*
X826242Y-433413D01*
G54D28*
X813542Y-398013D02*
X813542Y-433413D01*
G54D28*
X777943Y-398013D02*
X777942Y-433413D01*
G54D28*
X765142Y-398013D02*
X765142Y-433413D01*
G54D28*
X752442Y-398013D02*
X752442Y-433413D01*
G54D28*
X739842Y-398013D02*
X739842Y-433413D01*
G54D28*
X714342Y-398013D02*
X714342Y-433413D01*
G54D28*
X790542Y-398013D02*
X790542Y-433413D01*
G54D28*
X701642Y-398013D02*
X701642Y-433413D01*
G54D28*
X689042Y-398013D02*
X689042Y-433413D01*
G54D28*
X676242Y-398013D02*
X676242Y-433413D01*
G54D28*
X663542Y-398013D02*
X663542Y-433413D01*
G54D28*
X618445Y-751838D02*
X618445Y-793588D01*
G54D28*
X605645Y-751838D02*
X605645Y-793588D01*
G54D28*
X592945Y-751838D02*
X592945Y-793588D01*
G54D28*
X580345Y-751838D02*
X580345Y-793588D01*
G54D28*
X567545Y-751838D02*
X567545Y-793588D01*
G54D28*
X554845Y-751838D02*
X554845Y-793588D01*
G54D28*
X631045Y-751838D02*
X631045Y-793588D01*
G54D28*
X927943Y-218013D02*
X927942Y-253413D01*
G54D28*
X915142Y-218013D02*
X915142Y-253413D01*
G54D28*
X902442Y-218013D02*
X902442Y-253413D01*
G54D28*
X889842Y-218013D02*
X889842Y-253413D01*
G54D28*
X864342Y-218013D02*
X864342Y-253413D01*
G54D28*
X940542Y-218013D02*
X940542Y-253413D01*
G54D28*
X851642Y-218013D02*
X851642Y-253413D01*
G54D28*
X839042Y-218013D02*
X839042Y-253413D01*
G54D28*
X826242Y-218013D02*
X826242Y-253413D01*
G54D28*
X813542Y-218013D02*
X813542Y-253413D01*
G54D28*
X777943Y-218013D02*
X777943Y-253413D01*
G54D28*
X765143Y-218013D02*
X765143Y-253413D01*
G54D28*
X752443Y-218013D02*
X752443Y-253413D01*
G54D28*
X739843Y-218013D02*
X739843Y-253413D01*
G54D28*
X714343Y-218013D02*
X714343Y-253413D01*
G54D28*
X790543Y-218013D02*
X790543Y-253413D01*
G54D28*
X701643Y-218013D02*
X701643Y-253413D01*
G54D28*
X689043Y-218013D02*
X689043Y-253413D01*
G54D28*
X676243Y-218013D02*
X676243Y-253413D01*
G54D28*
X663543Y-218013D02*
X663543Y-253413D01*
X160747Y-532741D02*
G54D10*
D03*
X179796Y-532741D02*
G54D10*
D03*
X198846Y-532741D02*
G54D10*
D03*
X198847Y-419902D02*
G54D10*
D03*
X514627Y-286224D02*
G54D29*
D03*
X505222Y-286226D02*
G54D29*
D03*
X495627Y-286224D02*
G54D29*
D03*
X495627Y-312123D02*
G54D29*
D03*
X514628Y-312124D02*
G54D29*
D03*
X505222Y-312126D02*
G54D29*
D03*
G54D28*
X618445Y-544192D02*
X618445Y-585942D01*
G54D28*
X605645Y-544193D02*
X605645Y-585943D01*
G54D28*
X592945Y-544193D02*
X592945Y-585943D01*
G54D28*
X580345Y-544193D02*
X580345Y-585943D01*
G54D28*
X567545Y-544193D02*
X567545Y-585942D01*
G54D28*
X554845Y-544193D02*
X554845Y-585942D01*
G54D28*
X631045Y-544192D02*
X631045Y-585943D01*
X486211Y-509052D02*
G54D30*
D03*
X442211Y-509052D02*
G54D31*
D03*
X508211Y-409052D02*
G54D31*
D03*
X476211Y-409052D02*
G54D30*
D03*
X442211Y-409052D02*
G54D30*
D03*
X581236Y-440802D02*
G54D18*
D03*
X581236Y-423802D02*
G54D18*
D03*
X309761Y-144096D02*
G54D32*
D03*
X518319Y-394216D02*
G54D19*
D03*
X535319Y-394216D02*
G54D19*
D03*
X393761Y-144096D02*
G54D32*
D03*
X381761Y-144096D02*
G54D32*
D03*
X369761Y-144096D02*
G54D32*
D03*
X357761Y-144096D02*
G54D32*
D03*
X345761Y-144096D02*
G54D32*
D03*
X333761Y-144096D02*
G54D32*
D03*
X321761Y-144096D02*
G54D32*
D03*
X435500Y-122000D02*
G54D32*
D03*
X519500Y-122000D02*
G54D32*
D03*
X507500Y-122000D02*
G54D32*
D03*
X495500Y-122000D02*
G54D32*
D03*
X483500Y-122000D02*
G54D32*
D03*
X471500Y-122000D02*
G54D32*
D03*
X459500Y-122000D02*
G54D32*
D03*
X447500Y-122000D02*
G54D32*
D03*
G54D33*
X230000Y-235201D02*
X230000Y-214057D01*
X240000Y-235201D02*
X240000Y-214057D01*
X250000Y-235201D02*
X250000Y-214057D01*
X260000Y-235201D02*
X260000Y-214057D01*
X270000Y-235201D02*
X270000Y-214057D01*
X280000Y-235201D02*
X280000Y-214057D01*
X220480Y-230000D02*
X287873Y-230000D01*
X220482Y-220000D02*
X287875Y-220000D01*
G54D33*
X220483Y-214057D02*
X220479Y-235201D01*
X287872Y-235201D01*
X287876Y-214057D01*
X220483Y-214057D01*
G54D28*
X618445Y-336548D02*
X618445Y-378298D01*
G54D28*
X605645Y-336548D02*
X605645Y-378298D01*
G54D28*
X592945Y-336548D02*
X592945Y-378298D01*
G54D28*
X580345Y-336548D02*
X580345Y-378298D01*
G54D28*
X567545Y-336548D02*
X567545Y-378298D01*
G54D28*
X554845Y-336548D02*
X554845Y-378298D01*
G54D28*
X631045Y-336548D02*
X631045Y-378298D01*
M02*
