%FSLAX34Y34*%
%MOMM*%
%LNSILK_BOTTOM*%
G71*
G01*
%ADD10C, 0.150*%
%ADD11C, 0.300*%
%ADD12C, 0.000*%
%ADD13C, 0.200*%
%ADD14C, 0.100*%
%ADD15C, 0.222*%
%LPD*%
G54D10*
X462821Y-370110D02*
X452122Y-370110D01*
X452121Y-339910D01*
X462821Y-339910D01*
X462821Y-370110D01*
G54D10*
X460022Y-370110D02*
X454921Y-370110D01*
X454921Y-364510D01*
X460021Y-364510D01*
X460022Y-370110D01*
G54D10*
X480661Y-392594D02*
X480661Y-400307D01*
X430661Y-400307D01*
X430661Y-378307D01*
X480661Y-378307D01*
G54D10*
X428750Y-400310D02*
X408750Y-400310D01*
X408750Y-362310D01*
X428750Y-362310D01*
X428750Y-400310D01*
G54D10*
X388478Y-555468D02*
X388478Y-505468D01*
X350478Y-505468D01*
X350478Y-555468D01*
X388478Y-555468D01*
G54D10*
X374978Y-512068D02*
X374978Y-505468D01*
X363978Y-505467D01*
X363978Y-512068D01*
X374978Y-512068D01*
G54D11*
G75*
G01X384474Y-510041D02*
G03X384474Y-510041I-1000J0D01*
G01*
G36*
G75*
G01X384474Y-510041D02*
G03X384474Y-510041I-1000J0D01*
G01*
G37*
X384474Y-510041D01*
G54D10*
X415399Y-502239D02*
X427446Y-502239D01*
X427446Y-536239D01*
G54D10*
X439065Y-521190D02*
X439065Y-503190D01*
X473064Y-503189D01*
X473065Y-521190D01*
X439065Y-521190D01*
G54D10*
X226830Y-459871D02*
X212688Y-445729D01*
X248822Y-409596D01*
X262964Y-423738D01*
X226830Y-459871D01*
G54D10*
X223295Y-456336D02*
X216224Y-449265D01*
X219759Y-445728D01*
X226830Y-452800D01*
X223295Y-456336D01*
G54D10*
X312825Y-578106D02*
X312825Y-560106D01*
X278825Y-560106D01*
X278825Y-578106D01*
X312825Y-578106D01*
G54D10*
X409446Y-506208D02*
X409446Y-536239D01*
G54D10*
X409446Y-526383D02*
X409446Y-560383D01*
X427446Y-560383D01*
X427446Y-526383D01*
G54D10*
X565584Y-344818D02*
X547584Y-344818D01*
X547584Y-310818D01*
X565584Y-310818D01*
X565584Y-344818D01*
G54D10*
X547725Y-344818D02*
X529725Y-344818D01*
X529725Y-310818D01*
X547725Y-310818D01*
X547725Y-344818D01*
G54D10*
X244327Y-560106D02*
X244326Y-578106D01*
X278326Y-578106D01*
X278327Y-560106D01*
X244327Y-560106D01*
G54D10*
X302893Y-308190D02*
X322892Y-308190D01*
X322893Y-359290D01*
X302893Y-359290D01*
X302893Y-308190D01*
G54D10*
X307892Y-308190D02*
X317893Y-308190D01*
X317893Y-313190D01*
X307892Y-313190D01*
X307892Y-308190D01*
G54D12*
G75*
G01X210066Y-446088D02*
G03X210066Y-446088I-2500J0D01*
G01*
G36*
G75*
G01X210066Y-446088D02*
G03X210066Y-446088I-2500J0D01*
G01*
G37*
X210066Y-446088D01*
G54D12*
G75*
G01X329922Y-304007D02*
G03X329922Y-304007I-2500J0D01*
G01*
G36*
G75*
G01X329922Y-304007D02*
G03X329922Y-304007I-2500J0D01*
G01*
G37*
X329922Y-304007D01*
G54D10*
X302304Y-479478D02*
X302304Y-513478D01*
X320304Y-513478D01*
X320304Y-479478D01*
G54D10*
X301254Y-479478D02*
X301254Y-513478D01*
X283254Y-513478D01*
X283254Y-479478D01*
G54D10*
X509818Y-422266D02*
X509818Y-404266D01*
X543818Y-404266D01*
X543819Y-422266D01*
X509818Y-422266D01*
G54D10*
X520227Y-304523D02*
X520227Y-293824D01*
X490027Y-293823D01*
X490027Y-304523D01*
X520227Y-304523D01*
G54D10*
X520227Y-301724D02*
X520228Y-296623D01*
X514627Y-296623D01*
X514627Y-301723D01*
X520227Y-301724D01*
G54D13*
G75*
G01X523859Y-306567D02*
G03X523859Y-306567I-500J0D01*
G01*
G54D14*
X536211Y-509008D02*
X416211Y-509008D01*
X416211Y-409008D01*
X536211Y-409008D01*
X536211Y-509008D01*
G54D14*
X566211Y-459008D02*
X566211Y-441008D01*
X536211Y-441008D01*
X536211Y-477008D01*
X566211Y-477008D01*
X566211Y-459008D01*
G54D15*
X512833Y-427052D02*
X505366Y-427052D01*
X505366Y-432497D01*
X506299Y-432497D01*
X508166Y-431719D01*
X510033Y-431719D01*
X511899Y-432497D01*
X512833Y-434052D01*
X512833Y-437164D01*
X511899Y-438719D01*
X510033Y-439497D01*
X508166Y-439497D01*
X506299Y-438719D01*
X505366Y-437164D01*
G54D15*
X481115Y-439497D02*
X481115Y-427052D01*
X475515Y-434830D01*
X475515Y-436386D01*
X482982Y-436386D01*
G54D15*
X440226Y-429386D02*
X441160Y-427830D01*
X443026Y-427052D01*
X444893Y-427052D01*
X446760Y-427830D01*
X447693Y-429386D01*
X447693Y-430941D01*
X446760Y-432497D01*
X444893Y-433274D01*
X446760Y-434052D01*
X447693Y-435608D01*
X447693Y-437164D01*
X446760Y-438719D01*
X444893Y-439497D01*
X443026Y-439497D01*
X441160Y-438719D01*
X440226Y-437164D01*
G54D15*
X492833Y-479386D02*
X491899Y-477830D01*
X490033Y-477052D01*
X488166Y-477052D01*
X486299Y-477830D01*
X485366Y-479386D01*
X485366Y-483274D01*
X485366Y-484052D01*
X488166Y-482497D01*
X490033Y-482497D01*
X491899Y-483274D01*
X492833Y-484830D01*
X492833Y-487163D01*
X491899Y-488719D01*
X490033Y-489497D01*
X488166Y-489497D01*
X486299Y-488719D01*
X485366Y-487163D01*
X485366Y-483274D01*
G54D15*
X440357Y-477052D02*
X447824Y-477052D01*
X446890Y-478608D01*
X445024Y-480941D01*
X443157Y-484052D01*
X442224Y-486386D01*
X442224Y-489497D01*
G54D10*
X590236Y-449302D02*
X572236Y-449302D01*
X572236Y-415302D01*
X590236Y-415302D01*
X590236Y-449302D01*
G54D10*
X509818Y-403216D02*
X509818Y-385216D01*
X543818Y-385216D01*
X543819Y-403216D01*
X509818Y-403216D01*
M02*
