; Drill file
; Format: 2.4 (00.0000)
M48
INCH
T01C0.0157
T02C0.0197
T03C0.0236
T04C0.0276
T05C0.0413
T06C0.063
T07C0.0984
%
G05
G90
T01
X006130Y-009250
X006880Y-009250
X007870Y-009250
X008870Y-009250
X009880Y-009250
X009880Y-008250
X008870Y-008250
X007870Y-008250
X006880Y-008250
X006130Y-008250
X008870Y-007250
X009880Y-007250
X009880Y-006250
X009880Y-005250
X008870Y-005250
X007870Y-005250
X006880Y-005250
X008870Y-006250
X010870Y-006250
X010870Y-007250
X010870Y-008250
X010870Y-009250
X010870Y-005250
T02
X005000Y-035930
X007500Y-032460
X008410Y-032460
X005560Y-031320
X002500Y-032460
X002040Y-031240
X002040Y-026170
X005560Y-026240
X005950Y-020030
X007260Y-018180
X008530Y-019100
X010560Y-016490
X008680Y-015320
X009580Y-014460
X009470Y-013990
X009870Y-013700
X009200Y-013430
X010600Y-012850
X012350Y-014370
X014150Y-013730
X014080Y-015380
X014580Y-015870
X015050Y-016280
X016060Y-016840
X015810Y-014840
X016200Y-013710
X019010Y-014640
X019600Y-012670
X020030Y-012430
X020650Y-013320
X022500Y-009530
X023700Y-009510
X024790Y-009430
X026120Y-011200
X028620Y-014670
X031120Y-011200
X032030Y-011200
X034530Y-014670
X037030Y-011200
X034530Y-007580
X032030Y-004110
X031120Y-004110
X028620Y-007580
X026120Y-004110
X015780Y-003760
X013240Y-001200
X005600Y-003920
X003900Y-001990
X002510Y-006060
X004820Y-006370
X004820Y-006810
X004030Y-012090
X002420Y-014540
X003820Y-017930
X003170Y-018980
X011490Y-021260
X014250Y-020650
X015190Y-019090
X018080Y-019010
X018280Y-017680
X020590Y-018060
X022500Y-017700
X023700Y-017690
X024790Y-017600
X026120Y-018280
X028620Y-021760
X031120Y-018280
X032030Y-018280
X034530Y-021760
X037030Y-018280
X037030Y-025370
X034530Y-028840
X032030Y-025370
X031120Y-025370
X028620Y-028840
X026120Y-025370
X024790Y-025780
X023700Y-025860
X022500Y-025880
X020700Y-027650
X017600Y-026320
X013590Y-026290
X013590Y-031370
X013410Y-032460
X014310Y-032460
X017600Y-031400
X019310Y-032460
X020220Y-032460
X022720Y-035930
X025220Y-032460
X026120Y-032460
X028620Y-035930
X031120Y-032460
X032030Y-032460
X034530Y-035930
X037030Y-032460
X020700Y-022570
X015680Y-010490
X014930Y-009990
X037030Y-004110
X016810Y-035930
X010910Y-035930
T03
X001540Y-030710
X002550Y-030710
X003550Y-030710
X004550Y-030710
X005560Y-030710
X006560Y-030710
X007570Y-030710
X008570Y-030710
X009570Y-030710
X010580Y-030710
X011580Y-030710
X012580Y-030710
X013590Y-030710
X014590Y-030710
X015600Y-030710
X016600Y-030710
X017600Y-030710
X018610Y-030710
X019610Y-030710
X020620Y-030710
X020110Y-029830
X019610Y-029040
X019110Y-028250
X018610Y-029040
X018110Y-028250
X017600Y-029040
X018110Y-029830
X019110Y-029830
X020620Y-029040
X020110Y-028250
X020620Y-025630
X019610Y-025630
X018610Y-025630
X017600Y-025630
X016600Y-025630
X015600Y-025630
X014590Y-025630
X013590Y-025630
X012580Y-025630
X011580Y-025630
X010580Y-025630
X009570Y-025630
X008570Y-025630
X007570Y-025630
X006560Y-025630
X005560Y-025630
X004550Y-025630
X003550Y-025630
X002550Y-025630
X001540Y-025630
X002040Y-024750
X002550Y-023960
X003050Y-024750
X003550Y-023960
X004050Y-023170
X004550Y-023960
X004050Y-024750
X005560Y-023960
X006060Y-024750
X006560Y-023960
X007060Y-024750
X007570Y-023960
X008070Y-024750
X008570Y-023960
X008070Y-023170
X007060Y-023170
X006060Y-023170
X006330Y-020970
X007080Y-020970
X007830Y-020970
X010080Y-023170
X009570Y-023960
X010080Y-024750
X010580Y-023960
X011080Y-024750
X011580Y-023960
X012080Y-024750
X012580Y-023960
X012080Y-023170
X011080Y-023170
X013590Y-023960
X014090Y-024750
X014590Y-023960
X015090Y-024750
X015600Y-023960
X016100Y-024750
X016600Y-023960
X016100Y-023170
X015090Y-023170
X014090Y-023170
X017600Y-023960
X018110Y-024750
X018610Y-023960
X018110Y-023170
X019110Y-023170
X019610Y-023960
X019110Y-024750
X020110Y-024750
X020620Y-023960
X020110Y-023170
X016100Y-028250
X015600Y-029040
X015090Y-028250
X014590Y-029040
X014090Y-028250
X013590Y-029040
X014090Y-029830
X015090Y-029830
X016100Y-029830
X016600Y-029040
X012580Y-029040
X012080Y-028250
X011580Y-029040
X011080Y-028250
X010580Y-029040
X010080Y-028250
X009570Y-029040
X010080Y-029830
X011080Y-029830
X012080Y-029830
X008570Y-029040
X008070Y-028250
X007570Y-029040
X007060Y-028250
X006560Y-029040
X006060Y-028250
X005560Y-029040
X006060Y-029830
X007060Y-029830
X008070Y-029830
X004550Y-029040
X004050Y-028250
X003550Y-029040
X003050Y-028250
X002550Y-029040
X003050Y-029830
X004050Y-029830
X002040Y-029830
X001540Y-029040
X002040Y-028250
X001540Y-023960
X002040Y-023170
X003050Y-023170
X005390Y-017110
X006330Y-016530
X007830Y-016530
X008640Y-016530
X009390Y-016530
X011220Y-017300
X011250Y-013420
X016370Y-012930
X019740Y-013460
X018910Y-008560
X015750Y-008590
X015220Y-009120
X015870Y-006810
X015590Y-006220
X015090Y-005750
X014560Y-006250
X016610Y-006370
X014470Y-004190
X005850Y-001820
X000190Y-005340
T04
X022800Y-012690
X022800Y-011110
T05
X010470Y-020770
X020500Y-020810
T06
X017570Y-018070
T07
X018650Y-004680
M30
