%FSLAX34Y34*%
%MOMM*%
%LNSOLDERMASK_TOP*%
G71*
G01*
%ADD10C, 1.900*%
%ADD11C, 2.100*%
%ADD12R, 1.800X1.800*%
%ADD13R, 1.600X1.600*%
%ADD14R, 1.600X1.500*%
%ADD15R, 1.100X1.100*%
%ADD16R, 0.500X0.500*%
%ADD17C, 0.200*%
%ADD18C, 0.500*%
%ADD19C, 1.500*%
%ADD20R, 1.300X1.400*%
%ADD21R, 1.400X1.400*%
%ADD22R, 2.600X1.000*%
%ADD23R, 1.400X1.300*%
%ADD24R, 1.500X1.800*%
%ADD25R, 1.800X1.600*%
%ADD26R, 1.200X1.400*%
%ADD27R, 1.000X1.300*%
%ADD28R, 1.500X1.600*%
%ADD29R, 2.200X1.000*%
%ADD30R, 1.300X1.300*%
%ADD31R, 1.100X1.000*%
%ADD32R, 1.100X1.600*%
%ADD33C, 0.950*%
%ADD34R, 1.000X2.600*%
%ADD35R, 1.200X1.200*%
%LPD*%
X39155Y-650911D02*
G54D10*
D03*
X141155Y-650911D02*
G54D10*
D03*
X243155Y-650911D02*
G54D10*
D03*
X345155Y-650911D02*
G54D10*
D03*
X447155Y-650911D02*
G54D10*
D03*
X523655Y-650911D02*
G54D10*
D03*
X39155Y-608634D02*
G54D10*
D03*
X64655Y-608636D02*
G54D10*
D03*
X90156Y-608634D02*
G54D11*
D03*
X115655Y-608636D02*
G54D10*
D03*
X141155Y-608636D02*
G54D10*
D03*
X166655Y-608636D02*
G54D10*
D03*
X192155Y-608636D02*
G54D10*
D03*
X217655Y-608636D02*
G54D10*
D03*
X243155Y-608636D02*
G54D10*
D03*
X268655Y-608636D02*
G54D10*
D03*
X294155Y-608636D02*
G54D10*
D03*
X319655Y-608636D02*
G54D10*
D03*
X345155Y-608636D02*
G54D10*
D03*
X370655Y-608636D02*
G54D10*
D03*
X396155Y-608636D02*
G54D10*
D03*
X421655Y-608636D02*
G54D10*
D03*
X447155Y-608636D02*
G54D10*
D03*
X472655Y-608636D02*
G54D10*
D03*
X498155Y-608636D02*
G54D10*
D03*
X523655Y-608636D02*
G54D10*
D03*
X51905Y-588634D02*
G54D10*
D03*
X77405Y-588634D02*
G54D10*
D03*
X102905Y-588636D02*
G54D10*
D03*
X153905Y-588636D02*
G54D10*
D03*
X179405Y-588636D02*
G54D10*
D03*
X204905Y-588636D02*
G54D10*
D03*
X255905Y-588636D02*
G54D10*
D03*
X281405Y-588636D02*
G54D10*
D03*
X306905Y-588636D02*
G54D10*
D03*
X357905Y-588636D02*
G54D10*
D03*
X383405Y-588636D02*
G54D10*
D03*
X408905Y-588636D02*
G54D10*
D03*
X459905Y-588636D02*
G54D10*
D03*
X485405Y-588636D02*
G54D10*
D03*
X510905Y-588636D02*
G54D10*
D03*
X77327Y-667661D02*
G54D12*
D03*
X102727Y-667661D02*
G54D12*
D03*
X179327Y-667661D02*
G54D12*
D03*
X204727Y-667661D02*
G54D12*
D03*
X281327Y-667661D02*
G54D12*
D03*
X306727Y-667661D02*
G54D12*
D03*
X383327Y-667661D02*
G54D12*
D03*
X408727Y-667661D02*
G54D12*
D03*
X485327Y-667661D02*
G54D12*
D03*
X510727Y-667661D02*
G54D12*
D03*
X106863Y-578687D02*
G54D13*
D03*
X84638Y-578687D02*
G54D13*
D03*
X59238Y-578687D02*
G54D13*
D03*
X35823Y-578687D02*
G54D13*
D03*
X92652Y-215006D02*
G54D14*
D03*
X92652Y-194006D02*
G54D14*
D03*
X52547Y-195602D02*
G54D15*
D03*
X52547Y-214652D02*
G54D15*
D03*
X78662Y-214652D02*
G54D15*
D03*
X78709Y-195544D02*
G54D15*
D03*
G36*
X272826Y-99562D02*
X277826Y-99561D01*
X277827Y-104561D01*
X272827Y-104562D01*
X272826Y-99562D01*
G37*
G36*
X267826Y-99561D02*
X272826Y-99561D01*
X272827Y-104561D01*
X267827Y-104561D01*
X267826Y-99561D01*
G37*
X265327Y-102061D02*
G54D16*
D03*
X260327Y-102061D02*
G54D16*
D03*
X255327Y-102061D02*
G54D16*
D03*
X250327Y-102061D02*
G54D16*
D03*
G36*
X242826Y-99561D02*
X247826Y-99561D01*
X247827Y-104561D01*
X242827Y-104561D01*
X242826Y-99561D01*
G37*
X240327Y-102061D02*
G54D16*
D03*
X235327Y-102061D02*
G54D16*
D03*
X230327Y-102061D02*
G54D16*
D03*
X225326Y-102061D02*
G54D16*
D03*
G36*
X217826Y-99562D02*
X222826Y-99561D01*
X222827Y-104561D01*
X217827Y-104562D01*
X217826Y-99562D01*
G37*
X215327Y-102061D02*
G54D16*
D03*
X210327Y-102061D02*
G54D16*
D03*
X205327Y-102061D02*
G54D16*
D03*
X200327Y-102061D02*
G54D16*
D03*
X195327Y-102061D02*
G54D16*
D03*
G36*
X187826Y-99561D02*
X192826Y-99561D01*
X192827Y-104561D01*
X187827Y-104561D01*
X187826Y-99561D01*
G37*
G36*
X182826Y-99561D02*
X187826Y-99561D01*
X187827Y-104561D01*
X182827Y-104561D01*
X182826Y-99561D01*
G37*
X180327Y-102061D02*
G54D16*
D03*
X175327Y-102061D02*
G54D16*
D03*
X170327Y-102061D02*
G54D16*
D03*
G36*
X162826Y-99562D02*
X167826Y-99561D01*
X167827Y-104561D01*
X162827Y-104562D01*
X162826Y-99562D01*
G37*
X160327Y-102061D02*
G54D16*
D03*
G36*
X152826Y-99562D02*
X157826Y-99561D01*
X157827Y-104561D01*
X152827Y-104562D01*
X152826Y-99562D01*
G37*
G36*
X275822Y-99030D02*
X276822Y-100030D01*
X276822Y-104530D01*
X276322Y-105030D01*
X274322Y-105030D01*
X273822Y-104530D01*
X273822Y-100030D01*
X274822Y-99030D01*
X275822Y-99030D01*
G37*
G54D17*
X275822Y-99030D02*
X276822Y-100030D01*
X276822Y-104530D01*
X276322Y-105030D01*
X274322Y-105030D01*
X273822Y-104530D01*
X273822Y-100030D01*
X274822Y-99030D01*
X275822Y-99030D01*
G36*
X155822Y-99030D02*
X156822Y-100030D01*
X156822Y-104530D01*
X156322Y-105030D01*
X154322Y-105030D01*
X153822Y-104530D01*
X153822Y-100030D01*
X154822Y-99030D01*
X155822Y-99030D01*
G37*
G54D17*
X155822Y-99030D02*
X156822Y-100030D01*
X156822Y-104530D01*
X156322Y-105030D01*
X154322Y-105030D01*
X153822Y-104530D01*
X153822Y-100030D01*
X154822Y-99030D01*
X155822Y-99030D01*
G36*
X265822Y-95030D02*
X266822Y-96030D01*
X266822Y-107530D01*
X266322Y-108030D01*
X264322Y-108030D01*
X263822Y-107530D01*
X263822Y-96030D01*
X264822Y-95030D01*
X265822Y-95030D01*
G37*
G54D17*
X265822Y-95030D02*
X266822Y-96030D01*
X266822Y-107530D01*
X266322Y-108030D01*
X264322Y-108030D01*
X263822Y-107530D01*
X263822Y-96030D01*
X264822Y-95030D01*
X265822Y-95030D01*
G36*
X260822Y-95030D02*
X261822Y-96030D01*
X261822Y-107530D01*
X261322Y-108030D01*
X259322Y-108030D01*
X258822Y-107530D01*
X258822Y-96030D01*
X259822Y-95030D01*
X260822Y-95030D01*
G37*
G54D17*
X260822Y-95030D02*
X261822Y-96030D01*
X261822Y-107530D01*
X261322Y-108030D01*
X259322Y-108030D01*
X258822Y-107530D01*
X258822Y-96030D01*
X259822Y-95030D01*
X260822Y-95030D01*
G36*
X255822Y-95030D02*
X256822Y-96030D01*
X256822Y-107530D01*
X256322Y-108030D01*
X254322Y-108030D01*
X253822Y-107530D01*
X253822Y-96030D01*
X254822Y-95030D01*
X255822Y-95030D01*
G37*
G54D17*
X255822Y-95030D02*
X256822Y-96030D01*
X256822Y-107530D01*
X256322Y-108030D01*
X254322Y-108030D01*
X253822Y-107530D01*
X253822Y-96030D01*
X254822Y-95030D01*
X255822Y-95030D01*
G36*
X250822Y-95030D02*
X251822Y-96030D01*
X251822Y-107530D01*
X251322Y-108030D01*
X249322Y-108030D01*
X248822Y-107530D01*
X248822Y-96030D01*
X249822Y-95030D01*
X250822Y-95030D01*
G37*
G54D17*
X250822Y-95030D02*
X251822Y-96030D01*
X251822Y-107530D01*
X251322Y-108030D01*
X249322Y-108030D01*
X248822Y-107530D01*
X248822Y-96030D01*
X249822Y-95030D01*
X250822Y-95030D01*
G36*
X245822Y-95030D02*
X246822Y-96030D01*
X246822Y-107530D01*
X246322Y-108030D01*
X244322Y-108030D01*
X243822Y-107530D01*
X243822Y-96030D01*
X244822Y-95030D01*
X245822Y-95030D01*
G37*
G54D17*
X245822Y-95030D02*
X246822Y-96030D01*
X246822Y-107530D01*
X246322Y-108030D01*
X244322Y-108030D01*
X243822Y-107530D01*
X243822Y-96030D01*
X244822Y-95030D01*
X245822Y-95030D01*
G36*
X240822Y-95030D02*
X241822Y-96030D01*
X241822Y-107530D01*
X241322Y-108030D01*
X239322Y-108030D01*
X238822Y-107530D01*
X238822Y-96030D01*
X239822Y-95030D01*
X240822Y-95030D01*
G37*
G54D17*
X240822Y-95030D02*
X241822Y-96030D01*
X241822Y-107530D01*
X241322Y-108030D01*
X239322Y-108030D01*
X238822Y-107530D01*
X238822Y-96030D01*
X239822Y-95030D01*
X240822Y-95030D01*
G36*
X235822Y-95030D02*
X236822Y-96030D01*
X236822Y-107530D01*
X236322Y-108030D01*
X234322Y-108030D01*
X233822Y-107530D01*
X233822Y-96030D01*
X234822Y-95030D01*
X235822Y-95030D01*
G37*
G54D17*
X235822Y-95030D02*
X236822Y-96030D01*
X236822Y-107530D01*
X236322Y-108030D01*
X234322Y-108030D01*
X233822Y-107530D01*
X233822Y-96030D01*
X234822Y-95030D01*
X235822Y-95030D01*
G36*
X230822Y-95030D02*
X231822Y-96030D01*
X231822Y-107530D01*
X231322Y-108030D01*
X229322Y-108030D01*
X228822Y-107530D01*
X228822Y-96030D01*
X229822Y-95030D01*
X230822Y-95030D01*
G37*
G54D17*
X230822Y-95030D02*
X231822Y-96030D01*
X231822Y-107530D01*
X231322Y-108030D01*
X229322Y-108030D01*
X228822Y-107530D01*
X228822Y-96030D01*
X229822Y-95030D01*
X230822Y-95030D01*
G36*
X225822Y-95030D02*
X226822Y-96030D01*
X226822Y-107530D01*
X226322Y-108030D01*
X224322Y-108030D01*
X223822Y-107530D01*
X223822Y-96030D01*
X224822Y-95030D01*
X225822Y-95030D01*
G37*
G54D17*
X225822Y-95030D02*
X226822Y-96030D01*
X226822Y-107530D01*
X226322Y-108030D01*
X224322Y-108030D01*
X223822Y-107530D01*
X223822Y-96030D01*
X224822Y-95030D01*
X225822Y-95030D01*
G36*
X220822Y-95030D02*
X221822Y-96030D01*
X221822Y-107530D01*
X221322Y-108030D01*
X219322Y-108030D01*
X218822Y-107530D01*
X218822Y-96030D01*
X219822Y-95030D01*
X220822Y-95030D01*
G37*
G54D17*
X220822Y-95030D02*
X221822Y-96030D01*
X221822Y-107530D01*
X221322Y-108030D01*
X219322Y-108030D01*
X218822Y-107530D01*
X218822Y-96030D01*
X219822Y-95030D01*
X220822Y-95030D01*
G36*
X215822Y-95030D02*
X216822Y-96030D01*
X216822Y-107530D01*
X216322Y-108030D01*
X214322Y-108030D01*
X213822Y-107530D01*
X213822Y-96030D01*
X214822Y-95030D01*
X215822Y-95030D01*
G37*
G54D17*
X215822Y-95030D02*
X216822Y-96030D01*
X216822Y-107530D01*
X216322Y-108030D01*
X214322Y-108030D01*
X213822Y-107530D01*
X213822Y-96030D01*
X214822Y-95030D01*
X215822Y-95030D01*
G36*
X210822Y-95030D02*
X211822Y-96030D01*
X211822Y-107530D01*
X211322Y-108030D01*
X209322Y-108030D01*
X208822Y-107530D01*
X208822Y-96030D01*
X209822Y-95030D01*
X210822Y-95030D01*
G37*
G54D17*
X210822Y-95030D02*
X211822Y-96030D01*
X211822Y-107530D01*
X211322Y-108030D01*
X209322Y-108030D01*
X208822Y-107530D01*
X208822Y-96030D01*
X209822Y-95030D01*
X210822Y-95030D01*
G36*
X205822Y-95030D02*
X206822Y-96030D01*
X206822Y-107530D01*
X206322Y-108030D01*
X204322Y-108030D01*
X203822Y-107530D01*
X203822Y-96030D01*
X204822Y-95030D01*
X205822Y-95030D01*
G37*
G54D17*
X205822Y-95030D02*
X206822Y-96030D01*
X206822Y-107530D01*
X206322Y-108030D01*
X204322Y-108030D01*
X203822Y-107530D01*
X203822Y-96030D01*
X204822Y-95030D01*
X205822Y-95030D01*
G36*
X200822Y-95030D02*
X201822Y-96030D01*
X201822Y-107530D01*
X201322Y-108030D01*
X199322Y-108030D01*
X198822Y-107530D01*
X198822Y-96030D01*
X199822Y-95030D01*
X200822Y-95030D01*
G37*
G54D17*
X200822Y-95030D02*
X201822Y-96030D01*
X201822Y-107530D01*
X201322Y-108030D01*
X199322Y-108030D01*
X198822Y-107530D01*
X198822Y-96030D01*
X199822Y-95030D01*
X200822Y-95030D01*
G36*
X195822Y-95030D02*
X196822Y-96030D01*
X196822Y-107530D01*
X196322Y-108030D01*
X194322Y-108030D01*
X193822Y-107530D01*
X193822Y-96030D01*
X194822Y-95030D01*
X195822Y-95030D01*
G37*
G54D17*
X195822Y-95030D02*
X196822Y-96030D01*
X196822Y-107530D01*
X196322Y-108030D01*
X194322Y-108030D01*
X193822Y-107530D01*
X193822Y-96030D01*
X194822Y-95030D01*
X195822Y-95030D01*
G36*
X190822Y-95030D02*
X191822Y-96030D01*
X191822Y-107530D01*
X191322Y-108030D01*
X189322Y-108030D01*
X188822Y-107530D01*
X188822Y-96030D01*
X189822Y-95030D01*
X190822Y-95030D01*
G37*
G54D17*
X190822Y-95030D02*
X191822Y-96030D01*
X191822Y-107530D01*
X191322Y-108030D01*
X189322Y-108030D01*
X188822Y-107530D01*
X188822Y-96030D01*
X189822Y-95030D01*
X190822Y-95030D01*
G36*
X185822Y-95030D02*
X186822Y-96030D01*
X186822Y-107530D01*
X186322Y-108030D01*
X184322Y-108030D01*
X183822Y-107530D01*
X183822Y-96030D01*
X184822Y-95030D01*
X185822Y-95030D01*
G37*
G54D17*
X185822Y-95030D02*
X186822Y-96030D01*
X186822Y-107530D01*
X186322Y-108030D01*
X184322Y-108030D01*
X183822Y-107530D01*
X183822Y-96030D01*
X184822Y-95030D01*
X185822Y-95030D01*
G36*
X180822Y-95030D02*
X181822Y-96030D01*
X181822Y-107530D01*
X181322Y-108030D01*
X179322Y-108030D01*
X178822Y-107530D01*
X178822Y-96030D01*
X179822Y-95030D01*
X180822Y-95030D01*
G37*
G54D17*
X180822Y-95030D02*
X181822Y-96030D01*
X181822Y-107530D01*
X181322Y-108030D01*
X179322Y-108030D01*
X178822Y-107530D01*
X178822Y-96030D01*
X179822Y-95030D01*
X180822Y-95030D01*
G36*
X175822Y-95030D02*
X176822Y-96030D01*
X176822Y-107530D01*
X176322Y-108030D01*
X174322Y-108030D01*
X173822Y-107530D01*
X173822Y-96030D01*
X174822Y-95030D01*
X175822Y-95030D01*
G37*
G54D17*
X175822Y-95030D02*
X176822Y-96030D01*
X176822Y-107530D01*
X176322Y-108030D01*
X174322Y-108030D01*
X173822Y-107530D01*
X173822Y-96030D01*
X174822Y-95030D01*
X175822Y-95030D01*
G36*
X170822Y-95030D02*
X171822Y-96030D01*
X171822Y-107530D01*
X171322Y-108030D01*
X169322Y-108030D01*
X168822Y-107530D01*
X168822Y-96030D01*
X169822Y-95030D01*
X170822Y-95030D01*
G37*
G54D17*
X170822Y-95030D02*
X171822Y-96030D01*
X171822Y-107530D01*
X171322Y-108030D01*
X169322Y-108030D01*
X168822Y-107530D01*
X168822Y-96030D01*
X169822Y-95030D01*
X170822Y-95030D01*
G36*
X165822Y-95030D02*
X166822Y-96030D01*
X166822Y-107530D01*
X166322Y-108030D01*
X164322Y-108030D01*
X163822Y-107530D01*
X163822Y-96030D01*
X164822Y-95030D01*
X165822Y-95030D01*
G37*
G54D17*
X165822Y-95030D02*
X166822Y-96030D01*
X166822Y-107530D01*
X166322Y-108030D01*
X164322Y-108030D01*
X163822Y-107530D01*
X163822Y-96030D01*
X164822Y-95030D01*
X165822Y-95030D01*
G36*
X160822Y-95030D02*
X161822Y-96030D01*
X161822Y-107530D01*
X161322Y-108030D01*
X159322Y-108030D01*
X158822Y-107530D01*
X158822Y-96030D01*
X159822Y-95030D01*
X160822Y-95030D01*
G37*
G54D17*
X160822Y-95030D02*
X161822Y-96030D01*
X161822Y-107530D01*
X161322Y-108030D01*
X159322Y-108030D01*
X158822Y-107530D01*
X158822Y-96030D01*
X159822Y-95030D01*
X160822Y-95030D01*
G36*
X270822Y-95030D02*
X271822Y-96030D01*
X271822Y-107530D01*
X271322Y-108030D01*
X269322Y-108030D01*
X268822Y-107530D01*
X268822Y-96030D01*
X269822Y-95030D01*
X270822Y-95030D01*
G37*
G54D17*
X270822Y-95030D02*
X271822Y-96030D01*
X271822Y-107530D01*
X271322Y-108030D01*
X269322Y-108030D01*
X268822Y-107530D01*
X268822Y-96030D01*
X269822Y-95030D01*
X270822Y-95030D01*
X293290Y-240025D02*
G54D16*
D03*
X293290Y-235025D02*
G54D16*
D03*
X293290Y-230025D02*
G54D16*
D03*
X293290Y-225025D02*
G54D16*
D03*
X293290Y-220025D02*
G54D16*
D03*
X293290Y-215025D02*
G54D16*
D03*
X293290Y-210025D02*
G54D16*
D03*
X293290Y-205025D02*
G54D16*
D03*
X293290Y-200025D02*
G54D16*
D03*
X293290Y-195025D02*
G54D16*
D03*
X293290Y-190025D02*
G54D16*
D03*
X293291Y-185025D02*
G54D16*
D03*
X293291Y-180025D02*
G54D16*
D03*
X293290Y-175025D02*
G54D16*
D03*
X293290Y-170025D02*
G54D16*
D03*
X293290Y-165025D02*
G54D16*
D03*
X293291Y-160025D02*
G54D16*
D03*
X293290Y-155025D02*
G54D16*
D03*
X293290Y-150025D02*
G54D16*
D03*
X293290Y-145025D02*
G54D16*
D03*
X293290Y-140025D02*
G54D16*
D03*
X293290Y-135025D02*
G54D16*
D03*
X293290Y-130025D02*
G54D16*
D03*
X293290Y-125025D02*
G54D16*
D03*
X293290Y-120025D02*
G54D16*
D03*
G36*
X296322Y-240530D02*
X295322Y-241530D01*
X290822Y-241530D01*
X290322Y-241030D01*
X290322Y-239030D01*
X290822Y-238530D01*
X295322Y-238530D01*
X296322Y-239530D01*
X296322Y-240530D01*
G37*
G54D17*
X296322Y-240530D02*
X295322Y-241530D01*
X290822Y-241530D01*
X290322Y-241030D01*
X290322Y-239030D01*
X290822Y-238530D01*
X295322Y-238530D01*
X296322Y-239530D01*
X296322Y-240530D01*
G36*
X296322Y-120530D02*
X295322Y-121530D01*
X290822Y-121530D01*
X290322Y-121030D01*
X290322Y-119030D01*
X290822Y-118530D01*
X295322Y-118530D01*
X296322Y-119530D01*
X296322Y-120530D01*
G37*
G54D17*
X296322Y-120530D02*
X295322Y-121530D01*
X290822Y-121530D01*
X290322Y-121030D01*
X290322Y-119030D01*
X290822Y-118530D01*
X295322Y-118530D01*
X296322Y-119530D01*
X296322Y-120530D01*
G36*
X300322Y-230530D02*
X299322Y-231530D01*
X287822Y-231530D01*
X287322Y-231030D01*
X287322Y-229030D01*
X287822Y-228530D01*
X299322Y-228530D01*
X300322Y-229530D01*
X300322Y-230530D01*
G37*
G54D17*
X300322Y-230530D02*
X299322Y-231530D01*
X287822Y-231530D01*
X287322Y-231030D01*
X287322Y-229030D01*
X287822Y-228530D01*
X299322Y-228530D01*
X300322Y-229530D01*
X300322Y-230530D01*
G36*
X300322Y-225530D02*
X299322Y-226530D01*
X287822Y-226530D01*
X287322Y-226030D01*
X287322Y-224030D01*
X287822Y-223530D01*
X299322Y-223530D01*
X300322Y-224530D01*
X300322Y-225530D01*
G37*
G54D17*
X300322Y-225530D02*
X299322Y-226530D01*
X287822Y-226530D01*
X287322Y-226030D01*
X287322Y-224030D01*
X287822Y-223530D01*
X299322Y-223530D01*
X300322Y-224530D01*
X300322Y-225530D01*
G36*
X300322Y-220530D02*
X299322Y-221530D01*
X287822Y-221530D01*
X287322Y-221030D01*
X287322Y-219030D01*
X287822Y-218530D01*
X299322Y-218530D01*
X300322Y-219530D01*
X300322Y-220530D01*
G37*
G54D17*
X300322Y-220530D02*
X299322Y-221530D01*
X287822Y-221530D01*
X287322Y-221030D01*
X287322Y-219030D01*
X287822Y-218530D01*
X299322Y-218530D01*
X300322Y-219530D01*
X300322Y-220530D01*
G36*
X300322Y-215530D02*
X299322Y-216530D01*
X287822Y-216530D01*
X287322Y-216030D01*
X287322Y-214030D01*
X287822Y-213530D01*
X299322Y-213530D01*
X300322Y-214530D01*
X300322Y-215530D01*
G37*
G54D17*
X300322Y-215530D02*
X299322Y-216530D01*
X287822Y-216530D01*
X287322Y-216030D01*
X287322Y-214030D01*
X287822Y-213530D01*
X299322Y-213530D01*
X300322Y-214530D01*
X300322Y-215530D01*
G36*
X300322Y-210530D02*
X299322Y-211530D01*
X287822Y-211530D01*
X287322Y-211030D01*
X287322Y-209030D01*
X287822Y-208530D01*
X299322Y-208530D01*
X300322Y-209530D01*
X300322Y-210530D01*
G37*
G54D17*
X300322Y-210530D02*
X299322Y-211530D01*
X287822Y-211530D01*
X287322Y-211030D01*
X287322Y-209030D01*
X287822Y-208530D01*
X299322Y-208530D01*
X300322Y-209530D01*
X300322Y-210530D01*
G36*
X300322Y-205530D02*
X299322Y-206530D01*
X287822Y-206530D01*
X287322Y-206030D01*
X287322Y-204030D01*
X287822Y-203530D01*
X299322Y-203530D01*
X300322Y-204530D01*
X300322Y-205530D01*
G37*
G54D17*
X300322Y-205530D02*
X299322Y-206530D01*
X287822Y-206530D01*
X287322Y-206030D01*
X287322Y-204030D01*
X287822Y-203530D01*
X299322Y-203530D01*
X300322Y-204530D01*
X300322Y-205530D01*
G36*
X300322Y-200530D02*
X299322Y-201530D01*
X287822Y-201530D01*
X287322Y-201030D01*
X287322Y-199030D01*
X287822Y-198530D01*
X299322Y-198530D01*
X300322Y-199530D01*
X300322Y-200530D01*
G37*
G54D17*
X300322Y-200530D02*
X299322Y-201530D01*
X287822Y-201530D01*
X287322Y-201030D01*
X287322Y-199030D01*
X287822Y-198530D01*
X299322Y-198530D01*
X300322Y-199530D01*
X300322Y-200530D01*
G36*
X300322Y-195530D02*
X299322Y-196530D01*
X287822Y-196530D01*
X287322Y-196030D01*
X287322Y-194030D01*
X287822Y-193530D01*
X299322Y-193530D01*
X300322Y-194530D01*
X300322Y-195530D01*
G37*
G54D17*
X300322Y-195530D02*
X299322Y-196530D01*
X287822Y-196530D01*
X287322Y-196030D01*
X287322Y-194030D01*
X287822Y-193530D01*
X299322Y-193530D01*
X300322Y-194530D01*
X300322Y-195530D01*
G36*
X300322Y-190530D02*
X299322Y-191530D01*
X287822Y-191530D01*
X287322Y-191030D01*
X287322Y-189030D01*
X287822Y-188530D01*
X299322Y-188530D01*
X300322Y-189530D01*
X300322Y-190530D01*
G37*
G54D17*
X300322Y-190530D02*
X299322Y-191530D01*
X287822Y-191530D01*
X287322Y-191030D01*
X287322Y-189030D01*
X287822Y-188530D01*
X299322Y-188530D01*
X300322Y-189530D01*
X300322Y-190530D01*
G36*
X300322Y-185530D02*
X299322Y-186530D01*
X287822Y-186530D01*
X287322Y-186030D01*
X287322Y-184030D01*
X287822Y-183530D01*
X299322Y-183530D01*
X300322Y-184530D01*
X300322Y-185530D01*
G37*
G54D17*
X300322Y-185530D02*
X299322Y-186530D01*
X287822Y-186530D01*
X287322Y-186030D01*
X287322Y-184030D01*
X287822Y-183530D01*
X299322Y-183530D01*
X300322Y-184530D01*
X300322Y-185530D01*
G36*
X300322Y-180530D02*
X299322Y-181530D01*
X287822Y-181530D01*
X287322Y-181030D01*
X287322Y-179030D01*
X287822Y-178530D01*
X299322Y-178530D01*
X300322Y-179530D01*
X300322Y-180530D01*
G37*
G54D17*
X300322Y-180530D02*
X299322Y-181530D01*
X287822Y-181530D01*
X287322Y-181030D01*
X287322Y-179030D01*
X287822Y-178530D01*
X299322Y-178530D01*
X300322Y-179530D01*
X300322Y-180530D01*
G36*
X300322Y-175530D02*
X299322Y-176530D01*
X287822Y-176530D01*
X287322Y-176030D01*
X287322Y-174030D01*
X287822Y-173530D01*
X299322Y-173530D01*
X300322Y-174530D01*
X300322Y-175530D01*
G37*
G54D17*
X300322Y-175530D02*
X299322Y-176530D01*
X287822Y-176530D01*
X287322Y-176030D01*
X287322Y-174030D01*
X287822Y-173530D01*
X299322Y-173530D01*
X300322Y-174530D01*
X300322Y-175530D01*
G36*
X300322Y-170530D02*
X299322Y-171530D01*
X287822Y-171530D01*
X287322Y-171030D01*
X287322Y-169030D01*
X287822Y-168530D01*
X299322Y-168530D01*
X300322Y-169530D01*
X300322Y-170530D01*
G37*
G54D17*
X300322Y-170530D02*
X299322Y-171530D01*
X287822Y-171530D01*
X287322Y-171030D01*
X287322Y-169030D01*
X287822Y-168530D01*
X299322Y-168530D01*
X300322Y-169530D01*
X300322Y-170530D01*
G36*
X300322Y-165530D02*
X299322Y-166530D01*
X287822Y-166530D01*
X287322Y-166030D01*
X287322Y-164030D01*
X287822Y-163530D01*
X299322Y-163530D01*
X300322Y-164530D01*
X300322Y-165530D01*
G37*
G54D17*
X300322Y-165530D02*
X299322Y-166530D01*
X287822Y-166530D01*
X287322Y-166030D01*
X287322Y-164030D01*
X287822Y-163530D01*
X299322Y-163530D01*
X300322Y-164530D01*
X300322Y-165530D01*
G36*
X300322Y-160530D02*
X299322Y-161530D01*
X287822Y-161530D01*
X287322Y-161030D01*
X287322Y-159030D01*
X287822Y-158530D01*
X299322Y-158530D01*
X300322Y-159530D01*
X300322Y-160530D01*
G37*
G54D17*
X300322Y-160530D02*
X299322Y-161530D01*
X287822Y-161530D01*
X287322Y-161030D01*
X287322Y-159030D01*
X287822Y-158530D01*
X299322Y-158530D01*
X300322Y-159530D01*
X300322Y-160530D01*
G36*
X300322Y-155530D02*
X299322Y-156530D01*
X287822Y-156530D01*
X287322Y-156030D01*
X287322Y-154030D01*
X287822Y-153530D01*
X299322Y-153530D01*
X300322Y-154530D01*
X300322Y-155530D01*
G37*
G54D17*
X300322Y-155530D02*
X299322Y-156530D01*
X287822Y-156530D01*
X287322Y-156030D01*
X287322Y-154030D01*
X287822Y-153530D01*
X299322Y-153530D01*
X300322Y-154530D01*
X300322Y-155530D01*
G36*
X300322Y-150530D02*
X299322Y-151530D01*
X287822Y-151530D01*
X287322Y-151030D01*
X287322Y-149030D01*
X287822Y-148530D01*
X299322Y-148530D01*
X300322Y-149530D01*
X300322Y-150530D01*
G37*
G54D17*
X300322Y-150530D02*
X299322Y-151530D01*
X287822Y-151530D01*
X287322Y-151030D01*
X287322Y-149030D01*
X287822Y-148530D01*
X299322Y-148530D01*
X300322Y-149530D01*
X300322Y-150530D01*
G36*
X300322Y-145530D02*
X299322Y-146530D01*
X287822Y-146530D01*
X287322Y-146030D01*
X287322Y-144030D01*
X287822Y-143530D01*
X299322Y-143530D01*
X300322Y-144530D01*
X300322Y-145530D01*
G37*
G54D17*
X300322Y-145530D02*
X299322Y-146530D01*
X287822Y-146530D01*
X287322Y-146030D01*
X287322Y-144030D01*
X287822Y-143530D01*
X299322Y-143530D01*
X300322Y-144530D01*
X300322Y-145530D01*
G36*
X300322Y-140530D02*
X299322Y-141530D01*
X287822Y-141530D01*
X287322Y-141030D01*
X287322Y-139030D01*
X287822Y-138530D01*
X299322Y-138530D01*
X300322Y-139530D01*
X300322Y-140530D01*
G37*
G54D17*
X300322Y-140530D02*
X299322Y-141530D01*
X287822Y-141530D01*
X287322Y-141030D01*
X287322Y-139030D01*
X287822Y-138530D01*
X299322Y-138530D01*
X300322Y-139530D01*
X300322Y-140530D01*
G36*
X300322Y-135530D02*
X299322Y-136530D01*
X287822Y-136530D01*
X287322Y-136030D01*
X287322Y-134030D01*
X287822Y-133530D01*
X299322Y-133530D01*
X300322Y-134530D01*
X300322Y-135530D01*
G37*
G54D17*
X300322Y-135530D02*
X299322Y-136530D01*
X287822Y-136530D01*
X287322Y-136030D01*
X287322Y-134030D01*
X287822Y-133530D01*
X299322Y-133530D01*
X300322Y-134530D01*
X300322Y-135530D01*
G36*
X300322Y-130530D02*
X299322Y-131530D01*
X287822Y-131530D01*
X287322Y-131030D01*
X287322Y-129030D01*
X287822Y-128530D01*
X299322Y-128530D01*
X300322Y-129530D01*
X300322Y-130530D01*
G37*
G54D17*
X300322Y-130530D02*
X299322Y-131530D01*
X287822Y-131530D01*
X287322Y-131030D01*
X287322Y-129030D01*
X287822Y-128530D01*
X299322Y-128530D01*
X300322Y-129530D01*
X300322Y-130530D01*
G36*
X300322Y-125530D02*
X299322Y-126530D01*
X287822Y-126530D01*
X287322Y-126030D01*
X287322Y-124030D01*
X287822Y-123530D01*
X299322Y-123530D01*
X300322Y-124530D01*
X300322Y-125530D01*
G37*
G54D17*
X300322Y-125530D02*
X299322Y-126530D01*
X287822Y-126530D01*
X287322Y-126030D01*
X287322Y-124030D01*
X287822Y-123530D01*
X299322Y-123530D01*
X300322Y-124530D01*
X300322Y-125530D01*
G36*
X300322Y-235530D02*
X299322Y-236530D01*
X287822Y-236530D01*
X287322Y-236030D01*
X287322Y-234030D01*
X287822Y-233530D01*
X299322Y-233530D01*
X300322Y-234530D01*
X300322Y-235530D01*
G37*
G54D17*
X300322Y-235530D02*
X299322Y-236530D01*
X287822Y-236530D01*
X287322Y-236030D01*
X287322Y-234030D01*
X287822Y-233530D01*
X299322Y-233530D01*
X300322Y-234530D01*
X300322Y-235530D01*
X155327Y-257999D02*
G54D16*
D03*
X160326Y-257999D02*
G54D16*
D03*
X165327Y-257999D02*
G54D16*
D03*
X170327Y-257999D02*
G54D16*
D03*
X175327Y-257999D02*
G54D16*
D03*
X180327Y-257999D02*
G54D16*
D03*
X185327Y-257999D02*
G54D16*
D03*
X190327Y-257999D02*
G54D16*
D03*
X195327Y-257999D02*
G54D16*
D03*
X200326Y-257999D02*
G54D16*
D03*
X205327Y-257999D02*
G54D16*
D03*
X210327Y-257999D02*
G54D16*
D03*
X215326Y-257999D02*
G54D16*
D03*
X220327Y-257999D02*
G54D16*
D03*
X225327Y-257999D02*
G54D16*
D03*
X230327Y-257999D02*
G54D16*
D03*
X235327Y-257999D02*
G54D16*
D03*
X240327Y-257999D02*
G54D16*
D03*
X245327Y-257999D02*
G54D16*
D03*
X250326Y-257999D02*
G54D16*
D03*
X255326Y-257999D02*
G54D16*
D03*
X260327Y-257999D02*
G54D16*
D03*
X265326Y-257999D02*
G54D16*
D03*
X270326Y-257999D02*
G54D16*
D03*
X275327Y-257999D02*
G54D16*
D03*
G36*
X154822Y-261030D02*
X153822Y-260030D01*
X153822Y-255530D01*
X154322Y-255030D01*
X156322Y-255030D01*
X156822Y-255530D01*
X156822Y-260030D01*
X155822Y-261030D01*
X154822Y-261030D01*
G37*
G54D17*
X154822Y-261030D02*
X153822Y-260030D01*
X153822Y-255530D01*
X154322Y-255030D01*
X156322Y-255030D01*
X156822Y-255530D01*
X156822Y-260030D01*
X155822Y-261030D01*
X154822Y-261030D01*
G36*
X274822Y-261030D02*
X273822Y-260030D01*
X273822Y-255530D01*
X274322Y-255030D01*
X276322Y-255030D01*
X276822Y-255530D01*
X276822Y-260030D01*
X275822Y-261030D01*
X274822Y-261030D01*
G37*
G54D17*
X274822Y-261030D02*
X273822Y-260030D01*
X273822Y-255530D01*
X274322Y-255030D01*
X276322Y-255030D01*
X276822Y-255530D01*
X276822Y-260030D01*
X275822Y-261030D01*
X274822Y-261030D01*
G36*
X164822Y-265030D02*
X163822Y-264030D01*
X163822Y-252530D01*
X164322Y-252030D01*
X166322Y-252030D01*
X166822Y-252530D01*
X166822Y-264030D01*
X165822Y-265030D01*
X164822Y-265030D01*
G37*
G54D17*
X164822Y-265030D02*
X163822Y-264030D01*
X163822Y-252530D01*
X164322Y-252030D01*
X166322Y-252030D01*
X166822Y-252530D01*
X166822Y-264030D01*
X165822Y-265030D01*
X164822Y-265030D01*
G36*
X169822Y-265030D02*
X168822Y-264030D01*
X168822Y-252530D01*
X169322Y-252030D01*
X171322Y-252030D01*
X171822Y-252530D01*
X171822Y-264030D01*
X170822Y-265030D01*
X169822Y-265030D01*
G37*
G54D17*
X169822Y-265030D02*
X168822Y-264030D01*
X168822Y-252530D01*
X169322Y-252030D01*
X171322Y-252030D01*
X171822Y-252530D01*
X171822Y-264030D01*
X170822Y-265030D01*
X169822Y-265030D01*
G36*
X174822Y-265030D02*
X173822Y-264030D01*
X173822Y-252530D01*
X174322Y-252030D01*
X176322Y-252030D01*
X176822Y-252530D01*
X176822Y-264030D01*
X175822Y-265030D01*
X174822Y-265030D01*
G37*
G54D17*
X174822Y-265030D02*
X173822Y-264030D01*
X173822Y-252530D01*
X174322Y-252030D01*
X176322Y-252030D01*
X176822Y-252530D01*
X176822Y-264030D01*
X175822Y-265030D01*
X174822Y-265030D01*
G36*
X179822Y-265030D02*
X178822Y-264030D01*
X178822Y-252530D01*
X179322Y-252030D01*
X181322Y-252030D01*
X181822Y-252530D01*
X181822Y-264030D01*
X180822Y-265030D01*
X179822Y-265030D01*
G37*
G54D17*
X179822Y-265030D02*
X178822Y-264030D01*
X178822Y-252530D01*
X179322Y-252030D01*
X181322Y-252030D01*
X181822Y-252530D01*
X181822Y-264030D01*
X180822Y-265030D01*
X179822Y-265030D01*
G36*
X184822Y-265030D02*
X183822Y-264030D01*
X183822Y-252530D01*
X184322Y-252030D01*
X186322Y-252030D01*
X186822Y-252530D01*
X186822Y-264030D01*
X185822Y-265030D01*
X184822Y-265030D01*
G37*
G54D17*
X184822Y-265030D02*
X183822Y-264030D01*
X183822Y-252530D01*
X184322Y-252030D01*
X186322Y-252030D01*
X186822Y-252530D01*
X186822Y-264030D01*
X185822Y-265030D01*
X184822Y-265030D01*
G36*
X189822Y-265030D02*
X188822Y-264030D01*
X188822Y-252530D01*
X189322Y-252030D01*
X191322Y-252030D01*
X191822Y-252530D01*
X191822Y-264030D01*
X190822Y-265030D01*
X189822Y-265030D01*
G37*
G54D17*
X189822Y-265030D02*
X188822Y-264030D01*
X188822Y-252530D01*
X189322Y-252030D01*
X191322Y-252030D01*
X191822Y-252530D01*
X191822Y-264030D01*
X190822Y-265030D01*
X189822Y-265030D01*
G36*
X194822Y-265030D02*
X193822Y-264030D01*
X193822Y-252530D01*
X194322Y-252030D01*
X196322Y-252030D01*
X196822Y-252530D01*
X196822Y-264030D01*
X195822Y-265030D01*
X194822Y-265030D01*
G37*
G54D17*
X194822Y-265030D02*
X193822Y-264030D01*
X193822Y-252530D01*
X194322Y-252030D01*
X196322Y-252030D01*
X196822Y-252530D01*
X196822Y-264030D01*
X195822Y-265030D01*
X194822Y-265030D01*
G36*
X199822Y-265030D02*
X198822Y-264030D01*
X198822Y-252530D01*
X199322Y-252030D01*
X201322Y-252030D01*
X201822Y-252530D01*
X201822Y-264030D01*
X200822Y-265030D01*
X199822Y-265030D01*
G37*
G54D17*
X199822Y-265030D02*
X198822Y-264030D01*
X198822Y-252530D01*
X199322Y-252030D01*
X201322Y-252030D01*
X201822Y-252530D01*
X201822Y-264030D01*
X200822Y-265030D01*
X199822Y-265030D01*
G36*
X204822Y-265030D02*
X203822Y-264030D01*
X203822Y-252530D01*
X204322Y-252030D01*
X206322Y-252030D01*
X206822Y-252530D01*
X206822Y-264030D01*
X205822Y-265030D01*
X204822Y-265030D01*
G37*
G54D17*
X204822Y-265030D02*
X203822Y-264030D01*
X203822Y-252530D01*
X204322Y-252030D01*
X206322Y-252030D01*
X206822Y-252530D01*
X206822Y-264030D01*
X205822Y-265030D01*
X204822Y-265030D01*
G36*
X209822Y-265030D02*
X208822Y-264030D01*
X208822Y-252530D01*
X209322Y-252030D01*
X211322Y-252030D01*
X211822Y-252530D01*
X211822Y-264030D01*
X210822Y-265030D01*
X209822Y-265030D01*
G37*
G54D17*
X209822Y-265030D02*
X208822Y-264030D01*
X208822Y-252530D01*
X209322Y-252030D01*
X211322Y-252030D01*
X211822Y-252530D01*
X211822Y-264030D01*
X210822Y-265030D01*
X209822Y-265030D01*
G36*
X214822Y-265030D02*
X213822Y-264030D01*
X213822Y-252530D01*
X214322Y-252030D01*
X216322Y-252030D01*
X216822Y-252530D01*
X216822Y-264030D01*
X215822Y-265030D01*
X214822Y-265030D01*
G37*
G54D17*
X214822Y-265030D02*
X213822Y-264030D01*
X213822Y-252530D01*
X214322Y-252030D01*
X216322Y-252030D01*
X216822Y-252530D01*
X216822Y-264030D01*
X215822Y-265030D01*
X214822Y-265030D01*
G36*
X219822Y-265030D02*
X218822Y-264030D01*
X218822Y-252530D01*
X219322Y-252030D01*
X221322Y-252030D01*
X221822Y-252530D01*
X221822Y-264030D01*
X220822Y-265030D01*
X219822Y-265030D01*
G37*
G54D17*
X219822Y-265030D02*
X218822Y-264030D01*
X218822Y-252530D01*
X219322Y-252030D01*
X221322Y-252030D01*
X221822Y-252530D01*
X221822Y-264030D01*
X220822Y-265030D01*
X219822Y-265030D01*
G36*
X224822Y-265030D02*
X223822Y-264030D01*
X223822Y-252530D01*
X224322Y-252030D01*
X226322Y-252030D01*
X226822Y-252530D01*
X226822Y-264030D01*
X225822Y-265030D01*
X224822Y-265030D01*
G37*
G54D17*
X224822Y-265030D02*
X223822Y-264030D01*
X223822Y-252530D01*
X224322Y-252030D01*
X226322Y-252030D01*
X226822Y-252530D01*
X226822Y-264030D01*
X225822Y-265030D01*
X224822Y-265030D01*
G36*
X229822Y-265030D02*
X228822Y-264030D01*
X228822Y-252530D01*
X229322Y-252030D01*
X231322Y-252030D01*
X231822Y-252530D01*
X231822Y-264030D01*
X230822Y-265030D01*
X229822Y-265030D01*
G37*
G54D17*
X229822Y-265030D02*
X228822Y-264030D01*
X228822Y-252530D01*
X229322Y-252030D01*
X231322Y-252030D01*
X231822Y-252530D01*
X231822Y-264030D01*
X230822Y-265030D01*
X229822Y-265030D01*
G36*
X234822Y-265030D02*
X233822Y-264030D01*
X233822Y-252530D01*
X234322Y-252030D01*
X236322Y-252030D01*
X236822Y-252530D01*
X236822Y-264030D01*
X235822Y-265030D01*
X234822Y-265030D01*
G37*
G54D17*
X234822Y-265030D02*
X233822Y-264030D01*
X233822Y-252530D01*
X234322Y-252030D01*
X236322Y-252030D01*
X236822Y-252530D01*
X236822Y-264030D01*
X235822Y-265030D01*
X234822Y-265030D01*
G36*
X239822Y-265030D02*
X238822Y-264030D01*
X238822Y-252530D01*
X239322Y-252030D01*
X241322Y-252030D01*
X241822Y-252530D01*
X241822Y-264030D01*
X240822Y-265030D01*
X239822Y-265030D01*
G37*
G54D17*
X239822Y-265030D02*
X238822Y-264030D01*
X238822Y-252530D01*
X239322Y-252030D01*
X241322Y-252030D01*
X241822Y-252530D01*
X241822Y-264030D01*
X240822Y-265030D01*
X239822Y-265030D01*
G36*
X244822Y-265030D02*
X243822Y-264030D01*
X243822Y-252530D01*
X244322Y-252030D01*
X246322Y-252030D01*
X246822Y-252530D01*
X246822Y-264030D01*
X245822Y-265030D01*
X244822Y-265030D01*
G37*
G54D17*
X244822Y-265030D02*
X243822Y-264030D01*
X243822Y-252530D01*
X244322Y-252030D01*
X246322Y-252030D01*
X246822Y-252530D01*
X246822Y-264030D01*
X245822Y-265030D01*
X244822Y-265030D01*
G36*
X249822Y-265030D02*
X248822Y-264030D01*
X248822Y-252530D01*
X249322Y-252030D01*
X251322Y-252030D01*
X251822Y-252530D01*
X251822Y-264030D01*
X250822Y-265030D01*
X249822Y-265030D01*
G37*
G54D17*
X249822Y-265030D02*
X248822Y-264030D01*
X248822Y-252530D01*
X249322Y-252030D01*
X251322Y-252030D01*
X251822Y-252530D01*
X251822Y-264030D01*
X250822Y-265030D01*
X249822Y-265030D01*
G36*
X254822Y-265030D02*
X253822Y-264030D01*
X253822Y-252530D01*
X254322Y-252030D01*
X256322Y-252030D01*
X256822Y-252530D01*
X256822Y-264030D01*
X255822Y-265030D01*
X254822Y-265030D01*
G37*
G54D17*
X254822Y-265030D02*
X253822Y-264030D01*
X253822Y-252530D01*
X254322Y-252030D01*
X256322Y-252030D01*
X256822Y-252530D01*
X256822Y-264030D01*
X255822Y-265030D01*
X254822Y-265030D01*
G36*
X259822Y-265030D02*
X258822Y-264030D01*
X258822Y-252530D01*
X259322Y-252030D01*
X261322Y-252030D01*
X261822Y-252530D01*
X261822Y-264030D01*
X260822Y-265030D01*
X259822Y-265030D01*
G37*
G54D17*
X259822Y-265030D02*
X258822Y-264030D01*
X258822Y-252530D01*
X259322Y-252030D01*
X261322Y-252030D01*
X261822Y-252530D01*
X261822Y-264030D01*
X260822Y-265030D01*
X259822Y-265030D01*
G36*
X264822Y-265030D02*
X263822Y-264030D01*
X263822Y-252530D01*
X264322Y-252030D01*
X266322Y-252030D01*
X266822Y-252530D01*
X266822Y-264030D01*
X265822Y-265030D01*
X264822Y-265030D01*
G37*
G54D17*
X264822Y-265030D02*
X263822Y-264030D01*
X263822Y-252530D01*
X264322Y-252030D01*
X266322Y-252030D01*
X266822Y-252530D01*
X266822Y-264030D01*
X265822Y-265030D01*
X264822Y-265030D01*
G36*
X269822Y-265030D02*
X268822Y-264030D01*
X268822Y-252530D01*
X269322Y-252030D01*
X271322Y-252030D01*
X271822Y-252530D01*
X271822Y-264030D01*
X270822Y-265030D01*
X269822Y-265030D01*
G37*
G54D17*
X269822Y-265030D02*
X268822Y-264030D01*
X268822Y-252530D01*
X269322Y-252030D01*
X271322Y-252030D01*
X271822Y-252530D01*
X271822Y-264030D01*
X270822Y-265030D01*
X269822Y-265030D01*
G36*
X159822Y-265030D02*
X158822Y-264030D01*
X158822Y-252530D01*
X159322Y-252030D01*
X161322Y-252030D01*
X161822Y-252530D01*
X161822Y-264030D01*
X160822Y-265030D01*
X159822Y-265030D01*
G37*
G54D17*
X159822Y-265030D02*
X158822Y-264030D01*
X158822Y-252530D01*
X159322Y-252030D01*
X161322Y-252030D01*
X161822Y-252530D01*
X161822Y-264030D01*
X160822Y-265030D01*
X159822Y-265030D01*
X137353Y-120035D02*
G54D16*
D03*
X137353Y-125035D02*
G54D16*
D03*
X137353Y-130035D02*
G54D16*
D03*
X137353Y-135035D02*
G54D16*
D03*
X137353Y-140035D02*
G54D16*
D03*
X137353Y-145035D02*
G54D16*
D03*
X137353Y-150035D02*
G54D16*
D03*
X137353Y-155035D02*
G54D16*
D03*
X137353Y-160035D02*
G54D16*
D03*
X137353Y-165035D02*
G54D16*
D03*
X137353Y-170035D02*
G54D16*
D03*
X137353Y-175035D02*
G54D16*
D03*
X137353Y-180035D02*
G54D16*
D03*
X137353Y-185035D02*
G54D16*
D03*
X137353Y-190035D02*
G54D16*
D03*
X137353Y-195035D02*
G54D16*
D03*
X137353Y-200035D02*
G54D16*
D03*
X137353Y-205035D02*
G54D16*
D03*
X137353Y-210035D02*
G54D16*
D03*
X137353Y-215035D02*
G54D16*
D03*
X137353Y-220035D02*
G54D16*
D03*
X137353Y-225035D02*
G54D16*
D03*
X137353Y-230035D02*
G54D16*
D03*
X137353Y-235035D02*
G54D16*
D03*
X137353Y-240035D02*
G54D16*
D03*
G36*
X134322Y-119530D02*
X135322Y-118530D01*
X139822Y-118530D01*
X140322Y-119030D01*
X140322Y-121030D01*
X139822Y-121530D01*
X135322Y-121530D01*
X134322Y-120530D01*
X134322Y-119530D01*
G37*
G54D17*
X134322Y-119530D02*
X135322Y-118530D01*
X139822Y-118530D01*
X140322Y-119030D01*
X140322Y-121030D01*
X139822Y-121530D01*
X135322Y-121530D01*
X134322Y-120530D01*
X134322Y-119530D01*
G36*
X134322Y-239530D02*
X135322Y-238530D01*
X139822Y-238530D01*
X140322Y-239030D01*
X140322Y-241030D01*
X139822Y-241530D01*
X135322Y-241530D01*
X134322Y-240530D01*
X134322Y-239530D01*
G37*
G54D17*
X134322Y-239530D02*
X135322Y-238530D01*
X139822Y-238530D01*
X140322Y-239030D01*
X140322Y-241030D01*
X139822Y-241530D01*
X135322Y-241530D01*
X134322Y-240530D01*
X134322Y-239530D01*
G36*
X130322Y-129530D02*
X131322Y-128530D01*
X142822Y-128530D01*
X143322Y-129030D01*
X143322Y-131030D01*
X142822Y-131530D01*
X131322Y-131530D01*
X130322Y-130530D01*
X130322Y-129530D01*
G37*
G54D17*
X130322Y-129530D02*
X131322Y-128530D01*
X142822Y-128530D01*
X143322Y-129030D01*
X143322Y-131030D01*
X142822Y-131530D01*
X131322Y-131530D01*
X130322Y-130530D01*
X130322Y-129530D01*
G36*
X130322Y-134530D02*
X131322Y-133530D01*
X142822Y-133530D01*
X143322Y-134030D01*
X143322Y-136030D01*
X142822Y-136530D01*
X131322Y-136530D01*
X130322Y-135530D01*
X130322Y-134530D01*
G37*
G54D17*
X130322Y-134530D02*
X131322Y-133530D01*
X142822Y-133530D01*
X143322Y-134030D01*
X143322Y-136030D01*
X142822Y-136530D01*
X131322Y-136530D01*
X130322Y-135530D01*
X130322Y-134530D01*
G36*
X130322Y-139530D02*
X131322Y-138530D01*
X142822Y-138530D01*
X143322Y-139030D01*
X143322Y-141030D01*
X142822Y-141530D01*
X131322Y-141530D01*
X130322Y-140530D01*
X130322Y-139530D01*
G37*
G54D17*
X130322Y-139530D02*
X131322Y-138530D01*
X142822Y-138530D01*
X143322Y-139030D01*
X143322Y-141030D01*
X142822Y-141530D01*
X131322Y-141530D01*
X130322Y-140530D01*
X130322Y-139530D01*
G36*
X130322Y-144530D02*
X131322Y-143530D01*
X142822Y-143530D01*
X143322Y-144030D01*
X143322Y-146030D01*
X142822Y-146530D01*
X131322Y-146530D01*
X130322Y-145530D01*
X130322Y-144530D01*
G37*
G54D17*
X130322Y-144530D02*
X131322Y-143530D01*
X142822Y-143530D01*
X143322Y-144030D01*
X143322Y-146030D01*
X142822Y-146530D01*
X131322Y-146530D01*
X130322Y-145530D01*
X130322Y-144530D01*
G36*
X130322Y-149530D02*
X131322Y-148530D01*
X142822Y-148530D01*
X143322Y-149030D01*
X143322Y-151030D01*
X142822Y-151530D01*
X131322Y-151530D01*
X130322Y-150530D01*
X130322Y-149530D01*
G37*
G54D17*
X130322Y-149530D02*
X131322Y-148530D01*
X142822Y-148530D01*
X143322Y-149030D01*
X143322Y-151030D01*
X142822Y-151530D01*
X131322Y-151530D01*
X130322Y-150530D01*
X130322Y-149530D01*
G36*
X130322Y-154530D02*
X131322Y-153530D01*
X142822Y-153530D01*
X143322Y-154030D01*
X143322Y-156030D01*
X142822Y-156530D01*
X131322Y-156530D01*
X130322Y-155530D01*
X130322Y-154530D01*
G37*
G54D17*
X130322Y-154530D02*
X131322Y-153530D01*
X142822Y-153530D01*
X143322Y-154030D01*
X143322Y-156030D01*
X142822Y-156530D01*
X131322Y-156530D01*
X130322Y-155530D01*
X130322Y-154530D01*
G36*
X130322Y-159530D02*
X131322Y-158530D01*
X142822Y-158530D01*
X143322Y-159030D01*
X143322Y-161030D01*
X142822Y-161530D01*
X131322Y-161530D01*
X130322Y-160530D01*
X130322Y-159530D01*
G37*
G54D17*
X130322Y-159530D02*
X131322Y-158530D01*
X142822Y-158530D01*
X143322Y-159030D01*
X143322Y-161030D01*
X142822Y-161530D01*
X131322Y-161530D01*
X130322Y-160530D01*
X130322Y-159530D01*
G36*
X130322Y-164530D02*
X131322Y-163530D01*
X142822Y-163530D01*
X143322Y-164030D01*
X143322Y-166030D01*
X142822Y-166530D01*
X131322Y-166530D01*
X130322Y-165530D01*
X130322Y-164530D01*
G37*
G54D17*
X130322Y-164530D02*
X131322Y-163530D01*
X142822Y-163530D01*
X143322Y-164030D01*
X143322Y-166030D01*
X142822Y-166530D01*
X131322Y-166530D01*
X130322Y-165530D01*
X130322Y-164530D01*
G36*
X130322Y-169530D02*
X131322Y-168530D01*
X142822Y-168530D01*
X143322Y-169030D01*
X143322Y-171030D01*
X142822Y-171530D01*
X131322Y-171530D01*
X130322Y-170530D01*
X130322Y-169530D01*
G37*
G54D17*
X130322Y-169530D02*
X131322Y-168530D01*
X142822Y-168530D01*
X143322Y-169030D01*
X143322Y-171030D01*
X142822Y-171530D01*
X131322Y-171530D01*
X130322Y-170530D01*
X130322Y-169530D01*
G36*
X130322Y-174530D02*
X131322Y-173530D01*
X142822Y-173530D01*
X143322Y-174030D01*
X143322Y-176030D01*
X142822Y-176530D01*
X131322Y-176530D01*
X130322Y-175530D01*
X130322Y-174530D01*
G37*
G54D17*
X130322Y-174530D02*
X131322Y-173530D01*
X142822Y-173530D01*
X143322Y-174030D01*
X143322Y-176030D01*
X142822Y-176530D01*
X131322Y-176530D01*
X130322Y-175530D01*
X130322Y-174530D01*
G36*
X130322Y-179530D02*
X131322Y-178530D01*
X142822Y-178530D01*
X143322Y-179030D01*
X143322Y-181030D01*
X142822Y-181530D01*
X131322Y-181530D01*
X130322Y-180530D01*
X130322Y-179530D01*
G37*
G54D17*
X130322Y-179530D02*
X131322Y-178530D01*
X142822Y-178530D01*
X143322Y-179030D01*
X143322Y-181030D01*
X142822Y-181530D01*
X131322Y-181530D01*
X130322Y-180530D01*
X130322Y-179530D01*
G36*
X130322Y-184530D02*
X131322Y-183530D01*
X142822Y-183530D01*
X143322Y-184030D01*
X143322Y-186030D01*
X142822Y-186530D01*
X131322Y-186530D01*
X130322Y-185530D01*
X130322Y-184530D01*
G37*
G54D17*
X130322Y-184530D02*
X131322Y-183530D01*
X142822Y-183530D01*
X143322Y-184030D01*
X143322Y-186030D01*
X142822Y-186530D01*
X131322Y-186530D01*
X130322Y-185530D01*
X130322Y-184530D01*
G36*
X130322Y-189530D02*
X131322Y-188530D01*
X142822Y-188530D01*
X143322Y-189030D01*
X143322Y-191030D01*
X142822Y-191530D01*
X131322Y-191530D01*
X130322Y-190530D01*
X130322Y-189530D01*
G37*
G54D17*
X130322Y-189530D02*
X131322Y-188530D01*
X142822Y-188530D01*
X143322Y-189030D01*
X143322Y-191030D01*
X142822Y-191530D01*
X131322Y-191530D01*
X130322Y-190530D01*
X130322Y-189530D01*
G36*
X130322Y-194530D02*
X131322Y-193530D01*
X142822Y-193530D01*
X143322Y-194030D01*
X143322Y-196030D01*
X142822Y-196530D01*
X131322Y-196530D01*
X130322Y-195530D01*
X130322Y-194530D01*
G37*
G54D17*
X130322Y-194530D02*
X131322Y-193530D01*
X142822Y-193530D01*
X143322Y-194030D01*
X143322Y-196030D01*
X142822Y-196530D01*
X131322Y-196530D01*
X130322Y-195530D01*
X130322Y-194530D01*
G36*
X130322Y-199530D02*
X131322Y-198530D01*
X142822Y-198530D01*
X143322Y-199030D01*
X143322Y-201030D01*
X142822Y-201530D01*
X131322Y-201530D01*
X130322Y-200530D01*
X130322Y-199530D01*
G37*
G54D17*
X130322Y-199530D02*
X131322Y-198530D01*
X142822Y-198530D01*
X143322Y-199030D01*
X143322Y-201030D01*
X142822Y-201530D01*
X131322Y-201530D01*
X130322Y-200530D01*
X130322Y-199530D01*
G36*
X130322Y-204530D02*
X131322Y-203530D01*
X142822Y-203530D01*
X143322Y-204030D01*
X143322Y-206030D01*
X142822Y-206530D01*
X131322Y-206530D01*
X130322Y-205530D01*
X130322Y-204530D01*
G37*
G54D17*
X130322Y-204530D02*
X131322Y-203530D01*
X142822Y-203530D01*
X143322Y-204030D01*
X143322Y-206030D01*
X142822Y-206530D01*
X131322Y-206530D01*
X130322Y-205530D01*
X130322Y-204530D01*
G36*
X130322Y-209530D02*
X131322Y-208530D01*
X142822Y-208530D01*
X143322Y-209030D01*
X143322Y-211030D01*
X142822Y-211530D01*
X131322Y-211530D01*
X130322Y-210530D01*
X130322Y-209530D01*
G37*
G54D17*
X130322Y-209530D02*
X131322Y-208530D01*
X142822Y-208530D01*
X143322Y-209030D01*
X143322Y-211030D01*
X142822Y-211530D01*
X131322Y-211530D01*
X130322Y-210530D01*
X130322Y-209530D01*
G36*
X130322Y-214530D02*
X131322Y-213530D01*
X142822Y-213530D01*
X143322Y-214030D01*
X143322Y-216030D01*
X142822Y-216530D01*
X131322Y-216530D01*
X130322Y-215530D01*
X130322Y-214530D01*
G37*
G54D17*
X130322Y-214530D02*
X131322Y-213530D01*
X142822Y-213530D01*
X143322Y-214030D01*
X143322Y-216030D01*
X142822Y-216530D01*
X131322Y-216530D01*
X130322Y-215530D01*
X130322Y-214530D01*
G36*
X130322Y-219530D02*
X131322Y-218530D01*
X142822Y-218530D01*
X143322Y-219030D01*
X143322Y-221030D01*
X142822Y-221530D01*
X131322Y-221530D01*
X130322Y-220530D01*
X130322Y-219530D01*
G37*
G54D17*
X130322Y-219530D02*
X131322Y-218530D01*
X142822Y-218530D01*
X143322Y-219030D01*
X143322Y-221030D01*
X142822Y-221530D01*
X131322Y-221530D01*
X130322Y-220530D01*
X130322Y-219530D01*
G36*
X130322Y-224530D02*
X131322Y-223530D01*
X142822Y-223530D01*
X143322Y-224030D01*
X143322Y-226030D01*
X142822Y-226530D01*
X131322Y-226530D01*
X130322Y-225530D01*
X130322Y-224530D01*
G37*
G54D17*
X130322Y-224530D02*
X131322Y-223530D01*
X142822Y-223530D01*
X143322Y-224030D01*
X143322Y-226030D01*
X142822Y-226530D01*
X131322Y-226530D01*
X130322Y-225530D01*
X130322Y-224530D01*
G36*
X130322Y-229530D02*
X131322Y-228530D01*
X142822Y-228530D01*
X143322Y-229030D01*
X143322Y-231030D01*
X142822Y-231530D01*
X131322Y-231530D01*
X130322Y-230530D01*
X130322Y-229530D01*
G37*
G54D17*
X130322Y-229530D02*
X131322Y-228530D01*
X142822Y-228530D01*
X143322Y-229030D01*
X143322Y-231030D01*
X142822Y-231530D01*
X131322Y-231530D01*
X130322Y-230530D01*
X130322Y-229530D01*
G36*
X130322Y-234530D02*
X131322Y-233530D01*
X142822Y-233530D01*
X143322Y-234030D01*
X143322Y-236030D01*
X142822Y-236530D01*
X131322Y-236530D01*
X130322Y-235530D01*
X130322Y-234530D01*
G37*
G54D17*
X130322Y-234530D02*
X131322Y-233530D01*
X142822Y-233530D01*
X143322Y-234030D01*
X143322Y-236030D01*
X142822Y-236530D01*
X131322Y-236530D01*
X130322Y-235530D01*
X130322Y-234530D01*
G36*
X130322Y-124530D02*
X131322Y-123530D01*
X142822Y-123530D01*
X143322Y-124030D01*
X143322Y-126030D01*
X142822Y-126530D01*
X131322Y-126530D01*
X130322Y-125530D01*
X130322Y-124530D01*
G37*
G54D17*
X130322Y-124530D02*
X131322Y-123530D01*
X142822Y-123530D01*
X143322Y-124030D01*
X143322Y-126030D01*
X142822Y-126530D01*
X131322Y-126530D01*
X130322Y-125530D01*
X130322Y-124530D01*
G54D18*
G75*
G01X312754Y-408974D02*
G03X312754Y-408974I-5000J0D01*
G01*
G36*
G75*
G01X312754Y-408974D02*
G03X312754Y-408974I-5000J0D01*
G01*
G37*
X312754Y-408974D01*
G54D18*
G75*
G01X312800Y-428669D02*
G03X312800Y-428669I-5000J0D01*
G01*
G36*
G75*
G01X312800Y-428669D02*
G03X312800Y-428669I-5000J0D01*
G01*
G37*
X312800Y-428669D01*
G54D18*
G75*
G01X312800Y-448986D02*
G03X312800Y-448986I-5000J0D01*
G01*
G36*
G75*
G01X312800Y-448986D02*
G03X312800Y-448986I-5000J0D01*
G01*
G37*
X312800Y-448986D01*
G54D18*
G75*
G01X312800Y-468987D02*
G03X312800Y-468987I-5000J0D01*
G01*
G36*
G75*
G01X312800Y-468987D02*
G03X312800Y-468987I-5000J0D01*
G01*
G37*
X312800Y-468987D01*
G54D18*
G75*
G01X312800Y-508986D02*
G03X312800Y-508986I-5000J0D01*
G01*
G36*
G75*
G01X312800Y-508986D02*
G03X312800Y-508986I-5000J0D01*
G01*
G37*
X312800Y-508986D01*
G54D18*
G75*
G01X312800Y-528987D02*
G03X312800Y-528987I-5000J0D01*
G01*
G36*
G75*
G01X312800Y-528987D02*
G03X312800Y-528987I-5000J0D01*
G01*
G37*
X312800Y-528987D01*
G54D18*
G75*
G01X312800Y-488987D02*
G03X312800Y-488987I-5000J0D01*
G01*
G36*
G75*
G01X312800Y-488987D02*
G03X312800Y-488987I-5000J0D01*
G01*
G37*
X312800Y-488987D01*
G54D18*
G75*
G01X509600Y-408974D02*
G03X509600Y-408974I-5000J0D01*
G01*
G36*
G75*
G01X509600Y-408974D02*
G03X509600Y-408974I-5000J0D01*
G01*
G37*
X509600Y-408974D01*
G54D18*
G75*
G01X509645Y-428669D02*
G03X509645Y-428669I-5000J0D01*
G01*
G36*
G75*
G01X509645Y-428669D02*
G03X509645Y-428669I-5000J0D01*
G01*
G37*
X509645Y-428669D01*
G54D18*
G75*
G01X509645Y-448986D02*
G03X509645Y-448986I-5000J0D01*
G01*
G36*
G75*
G01X509645Y-448986D02*
G03X509645Y-448986I-5000J0D01*
G01*
G37*
X509645Y-448986D01*
G54D18*
G75*
G01X509645Y-468986D02*
G03X509645Y-468986I-5000J0D01*
G01*
G36*
G75*
G01X509645Y-468986D02*
G03X509645Y-468986I-5000J0D01*
G01*
G37*
X509645Y-468986D01*
G54D18*
G75*
G01X509645Y-508987D02*
G03X509645Y-508987I-5000J0D01*
G01*
G36*
G75*
G01X509645Y-508987D02*
G03X509645Y-508987I-5000J0D01*
G01*
G37*
X509645Y-508987D01*
X240475Y-355243D02*
G54D19*
D03*
X250768Y-347874D02*
G54D19*
D03*
X243265Y-367360D02*
G54D19*
D03*
X356790Y-210740D02*
G54D20*
D03*
X373790Y-210740D02*
G54D20*
D03*
X461169Y-188581D02*
G54D20*
D03*
X444169Y-188581D02*
G54D20*
D03*
X461169Y-170325D02*
G54D20*
D03*
X444169Y-170325D02*
G54D20*
D03*
X442581Y-170325D02*
G54D21*
D03*
X442581Y-188581D02*
G54D21*
D03*
G36*
X389180Y-126106D02*
X379988Y-135298D01*
X370089Y-125399D01*
X379281Y-116206D01*
X389180Y-126106D01*
G37*
G36*
X377160Y-138126D02*
X367968Y-147319D01*
X358068Y-137419D01*
X367260Y-128227D01*
X377160Y-138126D01*
G37*
X275101Y-312410D02*
G54D20*
D03*
X292100Y-312406D02*
G54D20*
D03*
G54D18*
G75*
G01X509646Y-488987D02*
G03X509646Y-488987I-5000J0D01*
G01*
G36*
G75*
G01X509646Y-488987D02*
G03X509646Y-488987I-5000J0D01*
G01*
G37*
X509646Y-488987D01*
G36*
X505700Y-543613D02*
X505700Y-513613D01*
X535700Y-513613D01*
X535700Y-543613D01*
X505700Y-543613D01*
G37*
X486621Y-306080D02*
G54D22*
D03*
X486621Y-293381D02*
G54D22*
D03*
X486621Y-280680D02*
G54D22*
D03*
X486621Y-267981D02*
G54D22*
D03*
X169863Y-67595D02*
G54D23*
D03*
X169866Y-84594D02*
G54D23*
D03*
X167888Y-34177D02*
G54D24*
D03*
X187888Y-34177D02*
G54D24*
D03*
X207888Y-34177D02*
G54D24*
D03*
X227888Y-34177D02*
G54D24*
D03*
X247888Y-34177D02*
G54D24*
D03*
X267888Y-34177D02*
G54D24*
D03*
X287888Y-34177D02*
G54D24*
D03*
X307888Y-34147D02*
G54D24*
D03*
G36*
X295116Y-64881D02*
X285924Y-74074D01*
X276024Y-64174D01*
X285217Y-54982D01*
X295116Y-64881D01*
G37*
G36*
X283106Y-76892D02*
X273912Y-86084D01*
X264014Y-76183D01*
X273207Y-66992D01*
X283106Y-76892D01*
G37*
G36*
X214153Y-68453D02*
X204961Y-77645D01*
X195061Y-67746D01*
X204254Y-58553D01*
X214153Y-68453D01*
G37*
G36*
X202140Y-80472D02*
X192947Y-89664D01*
X183048Y-79764D01*
X192242Y-70572D01*
X202140Y-80472D01*
G37*
X340979Y-114057D02*
G54D25*
D03*
G36*
X317844Y-77457D02*
X306530Y-66143D01*
X319258Y-53415D01*
X330572Y-64729D01*
X317844Y-77457D01*
G37*
G36*
X281865Y-511661D02*
X281865Y-543661D01*
X249865Y-543661D01*
X249865Y-511661D01*
X281865Y-511661D01*
G37*
X143926Y-72678D02*
G54D13*
D03*
X104636Y-94109D02*
G54D13*
D03*
X85586Y-75852D02*
G54D13*
D03*
X85586Y-94109D02*
G54D13*
D03*
X104636Y-118715D02*
G54D13*
D03*
X85586Y-143321D02*
G54D13*
D03*
X104636Y-143321D02*
G54D13*
D03*
X85586Y-118715D02*
G54D13*
D03*
X105429Y-169912D02*
G54D13*
D03*
G36*
X298794Y-95714D02*
X287480Y-84400D01*
X300208Y-71672D01*
X311522Y-82986D01*
X298794Y-95714D01*
G37*
G36*
X178281Y-316408D02*
X187474Y-307217D01*
X197372Y-317117D01*
X188179Y-326309D01*
X178281Y-316408D01*
G37*
G36*
X190305Y-304389D02*
X199497Y-295197D01*
X209397Y-305096D01*
X200204Y-314289D01*
X190305Y-304389D01*
G37*
X152172Y-348686D02*
G54D23*
D03*
X152169Y-365688D02*
G54D23*
D03*
X134312Y-348686D02*
G54D23*
D03*
X134309Y-365688D02*
G54D23*
D03*
X152172Y-382817D02*
G54D23*
D03*
X152169Y-399819D02*
G54D23*
D03*
X134312Y-382817D02*
G54D23*
D03*
X134309Y-399819D02*
G54D23*
D03*
X65522Y-238556D02*
G54D21*
D03*
X160746Y-419904D02*
G54D10*
D03*
X219484Y-419904D02*
G54D10*
D03*
X238534Y-419903D02*
G54D10*
D03*
X205324Y-275975D02*
G54D26*
D03*
X79118Y-377178D02*
G54D21*
D03*
G36*
X87002Y-332932D02*
X78517Y-324446D01*
X88416Y-314547D01*
X96902Y-323032D01*
X87002Y-332932D01*
G37*
G36*
X116423Y-303734D02*
X106524Y-293835D01*
X116423Y-283935D01*
X126323Y-293835D01*
X116423Y-303734D01*
G37*
X115592Y-453559D02*
G54D23*
D03*
X115585Y-470564D02*
G54D23*
D03*
X133977Y-453628D02*
G54D23*
D03*
X133974Y-470630D02*
G54D23*
D03*
X82539Y-420435D02*
G54D27*
D03*
X72533Y-442430D02*
G54D27*
D03*
X321796Y-140025D02*
G54D21*
D03*
X341402Y-140025D02*
G54D21*
D03*
X436808Y-230419D02*
G54D20*
D03*
X419808Y-230419D02*
G54D20*
D03*
X381280Y-313250D02*
G54D20*
D03*
X364284Y-313246D02*
G54D20*
D03*
X346364Y-306896D02*
G54D13*
D03*
X468341Y-344734D02*
G54D28*
D03*
X430559Y-339892D02*
G54D13*
D03*
X511085Y-294571D02*
G54D23*
D03*
X511089Y-277575D02*
G54D23*
D03*
X83601Y-169912D02*
G54D13*
D03*
X476036Y-234151D02*
G54D14*
D03*
X476036Y-253151D02*
G54D14*
D03*
X468342Y-324644D02*
G54D28*
D03*
X449342Y-324644D02*
G54D28*
D03*
X496673Y-234151D02*
G54D14*
D03*
X496673Y-253151D02*
G54D14*
D03*
X433049Y-267980D02*
G54D29*
D03*
X433049Y-280681D02*
G54D29*
D03*
X433049Y-293380D02*
G54D29*
D03*
X433049Y-306080D02*
G54D29*
D03*
X381280Y-331506D02*
G54D20*
D03*
X364284Y-331502D02*
G54D20*
D03*
X479193Y-170094D02*
G54D23*
D03*
X479194Y-187093D02*
G54D23*
D03*
X410364Y-41280D02*
G54D13*
D03*
X121844Y-48025D02*
G54D13*
D03*
X217866Y-339975D02*
G54D30*
D03*
X237074Y-327751D02*
G54D31*
D03*
X286827Y-459136D02*
G54D20*
D03*
X269828Y-459136D02*
G54D20*
D03*
X149288Y-25067D02*
G54D20*
D03*
X132287Y-25067D02*
G54D20*
D03*
X115868Y-348707D02*
G54D23*
D03*
X115865Y-365709D02*
G54D23*
D03*
X115865Y-383008D02*
G54D23*
D03*
X115862Y-400010D02*
G54D23*
D03*
X116320Y-435610D02*
G54D20*
D03*
X99316Y-435603D02*
G54D20*
D03*
X134477Y-417754D02*
G54D20*
D03*
X117475Y-417751D02*
G54D20*
D03*
X169634Y-337573D02*
G54D21*
D03*
X357559Y-67047D02*
G54D25*
D03*
X378196Y-67047D02*
G54D25*
D03*
X61520Y-351237D02*
G54D13*
D03*
G36*
X149066Y-271092D02*
X139874Y-280284D01*
X129974Y-270384D01*
X139167Y-261192D01*
X149066Y-271092D01*
G37*
G36*
X137042Y-283112D02*
X127849Y-292304D01*
X117950Y-282404D01*
X127143Y-273212D01*
X137042Y-283112D01*
G37*
X97793Y-417522D02*
G54D23*
D03*
X97796Y-400520D02*
G54D23*
D03*
X62533Y-420430D02*
G54D27*
D03*
X133974Y-490067D02*
G54D21*
D03*
X115585Y-490001D02*
G54D21*
D03*
X81425Y-608634D02*
G54D32*
D03*
G36*
X334565Y-261860D02*
X345879Y-273174D01*
X334565Y-284488D01*
X323252Y-273174D01*
X334565Y-261860D01*
G37*
G36*
X359172Y-237254D02*
X370485Y-248568D01*
X359172Y-259882D01*
X347858Y-248568D01*
X359172Y-237254D01*
G37*
X85522Y-238556D02*
G54D21*
D03*
X65522Y-258953D02*
G54D21*
D03*
X85522Y-258953D02*
G54D21*
D03*
X65522Y-279350D02*
G54D21*
D03*
X85522Y-279350D02*
G54D21*
D03*
X49528Y-179574D02*
G54D20*
D03*
X66528Y-179574D02*
G54D20*
D03*
X39155Y-779910D02*
G54D10*
D03*
X141155Y-779910D02*
G54D10*
D03*
X243155Y-779910D02*
G54D10*
D03*
X345155Y-779910D02*
G54D10*
D03*
X447155Y-779911D02*
G54D10*
D03*
X523655Y-779910D02*
G54D10*
D03*
X39155Y-737634D02*
G54D10*
D03*
X64655Y-737636D02*
G54D10*
D03*
X90156Y-737634D02*
G54D11*
D03*
X115655Y-737636D02*
G54D10*
D03*
X141155Y-737636D02*
G54D10*
D03*
X166655Y-737636D02*
G54D10*
D03*
X192155Y-737636D02*
G54D10*
D03*
X217655Y-737636D02*
G54D10*
D03*
X243155Y-737636D02*
G54D10*
D03*
X268655Y-737636D02*
G54D10*
D03*
X294155Y-737636D02*
G54D10*
D03*
X319655Y-737636D02*
G54D10*
D03*
X345155Y-737636D02*
G54D10*
D03*
X370655Y-737636D02*
G54D10*
D03*
X396155Y-737636D02*
G54D10*
D03*
X421655Y-737636D02*
G54D10*
D03*
X447155Y-737636D02*
G54D10*
D03*
X472655Y-737636D02*
G54D10*
D03*
X498155Y-737636D02*
G54D10*
D03*
X523655Y-737636D02*
G54D10*
D03*
X51905Y-717634D02*
G54D10*
D03*
X77405Y-717634D02*
G54D10*
D03*
X102905Y-717636D02*
G54D10*
D03*
X153905Y-717636D02*
G54D10*
D03*
X179405Y-717636D02*
G54D10*
D03*
X204905Y-717636D02*
G54D10*
D03*
X255905Y-717636D02*
G54D10*
D03*
X281405Y-717636D02*
G54D10*
D03*
X306905Y-717636D02*
G54D10*
D03*
X357905Y-717636D02*
G54D10*
D03*
X383405Y-717636D02*
G54D10*
D03*
X408905Y-717636D02*
G54D10*
D03*
X459905Y-717636D02*
G54D10*
D03*
X485405Y-717636D02*
G54D10*
D03*
X510905Y-717636D02*
G54D10*
D03*
X77327Y-796660D02*
G54D12*
D03*
X102727Y-796660D02*
G54D12*
D03*
X179327Y-796660D02*
G54D12*
D03*
X204727Y-796660D02*
G54D12*
D03*
X281327Y-796660D02*
G54D12*
D03*
X306727Y-796660D02*
G54D12*
D03*
X383327Y-796660D02*
G54D12*
D03*
X408727Y-796660D02*
G54D12*
D03*
X485327Y-796660D02*
G54D12*
D03*
X510727Y-796661D02*
G54D12*
D03*
X106863Y-707687D02*
G54D13*
D03*
X84638Y-707687D02*
G54D13*
D03*
X59238Y-707687D02*
G54D13*
D03*
X35823Y-707687D02*
G54D13*
D03*
X81425Y-737634D02*
G54D32*
D03*
G54D33*
X727042Y-927695D02*
X727042Y-982938D01*
X671403Y-837973D02*
G54D14*
D03*
X671400Y-856978D02*
G54D14*
D03*
X671400Y-864966D02*
G54D14*
D03*
X671393Y-883963D02*
G54D14*
D03*
X727043Y-844013D02*
G54D34*
D03*
X714342Y-844012D02*
G54D34*
D03*
X701642Y-844012D02*
G54D34*
D03*
X688942Y-844012D02*
G54D34*
D03*
X688942Y-894012D02*
G54D34*
D03*
X701643Y-894013D02*
G54D34*
D03*
X714343Y-894013D02*
G54D34*
D03*
X727043Y-894013D02*
G54D34*
D03*
G54D33*
X277042Y-927695D02*
X277042Y-982938D01*
X221403Y-837973D02*
G54D14*
D03*
X221400Y-856978D02*
G54D14*
D03*
X221400Y-864966D02*
G54D14*
D03*
X221393Y-883963D02*
G54D14*
D03*
X277043Y-844013D02*
G54D34*
D03*
X264342Y-844012D02*
G54D34*
D03*
X251642Y-844012D02*
G54D34*
D03*
X238943Y-844012D02*
G54D34*
D03*
X238942Y-894012D02*
G54D34*
D03*
X251643Y-894013D02*
G54D34*
D03*
X264343Y-894013D02*
G54D34*
D03*
X277042Y-894013D02*
G54D34*
D03*
G54D33*
X427042Y-927695D02*
X427042Y-982938D01*
X371403Y-837973D02*
G54D14*
D03*
X371400Y-856978D02*
G54D14*
D03*
X371400Y-864966D02*
G54D14*
D03*
X371393Y-883963D02*
G54D14*
D03*
X427043Y-844013D02*
G54D34*
D03*
X414342Y-844012D02*
G54D34*
D03*
X401642Y-844012D02*
G54D34*
D03*
X388943Y-844012D02*
G54D34*
D03*
X388942Y-894012D02*
G54D34*
D03*
X401643Y-894013D02*
G54D34*
D03*
X414343Y-894013D02*
G54D34*
D03*
X427042Y-894013D02*
G54D34*
D03*
G54D33*
X877042Y-927695D02*
X877042Y-982938D01*
X821403Y-837973D02*
G54D14*
D03*
X821400Y-856978D02*
G54D14*
D03*
X821400Y-864966D02*
G54D14*
D03*
X821393Y-883963D02*
G54D14*
D03*
X877042Y-844013D02*
G54D34*
D03*
X864342Y-844012D02*
G54D34*
D03*
X851642Y-844012D02*
G54D34*
D03*
X838943Y-844012D02*
G54D34*
D03*
X838942Y-894012D02*
G54D34*
D03*
X851643Y-894013D02*
G54D34*
D03*
X864343Y-894013D02*
G54D34*
D03*
X877042Y-894013D02*
G54D34*
D03*
G54D33*
X577042Y-927695D02*
X577042Y-982938D01*
X521403Y-837973D02*
G54D14*
D03*
X521400Y-856978D02*
G54D14*
D03*
X521400Y-864966D02*
G54D14*
D03*
X521393Y-883963D02*
G54D14*
D03*
X577043Y-844013D02*
G54D34*
D03*
X564342Y-844012D02*
G54D34*
D03*
X551642Y-844012D02*
G54D34*
D03*
X538943Y-844012D02*
G54D34*
D03*
X538942Y-894012D02*
G54D34*
D03*
X551643Y-894013D02*
G54D34*
D03*
X564342Y-894013D02*
G54D34*
D03*
X577042Y-894013D02*
G54D34*
D03*
G54D33*
X165142Y-938013D02*
X165142Y-973413D01*
G54D33*
X152442Y-938013D02*
X152442Y-973413D01*
G54D33*
X127042Y-927695D02*
X127042Y-982938D01*
X71403Y-837973D02*
G54D14*
D03*
X71400Y-856978D02*
G54D14*
D03*
X71400Y-864966D02*
G54D14*
D03*
X71393Y-883963D02*
G54D14*
D03*
G54D33*
X177942Y-938013D02*
X177942Y-973413D01*
G54D33*
X165142Y-938013D02*
X165142Y-973413D01*
G54D33*
X152442Y-938013D02*
X152442Y-973413D01*
G54D33*
X139842Y-938013D02*
X139842Y-973413D01*
G54D33*
X114342Y-938013D02*
X114342Y-973413D01*
G54D33*
X190542Y-938013D02*
X190542Y-973413D01*
G54D33*
X101642Y-938013D02*
X101642Y-973413D01*
G54D33*
X89042Y-938013D02*
X89042Y-973413D01*
G54D33*
X76242Y-938013D02*
X76242Y-973413D01*
G54D33*
X63542Y-938013D02*
X63542Y-973413D01*
X127043Y-844013D02*
G54D34*
D03*
X114342Y-844012D02*
G54D34*
D03*
X101642Y-844012D02*
G54D34*
D03*
X88942Y-844012D02*
G54D34*
D03*
X88942Y-894012D02*
G54D34*
D03*
X101642Y-894013D02*
G54D34*
D03*
X114342Y-894013D02*
G54D34*
D03*
X127042Y-894013D02*
G54D34*
D03*
G54D33*
X315142Y-938013D02*
X315142Y-973413D01*
G54D33*
X302442Y-938013D02*
X302442Y-973413D01*
G54D33*
X327942Y-938013D02*
X327942Y-973413D01*
G54D33*
X315142Y-938013D02*
X315142Y-973413D01*
G54D33*
X302442Y-938013D02*
X302442Y-973413D01*
G54D33*
X289842Y-938013D02*
X289842Y-973413D01*
G54D33*
X264342Y-938013D02*
X264342Y-973413D01*
G54D33*
X340542Y-938013D02*
X340542Y-973413D01*
G54D33*
X251642Y-938013D02*
X251642Y-973413D01*
G54D33*
X239042Y-938013D02*
X239042Y-973413D01*
G54D33*
X226242Y-938013D02*
X226242Y-973413D01*
G54D33*
X213542Y-938013D02*
X213542Y-973413D01*
G54D33*
X465142Y-938013D02*
X465142Y-973413D01*
G54D33*
X452442Y-938013D02*
X452442Y-973413D01*
G54D33*
X477942Y-938013D02*
X477942Y-973413D01*
G54D33*
X465142Y-938013D02*
X465142Y-973413D01*
G54D33*
X452442Y-938013D02*
X452442Y-973413D01*
G54D33*
X439842Y-938013D02*
X439842Y-973413D01*
G54D33*
X414342Y-938013D02*
X414342Y-973413D01*
G54D33*
X490542Y-938013D02*
X490542Y-973413D01*
G54D33*
X401642Y-938013D02*
X401642Y-973413D01*
G54D33*
X389042Y-938013D02*
X389042Y-973413D01*
G54D33*
X376242Y-938013D02*
X376242Y-973413D01*
G54D33*
X363542Y-938013D02*
X363542Y-973413D01*
G54D33*
X615142Y-938013D02*
X615142Y-973413D01*
G54D33*
X602442Y-938013D02*
X602442Y-973413D01*
G54D33*
X627943Y-938013D02*
X627942Y-973413D01*
G54D33*
X615142Y-938013D02*
X615142Y-973413D01*
G54D33*
X602442Y-938013D02*
X602442Y-973413D01*
G54D33*
X589842Y-938013D02*
X589842Y-973413D01*
G54D33*
X564342Y-938013D02*
X564342Y-973413D01*
G54D33*
X640542Y-938013D02*
X640542Y-973413D01*
G54D33*
X551642Y-938013D02*
X551642Y-973413D01*
G54D33*
X539042Y-938013D02*
X539042Y-973413D01*
G54D33*
X526242Y-938013D02*
X526242Y-973413D01*
G54D33*
X513542Y-938013D02*
X513542Y-973413D01*
G54D33*
X765142Y-938013D02*
X765142Y-973413D01*
G54D33*
X752442Y-938013D02*
X752442Y-973413D01*
G54D33*
X777942Y-938013D02*
X777942Y-973413D01*
G54D33*
X765142Y-938013D02*
X765142Y-973413D01*
G54D33*
X752442Y-938013D02*
X752442Y-973413D01*
G54D33*
X739842Y-938013D02*
X739842Y-973413D01*
G54D33*
X714342Y-938013D02*
X714342Y-973413D01*
G54D33*
X790542Y-938013D02*
X790542Y-973413D01*
G54D33*
X701642Y-938013D02*
X701642Y-973413D01*
G54D33*
X689042Y-938013D02*
X689042Y-973413D01*
G54D33*
X676242Y-938013D02*
X676242Y-973413D01*
G54D33*
X663542Y-938013D02*
X663542Y-973413D01*
G54D33*
X915143Y-938013D02*
X915143Y-973413D01*
G54D33*
X902443Y-938013D02*
X902443Y-973413D01*
G54D33*
X927943Y-938013D02*
X927943Y-973413D01*
G54D33*
X915143Y-938013D02*
X915143Y-973413D01*
G54D33*
X902443Y-938013D02*
X902443Y-973413D01*
G54D33*
X889843Y-938013D02*
X889843Y-973413D01*
G54D33*
X864343Y-938013D02*
X864343Y-973413D01*
G54D33*
X940543Y-938013D02*
X940543Y-973413D01*
G54D33*
X851643Y-938013D02*
X851643Y-973413D01*
G54D33*
X839043Y-938013D02*
X839043Y-973413D01*
G54D33*
X826243Y-938013D02*
X826243Y-973413D01*
G54D33*
X813543Y-938013D02*
X813543Y-973413D01*
G54D33*
X877042Y-747694D02*
X877042Y-802938D01*
X821403Y-657973D02*
G54D14*
D03*
X821400Y-676978D02*
G54D14*
D03*
X821400Y-684966D02*
G54D14*
D03*
X821393Y-703963D02*
G54D14*
D03*
X877043Y-664013D02*
G54D34*
D03*
X864342Y-664012D02*
G54D34*
D03*
X851642Y-664012D02*
G54D34*
D03*
X838942Y-664012D02*
G54D34*
D03*
X838942Y-714012D02*
G54D34*
D03*
X851642Y-714013D02*
G54D34*
D03*
X864342Y-714013D02*
G54D34*
D03*
X877042Y-714013D02*
G54D34*
D03*
G54D33*
X727042Y-747695D02*
X727042Y-802938D01*
X671403Y-657973D02*
G54D14*
D03*
X671400Y-676978D02*
G54D14*
D03*
X671400Y-684966D02*
G54D14*
D03*
X671393Y-703963D02*
G54D14*
D03*
X727043Y-664013D02*
G54D34*
D03*
X714342Y-664012D02*
G54D34*
D03*
X701642Y-664012D02*
G54D34*
D03*
X688943Y-664012D02*
G54D34*
D03*
X688942Y-714013D02*
G54D34*
D03*
X701643Y-714013D02*
G54D34*
D03*
X714342Y-714013D02*
G54D34*
D03*
X727042Y-714013D02*
G54D34*
D03*
G54D33*
X915142Y-758013D02*
X915142Y-793413D01*
G54D33*
X902442Y-758013D02*
X902442Y-793413D01*
G54D33*
X927943Y-758013D02*
X927942Y-793413D01*
G54D33*
X915142Y-758013D02*
X915142Y-793413D01*
G54D33*
X902442Y-758013D02*
X902442Y-793413D01*
G54D33*
X889842Y-758013D02*
X889842Y-793413D01*
G54D33*
X864342Y-758013D02*
X864342Y-793413D01*
G54D33*
X940542Y-758013D02*
X940542Y-793413D01*
G54D33*
X851642Y-758013D02*
X851642Y-793413D01*
G54D33*
X839042Y-758013D02*
X839042Y-793413D01*
G54D33*
X826242Y-758013D02*
X826242Y-793413D01*
G54D33*
X813542Y-758013D02*
X813542Y-793413D01*
G54D33*
X765142Y-758013D02*
X765142Y-793413D01*
G54D33*
X752442Y-758013D02*
X752442Y-793413D01*
G54D33*
X777943Y-758013D02*
X777942Y-793413D01*
G54D33*
X765142Y-758013D02*
X765142Y-793413D01*
G54D33*
X752442Y-758013D02*
X752442Y-793413D01*
G54D33*
X739842Y-758013D02*
X739842Y-793413D01*
G54D33*
X714342Y-758013D02*
X714342Y-793413D01*
G54D33*
X790542Y-758013D02*
X790542Y-793413D01*
G54D33*
X701642Y-758013D02*
X701642Y-793413D01*
G54D33*
X689042Y-758013D02*
X689042Y-793413D01*
G54D33*
X676242Y-758013D02*
X676242Y-793413D01*
G54D33*
X663542Y-758013D02*
X663542Y-793413D01*
G54D33*
X727042Y-567695D02*
X727042Y-622938D01*
X727043Y-484013D02*
G54D34*
D03*
X714342Y-484012D02*
G54D34*
D03*
X701642Y-484012D02*
G54D34*
D03*
X688942Y-484012D02*
G54D34*
D03*
X688942Y-534012D02*
G54D34*
D03*
X701642Y-534012D02*
G54D34*
D03*
X714342Y-534012D02*
G54D34*
D03*
X727042Y-534012D02*
G54D34*
D03*
X671403Y-477973D02*
G54D14*
D03*
X671400Y-496978D02*
G54D14*
D03*
X671400Y-504966D02*
G54D14*
D03*
X671393Y-523963D02*
G54D14*
D03*
G54D33*
X877042Y-567695D02*
X877042Y-622938D01*
X821403Y-477973D02*
G54D14*
D03*
X821400Y-496978D02*
G54D14*
D03*
X821400Y-504966D02*
G54D14*
D03*
X821393Y-523963D02*
G54D14*
D03*
X877043Y-484013D02*
G54D34*
D03*
X864342Y-484012D02*
G54D34*
D03*
X851642Y-484012D02*
G54D34*
D03*
X838943Y-484012D02*
G54D34*
D03*
X838943Y-534012D02*
G54D34*
D03*
X851643Y-534013D02*
G54D34*
D03*
X864343Y-534013D02*
G54D34*
D03*
X877042Y-534013D02*
G54D34*
D03*
G54D33*
X915142Y-578013D02*
X915142Y-613413D01*
G54D33*
X902442Y-578013D02*
X902442Y-613413D01*
G54D33*
X927943Y-578013D02*
X927942Y-613413D01*
G54D33*
X915142Y-578013D02*
X915142Y-613413D01*
G54D33*
X902442Y-578013D02*
X902442Y-613413D01*
G54D33*
X889842Y-578013D02*
X889842Y-613413D01*
G54D33*
X864342Y-578013D02*
X864342Y-613413D01*
G54D33*
X940542Y-578013D02*
X940542Y-613413D01*
G54D33*
X851642Y-578013D02*
X851642Y-613413D01*
G54D33*
X839042Y-578013D02*
X839042Y-613413D01*
G54D33*
X826242Y-578013D02*
X826242Y-613413D01*
G54D33*
X813542Y-578013D02*
X813542Y-613413D01*
G54D33*
X765142Y-578013D02*
X765142Y-613413D01*
G54D33*
X752442Y-578013D02*
X752442Y-613413D01*
G54D33*
X777943Y-578013D02*
X777942Y-613413D01*
G54D33*
X765142Y-578013D02*
X765142Y-613413D01*
G54D33*
X752442Y-578013D02*
X752442Y-613413D01*
G54D33*
X739842Y-578013D02*
X739842Y-613413D01*
G54D33*
X714342Y-578013D02*
X714342Y-613413D01*
G54D33*
X790542Y-578013D02*
X790542Y-613413D01*
G54D33*
X701642Y-578013D02*
X701642Y-613413D01*
G54D33*
X689042Y-578013D02*
X689042Y-613413D01*
G54D33*
X676242Y-578013D02*
X676242Y-613413D01*
G54D33*
X663542Y-578013D02*
X663542Y-613413D01*
G54D33*
X877042Y-387695D02*
X877042Y-442938D01*
X821403Y-297973D02*
G54D14*
D03*
X821400Y-316978D02*
G54D14*
D03*
X821400Y-324966D02*
G54D14*
D03*
X821393Y-343963D02*
G54D14*
D03*
X877043Y-304013D02*
G54D34*
D03*
X864343Y-304012D02*
G54D34*
D03*
X851643Y-304012D02*
G54D34*
D03*
X838943Y-304012D02*
G54D34*
D03*
X838943Y-354012D02*
G54D34*
D03*
X851643Y-354013D02*
G54D34*
D03*
X864343Y-354013D02*
G54D34*
D03*
X877042Y-354013D02*
G54D34*
D03*
G54D33*
X727042Y-387695D02*
X727042Y-442938D01*
X671403Y-297973D02*
G54D14*
D03*
X671400Y-316978D02*
G54D14*
D03*
X671400Y-324966D02*
G54D14*
D03*
X671393Y-343963D02*
G54D14*
D03*
X727043Y-304013D02*
G54D34*
D03*
X714342Y-304012D02*
G54D34*
D03*
X701642Y-304012D02*
G54D34*
D03*
X688943Y-304012D02*
G54D34*
D03*
X688942Y-354012D02*
G54D34*
D03*
X701643Y-354013D02*
G54D34*
D03*
X714343Y-354013D02*
G54D34*
D03*
X727042Y-354013D02*
G54D34*
D03*
G54D33*
X915142Y-398013D02*
X915142Y-433413D01*
G54D33*
X902442Y-398013D02*
X902442Y-433413D01*
G54D33*
X927943Y-398013D02*
X927942Y-433413D01*
G54D33*
X915142Y-398013D02*
X915142Y-433413D01*
G54D33*
X902442Y-398013D02*
X902442Y-433413D01*
G54D33*
X889842Y-398013D02*
X889842Y-433413D01*
G54D33*
X864342Y-398013D02*
X864342Y-433413D01*
G54D33*
X940542Y-398013D02*
X940542Y-433413D01*
G54D33*
X851642Y-398013D02*
X851642Y-433413D01*
G54D33*
X839042Y-398013D02*
X839042Y-433413D01*
G54D33*
X826242Y-398013D02*
X826242Y-433413D01*
G54D33*
X813542Y-398013D02*
X813542Y-433413D01*
G54D33*
X765142Y-398013D02*
X765142Y-433413D01*
G54D33*
X752442Y-398013D02*
X752442Y-433413D01*
G54D33*
X777943Y-398013D02*
X777942Y-433413D01*
G54D33*
X765142Y-398013D02*
X765142Y-433413D01*
G54D33*
X752442Y-398013D02*
X752442Y-433413D01*
G54D33*
X739842Y-398013D02*
X739842Y-433413D01*
G54D33*
X714342Y-398013D02*
X714342Y-433413D01*
G54D33*
X790542Y-398013D02*
X790542Y-433413D01*
G54D33*
X701642Y-398013D02*
X701642Y-433413D01*
G54D33*
X689042Y-398013D02*
X689042Y-433413D01*
G54D33*
X676242Y-398013D02*
X676242Y-433413D01*
G54D33*
X663542Y-398013D02*
X663542Y-433413D01*
G54D33*
X618445Y-751838D02*
X618445Y-793588D01*
G54D33*
X605645Y-751838D02*
X605645Y-793588D01*
G54D33*
X592945Y-751838D02*
X592945Y-793588D01*
G54D33*
X580345Y-751838D02*
X580345Y-793588D01*
G54D33*
X567545Y-751838D02*
X567545Y-793588D01*
G54D33*
X554845Y-751838D02*
X554845Y-793588D01*
X568252Y-682436D02*
G54D34*
D03*
X580952Y-682436D02*
G54D34*
D03*
X593652Y-682436D02*
G54D34*
D03*
X606352Y-682436D02*
G54D34*
D03*
G36*
X601352Y-619436D02*
X611352Y-619436D01*
X611353Y-645435D01*
X601353Y-645436D01*
X601352Y-619436D01*
G37*
X593652Y-632436D02*
G54D34*
D03*
X580952Y-632436D02*
G54D34*
D03*
X568252Y-632436D02*
G54D34*
D03*
G54D33*
X631045Y-751838D02*
X631045Y-793588D01*
X561849Y-716202D02*
G54D20*
D03*
X578849Y-716202D02*
G54D20*
D03*
X629689Y-706794D02*
G54D23*
D03*
X629689Y-723794D02*
G54D23*
D03*
G54D33*
X877042Y-207695D02*
X877042Y-262938D01*
X821403Y-117973D02*
G54D14*
D03*
X821400Y-136978D02*
G54D14*
D03*
X821400Y-144966D02*
G54D14*
D03*
X821393Y-163963D02*
G54D14*
D03*
X877043Y-124013D02*
G54D34*
D03*
X864343Y-124012D02*
G54D34*
D03*
X851643Y-124012D02*
G54D34*
D03*
X838943Y-124012D02*
G54D34*
D03*
X838943Y-174012D02*
G54D34*
D03*
X851643Y-174013D02*
G54D34*
D03*
X864343Y-174013D02*
G54D34*
D03*
X877042Y-174013D02*
G54D34*
D03*
G54D33*
X915142Y-218013D02*
X915142Y-253413D01*
G54D33*
X902442Y-218013D02*
X902442Y-253413D01*
G54D33*
X927943Y-218013D02*
X927942Y-253413D01*
G54D33*
X915142Y-218013D02*
X915142Y-253413D01*
G54D33*
X902442Y-218013D02*
X902442Y-253413D01*
G54D33*
X889842Y-218013D02*
X889842Y-253413D01*
G54D33*
X864342Y-218013D02*
X864342Y-253413D01*
G54D33*
X940542Y-218013D02*
X940542Y-253413D01*
G54D33*
X851642Y-218013D02*
X851642Y-253413D01*
G54D33*
X839042Y-218013D02*
X839042Y-253413D01*
G54D33*
X826242Y-218013D02*
X826242Y-253413D01*
G54D33*
X813542Y-218013D02*
X813542Y-253413D01*
G54D33*
X727042Y-207695D02*
X727042Y-262938D01*
X671403Y-117973D02*
G54D14*
D03*
X671400Y-136978D02*
G54D14*
D03*
X671400Y-144966D02*
G54D14*
D03*
X671393Y-163963D02*
G54D14*
D03*
X727042Y-124013D02*
G54D34*
D03*
X714342Y-124012D02*
G54D34*
D03*
X701642Y-124012D02*
G54D34*
D03*
X688943Y-124012D02*
G54D34*
D03*
X688942Y-174012D02*
G54D34*
D03*
X701643Y-174013D02*
G54D34*
D03*
X714343Y-174013D02*
G54D34*
D03*
X727042Y-174013D02*
G54D34*
D03*
G54D33*
X765143Y-218013D02*
X765143Y-253413D01*
G54D33*
X752443Y-218013D02*
X752443Y-253413D01*
G54D33*
X777943Y-218013D02*
X777943Y-253413D01*
G54D33*
X765143Y-218013D02*
X765143Y-253413D01*
G54D33*
X752443Y-218013D02*
X752443Y-253413D01*
G54D33*
X739843Y-218013D02*
X739843Y-253413D01*
G54D33*
X714343Y-218013D02*
X714343Y-253413D01*
G54D33*
X790543Y-218013D02*
X790543Y-253413D01*
G54D33*
X701643Y-218013D02*
X701643Y-253413D01*
G54D33*
X689043Y-218013D02*
X689043Y-253413D01*
G54D33*
X676243Y-218013D02*
X676243Y-253413D01*
G54D33*
X663543Y-218013D02*
X663543Y-253413D01*
X398815Y-331267D02*
G54D23*
D03*
X398819Y-314270D02*
G54D23*
D03*
X436808Y-212163D02*
G54D20*
D03*
X419808Y-212163D02*
G54D20*
D03*
X357559Y-26616D02*
G54D14*
D03*
X357559Y-45616D02*
G54D14*
D03*
X378196Y-26616D02*
G54D14*
D03*
X378196Y-45616D02*
G54D14*
D03*
X160747Y-532741D02*
G54D10*
D03*
X179796Y-532741D02*
G54D10*
D03*
X198846Y-532741D02*
G54D10*
D03*
X198847Y-419902D02*
G54D10*
D03*
G54D18*
G75*
G01X203846Y-419904D02*
G03X203846Y-419904I-5000J0D01*
G01*
G36*
G75*
G01X203846Y-419904D02*
G03X203846Y-419904I-5000J0D01*
G01*
G37*
X203846Y-419904D01*
G54D18*
G75*
G01X224484Y-419904D02*
G03X224484Y-419904I-5000J0D01*
G01*
G36*
G75*
G01X224484Y-419904D02*
G03X224484Y-419904I-5000J0D01*
G01*
G37*
X224484Y-419904D01*
G54D18*
G75*
G01X243534Y-419903D02*
G03X243534Y-419903I-5000J0D01*
G01*
G36*
G75*
G01X243534Y-419903D02*
G03X243534Y-419903I-5000J0D01*
G01*
G37*
X243534Y-419903D01*
G54D18*
G75*
G01X244544Y-532736D02*
G03X244544Y-532736I-6000J0D01*
G01*
G36*
G75*
G01X244544Y-532736D02*
G03X244544Y-532736I-6000J0D01*
G01*
G37*
X244544Y-532736D01*
G54D18*
G75*
G01X203846Y-532741D02*
G03X203846Y-532741I-5000J0D01*
G01*
G36*
G75*
G01X203846Y-532741D02*
G03X203846Y-532741I-5000J0D01*
G01*
G37*
X203846Y-532741D01*
G54D18*
G75*
G01X184796Y-532741D02*
G03X184796Y-532741I-5000J0D01*
G01*
G36*
G75*
G01X184796Y-532741D02*
G03X184796Y-532741I-5000J0D01*
G01*
G37*
X184796Y-532741D01*
G54D18*
G75*
G01X165746Y-419904D02*
G03X165746Y-419904I-5000J0D01*
G01*
G36*
G75*
G01X165746Y-419904D02*
G03X165746Y-419904I-5000J0D01*
G01*
G37*
X165746Y-419904D01*
X85522Y-279350D02*
G54D14*
D03*
X85521Y-298350D02*
G54D14*
D03*
X238534Y-428903D02*
G54D35*
D03*
X219484Y-428904D02*
G54D35*
D03*
X198847Y-428902D02*
G54D35*
D03*
X160746Y-428904D02*
G54D35*
D03*
X198850Y-523743D02*
G54D35*
D03*
X179800Y-523743D02*
G54D35*
D03*
X160747Y-523741D02*
G54D35*
D03*
X238544Y-523736D02*
G54D35*
D03*
G54D18*
G75*
G01X184796Y-532741D02*
G03X184796Y-532741I-5000J0D01*
G01*
G36*
G75*
G01X184796Y-532741D02*
G03X184796Y-532741I-5000J0D01*
G01*
G37*
X184796Y-532741D01*
G54D18*
G75*
G01X165747Y-532741D02*
G03X165747Y-532741I-5000J0D01*
G01*
G36*
G75*
G01X165747Y-532741D02*
G03X165747Y-532741I-5000J0D01*
G01*
G37*
X165747Y-532741D01*
G36*
X751702Y-189390D02*
X751702Y-135415D01*
X777102Y-135415D01*
X777102Y-189390D01*
X751702Y-189390D01*
G37*
G36*
X918768Y-350738D02*
X918768Y-363438D01*
X906862Y-363438D01*
X906862Y-350738D01*
X894162Y-350738D01*
X894162Y-338831D01*
X906862Y-338831D01*
X906862Y-325734D01*
X918768Y-325734D01*
X918768Y-338831D01*
X931468Y-338831D01*
X931468Y-350738D01*
X918768Y-350738D01*
G37*
G36*
X899719Y-554153D02*
X900116Y-539072D01*
X893766Y-532325D01*
X893766Y-514862D01*
X906316Y-511125D01*
X906316Y-497631D01*
X908847Y-495415D01*
X915197Y-495415D01*
X917825Y-498028D01*
X918222Y-510728D01*
X931866Y-514862D01*
X931866Y-532722D01*
X925516Y-539072D01*
X925516Y-554946D01*
X924572Y-555972D01*
X901156Y-555972D01*
X899719Y-554153D01*
G37*
G36*
X762916Y-506903D02*
X769916Y-508903D01*
X776916Y-513903D01*
X780916Y-521903D01*
X780916Y-531903D01*
X777916Y-537903D01*
X771916Y-542903D01*
X762916Y-545903D01*
X752916Y-542903D01*
X747916Y-537903D01*
X743916Y-531903D01*
X743916Y-521903D01*
X748916Y-512903D01*
X754916Y-508903D01*
X762916Y-506903D01*
G37*
G36*
X908619Y-685716D02*
X915444Y-685966D01*
X920778Y-687319D01*
X928175Y-692716D01*
X932175Y-700716D01*
X932906Y-708191D01*
X931381Y-714288D01*
X926794Y-721478D01*
X920000Y-725684D01*
X913778Y-727097D01*
X907506Y-726844D01*
X903381Y-725288D01*
X898775Y-722478D01*
X895206Y-718700D01*
X892000Y-712303D01*
X891234Y-707397D01*
X891603Y-703097D01*
X892822Y-697872D01*
X895412Y-693303D01*
X898775Y-690331D01*
X903000Y-687716D01*
X908619Y-685716D01*
G37*
G36*
X762354Y-679960D02*
X769354Y-681960D01*
X772509Y-683188D01*
X775957Y-686166D01*
X778462Y-689538D01*
X780354Y-694960D01*
X781241Y-700253D01*
X780354Y-705753D01*
X777354Y-710960D01*
X772941Y-715166D01*
X767747Y-718112D01*
X762354Y-718960D01*
X752354Y-716356D01*
X747750Y-712547D01*
X745125Y-708984D01*
X743354Y-704960D01*
X742744Y-700253D01*
X742744Y-697475D01*
X743354Y-694960D01*
X743934Y-692316D01*
X745125Y-689934D01*
X748354Y-685960D01*
X751178Y-683547D01*
X756634Y-680806D01*
X762354Y-679960D01*
G37*
G36*
X761227Y-852240D02*
X761227Y-865734D01*
X754877Y-872084D01*
X754877Y-915740D01*
X777102Y-915740D01*
X777102Y-872481D01*
X770752Y-866131D01*
X770752Y-852240D01*
X761227Y-852240D01*
G37*
G36*
X901702Y-909390D02*
X901702Y-855415D01*
X927102Y-855415D01*
X927102Y-909390D01*
X901702Y-909390D01*
G37*
G36*
X596718Y-893188D02*
X594597Y-887759D01*
X600597Y-878759D01*
X606597Y-876759D01*
X611718Y-870080D01*
X609597Y-864759D01*
X613355Y-854442D01*
X619004Y-851442D01*
X631597Y-858759D01*
X632354Y-861792D01*
X627597Y-871759D01*
X620354Y-873893D01*
X615597Y-881759D01*
X617597Y-889759D01*
X613740Y-896506D01*
X609037Y-899506D01*
X596718Y-893188D01*
G37*
G36*
X448120Y-871773D02*
X448120Y-888045D01*
X454204Y-891045D01*
X459316Y-892744D01*
X465731Y-893037D01*
X470642Y-892347D01*
X476447Y-890259D01*
X480547Y-887648D01*
X480547Y-871773D01*
X477241Y-869622D01*
X472695Y-867566D01*
X464334Y-865966D01*
X455109Y-867759D01*
X452238Y-869225D01*
X448120Y-871773D01*
G37*
G36*
X337384Y-908744D02*
X337384Y-847775D01*
X290209Y-848172D01*
X290209Y-909140D01*
X337384Y-908744D01*
G37*
G36*
X142691Y-906759D02*
X186691Y-906759D01*
X186691Y-849759D01*
X142691Y-849759D01*
X142691Y-906759D01*
G37*
G36*
X749719Y-374153D02*
X750116Y-359072D01*
X743766Y-352325D01*
X743766Y-334862D01*
X756316Y-331125D01*
X756316Y-317631D01*
X758847Y-315415D01*
X765197Y-315415D01*
X767825Y-318028D01*
X768222Y-330728D01*
X781866Y-334862D01*
X781866Y-352722D01*
X775516Y-359072D01*
X775516Y-374946D01*
X774572Y-375972D01*
X751156Y-375972D01*
X749719Y-374153D01*
G37*
G36*
X918768Y-170738D02*
X918768Y-183438D01*
X906862Y-183438D01*
X906862Y-170738D01*
X894162Y-170738D01*
X894162Y-158831D01*
X906862Y-158831D01*
X906862Y-145734D01*
X918768Y-145734D01*
X918768Y-158831D01*
X931468Y-158831D01*
X931468Y-170738D01*
X918768Y-170738D01*
G37*
X629689Y-670416D02*
G54D14*
D03*
X629689Y-689416D02*
G54D14*
D03*
G54D33*
X618445Y-544192D02*
X618445Y-585942D01*
G54D33*
X605645Y-544193D02*
X605645Y-585943D01*
G54D33*
X592945Y-544193D02*
X592945Y-585943D01*
G54D33*
X580345Y-544193D02*
X580345Y-585943D01*
G54D33*
X567545Y-544193D02*
X567545Y-585942D01*
G54D33*
X554845Y-544193D02*
X554845Y-585942D01*
X568252Y-474791D02*
G54D34*
D03*
X580952Y-474791D02*
G54D34*
D03*
X593652Y-474791D02*
G54D34*
D03*
X606352Y-474791D02*
G54D34*
D03*
G36*
X601352Y-411791D02*
X611352Y-411790D01*
X611353Y-437790D01*
X601353Y-437791D01*
X601352Y-411791D01*
G37*
X593652Y-424791D02*
G54D34*
D03*
X580952Y-424791D02*
G54D34*
D03*
X568252Y-424791D02*
G54D34*
D03*
G54D33*
X631045Y-544192D02*
X631045Y-585943D01*
X561849Y-508558D02*
G54D20*
D03*
X578849Y-508558D02*
G54D20*
D03*
X629689Y-499149D02*
G54D23*
D03*
X629689Y-516149D02*
G54D23*
D03*
X629689Y-462771D02*
G54D14*
D03*
X629689Y-481771D02*
G54D14*
D03*
G54D33*
X618445Y-336548D02*
X618445Y-378298D01*
G54D33*
X605645Y-336548D02*
X605645Y-378298D01*
G54D33*
X592945Y-336548D02*
X592945Y-378298D01*
G54D33*
X580345Y-336548D02*
X580345Y-378298D01*
G54D33*
X567545Y-336548D02*
X567545Y-378298D01*
G54D33*
X554845Y-336548D02*
X554845Y-378298D01*
X568252Y-267146D02*
G54D34*
D03*
X580952Y-267146D02*
G54D34*
D03*
X593652Y-267146D02*
G54D34*
D03*
X606352Y-267146D02*
G54D34*
D03*
G36*
X601352Y-204146D02*
X611352Y-204146D01*
X611353Y-230145D01*
X601353Y-230146D01*
X601352Y-204146D01*
G37*
X593652Y-217146D02*
G54D34*
D03*
X580952Y-217146D02*
G54D34*
D03*
X568252Y-217146D02*
G54D34*
D03*
G54D33*
X631045Y-336548D02*
X631045Y-378298D01*
X561849Y-300912D02*
G54D20*
D03*
X578849Y-300912D02*
G54D20*
D03*
X629689Y-291504D02*
G54D23*
D03*
X629689Y-308504D02*
G54D23*
D03*
X629689Y-255126D02*
G54D14*
D03*
X629689Y-274126D02*
G54D14*
D03*
M02*
