%FSLAX34Y34*%
%MOMM*%
%LNSMDMASK_TOP*%
G71*
G01*
%ADD10R, 1.40X1.30*%
%ADD11R, 1.30X1.40*%
%ADD12R, 2.20X1.20*%
%ADD13R, 1.60X0.67*%
%ADD14R, 0.30X0.30*%
%ADD15R, 1.40X1.40*%
%ADD16R, 1.20X1.40*%
%ADD17R, 0.99X0.66*%
%ADD18R, 1.60X1.30*%
%ADD19R, 1.30X1.60*%
%ADD20R, 1.60X2.00*%
%ADD21R, 2.00X1.60*%
%ADD22R, 1.40X1.90*%
%ADD23R, 1.60X1.40*%
%ADD24R, 1.80X1.40*%
%ADD25R, 1.40X1.80*%
%ADD26R, 0.90X0.80*%
%ADD27R, 1.40X1.20*%
%ADD28R, 1.60X1.60*%
%ADD29R, 0.80X2.40*%
%LPD*%
X471007Y-390885D02*
G54D10*
D03*
X471007Y-369885D02*
G54D10*
D03*
X523126Y-389972D02*
G54D10*
D03*
X523125Y-370972D02*
G54D10*
D03*
X588059Y-465332D02*
G54D11*
D03*
X569059Y-465333D02*
G54D11*
D03*
X237826Y-262830D02*
G54D12*
D03*
X237826Y-239812D02*
G54D12*
D03*
X237826Y-220762D02*
G54D12*
D03*
X237826Y-201712D02*
G54D12*
D03*
X237826Y-182662D02*
G54D12*
D03*
G36*
X226826Y-157612D02*
X248826Y-157612D01*
X248827Y-169612D01*
X226827Y-169612D01*
X226826Y-157612D01*
G37*
X237826Y-144562D02*
G54D12*
D03*
G36*
X226826Y-119512D02*
X248826Y-119512D01*
X248827Y-131512D01*
X226827Y-131512D01*
X226826Y-119512D01*
G37*
X501864Y-187147D02*
G54D13*
D03*
X501864Y-174447D02*
G54D13*
D03*
X501864Y-161747D02*
G54D13*
D03*
X501864Y-149047D02*
G54D13*
D03*
X444864Y-149047D02*
G54D13*
D03*
X444864Y-161747D02*
G54D13*
D03*
X444864Y-174447D02*
G54D13*
D03*
X444864Y-187147D02*
G54D13*
D03*
X288333Y-480447D02*
G54D14*
D03*
X293333Y-480447D02*
G54D14*
D03*
X298333Y-480447D02*
G54D14*
D03*
X303333Y-480447D02*
G54D14*
D03*
X308333Y-480447D02*
G54D14*
D03*
X313333Y-480447D02*
G54D14*
D03*
X318333Y-480448D02*
G54D14*
D03*
X323333Y-480447D02*
G54D14*
D03*
X328333Y-480447D02*
G54D14*
D03*
X333333Y-480447D02*
G54D14*
D03*
X338333Y-480447D02*
G54D14*
D03*
X343333Y-480447D02*
G54D14*
D03*
X348333Y-480447D02*
G54D14*
D03*
X353333Y-480447D02*
G54D14*
D03*
X358333Y-480447D02*
G54D14*
D03*
X363333Y-480448D02*
G54D14*
D03*
X368333Y-480447D02*
G54D14*
D03*
X373333Y-480447D02*
G54D14*
D03*
X378333Y-480448D02*
G54D14*
D03*
X383333Y-480447D02*
G54D14*
D03*
X388333Y-480448D02*
G54D14*
D03*
X393333Y-480447D02*
G54D14*
D03*
X398333Y-480447D02*
G54D14*
D03*
X403333Y-480447D02*
G54D14*
D03*
X408333Y-480447D02*
G54D14*
D03*
X270369Y-342484D02*
G54D14*
D03*
X270369Y-347484D02*
G54D14*
D03*
X270369Y-352483D02*
G54D14*
D03*
X270369Y-357484D02*
G54D14*
D03*
X270369Y-362484D02*
G54D14*
D03*
X270369Y-367483D02*
G54D14*
D03*
X270369Y-372484D02*
G54D14*
D03*
X270369Y-377484D02*
G54D14*
D03*
X270369Y-382484D02*
G54D14*
D03*
X270369Y-387484D02*
G54D14*
D03*
X270369Y-392484D02*
G54D14*
D03*
X270369Y-397484D02*
G54D14*
D03*
X270369Y-402484D02*
G54D14*
D03*
X270369Y-407484D02*
G54D14*
D03*
X270369Y-412483D02*
G54D14*
D03*
X270369Y-417484D02*
G54D14*
D03*
X270369Y-422484D02*
G54D14*
D03*
X270369Y-427484D02*
G54D14*
D03*
X270369Y-432484D02*
G54D14*
D03*
X270369Y-437483D02*
G54D14*
D03*
X270369Y-442484D02*
G54D14*
D03*
X270369Y-447484D02*
G54D14*
D03*
X270369Y-452484D02*
G54D14*
D03*
X270369Y-457484D02*
G54D14*
D03*
X270369Y-462484D02*
G54D14*
D03*
G36*
X406833Y-323010D02*
X409833Y-323010D01*
X409833Y-326010D01*
X406833Y-326010D01*
X406833Y-323010D01*
G37*
X403333Y-324510D02*
G54D14*
D03*
G36*
X396833Y-323010D02*
X399833Y-323010D01*
X399833Y-326009D01*
X396833Y-326010D01*
X396833Y-323010D01*
G37*
G36*
X391833Y-323010D02*
X394833Y-323010D01*
X394833Y-326010D01*
X391833Y-326010D01*
X391833Y-323010D01*
G37*
X388333Y-324510D02*
G54D14*
D03*
X383333Y-324510D02*
G54D14*
D03*
G36*
X376833Y-323010D02*
X379833Y-323010D01*
X379833Y-326009D01*
X376833Y-326010D01*
X376833Y-323010D01*
G37*
X373333Y-324510D02*
G54D14*
D03*
G36*
X366833Y-323010D02*
X369833Y-323010D01*
X369833Y-326010D01*
X366833Y-326010D01*
X366833Y-323010D01*
G37*
X363333Y-324510D02*
G54D14*
D03*
G36*
X356833Y-323010D02*
X359833Y-323010D01*
X359833Y-326010D01*
X356833Y-326010D01*
X356833Y-323010D01*
G37*
X353333Y-324510D02*
G54D14*
D03*
X348333Y-324510D02*
G54D14*
D03*
X343333Y-324510D02*
G54D14*
D03*
G36*
X336833Y-323010D02*
X339833Y-323010D01*
X339833Y-326010D01*
X336833Y-326010D01*
X336833Y-323010D01*
G37*
X333333Y-324510D02*
G54D14*
D03*
X328333Y-324510D02*
G54D14*
D03*
X323333Y-324510D02*
G54D14*
D03*
X318333Y-324510D02*
G54D14*
D03*
X313333Y-324510D02*
G54D14*
D03*
X308333Y-324510D02*
G54D14*
D03*
G36*
X301833Y-323010D02*
X304833Y-323010D01*
X304833Y-326010D01*
X301833Y-326010D01*
X301833Y-323010D01*
G37*
X298333Y-324510D02*
G54D14*
D03*
X293333Y-324510D02*
G54D14*
D03*
X288333Y-324510D02*
G54D14*
D03*
X426307Y-462474D02*
G54D14*
D03*
X426307Y-457474D02*
G54D14*
D03*
X426307Y-452474D02*
G54D14*
D03*
X426307Y-447473D02*
G54D14*
D03*
X426307Y-442474D02*
G54D14*
D03*
X426307Y-437474D02*
G54D14*
D03*
X426307Y-432474D02*
G54D14*
D03*
X426307Y-427474D02*
G54D14*
D03*
X426307Y-422474D02*
G54D14*
D03*
X426307Y-417474D02*
G54D14*
D03*
X426307Y-412474D02*
G54D14*
D03*
X426307Y-407474D02*
G54D14*
D03*
X426307Y-402474D02*
G54D14*
D03*
X426307Y-397474D02*
G54D14*
D03*
X426307Y-392474D02*
G54D14*
D03*
X426307Y-387474D02*
G54D14*
D03*
X426307Y-382474D02*
G54D14*
D03*
X426307Y-377474D02*
G54D14*
D03*
X426307Y-372474D02*
G54D14*
D03*
X426307Y-367474D02*
G54D14*
D03*
X426307Y-362474D02*
G54D14*
D03*
X426307Y-357474D02*
G54D14*
D03*
X426307Y-352474D02*
G54D14*
D03*
X426307Y-347474D02*
G54D14*
D03*
X426307Y-342474D02*
G54D14*
D03*
G36*
X542794Y-344519D02*
X556794Y-344518D01*
X556794Y-358518D01*
X542794Y-358518D01*
X542794Y-344519D01*
G37*
X571294Y-351518D02*
G54D15*
D03*
X289248Y-186554D02*
G54D16*
D03*
X309835Y-186554D02*
G54D16*
D03*
X96366Y-389744D02*
G54D17*
D03*
X96366Y-380344D02*
G54D17*
D03*
X96366Y-370744D02*
G54D17*
D03*
X122265Y-370744D02*
G54D17*
D03*
X122266Y-389744D02*
G54D17*
D03*
X371348Y-291989D02*
G54D18*
D03*
X371348Y-271401D02*
G54D18*
D03*
X527303Y-198320D02*
G54D18*
D03*
X527303Y-179320D02*
G54D18*
D03*
X486500Y-123108D02*
G54D19*
D03*
X465913Y-123108D02*
G54D19*
D03*
X439726Y-133648D02*
G54D18*
D03*
X439726Y-113060D02*
G54D18*
D03*
X359987Y-505861D02*
G54D20*
D03*
X331987Y-505861D02*
G54D20*
D03*
X142648Y-370884D02*
G54D21*
D03*
X142648Y-398884D02*
G54D21*
D03*
X289280Y-167430D02*
G54D16*
D03*
G36*
X303867Y-160430D02*
X315867Y-160430D01*
X315867Y-174429D01*
X303867Y-174430D01*
X303867Y-160430D01*
G37*
X43076Y-470544D02*
G54D15*
D03*
X68476Y-470544D02*
G54D15*
D03*
X68476Y-445144D02*
G54D15*
D03*
X43076Y-445144D02*
G54D15*
D03*
X161791Y-510232D02*
G54D22*
D03*
X183222Y-510232D02*
G54D22*
D03*
X204653Y-510232D02*
G54D22*
D03*
X226085Y-510232D02*
G54D22*
D03*
X247516Y-510232D02*
G54D22*
D03*
X268947Y-510232D02*
G54D22*
D03*
X116019Y-514222D02*
G54D23*
D03*
X116018Y-489930D02*
G54D23*
D03*
X116019Y-465804D02*
G54D23*
D03*
X116019Y-440404D02*
G54D23*
D03*
X116019Y-415003D02*
G54D23*
D03*
X602563Y-321716D02*
G54D24*
D03*
X602563Y-347116D02*
G54D24*
D03*
X602563Y-372516D02*
G54D24*
D03*
X602563Y-397916D02*
G54D24*
D03*
X416166Y-509834D02*
G54D25*
D03*
X437597Y-509835D02*
G54D25*
D03*
X459028Y-509834D02*
G54D25*
D03*
X480459Y-509834D02*
G54D25*
D03*
X501891Y-509834D02*
G54D25*
D03*
X523322Y-509834D02*
G54D25*
D03*
X544753Y-509834D02*
G54D25*
D03*
X566184Y-509834D02*
G54D25*
D03*
X563317Y-129088D02*
G54D15*
D03*
X583954Y-129088D02*
G54D15*
D03*
X604592Y-129088D02*
G54D15*
D03*
X202721Y-338721D02*
G54D15*
D03*
X220682Y-320760D02*
G54D15*
D03*
X238642Y-302800D02*
G54D15*
D03*
G36*
X542854Y-324675D02*
X556854Y-324675D01*
X556854Y-338675D01*
X542854Y-338675D01*
X542854Y-324675D01*
G37*
X571354Y-331675D02*
G54D15*
D03*
X549854Y-311831D02*
G54D15*
D03*
X571354Y-311831D02*
G54D15*
D03*
X549854Y-290400D02*
G54D15*
D03*
X571354Y-290400D02*
G54D15*
D03*
X549854Y-269762D02*
G54D15*
D03*
X571354Y-269762D02*
G54D15*
D03*
X420758Y-268798D02*
G54D26*
D03*
X420762Y-288801D02*
G54D26*
D03*
X440758Y-278798D02*
G54D26*
D03*
X397819Y-270137D02*
G54D18*
D03*
X397819Y-290725D02*
G54D18*
D03*
G36*
X440101Y-259038D02*
X431616Y-250553D01*
X442930Y-239239D01*
X451415Y-247725D01*
X440101Y-259038D01*
G37*
G36*
X425544Y-244481D02*
X417059Y-235996D01*
X428372Y-224682D01*
X436858Y-233167D01*
X425544Y-244481D01*
G37*
X489993Y-123108D02*
G54D20*
D03*
X461993Y-123108D02*
G54D20*
D03*
X592504Y-466602D02*
G54D20*
D03*
X564504Y-466602D02*
G54D20*
D03*
X142648Y-374853D02*
G54D18*
D03*
X142648Y-395441D02*
G54D18*
D03*
X50860Y-387265D02*
G54D20*
D03*
X78860Y-387265D02*
G54D20*
D03*
X54829Y-387265D02*
G54D19*
D03*
X75417Y-387265D02*
G54D19*
D03*
X257956Y-165358D02*
G54D10*
D03*
X257956Y-144562D02*
G54D10*
D03*
X504096Y-221149D02*
G54D19*
D03*
X523096Y-221149D02*
G54D19*
D03*
G36*
X491016Y-211150D02*
X507016Y-211149D01*
X507016Y-231149D01*
X491016Y-231150D01*
X491016Y-211150D01*
G37*
X527016Y-221149D02*
G54D20*
D03*
X167038Y-386980D02*
G54D27*
D03*
X167038Y-407568D02*
G54D27*
D03*
X184898Y-386980D02*
G54D27*
D03*
X184898Y-407568D02*
G54D27*
D03*
G36*
X446447Y-188796D02*
X456347Y-198695D01*
X446447Y-208595D01*
X436548Y-198695D01*
X446447Y-188796D01*
G37*
G36*
X461650Y-203998D02*
X471549Y-213898D01*
X461650Y-223797D01*
X451750Y-213898D01*
X461650Y-203998D01*
G37*
G36*
X480545Y-262524D02*
X494545Y-262524D01*
X494545Y-276524D01*
X480545Y-276524D01*
X480545Y-262524D01*
G37*
X509045Y-269526D02*
G54D15*
D03*
X527039Y-173010D02*
G54D23*
D03*
X527041Y-151510D02*
G54D23*
D03*
X471155Y-296512D02*
G54D15*
D03*
X492654Y-296514D02*
G54D15*
D03*
X823986Y-528011D02*
G54D28*
D03*
X823986Y-502611D02*
G54D28*
D03*
X823986Y-426011D02*
G54D28*
D03*
X823986Y-400611D02*
G54D28*
D03*
X823986Y-324011D02*
G54D28*
D03*
X823986Y-298611D02*
G54D28*
D03*
X823986Y-222011D02*
G54D28*
D03*
X823986Y-196611D02*
G54D28*
D03*
X823986Y-120011D02*
G54D28*
D03*
X823986Y-94611D02*
G54D28*
D03*
X87849Y-1122660D02*
G54D29*
D03*
X75149Y-1122660D02*
G54D29*
D03*
X62449Y-1122660D02*
G54D29*
D03*
X49750Y-1122660D02*
G54D29*
D03*
X49749Y-1172660D02*
G54D29*
D03*
X62450Y-1172660D02*
G54D29*
D03*
X75149Y-1172660D02*
G54D29*
D03*
X87849Y-1172660D02*
G54D29*
D03*
X26437Y-1111736D02*
G54D16*
D03*
X48612Y-1111736D02*
G54D16*
D03*
X26413Y-1082889D02*
G54D15*
D03*
X26413Y-1104064D02*
G54D15*
D03*
G36*
X68753Y-1080894D02*
X81753Y-1080893D01*
X81753Y-1096894D01*
X68753Y-1096894D01*
X68753Y-1080894D01*
G37*
X94253Y-1088894D02*
G54D19*
D03*
X64670Y-511176D02*
G54D16*
D03*
X85257Y-511176D02*
G54D16*
D03*
X64670Y-492126D02*
G54D16*
D03*
X85257Y-492126D02*
G54D16*
D03*
X157293Y-461355D02*
G54D23*
D03*
X87366Y-753560D02*
G54D29*
D03*
G36*
X96066Y-741560D02*
X104066Y-741559D01*
X104067Y-765559D01*
X96067Y-765560D01*
X96066Y-741560D01*
G37*
X112766Y-753560D02*
G54D29*
D03*
X125466Y-753560D02*
G54D29*
D03*
G36*
X121466Y-691560D02*
X129466Y-691559D01*
X129467Y-715559D01*
X121467Y-715560D01*
X121466Y-691560D01*
G37*
X112766Y-703560D02*
G54D29*
D03*
X100066Y-703560D02*
G54D29*
D03*
X87366Y-703560D02*
G54D29*
D03*
X143006Y-759599D02*
G54D10*
D03*
X143009Y-740594D02*
G54D10*
D03*
X143009Y-732606D02*
G54D10*
D03*
X143016Y-713609D02*
G54D10*
D03*
X252466Y-753560D02*
G54D29*
D03*
G36*
X261166Y-741560D02*
X269166Y-741559D01*
X269167Y-765559D01*
X261167Y-765560D01*
X261166Y-741560D01*
G37*
X277866Y-753560D02*
G54D29*
D03*
X290566Y-753560D02*
G54D29*
D03*
G36*
X286566Y-691560D02*
X294566Y-691559D01*
X294567Y-715559D01*
X286567Y-715560D01*
X286566Y-691560D01*
G37*
X277866Y-703560D02*
G54D29*
D03*
X265166Y-703560D02*
G54D29*
D03*
X252466Y-703560D02*
G54D29*
D03*
X308106Y-759599D02*
G54D10*
D03*
X308109Y-740594D02*
G54D10*
D03*
X308109Y-732606D02*
G54D10*
D03*
X308116Y-713609D02*
G54D10*
D03*
X417566Y-753560D02*
G54D29*
D03*
G36*
X426266Y-741560D02*
X434266Y-741559D01*
X434267Y-765559D01*
X426267Y-765560D01*
X426266Y-741560D01*
G37*
X442966Y-753560D02*
G54D29*
D03*
X455666Y-753560D02*
G54D29*
D03*
G36*
X451666Y-691560D02*
X459666Y-691559D01*
X459667Y-715559D01*
X451667Y-715560D01*
X451666Y-691560D01*
G37*
X442966Y-703560D02*
G54D29*
D03*
X430266Y-703560D02*
G54D29*
D03*
X417566Y-703560D02*
G54D29*
D03*
X473206Y-759599D02*
G54D10*
D03*
X473209Y-740594D02*
G54D10*
D03*
X473209Y-732606D02*
G54D10*
D03*
X473216Y-713609D02*
G54D10*
D03*
X582666Y-753560D02*
G54D29*
D03*
G36*
X591366Y-741560D02*
X599366Y-741559D01*
X599367Y-765559D01*
X591367Y-765560D01*
X591366Y-741560D01*
G37*
X608066Y-753560D02*
G54D29*
D03*
X620766Y-753560D02*
G54D29*
D03*
G36*
X616766Y-691560D02*
X624766Y-691559D01*
X624767Y-715559D01*
X616767Y-715560D01*
X616766Y-691560D01*
G37*
X608066Y-703560D02*
G54D29*
D03*
X595366Y-703560D02*
G54D29*
D03*
X582666Y-703560D02*
G54D29*
D03*
X638306Y-759599D02*
G54D10*
D03*
X638309Y-740594D02*
G54D10*
D03*
X638309Y-732606D02*
G54D10*
D03*
X638316Y-713609D02*
G54D10*
D03*
X87366Y-947234D02*
G54D29*
D03*
X100067Y-947234D02*
G54D29*
D03*
X112766Y-947234D02*
G54D29*
D03*
X125466Y-947234D02*
G54D29*
D03*
X125466Y-897234D02*
G54D29*
D03*
X112766Y-897234D02*
G54D29*
D03*
X100066Y-897234D02*
G54D29*
D03*
X87366Y-897234D02*
G54D29*
D03*
X143006Y-953274D02*
G54D10*
D03*
X143009Y-934269D02*
G54D10*
D03*
X143009Y-926282D02*
G54D10*
D03*
X143016Y-907284D02*
G54D10*
D03*
X252466Y-947234D02*
G54D29*
D03*
X265167Y-947234D02*
G54D29*
D03*
X277866Y-947234D02*
G54D29*
D03*
X290566Y-947234D02*
G54D29*
D03*
X290566Y-897234D02*
G54D29*
D03*
X277866Y-897234D02*
G54D29*
D03*
X265166Y-897234D02*
G54D29*
D03*
X252466Y-897234D02*
G54D29*
D03*
X308106Y-953274D02*
G54D10*
D03*
X308109Y-934269D02*
G54D10*
D03*
X308109Y-926282D02*
G54D10*
D03*
X308116Y-907284D02*
G54D10*
D03*
X417566Y-947234D02*
G54D29*
D03*
X430267Y-947234D02*
G54D29*
D03*
X442966Y-947234D02*
G54D29*
D03*
X455666Y-947234D02*
G54D29*
D03*
X455666Y-897234D02*
G54D29*
D03*
X442966Y-897234D02*
G54D29*
D03*
X430266Y-897234D02*
G54D29*
D03*
X417566Y-897234D02*
G54D29*
D03*
X473206Y-953274D02*
G54D10*
D03*
X473209Y-934269D02*
G54D10*
D03*
X473209Y-926282D02*
G54D10*
D03*
X473216Y-907284D02*
G54D10*
D03*
X582666Y-947234D02*
G54D29*
D03*
X595367Y-947234D02*
G54D29*
D03*
X608066Y-947234D02*
G54D29*
D03*
X620766Y-947234D02*
G54D29*
D03*
X620766Y-897234D02*
G54D29*
D03*
X608066Y-897234D02*
G54D29*
D03*
X595366Y-897234D02*
G54D29*
D03*
X582666Y-897234D02*
G54D29*
D03*
X638306Y-953274D02*
G54D10*
D03*
X638309Y-934269D02*
G54D10*
D03*
X638309Y-926282D02*
G54D10*
D03*
X638316Y-907284D02*
G54D10*
D03*
X747766Y-753560D02*
G54D29*
D03*
G36*
X756466Y-741560D02*
X764466Y-741559D01*
X764467Y-765559D01*
X756467Y-765560D01*
X756466Y-741560D01*
G37*
X773166Y-753560D02*
G54D29*
D03*
X785866Y-753560D02*
G54D29*
D03*
G36*
X781866Y-691560D02*
X789866Y-691559D01*
X789867Y-715559D01*
X781867Y-715560D01*
X781866Y-691560D01*
G37*
X773166Y-703560D02*
G54D29*
D03*
X760466Y-703560D02*
G54D29*
D03*
X747766Y-703560D02*
G54D29*
D03*
X803406Y-759599D02*
G54D10*
D03*
X803409Y-740594D02*
G54D10*
D03*
X803409Y-732606D02*
G54D10*
D03*
X803416Y-713609D02*
G54D10*
D03*
X747766Y-947234D02*
G54D29*
D03*
X760467Y-947234D02*
G54D29*
D03*
X773166Y-947234D02*
G54D29*
D03*
X785866Y-947234D02*
G54D29*
D03*
X785866Y-897234D02*
G54D29*
D03*
X773166Y-897234D02*
G54D29*
D03*
X760466Y-897234D02*
G54D29*
D03*
X747766Y-897234D02*
G54D29*
D03*
X803406Y-953274D02*
G54D10*
D03*
X803409Y-934269D02*
G54D10*
D03*
X803409Y-926282D02*
G54D10*
D03*
X803416Y-907284D02*
G54D10*
D03*
X205324Y-1122660D02*
G54D29*
D03*
X192624Y-1122660D02*
G54D29*
D03*
X179924Y-1122660D02*
G54D29*
D03*
X167225Y-1122660D02*
G54D29*
D03*
X167224Y-1172660D02*
G54D29*
D03*
X179924Y-1172660D02*
G54D29*
D03*
X192624Y-1172660D02*
G54D29*
D03*
X205324Y-1172660D02*
G54D29*
D03*
X143912Y-1111736D02*
G54D16*
D03*
X166087Y-1111736D02*
G54D16*
D03*
X143888Y-1082889D02*
G54D15*
D03*
X143888Y-1104064D02*
G54D15*
D03*
G36*
X186228Y-1080894D02*
X199228Y-1080894D01*
X199228Y-1096893D01*
X186228Y-1096894D01*
X186228Y-1080894D01*
G37*
X211728Y-1088894D02*
G54D19*
D03*
X322799Y-1122660D02*
G54D29*
D03*
X310099Y-1122660D02*
G54D29*
D03*
X297399Y-1122660D02*
G54D29*
D03*
X284700Y-1122660D02*
G54D29*
D03*
X284699Y-1172660D02*
G54D29*
D03*
X297400Y-1172660D02*
G54D29*
D03*
X310099Y-1172660D02*
G54D29*
D03*
X322799Y-1172660D02*
G54D29*
D03*
X261387Y-1111736D02*
G54D16*
D03*
X283562Y-1111736D02*
G54D16*
D03*
X261363Y-1082889D02*
G54D15*
D03*
X261363Y-1104064D02*
G54D15*
D03*
G36*
X303703Y-1080894D02*
X316703Y-1080894D01*
X316703Y-1096893D01*
X303703Y-1096894D01*
X303703Y-1080894D01*
G37*
X329203Y-1088894D02*
G54D19*
D03*
X437099Y-1122660D02*
G54D29*
D03*
X424399Y-1122660D02*
G54D29*
D03*
X411699Y-1122660D02*
G54D29*
D03*
X399000Y-1122660D02*
G54D29*
D03*
X398999Y-1172660D02*
G54D29*
D03*
X411700Y-1172660D02*
G54D29*
D03*
X424399Y-1172660D02*
G54D29*
D03*
X437099Y-1172660D02*
G54D29*
D03*
X375687Y-1111736D02*
G54D16*
D03*
X397862Y-1111736D02*
G54D16*
D03*
X375663Y-1082889D02*
G54D15*
D03*
X375663Y-1104064D02*
G54D15*
D03*
G36*
X418003Y-1080894D02*
X431003Y-1080894D01*
X431003Y-1096893D01*
X418003Y-1096894D01*
X418003Y-1080894D01*
G37*
X443503Y-1088894D02*
G54D19*
D03*
X551400Y-1122660D02*
G54D29*
D03*
X538700Y-1122660D02*
G54D29*
D03*
X526000Y-1122660D02*
G54D29*
D03*
X513300Y-1122660D02*
G54D29*
D03*
X513299Y-1172660D02*
G54D29*
D03*
X526000Y-1172660D02*
G54D29*
D03*
X538699Y-1172660D02*
G54D29*
D03*
X551399Y-1172660D02*
G54D29*
D03*
X489987Y-1111736D02*
G54D16*
D03*
X512162Y-1111736D02*
G54D16*
D03*
X489963Y-1082889D02*
G54D15*
D03*
X489963Y-1104064D02*
G54D15*
D03*
G36*
X532303Y-1080894D02*
X545303Y-1080894D01*
X545303Y-1096893D01*
X532303Y-1096894D01*
X532303Y-1080894D01*
G37*
X557803Y-1088894D02*
G54D19*
D03*
X668874Y-1122660D02*
G54D29*
D03*
X656174Y-1122660D02*
G54D29*
D03*
X643474Y-1122660D02*
G54D29*
D03*
X630775Y-1122660D02*
G54D29*
D03*
X630774Y-1172660D02*
G54D29*
D03*
X643474Y-1172660D02*
G54D29*
D03*
X656174Y-1172660D02*
G54D29*
D03*
X668874Y-1172660D02*
G54D29*
D03*
X607462Y-1111736D02*
G54D16*
D03*
X629637Y-1111736D02*
G54D16*
D03*
X607438Y-1082889D02*
G54D15*
D03*
X607438Y-1104064D02*
G54D15*
D03*
G36*
X649778Y-1080894D02*
X662778Y-1080894D01*
X662778Y-1096893D01*
X649778Y-1096894D01*
X649778Y-1080894D01*
G37*
X675278Y-1088894D02*
G54D19*
D03*
X786350Y-1122660D02*
G54D29*
D03*
X773650Y-1122660D02*
G54D29*
D03*
X760950Y-1122660D02*
G54D29*
D03*
X748250Y-1122660D02*
G54D29*
D03*
X748249Y-1172660D02*
G54D29*
D03*
X760950Y-1172660D02*
G54D29*
D03*
X773649Y-1172660D02*
G54D29*
D03*
X786349Y-1172660D02*
G54D29*
D03*
X724937Y-1111736D02*
G54D16*
D03*
X747112Y-1111736D02*
G54D16*
D03*
X724913Y-1082889D02*
G54D15*
D03*
X724913Y-1104064D02*
G54D15*
D03*
G36*
X767253Y-1080894D02*
X780253Y-1080894D01*
X780253Y-1096893D01*
X767253Y-1096894D01*
X767253Y-1080894D01*
G37*
X792753Y-1088894D02*
G54D19*
D03*
X290379Y-510232D02*
G54D22*
D03*
M02*
