%FSLAX34Y34*%
%MOMM*%
%LNSOLDERMASK_TOP*%
G71*
G01*
%ADD10R, 1.60X1.50*%
%ADD11R, 1.50X1.60*%
%ADD12R, 2.40X1.40*%
%ADD13R, 1.80X0.87*%
%ADD14C, 2.30*%
%ADD15C, 3.00*%
%ADD16R, 0.50X0.50*%
%ADD17C, 0.20*%
%ADD18R, 1.60X1.60*%
%ADD19R, 1.40X1.60*%
%ADD20R, 1.19X0.86*%
%ADD21R, 1.80X1.50*%
%ADD22C, 2.00*%
%ADD23R, 1.50X1.80*%
%ADD24R, 1.80X2.20*%
%ADD25R, 2.20X1.80*%
%ADD26C, 2.40*%
%ADD27R, 1.60X2.10*%
%ADD28R, 1.80X1.60*%
%ADD29R, 2.00X1.60*%
%ADD30R, 1.60X2.00*%
%ADD31R, 1.10X1.00*%
%ADD32C, 2.00*%
%ADD33R, 1.60X1.40*%
%ADD34C, 1.50*%
%ADD35R, 1.80X1.80*%
%ADD36R, 1.00X2.60*%
%LPD*%
X471007Y-390885D02*
G54D10*
D03*
X471007Y-369885D02*
G54D10*
D03*
X523126Y-389972D02*
G54D10*
D03*
X523125Y-370972D02*
G54D10*
D03*
X588059Y-465332D02*
G54D11*
D03*
X569059Y-465333D02*
G54D11*
D03*
X237826Y-262830D02*
G54D12*
D03*
X237826Y-239812D02*
G54D12*
D03*
X237826Y-220762D02*
G54D12*
D03*
X237826Y-201712D02*
G54D12*
D03*
X237826Y-182662D02*
G54D12*
D03*
G36*
X225826Y-156612D02*
X249826Y-156612D01*
X249827Y-170612D01*
X225827Y-170612D01*
X225826Y-156612D01*
G37*
X237826Y-144562D02*
G54D12*
D03*
G36*
X225826Y-118512D02*
X249826Y-118512D01*
X249827Y-132512D01*
X225827Y-132512D01*
X225826Y-118512D01*
G37*
X501864Y-187147D02*
G54D13*
D03*
X501864Y-174447D02*
G54D13*
D03*
X501864Y-161747D02*
G54D13*
D03*
X501864Y-149047D02*
G54D13*
D03*
X444864Y-149047D02*
G54D13*
D03*
X444864Y-161747D02*
G54D13*
D03*
X444864Y-174447D02*
G54D13*
D03*
X444864Y-187147D02*
G54D13*
D03*
X61107Y-322894D02*
G54D14*
D03*
X307192Y-122140D02*
G54D15*
D03*
X288333Y-480447D02*
G54D16*
D03*
X293333Y-480447D02*
G54D16*
D03*
X298333Y-480447D02*
G54D16*
D03*
X303333Y-480447D02*
G54D16*
D03*
X308333Y-480447D02*
G54D16*
D03*
X313333Y-480447D02*
G54D16*
D03*
X318333Y-480448D02*
G54D16*
D03*
X323333Y-480447D02*
G54D16*
D03*
X328333Y-480447D02*
G54D16*
D03*
X333333Y-480447D02*
G54D16*
D03*
X338333Y-480447D02*
G54D16*
D03*
X343333Y-480447D02*
G54D16*
D03*
X348333Y-480447D02*
G54D16*
D03*
X353333Y-480447D02*
G54D16*
D03*
X358333Y-480447D02*
G54D16*
D03*
X363333Y-480448D02*
G54D16*
D03*
X368333Y-480447D02*
G54D16*
D03*
X373333Y-480447D02*
G54D16*
D03*
X378333Y-480448D02*
G54D16*
D03*
X383333Y-480447D02*
G54D16*
D03*
X388333Y-480448D02*
G54D16*
D03*
X393333Y-480447D02*
G54D16*
D03*
X398333Y-480447D02*
G54D16*
D03*
X403333Y-480447D02*
G54D16*
D03*
X408333Y-480447D02*
G54D16*
D03*
G36*
X287838Y-483478D02*
X286838Y-482478D01*
X286838Y-477978D01*
X287338Y-477478D01*
X289338Y-477478D01*
X289838Y-477978D01*
X289838Y-482478D01*
X288838Y-483478D01*
X287838Y-483478D01*
G37*
G54D17*
X287838Y-483478D02*
X286838Y-482478D01*
X286838Y-477978D01*
X287338Y-477478D01*
X289338Y-477478D01*
X289838Y-477978D01*
X289838Y-482478D01*
X288838Y-483478D01*
X287838Y-483478D01*
G36*
X407838Y-483478D02*
X406838Y-482478D01*
X406838Y-477978D01*
X407338Y-477478D01*
X409338Y-477478D01*
X409838Y-477978D01*
X409838Y-482478D01*
X408838Y-483478D01*
X407838Y-483478D01*
G37*
G54D17*
X407838Y-483478D02*
X406838Y-482478D01*
X406838Y-477978D01*
X407338Y-477478D01*
X409338Y-477478D01*
X409838Y-477978D01*
X409838Y-482478D01*
X408838Y-483478D01*
X407838Y-483478D01*
G36*
X297838Y-487478D02*
X296838Y-486478D01*
X296838Y-474978D01*
X297338Y-474478D01*
X299338Y-474478D01*
X299838Y-474978D01*
X299838Y-486478D01*
X298838Y-487478D01*
X297838Y-487478D01*
G37*
G54D17*
X297838Y-487478D02*
X296838Y-486478D01*
X296838Y-474978D01*
X297338Y-474478D01*
X299338Y-474478D01*
X299838Y-474978D01*
X299838Y-486478D01*
X298838Y-487478D01*
X297838Y-487478D01*
G36*
X302838Y-487478D02*
X301838Y-486478D01*
X301838Y-474978D01*
X302338Y-474478D01*
X304338Y-474478D01*
X304838Y-474978D01*
X304838Y-486478D01*
X303838Y-487478D01*
X302838Y-487478D01*
G37*
G54D17*
X302838Y-487478D02*
X301838Y-486478D01*
X301838Y-474978D01*
X302338Y-474478D01*
X304338Y-474478D01*
X304838Y-474978D01*
X304838Y-486478D01*
X303838Y-487478D01*
X302838Y-487478D01*
G36*
X307838Y-487478D02*
X306838Y-486478D01*
X306838Y-474978D01*
X307338Y-474478D01*
X309338Y-474478D01*
X309838Y-474978D01*
X309838Y-486478D01*
X308838Y-487478D01*
X307838Y-487478D01*
G37*
G54D17*
X307838Y-487478D02*
X306838Y-486478D01*
X306838Y-474978D01*
X307338Y-474478D01*
X309338Y-474478D01*
X309838Y-474978D01*
X309838Y-486478D01*
X308838Y-487478D01*
X307838Y-487478D01*
G36*
X312838Y-487478D02*
X311838Y-486478D01*
X311838Y-474978D01*
X312338Y-474478D01*
X314338Y-474478D01*
X314838Y-474978D01*
X314838Y-486478D01*
X313838Y-487478D01*
X312838Y-487478D01*
G37*
G54D17*
X312838Y-487478D02*
X311838Y-486478D01*
X311838Y-474978D01*
X312338Y-474478D01*
X314338Y-474478D01*
X314838Y-474978D01*
X314838Y-486478D01*
X313838Y-487478D01*
X312838Y-487478D01*
G36*
X317838Y-487478D02*
X316838Y-486478D01*
X316838Y-474978D01*
X317338Y-474478D01*
X319338Y-474478D01*
X319838Y-474978D01*
X319838Y-486478D01*
X318838Y-487478D01*
X317838Y-487478D01*
G37*
G54D17*
X317838Y-487478D02*
X316838Y-486478D01*
X316838Y-474978D01*
X317338Y-474478D01*
X319338Y-474478D01*
X319838Y-474978D01*
X319838Y-486478D01*
X318838Y-487478D01*
X317838Y-487478D01*
G36*
X322838Y-487478D02*
X321838Y-486478D01*
X321838Y-474978D01*
X322338Y-474478D01*
X324338Y-474478D01*
X324838Y-474978D01*
X324838Y-486478D01*
X323838Y-487478D01*
X322838Y-487478D01*
G37*
G54D17*
X322838Y-487478D02*
X321838Y-486478D01*
X321838Y-474978D01*
X322338Y-474478D01*
X324338Y-474478D01*
X324838Y-474978D01*
X324838Y-486478D01*
X323838Y-487478D01*
X322838Y-487478D01*
G36*
X327838Y-487478D02*
X326838Y-486478D01*
X326838Y-474978D01*
X327338Y-474478D01*
X329338Y-474478D01*
X329838Y-474978D01*
X329838Y-486478D01*
X328838Y-487478D01*
X327838Y-487478D01*
G37*
G54D17*
X327838Y-487478D02*
X326838Y-486478D01*
X326838Y-474978D01*
X327338Y-474478D01*
X329338Y-474478D01*
X329838Y-474978D01*
X329838Y-486478D01*
X328838Y-487478D01*
X327838Y-487478D01*
G36*
X332838Y-487478D02*
X331838Y-486478D01*
X331838Y-474978D01*
X332338Y-474478D01*
X334338Y-474478D01*
X334838Y-474978D01*
X334838Y-486478D01*
X333838Y-487478D01*
X332838Y-487478D01*
G37*
G54D17*
X332838Y-487478D02*
X331838Y-486478D01*
X331838Y-474978D01*
X332338Y-474478D01*
X334338Y-474478D01*
X334838Y-474978D01*
X334838Y-486478D01*
X333838Y-487478D01*
X332838Y-487478D01*
G36*
X337838Y-487478D02*
X336838Y-486478D01*
X336838Y-474978D01*
X337338Y-474478D01*
X339338Y-474478D01*
X339838Y-474978D01*
X339838Y-486478D01*
X338838Y-487478D01*
X337838Y-487478D01*
G37*
G54D17*
X337838Y-487478D02*
X336838Y-486478D01*
X336838Y-474978D01*
X337338Y-474478D01*
X339338Y-474478D01*
X339838Y-474978D01*
X339838Y-486478D01*
X338838Y-487478D01*
X337838Y-487478D01*
G36*
X342838Y-487478D02*
X341838Y-486478D01*
X341838Y-474978D01*
X342338Y-474478D01*
X344338Y-474478D01*
X344838Y-474978D01*
X344838Y-486478D01*
X343838Y-487478D01*
X342838Y-487478D01*
G37*
G54D17*
X342838Y-487478D02*
X341838Y-486478D01*
X341838Y-474978D01*
X342338Y-474478D01*
X344338Y-474478D01*
X344838Y-474978D01*
X344838Y-486478D01*
X343838Y-487478D01*
X342838Y-487478D01*
G36*
X347838Y-487478D02*
X346838Y-486478D01*
X346838Y-474978D01*
X347338Y-474478D01*
X349338Y-474478D01*
X349838Y-474978D01*
X349838Y-486478D01*
X348838Y-487478D01*
X347838Y-487478D01*
G37*
G54D17*
X347838Y-487478D02*
X346838Y-486478D01*
X346838Y-474978D01*
X347338Y-474478D01*
X349338Y-474478D01*
X349838Y-474978D01*
X349838Y-486478D01*
X348838Y-487478D01*
X347838Y-487478D01*
G36*
X352838Y-487478D02*
X351838Y-486478D01*
X351838Y-474978D01*
X352338Y-474478D01*
X354338Y-474478D01*
X354838Y-474978D01*
X354838Y-486478D01*
X353838Y-487478D01*
X352838Y-487478D01*
G37*
G54D17*
X352838Y-487478D02*
X351838Y-486478D01*
X351838Y-474978D01*
X352338Y-474478D01*
X354338Y-474478D01*
X354838Y-474978D01*
X354838Y-486478D01*
X353838Y-487478D01*
X352838Y-487478D01*
G36*
X357838Y-487478D02*
X356838Y-486478D01*
X356838Y-474978D01*
X357338Y-474478D01*
X359338Y-474478D01*
X359838Y-474978D01*
X359838Y-486478D01*
X358838Y-487478D01*
X357838Y-487478D01*
G37*
G54D17*
X357838Y-487478D02*
X356838Y-486478D01*
X356838Y-474978D01*
X357338Y-474478D01*
X359338Y-474478D01*
X359838Y-474978D01*
X359838Y-486478D01*
X358838Y-487478D01*
X357838Y-487478D01*
G36*
X362838Y-487478D02*
X361838Y-486478D01*
X361838Y-474978D01*
X362338Y-474478D01*
X364338Y-474478D01*
X364838Y-474978D01*
X364838Y-486478D01*
X363838Y-487478D01*
X362838Y-487478D01*
G37*
G54D17*
X362838Y-487478D02*
X361838Y-486478D01*
X361838Y-474978D01*
X362338Y-474478D01*
X364338Y-474478D01*
X364838Y-474978D01*
X364838Y-486478D01*
X363838Y-487478D01*
X362838Y-487478D01*
G36*
X367838Y-487478D02*
X366838Y-486478D01*
X366838Y-474978D01*
X367338Y-474478D01*
X369338Y-474478D01*
X369838Y-474978D01*
X369838Y-486478D01*
X368838Y-487478D01*
X367838Y-487478D01*
G37*
G54D17*
X367838Y-487478D02*
X366838Y-486478D01*
X366838Y-474978D01*
X367338Y-474478D01*
X369338Y-474478D01*
X369838Y-474978D01*
X369838Y-486478D01*
X368838Y-487478D01*
X367838Y-487478D01*
G36*
X372838Y-487478D02*
X371838Y-486478D01*
X371838Y-474978D01*
X372338Y-474478D01*
X374338Y-474478D01*
X374838Y-474978D01*
X374838Y-486478D01*
X373838Y-487478D01*
X372838Y-487478D01*
G37*
G54D17*
X372838Y-487478D02*
X371838Y-486478D01*
X371838Y-474978D01*
X372338Y-474478D01*
X374338Y-474478D01*
X374838Y-474978D01*
X374838Y-486478D01*
X373838Y-487478D01*
X372838Y-487478D01*
G36*
X377838Y-487478D02*
X376838Y-486478D01*
X376838Y-474978D01*
X377338Y-474478D01*
X379338Y-474478D01*
X379838Y-474978D01*
X379838Y-486478D01*
X378838Y-487478D01*
X377838Y-487478D01*
G37*
G54D17*
X377838Y-487478D02*
X376838Y-486478D01*
X376838Y-474978D01*
X377338Y-474478D01*
X379338Y-474478D01*
X379838Y-474978D01*
X379838Y-486478D01*
X378838Y-487478D01*
X377838Y-487478D01*
G36*
X382838Y-487478D02*
X381838Y-486478D01*
X381838Y-474978D01*
X382338Y-474478D01*
X384338Y-474478D01*
X384838Y-474978D01*
X384838Y-486478D01*
X383838Y-487478D01*
X382838Y-487478D01*
G37*
G54D17*
X382838Y-487478D02*
X381838Y-486478D01*
X381838Y-474978D01*
X382338Y-474478D01*
X384338Y-474478D01*
X384838Y-474978D01*
X384838Y-486478D01*
X383838Y-487478D01*
X382838Y-487478D01*
G36*
X387838Y-487478D02*
X386838Y-486478D01*
X386838Y-474978D01*
X387338Y-474478D01*
X389338Y-474478D01*
X389838Y-474978D01*
X389838Y-486478D01*
X388838Y-487478D01*
X387838Y-487478D01*
G37*
G54D17*
X387838Y-487478D02*
X386838Y-486478D01*
X386838Y-474978D01*
X387338Y-474478D01*
X389338Y-474478D01*
X389838Y-474978D01*
X389838Y-486478D01*
X388838Y-487478D01*
X387838Y-487478D01*
G36*
X392838Y-487478D02*
X391838Y-486478D01*
X391838Y-474978D01*
X392338Y-474478D01*
X394338Y-474478D01*
X394838Y-474978D01*
X394838Y-486478D01*
X393838Y-487478D01*
X392838Y-487478D01*
G37*
G54D17*
X392838Y-487478D02*
X391838Y-486478D01*
X391838Y-474978D01*
X392338Y-474478D01*
X394338Y-474478D01*
X394838Y-474978D01*
X394838Y-486478D01*
X393838Y-487478D01*
X392838Y-487478D01*
G36*
X397838Y-487478D02*
X396838Y-486478D01*
X396838Y-474978D01*
X397338Y-474478D01*
X399338Y-474478D01*
X399838Y-474978D01*
X399838Y-486478D01*
X398838Y-487478D01*
X397838Y-487478D01*
G37*
G54D17*
X397838Y-487478D02*
X396838Y-486478D01*
X396838Y-474978D01*
X397338Y-474478D01*
X399338Y-474478D01*
X399838Y-474978D01*
X399838Y-486478D01*
X398838Y-487478D01*
X397838Y-487478D01*
G36*
X402838Y-487478D02*
X401838Y-486478D01*
X401838Y-474978D01*
X402338Y-474478D01*
X404338Y-474478D01*
X404838Y-474978D01*
X404838Y-486478D01*
X403838Y-487478D01*
X402838Y-487478D01*
G37*
G54D17*
X402838Y-487478D02*
X401838Y-486478D01*
X401838Y-474978D01*
X402338Y-474478D01*
X404338Y-474478D01*
X404838Y-474978D01*
X404838Y-486478D01*
X403838Y-487478D01*
X402838Y-487478D01*
G36*
X292838Y-487478D02*
X291838Y-486478D01*
X291838Y-474978D01*
X292338Y-474478D01*
X294338Y-474478D01*
X294838Y-474978D01*
X294838Y-486478D01*
X293838Y-487478D01*
X292838Y-487478D01*
G37*
G54D17*
X292838Y-487478D02*
X291838Y-486478D01*
X291838Y-474978D01*
X292338Y-474478D01*
X294338Y-474478D01*
X294838Y-474978D01*
X294838Y-486478D01*
X293838Y-487478D01*
X292838Y-487478D01*
X270369Y-342484D02*
G54D16*
D03*
X270369Y-347484D02*
G54D16*
D03*
X270369Y-352483D02*
G54D16*
D03*
X270369Y-357484D02*
G54D16*
D03*
X270369Y-362484D02*
G54D16*
D03*
X270369Y-367483D02*
G54D16*
D03*
X270369Y-372484D02*
G54D16*
D03*
X270369Y-377484D02*
G54D16*
D03*
X270369Y-382484D02*
G54D16*
D03*
X270369Y-387484D02*
G54D16*
D03*
X270369Y-392484D02*
G54D16*
D03*
X270369Y-397484D02*
G54D16*
D03*
X270369Y-402484D02*
G54D16*
D03*
X270369Y-407484D02*
G54D16*
D03*
X270369Y-412483D02*
G54D16*
D03*
X270369Y-417484D02*
G54D16*
D03*
X270369Y-422484D02*
G54D16*
D03*
X270369Y-427484D02*
G54D16*
D03*
X270369Y-432484D02*
G54D16*
D03*
X270369Y-437483D02*
G54D16*
D03*
X270369Y-442484D02*
G54D16*
D03*
X270369Y-447484D02*
G54D16*
D03*
X270369Y-452484D02*
G54D16*
D03*
X270369Y-457484D02*
G54D16*
D03*
X270369Y-462484D02*
G54D16*
D03*
G36*
X267338Y-341978D02*
X268338Y-340978D01*
X272838Y-340978D01*
X273338Y-341478D01*
X273338Y-343478D01*
X272838Y-343978D01*
X268338Y-343978D01*
X267338Y-342978D01*
X267338Y-341978D01*
G37*
G54D17*
X267338Y-341978D02*
X268338Y-340978D01*
X272838Y-340978D01*
X273338Y-341478D01*
X273338Y-343478D01*
X272838Y-343978D01*
X268338Y-343978D01*
X267338Y-342978D01*
X267338Y-341978D01*
G36*
X267338Y-461978D02*
X268338Y-460978D01*
X272838Y-460978D01*
X273338Y-461478D01*
X273338Y-463478D01*
X272838Y-463978D01*
X268338Y-463978D01*
X267338Y-462978D01*
X267338Y-461978D01*
G37*
G54D17*
X267338Y-461978D02*
X268338Y-460978D01*
X272838Y-460978D01*
X273338Y-461478D01*
X273338Y-463478D01*
X272838Y-463978D01*
X268338Y-463978D01*
X267338Y-462978D01*
X267338Y-461978D01*
G36*
X263338Y-351978D02*
X264338Y-350978D01*
X275838Y-350978D01*
X276338Y-351478D01*
X276338Y-353478D01*
X275838Y-353978D01*
X264338Y-353978D01*
X263338Y-352978D01*
X263338Y-351978D01*
G37*
G54D17*
X263338Y-351978D02*
X264338Y-350978D01*
X275838Y-350978D01*
X276338Y-351478D01*
X276338Y-353478D01*
X275838Y-353978D01*
X264338Y-353978D01*
X263338Y-352978D01*
X263338Y-351978D01*
G36*
X263338Y-356978D02*
X264338Y-355978D01*
X275838Y-355978D01*
X276338Y-356478D01*
X276338Y-358478D01*
X275838Y-358978D01*
X264338Y-358978D01*
X263338Y-357978D01*
X263338Y-356978D01*
G37*
G54D17*
X263338Y-356978D02*
X264338Y-355978D01*
X275838Y-355978D01*
X276338Y-356478D01*
X276338Y-358478D01*
X275838Y-358978D01*
X264338Y-358978D01*
X263338Y-357978D01*
X263338Y-356978D01*
G36*
X263338Y-361978D02*
X264338Y-360978D01*
X275838Y-360978D01*
X276338Y-361478D01*
X276338Y-363478D01*
X275838Y-363978D01*
X264338Y-363978D01*
X263338Y-362978D01*
X263338Y-361978D01*
G37*
G54D17*
X263338Y-361978D02*
X264338Y-360978D01*
X275838Y-360978D01*
X276338Y-361478D01*
X276338Y-363478D01*
X275838Y-363978D01*
X264338Y-363978D01*
X263338Y-362978D01*
X263338Y-361978D01*
G36*
X263338Y-366978D02*
X264338Y-365978D01*
X275838Y-365978D01*
X276338Y-366478D01*
X276338Y-368478D01*
X275838Y-368978D01*
X264338Y-368978D01*
X263338Y-367978D01*
X263338Y-366978D01*
G37*
G54D17*
X263338Y-366978D02*
X264338Y-365978D01*
X275838Y-365978D01*
X276338Y-366478D01*
X276338Y-368478D01*
X275838Y-368978D01*
X264338Y-368978D01*
X263338Y-367978D01*
X263338Y-366978D01*
G36*
X263338Y-371978D02*
X264338Y-370978D01*
X275838Y-370978D01*
X276338Y-371478D01*
X276338Y-373478D01*
X275838Y-373978D01*
X264338Y-373978D01*
X263338Y-372978D01*
X263338Y-371978D01*
G37*
G54D17*
X263338Y-371978D02*
X264338Y-370978D01*
X275838Y-370978D01*
X276338Y-371478D01*
X276338Y-373478D01*
X275838Y-373978D01*
X264338Y-373978D01*
X263338Y-372978D01*
X263338Y-371978D01*
G36*
X263338Y-376978D02*
X264338Y-375978D01*
X275838Y-375978D01*
X276338Y-376478D01*
X276338Y-378478D01*
X275838Y-378978D01*
X264338Y-378978D01*
X263338Y-377978D01*
X263338Y-376978D01*
G37*
G54D17*
X263338Y-376978D02*
X264338Y-375978D01*
X275838Y-375978D01*
X276338Y-376478D01*
X276338Y-378478D01*
X275838Y-378978D01*
X264338Y-378978D01*
X263338Y-377978D01*
X263338Y-376978D01*
G36*
X263338Y-381978D02*
X264338Y-380978D01*
X275838Y-380978D01*
X276338Y-381478D01*
X276338Y-383478D01*
X275838Y-383978D01*
X264338Y-383978D01*
X263338Y-382978D01*
X263338Y-381978D01*
G37*
G54D17*
X263338Y-381978D02*
X264338Y-380978D01*
X275838Y-380978D01*
X276338Y-381478D01*
X276338Y-383478D01*
X275838Y-383978D01*
X264338Y-383978D01*
X263338Y-382978D01*
X263338Y-381978D01*
G36*
X263338Y-386978D02*
X264338Y-385978D01*
X275838Y-385978D01*
X276338Y-386478D01*
X276338Y-388478D01*
X275838Y-388978D01*
X264338Y-388978D01*
X263338Y-387978D01*
X263338Y-386978D01*
G37*
G54D17*
X263338Y-386978D02*
X264338Y-385978D01*
X275838Y-385978D01*
X276338Y-386478D01*
X276338Y-388478D01*
X275838Y-388978D01*
X264338Y-388978D01*
X263338Y-387978D01*
X263338Y-386978D01*
G36*
X263338Y-391978D02*
X264338Y-390978D01*
X275838Y-390978D01*
X276338Y-391478D01*
X276338Y-393478D01*
X275838Y-393978D01*
X264338Y-393978D01*
X263338Y-392978D01*
X263338Y-391978D01*
G37*
G54D17*
X263338Y-391978D02*
X264338Y-390978D01*
X275838Y-390978D01*
X276338Y-391478D01*
X276338Y-393478D01*
X275838Y-393978D01*
X264338Y-393978D01*
X263338Y-392978D01*
X263338Y-391978D01*
G36*
X263338Y-396978D02*
X264338Y-395978D01*
X275838Y-395978D01*
X276338Y-396478D01*
X276338Y-398478D01*
X275838Y-398978D01*
X264338Y-398978D01*
X263338Y-397978D01*
X263338Y-396978D01*
G37*
G54D17*
X263338Y-396978D02*
X264338Y-395978D01*
X275838Y-395978D01*
X276338Y-396478D01*
X276338Y-398478D01*
X275838Y-398978D01*
X264338Y-398978D01*
X263338Y-397978D01*
X263338Y-396978D01*
G36*
X263338Y-401978D02*
X264338Y-400978D01*
X275838Y-400978D01*
X276338Y-401478D01*
X276338Y-403478D01*
X275838Y-403978D01*
X264338Y-403978D01*
X263338Y-402978D01*
X263338Y-401978D01*
G37*
G54D17*
X263338Y-401978D02*
X264338Y-400978D01*
X275838Y-400978D01*
X276338Y-401478D01*
X276338Y-403478D01*
X275838Y-403978D01*
X264338Y-403978D01*
X263338Y-402978D01*
X263338Y-401978D01*
G36*
X263338Y-406978D02*
X264338Y-405978D01*
X275838Y-405978D01*
X276338Y-406478D01*
X276338Y-408478D01*
X275838Y-408978D01*
X264338Y-408978D01*
X263338Y-407978D01*
X263338Y-406978D01*
G37*
G54D17*
X263338Y-406978D02*
X264338Y-405978D01*
X275838Y-405978D01*
X276338Y-406478D01*
X276338Y-408478D01*
X275838Y-408978D01*
X264338Y-408978D01*
X263338Y-407978D01*
X263338Y-406978D01*
G36*
X263338Y-411978D02*
X264338Y-410978D01*
X275838Y-410978D01*
X276338Y-411478D01*
X276338Y-413478D01*
X275838Y-413978D01*
X264338Y-413978D01*
X263338Y-412978D01*
X263338Y-411978D01*
G37*
G54D17*
X263338Y-411978D02*
X264338Y-410978D01*
X275838Y-410978D01*
X276338Y-411478D01*
X276338Y-413478D01*
X275838Y-413978D01*
X264338Y-413978D01*
X263338Y-412978D01*
X263338Y-411978D01*
G36*
X263338Y-416978D02*
X264338Y-415978D01*
X275838Y-415978D01*
X276338Y-416478D01*
X276338Y-418478D01*
X275838Y-418978D01*
X264338Y-418978D01*
X263338Y-417978D01*
X263338Y-416978D01*
G37*
G54D17*
X263338Y-416978D02*
X264338Y-415978D01*
X275838Y-415978D01*
X276338Y-416478D01*
X276338Y-418478D01*
X275838Y-418978D01*
X264338Y-418978D01*
X263338Y-417978D01*
X263338Y-416978D01*
G36*
X263338Y-421978D02*
X264338Y-420978D01*
X275838Y-420978D01*
X276338Y-421478D01*
X276338Y-423478D01*
X275838Y-423978D01*
X264338Y-423978D01*
X263338Y-422978D01*
X263338Y-421978D01*
G37*
G54D17*
X263338Y-421978D02*
X264338Y-420978D01*
X275838Y-420978D01*
X276338Y-421478D01*
X276338Y-423478D01*
X275838Y-423978D01*
X264338Y-423978D01*
X263338Y-422978D01*
X263338Y-421978D01*
G36*
X263338Y-426978D02*
X264338Y-425978D01*
X275838Y-425978D01*
X276338Y-426478D01*
X276338Y-428478D01*
X275838Y-428978D01*
X264338Y-428978D01*
X263338Y-427978D01*
X263338Y-426978D01*
G37*
G54D17*
X263338Y-426978D02*
X264338Y-425978D01*
X275838Y-425978D01*
X276338Y-426478D01*
X276338Y-428478D01*
X275838Y-428978D01*
X264338Y-428978D01*
X263338Y-427978D01*
X263338Y-426978D01*
G36*
X263338Y-431978D02*
X264338Y-430978D01*
X275838Y-430978D01*
X276338Y-431478D01*
X276338Y-433478D01*
X275838Y-433978D01*
X264338Y-433978D01*
X263338Y-432978D01*
X263338Y-431978D01*
G37*
G54D17*
X263338Y-431978D02*
X264338Y-430978D01*
X275838Y-430978D01*
X276338Y-431478D01*
X276338Y-433478D01*
X275838Y-433978D01*
X264338Y-433978D01*
X263338Y-432978D01*
X263338Y-431978D01*
G36*
X263338Y-436978D02*
X264338Y-435978D01*
X275838Y-435978D01*
X276338Y-436478D01*
X276338Y-438478D01*
X275838Y-438978D01*
X264338Y-438978D01*
X263338Y-437978D01*
X263338Y-436978D01*
G37*
G54D17*
X263338Y-436978D02*
X264338Y-435978D01*
X275838Y-435978D01*
X276338Y-436478D01*
X276338Y-438478D01*
X275838Y-438978D01*
X264338Y-438978D01*
X263338Y-437978D01*
X263338Y-436978D01*
G36*
X263338Y-441978D02*
X264338Y-440978D01*
X275838Y-440978D01*
X276338Y-441478D01*
X276338Y-443478D01*
X275838Y-443978D01*
X264338Y-443978D01*
X263338Y-442978D01*
X263338Y-441978D01*
G37*
G54D17*
X263338Y-441978D02*
X264338Y-440978D01*
X275838Y-440978D01*
X276338Y-441478D01*
X276338Y-443478D01*
X275838Y-443978D01*
X264338Y-443978D01*
X263338Y-442978D01*
X263338Y-441978D01*
G36*
X263338Y-446978D02*
X264338Y-445978D01*
X275838Y-445978D01*
X276338Y-446478D01*
X276338Y-448478D01*
X275838Y-448978D01*
X264338Y-448978D01*
X263338Y-447978D01*
X263338Y-446978D01*
G37*
G54D17*
X263338Y-446978D02*
X264338Y-445978D01*
X275838Y-445978D01*
X276338Y-446478D01*
X276338Y-448478D01*
X275838Y-448978D01*
X264338Y-448978D01*
X263338Y-447978D01*
X263338Y-446978D01*
G36*
X263338Y-451978D02*
X264338Y-450978D01*
X275838Y-450978D01*
X276338Y-451478D01*
X276338Y-453478D01*
X275838Y-453978D01*
X264338Y-453978D01*
X263338Y-452978D01*
X263338Y-451978D01*
G37*
G54D17*
X263338Y-451978D02*
X264338Y-450978D01*
X275838Y-450978D01*
X276338Y-451478D01*
X276338Y-453478D01*
X275838Y-453978D01*
X264338Y-453978D01*
X263338Y-452978D01*
X263338Y-451978D01*
G36*
X263338Y-456978D02*
X264338Y-455978D01*
X275838Y-455978D01*
X276338Y-456478D01*
X276338Y-458478D01*
X275838Y-458978D01*
X264338Y-458978D01*
X263338Y-457978D01*
X263338Y-456978D01*
G37*
G54D17*
X263338Y-456978D02*
X264338Y-455978D01*
X275838Y-455978D01*
X276338Y-456478D01*
X276338Y-458478D01*
X275838Y-458978D01*
X264338Y-458978D01*
X263338Y-457978D01*
X263338Y-456978D01*
G36*
X263338Y-346978D02*
X264338Y-345978D01*
X275838Y-345978D01*
X276338Y-346478D01*
X276338Y-348478D01*
X275838Y-348978D01*
X264338Y-348978D01*
X263338Y-347978D01*
X263338Y-346978D01*
G37*
G54D17*
X263338Y-346978D02*
X264338Y-345978D01*
X275838Y-345978D01*
X276338Y-346478D01*
X276338Y-348478D01*
X275838Y-348978D01*
X264338Y-348978D01*
X263338Y-347978D01*
X263338Y-346978D01*
G36*
X405833Y-322010D02*
X410833Y-322010D01*
X410833Y-327010D01*
X405833Y-327010D01*
X405833Y-322010D01*
G37*
X403333Y-324510D02*
G54D16*
D03*
G36*
X395833Y-322010D02*
X400833Y-322009D01*
X400833Y-327009D01*
X395833Y-327010D01*
X395833Y-322010D01*
G37*
G36*
X390833Y-322010D02*
X395833Y-322010D01*
X395833Y-327010D01*
X390833Y-327010D01*
X390833Y-322010D01*
G37*
X388333Y-324510D02*
G54D16*
D03*
X383333Y-324510D02*
G54D16*
D03*
G36*
X375833Y-322010D02*
X380833Y-322009D01*
X380833Y-327009D01*
X375833Y-327010D01*
X375833Y-322010D01*
G37*
X373333Y-324510D02*
G54D16*
D03*
G36*
X365832Y-322010D02*
X370832Y-322010D01*
X370833Y-327009D01*
X365833Y-327010D01*
X365832Y-322010D01*
G37*
X363333Y-324510D02*
G54D16*
D03*
G36*
X355833Y-322010D02*
X360833Y-322009D01*
X360833Y-327009D01*
X355833Y-327010D01*
X355833Y-322010D01*
G37*
X353333Y-324510D02*
G54D16*
D03*
X348333Y-324510D02*
G54D16*
D03*
X343333Y-324510D02*
G54D16*
D03*
X338333Y-324510D02*
G54D16*
D03*
X333333Y-324510D02*
G54D16*
D03*
X328333Y-324510D02*
G54D16*
D03*
X323333Y-324510D02*
G54D16*
D03*
X318333Y-324510D02*
G54D16*
D03*
X313333Y-324510D02*
G54D16*
D03*
X308333Y-324510D02*
G54D16*
D03*
G36*
X300833Y-322010D02*
X305833Y-322009D01*
X305833Y-327009D01*
X300833Y-327010D01*
X300833Y-322010D01*
G37*
X298333Y-324510D02*
G54D16*
D03*
X293333Y-324510D02*
G54D16*
D03*
X288333Y-324510D02*
G54D16*
D03*
G36*
X408838Y-321478D02*
X409838Y-322478D01*
X409838Y-326978D01*
X409338Y-327478D01*
X407338Y-327478D01*
X406838Y-326978D01*
X406838Y-322478D01*
X407838Y-321478D01*
X408838Y-321478D01*
G37*
G54D17*
X408838Y-321478D02*
X409838Y-322478D01*
X409838Y-326978D01*
X409338Y-327478D01*
X407338Y-327478D01*
X406838Y-326978D01*
X406838Y-322478D01*
X407838Y-321478D01*
X408838Y-321478D01*
G36*
X288838Y-321478D02*
X289838Y-322478D01*
X289838Y-326978D01*
X289338Y-327478D01*
X287338Y-327478D01*
X286838Y-326978D01*
X286838Y-322478D01*
X287838Y-321478D01*
X288838Y-321478D01*
G37*
G54D17*
X288838Y-321478D02*
X289838Y-322478D01*
X289838Y-326978D01*
X289338Y-327478D01*
X287338Y-327478D01*
X286838Y-326978D01*
X286838Y-322478D01*
X287838Y-321478D01*
X288838Y-321478D01*
G36*
X398838Y-317478D02*
X399838Y-318478D01*
X399838Y-329978D01*
X399338Y-330478D01*
X397338Y-330478D01*
X396838Y-329978D01*
X396838Y-318478D01*
X397838Y-317478D01*
X398838Y-317478D01*
G37*
G54D17*
X398838Y-317478D02*
X399838Y-318478D01*
X399838Y-329978D01*
X399338Y-330478D01*
X397338Y-330478D01*
X396838Y-329978D01*
X396838Y-318478D01*
X397838Y-317478D01*
X398838Y-317478D01*
G36*
X393838Y-317478D02*
X394838Y-318478D01*
X394838Y-329978D01*
X394338Y-330478D01*
X392338Y-330478D01*
X391838Y-329978D01*
X391838Y-318478D01*
X392838Y-317478D01*
X393838Y-317478D01*
G37*
G54D17*
X393838Y-317478D02*
X394838Y-318478D01*
X394838Y-329978D01*
X394338Y-330478D01*
X392338Y-330478D01*
X391838Y-329978D01*
X391838Y-318478D01*
X392838Y-317478D01*
X393838Y-317478D01*
G36*
X388838Y-317478D02*
X389838Y-318478D01*
X389838Y-329978D01*
X389338Y-330478D01*
X387338Y-330478D01*
X386838Y-329978D01*
X386838Y-318478D01*
X387838Y-317478D01*
X388838Y-317478D01*
G37*
G54D17*
X388838Y-317478D02*
X389838Y-318478D01*
X389838Y-329978D01*
X389338Y-330478D01*
X387338Y-330478D01*
X386838Y-329978D01*
X386838Y-318478D01*
X387838Y-317478D01*
X388838Y-317478D01*
G36*
X383838Y-317478D02*
X384838Y-318478D01*
X384838Y-329978D01*
X384338Y-330478D01*
X382338Y-330478D01*
X381838Y-329978D01*
X381838Y-318478D01*
X382838Y-317478D01*
X383838Y-317478D01*
G37*
G54D17*
X383838Y-317478D02*
X384838Y-318478D01*
X384838Y-329978D01*
X384338Y-330478D01*
X382338Y-330478D01*
X381838Y-329978D01*
X381838Y-318478D01*
X382838Y-317478D01*
X383838Y-317478D01*
G36*
X378838Y-317478D02*
X379838Y-318478D01*
X379838Y-329978D01*
X379338Y-330478D01*
X377338Y-330478D01*
X376838Y-329978D01*
X376838Y-318478D01*
X377838Y-317478D01*
X378838Y-317478D01*
G37*
G54D17*
X378838Y-317478D02*
X379838Y-318478D01*
X379838Y-329978D01*
X379338Y-330478D01*
X377338Y-330478D01*
X376838Y-329978D01*
X376838Y-318478D01*
X377838Y-317478D01*
X378838Y-317478D01*
G36*
X373838Y-317478D02*
X374838Y-318478D01*
X374838Y-329978D01*
X374338Y-330478D01*
X372338Y-330478D01*
X371838Y-329978D01*
X371838Y-318478D01*
X372838Y-317478D01*
X373838Y-317478D01*
G37*
G54D17*
X373838Y-317478D02*
X374838Y-318478D01*
X374838Y-329978D01*
X374338Y-330478D01*
X372338Y-330478D01*
X371838Y-329978D01*
X371838Y-318478D01*
X372838Y-317478D01*
X373838Y-317478D01*
G36*
X368838Y-317478D02*
X369838Y-318478D01*
X369838Y-329978D01*
X369338Y-330478D01*
X367338Y-330478D01*
X366838Y-329978D01*
X366838Y-318478D01*
X367838Y-317478D01*
X368838Y-317478D01*
G37*
G54D17*
X368838Y-317478D02*
X369838Y-318478D01*
X369838Y-329978D01*
X369338Y-330478D01*
X367338Y-330478D01*
X366838Y-329978D01*
X366838Y-318478D01*
X367838Y-317478D01*
X368838Y-317478D01*
G36*
X363838Y-317478D02*
X364838Y-318478D01*
X364838Y-329978D01*
X364338Y-330478D01*
X362338Y-330478D01*
X361838Y-329978D01*
X361838Y-318478D01*
X362838Y-317478D01*
X363838Y-317478D01*
G37*
G54D17*
X363838Y-317478D02*
X364838Y-318478D01*
X364838Y-329978D01*
X364338Y-330478D01*
X362338Y-330478D01*
X361838Y-329978D01*
X361838Y-318478D01*
X362838Y-317478D01*
X363838Y-317478D01*
G36*
X358838Y-317478D02*
X359838Y-318478D01*
X359838Y-329978D01*
X359338Y-330478D01*
X357338Y-330478D01*
X356838Y-329978D01*
X356838Y-318478D01*
X357838Y-317478D01*
X358838Y-317478D01*
G37*
G54D17*
X358838Y-317478D02*
X359838Y-318478D01*
X359838Y-329978D01*
X359338Y-330478D01*
X357338Y-330478D01*
X356838Y-329978D01*
X356838Y-318478D01*
X357838Y-317478D01*
X358838Y-317478D01*
G36*
X353838Y-317478D02*
X354838Y-318478D01*
X354838Y-329978D01*
X354338Y-330478D01*
X352338Y-330478D01*
X351838Y-329978D01*
X351838Y-318478D01*
X352838Y-317478D01*
X353838Y-317478D01*
G37*
G54D17*
X353838Y-317478D02*
X354838Y-318478D01*
X354838Y-329978D01*
X354338Y-330478D01*
X352338Y-330478D01*
X351838Y-329978D01*
X351838Y-318478D01*
X352838Y-317478D01*
X353838Y-317478D01*
G36*
X348838Y-317478D02*
X349838Y-318478D01*
X349838Y-329978D01*
X349338Y-330478D01*
X347338Y-330478D01*
X346838Y-329978D01*
X346838Y-318478D01*
X347838Y-317478D01*
X348838Y-317478D01*
G37*
G54D17*
X348838Y-317478D02*
X349838Y-318478D01*
X349838Y-329978D01*
X349338Y-330478D01*
X347338Y-330478D01*
X346838Y-329978D01*
X346838Y-318478D01*
X347838Y-317478D01*
X348838Y-317478D01*
G36*
X343838Y-317478D02*
X344838Y-318478D01*
X344838Y-329978D01*
X344338Y-330478D01*
X342338Y-330478D01*
X341838Y-329978D01*
X341838Y-318478D01*
X342838Y-317478D01*
X343838Y-317478D01*
G37*
G54D17*
X343838Y-317478D02*
X344838Y-318478D01*
X344838Y-329978D01*
X344338Y-330478D01*
X342338Y-330478D01*
X341838Y-329978D01*
X341838Y-318478D01*
X342838Y-317478D01*
X343838Y-317478D01*
G36*
X338838Y-317478D02*
X339838Y-318478D01*
X339838Y-329978D01*
X339338Y-330478D01*
X337338Y-330478D01*
X336838Y-329978D01*
X336838Y-318478D01*
X337838Y-317478D01*
X338838Y-317478D01*
G37*
G54D17*
X338838Y-317478D02*
X339838Y-318478D01*
X339838Y-329978D01*
X339338Y-330478D01*
X337338Y-330478D01*
X336838Y-329978D01*
X336838Y-318478D01*
X337838Y-317478D01*
X338838Y-317478D01*
G36*
X333838Y-317478D02*
X334838Y-318478D01*
X334838Y-329978D01*
X334338Y-330478D01*
X332338Y-330478D01*
X331838Y-329978D01*
X331838Y-318478D01*
X332838Y-317478D01*
X333838Y-317478D01*
G37*
G54D17*
X333838Y-317478D02*
X334838Y-318478D01*
X334838Y-329978D01*
X334338Y-330478D01*
X332338Y-330478D01*
X331838Y-329978D01*
X331838Y-318478D01*
X332838Y-317478D01*
X333838Y-317478D01*
G36*
X328838Y-317478D02*
X329838Y-318478D01*
X329838Y-329978D01*
X329338Y-330478D01*
X327338Y-330478D01*
X326838Y-329978D01*
X326838Y-318478D01*
X327838Y-317478D01*
X328838Y-317478D01*
G37*
G54D17*
X328838Y-317478D02*
X329838Y-318478D01*
X329838Y-329978D01*
X329338Y-330478D01*
X327338Y-330478D01*
X326838Y-329978D01*
X326838Y-318478D01*
X327838Y-317478D01*
X328838Y-317478D01*
G36*
X323838Y-317478D02*
X324838Y-318478D01*
X324838Y-329978D01*
X324338Y-330478D01*
X322338Y-330478D01*
X321838Y-329978D01*
X321838Y-318478D01*
X322838Y-317478D01*
X323838Y-317478D01*
G37*
G54D17*
X323838Y-317478D02*
X324838Y-318478D01*
X324838Y-329978D01*
X324338Y-330478D01*
X322338Y-330478D01*
X321838Y-329978D01*
X321838Y-318478D01*
X322838Y-317478D01*
X323838Y-317478D01*
G36*
X318838Y-317478D02*
X319838Y-318478D01*
X319838Y-329978D01*
X319338Y-330478D01*
X317338Y-330478D01*
X316838Y-329978D01*
X316838Y-318478D01*
X317838Y-317478D01*
X318838Y-317478D01*
G37*
G54D17*
X318838Y-317478D02*
X319838Y-318478D01*
X319838Y-329978D01*
X319338Y-330478D01*
X317338Y-330478D01*
X316838Y-329978D01*
X316838Y-318478D01*
X317838Y-317478D01*
X318838Y-317478D01*
G36*
X313838Y-317478D02*
X314838Y-318478D01*
X314838Y-329978D01*
X314338Y-330478D01*
X312338Y-330478D01*
X311838Y-329978D01*
X311838Y-318478D01*
X312838Y-317478D01*
X313838Y-317478D01*
G37*
G54D17*
X313838Y-317478D02*
X314838Y-318478D01*
X314838Y-329978D01*
X314338Y-330478D01*
X312338Y-330478D01*
X311838Y-329978D01*
X311838Y-318478D01*
X312838Y-317478D01*
X313838Y-317478D01*
G36*
X308838Y-317478D02*
X309838Y-318478D01*
X309838Y-329978D01*
X309338Y-330478D01*
X307338Y-330478D01*
X306838Y-329978D01*
X306838Y-318478D01*
X307838Y-317478D01*
X308838Y-317478D01*
G37*
G54D17*
X308838Y-317478D02*
X309838Y-318478D01*
X309838Y-329978D01*
X309338Y-330478D01*
X307338Y-330478D01*
X306838Y-329978D01*
X306838Y-318478D01*
X307838Y-317478D01*
X308838Y-317478D01*
G36*
X303838Y-317478D02*
X304838Y-318478D01*
X304838Y-329978D01*
X304338Y-330478D01*
X302338Y-330478D01*
X301838Y-329978D01*
X301838Y-318478D01*
X302838Y-317478D01*
X303838Y-317478D01*
G37*
G54D17*
X303838Y-317478D02*
X304838Y-318478D01*
X304838Y-329978D01*
X304338Y-330478D01*
X302338Y-330478D01*
X301838Y-329978D01*
X301838Y-318478D01*
X302838Y-317478D01*
X303838Y-317478D01*
G36*
X298838Y-317478D02*
X299838Y-318478D01*
X299838Y-329978D01*
X299338Y-330478D01*
X297338Y-330478D01*
X296838Y-329978D01*
X296838Y-318478D01*
X297838Y-317478D01*
X298838Y-317478D01*
G37*
G54D17*
X298838Y-317478D02*
X299838Y-318478D01*
X299838Y-329978D01*
X299338Y-330478D01*
X297338Y-330478D01*
X296838Y-329978D01*
X296838Y-318478D01*
X297838Y-317478D01*
X298838Y-317478D01*
G36*
X293838Y-317478D02*
X294838Y-318478D01*
X294838Y-329978D01*
X294338Y-330478D01*
X292338Y-330478D01*
X291838Y-329979D01*
X291838Y-318478D01*
X292838Y-317478D01*
X293838Y-317478D01*
G37*
G54D17*
X293838Y-317478D02*
X294838Y-318478D01*
X294838Y-329978D01*
X294338Y-330478D01*
X292338Y-330478D01*
X291838Y-329979D01*
X291838Y-318478D01*
X292838Y-317478D01*
X293838Y-317478D01*
G36*
X403838Y-317478D02*
X404838Y-318478D01*
X404838Y-329978D01*
X404338Y-330478D01*
X402338Y-330478D01*
X401838Y-329978D01*
X401838Y-318478D01*
X402838Y-317478D01*
X403838Y-317478D01*
G37*
G54D17*
X403838Y-317478D02*
X404838Y-318478D01*
X404838Y-329978D01*
X404338Y-330478D01*
X402338Y-330478D01*
X401838Y-329978D01*
X401838Y-318478D01*
X402838Y-317478D01*
X403838Y-317478D01*
X426307Y-462474D02*
G54D16*
D03*
X426307Y-457474D02*
G54D16*
D03*
X426307Y-452474D02*
G54D16*
D03*
X426307Y-447473D02*
G54D16*
D03*
X426307Y-442474D02*
G54D16*
D03*
X426307Y-437474D02*
G54D16*
D03*
X426307Y-432474D02*
G54D16*
D03*
X426307Y-427474D02*
G54D16*
D03*
X426307Y-422474D02*
G54D16*
D03*
X426307Y-417474D02*
G54D16*
D03*
X426307Y-412474D02*
G54D16*
D03*
X426307Y-407474D02*
G54D16*
D03*
X426307Y-402474D02*
G54D16*
D03*
X426307Y-397474D02*
G54D16*
D03*
X426307Y-392474D02*
G54D16*
D03*
X426307Y-387474D02*
G54D16*
D03*
X426307Y-382474D02*
G54D16*
D03*
X426307Y-377474D02*
G54D16*
D03*
X426307Y-372474D02*
G54D16*
D03*
X426307Y-367474D02*
G54D16*
D03*
X426307Y-362474D02*
G54D16*
D03*
X426307Y-357474D02*
G54D16*
D03*
X426307Y-352474D02*
G54D16*
D03*
X426307Y-347474D02*
G54D16*
D03*
X426307Y-342474D02*
G54D16*
D03*
G36*
X429338Y-462978D02*
X428338Y-463978D01*
X423838Y-463978D01*
X423338Y-463478D01*
X423338Y-461478D01*
X423838Y-460978D01*
X428338Y-460978D01*
X429338Y-461978D01*
X429338Y-462978D01*
G37*
G54D17*
X429338Y-462978D02*
X428338Y-463978D01*
X423838Y-463978D01*
X423338Y-463478D01*
X423338Y-461478D01*
X423838Y-460978D01*
X428338Y-460978D01*
X429338Y-461978D01*
X429338Y-462978D01*
G36*
X429338Y-342978D02*
X428338Y-343978D01*
X423838Y-343978D01*
X423338Y-343478D01*
X423338Y-341478D01*
X423838Y-340978D01*
X428338Y-340978D01*
X429338Y-341978D01*
X429338Y-342978D01*
G37*
G54D17*
X429338Y-342978D02*
X428338Y-343978D01*
X423838Y-343978D01*
X423338Y-343478D01*
X423338Y-341478D01*
X423838Y-340978D01*
X428338Y-340978D01*
X429338Y-341978D01*
X429338Y-342978D01*
G36*
X433338Y-452978D02*
X432338Y-453978D01*
X420838Y-453978D01*
X420338Y-453478D01*
X420338Y-451478D01*
X420838Y-450978D01*
X432338Y-450978D01*
X433338Y-451978D01*
X433338Y-452978D01*
G37*
G54D17*
X433338Y-452978D02*
X432338Y-453978D01*
X420838Y-453978D01*
X420338Y-453478D01*
X420338Y-451478D01*
X420838Y-450978D01*
X432338Y-450978D01*
X433338Y-451978D01*
X433338Y-452978D01*
G36*
X433338Y-447978D02*
X432338Y-448978D01*
X420838Y-448978D01*
X420338Y-448478D01*
X420338Y-446478D01*
X420838Y-445978D01*
X432338Y-445978D01*
X433338Y-446978D01*
X433338Y-447978D01*
G37*
G54D17*
X433338Y-447978D02*
X432338Y-448978D01*
X420838Y-448978D01*
X420338Y-448478D01*
X420338Y-446478D01*
X420838Y-445978D01*
X432338Y-445978D01*
X433338Y-446978D01*
X433338Y-447978D01*
G36*
X433338Y-442978D02*
X432338Y-443978D01*
X420838Y-443978D01*
X420338Y-443478D01*
X420338Y-441478D01*
X420838Y-440978D01*
X432338Y-440978D01*
X433338Y-441978D01*
X433338Y-442978D01*
G37*
G54D17*
X433338Y-442978D02*
X432338Y-443978D01*
X420838Y-443978D01*
X420338Y-443478D01*
X420338Y-441478D01*
X420838Y-440978D01*
X432338Y-440978D01*
X433338Y-441978D01*
X433338Y-442978D01*
G36*
X433338Y-437978D02*
X432338Y-438978D01*
X420838Y-438978D01*
X420338Y-438478D01*
X420338Y-436478D01*
X420838Y-435978D01*
X432338Y-435978D01*
X433338Y-436978D01*
X433338Y-437978D01*
G37*
G54D17*
X433338Y-437978D02*
X432338Y-438978D01*
X420838Y-438978D01*
X420338Y-438478D01*
X420338Y-436478D01*
X420838Y-435978D01*
X432338Y-435978D01*
X433338Y-436978D01*
X433338Y-437978D01*
G36*
X433338Y-432978D02*
X432338Y-433978D01*
X420838Y-433978D01*
X420338Y-433478D01*
X420338Y-431478D01*
X420838Y-430978D01*
X432338Y-430978D01*
X433338Y-431978D01*
X433338Y-432978D01*
G37*
G54D17*
X433338Y-432978D02*
X432338Y-433978D01*
X420838Y-433978D01*
X420338Y-433478D01*
X420338Y-431478D01*
X420838Y-430978D01*
X432338Y-430978D01*
X433338Y-431978D01*
X433338Y-432978D01*
G36*
X433338Y-427978D02*
X432338Y-428978D01*
X420838Y-428978D01*
X420338Y-428478D01*
X420338Y-426478D01*
X420838Y-425978D01*
X432338Y-425978D01*
X433338Y-426978D01*
X433338Y-427978D01*
G37*
G54D17*
X433338Y-427978D02*
X432338Y-428978D01*
X420838Y-428978D01*
X420338Y-428478D01*
X420338Y-426478D01*
X420838Y-425978D01*
X432338Y-425978D01*
X433338Y-426978D01*
X433338Y-427978D01*
G36*
X433338Y-422978D02*
X432338Y-423978D01*
X420838Y-423978D01*
X420338Y-423478D01*
X420338Y-421478D01*
X420838Y-420978D01*
X432338Y-420978D01*
X433338Y-421978D01*
X433338Y-422978D01*
G37*
G54D17*
X433338Y-422978D02*
X432338Y-423978D01*
X420838Y-423978D01*
X420338Y-423478D01*
X420338Y-421478D01*
X420838Y-420978D01*
X432338Y-420978D01*
X433338Y-421978D01*
X433338Y-422978D01*
G36*
X433338Y-417978D02*
X432338Y-418978D01*
X420838Y-418978D01*
X420338Y-418478D01*
X420338Y-416478D01*
X420838Y-415978D01*
X432338Y-415978D01*
X433338Y-416978D01*
X433338Y-417978D01*
G37*
G54D17*
X433338Y-417978D02*
X432338Y-418978D01*
X420838Y-418978D01*
X420338Y-418478D01*
X420338Y-416478D01*
X420838Y-415978D01*
X432338Y-415978D01*
X433338Y-416978D01*
X433338Y-417978D01*
G36*
X433338Y-412978D02*
X432338Y-413978D01*
X420838Y-413978D01*
X420338Y-413478D01*
X420338Y-411478D01*
X420838Y-410978D01*
X432338Y-410978D01*
X433338Y-411978D01*
X433338Y-412978D01*
G37*
G54D17*
X433338Y-412978D02*
X432338Y-413978D01*
X420838Y-413978D01*
X420338Y-413478D01*
X420338Y-411478D01*
X420838Y-410978D01*
X432338Y-410978D01*
X433338Y-411978D01*
X433338Y-412978D01*
G36*
X433338Y-407978D02*
X432338Y-408978D01*
X420838Y-408978D01*
X420338Y-408478D01*
X420338Y-406478D01*
X420838Y-405978D01*
X432338Y-405978D01*
X433338Y-406978D01*
X433338Y-407978D01*
G37*
G54D17*
X433338Y-407978D02*
X432338Y-408978D01*
X420838Y-408978D01*
X420338Y-408478D01*
X420338Y-406478D01*
X420838Y-405978D01*
X432338Y-405978D01*
X433338Y-406978D01*
X433338Y-407978D01*
G36*
X433338Y-402978D02*
X432338Y-403978D01*
X420838Y-403978D01*
X420338Y-403478D01*
X420338Y-401478D01*
X420838Y-400978D01*
X432338Y-400978D01*
X433338Y-401978D01*
X433338Y-402978D01*
G37*
G54D17*
X433338Y-402978D02*
X432338Y-403978D01*
X420838Y-403978D01*
X420338Y-403478D01*
X420338Y-401478D01*
X420838Y-400978D01*
X432338Y-400978D01*
X433338Y-401978D01*
X433338Y-402978D01*
G36*
X433338Y-397978D02*
X432338Y-398978D01*
X420838Y-398978D01*
X420338Y-398478D01*
X420338Y-396478D01*
X420838Y-395978D01*
X432338Y-395978D01*
X433338Y-396978D01*
X433338Y-397978D01*
G37*
G54D17*
X433338Y-397978D02*
X432338Y-398978D01*
X420838Y-398978D01*
X420338Y-398478D01*
X420338Y-396478D01*
X420838Y-395978D01*
X432338Y-395978D01*
X433338Y-396978D01*
X433338Y-397978D01*
G36*
X433338Y-392978D02*
X432338Y-393978D01*
X420838Y-393978D01*
X420338Y-393478D01*
X420338Y-391478D01*
X420838Y-390978D01*
X432338Y-390978D01*
X433338Y-391978D01*
X433338Y-392978D01*
G37*
G54D17*
X433338Y-392978D02*
X432338Y-393978D01*
X420838Y-393978D01*
X420338Y-393478D01*
X420338Y-391478D01*
X420838Y-390978D01*
X432338Y-390978D01*
X433338Y-391978D01*
X433338Y-392978D01*
G36*
X433338Y-387978D02*
X432338Y-388978D01*
X420838Y-388978D01*
X420338Y-388478D01*
X420338Y-386478D01*
X420838Y-385978D01*
X432338Y-385978D01*
X433338Y-386978D01*
X433338Y-387978D01*
G37*
G54D17*
X433338Y-387978D02*
X432338Y-388978D01*
X420838Y-388978D01*
X420338Y-388478D01*
X420338Y-386478D01*
X420838Y-385978D01*
X432338Y-385978D01*
X433338Y-386978D01*
X433338Y-387978D01*
G36*
X433338Y-382978D02*
X432338Y-383978D01*
X420838Y-383978D01*
X420338Y-383478D01*
X420338Y-381478D01*
X420838Y-380978D01*
X432338Y-380978D01*
X433338Y-381978D01*
X433338Y-382978D01*
G37*
G54D17*
X433338Y-382978D02*
X432338Y-383978D01*
X420838Y-383978D01*
X420338Y-383478D01*
X420338Y-381478D01*
X420838Y-380978D01*
X432338Y-380978D01*
X433338Y-381978D01*
X433338Y-382978D01*
G36*
X433338Y-377978D02*
X432338Y-378978D01*
X420838Y-378978D01*
X420338Y-378478D01*
X420338Y-376478D01*
X420838Y-375978D01*
X432338Y-375978D01*
X433338Y-376978D01*
X433338Y-377978D01*
G37*
G54D17*
X433338Y-377978D02*
X432338Y-378978D01*
X420838Y-378978D01*
X420338Y-378478D01*
X420338Y-376478D01*
X420838Y-375978D01*
X432338Y-375978D01*
X433338Y-376978D01*
X433338Y-377978D01*
G36*
X433338Y-372978D02*
X432338Y-373978D01*
X420838Y-373978D01*
X420338Y-373478D01*
X420338Y-371478D01*
X420838Y-370978D01*
X432338Y-370978D01*
X433338Y-371978D01*
X433338Y-372978D01*
G37*
G54D17*
X433338Y-372978D02*
X432338Y-373978D01*
X420838Y-373978D01*
X420338Y-373478D01*
X420338Y-371478D01*
X420838Y-370978D01*
X432338Y-370978D01*
X433338Y-371978D01*
X433338Y-372978D01*
G36*
X433338Y-367978D02*
X432338Y-368978D01*
X420838Y-368978D01*
X420338Y-368478D01*
X420338Y-366478D01*
X420838Y-365978D01*
X432338Y-365978D01*
X433338Y-366978D01*
X433338Y-367978D01*
G37*
G54D17*
X433338Y-367978D02*
X432338Y-368978D01*
X420838Y-368978D01*
X420338Y-368478D01*
X420338Y-366478D01*
X420838Y-365978D01*
X432338Y-365978D01*
X433338Y-366978D01*
X433338Y-367978D01*
G36*
X433338Y-362978D02*
X432338Y-363978D01*
X420838Y-363978D01*
X420338Y-363478D01*
X420338Y-361478D01*
X420838Y-360978D01*
X432338Y-360978D01*
X433338Y-361978D01*
X433338Y-362978D01*
G37*
G54D17*
X433338Y-362978D02*
X432338Y-363978D01*
X420838Y-363978D01*
X420338Y-363478D01*
X420338Y-361478D01*
X420838Y-360978D01*
X432338Y-360978D01*
X433338Y-361978D01*
X433338Y-362978D01*
G36*
X433338Y-357978D02*
X432338Y-358978D01*
X420838Y-358978D01*
X420338Y-358478D01*
X420338Y-356478D01*
X420838Y-355978D01*
X432338Y-355978D01*
X433338Y-356978D01*
X433338Y-357978D01*
G37*
G54D17*
X433338Y-357978D02*
X432338Y-358978D01*
X420838Y-358978D01*
X420338Y-358478D01*
X420338Y-356478D01*
X420838Y-355978D01*
X432338Y-355978D01*
X433338Y-356978D01*
X433338Y-357978D01*
G36*
X433338Y-352978D02*
X432338Y-353978D01*
X420838Y-353978D01*
X420338Y-353478D01*
X420338Y-351478D01*
X420838Y-350978D01*
X432338Y-350978D01*
X433338Y-351978D01*
X433338Y-352978D01*
G37*
G54D17*
X433338Y-352978D02*
X432338Y-353978D01*
X420838Y-353978D01*
X420338Y-353478D01*
X420338Y-351478D01*
X420838Y-350978D01*
X432338Y-350978D01*
X433338Y-351978D01*
X433338Y-352978D01*
G36*
X433338Y-347978D02*
X432338Y-348978D01*
X420838Y-348978D01*
X420338Y-348478D01*
X420338Y-346478D01*
X420838Y-345978D01*
X432338Y-345978D01*
X433338Y-346978D01*
X433338Y-347978D01*
G37*
G54D17*
X433338Y-347978D02*
X432338Y-348978D01*
X420838Y-348978D01*
X420338Y-348478D01*
X420338Y-346478D01*
X420838Y-345978D01*
X432338Y-345978D01*
X433338Y-346978D01*
X433338Y-347978D01*
G36*
X433338Y-457978D02*
X432338Y-458978D01*
X420838Y-458978D01*
X420338Y-458478D01*
X420338Y-456478D01*
X420838Y-455978D01*
X432338Y-455978D01*
X433338Y-456978D01*
X433338Y-457978D01*
G37*
G54D17*
X433338Y-457978D02*
X432338Y-458978D01*
X420838Y-458978D01*
X420338Y-458478D01*
X420338Y-456478D01*
X420838Y-455978D01*
X432338Y-455978D01*
X433338Y-456978D01*
X433338Y-457978D01*
G36*
X541794Y-343519D02*
X557794Y-343518D01*
X557794Y-359518D01*
X541794Y-359519D01*
X541794Y-343519D01*
G37*
X571294Y-351518D02*
G54D18*
D03*
X289248Y-186554D02*
G54D19*
D03*
X309835Y-186554D02*
G54D19*
D03*
X96366Y-389744D02*
G54D20*
D03*
X96366Y-380344D02*
G54D20*
D03*
X96366Y-370744D02*
G54D20*
D03*
X122265Y-370744D02*
G54D20*
D03*
X122266Y-389744D02*
G54D20*
D03*
X371348Y-291989D02*
G54D21*
D03*
X371348Y-271401D02*
G54D21*
D03*
X68035Y-420064D02*
G54D22*
D03*
X42638Y-420057D02*
G54D22*
D03*
X527303Y-198320D02*
G54D21*
D03*
X527303Y-179320D02*
G54D21*
D03*
X486500Y-123108D02*
G54D23*
D03*
X465913Y-123108D02*
G54D23*
D03*
X439726Y-133648D02*
G54D21*
D03*
X439726Y-113060D02*
G54D21*
D03*
X359987Y-505861D02*
G54D24*
D03*
X331987Y-505861D02*
G54D24*
D03*
X142648Y-370884D02*
G54D25*
D03*
X142648Y-398884D02*
G54D25*
D03*
X289280Y-167430D02*
G54D19*
D03*
G36*
X302867Y-159430D02*
X316867Y-159429D01*
X316867Y-175429D01*
X302867Y-175430D01*
X302867Y-159430D01*
G37*
X88151Y-205812D02*
G54D26*
D03*
X568594Y-206312D02*
G54D26*
D03*
X43076Y-470544D02*
G54D18*
D03*
X68476Y-470544D02*
G54D18*
D03*
X68476Y-445144D02*
G54D18*
D03*
X43076Y-445144D02*
G54D18*
D03*
X161791Y-510232D02*
G54D27*
D03*
X183222Y-510232D02*
G54D27*
D03*
X204653Y-510232D02*
G54D27*
D03*
X226085Y-510232D02*
G54D27*
D03*
X247516Y-510232D02*
G54D27*
D03*
X268947Y-510232D02*
G54D27*
D03*
X116019Y-514222D02*
G54D28*
D03*
X116018Y-489930D02*
G54D28*
D03*
X116019Y-465804D02*
G54D28*
D03*
X116019Y-440404D02*
G54D28*
D03*
X116019Y-415003D02*
G54D28*
D03*
X602563Y-321716D02*
G54D29*
D03*
X602563Y-347116D02*
G54D29*
D03*
X602563Y-372516D02*
G54D29*
D03*
X602563Y-397916D02*
G54D29*
D03*
X416166Y-509834D02*
G54D30*
D03*
X437597Y-509835D02*
G54D30*
D03*
X459028Y-509834D02*
G54D30*
D03*
X480459Y-509834D02*
G54D30*
D03*
X501891Y-509834D02*
G54D30*
D03*
X523322Y-509834D02*
G54D30*
D03*
X544753Y-509834D02*
G54D30*
D03*
X566184Y-509834D02*
G54D30*
D03*
X563317Y-129088D02*
G54D18*
D03*
X583954Y-129088D02*
G54D18*
D03*
X604592Y-129088D02*
G54D18*
D03*
X202721Y-338721D02*
G54D18*
D03*
X220682Y-320760D02*
G54D18*
D03*
X238642Y-302800D02*
G54D18*
D03*
G36*
X541854Y-323675D02*
X557854Y-323675D01*
X557854Y-339675D01*
X541854Y-339675D01*
X541854Y-323675D01*
G37*
X571354Y-331675D02*
G54D18*
D03*
X549854Y-311831D02*
G54D18*
D03*
X571354Y-311831D02*
G54D18*
D03*
X549854Y-290400D02*
G54D18*
D03*
X571354Y-290400D02*
G54D18*
D03*
X549854Y-269762D02*
G54D18*
D03*
X571354Y-269762D02*
G54D18*
D03*
X420758Y-268798D02*
G54D31*
D03*
X420762Y-288801D02*
G54D31*
D03*
X440758Y-278798D02*
G54D31*
D03*
X397819Y-270137D02*
G54D21*
D03*
X397819Y-290725D02*
G54D21*
D03*
X466044Y-242523D02*
G54D32*
D03*
X466044Y-267923D02*
G54D32*
D03*
G36*
X440101Y-260452D02*
X430202Y-250553D01*
X442930Y-237825D01*
X452829Y-247725D01*
X440101Y-260452D01*
G37*
G36*
X425544Y-245895D02*
X415644Y-235996D01*
X428372Y-223268D01*
X438272Y-233167D01*
X425544Y-245895D01*
G37*
X489993Y-123108D02*
G54D24*
D03*
X461993Y-123108D02*
G54D24*
D03*
X592504Y-466602D02*
G54D24*
D03*
X564504Y-466602D02*
G54D24*
D03*
X142648Y-374853D02*
G54D21*
D03*
X142648Y-395441D02*
G54D21*
D03*
X50860Y-387265D02*
G54D24*
D03*
X78860Y-387265D02*
G54D24*
D03*
X54829Y-387265D02*
G54D23*
D03*
X75417Y-387265D02*
G54D23*
D03*
X257956Y-165358D02*
G54D10*
D03*
X257956Y-144562D02*
G54D10*
D03*
X370987Y-508542D02*
G54D22*
D03*
X325040Y-508800D02*
G54D22*
D03*
X45972Y-375112D02*
G54D32*
D03*
X504096Y-221149D02*
G54D23*
D03*
X523096Y-221149D02*
G54D23*
D03*
G36*
X490016Y-210150D02*
X508016Y-210149D01*
X508016Y-232149D01*
X490016Y-232150D01*
X490016Y-210150D01*
G37*
X527016Y-221149D02*
G54D24*
D03*
X167038Y-386980D02*
G54D33*
D03*
X167038Y-407568D02*
G54D33*
D03*
X184898Y-386980D02*
G54D33*
D03*
X184898Y-407568D02*
G54D33*
D03*
G36*
X446447Y-187381D02*
X457761Y-198695D01*
X446447Y-210009D01*
X435133Y-198695D01*
X446447Y-187381D01*
G37*
G36*
X461650Y-202584D02*
X472963Y-213898D01*
X461649Y-225212D01*
X450336Y-213898D01*
X461650Y-202584D01*
G37*
G36*
X479545Y-261524D02*
X495545Y-261524D01*
X495545Y-277524D01*
X479545Y-277524D01*
X479545Y-261524D01*
G37*
X509045Y-269526D02*
G54D18*
D03*
X527039Y-173010D02*
G54D28*
D03*
X527041Y-151510D02*
G54D28*
D03*
X471155Y-296512D02*
G54D18*
D03*
X492654Y-296514D02*
G54D18*
D03*
X807236Y-566183D02*
G54D34*
D03*
X807236Y-540683D02*
G54D34*
D03*
X807236Y-515183D02*
G54D34*
D03*
X807236Y-489683D02*
G54D34*
D03*
X807236Y-464184D02*
G54D34*
D03*
X807236Y-438684D02*
G54D34*
D03*
X807236Y-413184D02*
G54D34*
D03*
X807236Y-387684D02*
G54D34*
D03*
X807236Y-362184D02*
G54D34*
D03*
X807236Y-336684D02*
G54D34*
D03*
X807236Y-311183D02*
G54D34*
D03*
X807236Y-285684D02*
G54D34*
D03*
X807236Y-260184D02*
G54D34*
D03*
X807236Y-234684D02*
G54D34*
D03*
X807236Y-209184D02*
G54D34*
D03*
X807236Y-183684D02*
G54D34*
D03*
X807237Y-158184D02*
G54D34*
D03*
X807236Y-132684D02*
G54D34*
D03*
X807236Y-107184D02*
G54D34*
D03*
X807236Y-81684D02*
G54D34*
D03*
X764961Y-566183D02*
G54D34*
D03*
X764961Y-540683D02*
G54D34*
D03*
X764961Y-515184D02*
G54D34*
D03*
X764961Y-489684D02*
G54D34*
D03*
X764961Y-464184D02*
G54D34*
D03*
X764961Y-438684D02*
G54D34*
D03*
X764961Y-413184D02*
G54D34*
D03*
X764961Y-387684D02*
G54D34*
D03*
X764961Y-362184D02*
G54D34*
D03*
X764961Y-336684D02*
G54D34*
D03*
X764961Y-311184D02*
G54D34*
D03*
X764961Y-285684D02*
G54D34*
D03*
X764961Y-260184D02*
G54D34*
D03*
X764961Y-234684D02*
G54D34*
D03*
X764961Y-209184D02*
G54D34*
D03*
X764961Y-183684D02*
G54D34*
D03*
X764961Y-158184D02*
G54D34*
D03*
X764961Y-132684D02*
G54D34*
D03*
X764961Y-107184D02*
G54D34*
D03*
X764961Y-81684D02*
G54D34*
D03*
X784961Y-553433D02*
G54D34*
D03*
X784961Y-527933D02*
G54D34*
D03*
X784961Y-502433D02*
G54D34*
D03*
X784961Y-451434D02*
G54D34*
D03*
X784961Y-425934D02*
G54D34*
D03*
X784961Y-400434D02*
G54D34*
D03*
X784961Y-349434D02*
G54D34*
D03*
X784961Y-323934D02*
G54D34*
D03*
X784961Y-298434D02*
G54D34*
D03*
X784961Y-247434D02*
G54D34*
D03*
X784961Y-221934D02*
G54D34*
D03*
X784961Y-196434D02*
G54D34*
D03*
X784961Y-145433D02*
G54D34*
D03*
X784961Y-119933D02*
G54D34*
D03*
X784961Y-94434D02*
G54D34*
D03*
X744961Y-553433D02*
G54D34*
D03*
X744961Y-527934D02*
G54D34*
D03*
X744961Y-502433D02*
G54D34*
D03*
X744961Y-451434D02*
G54D34*
D03*
X744961Y-425934D02*
G54D34*
D03*
X744961Y-400434D02*
G54D34*
D03*
X744961Y-349434D02*
G54D34*
D03*
X744961Y-323934D02*
G54D34*
D03*
X744961Y-298434D02*
G54D34*
D03*
X744961Y-247434D02*
G54D34*
D03*
X744961Y-221934D02*
G54D34*
D03*
X744961Y-196434D02*
G54D34*
D03*
X744961Y-145433D02*
G54D34*
D03*
X744961Y-119933D02*
G54D34*
D03*
X744961Y-94434D02*
G54D34*
D03*
G36*
X718583Y-434684D02*
X718583Y-414684D01*
X738583Y-414684D01*
X738583Y-434684D01*
X718583Y-434684D01*
G37*
G36*
X718933Y-459834D02*
X718933Y-439834D01*
X738933Y-439834D01*
X738933Y-459834D01*
X718933Y-459834D01*
G37*
G36*
X686058Y-129884D02*
X686058Y-109884D01*
X706058Y-109884D01*
X706058Y-129884D01*
X686058Y-129884D01*
G37*
G36*
X686058Y-231484D02*
X686058Y-211484D01*
X706058Y-211484D01*
X706058Y-231484D01*
X686058Y-231484D01*
G37*
G36*
X686058Y-333084D02*
X686058Y-313084D01*
X706058Y-313084D01*
X706058Y-333084D01*
X686058Y-333084D01*
G37*
G36*
X686058Y-434684D02*
X686058Y-414684D01*
X706058Y-414684D01*
X706058Y-434684D01*
X686058Y-434684D01*
G37*
G36*
X718583Y-485484D02*
X718583Y-465484D01*
X738583Y-465484D01*
X738583Y-485484D01*
X718583Y-485484D01*
G37*
G36*
X671308Y-155034D02*
X671308Y-135034D01*
X691308Y-135034D01*
X691308Y-155034D01*
X671308Y-155034D01*
G37*
G36*
X656671Y-180684D02*
X656671Y-160684D01*
X676671Y-160684D01*
X676671Y-180684D01*
X656671Y-180684D01*
G37*
G36*
X671308Y-256634D02*
X671308Y-236634D01*
X691308Y-236634D01*
X691308Y-256634D01*
X671308Y-256634D01*
G37*
G36*
X656671Y-282284D02*
X656671Y-262284D01*
X676671Y-262284D01*
X676671Y-282284D01*
X656671Y-282284D01*
G37*
G36*
X671308Y-358234D02*
X671308Y-338234D01*
X691308Y-338234D01*
X691308Y-358234D01*
X671308Y-358234D01*
G37*
G36*
X656671Y-383884D02*
X656671Y-363884D01*
X676671Y-363884D01*
X676671Y-383884D01*
X656671Y-383884D01*
G37*
G36*
X671308Y-459834D02*
X671308Y-439834D01*
X691308Y-439834D01*
X691308Y-459834D01*
X671308Y-459834D01*
G37*
G36*
X656671Y-485484D02*
X656671Y-465484D01*
X676671Y-465484D01*
X676671Y-485484D01*
X656671Y-485484D01*
G37*
X667253Y-107777D02*
G54D32*
D03*
X685214Y-92992D02*
G54D32*
D03*
X707937Y-86144D02*
G54D32*
D03*
X713015Y-196434D02*
G54D32*
D03*
G36*
X718583Y-332684D02*
X718583Y-312684D01*
X738583Y-312684D01*
X738583Y-332684D01*
X718583Y-332684D01*
G37*
G36*
X718933Y-357834D02*
X718933Y-337834D01*
X738933Y-337834D01*
X738933Y-357834D01*
X718933Y-357834D01*
G37*
G36*
X718583Y-383484D02*
X718583Y-363484D01*
X738583Y-363484D01*
X738583Y-383484D01*
X718583Y-383484D01*
G37*
G36*
X718583Y-230684D02*
X718583Y-210684D01*
X738583Y-210684D01*
X738583Y-230684D01*
X718583Y-230684D01*
G37*
G36*
X718933Y-255834D02*
X718933Y-235834D01*
X738933Y-235834D01*
X738933Y-255834D01*
X718933Y-255834D01*
G37*
G36*
X718583Y-281483D02*
X718583Y-261483D01*
X738583Y-261483D01*
X738583Y-281483D01*
X718583Y-281483D01*
G37*
G36*
X718583Y-128684D02*
X718583Y-108684D01*
X738583Y-108684D01*
X738583Y-128684D01*
X718583Y-128684D01*
G37*
G36*
X718933Y-153834D02*
X718933Y-133834D01*
X738933Y-133834D01*
X738933Y-153834D01*
X718933Y-153834D01*
G37*
G36*
X718583Y-179484D02*
X718583Y-159484D01*
X738583Y-159484D01*
X738583Y-179484D01*
X718583Y-179484D01*
G37*
X730559Y-79396D02*
G54D32*
D03*
X823986Y-528011D02*
G54D35*
D03*
X823986Y-502611D02*
G54D35*
D03*
X823986Y-426011D02*
G54D35*
D03*
X823986Y-400611D02*
G54D35*
D03*
X823986Y-324011D02*
G54D35*
D03*
X823986Y-298611D02*
G54D35*
D03*
X823986Y-222011D02*
G54D35*
D03*
X823986Y-196611D02*
G54D35*
D03*
X823986Y-120011D02*
G54D35*
D03*
X823986Y-94611D02*
G54D35*
D03*
X87849Y-1122660D02*
G54D36*
D03*
X75149Y-1122660D02*
G54D36*
D03*
X62449Y-1122660D02*
G54D36*
D03*
X49750Y-1122660D02*
G54D36*
D03*
X49749Y-1172660D02*
G54D36*
D03*
X62450Y-1172660D02*
G54D36*
D03*
X75149Y-1172660D02*
G54D36*
D03*
X87849Y-1172660D02*
G54D36*
D03*
X26437Y-1111736D02*
G54D19*
D03*
X48612Y-1111736D02*
G54D19*
D03*
X26413Y-1082889D02*
G54D18*
D03*
X26413Y-1104064D02*
G54D18*
D03*
G36*
X67752Y-1079894D02*
X82752Y-1079893D01*
X82753Y-1097893D01*
X67753Y-1097894D01*
X67752Y-1079894D01*
G37*
X94253Y-1088894D02*
G54D23*
D03*
X430479Y-211488D02*
G54D32*
D03*
X64670Y-511176D02*
G54D19*
D03*
X85257Y-511176D02*
G54D19*
D03*
X64670Y-492126D02*
G54D19*
D03*
X85257Y-492126D02*
G54D19*
D03*
X157293Y-461355D02*
G54D28*
D03*
X87366Y-753560D02*
G54D36*
D03*
G36*
X95066Y-740560D02*
X105066Y-740559D01*
X105067Y-766559D01*
X95067Y-766560D01*
X95066Y-740560D01*
G37*
X112766Y-753560D02*
G54D36*
D03*
X125466Y-753560D02*
G54D36*
D03*
G36*
X120466Y-690560D02*
X130466Y-690559D01*
X130467Y-716559D01*
X120467Y-716560D01*
X120466Y-690560D01*
G37*
X112766Y-703560D02*
G54D36*
D03*
X100066Y-703560D02*
G54D36*
D03*
X87366Y-703560D02*
G54D36*
D03*
X143006Y-759599D02*
G54D10*
D03*
X143009Y-740594D02*
G54D10*
D03*
X143009Y-732606D02*
G54D10*
D03*
X143016Y-713609D02*
G54D10*
D03*
X252466Y-753560D02*
G54D36*
D03*
G36*
X260166Y-740560D02*
X270166Y-740559D01*
X270167Y-766559D01*
X260167Y-766560D01*
X260166Y-740560D01*
G37*
X277866Y-753560D02*
G54D36*
D03*
X290566Y-753560D02*
G54D36*
D03*
G36*
X285566Y-690560D02*
X295566Y-690559D01*
X295567Y-716559D01*
X285567Y-716560D01*
X285566Y-690560D01*
G37*
X277866Y-703560D02*
G54D36*
D03*
X265166Y-703560D02*
G54D36*
D03*
X252466Y-703560D02*
G54D36*
D03*
X308106Y-759599D02*
G54D10*
D03*
X308109Y-740594D02*
G54D10*
D03*
X308109Y-732606D02*
G54D10*
D03*
X308116Y-713609D02*
G54D10*
D03*
X417566Y-753560D02*
G54D36*
D03*
G36*
X425266Y-740560D02*
X435266Y-740559D01*
X435267Y-766559D01*
X425267Y-766560D01*
X425266Y-740560D01*
G37*
X442966Y-753560D02*
G54D36*
D03*
X455666Y-753560D02*
G54D36*
D03*
G36*
X450666Y-690560D02*
X460666Y-690559D01*
X460667Y-716559D01*
X450667Y-716560D01*
X450666Y-690560D01*
G37*
X442966Y-703560D02*
G54D36*
D03*
X430266Y-703560D02*
G54D36*
D03*
X417566Y-703560D02*
G54D36*
D03*
X473206Y-759599D02*
G54D10*
D03*
X473209Y-740594D02*
G54D10*
D03*
X473209Y-732606D02*
G54D10*
D03*
X473216Y-713609D02*
G54D10*
D03*
X582666Y-753560D02*
G54D36*
D03*
G36*
X590366Y-740560D02*
X600366Y-740559D01*
X600367Y-766559D01*
X590367Y-766560D01*
X590366Y-740560D01*
G37*
X608066Y-753560D02*
G54D36*
D03*
X620766Y-753560D02*
G54D36*
D03*
G36*
X615766Y-690560D02*
X625766Y-690559D01*
X625767Y-716559D01*
X615767Y-716560D01*
X615766Y-690560D01*
G37*
X608066Y-703560D02*
G54D36*
D03*
X595366Y-703560D02*
G54D36*
D03*
X582666Y-703560D02*
G54D36*
D03*
X638306Y-759599D02*
G54D10*
D03*
X638309Y-740594D02*
G54D10*
D03*
X638309Y-732606D02*
G54D10*
D03*
X638316Y-713609D02*
G54D10*
D03*
X87366Y-947234D02*
G54D36*
D03*
X100067Y-947234D02*
G54D36*
D03*
X112766Y-947234D02*
G54D36*
D03*
X125466Y-947234D02*
G54D36*
D03*
X125466Y-897234D02*
G54D36*
D03*
X112766Y-897234D02*
G54D36*
D03*
X100066Y-897234D02*
G54D36*
D03*
X87366Y-897234D02*
G54D36*
D03*
X143006Y-953274D02*
G54D10*
D03*
X143009Y-934269D02*
G54D10*
D03*
X143009Y-926282D02*
G54D10*
D03*
X143016Y-907284D02*
G54D10*
D03*
X252466Y-947234D02*
G54D36*
D03*
X265167Y-947234D02*
G54D36*
D03*
X277866Y-947234D02*
G54D36*
D03*
X290566Y-947234D02*
G54D36*
D03*
X290566Y-897234D02*
G54D36*
D03*
X277866Y-897234D02*
G54D36*
D03*
X265166Y-897234D02*
G54D36*
D03*
X252466Y-897234D02*
G54D36*
D03*
X308106Y-953274D02*
G54D10*
D03*
X308109Y-934269D02*
G54D10*
D03*
X308109Y-926282D02*
G54D10*
D03*
X308116Y-907284D02*
G54D10*
D03*
X417566Y-947234D02*
G54D36*
D03*
X430267Y-947234D02*
G54D36*
D03*
X442966Y-947234D02*
G54D36*
D03*
X455666Y-947234D02*
G54D36*
D03*
X455666Y-897234D02*
G54D36*
D03*
X442966Y-897234D02*
G54D36*
D03*
X430266Y-897234D02*
G54D36*
D03*
X417566Y-897234D02*
G54D36*
D03*
X473206Y-953274D02*
G54D10*
D03*
X473209Y-934269D02*
G54D10*
D03*
X473209Y-926282D02*
G54D10*
D03*
X473216Y-907284D02*
G54D10*
D03*
X582666Y-947234D02*
G54D36*
D03*
X595367Y-947234D02*
G54D36*
D03*
X608066Y-947234D02*
G54D36*
D03*
X620766Y-947234D02*
G54D36*
D03*
X620766Y-897234D02*
G54D36*
D03*
X608066Y-897234D02*
G54D36*
D03*
X595366Y-897234D02*
G54D36*
D03*
X582666Y-897234D02*
G54D36*
D03*
X638306Y-953274D02*
G54D10*
D03*
X638309Y-934269D02*
G54D10*
D03*
X638309Y-926282D02*
G54D10*
D03*
X638316Y-907284D02*
G54D10*
D03*
X747766Y-753560D02*
G54D36*
D03*
G36*
X755466Y-740560D02*
X765466Y-740559D01*
X765467Y-766559D01*
X755467Y-766560D01*
X755466Y-740560D01*
G37*
X773166Y-753560D02*
G54D36*
D03*
X785866Y-753560D02*
G54D36*
D03*
G36*
X780866Y-690560D02*
X790866Y-690559D01*
X790867Y-716559D01*
X780867Y-716560D01*
X780866Y-690560D01*
G37*
X773166Y-703560D02*
G54D36*
D03*
X760466Y-703560D02*
G54D36*
D03*
X747766Y-703560D02*
G54D36*
D03*
X803406Y-759599D02*
G54D10*
D03*
X803409Y-740594D02*
G54D10*
D03*
X803409Y-732606D02*
G54D10*
D03*
X803416Y-713609D02*
G54D10*
D03*
X747766Y-947234D02*
G54D36*
D03*
X760467Y-947234D02*
G54D36*
D03*
X773166Y-947234D02*
G54D36*
D03*
X785866Y-947234D02*
G54D36*
D03*
X785866Y-897234D02*
G54D36*
D03*
X773166Y-897234D02*
G54D36*
D03*
X760466Y-897234D02*
G54D36*
D03*
X747766Y-897234D02*
G54D36*
D03*
X803406Y-953274D02*
G54D10*
D03*
X803409Y-934269D02*
G54D10*
D03*
X803409Y-926282D02*
G54D10*
D03*
X803416Y-907284D02*
G54D10*
D03*
X205324Y-1122660D02*
G54D36*
D03*
X192624Y-1122660D02*
G54D36*
D03*
X179924Y-1122660D02*
G54D36*
D03*
X167225Y-1122660D02*
G54D36*
D03*
X167224Y-1172660D02*
G54D36*
D03*
X179924Y-1172660D02*
G54D36*
D03*
X192624Y-1172660D02*
G54D36*
D03*
X205324Y-1172660D02*
G54D36*
D03*
X143912Y-1111736D02*
G54D19*
D03*
X166087Y-1111736D02*
G54D19*
D03*
X143888Y-1082889D02*
G54D18*
D03*
X143888Y-1104064D02*
G54D18*
D03*
G36*
X185227Y-1079894D02*
X200227Y-1079893D01*
X200228Y-1097893D01*
X185228Y-1097894D01*
X185227Y-1079894D01*
G37*
X211728Y-1088894D02*
G54D23*
D03*
X322799Y-1122660D02*
G54D36*
D03*
X310099Y-1122660D02*
G54D36*
D03*
X297399Y-1122660D02*
G54D36*
D03*
X284700Y-1122660D02*
G54D36*
D03*
X284699Y-1172660D02*
G54D36*
D03*
X297400Y-1172660D02*
G54D36*
D03*
X310099Y-1172660D02*
G54D36*
D03*
X322799Y-1172660D02*
G54D36*
D03*
X261387Y-1111736D02*
G54D19*
D03*
X283562Y-1111736D02*
G54D19*
D03*
X261363Y-1082889D02*
G54D18*
D03*
X261363Y-1104064D02*
G54D18*
D03*
G36*
X302702Y-1079894D02*
X317702Y-1079893D01*
X317703Y-1097893D01*
X302703Y-1097894D01*
X302702Y-1079894D01*
G37*
X329203Y-1088894D02*
G54D23*
D03*
X437099Y-1122660D02*
G54D36*
D03*
X424399Y-1122660D02*
G54D36*
D03*
X411699Y-1122660D02*
G54D36*
D03*
X399000Y-1122660D02*
G54D36*
D03*
X398999Y-1172660D02*
G54D36*
D03*
X411700Y-1172660D02*
G54D36*
D03*
X424399Y-1172660D02*
G54D36*
D03*
X437099Y-1172660D02*
G54D36*
D03*
X375687Y-1111736D02*
G54D19*
D03*
X397862Y-1111736D02*
G54D19*
D03*
X375663Y-1082889D02*
G54D18*
D03*
X375663Y-1104064D02*
G54D18*
D03*
G36*
X417002Y-1079894D02*
X432002Y-1079893D01*
X432003Y-1097893D01*
X417003Y-1097894D01*
X417002Y-1079894D01*
G37*
X443503Y-1088894D02*
G54D23*
D03*
X551400Y-1122660D02*
G54D36*
D03*
X538700Y-1122660D02*
G54D36*
D03*
X526000Y-1122660D02*
G54D36*
D03*
X513300Y-1122660D02*
G54D36*
D03*
X513299Y-1172660D02*
G54D36*
D03*
X526000Y-1172660D02*
G54D36*
D03*
X538699Y-1172660D02*
G54D36*
D03*
X551399Y-1172660D02*
G54D36*
D03*
X489987Y-1111736D02*
G54D19*
D03*
X512162Y-1111736D02*
G54D19*
D03*
X489963Y-1082889D02*
G54D18*
D03*
X489963Y-1104064D02*
G54D18*
D03*
G36*
X531302Y-1079894D02*
X546302Y-1079893D01*
X546303Y-1097893D01*
X531303Y-1097894D01*
X531302Y-1079894D01*
G37*
X557803Y-1088894D02*
G54D23*
D03*
X668874Y-1122660D02*
G54D36*
D03*
X656174Y-1122660D02*
G54D36*
D03*
X643474Y-1122660D02*
G54D36*
D03*
X630775Y-1122660D02*
G54D36*
D03*
X630774Y-1172660D02*
G54D36*
D03*
X643474Y-1172660D02*
G54D36*
D03*
X656174Y-1172660D02*
G54D36*
D03*
X668874Y-1172660D02*
G54D36*
D03*
X607462Y-1111736D02*
G54D19*
D03*
X629637Y-1111736D02*
G54D19*
D03*
X607438Y-1082889D02*
G54D18*
D03*
X607438Y-1104064D02*
G54D18*
D03*
G36*
X648777Y-1079894D02*
X663777Y-1079893D01*
X663778Y-1097893D01*
X648778Y-1097894D01*
X648777Y-1079894D01*
G37*
X675278Y-1088894D02*
G54D23*
D03*
X786350Y-1122660D02*
G54D36*
D03*
X773650Y-1122660D02*
G54D36*
D03*
X760950Y-1122660D02*
G54D36*
D03*
X748250Y-1122660D02*
G54D36*
D03*
X748249Y-1172660D02*
G54D36*
D03*
X760950Y-1172660D02*
G54D36*
D03*
X773649Y-1172660D02*
G54D36*
D03*
X786349Y-1172660D02*
G54D36*
D03*
X724937Y-1111736D02*
G54D19*
D03*
X747112Y-1111736D02*
G54D19*
D03*
X724913Y-1082889D02*
G54D18*
D03*
X724913Y-1104064D02*
G54D18*
D03*
G36*
X766252Y-1079894D02*
X781252Y-1079893D01*
X781253Y-1097893D01*
X766253Y-1097894D01*
X766252Y-1079894D01*
G37*
X792753Y-1088894D02*
G54D23*
D03*
X290379Y-510232D02*
G54D27*
D03*
M02*
