%FSLAX34Y34*%
%MOMM*%
%LNSILK_TOP*%
G71*
G01*
%ADD10C, 0.002*%
%ADD11C, 0.150*%
%ADD12C, 0.100*%
%ADD13C, 0.200*%
%ADD14C, 0.000*%
%ADD15C, 0.500*%
%ADD16C, 0.300*%
%ADD17C, 0.067*%
%ADD18C, 0.064*%
%ADD19C, 0.033*%
%ADD20C, 0.022*%
%LPD*%
G54D10*
X250Y50D02*
X1000250Y50D01*
X1000250Y-999950D01*
X250Y-999950D01*
X250Y50D01*
G54D11*
X182665Y-213446D02*
X202665Y-213446D01*
X202665Y-251446D01*
X182665Y-251446D01*
G54D12*
G75*
G01X245972Y-279774D02*
G03X245972Y-279774I-2500J0D01*
G01*
G36*
G75*
G01X245972Y-279774D02*
G03X245972Y-279774I-2500J0D01*
G01*
G37*
X245972Y-279774D01*
G54D11*
X448302Y-247680D02*
X448302Y-229680D01*
X482302Y-229680D01*
X482302Y-247680D01*
X448302Y-247680D01*
G54D11*
X564919Y-207521D02*
X564919Y-225521D01*
X530919Y-225521D01*
X530919Y-207521D01*
X564919Y-207521D01*
G54D11*
X564919Y-189265D02*
X564919Y-207265D01*
X530919Y-207265D01*
X530919Y-189265D01*
X564919Y-189265D01*
G54D11*
X479294Y-141318D02*
X492021Y-154046D01*
X467980Y-178087D01*
X455252Y-165360D01*
X479294Y-141318D01*
G54D11*
X366613Y-349346D02*
X366613Y-331346D01*
X400613Y-331346D01*
X400613Y-349346D01*
X366613Y-349346D01*
G54D11*
X502421Y-325146D02*
X522421Y-325146D01*
X522421Y-274046D01*
X502421Y-274046D01*
X502421Y-325146D01*
G54D11*
X507421Y-325146D02*
X517421Y-325146D01*
X517422Y-320146D01*
X507421Y-320146D01*
X507421Y-325146D01*
G54D13*
X317286Y-74473D02*
X317286Y-90473D01*
X325686Y-90473D01*
G54D13*
X338486Y-90473D02*
X330086Y-90473D01*
X330086Y-74473D01*
X338486Y-74473D01*
G54D13*
X330086Y-82473D02*
X338486Y-82473D01*
G54D13*
X342886Y-90473D02*
X342886Y-74473D01*
X348886Y-74473D01*
X351286Y-75473D01*
X352486Y-77473D01*
X352486Y-87473D01*
X351286Y-89473D01*
X348886Y-90473D01*
X342886Y-90473D01*
G54D13*
X356886Y-87473D02*
X358086Y-89473D01*
X360486Y-90473D01*
X362886Y-90473D01*
X365286Y-89473D01*
X366486Y-87473D01*
X366486Y-85473D01*
X365286Y-83473D01*
X362886Y-82473D01*
X360486Y-82473D01*
X358086Y-81473D01*
X356886Y-79473D01*
X356886Y-77473D01*
X358086Y-75473D01*
X360486Y-74473D01*
X362886Y-74473D01*
X365286Y-75473D01*
X366486Y-77473D01*
G54D11*
X260876Y-87035D02*
X278876Y-87035D01*
X278876Y-121035D01*
X260876Y-121035D01*
X260876Y-87035D01*
G54D11*
X385229Y-80093D02*
X397957Y-92821D01*
X373916Y-116863D01*
X361188Y-104135D01*
X385229Y-80093D01*
G54D11*
X304266Y-83665D02*
X316994Y-96393D01*
X292952Y-120434D01*
X280224Y-107706D01*
X304266Y-83665D01*
G54D11*
X275468Y-344350D02*
X288196Y-357078D01*
X312238Y-333036D01*
X299510Y-320308D01*
X275468Y-344350D01*
G54D11*
X156545Y-452870D02*
X156545Y-465870D01*
X166545Y-465870D01*
G54D11*
X176545Y-452870D02*
X168545Y-452870D01*
G54D11*
X547701Y-238247D02*
X547701Y-256247D01*
X513701Y-256247D01*
X513701Y-238247D01*
X547701Y-238247D01*
G54D11*
X465984Y-324248D02*
X465984Y-342248D01*
X431984Y-342248D01*
X431984Y-324248D01*
X465984Y-324248D01*
G54D11*
X570889Y-315140D02*
X552889Y-315140D01*
X552889Y-281140D01*
X570889Y-281140D01*
X570889Y-315140D01*
G54D11*
X551126Y-242748D02*
X571126Y-242748D01*
X571126Y-280748D01*
X551126Y-280748D01*
X551126Y-242748D01*
G54D11*
X527451Y-326709D02*
X527451Y-346709D01*
X489451Y-346709D01*
X489451Y-326709D01*
X527451Y-326709D01*
G54D11*
X571332Y-264245D02*
X591332Y-264245D01*
X591332Y-302245D01*
X571332Y-302245D01*
X571332Y-264245D01*
G54D11*
X465984Y-342504D02*
X465984Y-360504D01*
X431984Y-360504D01*
X431984Y-342504D01*
X465984Y-342504D01*
G54D11*
X583443Y-189533D02*
X565443Y-189534D01*
X565443Y-223533D01*
X583443Y-223534D01*
X583443Y-189533D01*
G54D11*
X395340Y-478076D02*
X395340Y-496076D01*
X361340Y-496076D01*
X361340Y-478076D01*
X395340Y-478076D01*
G54D11*
X431428Y-44738D02*
X449428Y-44738D01*
X449428Y-78738D01*
X431428Y-78738D01*
X431428Y-44738D01*
G54D11*
X243966Y-311731D02*
X231238Y-299003D01*
X207197Y-323044D01*
X219924Y-335772D01*
X243966Y-311731D01*
G54D11*
X189430Y-452904D02*
X207430Y-452904D01*
X207430Y-418904D01*
X189430Y-418904D01*
X189430Y-452904D01*
G54D11*
X188552Y-452876D02*
X188552Y-465876D01*
X178552Y-465876D01*
G54D11*
X141040Y-216514D02*
X141040Y-198514D01*
X175040Y-198514D01*
X175040Y-216514D01*
X141040Y-216514D01*
G54D11*
X738805Y-879013D02*
X738805Y-859012D01*
X687705Y-859013D01*
X687705Y-879013D01*
X738805Y-879013D01*
G54D11*
X738805Y-874013D02*
X738805Y-864013D01*
X733805Y-864012D01*
X733805Y-874013D01*
X738805Y-874013D01*
G54D11*
X438805Y-879013D02*
X438805Y-859012D01*
X387705Y-859013D01*
X387705Y-879013D01*
X438805Y-879013D01*
G54D11*
X438805Y-874013D02*
X438805Y-864013D01*
X433805Y-864012D01*
X433805Y-874013D01*
X438805Y-874013D01*
G54D11*
X888805Y-879013D02*
X888805Y-859012D01*
X837705Y-859013D01*
X837705Y-879013D01*
X888805Y-879013D01*
G54D11*
X888805Y-874013D02*
X888805Y-864013D01*
X883805Y-864012D01*
X883805Y-874013D01*
X888805Y-874013D01*
G54D11*
X588805Y-879013D02*
X588805Y-859012D01*
X537705Y-859013D01*
X537705Y-879013D01*
X588805Y-879013D01*
G54D11*
X588805Y-874013D02*
X588805Y-864013D01*
X583805Y-864012D01*
X583805Y-874013D01*
X588805Y-874013D01*
G54D11*
X288805Y-879013D02*
X288805Y-859012D01*
X237705Y-859013D01*
X237705Y-879013D01*
X288805Y-879013D01*
G54D11*
X288805Y-874013D02*
X288805Y-864013D01*
X283805Y-864012D01*
X283805Y-874013D01*
X288805Y-874013D01*
G54D11*
X138805Y-879013D02*
X138805Y-859012D01*
X87705Y-859013D01*
X87705Y-879013D01*
X138805Y-879013D01*
G54D11*
X138805Y-874013D02*
X138805Y-864013D01*
X133805Y-864012D01*
X133805Y-874013D01*
X138805Y-874013D01*
G54D11*
X484019Y-359773D02*
X466019Y-359773D01*
X466019Y-325773D01*
X484020Y-325773D01*
X484019Y-359773D01*
G54D11*
X511689Y-263684D02*
X493689Y-263684D01*
X493689Y-229684D01*
X511689Y-229684D01*
X511689Y-263684D01*
G54D11*
X455112Y-45056D02*
X475112Y-45056D01*
X475112Y-83056D01*
X455112Y-83056D01*
X455112Y-45056D01*
G54D14*
G75*
G01X535003Y-329962D02*
G03X535003Y-329962I-2000J0D01*
G01*
G36*
G75*
G01X535003Y-329962D02*
G03X535003Y-329962I-2000J0D01*
G01*
G37*
X535003Y-329962D01*
G54D15*
X447675Y-537528D02*
X477044Y-537528D01*
X477044Y-510143D01*
X447675Y-510143D01*
X447675Y-537528D01*
G54D13*
X195471Y-209312D02*
X215503Y-209312D01*
X215503Y-186690D01*
X195471Y-186690D01*
X195471Y-209312D01*
G54D13*
X175041Y-209312D02*
X195471Y-209312D01*
X195471Y-186690D01*
X175041Y-186690D01*
X175041Y-209312D01*
G54D11*
X141040Y-198257D02*
X141040Y-180257D01*
X175040Y-180257D01*
X175040Y-198257D01*
X141040Y-198257D01*
G54D11*
X156184Y-145984D02*
X174184Y-145984D01*
X174184Y-179984D01*
X156184Y-179984D01*
X156184Y-145984D01*
G54D11*
X261181Y-368128D02*
X243181Y-368127D01*
X243181Y-402127D01*
X261181Y-402128D01*
X261181Y-368128D01*
G54D11*
X243322Y-368128D02*
X225322Y-368127D01*
X225322Y-402127D01*
X243322Y-402128D01*
X243322Y-368128D01*
G54D11*
X261181Y-402259D02*
X243181Y-402259D01*
X243181Y-436259D01*
X261181Y-436259D01*
X261181Y-402259D01*
G54D11*
X243322Y-402259D02*
X225322Y-402259D01*
X225322Y-436259D01*
X243322Y-436259D01*
X243322Y-402259D01*
G54D11*
X224601Y-473001D02*
X206602Y-473001D01*
X206602Y-507000D01*
X224602Y-507001D01*
X224601Y-473001D01*
G54D11*
X242987Y-473070D02*
X224987Y-473070D01*
X224987Y-507070D01*
X242987Y-507070D01*
X242987Y-473070D01*
G54D11*
X224877Y-368149D02*
X206878Y-368148D01*
X206878Y-402148D01*
X224877Y-402149D01*
X224877Y-368149D01*
G54D11*
X224874Y-402450D02*
X206874Y-402450D01*
X206874Y-436450D01*
X224874Y-436450D01*
X224874Y-402450D01*
G54D11*
X224831Y-472547D02*
X224831Y-454548D01*
X190832Y-454548D01*
X190831Y-472548D01*
X224831Y-472547D01*
G54D11*
X242988Y-454691D02*
X242988Y-436691D01*
X208988Y-436691D01*
X208988Y-454691D01*
X242988Y-454691D01*
G54D11*
X147638Y-232728D02*
X182562Y-232728D01*
G54D11*
X165100Y-220028D02*
X165100Y-248602D01*
G54D11*
X154896Y-316840D02*
X174896Y-316840D01*
X174896Y-354840D01*
X154896Y-354840D01*
X154896Y-316840D01*
G54D11*
X139675Y-278290D02*
X139675Y-298290D01*
X101675Y-298290D01*
X101675Y-278290D01*
X139675Y-278290D01*
G54D13*
X100745Y-521574D02*
X63245Y-521574D01*
X63246Y-541574D01*
X100745Y-541574D01*
X100745Y-521574D01*
G54D13*
X103920Y-526574D02*
X113920Y-526574D01*
G54D13*
X103920Y-536574D02*
X113920Y-536574D01*
G54D13*
X100640Y-454353D02*
X100640Y-492056D01*
X63334Y-492056D01*
X63334Y-454353D01*
X100640Y-454353D01*
G54D12*
X850335Y-120526D02*
X850335Y-116776D01*
G54D12*
X895335Y-182776D02*
X895335Y-179026D01*
G54D12*
X895335Y-120526D02*
X895335Y-116776D01*
G54D12*
X872835Y-116776D02*
X895335Y-116776D01*
G54D12*
X850335Y-116776D02*
X872835Y-116776D01*
G54D12*
X872835Y-182776D02*
X895335Y-182776D01*
G54D12*
X850335Y-182776D02*
X872835Y-182776D01*
G54D12*
X895335Y-116776D02*
X895335Y-182776D01*
G54D12*
X850335Y-182776D02*
X850335Y-116776D01*
G54D12*
G75*
G01X848663Y-113670D02*
G03X848663Y-113670I-1191J0D01*
G01*
G36*
G75*
G01X848663Y-113670D02*
G03X848663Y-113670I-1191J0D01*
G01*
G37*
X848663Y-113670D01*
G54D11*
X788468Y-221469D02*
X775468Y-221469D01*
X775468Y-231469D01*
G54D11*
X788468Y-241469D02*
X788468Y-233469D01*
G54D11*
X788462Y-253476D02*
X775462Y-253476D01*
X775462Y-243476D01*
G54D11*
X743644Y-221975D02*
X761644Y-221975D01*
X761644Y-255975D01*
X743644Y-255975D01*
X743644Y-221975D01*
G54D11*
X803242Y-216732D02*
X821242Y-216732D01*
X821242Y-250732D01*
X803242Y-250732D01*
X803242Y-216732D01*
G54D11*
X824262Y-161482D02*
X824262Y-179482D01*
X790262Y-179482D01*
X790262Y-161482D01*
X824262Y-161482D01*
G54D11*
X820294Y-184500D02*
X820294Y-202500D01*
X786294Y-202500D01*
X786294Y-184500D01*
X820294Y-184500D01*
G54D11*
X929962Y-205488D02*
X929962Y-187488D01*
X963962Y-187488D01*
X963962Y-205488D01*
X929962Y-205488D01*
G54D11*
X929962Y-187419D02*
X929962Y-169419D01*
X963962Y-169419D01*
X963962Y-187419D01*
X929962Y-187419D01*
G54D16*
X776569Y-18225D02*
X836569Y-18225D01*
X836569Y-78225D01*
X776569Y-78225D01*
X776569Y-18225D01*
G54D12*
G75*
G01X824569Y-48225D02*
G03X824569Y-48225I-18000J0D01*
G01*
G36*
G75*
G01X824569Y-48225D02*
G03X824569Y-48225I-18000J0D01*
G01*
G37*
X824569Y-48225D01*
G54D13*
G75*
G01X725246Y-173426D02*
G03X725246Y-173426I-45000J0D01*
G01*
G54D11*
X728769Y-131804D02*
X728769Y-144804D01*
X738769Y-144804D01*
G54D11*
X748769Y-131804D02*
X740769Y-131804D01*
G54D11*
X760776Y-131810D02*
X760776Y-144810D01*
X750776Y-144810D01*
G54D11*
X800458Y-141465D02*
X787730Y-154193D01*
X763689Y-130152D01*
X776417Y-117424D01*
X800458Y-141465D01*
G54D12*
X958870Y-92666D02*
X960070Y-93166D01*
X960910Y-93166D01*
X962110Y-92666D01*
X962470Y-91666D01*
X962470Y-86666D01*
G54D12*
X962470Y-87966D02*
X961870Y-86966D01*
X960670Y-86666D01*
X959470Y-86966D01*
X958870Y-87966D01*
X958870Y-89966D01*
X959470Y-90966D01*
X960670Y-91166D01*
X961870Y-90966D01*
X962470Y-89966D01*
G54D12*
X964670Y-91166D02*
X964670Y-86666D01*
G54D12*
X964670Y-87666D02*
X965870Y-86666D01*
X967070Y-86666D01*
G54D12*
X972870Y-90666D02*
X971910Y-91166D01*
X970710Y-91166D01*
X969510Y-90666D01*
X969270Y-89666D01*
X969270Y-87966D01*
X969870Y-86966D01*
X971070Y-86666D01*
X972270Y-86966D01*
X972870Y-87666D01*
X972870Y-88666D01*
X969270Y-88666D01*
G54D12*
X978670Y-90666D02*
X977710Y-91166D01*
X976510Y-91166D01*
X975310Y-90666D01*
X975070Y-89666D01*
X975070Y-87966D01*
X975670Y-86966D01*
X976870Y-86666D01*
X978070Y-86966D01*
X978670Y-87666D01*
X978670Y-88666D01*
X975070Y-88666D01*
G54D12*
X980870Y-91166D02*
X980870Y-86666D01*
G54D12*
X980870Y-87666D02*
X981470Y-86966D01*
X982670Y-86666D01*
X983870Y-86966D01*
X984470Y-87666D01*
X984470Y-91166D01*
G54D14*
X722155Y-100556D02*
X722155Y1044D01*
G54D17*
X704664Y-91142D02*
X705330Y-90742D01*
X705664Y-89942D01*
X705664Y-89142D01*
X705330Y-88342D01*
X704664Y-87942D01*
X703997Y-87942D01*
X703330Y-88342D01*
X702997Y-89142D01*
X702997Y-89942D01*
X702664Y-90742D01*
X701997Y-91142D01*
X701330Y-91142D01*
X700664Y-90742D01*
X700330Y-89942D01*
X700330Y-89142D01*
X700664Y-88342D01*
X701330Y-87942D01*
G54D17*
X717364Y-91142D02*
X718030Y-90742D01*
X718364Y-89942D01*
X718364Y-89142D01*
X718030Y-88342D01*
X717364Y-87942D01*
X716697Y-87942D01*
X716030Y-88342D01*
X715697Y-89142D01*
X715697Y-89942D01*
X715364Y-90742D01*
X714697Y-91142D01*
X714030Y-91142D01*
X713364Y-90742D01*
X713030Y-89942D01*
X713030Y-89142D01*
X713364Y-88342D01*
X714030Y-87942D01*
G54D17*
X730064Y-91142D02*
X730730Y-90742D01*
X731064Y-89942D01*
X731064Y-89142D01*
X730730Y-88342D01*
X730064Y-87942D01*
X729397Y-87942D01*
X728730Y-88342D01*
X728397Y-89142D01*
X728397Y-89942D01*
X728064Y-90742D01*
X727397Y-91142D01*
X726730Y-91142D01*
X726064Y-90742D01*
X725730Y-89942D01*
X725730Y-89142D01*
X726064Y-88342D01*
X726730Y-87942D01*
G54D17*
X741097Y-89542D02*
X741097Y-87942D01*
X742764Y-87942D01*
X743430Y-88342D01*
X743764Y-89142D01*
X743764Y-89942D01*
X743430Y-90742D01*
X742764Y-91142D01*
X739430Y-91142D01*
X738764Y-90742D01*
X738430Y-89942D01*
X738430Y-89142D01*
X738764Y-88342D01*
X739430Y-87942D01*
G54D17*
X692964Y-60662D02*
X687630Y-60662D01*
X687630Y-58662D01*
X687964Y-57862D01*
X688630Y-57462D01*
X691964Y-57462D01*
X692630Y-57862D01*
X692964Y-58662D01*
X692964Y-60662D01*
G54D17*
X756464Y-60662D02*
X751130Y-60662D01*
X751130Y-58662D01*
X751464Y-57862D01*
X752130Y-57462D01*
X755464Y-57462D01*
X756130Y-57862D01*
X756464Y-58662D01*
X756464Y-60662D01*
G54D17*
X743764Y-19387D02*
X738430Y-19387D01*
X738430Y-17387D01*
X738764Y-16587D01*
X739430Y-16187D01*
X742764Y-16187D01*
X743430Y-16587D01*
X743764Y-17387D01*
X743764Y-19387D01*
G54D17*
X705664Y-19387D02*
X700330Y-19387D01*
X700330Y-17387D01*
X700664Y-16587D01*
X701330Y-16187D01*
X704664Y-16187D01*
X705330Y-16587D01*
X705664Y-17387D01*
X705664Y-19387D01*
G54D11*
X734911Y-114646D02*
X734911Y-96646D01*
X768911Y-96646D01*
X768911Y-114646D01*
X734911Y-114646D01*
G54D12*
X889020Y-92754D02*
X889020Y-84754D01*
X892020Y-84754D01*
X893220Y-85254D01*
X893820Y-86254D01*
X893820Y-87254D01*
X893220Y-88254D01*
X892020Y-88754D01*
X893220Y-89254D01*
X893820Y-90254D01*
X893820Y-91254D01*
X893220Y-92254D01*
X892020Y-92754D01*
X889020Y-92754D01*
G54D12*
X889020Y-88754D02*
X892020Y-88754D01*
G54D12*
X899620Y-88254D02*
X899620Y-92754D01*
G54D12*
X899620Y-91754D02*
X899020Y-92554D01*
X897820Y-92754D01*
X896620Y-92554D01*
X896020Y-91754D01*
X896020Y-88254D01*
G54D12*
X903020Y-84754D02*
X903020Y-92254D01*
X903620Y-92754D01*
X904220Y-92554D01*
G54D12*
X901820Y-88254D02*
X904220Y-88254D01*
G54D12*
X907620Y-84754D02*
X907620Y-92254D01*
X908220Y-92754D01*
X908820Y-92554D01*
G54D12*
X906420Y-88254D02*
X908820Y-88254D01*
G54D12*
X914620Y-91554D02*
X914620Y-89554D01*
X914020Y-88554D01*
X912820Y-88254D01*
X911620Y-88554D01*
X911020Y-89554D01*
X911020Y-91554D01*
X911620Y-92554D01*
X912820Y-92754D01*
X914020Y-92554D01*
X914620Y-91554D01*
G54D12*
X916820Y-92754D02*
X916820Y-88254D01*
G54D12*
X916820Y-89254D02*
X917420Y-88554D01*
X918620Y-88254D01*
X919820Y-88554D01*
X920420Y-89254D01*
X920420Y-92754D01*
G54D12*
X927420Y-92754D02*
X922620Y-92754D01*
X922620Y-92254D01*
X923220Y-91254D01*
X926820Y-88254D01*
X927420Y-87254D01*
X927420Y-86254D01*
X926820Y-85254D01*
X925620Y-84754D01*
X924420Y-84754D01*
X923220Y-85254D01*
X922620Y-86254D01*
G54D12*
X841394Y-53066D02*
X841394Y-45066D01*
X844394Y-45066D01*
X845594Y-45566D01*
X846194Y-46566D01*
X846194Y-47566D01*
X845594Y-48566D01*
X844394Y-49066D01*
X845594Y-49566D01*
X846194Y-50566D01*
X846194Y-51566D01*
X845594Y-52566D01*
X844394Y-53066D01*
X841394Y-53066D01*
G54D12*
X841394Y-49066D02*
X844394Y-49066D01*
G54D12*
X851994Y-48566D02*
X851994Y-53066D01*
G54D12*
X851994Y-52066D02*
X851394Y-52866D01*
X850194Y-53066D01*
X848994Y-52866D01*
X848394Y-52066D01*
X848394Y-48566D01*
G54D12*
X855394Y-45066D02*
X855394Y-52566D01*
X855994Y-53066D01*
X856594Y-52866D01*
G54D12*
X854194Y-48566D02*
X856594Y-48566D01*
G54D12*
X859994Y-45066D02*
X859994Y-52566D01*
X860594Y-53066D01*
X861194Y-52866D01*
G54D12*
X858794Y-48566D02*
X861194Y-48566D01*
G54D12*
X866994Y-51866D02*
X866994Y-49866D01*
X866394Y-48866D01*
X865194Y-48566D01*
X863994Y-48866D01*
X863394Y-49866D01*
X863394Y-51866D01*
X863994Y-52866D01*
X865194Y-53066D01*
X866394Y-52866D01*
X866994Y-51866D01*
G54D12*
X869194Y-53066D02*
X869194Y-48566D01*
G54D12*
X869194Y-49566D02*
X869794Y-48866D01*
X870994Y-48566D01*
X872194Y-48866D01*
X872794Y-49566D01*
X872794Y-53066D01*
G54D12*
X874994Y-48066D02*
X877994Y-45066D01*
X877994Y-53066D01*
G54D11*
X875522Y-207800D02*
X875522Y-189800D01*
X841522Y-189800D01*
X841522Y-207800D01*
X875522Y-207800D01*
G54D12*
X876969Y-452988D02*
X880720Y-452988D01*
G54D12*
X814720Y-497988D02*
X818470Y-497988D01*
G54D12*
X876970Y-497988D02*
X880719Y-497988D01*
G54D12*
X880719Y-475488D02*
X880719Y-497988D01*
G54D12*
X880720Y-452988D02*
X880719Y-475488D01*
G54D12*
X814719Y-475488D02*
X814720Y-497988D01*
G54D12*
X814720Y-452988D02*
X814719Y-475488D01*
G54D12*
X880719Y-497988D02*
X814720Y-497988D01*
G54D12*
X814720Y-452988D02*
X880720Y-452988D01*
G54D12*
G75*
G01X885016Y-450125D02*
G03X885016Y-450125I-1190J0D01*
G01*
G36*
G75*
G01X885016Y-450125D02*
G03X885016Y-450125I-1190J0D01*
G01*
G37*
X885016Y-450125D01*
G54D11*
X857747Y-404438D02*
X839747Y-404438D01*
X839747Y-370438D01*
X857747Y-370438D01*
X857747Y-404438D01*
G54D11*
X855905Y-522742D02*
X855904Y-540742D01*
X821904Y-540742D01*
X821905Y-522741D01*
X855905Y-522742D01*
G54D11*
X804993Y-473412D02*
X786992Y-473412D01*
X786992Y-439412D01*
X804992Y-439412D01*
X804993Y-473412D01*
G54D11*
X884259Y-578905D02*
X866258Y-578905D01*
X866258Y-544905D01*
X884259Y-544905D01*
X884259Y-578905D01*
G54D11*
X866796Y-578905D02*
X848796Y-578905D01*
X848796Y-544905D01*
X866796Y-544905D01*
X866796Y-578905D01*
G54D12*
X907257Y-579760D02*
X906757Y-580959D01*
X906757Y-581800D01*
X907257Y-582999D01*
X908257Y-583360D01*
X913257Y-583360D01*
G54D12*
X911957Y-583360D02*
X912957Y-582760D01*
X913257Y-581559D01*
X912957Y-580359D01*
X911957Y-579759D01*
X909957Y-579759D01*
X908957Y-580359D01*
X908757Y-581559D01*
X908957Y-582759D01*
X909957Y-583359D01*
G54D12*
X908757Y-585560D02*
X913257Y-585559D01*
G54D12*
X912257Y-585560D02*
X913257Y-586759D01*
X913257Y-587959D01*
G54D12*
X909257Y-593759D02*
X908757Y-592799D01*
X908757Y-591599D01*
X909257Y-590399D01*
X910257Y-590159D01*
X911957Y-590160D01*
X912957Y-590759D01*
X913257Y-591959D01*
X912957Y-593159D01*
X912257Y-593759D01*
X911257Y-593759D01*
X911257Y-590159D01*
G54D12*
X909257Y-599559D02*
X908757Y-598600D01*
X908757Y-597399D01*
X909257Y-596199D01*
X910257Y-595959D01*
X911957Y-595959D01*
X912957Y-596559D01*
X913257Y-597760D01*
X912957Y-598960D01*
X912257Y-599559D01*
X911257Y-599559D01*
X911257Y-595959D01*
G54D12*
X908757Y-601759D02*
X913257Y-601759D01*
G54D12*
X912257Y-601759D02*
X912957Y-602359D01*
X913257Y-603559D01*
X912957Y-604760D01*
X912257Y-605359D01*
X908757Y-605359D01*
G54D12*
X905728Y-317080D02*
X910228Y-317080D01*
G54D12*
X909228Y-317080D02*
X910228Y-318280D01*
X910228Y-319480D01*
G54D12*
X906228Y-325280D02*
X905728Y-324320D01*
X905728Y-323120D01*
X906228Y-321920D01*
X907228Y-321680D01*
X908928Y-321680D01*
X909928Y-322280D01*
X910228Y-323480D01*
X909928Y-324680D01*
X909228Y-325280D01*
X908228Y-325280D01*
X908228Y-321680D01*
G54D12*
X905728Y-331080D02*
X913728Y-331080D01*
G54D12*
X908928Y-331080D02*
X909928Y-330480D01*
X910228Y-329280D01*
X909928Y-328080D01*
X908928Y-327480D01*
X906928Y-327480D01*
X905928Y-328080D01*
X905728Y-329280D01*
X905928Y-330480D01*
X906928Y-331080D01*
G54D16*
X975348Y-394284D02*
X975348Y-454284D01*
X915348Y-454284D01*
X915348Y-394284D01*
X975348Y-394284D01*
G54D12*
G75*
G01X963348Y-424284D02*
G03X963348Y-424284I-18000J0D01*
G01*
G36*
G75*
G01X963348Y-424284D02*
G03X963348Y-424284I-18000J0D01*
G01*
G37*
X963348Y-424284D01*
G54D11*
X841326Y-404438D02*
X823326Y-404438D01*
X823327Y-370438D01*
X841326Y-370438D01*
X841326Y-404438D01*
G54D18*
X830497Y-394395D02*
X830941Y-393594D01*
X831386Y-393328D01*
X832275Y-393328D01*
G54D18*
X832275Y-395461D02*
X828719Y-395461D01*
X828719Y-394128D01*
X828941Y-393594D01*
X829386Y-393328D01*
X829830Y-393328D01*
X830275Y-393594D01*
X830497Y-394128D01*
X830497Y-395461D01*
G54D18*
X832275Y-390484D02*
X828719Y-390484D01*
X830942Y-392084D01*
X831386Y-392084D01*
X831386Y-389951D01*
G54D18*
X830540Y-385402D02*
X829206Y-384068D01*
X832762Y-384068D01*
G54D18*
X829873Y-380691D02*
X832095Y-380691D01*
X832540Y-380958D01*
X832762Y-381491D01*
X832762Y-382025D01*
X832540Y-382558D01*
X832095Y-382825D01*
X829873Y-382825D01*
X829428Y-382558D01*
X829206Y-382025D01*
X829206Y-381491D01*
X829428Y-380958D01*
X829873Y-380691D01*
G54D18*
X832762Y-379448D02*
X829206Y-379448D01*
G54D18*
X831428Y-378648D02*
X832762Y-377848D01*
G54D18*
X831873Y-379448D02*
X830762Y-377848D01*
G54D11*
X807451Y-370438D02*
X825451Y-370438D01*
X825451Y-404438D01*
X807451Y-404438D01*
X807451Y-370438D01*
G54D18*
X816754Y-379697D02*
X817199Y-378897D01*
X817644Y-378631D01*
X818532Y-378631D01*
G54D18*
X818532Y-380764D02*
X814977Y-380764D01*
X814977Y-379430D01*
X815199Y-378897D01*
X815643Y-378631D01*
X816088Y-378631D01*
X816532Y-378897D01*
X816754Y-379431D01*
X816754Y-380764D01*
G54D18*
X815643Y-377387D02*
X815199Y-377120D01*
X814977Y-376587D01*
X814977Y-376054D01*
X815199Y-375520D01*
X815644Y-375254D01*
X816088Y-375254D01*
X816532Y-375520D01*
X816754Y-376054D01*
X816977Y-375520D01*
X817421Y-375254D01*
X817866Y-375254D01*
X818310Y-375520D01*
X818532Y-376054D01*
X818532Y-376587D01*
X818310Y-377120D01*
X817866Y-377387D01*
G54D18*
X815425Y-398452D02*
X814092Y-397119D01*
X817647Y-397119D01*
G54D18*
X814758Y-393742D02*
X816981Y-393742D01*
X817425Y-394008D01*
X817647Y-394542D01*
X817647Y-395075D01*
X817425Y-395608D01*
X816981Y-395875D01*
X814758Y-395875D01*
X814314Y-395608D01*
X814092Y-395075D01*
X814092Y-394542D01*
X814314Y-394008D01*
X814758Y-393742D01*
G54D18*
X817647Y-392498D02*
X814092Y-392498D01*
G54D18*
X816314Y-391698D02*
X817647Y-390898D01*
G54D18*
X816758Y-392498D02*
X815647Y-390898D01*
G54D11*
X855177Y-370570D02*
X873177Y-370570D01*
X873177Y-404570D01*
X855177Y-404570D01*
X855177Y-370570D01*
G54D18*
X865841Y-379004D02*
X866285Y-379271D01*
X866507Y-379804D01*
X866507Y-380338D01*
X866285Y-380871D01*
X865841Y-381138D01*
X863618Y-381138D01*
X863174Y-380871D01*
X862952Y-380338D01*
X862952Y-379804D01*
X863174Y-379271D01*
X863618Y-379004D01*
G54D18*
X866507Y-376161D02*
X862952Y-376161D01*
X865174Y-377761D01*
X865618Y-377761D01*
X865618Y-375627D01*
G54D18*
X865491Y-402153D02*
X864157Y-400820D01*
X867713Y-400820D01*
G54D18*
X864824Y-397443D02*
X867046Y-397443D01*
X867491Y-397710D01*
X867713Y-398243D01*
X867713Y-398776D01*
X867491Y-399310D01*
X867046Y-399576D01*
X864824Y-399576D01*
X864379Y-399310D01*
X864157Y-398776D01*
X864157Y-398243D01*
X864380Y-397710D01*
X864824Y-397443D01*
G54D18*
X864824Y-394066D02*
X867046Y-394066D01*
X867491Y-394332D01*
X867713Y-394866D01*
X867713Y-395399D01*
X867491Y-395932D01*
X867046Y-396199D01*
X864824Y-396199D01*
X864380Y-395932D01*
X864157Y-395399D01*
X864157Y-394866D01*
X864380Y-394332D01*
X864824Y-394066D01*
G54D18*
X867713Y-392822D02*
X865713Y-392822D01*
G54D18*
X866157Y-392822D02*
X865846Y-392556D01*
X865713Y-392022D01*
X865846Y-391489D01*
X866157Y-391222D01*
X867713Y-391222D01*
G54D18*
X867713Y-389978D02*
X864157Y-389978D01*
X864157Y-388112D01*
G54D18*
X865935Y-389978D02*
X865935Y-388112D01*
G54D11*
X842946Y-343950D02*
X842946Y-325950D01*
X808946Y-325951D01*
X808946Y-343950D01*
X842946Y-343950D01*
G54D18*
X838316Y-333811D02*
X838761Y-334078D01*
X838983Y-334611D01*
X838983Y-335145D01*
X838761Y-335678D01*
X838316Y-335945D01*
X836094Y-335945D01*
X835650Y-335678D01*
X835428Y-335145D01*
X835428Y-334611D01*
X835650Y-334078D01*
X836094Y-333811D01*
G54D18*
X836761Y-332568D02*
X835428Y-331234D01*
X838983Y-331234D01*
G54D18*
X817910Y-336939D02*
X816577Y-335606D01*
X820132Y-335606D01*
G54D18*
X820132Y-334362D02*
X818132Y-334362D01*
G54D18*
X818577Y-334362D02*
X818266Y-334096D01*
X818132Y-333562D01*
X818266Y-333029D01*
X818577Y-332762D01*
X820132Y-332762D01*
G54D18*
X820132Y-331518D02*
X816577Y-331518D01*
X816577Y-329652D01*
G54D18*
X818354Y-331518D02*
X818354Y-329652D01*
G54D11*
X842946Y-325853D02*
X842946Y-307853D01*
X808946Y-307853D01*
X808946Y-325853D01*
X842946Y-325853D01*
G54D18*
X835051Y-317267D02*
X835496Y-316467D01*
X835940Y-316200D01*
X836829Y-316200D01*
G54D18*
X836829Y-318334D02*
X833273Y-318334D01*
X833273Y-317000D01*
X833496Y-316467D01*
X833940Y-316200D01*
X834384Y-316200D01*
X834829Y-316467D01*
X835051Y-317000D01*
X835051Y-318333D01*
G54D18*
X836829Y-312823D02*
X836829Y-314956D01*
X836607Y-314956D01*
X836162Y-314690D01*
X834829Y-313090D01*
X834384Y-312823D01*
X833940Y-312823D01*
X833496Y-313090D01*
X833273Y-313623D01*
X833273Y-314156D01*
X833496Y-314690D01*
X833940Y-314956D01*
G54D18*
X818376Y-318600D02*
X814820Y-318600D01*
X817042Y-320200D01*
X817487Y-320200D01*
X817487Y-318067D01*
G54D18*
X814820Y-316823D02*
X814820Y-314690D01*
X815264Y-314956D01*
X815931Y-315490D01*
X816820Y-316023D01*
X817487Y-316290D01*
X818376Y-316290D01*
G54D18*
X818376Y-313446D02*
X814820Y-313446D01*
G54D18*
X817042Y-312646D02*
X818376Y-311846D01*
G54D18*
X817487Y-313446D02*
X816376Y-311846D01*
G54D11*
X807588Y-308353D02*
X789588Y-308353D01*
X789588Y-342353D01*
X807588Y-342353D01*
X807588Y-308353D01*
G54D18*
X797299Y-318084D02*
X797743Y-317284D01*
X798188Y-317017D01*
X799077Y-317017D01*
G54D18*
X799077Y-319150D02*
X795521Y-319150D01*
X795521Y-317817D01*
X795743Y-317284D01*
X796188Y-317017D01*
X796632Y-317017D01*
X797077Y-317284D01*
X797299Y-317817D01*
X797299Y-319150D01*
G54D18*
X796854Y-315774D02*
X795521Y-314440D01*
X799077Y-314440D01*
G54D18*
X795496Y-338589D02*
X794162Y-337256D01*
X797718Y-337256D01*
G54D18*
X794829Y-333879D02*
X797051Y-333879D01*
X797496Y-334146D01*
X797718Y-334679D01*
X797718Y-335212D01*
X797496Y-335746D01*
X797051Y-336012D01*
X794829Y-336012D01*
X794384Y-335746D01*
X794162Y-335212D01*
X794162Y-334679D01*
X794384Y-334146D01*
X794829Y-333879D01*
G54D18*
X797718Y-332635D02*
X794162Y-332635D01*
G54D18*
X796384Y-331835D02*
X797718Y-331035D01*
G54D18*
X796829Y-332635D02*
X795718Y-331035D01*
G54D11*
X731589Y-570650D02*
X731589Y-557650D01*
X721589Y-557650D01*
G54D11*
X711589Y-570650D02*
X719589Y-570650D01*
G54D11*
X699582Y-570645D02*
X699582Y-557644D01*
X709582Y-557645D01*
G54D11*
X731083Y-525826D02*
X731083Y-543826D01*
X697083Y-543826D01*
X697083Y-525826D01*
X731083Y-525826D01*
G54D11*
X736326Y-587013D02*
X736326Y-605013D01*
X702326Y-605013D01*
X702326Y-587013D01*
X736326Y-587013D01*
G54D13*
G75*
G01X753790Y-405874D02*
G03X753790Y-405874I-45000J0D01*
G01*
G54D11*
X772772Y-346582D02*
X759772Y-346582D01*
X759772Y-356582D01*
G54D11*
X772772Y-366582D02*
X772772Y-358582D01*
G54D11*
X772766Y-378588D02*
X759766Y-378588D01*
X759766Y-368588D01*
G54D11*
X791576Y-370438D02*
X809576Y-370438D01*
X809576Y-404438D01*
X791577Y-404438D01*
X791576Y-370438D01*
G54D11*
X765613Y-556216D02*
X785613Y-556216D01*
X785613Y-594216D01*
X765612Y-594216D01*
X765613Y-556216D01*
G54D19*
X839519Y-528245D02*
X840519Y-529245D01*
X837852Y-529244D01*
G54D19*
X840019Y-531578D02*
X838352Y-531578D01*
X838019Y-531378D01*
X837852Y-530978D01*
X837852Y-530578D01*
X838019Y-530178D01*
X838352Y-529978D01*
X840019Y-529978D01*
X840352Y-530178D01*
X840519Y-530578D01*
X840519Y-530978D01*
X840352Y-531378D01*
X840019Y-531578D01*
G54D19*
X840019Y-533911D02*
X838352Y-533911D01*
X838019Y-533711D01*
X837852Y-533311D01*
X837852Y-532911D01*
X838019Y-532511D01*
X838352Y-532311D01*
X840019Y-532311D01*
X840352Y-532511D01*
X840519Y-532911D01*
X840519Y-533311D01*
X840352Y-533710D01*
X840019Y-533911D01*
G54D19*
X837852Y-534644D02*
X839352Y-534644D01*
G54D19*
X839019Y-534644D02*
X839252Y-534844D01*
X839352Y-535244D01*
X839252Y-535644D01*
X839019Y-535844D01*
X837852Y-535844D01*
G54D19*
X837852Y-536577D02*
X840519Y-536577D01*
X840519Y-537977D01*
G54D19*
X839186Y-536577D02*
X839186Y-537977D01*
G54D20*
X857347Y-558285D02*
X859125Y-558285D01*
X858014Y-557485D01*
X857791Y-557485D01*
X857791Y-558552D01*
G54D20*
X859125Y-559041D02*
X859125Y-560108D01*
X858902Y-559975D01*
X858569Y-559708D01*
X858125Y-559441D01*
X857791Y-559308D01*
X857347Y-559308D01*
G54D20*
X857347Y-560597D02*
X859124Y-560597D01*
G54D20*
X858014Y-560997D02*
X857347Y-561397D01*
G54D20*
X857791Y-560597D02*
X858347Y-561397D01*
G54D20*
X873063Y-557015D02*
X874841Y-557015D01*
X873730Y-556215D01*
X873508Y-556215D01*
X873508Y-557282D01*
G54D20*
X874841Y-557771D02*
X874841Y-558838D01*
X874619Y-558705D01*
X874285Y-558438D01*
X873841Y-558171D01*
X873508Y-558038D01*
X873063Y-558038D01*
G54D20*
X873063Y-559327D02*
X874841Y-559327D01*
G54D20*
X873730Y-559727D02*
X873063Y-560127D01*
G54D20*
X873508Y-559327D02*
X874063Y-560127D01*
G54D11*
X881432Y-438238D02*
X899432Y-438238D01*
X899432Y-472238D01*
X881432Y-472238D01*
X881432Y-438238D01*
G54D11*
X779122Y-384682D02*
X766122Y-384682D01*
X766122Y-394682D01*
G54D11*
X779122Y-404682D02*
X779122Y-396682D01*
G54D11*
X779116Y-416688D02*
X766116Y-416688D01*
X766116Y-406688D01*
G54D11*
X775117Y-429213D02*
X775117Y-411213D01*
X809117Y-411213D01*
X809116Y-429213D01*
X775117Y-429213D01*
G54D11*
X964739Y-530674D02*
X964739Y-510674D01*
X913639Y-510674D01*
X913639Y-530674D01*
X964739Y-530674D01*
G54D11*
X964739Y-525674D02*
X964739Y-515674D01*
X959739Y-515674D01*
X959739Y-525674D01*
X964739Y-525674D01*
G54D11*
X891025Y-540023D02*
X911025Y-540023D01*
X911025Y-578023D01*
X891025Y-578023D01*
X891025Y-540023D01*
G54D11*
X849436Y-550183D02*
X849436Y-568183D01*
X815436Y-568182D01*
X815436Y-550183D01*
X849436Y-550183D01*
G54D11*
X881432Y-496382D02*
X899432Y-496382D01*
X899432Y-462382D01*
X881432Y-462382D01*
X881432Y-496382D01*
G54D20*
X894970Y-476681D02*
X895637Y-477348D01*
X893859Y-477348D01*
G54D20*
X895304Y-478904D02*
X894193Y-478904D01*
X893970Y-478770D01*
X893859Y-478504D01*
X893859Y-478237D01*
X893970Y-477970D01*
X894193Y-477837D01*
X895304Y-477837D01*
X895526Y-477970D01*
X895637Y-478237D01*
X895637Y-478504D01*
X895526Y-478770D01*
X895304Y-478904D01*
G54D20*
X895304Y-480460D02*
X894193Y-480460D01*
X893970Y-480326D01*
X893860Y-480060D01*
X893859Y-479793D01*
X893971Y-479526D01*
X894193Y-479393D01*
X895304Y-479393D01*
X895526Y-479526D01*
X895637Y-479793D01*
X895637Y-480060D01*
X895526Y-480326D01*
X895304Y-480460D01*
G54D20*
X893859Y-480949D02*
X894859Y-480949D01*
G54D20*
X894637Y-480949D02*
X894793Y-481082D01*
X894859Y-481349D01*
X894793Y-481616D01*
X894637Y-481749D01*
X893859Y-481749D01*
G54D20*
X893859Y-482238D02*
X895637Y-482238D01*
X895637Y-483171D01*
G54D20*
X894748Y-482238D02*
X894748Y-483172D01*
G54D20*
X891875Y-453668D02*
X893653Y-453668D01*
X892542Y-452868D01*
X892320Y-452868D01*
X892320Y-453935D01*
G54D20*
X893653Y-454424D02*
X893653Y-455491D01*
X893430Y-455358D01*
X893097Y-455091D01*
X892653Y-454824D01*
X892320Y-454691D01*
X891875Y-454691D01*
G54D20*
X891875Y-455980D02*
X893653Y-455980D01*
G54D20*
X892542Y-456380D02*
X891875Y-456780D01*
G54D20*
X892319Y-455980D02*
X892875Y-456780D01*
G54D11*
X874624Y-350726D02*
X892624Y-350726D01*
X892624Y-384726D01*
X874624Y-384726D01*
X874624Y-350726D01*
G54D18*
X885289Y-359161D02*
X885733Y-359427D01*
X885955Y-359961D01*
X885955Y-360494D01*
X885733Y-361027D01*
X885289Y-361294D01*
X883066Y-361294D01*
X882622Y-361027D01*
X882400Y-360494D01*
X882400Y-359961D01*
X882622Y-359427D01*
X883066Y-359161D01*
G54D18*
X885956Y-356317D02*
X882400Y-356317D01*
X884622Y-357917D01*
X885066Y-357917D01*
X885067Y-355784D01*
G54D18*
X884938Y-382309D02*
X883604Y-380976D01*
X887160Y-380976D01*
G54D18*
X884271Y-377599D02*
X886493Y-377599D01*
X886938Y-377865D01*
X887160Y-378399D01*
X887160Y-378932D01*
X886938Y-379465D01*
X886493Y-379732D01*
X884271Y-379732D01*
X883827Y-379465D01*
X883604Y-378932D01*
X883604Y-378399D01*
X883827Y-377865D01*
X884271Y-377599D01*
G54D18*
X884271Y-374222D02*
X886493Y-374222D01*
X886938Y-374488D01*
X887160Y-375022D01*
X887160Y-375555D01*
X886938Y-376088D01*
X886493Y-376355D01*
X884271Y-376355D01*
X883827Y-376088D01*
X883604Y-375555D01*
X883604Y-375022D01*
X883827Y-374488D01*
X884271Y-374222D01*
G54D18*
X887160Y-372978D02*
X885160Y-372978D01*
G54D18*
X885604Y-372978D02*
X885293Y-372711D01*
X885160Y-372178D01*
X885293Y-371645D01*
X885604Y-371378D01*
X887160Y-371378D01*
G54D18*
X887160Y-370134D02*
X883604Y-370134D01*
X883604Y-368267D01*
G54D18*
X885382Y-370134D02*
X885382Y-368267D01*
G54D20*
X876000Y-395725D02*
X877778Y-395725D01*
X876667Y-394925D01*
X876444Y-394925D01*
X876444Y-395991D01*
G54D20*
X877778Y-396481D02*
X877778Y-397547D01*
X877556Y-397414D01*
X877222Y-397147D01*
X876778Y-396881D01*
X876444Y-396747D01*
X876000Y-396747D01*
G54D20*
X876000Y-398037D02*
X877778Y-398037D01*
G54D20*
X876667Y-398437D02*
X876000Y-398837D01*
G54D20*
X876444Y-398037D02*
X877000Y-398837D01*
M02*
