%FSLAX34Y34*%
%MOMM*%
%LNSOLDERMASK_TOP*%
G71*
G01*
%ADD10C, 0.002*%
%ADD11C, 0.518*%
%ADD12R, 1.600X1.500*%
%ADD13R, 1.100X1.100*%
%ADD14R, 0.500X0.500*%
%ADD15C, 0.200*%
%ADD16C, 0.500*%
%ADD17R, 1.300X1.400*%
%ADD18R, 2.600X1.000*%
%ADD19R, 1.400X1.300*%
%ADD20R, 1.500X1.800*%
%ADD21R, 1.600X1.600*%
%ADD22R, 1.200X1.400*%
%ADD23R, 1.400X1.400*%
%ADD24R, 1.000X1.300*%
%ADD25R, 1.300X1.000*%
%ADD26R, 1.200X1.200*%
%ADD27R, 1.500X1.600*%
%ADD28R, 2.200X1.000*%
%ADD29R, 1.300X1.300*%
%ADD30R, 1.800X1.600*%
%ADD31C, 0.950*%
%ADD32R, 1.000X2.600*%
%ADD33C, 0.454*%
%ADD34C, 0.600*%
%ADD35R, 1.600X2.500*%
%ADD36R, 1.000X0.600*%
%ADD37C, 0.480*%
%ADD38C, 0.597*%
%ADD39C, 0.400*%
%ADD40C, 1.400*%
%ADD41C, 1.900*%
%ADD42C, 1.800*%
%ADD43C, 2.400*%
%ADD44C, 2.600*%
%ADD45C, 1.200*%
%ADD46R, 1.550X0.600*%
%ADD47R, 1.200X1.800*%
%ADD48R, 2.200X2.200*%
%ADD49R, 1.800X1.800*%
%ADD50C, 3.100*%
%ADD51R, 2.200X6.800*%
%ADD52C, 1.700*%
%ADD53R, 2.200X5.200*%
%ADD54C, 2.700*%
%ADD55R, 0.950X1.200*%
%ADD56R, 0.600X1.550*%
%ADD57R, 1.800X1.200*%
%ADD58R, 1.700X1.800*%
%ADD59R, 2.700X1.900*%
%ADD60R, 2.740X2.740*%
%ADD61C, 2.100*%
%ADD62R, 1.400X1.900*%
%ADD63C, 5.100*%
%LPD*%
G54D10*
X250Y50D02*
X1000250Y50D01*
X1000250Y-999950D01*
X250Y-999950D01*
X250Y50D01*
G54D11*
X503422Y-105790D02*
X503422Y-88012D01*
X510089Y-88012D01*
X512756Y-89123D01*
X514089Y-91345D01*
X514089Y-93567D01*
X512756Y-95790D01*
X510089Y-96901D01*
X503422Y-96901D01*
G54D11*
X530978Y-102456D02*
X529645Y-104678D01*
X526978Y-105790D01*
X524311Y-105790D01*
X521645Y-104678D01*
X520311Y-102456D01*
X520311Y-91345D01*
X521645Y-89123D01*
X524311Y-88012D01*
X526978Y-88012D01*
X529645Y-89123D01*
X530978Y-91345D01*
G54D11*
X537200Y-105790D02*
X537200Y-88012D01*
X543867Y-88012D01*
X546534Y-89123D01*
X547867Y-91345D01*
X547867Y-93567D01*
X546534Y-95790D01*
X543867Y-96901D01*
X546534Y-98012D01*
X547867Y-100234D01*
X547867Y-102456D01*
X546534Y-104678D01*
X543867Y-105790D01*
X537200Y-105790D01*
G54D11*
X537200Y-96901D02*
X543867Y-96901D01*
G54D11*
X478453Y-119774D02*
X483786Y-129774D01*
X489119Y-119774D01*
G54D11*
X495342Y-118663D02*
X502008Y-111997D01*
X502008Y-129774D01*
G54D11*
X508231Y-129774D02*
X508231Y-129774D01*
G54D11*
X514453Y-126441D02*
X515786Y-128663D01*
X518453Y-129774D01*
X521119Y-129774D01*
X523786Y-128663D01*
X525119Y-126441D01*
X525119Y-120886D01*
X525119Y-119774D01*
X521119Y-121997D01*
X518453Y-121997D01*
X515786Y-120886D01*
X514453Y-118663D01*
X514453Y-115330D01*
X515786Y-113108D01*
X518453Y-111997D01*
X521119Y-111997D01*
X523786Y-113108D01*
X525119Y-115330D01*
X525119Y-120886D01*
G54D11*
X531342Y-129774D02*
X531342Y-129774D01*
G54D11*
X548230Y-111997D02*
X537564Y-111997D01*
X537564Y-119774D01*
X538897Y-119774D01*
X541564Y-118663D01*
X544230Y-118663D01*
X546897Y-119774D01*
X548230Y-121997D01*
X548230Y-126441D01*
X546897Y-128663D01*
X544230Y-129774D01*
X541564Y-129774D01*
X538897Y-128663D01*
X537564Y-126441D01*
X192665Y-242946D02*
G54D12*
D03*
X192665Y-221946D02*
G54D12*
D03*
X152560Y-223542D02*
G54D13*
D03*
X152560Y-242592D02*
G54D13*
D03*
X178674Y-242592D02*
G54D13*
D03*
X178722Y-223484D02*
G54D13*
D03*
G36*
X372839Y-127502D02*
X377839Y-127501D01*
X377840Y-132501D01*
X372840Y-132502D01*
X372839Y-127502D01*
G37*
G36*
X367839Y-127501D02*
X372839Y-127501D01*
X372840Y-132501D01*
X367840Y-132501D01*
X367839Y-127501D01*
G37*
X365339Y-130001D02*
G54D14*
D03*
X360339Y-130001D02*
G54D14*
D03*
X355340Y-130001D02*
G54D14*
D03*
X350339Y-130001D02*
G54D14*
D03*
G36*
X342839Y-127501D02*
X347839Y-127501D01*
X347840Y-132501D01*
X342840Y-132501D01*
X342839Y-127501D01*
G37*
X340339Y-130001D02*
G54D14*
D03*
X335340Y-130001D02*
G54D14*
D03*
X330340Y-130001D02*
G54D14*
D03*
X325339Y-130001D02*
G54D14*
D03*
G36*
X317839Y-127502D02*
X322839Y-127501D01*
X322840Y-132501D01*
X317840Y-132502D01*
X317839Y-127502D01*
G37*
X315339Y-130001D02*
G54D14*
D03*
X310339Y-130001D02*
G54D14*
D03*
X305339Y-130001D02*
G54D14*
D03*
X300340Y-130001D02*
G54D14*
D03*
X295339Y-130001D02*
G54D14*
D03*
G36*
X287839Y-127501D02*
X292839Y-127501D01*
X292840Y-132501D01*
X287840Y-132501D01*
X287839Y-127501D01*
G37*
G36*
X282839Y-127501D02*
X287839Y-127501D01*
X287840Y-132501D01*
X282840Y-132501D01*
X282839Y-127501D01*
G37*
X280339Y-130001D02*
G54D14*
D03*
X275340Y-130001D02*
G54D14*
D03*
X270340Y-130001D02*
G54D14*
D03*
G36*
X262839Y-127502D02*
X267839Y-127501D01*
X267840Y-132501D01*
X262840Y-132502D01*
X262839Y-127502D01*
G37*
X260340Y-130001D02*
G54D14*
D03*
G36*
X252839Y-127502D02*
X257839Y-127501D01*
X257840Y-132501D01*
X252840Y-132502D01*
X252839Y-127502D01*
G37*
G36*
X375834Y-126970D02*
X376834Y-127970D01*
X376834Y-132470D01*
X376334Y-132970D01*
X374334Y-132970D01*
X373834Y-132470D01*
X373834Y-127970D01*
X374834Y-126970D01*
X375834Y-126970D01*
G37*
G54D15*
X375834Y-126970D02*
X376834Y-127970D01*
X376834Y-132470D01*
X376334Y-132970D01*
X374334Y-132970D01*
X373834Y-132470D01*
X373834Y-127970D01*
X374834Y-126970D01*
X375834Y-126970D01*
G36*
X255834Y-126970D02*
X256834Y-127970D01*
X256834Y-132470D01*
X256334Y-132970D01*
X254334Y-132970D01*
X253834Y-132470D01*
X253834Y-127970D01*
X254834Y-126970D01*
X255834Y-126970D01*
G37*
G54D15*
X255834Y-126970D02*
X256834Y-127970D01*
X256834Y-132470D01*
X256334Y-132970D01*
X254334Y-132970D01*
X253834Y-132470D01*
X253834Y-127970D01*
X254834Y-126970D01*
X255834Y-126970D01*
G36*
X365834Y-122970D02*
X366834Y-123970D01*
X366834Y-135470D01*
X366334Y-135970D01*
X364334Y-135970D01*
X363834Y-135470D01*
X363834Y-123970D01*
X364834Y-122970D01*
X365834Y-122970D01*
G37*
G54D15*
X365834Y-122970D02*
X366834Y-123970D01*
X366834Y-135470D01*
X366334Y-135970D01*
X364334Y-135970D01*
X363834Y-135470D01*
X363834Y-123970D01*
X364834Y-122970D01*
X365834Y-122970D01*
G36*
X360834Y-122970D02*
X361834Y-123970D01*
X361834Y-135470D01*
X361334Y-135970D01*
X359334Y-135970D01*
X358834Y-135470D01*
X358834Y-123970D01*
X359834Y-122970D01*
X360834Y-122970D01*
G37*
G54D15*
X360834Y-122970D02*
X361834Y-123970D01*
X361834Y-135470D01*
X361334Y-135970D01*
X359334Y-135970D01*
X358834Y-135470D01*
X358834Y-123970D01*
X359834Y-122970D01*
X360834Y-122970D01*
G36*
X355834Y-122970D02*
X356834Y-123970D01*
X356834Y-135470D01*
X356334Y-135970D01*
X354334Y-135970D01*
X353834Y-135470D01*
X353834Y-123970D01*
X354834Y-122970D01*
X355834Y-122970D01*
G37*
G54D15*
X355834Y-122970D02*
X356834Y-123970D01*
X356834Y-135470D01*
X356334Y-135970D01*
X354334Y-135970D01*
X353834Y-135470D01*
X353834Y-123970D01*
X354834Y-122970D01*
X355834Y-122970D01*
G36*
X350834Y-122970D02*
X351834Y-123970D01*
X351834Y-135470D01*
X351334Y-135970D01*
X349334Y-135970D01*
X348834Y-135470D01*
X348834Y-123970D01*
X349834Y-122970D01*
X350834Y-122970D01*
G37*
G54D15*
X350834Y-122970D02*
X351834Y-123970D01*
X351834Y-135470D01*
X351334Y-135970D01*
X349334Y-135970D01*
X348834Y-135470D01*
X348834Y-123970D01*
X349834Y-122970D01*
X350834Y-122970D01*
G36*
X345834Y-122970D02*
X346834Y-123970D01*
X346834Y-135470D01*
X346334Y-135970D01*
X344334Y-135970D01*
X343834Y-135470D01*
X343834Y-123970D01*
X344834Y-122970D01*
X345834Y-122970D01*
G37*
G54D15*
X345834Y-122970D02*
X346834Y-123970D01*
X346834Y-135470D01*
X346334Y-135970D01*
X344334Y-135970D01*
X343834Y-135470D01*
X343834Y-123970D01*
X344834Y-122970D01*
X345834Y-122970D01*
G36*
X340834Y-122970D02*
X341834Y-123970D01*
X341834Y-135470D01*
X341334Y-135970D01*
X339334Y-135970D01*
X338834Y-135470D01*
X338834Y-123970D01*
X339834Y-122970D01*
X340834Y-122970D01*
G37*
G54D15*
X340834Y-122970D02*
X341834Y-123970D01*
X341834Y-135470D01*
X341334Y-135970D01*
X339334Y-135970D01*
X338834Y-135470D01*
X338834Y-123970D01*
X339834Y-122970D01*
X340834Y-122970D01*
G36*
X335834Y-122970D02*
X336834Y-123970D01*
X336834Y-135470D01*
X336334Y-135970D01*
X334334Y-135970D01*
X333834Y-135470D01*
X333834Y-123970D01*
X334834Y-122970D01*
X335834Y-122970D01*
G37*
G54D15*
X335834Y-122970D02*
X336834Y-123970D01*
X336834Y-135470D01*
X336334Y-135970D01*
X334334Y-135970D01*
X333834Y-135470D01*
X333834Y-123970D01*
X334834Y-122970D01*
X335834Y-122970D01*
G36*
X330834Y-122970D02*
X331834Y-123970D01*
X331834Y-135470D01*
X331334Y-135970D01*
X329334Y-135970D01*
X328834Y-135470D01*
X328834Y-123970D01*
X329834Y-122970D01*
X330834Y-122970D01*
G37*
G54D15*
X330834Y-122970D02*
X331834Y-123970D01*
X331834Y-135470D01*
X331334Y-135970D01*
X329334Y-135970D01*
X328834Y-135470D01*
X328834Y-123970D01*
X329834Y-122970D01*
X330834Y-122970D01*
G36*
X325834Y-122970D02*
X326834Y-123970D01*
X326834Y-135470D01*
X326334Y-135970D01*
X324334Y-135970D01*
X323834Y-135470D01*
X323834Y-123970D01*
X324834Y-122970D01*
X325834Y-122970D01*
G37*
G54D15*
X325834Y-122970D02*
X326834Y-123970D01*
X326834Y-135470D01*
X326334Y-135970D01*
X324334Y-135970D01*
X323834Y-135470D01*
X323834Y-123970D01*
X324834Y-122970D01*
X325834Y-122970D01*
G36*
X320834Y-122970D02*
X321834Y-123970D01*
X321834Y-135470D01*
X321334Y-135970D01*
X319334Y-135970D01*
X318834Y-135470D01*
X318834Y-123970D01*
X319834Y-122970D01*
X320834Y-122970D01*
G37*
G54D15*
X320834Y-122970D02*
X321834Y-123970D01*
X321834Y-135470D01*
X321334Y-135970D01*
X319334Y-135970D01*
X318834Y-135470D01*
X318834Y-123970D01*
X319834Y-122970D01*
X320834Y-122970D01*
G36*
X315834Y-122970D02*
X316834Y-123970D01*
X316834Y-135470D01*
X316334Y-135970D01*
X314334Y-135970D01*
X313834Y-135470D01*
X313834Y-123970D01*
X314834Y-122970D01*
X315834Y-122970D01*
G37*
G54D15*
X315834Y-122970D02*
X316834Y-123970D01*
X316834Y-135470D01*
X316334Y-135970D01*
X314334Y-135970D01*
X313834Y-135470D01*
X313834Y-123970D01*
X314834Y-122970D01*
X315834Y-122970D01*
G36*
X310834Y-122970D02*
X311834Y-123970D01*
X311834Y-135470D01*
X311334Y-135970D01*
X309334Y-135970D01*
X308834Y-135470D01*
X308834Y-123970D01*
X309834Y-122970D01*
X310834Y-122970D01*
G37*
G54D15*
X310834Y-122970D02*
X311834Y-123970D01*
X311834Y-135470D01*
X311334Y-135970D01*
X309334Y-135970D01*
X308834Y-135470D01*
X308834Y-123970D01*
X309834Y-122970D01*
X310834Y-122970D01*
G36*
X305834Y-122970D02*
X306834Y-123970D01*
X306834Y-135470D01*
X306334Y-135970D01*
X304334Y-135970D01*
X303834Y-135470D01*
X303834Y-123970D01*
X304834Y-122970D01*
X305834Y-122970D01*
G37*
G54D15*
X305834Y-122970D02*
X306834Y-123970D01*
X306834Y-135470D01*
X306334Y-135970D01*
X304334Y-135970D01*
X303834Y-135470D01*
X303834Y-123970D01*
X304834Y-122970D01*
X305834Y-122970D01*
G36*
X300834Y-122970D02*
X301834Y-123970D01*
X301834Y-135470D01*
X301334Y-135970D01*
X299334Y-135970D01*
X298834Y-135470D01*
X298834Y-123970D01*
X299834Y-122970D01*
X300834Y-122970D01*
G37*
G54D15*
X300834Y-122970D02*
X301834Y-123970D01*
X301834Y-135470D01*
X301334Y-135970D01*
X299334Y-135970D01*
X298834Y-135470D01*
X298834Y-123970D01*
X299834Y-122970D01*
X300834Y-122970D01*
G36*
X295834Y-122970D02*
X296834Y-123970D01*
X296834Y-135470D01*
X296334Y-135970D01*
X294334Y-135970D01*
X293834Y-135470D01*
X293834Y-123970D01*
X294834Y-122970D01*
X295834Y-122970D01*
G37*
G54D15*
X295834Y-122970D02*
X296834Y-123970D01*
X296834Y-135470D01*
X296334Y-135970D01*
X294334Y-135970D01*
X293834Y-135470D01*
X293834Y-123970D01*
X294834Y-122970D01*
X295834Y-122970D01*
G36*
X290834Y-122970D02*
X291834Y-123970D01*
X291834Y-135470D01*
X291334Y-135970D01*
X289334Y-135970D01*
X288834Y-135470D01*
X288834Y-123970D01*
X289834Y-122970D01*
X290834Y-122970D01*
G37*
G54D15*
X290834Y-122970D02*
X291834Y-123970D01*
X291834Y-135470D01*
X291334Y-135970D01*
X289334Y-135970D01*
X288834Y-135470D01*
X288834Y-123970D01*
X289834Y-122970D01*
X290834Y-122970D01*
G36*
X285834Y-122970D02*
X286834Y-123970D01*
X286834Y-135470D01*
X286334Y-135970D01*
X284334Y-135970D01*
X283834Y-135470D01*
X283834Y-123970D01*
X284834Y-122970D01*
X285834Y-122970D01*
G37*
G54D15*
X285834Y-122970D02*
X286834Y-123970D01*
X286834Y-135470D01*
X286334Y-135970D01*
X284334Y-135970D01*
X283834Y-135470D01*
X283834Y-123970D01*
X284834Y-122970D01*
X285834Y-122970D01*
G36*
X280834Y-122970D02*
X281834Y-123970D01*
X281834Y-135470D01*
X281334Y-135970D01*
X279334Y-135970D01*
X278834Y-135470D01*
X278834Y-123970D01*
X279834Y-122970D01*
X280834Y-122970D01*
G37*
G54D15*
X280834Y-122970D02*
X281834Y-123970D01*
X281834Y-135470D01*
X281334Y-135970D01*
X279334Y-135970D01*
X278834Y-135470D01*
X278834Y-123970D01*
X279834Y-122970D01*
X280834Y-122970D01*
G36*
X275834Y-122970D02*
X276834Y-123970D01*
X276834Y-135470D01*
X276334Y-135970D01*
X274334Y-135970D01*
X273834Y-135470D01*
X273834Y-123970D01*
X274834Y-122970D01*
X275834Y-122970D01*
G37*
G54D15*
X275834Y-122970D02*
X276834Y-123970D01*
X276834Y-135470D01*
X276334Y-135970D01*
X274334Y-135970D01*
X273834Y-135470D01*
X273834Y-123970D01*
X274834Y-122970D01*
X275834Y-122970D01*
G36*
X270834Y-122970D02*
X271834Y-123970D01*
X271834Y-135470D01*
X271334Y-135970D01*
X269334Y-135970D01*
X268834Y-135470D01*
X268834Y-123970D01*
X269834Y-122970D01*
X270834Y-122970D01*
G37*
G54D15*
X270834Y-122970D02*
X271834Y-123970D01*
X271834Y-135470D01*
X271334Y-135970D01*
X269334Y-135970D01*
X268834Y-135470D01*
X268834Y-123970D01*
X269834Y-122970D01*
X270834Y-122970D01*
G36*
X265834Y-122970D02*
X266834Y-123970D01*
X266834Y-135470D01*
X266334Y-135970D01*
X264334Y-135970D01*
X263834Y-135470D01*
X263834Y-123970D01*
X264834Y-122970D01*
X265834Y-122970D01*
G37*
G54D15*
X265834Y-122970D02*
X266834Y-123970D01*
X266834Y-135470D01*
X266334Y-135970D01*
X264334Y-135970D01*
X263834Y-135470D01*
X263834Y-123970D01*
X264834Y-122970D01*
X265834Y-122970D01*
G36*
X260834Y-122970D02*
X261834Y-123970D01*
X261834Y-135470D01*
X261334Y-135970D01*
X259334Y-135970D01*
X258834Y-135470D01*
X258834Y-123970D01*
X259834Y-122970D01*
X260834Y-122970D01*
G37*
G54D15*
X260834Y-122970D02*
X261834Y-123970D01*
X261834Y-135470D01*
X261334Y-135970D01*
X259334Y-135970D01*
X258834Y-135470D01*
X258834Y-123970D01*
X259834Y-122970D01*
X260834Y-122970D01*
G36*
X370834Y-122970D02*
X371834Y-123970D01*
X371834Y-135470D01*
X371334Y-135970D01*
X369334Y-135970D01*
X368834Y-135470D01*
X368834Y-123970D01*
X369834Y-122970D01*
X370834Y-122970D01*
G37*
G54D15*
X370834Y-122970D02*
X371834Y-123970D01*
X371834Y-135470D01*
X371334Y-135970D01*
X369334Y-135970D01*
X368834Y-135470D01*
X368834Y-123970D01*
X369834Y-122970D01*
X370834Y-122970D01*
X393303Y-267965D02*
G54D14*
D03*
X393303Y-262965D02*
G54D14*
D03*
X393303Y-257965D02*
G54D14*
D03*
X393303Y-252965D02*
G54D14*
D03*
X393303Y-247965D02*
G54D14*
D03*
X393303Y-242965D02*
G54D14*
D03*
X393303Y-237965D02*
G54D14*
D03*
X393303Y-232965D02*
G54D14*
D03*
X393303Y-227965D02*
G54D14*
D03*
X393303Y-222965D02*
G54D14*
D03*
X393303Y-217965D02*
G54D14*
D03*
X393303Y-212965D02*
G54D14*
D03*
X393303Y-207965D02*
G54D14*
D03*
X393303Y-202965D02*
G54D14*
D03*
X393303Y-197965D02*
G54D14*
D03*
X393303Y-192965D02*
G54D14*
D03*
X393303Y-187965D02*
G54D14*
D03*
X393303Y-182965D02*
G54D14*
D03*
X393303Y-177965D02*
G54D14*
D03*
X393303Y-172965D02*
G54D14*
D03*
X393303Y-167965D02*
G54D14*
D03*
X393303Y-162965D02*
G54D14*
D03*
X393303Y-157965D02*
G54D14*
D03*
X393303Y-152965D02*
G54D14*
D03*
X393303Y-147965D02*
G54D14*
D03*
G36*
X396334Y-268470D02*
X395334Y-269470D01*
X390834Y-269470D01*
X390334Y-268970D01*
X390334Y-266970D01*
X390834Y-266470D01*
X395334Y-266470D01*
X396334Y-267470D01*
X396334Y-268470D01*
G37*
G54D15*
X396334Y-268470D02*
X395334Y-269470D01*
X390834Y-269470D01*
X390334Y-268970D01*
X390334Y-266970D01*
X390834Y-266470D01*
X395334Y-266470D01*
X396334Y-267470D01*
X396334Y-268470D01*
G36*
X396334Y-148470D02*
X395334Y-149470D01*
X390834Y-149470D01*
X390334Y-148970D01*
X390334Y-146970D01*
X390834Y-146470D01*
X395334Y-146470D01*
X396334Y-147470D01*
X396334Y-148470D01*
G37*
G54D15*
X396334Y-148470D02*
X395334Y-149470D01*
X390834Y-149470D01*
X390334Y-148970D01*
X390334Y-146970D01*
X390834Y-146470D01*
X395334Y-146470D01*
X396334Y-147470D01*
X396334Y-148470D01*
G36*
X400334Y-258470D02*
X399334Y-259470D01*
X387834Y-259470D01*
X387334Y-258970D01*
X387334Y-256970D01*
X387834Y-256470D01*
X399334Y-256470D01*
X400334Y-257470D01*
X400334Y-258470D01*
G37*
G54D15*
X400334Y-258470D02*
X399334Y-259470D01*
X387834Y-259470D01*
X387334Y-258970D01*
X387334Y-256970D01*
X387834Y-256470D01*
X399334Y-256470D01*
X400334Y-257470D01*
X400334Y-258470D01*
G36*
X400334Y-253470D02*
X399334Y-254470D01*
X387834Y-254470D01*
X387334Y-253970D01*
X387334Y-251970D01*
X387834Y-251470D01*
X399334Y-251470D01*
X400334Y-252470D01*
X400334Y-253470D01*
G37*
G54D15*
X400334Y-253470D02*
X399334Y-254470D01*
X387834Y-254470D01*
X387334Y-253970D01*
X387334Y-251970D01*
X387834Y-251470D01*
X399334Y-251470D01*
X400334Y-252470D01*
X400334Y-253470D01*
G36*
X400334Y-248470D02*
X399334Y-249470D01*
X387834Y-249470D01*
X387334Y-248970D01*
X387334Y-246970D01*
X387834Y-246470D01*
X399334Y-246470D01*
X400334Y-247470D01*
X400334Y-248470D01*
G37*
G54D15*
X400334Y-248470D02*
X399334Y-249470D01*
X387834Y-249470D01*
X387334Y-248970D01*
X387334Y-246970D01*
X387834Y-246470D01*
X399334Y-246470D01*
X400334Y-247470D01*
X400334Y-248470D01*
G36*
X400334Y-243470D02*
X399334Y-244470D01*
X387834Y-244470D01*
X387334Y-243970D01*
X387334Y-241970D01*
X387834Y-241470D01*
X399334Y-241470D01*
X400334Y-242470D01*
X400334Y-243470D01*
G37*
G54D15*
X400334Y-243470D02*
X399334Y-244470D01*
X387834Y-244470D01*
X387334Y-243970D01*
X387334Y-241970D01*
X387834Y-241470D01*
X399334Y-241470D01*
X400334Y-242470D01*
X400334Y-243470D01*
G36*
X400334Y-238470D02*
X399334Y-239470D01*
X387834Y-239470D01*
X387334Y-238970D01*
X387334Y-236970D01*
X387834Y-236470D01*
X399334Y-236470D01*
X400334Y-237470D01*
X400334Y-238470D01*
G37*
G54D15*
X400334Y-238470D02*
X399334Y-239470D01*
X387834Y-239470D01*
X387334Y-238970D01*
X387334Y-236970D01*
X387834Y-236470D01*
X399334Y-236470D01*
X400334Y-237470D01*
X400334Y-238470D01*
G36*
X400334Y-233470D02*
X399334Y-234470D01*
X387834Y-234470D01*
X387334Y-233970D01*
X387334Y-231970D01*
X387834Y-231470D01*
X399334Y-231470D01*
X400334Y-232470D01*
X400334Y-233470D01*
G37*
G54D15*
X400334Y-233470D02*
X399334Y-234470D01*
X387834Y-234470D01*
X387334Y-233970D01*
X387334Y-231970D01*
X387834Y-231470D01*
X399334Y-231470D01*
X400334Y-232470D01*
X400334Y-233470D01*
G36*
X400334Y-228470D02*
X399334Y-229470D01*
X387834Y-229470D01*
X387334Y-228970D01*
X387334Y-226970D01*
X387834Y-226470D01*
X399334Y-226470D01*
X400334Y-227470D01*
X400334Y-228470D01*
G37*
G54D15*
X400334Y-228470D02*
X399334Y-229470D01*
X387834Y-229470D01*
X387334Y-228970D01*
X387334Y-226970D01*
X387834Y-226470D01*
X399334Y-226470D01*
X400334Y-227470D01*
X400334Y-228470D01*
G36*
X400334Y-223470D02*
X399334Y-224470D01*
X387834Y-224470D01*
X387334Y-223970D01*
X387334Y-221970D01*
X387834Y-221470D01*
X399334Y-221470D01*
X400334Y-222470D01*
X400334Y-223470D01*
G37*
G54D15*
X400334Y-223470D02*
X399334Y-224470D01*
X387834Y-224470D01*
X387334Y-223970D01*
X387334Y-221970D01*
X387834Y-221470D01*
X399334Y-221470D01*
X400334Y-222470D01*
X400334Y-223470D01*
G36*
X400334Y-218470D02*
X399334Y-219470D01*
X387834Y-219470D01*
X387334Y-218970D01*
X387334Y-216970D01*
X387834Y-216470D01*
X399334Y-216470D01*
X400334Y-217470D01*
X400334Y-218470D01*
G37*
G54D15*
X400334Y-218470D02*
X399334Y-219470D01*
X387834Y-219470D01*
X387334Y-218970D01*
X387334Y-216970D01*
X387834Y-216470D01*
X399334Y-216470D01*
X400334Y-217470D01*
X400334Y-218470D01*
G36*
X400334Y-213470D02*
X399334Y-214470D01*
X387834Y-214470D01*
X387334Y-213970D01*
X387334Y-211970D01*
X387834Y-211470D01*
X399334Y-211470D01*
X400334Y-212470D01*
X400334Y-213470D01*
G37*
G54D15*
X400334Y-213470D02*
X399334Y-214470D01*
X387834Y-214470D01*
X387334Y-213970D01*
X387334Y-211970D01*
X387834Y-211470D01*
X399334Y-211470D01*
X400334Y-212470D01*
X400334Y-213470D01*
G36*
X400334Y-208470D02*
X399334Y-209470D01*
X387834Y-209470D01*
X387334Y-208970D01*
X387334Y-206970D01*
X387834Y-206470D01*
X399334Y-206470D01*
X400334Y-207470D01*
X400334Y-208470D01*
G37*
G54D15*
X400334Y-208470D02*
X399334Y-209470D01*
X387834Y-209470D01*
X387334Y-208970D01*
X387334Y-206970D01*
X387834Y-206470D01*
X399334Y-206470D01*
X400334Y-207470D01*
X400334Y-208470D01*
G36*
X400334Y-203470D02*
X399334Y-204470D01*
X387834Y-204470D01*
X387334Y-203970D01*
X387334Y-201970D01*
X387834Y-201470D01*
X399334Y-201470D01*
X400334Y-202470D01*
X400334Y-203470D01*
G37*
G54D15*
X400334Y-203470D02*
X399334Y-204470D01*
X387834Y-204470D01*
X387334Y-203970D01*
X387334Y-201970D01*
X387834Y-201470D01*
X399334Y-201470D01*
X400334Y-202470D01*
X400334Y-203470D01*
G36*
X400334Y-198470D02*
X399334Y-199470D01*
X387834Y-199470D01*
X387334Y-198970D01*
X387334Y-196970D01*
X387834Y-196470D01*
X399334Y-196470D01*
X400334Y-197470D01*
X400334Y-198470D01*
G37*
G54D15*
X400334Y-198470D02*
X399334Y-199470D01*
X387834Y-199470D01*
X387334Y-198970D01*
X387334Y-196970D01*
X387834Y-196470D01*
X399334Y-196470D01*
X400334Y-197470D01*
X400334Y-198470D01*
G36*
X400334Y-193470D02*
X399334Y-194470D01*
X387834Y-194470D01*
X387334Y-193970D01*
X387334Y-191970D01*
X387834Y-191470D01*
X399334Y-191470D01*
X400334Y-192470D01*
X400334Y-193470D01*
G37*
G54D15*
X400334Y-193470D02*
X399334Y-194470D01*
X387834Y-194470D01*
X387334Y-193970D01*
X387334Y-191970D01*
X387834Y-191470D01*
X399334Y-191470D01*
X400334Y-192470D01*
X400334Y-193470D01*
G36*
X400334Y-188470D02*
X399334Y-189470D01*
X387834Y-189470D01*
X387334Y-188970D01*
X387334Y-186970D01*
X387834Y-186470D01*
X399334Y-186470D01*
X400334Y-187470D01*
X400334Y-188470D01*
G37*
G54D15*
X400334Y-188470D02*
X399334Y-189470D01*
X387834Y-189470D01*
X387334Y-188970D01*
X387334Y-186970D01*
X387834Y-186470D01*
X399334Y-186470D01*
X400334Y-187470D01*
X400334Y-188470D01*
G36*
X400334Y-183470D02*
X399334Y-184470D01*
X387834Y-184470D01*
X387334Y-183970D01*
X387334Y-181970D01*
X387834Y-181470D01*
X399334Y-181470D01*
X400334Y-182470D01*
X400334Y-183470D01*
G37*
G54D15*
X400334Y-183470D02*
X399334Y-184470D01*
X387834Y-184470D01*
X387334Y-183970D01*
X387334Y-181970D01*
X387834Y-181470D01*
X399334Y-181470D01*
X400334Y-182470D01*
X400334Y-183470D01*
G36*
X400334Y-178470D02*
X399334Y-179470D01*
X387834Y-179470D01*
X387334Y-178970D01*
X387334Y-176970D01*
X387834Y-176470D01*
X399334Y-176470D01*
X400334Y-177470D01*
X400334Y-178470D01*
G37*
G54D15*
X400334Y-178470D02*
X399334Y-179470D01*
X387834Y-179470D01*
X387334Y-178970D01*
X387334Y-176970D01*
X387834Y-176470D01*
X399334Y-176470D01*
X400334Y-177470D01*
X400334Y-178470D01*
G36*
X400334Y-173470D02*
X399334Y-174470D01*
X387834Y-174470D01*
X387334Y-173970D01*
X387334Y-171970D01*
X387834Y-171470D01*
X399334Y-171470D01*
X400334Y-172470D01*
X400334Y-173470D01*
G37*
G54D15*
X400334Y-173470D02*
X399334Y-174470D01*
X387834Y-174470D01*
X387334Y-173970D01*
X387334Y-171970D01*
X387834Y-171470D01*
X399334Y-171470D01*
X400334Y-172470D01*
X400334Y-173470D01*
G36*
X400334Y-168470D02*
X399334Y-169470D01*
X387834Y-169470D01*
X387334Y-168970D01*
X387334Y-166970D01*
X387834Y-166470D01*
X399334Y-166470D01*
X400334Y-167470D01*
X400334Y-168470D01*
G37*
G54D15*
X400334Y-168470D02*
X399334Y-169470D01*
X387834Y-169470D01*
X387334Y-168970D01*
X387334Y-166970D01*
X387834Y-166470D01*
X399334Y-166470D01*
X400334Y-167470D01*
X400334Y-168470D01*
G36*
X400334Y-163470D02*
X399334Y-164470D01*
X387834Y-164470D01*
X387334Y-163970D01*
X387334Y-161970D01*
X387834Y-161470D01*
X399334Y-161470D01*
X400334Y-162470D01*
X400334Y-163470D01*
G37*
G54D15*
X400334Y-163470D02*
X399334Y-164470D01*
X387834Y-164470D01*
X387334Y-163970D01*
X387334Y-161970D01*
X387834Y-161470D01*
X399334Y-161470D01*
X400334Y-162470D01*
X400334Y-163470D01*
G36*
X400334Y-158470D02*
X399334Y-159470D01*
X387834Y-159470D01*
X387334Y-158970D01*
X387334Y-156970D01*
X387834Y-156470D01*
X399334Y-156470D01*
X400334Y-157470D01*
X400334Y-158470D01*
G37*
G54D15*
X400334Y-158470D02*
X399334Y-159470D01*
X387834Y-159470D01*
X387334Y-158970D01*
X387334Y-156970D01*
X387834Y-156470D01*
X399334Y-156470D01*
X400334Y-157470D01*
X400334Y-158470D01*
G36*
X400334Y-153470D02*
X399334Y-154470D01*
X387834Y-154470D01*
X387334Y-153970D01*
X387334Y-151970D01*
X387834Y-151470D01*
X399334Y-151470D01*
X400334Y-152470D01*
X400334Y-153470D01*
G37*
G54D15*
X400334Y-153470D02*
X399334Y-154470D01*
X387834Y-154470D01*
X387334Y-153970D01*
X387334Y-151970D01*
X387834Y-151470D01*
X399334Y-151470D01*
X400334Y-152470D01*
X400334Y-153470D01*
G36*
X400334Y-263470D02*
X399334Y-264470D01*
X387834Y-264470D01*
X387334Y-263970D01*
X387334Y-261970D01*
X387834Y-261470D01*
X399334Y-261470D01*
X400334Y-262470D01*
X400334Y-263470D01*
G37*
G54D15*
X400334Y-263470D02*
X399334Y-264470D01*
X387834Y-264470D01*
X387334Y-263970D01*
X387334Y-261970D01*
X387834Y-261470D01*
X399334Y-261470D01*
X400334Y-262470D01*
X400334Y-263470D01*
X255339Y-285939D02*
G54D14*
D03*
X260339Y-285939D02*
G54D14*
D03*
X265339Y-285939D02*
G54D14*
D03*
X270339Y-285939D02*
G54D14*
D03*
X275339Y-285939D02*
G54D14*
D03*
X280339Y-285939D02*
G54D14*
D03*
X285339Y-285939D02*
G54D14*
D03*
X290339Y-285939D02*
G54D14*
D03*
X295339Y-285939D02*
G54D14*
D03*
X300339Y-285939D02*
G54D14*
D03*
X305339Y-285939D02*
G54D14*
D03*
X310340Y-285939D02*
G54D14*
D03*
X315339Y-285939D02*
G54D14*
D03*
X320339Y-285939D02*
G54D14*
D03*
X325339Y-285939D02*
G54D14*
D03*
X330339Y-285939D02*
G54D14*
D03*
X335339Y-285939D02*
G54D14*
D03*
X340340Y-285939D02*
G54D14*
D03*
X345340Y-285939D02*
G54D14*
D03*
X350339Y-285939D02*
G54D14*
D03*
X355339Y-285939D02*
G54D14*
D03*
X360339Y-285939D02*
G54D14*
D03*
X365339Y-285939D02*
G54D14*
D03*
X370339Y-285939D02*
G54D14*
D03*
X375340Y-285939D02*
G54D14*
D03*
G36*
X254834Y-288970D02*
X253834Y-287970D01*
X253834Y-283470D01*
X254334Y-282970D01*
X256334Y-282970D01*
X256834Y-283470D01*
X256834Y-287970D01*
X255834Y-288970D01*
X254834Y-288970D01*
G37*
G54D15*
X254834Y-288970D02*
X253834Y-287970D01*
X253834Y-283470D01*
X254334Y-282970D01*
X256334Y-282970D01*
X256834Y-283470D01*
X256834Y-287970D01*
X255834Y-288970D01*
X254834Y-288970D01*
G36*
X374834Y-288970D02*
X373834Y-287970D01*
X373834Y-283470D01*
X374334Y-282970D01*
X376334Y-282970D01*
X376834Y-283470D01*
X376834Y-287970D01*
X375834Y-288970D01*
X374834Y-288970D01*
G37*
G54D15*
X374834Y-288970D02*
X373834Y-287970D01*
X373834Y-283470D01*
X374334Y-282970D01*
X376334Y-282970D01*
X376834Y-283470D01*
X376834Y-287970D01*
X375834Y-288970D01*
X374834Y-288970D01*
G36*
X264834Y-292970D02*
X263834Y-291970D01*
X263834Y-280470D01*
X264334Y-279970D01*
X266334Y-279970D01*
X266834Y-280470D01*
X266834Y-291970D01*
X265834Y-292970D01*
X264834Y-292970D01*
G37*
G54D15*
X264834Y-292970D02*
X263834Y-291970D01*
X263834Y-280470D01*
X264334Y-279970D01*
X266334Y-279970D01*
X266834Y-280470D01*
X266834Y-291970D01*
X265834Y-292970D01*
X264834Y-292970D01*
G36*
X269834Y-292970D02*
X268834Y-291970D01*
X268834Y-280470D01*
X269334Y-279970D01*
X271334Y-279970D01*
X271834Y-280470D01*
X271834Y-291970D01*
X270834Y-292970D01*
X269834Y-292970D01*
G37*
G54D15*
X269834Y-292970D02*
X268834Y-291970D01*
X268834Y-280470D01*
X269334Y-279970D01*
X271334Y-279970D01*
X271834Y-280470D01*
X271834Y-291970D01*
X270834Y-292970D01*
X269834Y-292970D01*
G36*
X274834Y-292970D02*
X273834Y-291970D01*
X273834Y-280470D01*
X274334Y-279970D01*
X276334Y-279970D01*
X276834Y-280470D01*
X276834Y-291970D01*
X275834Y-292970D01*
X274834Y-292970D01*
G37*
G54D15*
X274834Y-292970D02*
X273834Y-291970D01*
X273834Y-280470D01*
X274334Y-279970D01*
X276334Y-279970D01*
X276834Y-280470D01*
X276834Y-291970D01*
X275834Y-292970D01*
X274834Y-292970D01*
G36*
X279834Y-292970D02*
X278834Y-291970D01*
X278834Y-280470D01*
X279334Y-279970D01*
X281334Y-279970D01*
X281834Y-280470D01*
X281834Y-291970D01*
X280834Y-292970D01*
X279834Y-292970D01*
G37*
G54D15*
X279834Y-292970D02*
X278834Y-291970D01*
X278834Y-280470D01*
X279334Y-279970D01*
X281334Y-279970D01*
X281834Y-280470D01*
X281834Y-291970D01*
X280834Y-292970D01*
X279834Y-292970D01*
G36*
X284834Y-292970D02*
X283834Y-291970D01*
X283834Y-280470D01*
X284334Y-279970D01*
X286334Y-279970D01*
X286834Y-280470D01*
X286834Y-291970D01*
X285834Y-292970D01*
X284834Y-292970D01*
G37*
G54D15*
X284834Y-292970D02*
X283834Y-291970D01*
X283834Y-280470D01*
X284334Y-279970D01*
X286334Y-279970D01*
X286834Y-280470D01*
X286834Y-291970D01*
X285834Y-292970D01*
X284834Y-292970D01*
G36*
X289834Y-292970D02*
X288834Y-291970D01*
X288834Y-280470D01*
X289334Y-279970D01*
X291334Y-279970D01*
X291834Y-280470D01*
X291834Y-291970D01*
X290834Y-292970D01*
X289834Y-292970D01*
G37*
G54D15*
X289834Y-292970D02*
X288834Y-291970D01*
X288834Y-280470D01*
X289334Y-279970D01*
X291334Y-279970D01*
X291834Y-280470D01*
X291834Y-291970D01*
X290834Y-292970D01*
X289834Y-292970D01*
G36*
X294834Y-292970D02*
X293834Y-291970D01*
X293834Y-280470D01*
X294334Y-279970D01*
X296334Y-279970D01*
X296834Y-280470D01*
X296834Y-291970D01*
X295834Y-292970D01*
X294834Y-292970D01*
G37*
G54D15*
X294834Y-292970D02*
X293834Y-291970D01*
X293834Y-280470D01*
X294334Y-279970D01*
X296334Y-279970D01*
X296834Y-280470D01*
X296834Y-291970D01*
X295834Y-292970D01*
X294834Y-292970D01*
G36*
X299834Y-292970D02*
X298834Y-291970D01*
X298834Y-280470D01*
X299334Y-279970D01*
X301334Y-279970D01*
X301834Y-280470D01*
X301834Y-291970D01*
X300834Y-292970D01*
X299834Y-292970D01*
G37*
G54D15*
X299834Y-292970D02*
X298834Y-291970D01*
X298834Y-280470D01*
X299334Y-279970D01*
X301334Y-279970D01*
X301834Y-280470D01*
X301834Y-291970D01*
X300834Y-292970D01*
X299834Y-292970D01*
G36*
X304834Y-292970D02*
X303834Y-291970D01*
X303834Y-280470D01*
X304334Y-279970D01*
X306334Y-279970D01*
X306834Y-280470D01*
X306834Y-291970D01*
X305834Y-292970D01*
X304834Y-292970D01*
G37*
G54D15*
X304834Y-292970D02*
X303834Y-291970D01*
X303834Y-280470D01*
X304334Y-279970D01*
X306334Y-279970D01*
X306834Y-280470D01*
X306834Y-291970D01*
X305834Y-292970D01*
X304834Y-292970D01*
G36*
X309834Y-292970D02*
X308834Y-291970D01*
X308834Y-280470D01*
X309334Y-279970D01*
X311334Y-279970D01*
X311834Y-280470D01*
X311834Y-291970D01*
X310834Y-292970D01*
X309834Y-292970D01*
G37*
G54D15*
X309834Y-292970D02*
X308834Y-291970D01*
X308834Y-280470D01*
X309334Y-279970D01*
X311334Y-279970D01*
X311834Y-280470D01*
X311834Y-291970D01*
X310834Y-292970D01*
X309834Y-292970D01*
G36*
X314834Y-292970D02*
X313834Y-291970D01*
X313834Y-280470D01*
X314334Y-279970D01*
X316334Y-279970D01*
X316834Y-280470D01*
X316834Y-291970D01*
X315834Y-292970D01*
X314834Y-292970D01*
G37*
G54D15*
X314834Y-292970D02*
X313834Y-291970D01*
X313834Y-280470D01*
X314334Y-279970D01*
X316334Y-279970D01*
X316834Y-280470D01*
X316834Y-291970D01*
X315834Y-292970D01*
X314834Y-292970D01*
G36*
X319834Y-292970D02*
X318834Y-291970D01*
X318834Y-280470D01*
X319334Y-279970D01*
X321334Y-279970D01*
X321834Y-280470D01*
X321834Y-291970D01*
X320834Y-292970D01*
X319834Y-292970D01*
G37*
G54D15*
X319834Y-292970D02*
X318834Y-291970D01*
X318834Y-280470D01*
X319334Y-279970D01*
X321334Y-279970D01*
X321834Y-280470D01*
X321834Y-291970D01*
X320834Y-292970D01*
X319834Y-292970D01*
G36*
X324834Y-292970D02*
X323834Y-291970D01*
X323834Y-280470D01*
X324334Y-279970D01*
X326334Y-279970D01*
X326834Y-280470D01*
X326834Y-291970D01*
X325834Y-292970D01*
X324834Y-292970D01*
G37*
G54D15*
X324834Y-292970D02*
X323834Y-291970D01*
X323834Y-280470D01*
X324334Y-279970D01*
X326334Y-279970D01*
X326834Y-280470D01*
X326834Y-291970D01*
X325834Y-292970D01*
X324834Y-292970D01*
G36*
X329834Y-292970D02*
X328834Y-291970D01*
X328834Y-280470D01*
X329334Y-279970D01*
X331334Y-279970D01*
X331834Y-280470D01*
X331834Y-291970D01*
X330834Y-292970D01*
X329834Y-292970D01*
G37*
G54D15*
X329834Y-292970D02*
X328834Y-291970D01*
X328834Y-280470D01*
X329334Y-279970D01*
X331334Y-279970D01*
X331834Y-280470D01*
X331834Y-291970D01*
X330834Y-292970D01*
X329834Y-292970D01*
G36*
X334834Y-292970D02*
X333834Y-291970D01*
X333834Y-280470D01*
X334334Y-279970D01*
X336334Y-279970D01*
X336834Y-280470D01*
X336834Y-291970D01*
X335834Y-292970D01*
X334834Y-292970D01*
G37*
G54D15*
X334834Y-292970D02*
X333834Y-291970D01*
X333834Y-280470D01*
X334334Y-279970D01*
X336334Y-279970D01*
X336834Y-280470D01*
X336834Y-291970D01*
X335834Y-292970D01*
X334834Y-292970D01*
G36*
X339834Y-292970D02*
X338834Y-291970D01*
X338834Y-280470D01*
X339334Y-279970D01*
X341334Y-279970D01*
X341834Y-280470D01*
X341834Y-291970D01*
X340834Y-292970D01*
X339834Y-292970D01*
G37*
G54D15*
X339834Y-292970D02*
X338834Y-291970D01*
X338834Y-280470D01*
X339334Y-279970D01*
X341334Y-279970D01*
X341834Y-280470D01*
X341834Y-291970D01*
X340834Y-292970D01*
X339834Y-292970D01*
G36*
X344834Y-292970D02*
X343834Y-291970D01*
X343834Y-280470D01*
X344334Y-279970D01*
X346334Y-279970D01*
X346834Y-280470D01*
X346834Y-291970D01*
X345834Y-292970D01*
X344834Y-292970D01*
G37*
G54D15*
X344834Y-292970D02*
X343834Y-291970D01*
X343834Y-280470D01*
X344334Y-279970D01*
X346334Y-279970D01*
X346834Y-280470D01*
X346834Y-291970D01*
X345834Y-292970D01*
X344834Y-292970D01*
G36*
X349834Y-292970D02*
X348834Y-291970D01*
X348834Y-280470D01*
X349334Y-279970D01*
X351334Y-279970D01*
X351834Y-280470D01*
X351834Y-291970D01*
X350834Y-292970D01*
X349834Y-292970D01*
G37*
G54D15*
X349834Y-292970D02*
X348834Y-291970D01*
X348834Y-280470D01*
X349334Y-279970D01*
X351334Y-279970D01*
X351834Y-280470D01*
X351834Y-291970D01*
X350834Y-292970D01*
X349834Y-292970D01*
G36*
X354834Y-292970D02*
X353834Y-291970D01*
X353834Y-280470D01*
X354334Y-279970D01*
X356334Y-279970D01*
X356834Y-280470D01*
X356834Y-291970D01*
X355834Y-292970D01*
X354834Y-292970D01*
G37*
G54D15*
X354834Y-292970D02*
X353834Y-291970D01*
X353834Y-280470D01*
X354334Y-279970D01*
X356334Y-279970D01*
X356834Y-280470D01*
X356834Y-291970D01*
X355834Y-292970D01*
X354834Y-292970D01*
G36*
X359834Y-292970D02*
X358834Y-291970D01*
X358834Y-280470D01*
X359334Y-279970D01*
X361334Y-279970D01*
X361834Y-280470D01*
X361834Y-291970D01*
X360834Y-292970D01*
X359834Y-292970D01*
G37*
G54D15*
X359834Y-292970D02*
X358834Y-291970D01*
X358834Y-280470D01*
X359334Y-279970D01*
X361334Y-279970D01*
X361834Y-280470D01*
X361834Y-291970D01*
X360834Y-292970D01*
X359834Y-292970D01*
G36*
X364834Y-292970D02*
X363834Y-291970D01*
X363834Y-280470D01*
X364334Y-279970D01*
X366334Y-279970D01*
X366834Y-280470D01*
X366834Y-291970D01*
X365834Y-292970D01*
X364834Y-292970D01*
G37*
G54D15*
X364834Y-292970D02*
X363834Y-291970D01*
X363834Y-280470D01*
X364334Y-279970D01*
X366334Y-279970D01*
X366834Y-280470D01*
X366834Y-291970D01*
X365834Y-292970D01*
X364834Y-292970D01*
G36*
X369834Y-292970D02*
X368834Y-291970D01*
X368834Y-280470D01*
X369334Y-279970D01*
X371334Y-279970D01*
X371834Y-280470D01*
X371834Y-291970D01*
X370834Y-292970D01*
X369834Y-292970D01*
G37*
G54D15*
X369834Y-292970D02*
X368834Y-291970D01*
X368834Y-280470D01*
X369334Y-279970D01*
X371334Y-279970D01*
X371834Y-280470D01*
X371834Y-291970D01*
X370834Y-292970D01*
X369834Y-292970D01*
G36*
X259834Y-292970D02*
X258834Y-291970D01*
X258834Y-280470D01*
X259334Y-279970D01*
X261334Y-279970D01*
X261834Y-280470D01*
X261834Y-291970D01*
X260834Y-292970D01*
X259834Y-292970D01*
G37*
G54D15*
X259834Y-292970D02*
X258834Y-291970D01*
X258834Y-280470D01*
X259334Y-279970D01*
X261334Y-279970D01*
X261834Y-280470D01*
X261834Y-291970D01*
X260834Y-292970D01*
X259834Y-292970D01*
X237366Y-147975D02*
G54D14*
D03*
X237366Y-152975D02*
G54D14*
D03*
X237366Y-157975D02*
G54D14*
D03*
X237366Y-162975D02*
G54D14*
D03*
X237366Y-167975D02*
G54D14*
D03*
X237366Y-172975D02*
G54D14*
D03*
X237366Y-177975D02*
G54D14*
D03*
X237366Y-182975D02*
G54D14*
D03*
X237366Y-187975D02*
G54D14*
D03*
X237366Y-192975D02*
G54D14*
D03*
X237366Y-197975D02*
G54D14*
D03*
X237366Y-202975D02*
G54D14*
D03*
X237366Y-207975D02*
G54D14*
D03*
X237366Y-212975D02*
G54D14*
D03*
X237366Y-217975D02*
G54D14*
D03*
X237366Y-222975D02*
G54D14*
D03*
X237366Y-227975D02*
G54D14*
D03*
X237366Y-232975D02*
G54D14*
D03*
X237366Y-237975D02*
G54D14*
D03*
X237366Y-242975D02*
G54D14*
D03*
X237366Y-247975D02*
G54D14*
D03*
X237366Y-252975D02*
G54D14*
D03*
X237366Y-257975D02*
G54D14*
D03*
X237366Y-262975D02*
G54D14*
D03*
X237366Y-267975D02*
G54D14*
D03*
G36*
X234334Y-147470D02*
X235334Y-146470D01*
X239834Y-146470D01*
X240334Y-146970D01*
X240334Y-148970D01*
X239834Y-149470D01*
X235334Y-149470D01*
X234334Y-148470D01*
X234334Y-147470D01*
G37*
G54D15*
X234334Y-147470D02*
X235334Y-146470D01*
X239834Y-146470D01*
X240334Y-146970D01*
X240334Y-148970D01*
X239834Y-149470D01*
X235334Y-149470D01*
X234334Y-148470D01*
X234334Y-147470D01*
G36*
X234334Y-267470D02*
X235334Y-266470D01*
X239834Y-266470D01*
X240334Y-266970D01*
X240334Y-268970D01*
X239834Y-269470D01*
X235334Y-269470D01*
X234334Y-268470D01*
X234334Y-267470D01*
G37*
G54D15*
X234334Y-267470D02*
X235334Y-266470D01*
X239834Y-266470D01*
X240334Y-266970D01*
X240334Y-268970D01*
X239834Y-269470D01*
X235334Y-269470D01*
X234334Y-268470D01*
X234334Y-267470D01*
G36*
X230334Y-157470D02*
X231334Y-156470D01*
X242834Y-156470D01*
X243334Y-156970D01*
X243334Y-158970D01*
X242834Y-159470D01*
X231334Y-159470D01*
X230334Y-158470D01*
X230334Y-157470D01*
G37*
G54D15*
X230334Y-157470D02*
X231334Y-156470D01*
X242834Y-156470D01*
X243334Y-156970D01*
X243334Y-158970D01*
X242834Y-159470D01*
X231334Y-159470D01*
X230334Y-158470D01*
X230334Y-157470D01*
G36*
X230334Y-162470D02*
X231334Y-161470D01*
X242834Y-161470D01*
X243334Y-161970D01*
X243334Y-163970D01*
X242834Y-164470D01*
X231334Y-164470D01*
X230334Y-163470D01*
X230334Y-162470D01*
G37*
G54D15*
X230334Y-162470D02*
X231334Y-161470D01*
X242834Y-161470D01*
X243334Y-161970D01*
X243334Y-163970D01*
X242834Y-164470D01*
X231334Y-164470D01*
X230334Y-163470D01*
X230334Y-162470D01*
G36*
X230334Y-167470D02*
X231334Y-166470D01*
X242834Y-166470D01*
X243334Y-166970D01*
X243334Y-168970D01*
X242834Y-169470D01*
X231334Y-169470D01*
X230334Y-168470D01*
X230334Y-167470D01*
G37*
G54D15*
X230334Y-167470D02*
X231334Y-166470D01*
X242834Y-166470D01*
X243334Y-166970D01*
X243334Y-168970D01*
X242834Y-169470D01*
X231334Y-169470D01*
X230334Y-168470D01*
X230334Y-167470D01*
G36*
X230334Y-172470D02*
X231334Y-171470D01*
X242834Y-171470D01*
X243334Y-171970D01*
X243334Y-173970D01*
X242834Y-174470D01*
X231334Y-174470D01*
X230334Y-173470D01*
X230334Y-172470D01*
G37*
G54D15*
X230334Y-172470D02*
X231334Y-171470D01*
X242834Y-171470D01*
X243334Y-171970D01*
X243334Y-173970D01*
X242834Y-174470D01*
X231334Y-174470D01*
X230334Y-173470D01*
X230334Y-172470D01*
G36*
X230334Y-177470D02*
X231334Y-176470D01*
X242834Y-176470D01*
X243334Y-176970D01*
X243334Y-178970D01*
X242834Y-179470D01*
X231334Y-179470D01*
X230334Y-178470D01*
X230334Y-177470D01*
G37*
G54D15*
X230334Y-177470D02*
X231334Y-176470D01*
X242834Y-176470D01*
X243334Y-176970D01*
X243334Y-178970D01*
X242834Y-179470D01*
X231334Y-179470D01*
X230334Y-178470D01*
X230334Y-177470D01*
G36*
X230334Y-182470D02*
X231334Y-181470D01*
X242834Y-181470D01*
X243334Y-181970D01*
X243334Y-183970D01*
X242834Y-184470D01*
X231334Y-184470D01*
X230334Y-183470D01*
X230334Y-182470D01*
G37*
G54D15*
X230334Y-182470D02*
X231334Y-181470D01*
X242834Y-181470D01*
X243334Y-181970D01*
X243334Y-183970D01*
X242834Y-184470D01*
X231334Y-184470D01*
X230334Y-183470D01*
X230334Y-182470D01*
G36*
X230334Y-187470D02*
X231334Y-186470D01*
X242834Y-186470D01*
X243334Y-186970D01*
X243334Y-188970D01*
X242834Y-189470D01*
X231334Y-189470D01*
X230334Y-188470D01*
X230334Y-187470D01*
G37*
G54D15*
X230334Y-187470D02*
X231334Y-186470D01*
X242834Y-186470D01*
X243334Y-186970D01*
X243334Y-188970D01*
X242834Y-189470D01*
X231334Y-189470D01*
X230334Y-188470D01*
X230334Y-187470D01*
G36*
X230334Y-192470D02*
X231334Y-191470D01*
X242834Y-191470D01*
X243334Y-191970D01*
X243334Y-193970D01*
X242834Y-194470D01*
X231334Y-194470D01*
X230334Y-193470D01*
X230334Y-192470D01*
G37*
G54D15*
X230334Y-192470D02*
X231334Y-191470D01*
X242834Y-191470D01*
X243334Y-191970D01*
X243334Y-193970D01*
X242834Y-194470D01*
X231334Y-194470D01*
X230334Y-193470D01*
X230334Y-192470D01*
G36*
X230334Y-197470D02*
X231334Y-196470D01*
X242834Y-196470D01*
X243334Y-196970D01*
X243334Y-198970D01*
X242834Y-199470D01*
X231334Y-199470D01*
X230334Y-198470D01*
X230334Y-197470D01*
G37*
G54D15*
X230334Y-197470D02*
X231334Y-196470D01*
X242834Y-196470D01*
X243334Y-196970D01*
X243334Y-198970D01*
X242834Y-199470D01*
X231334Y-199470D01*
X230334Y-198470D01*
X230334Y-197470D01*
G36*
X230334Y-202470D02*
X231334Y-201470D01*
X242834Y-201470D01*
X243334Y-201970D01*
X243334Y-203970D01*
X242834Y-204470D01*
X231334Y-204470D01*
X230334Y-203470D01*
X230334Y-202470D01*
G37*
G54D15*
X230334Y-202470D02*
X231334Y-201470D01*
X242834Y-201470D01*
X243334Y-201970D01*
X243334Y-203970D01*
X242834Y-204470D01*
X231334Y-204470D01*
X230334Y-203470D01*
X230334Y-202470D01*
G36*
X230334Y-207470D02*
X231334Y-206470D01*
X242834Y-206470D01*
X243334Y-206970D01*
X243334Y-208970D01*
X242834Y-209470D01*
X231334Y-209470D01*
X230334Y-208470D01*
X230334Y-207470D01*
G37*
G54D15*
X230334Y-207470D02*
X231334Y-206470D01*
X242834Y-206470D01*
X243334Y-206970D01*
X243334Y-208970D01*
X242834Y-209470D01*
X231334Y-209470D01*
X230334Y-208470D01*
X230334Y-207470D01*
G36*
X230334Y-212470D02*
X231334Y-211470D01*
X242834Y-211470D01*
X243334Y-211970D01*
X243334Y-213970D01*
X242834Y-214470D01*
X231334Y-214470D01*
X230334Y-213470D01*
X230334Y-212470D01*
G37*
G54D15*
X230334Y-212470D02*
X231334Y-211470D01*
X242834Y-211470D01*
X243334Y-211970D01*
X243334Y-213970D01*
X242834Y-214470D01*
X231334Y-214470D01*
X230334Y-213470D01*
X230334Y-212470D01*
G36*
X230334Y-217470D02*
X231334Y-216470D01*
X242834Y-216470D01*
X243334Y-216970D01*
X243334Y-218970D01*
X242834Y-219470D01*
X231334Y-219470D01*
X230334Y-218470D01*
X230334Y-217470D01*
G37*
G54D15*
X230334Y-217470D02*
X231334Y-216470D01*
X242834Y-216470D01*
X243334Y-216970D01*
X243334Y-218970D01*
X242834Y-219470D01*
X231334Y-219470D01*
X230334Y-218470D01*
X230334Y-217470D01*
G36*
X230334Y-222470D02*
X231334Y-221470D01*
X242834Y-221470D01*
X243334Y-221970D01*
X243334Y-223970D01*
X242834Y-224470D01*
X231334Y-224470D01*
X230334Y-223470D01*
X230334Y-222470D01*
G37*
G54D15*
X230334Y-222470D02*
X231334Y-221470D01*
X242834Y-221470D01*
X243334Y-221970D01*
X243334Y-223970D01*
X242834Y-224470D01*
X231334Y-224470D01*
X230334Y-223470D01*
X230334Y-222470D01*
G36*
X230334Y-227470D02*
X231334Y-226470D01*
X242834Y-226470D01*
X243334Y-226970D01*
X243334Y-228970D01*
X242834Y-229470D01*
X231334Y-229470D01*
X230334Y-228470D01*
X230334Y-227470D01*
G37*
G54D15*
X230334Y-227470D02*
X231334Y-226470D01*
X242834Y-226470D01*
X243334Y-226970D01*
X243334Y-228970D01*
X242834Y-229470D01*
X231334Y-229470D01*
X230334Y-228470D01*
X230334Y-227470D01*
G36*
X230334Y-232470D02*
X231334Y-231470D01*
X242834Y-231470D01*
X243334Y-231970D01*
X243334Y-233970D01*
X242834Y-234470D01*
X231334Y-234470D01*
X230334Y-233470D01*
X230334Y-232470D01*
G37*
G54D15*
X230334Y-232470D02*
X231334Y-231470D01*
X242834Y-231470D01*
X243334Y-231970D01*
X243334Y-233970D01*
X242834Y-234470D01*
X231334Y-234470D01*
X230334Y-233470D01*
X230334Y-232470D01*
G36*
X230334Y-237470D02*
X231334Y-236470D01*
X242834Y-236470D01*
X243334Y-236970D01*
X243334Y-238970D01*
X242834Y-239470D01*
X231334Y-239470D01*
X230334Y-238470D01*
X230334Y-237470D01*
G37*
G54D15*
X230334Y-237470D02*
X231334Y-236470D01*
X242834Y-236470D01*
X243334Y-236970D01*
X243334Y-238970D01*
X242834Y-239470D01*
X231334Y-239470D01*
X230334Y-238470D01*
X230334Y-237470D01*
G36*
X230334Y-242470D02*
X231334Y-241470D01*
X242834Y-241470D01*
X243334Y-241970D01*
X243334Y-243970D01*
X242834Y-244470D01*
X231334Y-244470D01*
X230334Y-243470D01*
X230334Y-242470D01*
G37*
G54D15*
X230334Y-242470D02*
X231334Y-241470D01*
X242834Y-241470D01*
X243334Y-241970D01*
X243334Y-243970D01*
X242834Y-244470D01*
X231334Y-244470D01*
X230334Y-243470D01*
X230334Y-242470D01*
G36*
X230334Y-247470D02*
X231334Y-246470D01*
X242834Y-246470D01*
X243334Y-246970D01*
X243334Y-248970D01*
X242834Y-249470D01*
X231334Y-249470D01*
X230334Y-248470D01*
X230334Y-247470D01*
G37*
G54D15*
X230334Y-247470D02*
X231334Y-246470D01*
X242834Y-246470D01*
X243334Y-246970D01*
X243334Y-248970D01*
X242834Y-249470D01*
X231334Y-249470D01*
X230334Y-248470D01*
X230334Y-247470D01*
G36*
X230334Y-252470D02*
X231334Y-251470D01*
X242834Y-251470D01*
X243334Y-251970D01*
X243334Y-253970D01*
X242834Y-254470D01*
X231334Y-254470D01*
X230334Y-253470D01*
X230334Y-252470D01*
G37*
G54D15*
X230334Y-252470D02*
X231334Y-251470D01*
X242834Y-251470D01*
X243334Y-251970D01*
X243334Y-253970D01*
X242834Y-254470D01*
X231334Y-254470D01*
X230334Y-253470D01*
X230334Y-252470D01*
G36*
X230334Y-257470D02*
X231334Y-256470D01*
X242834Y-256470D01*
X243334Y-256970D01*
X243334Y-258970D01*
X242834Y-259470D01*
X231334Y-259470D01*
X230334Y-258470D01*
X230334Y-257470D01*
G37*
G54D15*
X230334Y-257470D02*
X231334Y-256470D01*
X242834Y-256470D01*
X243334Y-256970D01*
X243334Y-258970D01*
X242834Y-259470D01*
X231334Y-259470D01*
X230334Y-258470D01*
X230334Y-257470D01*
G36*
X230334Y-262470D02*
X231334Y-261470D01*
X242834Y-261470D01*
X243334Y-261970D01*
X243334Y-263970D01*
X242834Y-264470D01*
X231334Y-264470D01*
X230334Y-263470D01*
X230334Y-262470D01*
G37*
G54D15*
X230334Y-262470D02*
X231334Y-261470D01*
X242834Y-261470D01*
X243334Y-261970D01*
X243334Y-263970D01*
X242834Y-264470D01*
X231334Y-264470D01*
X230334Y-263470D01*
X230334Y-262470D01*
G36*
X230334Y-152470D02*
X231334Y-151470D01*
X242834Y-151470D01*
X243334Y-151970D01*
X243334Y-153970D01*
X242834Y-154470D01*
X231334Y-154470D01*
X230334Y-153470D01*
X230334Y-152470D01*
G37*
G54D15*
X230334Y-152470D02*
X231334Y-151470D01*
X242834Y-151470D01*
X243334Y-151970D01*
X243334Y-153970D01*
X242834Y-154470D01*
X231334Y-154470D01*
X230334Y-153470D01*
X230334Y-152470D01*
G54D16*
G75*
G01X412767Y-436914D02*
G03X412767Y-436914I-5000J0D01*
G01*
G36*
G75*
G01X412767Y-436914D02*
G03X412767Y-436914I-5000J0D01*
G01*
G37*
X412767Y-436914D01*
G54D16*
G75*
G01X412812Y-456609D02*
G03X412812Y-456609I-5000J0D01*
G01*
G36*
G75*
G01X412812Y-456609D02*
G03X412812Y-456609I-5000J0D01*
G01*
G37*
X412812Y-456609D01*
G54D16*
G75*
G01X412812Y-476926D02*
G03X412812Y-476926I-5000J0D01*
G01*
G36*
G75*
G01X412812Y-476926D02*
G03X412812Y-476926I-5000J0D01*
G01*
G37*
X412812Y-476926D01*
G54D16*
G75*
G01X412812Y-496927D02*
G03X412812Y-496927I-5000J0D01*
G01*
G36*
G75*
G01X412812Y-496927D02*
G03X412812Y-496927I-5000J0D01*
G01*
G37*
X412812Y-496927D01*
G54D16*
G75*
G01X412812Y-536926D02*
G03X412812Y-536926I-5000J0D01*
G01*
G36*
G75*
G01X412812Y-536926D02*
G03X412812Y-536926I-5000J0D01*
G01*
G37*
X412812Y-536926D01*
G54D16*
G75*
G01X412812Y-556927D02*
G03X412812Y-556927I-5000J0D01*
G01*
G36*
G75*
G01X412812Y-556927D02*
G03X412812Y-556927I-5000J0D01*
G01*
G37*
X412812Y-556927D01*
G54D16*
G75*
G01X412812Y-516927D02*
G03X412812Y-516927I-5000J0D01*
G01*
G36*
G75*
G01X412812Y-516927D02*
G03X412812Y-516927I-5000J0D01*
G01*
G37*
X412812Y-516927D01*
G54D16*
G75*
G01X609613Y-436914D02*
G03X609613Y-436914I-5000J0D01*
G01*
G36*
G75*
G01X609613Y-436914D02*
G03X609613Y-436914I-5000J0D01*
G01*
G37*
X609613Y-436914D01*
G54D16*
G75*
G01X609658Y-456609D02*
G03X609658Y-456609I-5000J0D01*
G01*
G36*
G75*
G01X609658Y-456609D02*
G03X609658Y-456609I-5000J0D01*
G01*
G37*
X609658Y-456609D01*
G54D16*
G75*
G01X609658Y-476926D02*
G03X609658Y-476926I-5000J0D01*
G01*
G36*
G75*
G01X609658Y-476926D02*
G03X609658Y-476926I-5000J0D01*
G01*
G37*
X609658Y-476926D01*
G54D16*
G75*
G01X609658Y-496926D02*
G03X609658Y-496926I-5000J0D01*
G01*
G36*
G75*
G01X609658Y-496926D02*
G03X609658Y-496926I-5000J0D01*
G01*
G37*
X609658Y-496926D01*
G54D16*
G75*
G01X609658Y-536927D02*
G03X609658Y-536927I-5000J0D01*
G01*
G36*
G75*
G01X609658Y-536927D02*
G03X609658Y-536927I-5000J0D01*
G01*
G37*
X609658Y-536927D01*
X456802Y-238680D02*
G54D17*
D03*
X473802Y-238680D02*
G54D17*
D03*
X556419Y-216521D02*
G54D17*
D03*
X539419Y-216521D02*
G54D17*
D03*
X556419Y-198265D02*
G54D17*
D03*
X539419Y-198265D02*
G54D17*
D03*
G36*
X489193Y-154046D02*
X480001Y-163238D01*
X470101Y-153339D01*
X479293Y-144146D01*
X489193Y-154046D01*
G37*
G36*
X477172Y-166066D02*
X467980Y-175259D01*
X458081Y-165359D01*
X467273Y-156167D01*
X477172Y-166066D01*
G37*
X375113Y-340350D02*
G54D17*
D03*
X392113Y-340346D02*
G54D17*
D03*
G54D16*
G75*
G01X609658Y-516927D02*
G03X609658Y-516927I-5000J0D01*
G01*
G36*
G75*
G01X609658Y-516927D02*
G03X609658Y-516927I-5000J0D01*
G01*
G37*
X609658Y-516927D01*
G36*
X616650Y-809853D02*
X616650Y-785853D01*
X640650Y-785853D01*
X640650Y-809853D01*
X616650Y-809853D01*
G37*
X537421Y-318146D02*
G54D18*
D03*
X537421Y-305446D02*
G54D18*
D03*
X537421Y-292745D02*
G54D18*
D03*
X537421Y-280046D02*
G54D18*
D03*
X269876Y-95535D02*
G54D19*
D03*
X269879Y-112534D02*
G54D19*
D03*
X267900Y-62117D02*
G54D20*
D03*
X287900Y-62117D02*
G54D20*
D03*
X307900Y-62117D02*
G54D20*
D03*
X327900Y-62117D02*
G54D20*
D03*
X347900Y-62117D02*
G54D20*
D03*
X367900Y-62117D02*
G54D20*
D03*
X387900Y-62117D02*
G54D20*
D03*
X407900Y-62087D02*
G54D20*
D03*
G36*
X395129Y-92821D02*
X385936Y-102014D01*
X376037Y-92114D01*
X385229Y-82922D01*
X395129Y-92821D01*
G37*
G36*
X383118Y-104832D02*
X373925Y-114024D01*
X364026Y-104123D01*
X373219Y-94932D01*
X383118Y-104832D01*
G37*
G36*
X314166Y-96393D02*
X304973Y-105585D01*
X295074Y-95686D01*
X304266Y-86493D01*
X314166Y-96393D01*
G37*
G36*
X302153Y-108412D02*
X292959Y-117604D01*
X283061Y-107704D01*
X292254Y-98512D01*
X302153Y-108412D01*
G37*
G36*
X428378Y-147986D02*
X417064Y-136672D01*
X429792Y-123944D01*
X441106Y-135258D01*
X428378Y-147986D01*
G37*
G36*
X417856Y-105397D02*
X406543Y-94083D01*
X419271Y-81355D01*
X430584Y-92669D01*
X417856Y-105397D01*
G37*
X243939Y-100618D02*
G54D21*
D03*
X204648Y-122049D02*
G54D21*
D03*
X185598Y-103792D02*
G54D21*
D03*
X185598Y-122049D02*
G54D21*
D03*
X204648Y-146655D02*
G54D21*
D03*
X185995Y-173246D02*
G54D21*
D03*
X204648Y-171261D02*
G54D21*
D03*
X185598Y-146655D02*
G54D21*
D03*
X205442Y-197852D02*
G54D21*
D03*
G36*
X398806Y-123654D02*
X387493Y-112340D01*
X400221Y-99612D01*
X411534Y-110926D01*
X398806Y-123654D01*
G37*
G36*
X278293Y-344348D02*
X287486Y-335157D01*
X297385Y-345057D01*
X288192Y-354249D01*
X278293Y-344348D01*
G37*
G36*
X290317Y-332329D02*
X299510Y-323137D01*
X309409Y-333036D01*
X300217Y-342229D01*
X290317Y-332329D01*
G37*
X305337Y-307915D02*
G54D22*
D03*
X189405Y-405118D02*
G54D23*
D03*
G36*
X208498Y-344374D02*
X198599Y-334475D01*
X208498Y-324575D01*
X218398Y-334475D01*
X208498Y-344374D01*
G37*
X182552Y-448375D02*
G54D24*
D03*
X172546Y-470370D02*
G54D24*
D03*
X424190Y-170584D02*
G54D25*
D03*
X441414Y-156852D02*
G54D26*
D03*
X539201Y-247247D02*
G54D17*
D03*
X522201Y-247247D02*
G54D17*
D03*
X457480Y-333252D02*
G54D17*
D03*
X440484Y-333248D02*
G54D17*
D03*
X536604Y-364737D02*
G54D27*
D03*
X494059Y-364657D02*
G54D21*
D03*
X561885Y-306636D02*
G54D19*
D03*
X561889Y-289640D02*
G54D19*
D03*
X185201Y-197852D02*
G54D21*
D03*
X561126Y-252248D02*
G54D12*
D03*
X561126Y-271248D02*
G54D12*
D03*
X517951Y-336709D02*
G54D27*
D03*
X498951Y-336709D02*
G54D27*
D03*
X581332Y-273745D02*
G54D12*
D03*
X581332Y-292745D02*
G54D12*
D03*
X483849Y-280045D02*
G54D28*
D03*
X483849Y-292746D02*
G54D28*
D03*
X483849Y-305446D02*
G54D28*
D03*
X483849Y-318145D02*
G54D28*
D03*
X457480Y-351509D02*
G54D17*
D03*
X440484Y-351505D02*
G54D17*
D03*
X574443Y-198034D02*
G54D19*
D03*
X574444Y-215033D02*
G54D19*
D03*
X491327Y-69220D02*
G54D21*
D03*
X314703Y-379028D02*
G54D29*
D03*
X386840Y-487076D02*
G54D17*
D03*
X369840Y-487076D02*
G54D17*
D03*
X440428Y-53238D02*
G54D19*
D03*
X440428Y-70238D02*
G54D19*
D03*
X266471Y-359560D02*
G54D29*
D03*
X465112Y-94987D02*
G54D30*
D03*
X164896Y-370740D02*
G54D21*
D03*
G36*
X241141Y-311732D02*
X231949Y-320924D01*
X222049Y-311024D01*
X231242Y-301832D01*
X241141Y-311732D01*
G37*
G36*
X229117Y-323752D02*
X219924Y-332944D01*
X210025Y-323044D01*
X219218Y-313852D01*
X229117Y-323752D01*
G37*
X198426Y-444406D02*
G54D19*
D03*
X198430Y-427404D02*
G54D19*
D03*
X162546Y-448370D02*
G54D24*
D03*
X233987Y-518007D02*
G54D23*
D03*
X215598Y-517941D02*
G54D23*
D03*
G36*
X434578Y-289800D02*
X445891Y-301114D01*
X434578Y-312428D01*
X423264Y-301114D01*
X434578Y-289800D01*
G37*
G36*
X459184Y-265194D02*
X470498Y-276508D01*
X459184Y-287822D01*
X447870Y-276508D01*
X459184Y-265194D01*
G37*
X149540Y-207514D02*
G54D17*
D03*
X166540Y-207514D02*
G54D17*
D03*
G36*
X775912Y-909787D02*
X775912Y-885578D01*
X765593Y-885578D01*
X765593Y-909787D01*
X775912Y-909787D01*
G37*
G54D16*
X775912Y-909787D02*
X775912Y-885578D01*
X765593Y-885578D01*
X765593Y-909787D01*
X775912Y-909787D01*
G54D16*
X761227Y-914153D02*
X761227Y-872878D01*
X767577Y-866528D01*
X767577Y-853828D01*
X773927Y-853828D01*
X773927Y-866528D01*
X780277Y-872878D01*
X780277Y-914153D01*
X761227Y-914153D01*
G54D31*
X731805Y-927695D02*
X731805Y-982938D01*
X676165Y-837973D02*
G54D12*
D03*
X676162Y-856978D02*
G54D12*
D03*
X676162Y-864966D02*
G54D12*
D03*
X676155Y-883963D02*
G54D12*
D03*
X731805Y-844013D02*
G54D32*
D03*
X719105Y-844012D02*
G54D32*
D03*
X706405Y-844012D02*
G54D32*
D03*
X693705Y-844012D02*
G54D32*
D03*
X693705Y-894012D02*
G54D32*
D03*
X706405Y-894013D02*
G54D32*
D03*
X719105Y-894013D02*
G54D32*
D03*
X731805Y-894013D02*
G54D32*
D03*
G54D31*
X431805Y-927695D02*
X431805Y-982938D01*
X376165Y-837973D02*
G54D12*
D03*
X376162Y-856978D02*
G54D12*
D03*
X376162Y-864966D02*
G54D12*
D03*
X376155Y-883963D02*
G54D12*
D03*
X431805Y-844013D02*
G54D32*
D03*
X419105Y-844012D02*
G54D32*
D03*
X406405Y-844012D02*
G54D32*
D03*
X393705Y-844012D02*
G54D32*
D03*
X393705Y-894012D02*
G54D32*
D03*
X406405Y-894013D02*
G54D32*
D03*
X419105Y-894013D02*
G54D32*
D03*
X431805Y-894013D02*
G54D32*
D03*
G54D16*
G75*
G01X454470Y-886854D02*
G03X483722Y-886854I14626J20888D01*
G01*
G54D16*
G75*
G01X454470Y-872567D02*
G03X483722Y-872567I14626J20889D01*
G01*
G54D16*
X454470Y-886854D02*
X454470Y-872567D01*
G54D16*
X483722Y-886854D02*
X483722Y-872567D01*
G54D16*
G75*
G01X483722Y-872567D02*
G03X454470Y-872567I-14626J-20888D01*
G01*
G54D31*
X881805Y-927695D02*
X881805Y-982938D01*
X826165Y-837973D02*
G54D12*
D03*
X826162Y-856978D02*
G54D12*
D03*
X826162Y-864966D02*
G54D12*
D03*
X826155Y-883963D02*
G54D12*
D03*
G54D33*
X895827Y-832137D02*
X900094Y-840137D01*
X904360Y-832137D01*
G54D33*
X909338Y-831248D02*
X914671Y-825915D01*
X914671Y-840137D01*
G54D33*
X920502Y-840137D02*
X919649Y-840137D01*
X919649Y-839426D01*
X920502Y-839426D01*
X920502Y-840137D01*
X919649Y-840137D01*
G54D33*
X934013Y-828582D02*
X932946Y-826804D01*
X930813Y-825915D01*
X928680Y-825915D01*
X926547Y-826804D01*
X925480Y-828582D01*
X925480Y-833026D01*
X925480Y-833915D01*
X928680Y-832137D01*
X930813Y-832137D01*
X932946Y-833026D01*
X934013Y-834804D01*
X934013Y-837470D01*
X932946Y-839248D01*
X930813Y-840137D01*
X928680Y-840137D01*
X926547Y-839248D01*
X925480Y-837470D01*
X925480Y-833026D01*
X881805Y-844013D02*
G54D32*
D03*
X869105Y-844012D02*
G54D32*
D03*
X856405Y-844012D02*
G54D32*
D03*
X843705Y-844012D02*
G54D32*
D03*
X843705Y-894012D02*
G54D32*
D03*
X856405Y-894013D02*
G54D32*
D03*
X869105Y-894013D02*
G54D32*
D03*
X881805Y-894013D02*
G54D32*
D03*
G54D31*
X581805Y-927695D02*
X581805Y-982938D01*
X526165Y-837973D02*
G54D12*
D03*
X526162Y-856978D02*
G54D12*
D03*
X526162Y-864966D02*
G54D12*
D03*
X526155Y-883963D02*
G54D12*
D03*
X581805Y-844013D02*
G54D32*
D03*
X569105Y-844012D02*
G54D32*
D03*
X556405Y-844012D02*
G54D32*
D03*
X543705Y-844012D02*
G54D32*
D03*
X543705Y-894012D02*
G54D32*
D03*
X556405Y-894013D02*
G54D32*
D03*
X569105Y-894013D02*
G54D32*
D03*
X581805Y-894013D02*
G54D32*
D03*
G54D34*
X634116Y-860792D02*
X629354Y-869041D01*
X625017Y-870203D01*
X619518Y-867028D01*
X618355Y-862691D01*
X623118Y-854442D01*
G54D34*
X622267Y-868616D02*
X614330Y-882364D01*
G54D34*
G75*
G01X623118Y-854442D02*
G03X619092Y-869469I5500J-9527D01*
G01*
G54D34*
G75*
G01X623101Y-871829D02*
G03X634101Y-860829I0J11000D01*
G01*
G54D34*
X613479Y-896538D02*
X618241Y-888289D01*
X617079Y-883952D01*
X611580Y-880776D01*
X607243Y-881939D01*
X602480Y-890188D01*
G54D34*
G75*
G01X613480Y-879188D02*
G03X602480Y-890188I0J-11000D01*
G01*
G54D34*
G75*
G01X613503Y-896506D02*
G03X617529Y-881480I-5500J9526D01*
G01*
G54D34*
X623101Y-871829D02*
X617529Y-881480D01*
G54D34*
X619092Y-869469D02*
X613480Y-879188D01*
G54D31*
X469905Y-938013D02*
X469905Y-973413D01*
G54D31*
X457205Y-938013D02*
X457205Y-973413D01*
G54D31*
X482705Y-938013D02*
X482705Y-973413D01*
G54D31*
X469905Y-938013D02*
X469905Y-973413D01*
G54D31*
X457205Y-938013D02*
X457205Y-973413D01*
G54D31*
X444605Y-938013D02*
X444605Y-973413D01*
G54D31*
X419105Y-938013D02*
X419105Y-973413D01*
G54D31*
X495305Y-938013D02*
X495305Y-973413D01*
G54D31*
X406405Y-938013D02*
X406405Y-973413D01*
G54D31*
X393805Y-938013D02*
X393805Y-973413D01*
G54D31*
X381005Y-938013D02*
X381005Y-973413D01*
G54D31*
X368305Y-938013D02*
X368305Y-973413D01*
G54D31*
X619905Y-938013D02*
X619905Y-973413D01*
G54D31*
X607205Y-938013D02*
X607205Y-973413D01*
G54D31*
X632705Y-938013D02*
X632705Y-973413D01*
G54D31*
X619905Y-938013D02*
X619905Y-973413D01*
G54D31*
X607205Y-938013D02*
X607205Y-973413D01*
G54D31*
X594605Y-938013D02*
X594605Y-973413D01*
G54D31*
X569105Y-938013D02*
X569105Y-973413D01*
G54D31*
X645305Y-938013D02*
X645305Y-973413D01*
G54D31*
X556405Y-938013D02*
X556405Y-973413D01*
G54D31*
X543805Y-938013D02*
X543805Y-973413D01*
G54D31*
X531005Y-938013D02*
X531005Y-973413D01*
G54D31*
X518305Y-938013D02*
X518305Y-973413D01*
G54D31*
X769905Y-938013D02*
X769905Y-973413D01*
G54D31*
X757205Y-938013D02*
X757205Y-973413D01*
G54D31*
X782705Y-938013D02*
X782705Y-973413D01*
G54D31*
X769905Y-938013D02*
X769905Y-973413D01*
G54D31*
X757205Y-938013D02*
X757205Y-973413D01*
G54D31*
X744605Y-938013D02*
X744605Y-973413D01*
G54D31*
X719105Y-938013D02*
X719105Y-973413D01*
G54D31*
X795305Y-938013D02*
X795305Y-973413D01*
G54D31*
X706405Y-938013D02*
X706405Y-973413D01*
G54D31*
X693805Y-938013D02*
X693805Y-973413D01*
G54D31*
X681005Y-938013D02*
X681005Y-973413D01*
G54D31*
X668305Y-938013D02*
X668305Y-973413D01*
G54D31*
X919905Y-938013D02*
X919905Y-973413D01*
G54D31*
X907205Y-938013D02*
X907205Y-973413D01*
G54D31*
X932705Y-938013D02*
X932705Y-973413D01*
G54D31*
X919905Y-938013D02*
X919905Y-973413D01*
G54D31*
X907205Y-938013D02*
X907205Y-973413D01*
G54D31*
X894605Y-938013D02*
X894605Y-973413D01*
G54D31*
X869105Y-938013D02*
X869105Y-973413D01*
G54D31*
X945305Y-938013D02*
X945305Y-973413D01*
G54D31*
X856405Y-938013D02*
X856405Y-973413D01*
G54D31*
X843805Y-938013D02*
X843805Y-973413D01*
G54D31*
X831005Y-938013D02*
X831005Y-973413D01*
G54D31*
X818305Y-938013D02*
X818305Y-973413D01*
G54D33*
X745827Y-832137D02*
X750094Y-840137D01*
X754360Y-832137D01*
G54D33*
X759338Y-831248D02*
X764671Y-825915D01*
X764671Y-840137D01*
G54D33*
X770502Y-840137D02*
X769649Y-840137D01*
X769649Y-839426D01*
X770502Y-839426D01*
X770502Y-840137D01*
X769649Y-840137D01*
G54D33*
X784013Y-828582D02*
X782947Y-826804D01*
X780813Y-825915D01*
X778680Y-825915D01*
X776547Y-826804D01*
X775480Y-828582D01*
X775480Y-833026D01*
X775480Y-833915D01*
X778680Y-832137D01*
X780813Y-832137D01*
X782947Y-833026D01*
X784013Y-834804D01*
X784013Y-837470D01*
X782947Y-839248D01*
X780813Y-840137D01*
X778680Y-840137D01*
X776547Y-839248D01*
X775480Y-837470D01*
X775480Y-833026D01*
G54D33*
X445827Y-832137D02*
X450094Y-840137D01*
X454360Y-832137D01*
G54D33*
X459338Y-831248D02*
X464671Y-825915D01*
X464671Y-840137D01*
G54D33*
X470502Y-840137D02*
X469649Y-840137D01*
X469649Y-839426D01*
X470502Y-839426D01*
X470502Y-840137D01*
X469649Y-840137D01*
G54D33*
X484013Y-828582D02*
X482947Y-826804D01*
X480813Y-825915D01*
X478680Y-825915D01*
X476547Y-826804D01*
X475480Y-828582D01*
X475480Y-833026D01*
X475480Y-833915D01*
X478680Y-832137D01*
X480813Y-832137D01*
X482947Y-833026D01*
X484013Y-834804D01*
X484013Y-837470D01*
X482947Y-839248D01*
X480813Y-840137D01*
X478680Y-840137D01*
X476547Y-839248D01*
X475480Y-837470D01*
X475480Y-833026D01*
G54D33*
X595827Y-832137D02*
X600094Y-840137D01*
X604360Y-832137D01*
G54D33*
X609338Y-831248D02*
X614671Y-825915D01*
X614671Y-840137D01*
G54D33*
X620502Y-840137D02*
X619649Y-840137D01*
X619649Y-839426D01*
X620502Y-839426D01*
X620502Y-840137D01*
X619649Y-840137D01*
G54D33*
X634013Y-828582D02*
X632947Y-826804D01*
X630813Y-825915D01*
X628680Y-825915D01*
X626547Y-826804D01*
X625480Y-828582D01*
X625480Y-833026D01*
X625480Y-833915D01*
X628680Y-832137D01*
X630813Y-832137D01*
X632947Y-833026D01*
X634013Y-834804D01*
X634013Y-837470D01*
X632947Y-839248D01*
X630813Y-840137D01*
X628680Y-840137D01*
X626547Y-839248D01*
X625480Y-837470D01*
X625480Y-833026D01*
G54D31*
X281805Y-927695D02*
X281805Y-982938D01*
X226165Y-837973D02*
G54D12*
D03*
X226162Y-856978D02*
G54D12*
D03*
X226162Y-864966D02*
G54D12*
D03*
X226155Y-883963D02*
G54D12*
D03*
X281805Y-844013D02*
G54D32*
D03*
X269105Y-844012D02*
G54D32*
D03*
X256405Y-844012D02*
G54D32*
D03*
X243705Y-844012D02*
G54D32*
D03*
X243705Y-894012D02*
G54D32*
D03*
X256405Y-894013D02*
G54D32*
D03*
X269105Y-894013D02*
G54D32*
D03*
X281805Y-894013D02*
G54D32*
D03*
G54D31*
X319905Y-938013D02*
X319905Y-973413D01*
G54D31*
X307205Y-938013D02*
X307205Y-973413D01*
G54D31*
X332705Y-938013D02*
X332705Y-973413D01*
G54D31*
X319905Y-938013D02*
X319905Y-973413D01*
G54D31*
X307205Y-938013D02*
X307205Y-973413D01*
G54D31*
X294605Y-938013D02*
X294605Y-973413D01*
G54D31*
X269105Y-938013D02*
X269105Y-973413D01*
G54D31*
X345305Y-938013D02*
X345305Y-973413D01*
G54D31*
X256405Y-938013D02*
X256405Y-973413D01*
G54D31*
X243805Y-938013D02*
X243805Y-973413D01*
G54D31*
X231005Y-938013D02*
X231005Y-973413D01*
G54D31*
X218305Y-938013D02*
X218305Y-973413D01*
G54D33*
X295827Y-832137D02*
X300094Y-840137D01*
X304360Y-832137D01*
G54D33*
X309338Y-831248D02*
X314671Y-825915D01*
X314671Y-840137D01*
G54D33*
X320502Y-840137D02*
X319649Y-840137D01*
X319649Y-839426D01*
X320502Y-839426D01*
X320502Y-840137D01*
X319649Y-840137D01*
G54D33*
X334013Y-828582D02*
X332947Y-826804D01*
X330813Y-825915D01*
X328680Y-825915D01*
X326547Y-826804D01*
X325480Y-828582D01*
X325480Y-833026D01*
X325480Y-833915D01*
X328680Y-832137D01*
X330813Y-832137D01*
X332947Y-833026D01*
X334013Y-834804D01*
X334013Y-837471D01*
X332947Y-839248D01*
X330813Y-840137D01*
X328680Y-840137D01*
X326547Y-839248D01*
X325480Y-837471D01*
X325480Y-833026D01*
G54D31*
X131805Y-927695D02*
X131805Y-982938D01*
X76165Y-837973D02*
G54D12*
D03*
X76162Y-856978D02*
G54D12*
D03*
X76162Y-864966D02*
G54D12*
D03*
X76155Y-883963D02*
G54D12*
D03*
X131805Y-844013D02*
G54D32*
D03*
X119105Y-844012D02*
G54D32*
D03*
X106405Y-844012D02*
G54D32*
D03*
X93705Y-844012D02*
G54D32*
D03*
X93705Y-894012D02*
G54D32*
D03*
X106405Y-894013D02*
G54D32*
D03*
X119105Y-894013D02*
G54D32*
D03*
X131805Y-894013D02*
G54D32*
D03*
G54D31*
X169905Y-938013D02*
X169905Y-973413D01*
G54D31*
X157205Y-938013D02*
X157205Y-973413D01*
G54D31*
X182705Y-938013D02*
X182705Y-973413D01*
G54D31*
X169905Y-938013D02*
X169905Y-973413D01*
G54D31*
X157205Y-938013D02*
X157205Y-973413D01*
G54D31*
X144605Y-938013D02*
X144605Y-973413D01*
G54D31*
X119105Y-938013D02*
X119105Y-973413D01*
G54D31*
X195305Y-938013D02*
X195305Y-973413D01*
G54D31*
X106405Y-938013D02*
X106405Y-973413D01*
G54D31*
X93805Y-938013D02*
X93805Y-973413D01*
G54D31*
X81005Y-938013D02*
X81005Y-973413D01*
G54D31*
X68305Y-938013D02*
X68305Y-973413D01*
G54D33*
X145827Y-832137D02*
X150094Y-840137D01*
X154360Y-832137D01*
G54D33*
X159338Y-831248D02*
X164671Y-825915D01*
X164671Y-840137D01*
G54D33*
X170502Y-840137D02*
X169649Y-840137D01*
X169649Y-839426D01*
X170502Y-839426D01*
X170502Y-840137D01*
X169649Y-840137D01*
G54D33*
X184013Y-828582D02*
X182946Y-826804D01*
X180813Y-825915D01*
X178680Y-825915D01*
X176546Y-826804D01*
X175480Y-828582D01*
X175480Y-833026D01*
X175480Y-833915D01*
X178680Y-832137D01*
X180813Y-832137D01*
X182946Y-833026D01*
X184013Y-834804D01*
X184013Y-837470D01*
X182946Y-839248D01*
X180813Y-840137D01*
X178680Y-840137D01*
X176546Y-839248D01*
X175480Y-837470D01*
X175480Y-833026D01*
X475015Y-351269D02*
G54D19*
D03*
X475019Y-334273D02*
G54D19*
D03*
X502689Y-255184D02*
G54D19*
D03*
X502689Y-238184D02*
G54D19*
D03*
X465112Y-54556D02*
G54D12*
D03*
X465112Y-73556D02*
G54D12*
D03*
G36*
X171546Y-888753D02*
X171546Y-901453D01*
X163609Y-901453D01*
X163609Y-888753D01*
X150909Y-888753D01*
X150909Y-880816D01*
X163609Y-880816D01*
X163609Y-868116D01*
X171546Y-868116D01*
X171546Y-880816D01*
X184247Y-880816D01*
X184247Y-888753D01*
X171546Y-888753D01*
G37*
G54D34*
X171546Y-888753D02*
X171546Y-901453D01*
X163609Y-901453D01*
X163609Y-888753D01*
X150909Y-888753D01*
X150909Y-880816D01*
X163609Y-880816D01*
X163609Y-868116D01*
X171546Y-868116D01*
X171546Y-880816D01*
X184247Y-880816D01*
X184247Y-888753D01*
X171546Y-888753D01*
X557175Y-583473D02*
G54D35*
D03*
X577016Y-583316D02*
G54D35*
D03*
X441414Y-169552D02*
G54D26*
D03*
X410696Y-172965D02*
G54D36*
D03*
X410696Y-192965D02*
G54D36*
D03*
G54D37*
X310340Y-285939D02*
X310337Y-297915D01*
G54D37*
X300339Y-285939D02*
X300337Y-297915D01*
X149540Y-189257D02*
G54D17*
D03*
X166540Y-189257D02*
G54D17*
D03*
X165184Y-154484D02*
G54D19*
D03*
X165184Y-171484D02*
G54D19*
D03*
X252184Y-376626D02*
G54D19*
D03*
X252181Y-393628D02*
G54D19*
D03*
X234325Y-376626D02*
G54D19*
D03*
X234322Y-393628D02*
G54D19*
D03*
X252184Y-410757D02*
G54D19*
D03*
X252181Y-427759D02*
G54D19*
D03*
X234325Y-410757D02*
G54D19*
D03*
X234322Y-427759D02*
G54D19*
D03*
X215604Y-481499D02*
G54D19*
D03*
X215598Y-498504D02*
G54D19*
D03*
X233990Y-481569D02*
G54D19*
D03*
X233987Y-498570D02*
G54D19*
D03*
X215880Y-376647D02*
G54D19*
D03*
X215877Y-393649D02*
G54D19*
D03*
X215877Y-410948D02*
G54D19*
D03*
X215874Y-427950D02*
G54D19*
D03*
X216333Y-463550D02*
G54D17*
D03*
X199328Y-463543D02*
G54D17*
D03*
X234489Y-445694D02*
G54D17*
D03*
X217487Y-445691D02*
G54D17*
D03*
G54D16*
X308052Y-882403D02*
X308052Y-857003D01*
X314402Y-857003D01*
X314402Y-882403D01*
G54D16*
X323927Y-882403D02*
X323927Y-857003D01*
X330277Y-857003D01*
X330277Y-882403D01*
G36*
X308052Y-907803D02*
X308052Y-882403D01*
X314402Y-882403D01*
X314402Y-907803D01*
X308052Y-907803D01*
G37*
G54D16*
X308052Y-907803D02*
X308052Y-882403D01*
X314402Y-882403D01*
X314402Y-907803D01*
X308052Y-907803D01*
G36*
X323927Y-907803D02*
X323927Y-882403D01*
X330277Y-882403D01*
X330277Y-907803D01*
X323927Y-907803D01*
G37*
G54D16*
X323927Y-907803D02*
X323927Y-882403D01*
X330277Y-882403D01*
X330277Y-907803D01*
X323927Y-907803D01*
G54D38*
X917010Y-891952D02*
X917010Y-887786D01*
X919232Y-886397D01*
X923677Y-885008D01*
X925899Y-882230D01*
X925899Y-879452D01*
X923677Y-876674D01*
X919232Y-875286D01*
X914788Y-875286D01*
X910343Y-876674D01*
X908121Y-879452D01*
G54D38*
X917010Y-897508D02*
X917010Y-897508D01*
G54D16*
G75*
G01X936181Y-886397D02*
G03X936181Y-886397I-19000J0D01*
G01*
X328990Y-379028D02*
G54D29*
D03*
G54D39*
X466988Y-373290D02*
X474488Y-373290D01*
G54D39*
X470738Y-369540D02*
X470738Y-377040D01*
G54D39*
X554488Y-373290D02*
X561988Y-373290D01*
X165534Y-266496D02*
G54D23*
D03*
X185534Y-266496D02*
G54D23*
D03*
X165534Y-286893D02*
G54D23*
D03*
X185534Y-286893D02*
G54D23*
D03*
X165534Y-307290D02*
G54D23*
D03*
X164896Y-326340D02*
G54D12*
D03*
X164896Y-345340D02*
G54D12*
D03*
X208359Y-204152D02*
G54D40*
D03*
X180439Y-188327D02*
G54D40*
D03*
X130175Y-288290D02*
G54D23*
D03*
X111175Y-288290D02*
G54D23*
D03*
X22468Y-231000D02*
G54D41*
D03*
X22468Y-256500D02*
G54D41*
D03*
X22468Y-282000D02*
G54D41*
D03*
X22468Y-307500D02*
G54D41*
D03*
X22468Y-333000D02*
G54D41*
D03*
X22468Y-358500D02*
G54D41*
D03*
X64744Y-231000D02*
G54D41*
D03*
X64743Y-256500D02*
G54D41*
D03*
X64743Y-307500D02*
G54D41*
D03*
X64743Y-333000D02*
G54D41*
D03*
X64743Y-358499D02*
G54D41*
D03*
X44743Y-243750D02*
G54D41*
D03*
X44743Y-269250D02*
G54D41*
D03*
X44743Y-345750D02*
G54D41*
D03*
X84745Y-243750D02*
G54D41*
D03*
X84745Y-269250D02*
G54D41*
D03*
X84743Y-345750D02*
G54D41*
D03*
X44743Y-320250D02*
G54D41*
D03*
X84744Y-320250D02*
G54D41*
D03*
X64742Y-282000D02*
G54D41*
D03*
G36*
X42607Y-576674D02*
X10607Y-576674D01*
X10607Y-544674D01*
X42607Y-544674D01*
X42607Y-576674D01*
G37*
G54D16*
G75*
G01X29115Y-535556D02*
G03X29115Y-535556I-6000J0D01*
G01*
G36*
G75*
G01X29115Y-535556D02*
G03X29115Y-535556I-6000J0D01*
G01*
G37*
X29115Y-535556D01*
X129602Y-535555D02*
G54D26*
D03*
X129602Y-515555D02*
G54D26*
D03*
X129602Y-495555D02*
G54D26*
D03*
X126952Y-455555D02*
G54D26*
D03*
X29465Y-495556D02*
G54D26*
D03*
X29465Y-475556D02*
G54D26*
D03*
X29465Y-455556D02*
G54D26*
D03*
X29465Y-535556D02*
G54D26*
D03*
X135952Y-455555D02*
G54D42*
D03*
X135952Y-495555D02*
G54D42*
D03*
X135952Y-515555D02*
G54D42*
D03*
X135952Y-535555D02*
G54D42*
D03*
G54D16*
G75*
G01X140952Y-495555D02*
G03X140952Y-495555I-5000J0D01*
G01*
G36*
G75*
G01X140952Y-495555D02*
G03X140952Y-495555I-5000J0D01*
G01*
G37*
X140952Y-495555D01*
G54D16*
G75*
G01X140952Y-515555D02*
G03X140952Y-515555I-5000J0D01*
G01*
G36*
G75*
G01X140952Y-515555D02*
G03X140952Y-515555I-5000J0D01*
G01*
G37*
X140952Y-515555D01*
G54D16*
G75*
G01X140952Y-515555D02*
G03X140952Y-515555I-5000J0D01*
G01*
G36*
G75*
G01X140952Y-515555D02*
G03X140952Y-515555I-5000J0D01*
G01*
G37*
X140952Y-515555D01*
G54D16*
G75*
G01X28115Y-495556D02*
G03X28115Y-495556I-5000J0D01*
G01*
G36*
G75*
G01X28115Y-495556D02*
G03X28115Y-495556I-5000J0D01*
G01*
G37*
X28115Y-495556D01*
G54D16*
G75*
G01X140952Y-455555D02*
G03X140952Y-455555I-5000J0D01*
G01*
G36*
G75*
G01X140952Y-455555D02*
G03X140952Y-455555I-5000J0D01*
G01*
G37*
X140952Y-455555D01*
G54D16*
G75*
G01X28115Y-475556D02*
G03X28115Y-475556I-5000J0D01*
G01*
G36*
G75*
G01X28115Y-475556D02*
G03X28115Y-475556I-5000J0D01*
G01*
G37*
X28115Y-475556D01*
G54D16*
G75*
G01X28115Y-455556D02*
G03X28115Y-455556I-5000J0D01*
G01*
G36*
G75*
G01X28115Y-455556D02*
G03X28115Y-455556I-5000J0D01*
G01*
G37*
X28115Y-455556D01*
G54D16*
G75*
G01X140952Y-535555D02*
G03X140952Y-535555I-5000J0D01*
G01*
G36*
G75*
G01X140952Y-535555D02*
G03X140952Y-535555I-5000J0D01*
G01*
G37*
X140952Y-535555D01*
X23115Y-455556D02*
G54D42*
D03*
X23115Y-475556D02*
G54D42*
D03*
X23115Y-495556D02*
G54D42*
D03*
X23115Y-535556D02*
G54D42*
D03*
G54D16*
G75*
G01X28115Y-535556D02*
G03X28115Y-535556I-5000J0D01*
G01*
G36*
G75*
G01X28115Y-535556D02*
G03X28115Y-535556I-5000J0D01*
G01*
G37*
X28115Y-535556D01*
X237234Y-20377D02*
G54D43*
D03*
X262635Y-20377D02*
G54D43*
D03*
X288035Y-20377D02*
G54D43*
D03*
X313435Y-20377D02*
G54D43*
D03*
X338835Y-20377D02*
G54D43*
D03*
X364235Y-20377D02*
G54D43*
D03*
X389635Y-20377D02*
G54D43*
D03*
X415035Y-20377D02*
G54D43*
D03*
X305340Y-646096D02*
G54D44*
D03*
X373340Y-646096D02*
G54D44*
D03*
X373340Y-692096D02*
G54D44*
D03*
X305340Y-692096D02*
G54D44*
D03*
X305340Y-746096D02*
G54D44*
D03*
X373340Y-746096D02*
G54D44*
D03*
X373340Y-792096D02*
G54D44*
D03*
X305340Y-792096D02*
G54D44*
D03*
X405340Y-646096D02*
G54D44*
D03*
X473340Y-646096D02*
G54D44*
D03*
X473340Y-692096D02*
G54D44*
D03*
X405340Y-692096D02*
G54D44*
D03*
X205340Y-646096D02*
G54D44*
D03*
X273340Y-646096D02*
G54D44*
D03*
X273340Y-692096D02*
G54D44*
D03*
X205340Y-692096D02*
G54D44*
D03*
X305340Y-546096D02*
G54D44*
D03*
X373340Y-546096D02*
G54D44*
D03*
X373340Y-592096D02*
G54D44*
D03*
X305340Y-592096D02*
G54D44*
D03*
G54D45*
X628650Y-797853D02*
X628650Y-360363D01*
X844085Y-120526D02*
G54D46*
D03*
X844085Y-127026D02*
G54D46*
D03*
X844085Y-133526D02*
G54D46*
D03*
X844085Y-140026D02*
G54D46*
D03*
X844085Y-146526D02*
G54D46*
D03*
X844085Y-153026D02*
G54D46*
D03*
X844085Y-159526D02*
G54D46*
D03*
X844085Y-166026D02*
G54D46*
D03*
X844085Y-172526D02*
G54D46*
D03*
X844085Y-179026D02*
G54D46*
D03*
X901585Y-120526D02*
G54D46*
D03*
X901585Y-127026D02*
G54D46*
D03*
X901585Y-133526D02*
G54D46*
D03*
X901585Y-140026D02*
G54D46*
D03*
X901585Y-146526D02*
G54D46*
D03*
X901585Y-153026D02*
G54D46*
D03*
X901585Y-159526D02*
G54D46*
D03*
X901585Y-166026D02*
G54D46*
D03*
X901585Y-172526D02*
G54D46*
D03*
X901585Y-179026D02*
G54D46*
D03*
X939254Y-218108D02*
G54D47*
D03*
X924175Y-218106D02*
G54D47*
D03*
X909888Y-218106D02*
G54D47*
D03*
X895600Y-218106D02*
G54D47*
D03*
X881312Y-218106D02*
G54D47*
D03*
X867022Y-218108D02*
G54D47*
D03*
X852737Y-218106D02*
G54D47*
D03*
X838450Y-218106D02*
G54D47*
D03*
X792962Y-247475D02*
G54D25*
D03*
X770968Y-237470D02*
G54D25*
D03*
X792968Y-227470D02*
G54D25*
D03*
X752644Y-230475D02*
G54D19*
D03*
X752644Y-247475D02*
G54D19*
D03*
X812242Y-225232D02*
G54D19*
D03*
X812242Y-242232D02*
G54D19*
D03*
X729719Y-214106D02*
G54D48*
D03*
X729719Y-243475D02*
G54D48*
D03*
X815762Y-170482D02*
G54D17*
D03*
X798762Y-170482D02*
G54D17*
D03*
X811794Y-193500D02*
G54D17*
D03*
X794794Y-193500D02*
G54D17*
D03*
X955129Y-218108D02*
G54D47*
D03*
X938462Y-196488D02*
G54D17*
D03*
X955462Y-196488D02*
G54D17*
D03*
X938462Y-178419D02*
G54D17*
D03*
X955462Y-178419D02*
G54D17*
D03*
X921794Y-146352D02*
G54D49*
D03*
X772569Y-25225D02*
G54D50*
D03*
X840569Y-25225D02*
G54D50*
D03*
X840569Y-71225D02*
G54D50*
D03*
X772569Y-71225D02*
G54D50*
D03*
X680246Y-223172D02*
G54D51*
D03*
X680246Y-148026D02*
G54D52*
D03*
X680246Y-198826D02*
G54D52*
D03*
X680246Y-131826D02*
G54D53*
D03*
X754775Y-127309D02*
G54D24*
D03*
X744769Y-149304D02*
G54D24*
D03*
X734769Y-127304D02*
G54D24*
D03*
G36*
X787731Y-151365D02*
X778538Y-142172D01*
X788438Y-132273D01*
X797630Y-141465D01*
X787731Y-151365D01*
G37*
G36*
X775710Y-139344D02*
X766517Y-130152D01*
X776417Y-120252D01*
X785609Y-129444D01*
X775710Y-139344D01*
G37*
X782094Y-96663D02*
G54D49*
D03*
X804319Y-96663D02*
G54D49*
D03*
X826544Y-96663D02*
G54D49*
D03*
X973303Y-76917D02*
G54D54*
D03*
X973303Y-102316D02*
G54D54*
D03*
X943226Y-146352D02*
G54D49*
D03*
X811719Y-209707D02*
G54D29*
D03*
X741205Y-81506D02*
G54D55*
D03*
X728505Y-81506D02*
G54D55*
D03*
X715805Y-81506D02*
G54D55*
D03*
X703105Y-81506D02*
G54D55*
D03*
X743411Y-105646D02*
G54D17*
D03*
G36*
X753911Y-98646D02*
X766911Y-98646D01*
X766911Y-112646D01*
X753911Y-112646D01*
X753911Y-98646D01*
G37*
X671520Y-81506D02*
G54D54*
D03*
X671520Y-56106D02*
G54D54*
D03*
X936790Y-76917D02*
G54D54*
D03*
X936790Y-102316D02*
G54D54*
D03*
X867022Y-198800D02*
G54D17*
D03*
X850022Y-198800D02*
G54D17*
D03*
X872582Y-60150D02*
G54D49*
D03*
X872582Y-87138D02*
G54D49*
D03*
X876969Y-446738D02*
G54D56*
D03*
X870469Y-446738D02*
G54D56*
D03*
X863969Y-446738D02*
G54D56*
D03*
X857469Y-446738D02*
G54D56*
D03*
X850969Y-446738D02*
G54D56*
D03*
X844469Y-446738D02*
G54D56*
D03*
X837969Y-446738D02*
G54D56*
D03*
X831469Y-446738D02*
G54D56*
D03*
X824969Y-446738D02*
G54D56*
D03*
X818469Y-446738D02*
G54D56*
D03*
X876969Y-504238D02*
G54D56*
D03*
X870469Y-504238D02*
G54D56*
D03*
X863969Y-504238D02*
G54D56*
D03*
X857469Y-504238D02*
G54D56*
D03*
X850969Y-504238D02*
G54D56*
D03*
X844469Y-504238D02*
G54D56*
D03*
X837969Y-504238D02*
G54D56*
D03*
X831469Y-504238D02*
G54D56*
D03*
X824970Y-504238D02*
G54D56*
D03*
X818469Y-504238D02*
G54D56*
D03*
X775613Y-537144D02*
G54D57*
D03*
X775614Y-522065D02*
G54D57*
D03*
X775615Y-507778D02*
G54D57*
D03*
X775614Y-493490D02*
G54D57*
D03*
X775614Y-479202D02*
G54D57*
D03*
X775613Y-464912D02*
G54D57*
D03*
X775614Y-450627D02*
G54D57*
D03*
X775614Y-436340D02*
G54D57*
D03*
X848747Y-395938D02*
G54D19*
D03*
X848747Y-378938D02*
G54D19*
D03*
X847404Y-531742D02*
G54D17*
D03*
X830404Y-531742D02*
G54D17*
D03*
X795992Y-464912D02*
G54D19*
D03*
X795992Y-447912D02*
G54D19*
D03*
X875259Y-571595D02*
G54D19*
D03*
X857796Y-571595D02*
G54D19*
D03*
X876969Y-522938D02*
G54D58*
D03*
X897607Y-522938D02*
G54D58*
D03*
X923007Y-340193D02*
G54D54*
D03*
X897607Y-340193D02*
G54D54*
D03*
X923006Y-594193D02*
G54D54*
D03*
X897607Y-594193D02*
G54D54*
D03*
X968349Y-390284D02*
G54D50*
D03*
X968349Y-458284D02*
G54D50*
D03*
X922348Y-458284D02*
G54D50*
D03*
X922348Y-390284D02*
G54D50*
D03*
X883319Y-384825D02*
G54D58*
D03*
X810294Y-530875D02*
G54D58*
D03*
X832326Y-395938D02*
G54D19*
D03*
X832327Y-378938D02*
G54D19*
D03*
X846076Y-356124D02*
G54D59*
D03*
X806076Y-356124D02*
G54D59*
D03*
X816451Y-378938D02*
G54D19*
D03*
X816451Y-395938D02*
G54D19*
D03*
X864178Y-379070D02*
G54D19*
D03*
X864177Y-396070D02*
G54D19*
D03*
X834446Y-334951D02*
G54D17*
D03*
X817446Y-334951D02*
G54D17*
D03*
X834446Y-316853D02*
G54D17*
D03*
X817446Y-316853D02*
G54D17*
D03*
X798588Y-316853D02*
G54D19*
D03*
X798588Y-333853D02*
G54D19*
D03*
X858420Y-325284D02*
G54D60*
D03*
X772695Y-325284D02*
G54D60*
D03*
X705583Y-575145D02*
G54D24*
D03*
X715589Y-553150D02*
G54D24*
D03*
X725588Y-575150D02*
G54D24*
D03*
X722583Y-534826D02*
G54D17*
D03*
X705583Y-534826D02*
G54D17*
D03*
X727826Y-596013D02*
G54D17*
D03*
X710826Y-596012D02*
G54D17*
D03*
X738952Y-511902D02*
G54D48*
D03*
X709583Y-511902D02*
G54D48*
D03*
X708790Y-455619D02*
G54D51*
D03*
X708790Y-380474D02*
G54D61*
D03*
X708790Y-431274D02*
G54D61*
D03*
X708790Y-364274D02*
G54D53*
D03*
X777267Y-372588D02*
G54D25*
D03*
X755272Y-362582D02*
G54D25*
D03*
X777272Y-352582D02*
G54D25*
D03*
X800576Y-378938D02*
G54D19*
D03*
X800576Y-395938D02*
G54D19*
D03*
X775613Y-562540D02*
G54D12*
D03*
X775613Y-587891D02*
G54D12*
D03*
X875258Y-549435D02*
G54D62*
D03*
X857796Y-549435D02*
G54D62*
D03*
X890432Y-446738D02*
G54D19*
D03*
X890432Y-463738D02*
G54D19*
D03*
X783617Y-410688D02*
G54D25*
D03*
X761622Y-400682D02*
G54D25*
D03*
X783622Y-390682D02*
G54D25*
D03*
X783616Y-420213D02*
G54D17*
D03*
G36*
X794117Y-413213D02*
X807117Y-413213D01*
X807117Y-427213D01*
X794117Y-427213D01*
X794117Y-413213D01*
G37*
X764257Y-418163D02*
G54D58*
D03*
X957739Y-495674D02*
G54D32*
D03*
X945039Y-495674D02*
G54D32*
D03*
X932339Y-495674D02*
G54D32*
D03*
X919639Y-495674D02*
G54D32*
D03*
X919639Y-545674D02*
G54D32*
D03*
X932339Y-545674D02*
G54D32*
D03*
X945039Y-545674D02*
G54D32*
D03*
X957739Y-545674D02*
G54D32*
D03*
X901025Y-545951D02*
G54D12*
D03*
X901025Y-572095D02*
G54D12*
D03*
X840936Y-559183D02*
G54D17*
D03*
X823936Y-559182D02*
G54D17*
D03*
X890432Y-487882D02*
G54D19*
D03*
X890432Y-470882D02*
G54D19*
D03*
X958487Y-309022D02*
G54D63*
D03*
X675912Y-626522D02*
G54D63*
D03*
X675912Y-309022D02*
G54D63*
D03*
X958487Y-626522D02*
G54D63*
D03*
X883625Y-359227D02*
G54D19*
D03*
X883624Y-376226D02*
G54D19*
D03*
G54D31*
X828619Y-773684D02*
X793219Y-773684D01*
G54D31*
X828619Y-760984D02*
X793219Y-760984D01*
G54D31*
X828619Y-786484D02*
X793219Y-786484D01*
G54D31*
X828619Y-773684D02*
X793219Y-773684D01*
G54D31*
X828619Y-760984D02*
X793219Y-760984D01*
G54D31*
X828619Y-748384D02*
X793219Y-748384D01*
G54D31*
X828619Y-722884D02*
X793219Y-722884D01*
G54D31*
X828619Y-799084D02*
X793219Y-799084D01*
G54D31*
X828619Y-710184D02*
X793219Y-710184D01*
G54D31*
X828619Y-697584D02*
X793219Y-697584D01*
G54D31*
X828619Y-684784D02*
X793219Y-684784D01*
G54D31*
X828619Y-672084D02*
X793219Y-672084D01*
X909874Y-687944D02*
G54D44*
D03*
X909874Y-713344D02*
G54D44*
D03*
X909874Y-738744D02*
G54D44*
D03*
X909874Y-764144D02*
G54D44*
D03*
X909874Y-789544D02*
G54D44*
D03*
M02*
