; Drill file
; Format: 2.4 (00.0000)
M48
INCH
T01C0.0157
T02C0.0197
T03C0.0236
T04C0.0276
T05C0.0315
T06C0.0354
T07C0.0394
T08C0.0413
T09C0.0551
T10C0.0787
T11C0.0984
%
G05
G90
T01
X007380Y-012100
X007770Y-011290
X007790Y-010890
X007800Y-010490
X007830Y-010080
X010060Y-010350
X010810Y-010350
X011810Y-010350
X012810Y-010350
X013810Y-010350
X013810Y-009350
X012810Y-009350
X011810Y-009350
X010810Y-009350
X010060Y-009350
X012810Y-008350
X013810Y-008350
X013810Y-007350
X013810Y-006350
X012810Y-006350
X011810Y-006350
X010810Y-006350
X009910Y-006350
X012810Y-007350
X014810Y-007350
X014810Y-008350
X014810Y-009350
X014810Y-010350
X014810Y-006350
T02
X005190Y-035930
X002690Y-032460
X002690Y-029000
X005810Y-029000
X007560Y-030630
X007690Y-032460
X008590Y-032460
X009560Y-028630
X013310Y-028250
X013190Y-024380
X011190Y-024000
X010720Y-021840
X009890Y-021130
X011200Y-019280
X010270Y-017630
X009330Y-018210
X007850Y-018940
X011180Y-015560
X011600Y-014980
X013200Y-014420
X013470Y-015040
X013870Y-014860
X014600Y-014330
X015440Y-014280
X016290Y-015470
X018090Y-014830
X018020Y-016470
X018700Y-016790
X019210Y-017160
X020000Y-017940
X019620Y-015880
X020690Y-015880
X020140Y-014810
X020310Y-014030
X020060Y-011660
X019460Y-010590
X018720Y-010320
X018100Y-010040
X016340Y-011580
X015330Y-011300
X018500Y-007480
X018840Y-006910
X019340Y-006930
X019550Y-007320
X019600Y-007840
X020110Y-008460
X020690Y-007810
X021840Y-009290
X023850Y-008390
X022070Y-004300
X019320Y-003800
X017830Y-005960
X017830Y-006430
X015900Y-005130
X013910Y-003110
X013500Y-003030
X010550Y-003030
X009110Y-002680
X008920Y-004250
X006240Y-004250
X006230Y-002680
X005360Y-001810
X004610Y-004180
X004630Y-004810
X004630Y-005560
X004740Y-006760
X007100Y-007410
X008200Y-008040
X008750Y-007910
X008750Y-007470
X005780Y-010340
X004500Y-012190
X004120Y-011940
X008280Y-012220
X007960Y-013720
X009910Y-011820
X013070Y-016580
X013420Y-017630
X012630Y-017630
X014490Y-017090
X014190Y-016230
X015440Y-018490
X013720Y-019680
X013260Y-021000
X012690Y-022230
X015430Y-022360
X017440Y-023750
X018190Y-021750
X019810Y-021750
X021310Y-022190
X022190Y-021190
X022720Y-021830
X022010Y-020110
X022220Y-018780
X024270Y-019170
X022950Y-015740
X023680Y-014560
X024210Y-014860
X022960Y-014340
X023590Y-013340
X022730Y-012830
X027910Y-015980
X028960Y-016020
X029090Y-013330
X034210Y-014140
X034960Y-012520
X037150Y-014390
X035590Y-016830
X034530Y-018210
X034530Y-018580
X034530Y-018960
X033900Y-018960
X033900Y-018580
X033900Y-018210
X032840Y-018270
X032340Y-018270
X032900Y-021460
X032900Y-022640
X034150Y-023520
X031340Y-022640
X029590Y-022640
X028710Y-024580
X027280Y-021710
X021690Y-026380
X021440Y-029000
X023440Y-030940
X025410Y-032460
X026310Y-032460
X028810Y-035930
X031310Y-032460
X032220Y-032460
X034720Y-035930
X037220Y-032460
X037100Y-031460
X037100Y-026460
X038150Y-023080
X036960Y-020330
X037280Y-018520
X019120Y-020190
X018560Y-031380
X019500Y-032460
X020410Y-032460
X022910Y-035930
X017000Y-035930
X014500Y-032460
X013590Y-032460
X011090Y-035930
X007940Y-024130
X003690Y-025130
X001690Y-024380
X003880Y-022230
X002940Y-017130
X001310Y-007500
X002690Y-003130
X007820Y-000800
X018570Y-000800
T03
X000910Y-021080
X000910Y-019510
X000910Y-018720
X000910Y-017940
X000880Y-014110
X000880Y-013110
X000880Y-012110
X000880Y-011100
X000880Y-010100
X000880Y-009090
X001760Y-009600
X002550Y-010100
X001760Y-010600
X002550Y-011100
X003340Y-010600
X003340Y-009600
X002550Y-009090
X002550Y-012110
X001760Y-012610
X002550Y-013110
X003340Y-013610
X002550Y-014110
X001760Y-013610
X003340Y-012610
X005350Y-017940
X005350Y-019510
X005350Y-020300
X005350Y-021080
X022760Y-009660
T04
X023870Y-011540
X023870Y-009960
T05
X036310Y-018040
X038120Y-018040
X038120Y-015370
X036310Y-015370
X033090Y-002800
X033090Y-000990
X030420Y-000990
X030420Y-002800
T06
X012020Y-031180
X012020Y-029370
X012020Y-027250
X010760Y-027250
X010760Y-025440
X012020Y-025440
X012020Y-023310
X012020Y-021500
X014700Y-021500
X014700Y-023310
X014700Y-025440
X015960Y-025440
X015960Y-027250
X014700Y-027250
X014700Y-029370
X014700Y-031180
X018640Y-027250
X018640Y-025440
X008080Y-025440
X008080Y-027250
X035340Y-023390
X036340Y-023390
X035820Y-027080
X035820Y-028080
X035820Y-029080
X035820Y-030080
X035820Y-031080
X035340Y-013390
X036340Y-013390
X036880Y-004030
X036880Y-003030
X038320Y-003030
X038320Y-004030
X026440Y-003210
X026440Y-002210
T07
X027910Y-016980
X027910Y-014980
X026780Y-007830
X026780Y-005830
X016340Y-000800
X015340Y-000800
X014340Y-000800
X013340Y-000800
X012340Y-000800
X011340Y-000800
X010340Y-000800
X009340Y-000800
T08
X001050Y-022070
X024750Y-031410
T09
X021500Y-019170
T10
X026610Y-024670
X037740Y-024670
X037740Y-012170
X026610Y-012170
T11
X002900Y-006280
X022590Y-006280
M30
