; Drill file
; Format: 2.4 (00.0000)
M48
INCH
T01C0.0157
T02C0.0197
T03C0.0236
T04C0.0276
T05C0.0354
T06C0.0413
T07C0.063
T08C0.0984
%
G05
G90
T01
X005890Y030220
X006640Y030220
X007640Y030220
X008640Y030220
X009640Y030220
X009640Y031220
X008640Y031220
X007640Y031220
X006640Y031220
X005890Y031220
X008640Y032220
X009640Y032220
X009640Y033220
X009640Y034220
X008640Y034220
X007640Y034220
X006640Y034220
X005740Y034220
X008640Y033220
X010640Y033220
X010640Y032220
X010640Y031220
X010640Y030220
X010640Y034220
T02
X004520Y003540
X002270Y007010
X001810Y008220
X005320Y008150
X007270Y007010
X008170Y007010
X010420Y003540
X013170Y007010
X014080Y007010
X013350Y008100
X017370Y008070
X019080Y007010
X019980Y007010
X022230Y003540
X024980Y007010
X025640Y007010
X028140Y003540
X030640Y007010
X031540Y007010
X034040Y003540
X036540Y007010
X034040Y010630
X036540Y014100
X031540Y014100
X030640Y014100
X028140Y010630
X025640Y014100
X024560Y013690
X023470Y013610
X022270Y013590
X020460Y011820
X017370Y013150
X013350Y013180
X011260Y018210
X009090Y019570
X008150Y020790
X009150Y021290
X010320Y022970
X011270Y022080
X010010Y024330
X008900Y023990
X009300Y025530
X009700Y025710
X009030Y026150
X010430Y026240
X011270Y026290
X012120Y025100
X013920Y025740
X013840Y024090
X014530Y023780
X015040Y023410
X015830Y022630
X015450Y024690
X016510Y024690
X015960Y025750
X016140Y026540
X015880Y028910
X015290Y029970
X014550Y030250
X013930Y030530
X012170Y029050
X014320Y033090
X014670Y033660
X015170Y033640
X015380Y033250
X015430Y032730
X013660Y034140
X013660Y034610
X012420Y035940
X017890Y036270
X019680Y032180
X022270Y029940
X023470Y029960
X024560Y030040
X025640Y028270
X028140Y024800
X030640Y028270
X031540Y028270
X034040Y024800
X036540Y028270
X034040Y031880
X031540Y035360
X030640Y035360
X028140Y031880
X025640Y035360
X019420Y027220
X018560Y027740
X018790Y026220
X019500Y026010
X020420Y026150
X018780Y024830
X018040Y021790
X017840Y020460
X018130Y018550
X018910Y018550
X020460Y016900
X020360Y021410
X022270Y021770
X023470Y021780
X024560Y021860
X025640Y021180
X028140Y017710
X030640Y021180
X031540Y021180
X036540Y021180
X036540Y035360
X014950Y020380
X015640Y018820
X014010Y018820
X007030Y021290
X005160Y022360
X003680Y021630
X002930Y020490
X005710Y019440
X002440Y023820
X002440Y025100
X003230Y026880
X005550Y028690
X007430Y025580
X007010Y025010
X004580Y032660
X004580Y033090
X005370Y035550
X003670Y037470
X005270Y038180
X002290Y035270
X001810Y013300
X005320Y013220
X016330Y003540
T03
X001310Y008760
X002310Y008760
X003310Y008760
X004320Y008760
X005320Y008760
X006330Y008760
X007330Y008760
X008330Y008760
X009340Y008760
X010340Y008760
X011350Y008760
X012350Y008760
X013350Y008760
X014360Y008760
X015360Y008760
X016370Y008760
X017370Y008760
X018370Y008760
X019380Y008760
X020380Y008760
X019880Y009640
X019380Y010430
X018880Y011210
X018370Y010430
X017870Y011210
X017370Y010430
X017870Y009640
X018880Y009640
X020380Y010430
X019880Y011210
X020380Y013840
X019380Y013840
X018370Y013840
X017370Y013840
X016370Y013840
X015360Y013840
X014360Y013840
X013350Y013840
X012350Y013840
X011350Y013840
X010340Y013840
X009340Y013840
X008330Y013840
X007330Y013840
X006330Y013840
X005320Y013840
X004320Y013840
X003310Y013840
X002310Y013840
X001310Y013840
X001810Y014720
X002310Y015510
X002810Y014720
X003310Y015510
X003820Y016290
X004320Y015510
X003820Y014720
X005320Y015510
X005820Y014720
X006330Y015510
X006830Y014720
X007330Y015510
X007830Y014720
X008330Y015510
X007830Y016290
X006830Y016290
X005820Y016290
X006090Y018490
X006880Y018490
X007670Y018490
X009240Y018490
X009840Y016290
X009340Y015510
X009840Y014720
X010340Y015510
X010840Y014720
X011350Y015510
X011850Y014720
X012350Y015510
X011850Y016290
X010840Y016290
X013350Y015510
X013860Y014720
X014360Y015510
X014860Y014720
X015360Y015510
X015860Y014720
X016370Y015510
X015860Y016290
X014860Y016290
X013860Y016290
X017370Y015510
X017870Y014720
X018370Y015510
X017870Y016290
X018880Y016290
X019380Y015510
X018880Y014720
X019880Y014720
X020380Y015510
X019880Y016290
X015860Y011210
X015360Y010430
X014860Y011210
X014360Y010430
X013860Y011210
X013350Y010430
X013860Y009640
X014860Y009640
X015860Y009640
X016370Y010430
X012350Y010430
X011850Y011210
X011350Y010430
X010840Y011210
X010340Y010430
X009840Y011210
X009340Y010430
X009840Y009640
X010840Y009640
X011850Y009640
X008330Y010430
X007830Y011210
X007330Y010430
X006830Y011210
X006330Y010430
X005820Y011210
X005320Y010430
X005820Y009640
X006830Y009640
X007830Y009640
X004320Y010430
X003820Y011210
X003310Y010430
X002810Y011210
X002310Y010430
X002810Y009640
X003820Y009640
X001810Y009640
X001310Y010430
X001810Y011210
X001310Y015510
X001810Y016290
X002810Y016290
X006090Y022940
X007670Y022940
X008460Y022940
X009240Y022940
X018590Y030910
X021990Y036790
X022990Y036790
X023990Y036790
X024990Y036790
X025990Y036790
X026990Y036790
X027990Y036790
X028990Y036790
X030570Y036790
X031570Y036790
X032570Y036790
X033570Y036790
X034570Y036790
X035570Y036790
X036570Y036790
X037570Y036790
T04
X019690Y029030
X019690Y030600
T05
X032170Y019910
X033170Y019910
X034170Y019910
X035170Y019910
X036170Y019910
T06
X010230Y018690
X020270Y018660
T07
X017330Y021400
T08
X018420Y034290
M30
