%FSLAX34Y34*%
%MOMM*%
%LNSILK_TOP*%
G71*
G01*
%ADD10C, 0.150*%
%ADD11C, 0.100*%
%ADD12C, 0.200*%
%ADD13C, 0.000*%
%ADD14C, 0.500*%
%LPD*%
G54D10*
X76688Y816984D02*
X96688Y816984D01*
X96688Y778984D01*
X76688Y778984D01*
G54D11*
G75*
G01X139994Y750656D02*
G03X139994Y750656I-2500J0D01*
G01*
G36*
G75*
G01X139994Y750656D02*
G03X139994Y750656I-2500J0D01*
G01*
G37*
X139994Y750656D01*
G54D10*
X342325Y782750D02*
X342325Y800750D01*
X376325Y800750D01*
X376325Y782750D01*
X342325Y782750D01*
G54D10*
X458941Y822909D02*
X458941Y804909D01*
X424941Y804909D01*
X424941Y822909D01*
X458941Y822909D01*
G54D10*
X458941Y841165D02*
X458941Y823165D01*
X424941Y823165D01*
X424941Y841165D01*
X458941Y841165D01*
G54D10*
X373316Y889112D02*
X386044Y876384D01*
X362002Y852343D01*
X349274Y865070D01*
X373316Y889112D01*
G54D10*
X260635Y681084D02*
X260635Y699084D01*
X294635Y699084D01*
X294635Y681084D01*
X260635Y681084D01*
G54D10*
X396444Y705284D02*
X416444Y705284D01*
X416443Y756384D01*
X396444Y756384D01*
X396444Y705284D01*
G54D10*
X401444Y705284D02*
X411444Y705284D01*
X411444Y710284D01*
X401444Y710284D01*
X401444Y705284D01*
G54D12*
X211308Y955957D02*
X211308Y939957D01*
X219708Y939957D01*
G54D12*
X232508Y939957D02*
X224108Y939957D01*
X224108Y955957D01*
X232508Y955957D01*
G54D12*
X224108Y947957D02*
X232508Y947957D01*
G54D12*
X236908Y939957D02*
X236908Y955957D01*
X242908Y955957D01*
X245308Y954957D01*
X246508Y952957D01*
X246508Y942957D01*
X245308Y940957D01*
X242908Y939957D01*
X236908Y939957D01*
G54D12*
X250908Y942957D02*
X252108Y940957D01*
X254508Y939957D01*
X256908Y939957D01*
X259308Y940957D01*
X260508Y942957D01*
X260508Y944957D01*
X259308Y946957D01*
X256908Y947957D01*
X254508Y947957D01*
X252108Y948957D01*
X250908Y950957D01*
X250908Y952957D01*
X252108Y954957D01*
X254508Y955957D01*
X256908Y955957D01*
X259308Y954957D01*
X260508Y952957D01*
G54D10*
X154898Y943395D02*
X172898Y943395D01*
X172898Y909395D01*
X154898Y909395D01*
X154898Y943395D01*
G54D10*
X279252Y950337D02*
X291980Y937609D01*
X267938Y913567D01*
X255210Y926295D01*
X279252Y950337D01*
G54D10*
X198288Y946765D02*
X211016Y934037D01*
X186975Y909996D01*
X174247Y922724D01*
X198288Y946765D01*
G54D10*
X169491Y686080D02*
X182218Y673352D01*
X206260Y697394D01*
X193532Y710122D01*
X169491Y686080D01*
G54D10*
X50568Y577560D02*
X50568Y564560D01*
X60568Y564560D01*
G54D10*
X70568Y577560D02*
X62568Y577560D01*
G54D10*
X441724Y792183D02*
X441724Y774183D01*
X407724Y774183D01*
X407724Y792183D01*
X441724Y792183D01*
G54D10*
X360006Y706182D02*
X360006Y688182D01*
X326006Y688182D01*
X326006Y706182D01*
X360006Y706182D01*
G54D10*
X464912Y715290D02*
X446912Y715290D01*
X446912Y749290D01*
X464912Y749290D01*
X464912Y715290D01*
G54D10*
X445148Y787682D02*
X465148Y787682D01*
X465148Y749682D01*
X445148Y749682D01*
X445148Y787682D01*
G54D10*
X421474Y703721D02*
X421474Y683721D01*
X383474Y683721D01*
X383474Y703721D01*
X421474Y703721D01*
G54D10*
X465355Y766185D02*
X485355Y766185D01*
X485355Y728185D01*
X465355Y728185D01*
X465355Y766185D01*
G54D10*
X360006Y687926D02*
X360006Y669926D01*
X326006Y669926D01*
X326006Y687926D01*
X360006Y687926D01*
G54D10*
X477465Y840897D02*
X459466Y840896D01*
X459465Y806897D01*
X477466Y806896D01*
X477465Y840897D01*
G54D10*
X289362Y552354D02*
X289362Y534354D01*
X255362Y534354D01*
X255362Y552354D01*
X289362Y552354D01*
G54D10*
X325451Y985692D02*
X343451Y985692D01*
X343451Y951693D01*
X325451Y951692D01*
X325451Y985692D01*
G54D10*
X137988Y718699D02*
X125261Y731427D01*
X101220Y707386D01*
X113947Y694658D01*
X137988Y718699D01*
G54D10*
X83452Y577526D02*
X101452Y577526D01*
X101452Y611526D01*
X83452Y611526D01*
X83452Y577526D01*
G54D10*
X82574Y577554D02*
X82574Y564554D01*
X72574Y564554D01*
G54D10*
X35063Y813916D02*
X35063Y831916D01*
X69063Y831916D01*
X69063Y813916D01*
X35063Y813916D01*
G54D10*
X721728Y123477D02*
X721728Y143478D01*
X670628Y143477D01*
X670627Y123477D01*
X721728Y123477D01*
G54D10*
X721728Y128477D02*
X721728Y138477D01*
X716728Y138478D01*
X716728Y128477D01*
X721728Y128477D01*
G54D10*
X271728Y123477D02*
X271728Y143478D01*
X220628Y143477D01*
X220627Y123477D01*
X271728Y123477D01*
G54D10*
X271728Y128477D02*
X271728Y138477D01*
X266728Y138478D01*
X266728Y128477D01*
X271728Y128477D01*
G54D10*
X421728Y123477D02*
X421728Y143478D01*
X370628Y143477D01*
X370627Y123477D01*
X421728Y123477D01*
G54D10*
X421728Y128477D02*
X421728Y138477D01*
X416728Y138478D01*
X416728Y128477D01*
X421728Y128477D01*
G54D10*
X871727Y123477D02*
X871727Y143478D01*
X820628Y143477D01*
X820628Y123477D01*
X871727Y123477D01*
G54D10*
X871727Y128477D02*
X871727Y138477D01*
X866727Y138478D01*
X866727Y128477D01*
X871727Y128477D01*
G54D10*
X571728Y123477D02*
X571728Y143478D01*
X520628Y143477D01*
X520627Y123477D01*
X571728Y123477D01*
G54D10*
X571728Y128477D02*
X571728Y138477D01*
X566728Y138478D01*
X566728Y128477D01*
X571728Y128477D01*
G54D10*
X121728Y123477D02*
X121728Y143478D01*
X70628Y143477D01*
X70627Y123477D01*
X121728Y123477D01*
G54D10*
X121728Y128477D02*
X121728Y138477D01*
X116728Y138478D01*
X116728Y128477D01*
X121728Y128477D01*
G54D10*
X871728Y303477D02*
X871728Y323478D01*
X820628Y323477D01*
X820627Y303477D01*
X871728Y303477D01*
G54D10*
X871728Y308477D02*
X871728Y318477D01*
X866728Y318478D01*
X866728Y308477D01*
X871728Y308477D01*
G54D10*
X721728Y303477D02*
X721728Y323478D01*
X670628Y323477D01*
X670627Y303477D01*
X721728Y303477D01*
G54D10*
X721728Y308477D02*
X721728Y318477D01*
X716728Y318478D01*
X716728Y308477D01*
X721728Y308477D01*
G54D10*
X721728Y483477D02*
X721727Y503478D01*
X670627Y503478D01*
X670627Y483478D01*
X721728Y483477D01*
G54D10*
X721727Y488478D02*
X721727Y498478D01*
X716727Y498478D01*
X716728Y488478D01*
X721727Y488478D01*
G54D10*
X871728Y663477D02*
X871728Y683478D01*
X820628Y683477D01*
X820627Y663477D01*
X871728Y663477D01*
G54D10*
X871728Y668477D02*
X871728Y678477D01*
X866728Y678478D01*
X866728Y668477D01*
X871728Y668477D01*
G54D10*
X721728Y663477D02*
X721728Y683478D01*
X670628Y683477D01*
X670627Y663477D01*
X721728Y663477D01*
G54D10*
X721728Y668477D02*
X721728Y678477D01*
X716728Y678478D01*
X716728Y668477D01*
X721728Y668477D01*
G54D10*
X555287Y355054D02*
X555287Y335054D01*
X606387Y335054D01*
X606387Y355054D01*
X555287Y355054D01*
G54D10*
X555287Y350054D02*
X555287Y340054D01*
X560287Y340054D01*
X560287Y350054D01*
X555287Y350054D01*
G54D10*
X547384Y277288D02*
X547384Y295288D01*
X581384Y295288D01*
X581384Y277288D01*
X547384Y277288D01*
G54D10*
X871728Y843477D02*
X871728Y863478D01*
X820628Y863477D01*
X820627Y843477D01*
X871728Y843477D01*
G54D10*
X871728Y848477D02*
X871728Y858477D01*
X866728Y858478D01*
X866728Y848477D01*
X871728Y848477D01*
G54D10*
X721728Y843477D02*
X721728Y863478D01*
X670628Y863477D01*
X670628Y843477D01*
X721728Y843477D01*
G54D10*
X721728Y848477D02*
X721728Y858477D01*
X716728Y858478D01*
X716728Y848477D01*
X721728Y848477D01*
G54D10*
X378042Y670657D02*
X360042Y670657D01*
X360042Y704657D01*
X378042Y704657D01*
X378042Y670657D01*
G54D10*
X405711Y766746D02*
X387711Y766746D01*
X387711Y800746D01*
X405711Y800746D01*
X405711Y766746D01*
G54D10*
X349135Y985374D02*
X369135Y985374D01*
X369135Y947374D01*
X349135Y947374D01*
X349135Y985374D01*
G54D10*
X369772Y985374D02*
X389772Y985374D01*
X389772Y947374D01*
X369772Y947374D01*
X369772Y985374D01*
G54D10*
X48919Y713590D02*
X68919Y713590D01*
X68919Y675590D01*
X48919Y675590D01*
X48919Y713590D01*
G54D13*
G75*
G01X429025Y700468D02*
G03X429025Y700468I-2000J0D01*
G01*
G36*
G75*
G01X429025Y700468D02*
G03X429025Y700468I-2000J0D01*
G01*
G37*
X429025Y700468D01*
G54D10*
X613724Y341574D02*
X633724Y341574D01*
X633724Y303574D01*
X613724Y303574D01*
X613724Y341574D01*
G54D10*
X555287Y562699D02*
X555287Y542699D01*
X606387Y542699D01*
X606387Y562699D01*
X555287Y562699D01*
G54D10*
X555287Y557699D02*
X555287Y547699D01*
X560287Y547699D01*
X560287Y557699D01*
X555287Y557699D01*
G54D10*
X547384Y484932D02*
X547384Y502932D01*
X581384Y502932D01*
X581384Y484932D01*
X547384Y484932D01*
G54D10*
X613724Y549219D02*
X633724Y549219D01*
X633724Y511219D01*
X613724Y511219D01*
X613724Y549219D01*
G54D10*
X555287Y770344D02*
X555287Y750344D01*
X606387Y750344D01*
X606387Y770344D01*
X555287Y770344D01*
G54D10*
X555287Y765344D02*
X555287Y755344D01*
X560287Y755344D01*
X560287Y765344D01*
X555287Y765344D01*
G54D10*
X547384Y692578D02*
X547384Y710578D01*
X581384Y710578D01*
X581384Y692578D01*
X547384Y692578D01*
G54D10*
X613724Y756864D02*
X633724Y756864D01*
X633724Y718864D01*
X613724Y718864D01*
X613724Y756864D01*
G54D12*
X220800Y547380D02*
X220800Y509880D01*
X240800Y509880D01*
X240800Y547380D01*
X220800Y547380D01*
G54D12*
X225800Y550554D02*
X225800Y560554D01*
G54D12*
X235800Y550554D02*
X235800Y560554D01*
G54D12*
X153579Y547274D02*
X191282Y547274D01*
X191282Y509968D01*
X153579Y509968D01*
X153579Y547274D01*
G54D14*
X341698Y492902D02*
X371066Y492902D01*
X371066Y520287D01*
X341698Y520287D01*
X341698Y492902D01*
G54D12*
X89493Y821118D02*
X109526Y821118D01*
X109526Y843740D01*
X89493Y843740D01*
X89493Y821118D01*
G54D12*
X69064Y821118D02*
X89493Y821118D01*
X89493Y843740D01*
X69064Y843740D01*
X69064Y821118D01*
G54D10*
X35063Y834236D02*
X35063Y852236D01*
X69063Y852236D01*
X69063Y834236D01*
X35063Y834236D01*
G54D10*
X50206Y884446D02*
X68206Y884446D01*
X68206Y850446D01*
X50206Y850446D01*
X50206Y884446D01*
G54D10*
X155204Y662302D02*
X137204Y662303D01*
X137204Y628303D01*
X155204Y628302D01*
X155204Y662302D01*
G54D10*
X137344Y662302D02*
X119344Y662303D01*
X119344Y628303D01*
X137344Y628302D01*
X137344Y662302D01*
G54D10*
X155204Y628171D02*
X137204Y628171D01*
X137204Y594171D01*
X155204Y594171D01*
X155204Y628171D01*
G54D10*
X137344Y628171D02*
X119344Y628171D01*
X119344Y594171D01*
X137344Y594171D01*
X137344Y628171D01*
G54D10*
X118624Y557429D02*
X100624Y557429D01*
X100624Y523430D01*
X118624Y523429D01*
X118624Y557429D01*
G54D10*
X137009Y557360D02*
X119010Y557360D01*
X119010Y523360D01*
X137009Y523360D01*
X137009Y557360D01*
G54D10*
X118900Y662281D02*
X100900Y662282D01*
X100900Y628282D01*
X118900Y628281D01*
X118900Y662281D01*
G54D10*
X118897Y627980D02*
X100897Y627980D01*
X100897Y593980D01*
X118897Y593980D01*
X118897Y627980D01*
G54D10*
X118854Y557883D02*
X118854Y575883D01*
X84854Y575882D01*
X84854Y557882D01*
X118854Y557883D01*
G54D10*
X137010Y575739D02*
X137010Y593739D01*
X103010Y593739D01*
X103010Y575739D01*
X137010Y575739D01*
M02*
