%FSLAX34Y34*%
%MOMM*%
%LNSILK_BOTTOM*%
G71*
G01*
%ADD10C, 0.150*%
%ADD11C, 0.300*%
%ADD12C, 0.000*%
%ADD13C, 0.200*%
%LPD*%
G54D10*
X383831Y689530D02*
X373132Y689530D01*
X373131Y719730D01*
X383831Y719730D01*
X383831Y689530D01*
G54D10*
X381032Y689530D02*
X375931Y689530D01*
X375931Y695130D01*
X381031Y695130D01*
X381032Y689530D01*
G54D10*
X401671Y667046D02*
X401671Y659333D01*
X351671Y659333D01*
X351671Y681333D01*
X401671Y681333D01*
G54D10*
X349760Y659330D02*
X329760Y659330D01*
X329760Y697330D01*
X349760Y697330D01*
X349760Y659330D01*
G54D10*
X309488Y504172D02*
X309488Y554172D01*
X271488Y554172D01*
X271488Y504172D01*
X309488Y504172D01*
G54D10*
X295988Y547572D02*
X295988Y554172D01*
X284988Y554173D01*
X284988Y547572D01*
X295988Y547572D01*
G54D11*
G75*
G01X305484Y549599D02*
G03X305484Y549599I-1000J0D01*
G01*
G36*
G75*
G01X305484Y549599D02*
G03X305484Y549599I-1000J0D01*
G01*
G37*
X305484Y549599D01*
G54D10*
X336409Y557401D02*
X348456Y557401D01*
X348456Y523401D01*
G54D10*
X360074Y538450D02*
X360074Y556450D01*
X394074Y556451D01*
X394075Y538450D01*
X360074Y538450D01*
G54D10*
X149740Y599768D02*
X135597Y613910D01*
X171731Y650043D01*
X185873Y635901D01*
X149740Y599768D01*
G54D10*
X146204Y603304D02*
X139133Y610374D01*
X142668Y613911D01*
X149740Y606839D01*
X146204Y603304D01*
G54D10*
X199898Y481471D02*
X217898Y481471D01*
X217898Y515471D01*
X199898Y515471D01*
X199898Y481471D01*
G54D10*
X330456Y553432D02*
X330456Y523401D01*
G54D10*
X330456Y533257D02*
X330456Y499257D01*
X348456Y499257D01*
X348456Y533257D01*
G54D10*
X486594Y714822D02*
X468594Y714822D01*
X468594Y748822D01*
X486594Y748822D01*
X486594Y714822D01*
G54D10*
X468735Y714822D02*
X450735Y714822D01*
X450735Y748822D01*
X468735Y748822D01*
X468735Y714822D01*
G54D10*
X165337Y499534D02*
X165336Y481534D01*
X199336Y481534D01*
X199337Y499534D01*
X165337Y499534D01*
G54D10*
X223903Y727638D02*
X243902Y727638D01*
X243903Y676538D01*
X223903Y676538D01*
X223903Y727638D01*
G54D10*
X228902Y727638D02*
X238903Y727638D01*
X238903Y722638D01*
X228902Y722638D01*
X228902Y727638D01*
G54D12*
G75*
G01X131076Y613552D02*
G03X131076Y613552I-2500J0D01*
G01*
G36*
G75*
G01X131076Y613552D02*
G03X131076Y613552I-2500J0D01*
G01*
G37*
X131076Y613552D01*
G54D12*
G75*
G01X250932Y731820D02*
G03X250932Y731820I-2500J0D01*
G01*
G36*
G75*
G01X250932Y731820D02*
G03X250932Y731820I-2500J0D01*
G01*
G37*
X250932Y731820D01*
G54D10*
X225781Y584736D02*
X225781Y550736D01*
X243781Y550736D01*
X243781Y584736D01*
G54D10*
X223781Y584736D02*
X223781Y550736D01*
X205781Y550736D01*
X205781Y584736D01*
G54D10*
X430828Y637374D02*
X430828Y655374D01*
X464828Y655374D01*
X464829Y637374D01*
X430828Y637374D01*
G54D10*
X441237Y755117D02*
X441237Y765816D01*
X411037Y765817D01*
X411037Y755117D01*
X441237Y755117D01*
G54D10*
X441237Y757916D02*
X441238Y763017D01*
X435637Y763017D01*
X435637Y757917D01*
X441237Y757916D01*
G54D13*
G75*
G01X444869Y753073D02*
G03X444869Y753073I-500J0D01*
G01*
G54D10*
X511246Y610338D02*
X493246Y610338D01*
X493246Y644338D01*
X511246Y644338D01*
X511246Y610338D01*
G54D10*
X430828Y656424D02*
X430828Y674424D01*
X464828Y674424D01*
X464829Y656424D01*
X430828Y656424D01*
M02*
