%FSLAX34Y34*%
%MOMM*%
%LNSOLDERMASK_BOTTOM*%
G71*
G01*
%ADD10C, 1.900*%
%ADD11C, 2.100*%
%ADD12R, 1.800X2.200*%
%ADD13R, 1.190X0.800*%
%ADD14R, 3.800X1.900*%
%ADD15R, 1.800X1.800*%
%ADD16R, 1.600X1.500*%
%ADD17R, 1.600X1.600*%
%ADD18R, 1.200X1.800*%
%ADD19R, 1.300X1.400*%
%ADD20C, 2.400*%
%ADD21R, 1.800X0.870*%
%ADD22R, 1.400X1.300*%
%ADD23R, 1.500X1.700*%
%ADD24C, 2.700*%
%ADD25R, 1.550X0.600*%
%ADD26R, 2.100X2.500*%
%ADD27C, 0.250*%
%ADD28C, 0.700*%
%ADD29C, 0.800*%
%ADD30R, 2.600X1.000*%
%ADD31R, 0.500X1.200*%
%ADD32R, 3.500X1.000*%
%ADD33R, 2.500X1.000*%
%ADD34C, 0.950*%
%LPD*%
X39552Y-654101D02*
G54D10*
D03*
X141552Y-654101D02*
G54D10*
D03*
X243552Y-654101D02*
G54D10*
D03*
X345552Y-654101D02*
G54D10*
D03*
X447552Y-654102D02*
G54D10*
D03*
X524052Y-654101D02*
G54D10*
D03*
X39552Y-611825D02*
G54D10*
D03*
X65052Y-611826D02*
G54D10*
D03*
X90553Y-611825D02*
G54D11*
D03*
X116052Y-611826D02*
G54D10*
D03*
X141552Y-611826D02*
G54D10*
D03*
X167052Y-611826D02*
G54D10*
D03*
X192552Y-611826D02*
G54D10*
D03*
X218052Y-611826D02*
G54D10*
D03*
X243552Y-611826D02*
G54D10*
D03*
X269052Y-611826D02*
G54D10*
D03*
X294552Y-611826D02*
G54D10*
D03*
X320052Y-611826D02*
G54D10*
D03*
X345552Y-611826D02*
G54D10*
D03*
X371052Y-611826D02*
G54D10*
D03*
X396552Y-611826D02*
G54D10*
D03*
X422052Y-611826D02*
G54D10*
D03*
X447552Y-611826D02*
G54D10*
D03*
X473052Y-611826D02*
G54D10*
D03*
X498552Y-611826D02*
G54D10*
D03*
X524052Y-611826D02*
G54D10*
D03*
X52302Y-591825D02*
G54D10*
D03*
X77802Y-591825D02*
G54D10*
D03*
X103302Y-591826D02*
G54D10*
D03*
X154302Y-591826D02*
G54D10*
D03*
X179802Y-591826D02*
G54D10*
D03*
X205302Y-591826D02*
G54D10*
D03*
X256302Y-591826D02*
G54D10*
D03*
X281802Y-591826D02*
G54D10*
D03*
X307302Y-591826D02*
G54D10*
D03*
X358302Y-591826D02*
G54D10*
D03*
X383802Y-591826D02*
G54D10*
D03*
X409302Y-591826D02*
G54D10*
D03*
X460302Y-591826D02*
G54D10*
D03*
X485802Y-591826D02*
G54D10*
D03*
X511302Y-591826D02*
G54D10*
D03*
X473189Y-335303D02*
G54D12*
D03*
X445197Y-335296D02*
G54D12*
D03*
X374672Y-289740D02*
G54D13*
D03*
X374674Y-299145D02*
G54D13*
D03*
X374672Y-308740D02*
G54D13*
D03*
X400571Y-308740D02*
G54D13*
D03*
X400572Y-289740D02*
G54D13*
D03*
X430792Y-310225D02*
G54D14*
D03*
X430792Y-287225D02*
G54D14*
D03*
X398620Y-333348D02*
G54D15*
D03*
X370620Y-333348D02*
G54D15*
D03*
X348898Y-334856D02*
G54D16*
D03*
X348900Y-315851D02*
G54D16*
D03*
X422222Y-237667D02*
G54D16*
D03*
X422222Y-259241D02*
G54D16*
D03*
X445189Y-380681D02*
G54D17*
D03*
X505042Y-490177D02*
G54D10*
D03*
G36*
X506096Y-544804D02*
X506096Y-514804D01*
X536096Y-514804D01*
X536096Y-544804D01*
X506096Y-544804D01*
G37*
X225885Y-53213D02*
G54D18*
D03*
X240964Y-53212D02*
G54D18*
D03*
X255252Y-53211D02*
G54D18*
D03*
X269539Y-53212D02*
G54D18*
D03*
X283827Y-53212D02*
G54D18*
D03*
X298117Y-53213D02*
G54D18*
D03*
X312402Y-53212D02*
G54D18*
D03*
X326689Y-53212D02*
G54D18*
D03*
X298117Y-73593D02*
G54D19*
D03*
X315117Y-73593D02*
G54D19*
D03*
X159552Y-533927D02*
G54D11*
D03*
X180197Y-533933D02*
G54D11*
D03*
X199247Y-533933D02*
G54D11*
D03*
X199244Y-421093D02*
G54D11*
D03*
G36*
X282262Y-512852D02*
X282262Y-544852D01*
X250262Y-544852D01*
X250262Y-512852D01*
X282262Y-512852D01*
G37*
X506659Y-186532D02*
G54D20*
D03*
X506657Y-161132D02*
G54D20*
D03*
X325350Y-455508D02*
G54D21*
D03*
X325349Y-468208D02*
G54D21*
D03*
X325350Y-480908D02*
G54D21*
D03*
X325349Y-493608D02*
G54D21*
D03*
X268350Y-493608D02*
G54D21*
D03*
X268350Y-480908D02*
G54D21*
D03*
X268350Y-468208D02*
G54D21*
D03*
X268350Y-455508D02*
G54D21*
D03*
X345818Y-478924D02*
G54D22*
D03*
X345818Y-495924D02*
G54D22*
D03*
X345818Y-454780D02*
G54D22*
D03*
X345817Y-471780D02*
G54D22*
D03*
X364783Y-492114D02*
G54D22*
D03*
X364783Y-475114D02*
G54D22*
D03*
X455612Y-528636D02*
G54D23*
D03*
X159556Y-421094D02*
G54D10*
D03*
X219881Y-421094D02*
G54D10*
D03*
X238931Y-421094D02*
G54D10*
D03*
G36*
X121676Y-368555D02*
X128748Y-361485D01*
X147131Y-379871D01*
X140059Y-386942D01*
X121676Y-368555D01*
G37*
G36*
X130656Y-359575D02*
X137728Y-352504D01*
X156111Y-370890D01*
X149040Y-377961D01*
X130656Y-359575D01*
G37*
G36*
X139636Y-350594D02*
X146708Y-343524D01*
X165091Y-361911D01*
X158019Y-368981D01*
X139636Y-350594D01*
G37*
G36*
X148616Y-341616D02*
X155686Y-334545D01*
X174072Y-352928D01*
X167002Y-360000D01*
X148616Y-341616D01*
G37*
G36*
X183971Y-376971D02*
X191042Y-369900D01*
X209427Y-388284D01*
X202357Y-395355D01*
X183971Y-376971D01*
G37*
G36*
X174991Y-385952D02*
X182062Y-378880D01*
X200447Y-397264D01*
X193376Y-404336D01*
X174991Y-385952D01*
G37*
G36*
X166011Y-394932D02*
X173082Y-387860D01*
X191467Y-406245D01*
X184396Y-413316D01*
X166011Y-394932D01*
G37*
G36*
X157031Y-403911D02*
X164103Y-396840D01*
X182487Y-415226D01*
X175415Y-422296D01*
X157031Y-403911D01*
G37*
X231699Y-513150D02*
G54D19*
D03*
X214697Y-513147D02*
G54D19*
D03*
X475453Y-528638D02*
G54D23*
D03*
X487558Y-460199D02*
G54D24*
D03*
X436758Y-485599D02*
G54D24*
D03*
X436758Y-434798D02*
G54D24*
D03*
X436758Y-409399D02*
G54D24*
D03*
X436758Y-510999D02*
G54D24*
D03*
X501033Y-233343D02*
G54D25*
D03*
X501033Y-239843D02*
G54D25*
D03*
X501033Y-246343D02*
G54D25*
D03*
X501033Y-252843D02*
G54D25*
D03*
X501033Y-259343D02*
G54D25*
D03*
X527783Y-283843D02*
G54D26*
D03*
X527783Y-208843D02*
G54D26*
D03*
X422222Y-199170D02*
G54D16*
D03*
X422222Y-220744D02*
G54D16*
D03*
X442859Y-226872D02*
G54D16*
D03*
X442859Y-248446D02*
G54D16*
D03*
X442859Y-188375D02*
G54D16*
D03*
X442859Y-209949D02*
G54D16*
D03*
G36*
X366686Y-394916D02*
X372244Y-400474D01*
X372244Y-408358D01*
X366686Y-413916D01*
X358802Y-413916D01*
X353244Y-408358D01*
X353244Y-400474D01*
X358802Y-394916D01*
X366686Y-394916D01*
G37*
G36*
X353986Y-382216D02*
X359544Y-387774D01*
X359544Y-395658D01*
X353986Y-401216D01*
X346102Y-401216D01*
X340544Y-395658D01*
X340544Y-387774D01*
X346102Y-382216D01*
X353986Y-382216D01*
G37*
G36*
X386656Y-413172D02*
X392214Y-418730D01*
X392214Y-426614D01*
X386656Y-432172D01*
X378772Y-432172D01*
X373214Y-426614D01*
X373214Y-418730D01*
X378772Y-413172D01*
X386656Y-413172D01*
G37*
X463497Y-188375D02*
G54D16*
D03*
X463496Y-209949D02*
G54D16*
D03*
X483956Y-280359D02*
G54D22*
D03*
X483956Y-263359D02*
G54D22*
D03*
X465700Y-280359D02*
G54D22*
D03*
X465700Y-263359D02*
G54D22*
D03*
X308197Y-530178D02*
G54D11*
D03*
G54D27*
X155000Y-185085D02*
X155000Y-153335D01*
X160000Y-185085D02*
X160000Y-153335D01*
X165000Y-185085D02*
X165000Y-153335D01*
X170000Y-185085D02*
X170000Y-153335D01*
X175000Y-185085D02*
X175000Y-153335D01*
X180000Y-185085D02*
X180000Y-153335D01*
X185000Y-185085D02*
X185000Y-153335D01*
X190000Y-185085D02*
X190000Y-153335D01*
X195000Y-185085D02*
X195000Y-153335D01*
X200000Y-185085D02*
X200000Y-153335D01*
X205000Y-185085D02*
X205000Y-153335D01*
X210000Y-185085D02*
X210000Y-153335D01*
X215000Y-185085D02*
X215000Y-153335D01*
X220000Y-185085D02*
X220000Y-153335D01*
X225000Y-185085D02*
X225000Y-153335D01*
X230000Y-185085D02*
X230000Y-153335D01*
X235000Y-185085D02*
X235000Y-153335D01*
X153411Y-185000D02*
X235961Y-185000D01*
X153411Y-180000D02*
X235961Y-180000D01*
X153411Y-175000D02*
X235961Y-175000D01*
X153411Y-170000D02*
X235961Y-170000D01*
X153411Y-165000D02*
X235961Y-165000D01*
X153411Y-160000D02*
X235961Y-160000D01*
X153411Y-155000D02*
X235961Y-155000D01*
G54D28*
X153411Y-153335D02*
X235961Y-153335D01*
X235961Y-185085D01*
X153411Y-185085D01*
X153411Y-153335D01*
G54D29*
X140853Y-175021D02*
X122706Y-175021D01*
G54D29*
X140853Y-162321D02*
X122706Y-162321D01*
X180197Y-513144D02*
G54D19*
D03*
X197199Y-513147D02*
G54D19*
D03*
X265265Y-259230D02*
G54D30*
D03*
X265265Y-271930D02*
G54D30*
D03*
X265264Y-284630D02*
G54D30*
D03*
X265265Y-297330D02*
G54D30*
D03*
X215264Y-297330D02*
G54D30*
D03*
X215264Y-284630D02*
G54D30*
D03*
X215265Y-271930D02*
G54D30*
D03*
X215265Y-259230D02*
G54D30*
D03*
X325787Y-530177D02*
G54D19*
D03*
X342786Y-530178D02*
G54D19*
D03*
X219622Y-449021D02*
G54D22*
D03*
X219625Y-432019D02*
G54D22*
D03*
X238672Y-449021D02*
G54D22*
D03*
X238675Y-432019D02*
G54D22*
D03*
G36*
X443953Y-350307D02*
X456953Y-350306D01*
X456953Y-364306D01*
X443953Y-364307D01*
X443953Y-350307D01*
G37*
X467453Y-357306D02*
G54D19*
D03*
X395531Y-53166D02*
G54D31*
D03*
X400531Y-53166D02*
G54D31*
D03*
X405531Y-53166D02*
G54D31*
D03*
X410531Y-53166D02*
G54D31*
D03*
X415531Y-53166D02*
G54D31*
D03*
X420531Y-53166D02*
G54D31*
D03*
X425531Y-53166D02*
G54D31*
D03*
X430531Y-53166D02*
G54D31*
D03*
X455612Y-528636D02*
G54D23*
D03*
X475453Y-528638D02*
G54D23*
D03*
X238941Y-533927D02*
G54D11*
D03*
X505043Y-510178D02*
G54D10*
D03*
X270027Y-259230D02*
G54D32*
D03*
X215265Y-259230D02*
G54D33*
D03*
X270027Y-271930D02*
G54D32*
D03*
X270027Y-284630D02*
G54D32*
D03*
X270027Y-297330D02*
G54D32*
D03*
X210502Y-297330D02*
G54D32*
D03*
X210502Y-284630D02*
G54D32*
D03*
X210502Y-271930D02*
G54D32*
D03*
X210502Y-259230D02*
G54D32*
D03*
X39552Y-781101D02*
G54D10*
D03*
X141552Y-781101D02*
G54D10*
D03*
X243552Y-781101D02*
G54D10*
D03*
X345552Y-781101D02*
G54D10*
D03*
X447552Y-781102D02*
G54D10*
D03*
X524052Y-781101D02*
G54D10*
D03*
X39552Y-738825D02*
G54D10*
D03*
X65052Y-738826D02*
G54D10*
D03*
X90553Y-738825D02*
G54D11*
D03*
X116052Y-738826D02*
G54D10*
D03*
X141552Y-738826D02*
G54D10*
D03*
X167052Y-738826D02*
G54D10*
D03*
X192552Y-738826D02*
G54D10*
D03*
X218052Y-738826D02*
G54D10*
D03*
X243552Y-738826D02*
G54D10*
D03*
X269052Y-738826D02*
G54D10*
D03*
X294552Y-738826D02*
G54D10*
D03*
X320052Y-738826D02*
G54D10*
D03*
X345552Y-738826D02*
G54D10*
D03*
X371052Y-738826D02*
G54D10*
D03*
X396552Y-738826D02*
G54D10*
D03*
X422052Y-738826D02*
G54D10*
D03*
X447552Y-738826D02*
G54D10*
D03*
X473052Y-738826D02*
G54D10*
D03*
X498552Y-738826D02*
G54D10*
D03*
X524052Y-738826D02*
G54D10*
D03*
X52302Y-718825D02*
G54D10*
D03*
X77802Y-718825D02*
G54D10*
D03*
X103302Y-718826D02*
G54D10*
D03*
X154302Y-718826D02*
G54D10*
D03*
X179802Y-718826D02*
G54D10*
D03*
X205302Y-718826D02*
G54D10*
D03*
X256302Y-718826D02*
G54D10*
D03*
X281802Y-718826D02*
G54D10*
D03*
X307302Y-718826D02*
G54D10*
D03*
X358302Y-718826D02*
G54D10*
D03*
X383802Y-718826D02*
G54D10*
D03*
X409302Y-718826D02*
G54D10*
D03*
X460302Y-718826D02*
G54D10*
D03*
X485802Y-718826D02*
G54D10*
D03*
X511302Y-718826D02*
G54D10*
D03*
G54D34*
X137624Y-944295D02*
X137624Y-979695D01*
G54D34*
X124824Y-944295D02*
X124824Y-979695D01*
G54D34*
X112124Y-944295D02*
X112124Y-979695D01*
G54D34*
X99524Y-944295D02*
X99524Y-979695D01*
G54D34*
X74024Y-944295D02*
X74024Y-979695D01*
G54D34*
X150224Y-944295D02*
X150224Y-979695D01*
G54D34*
X61324Y-944295D02*
X61324Y-979695D01*
G54D34*
X48724Y-944295D02*
X48724Y-979695D01*
G54D34*
X35924Y-944295D02*
X35924Y-979695D01*
G54D34*
X23224Y-944295D02*
X23224Y-979695D01*
G54D34*
X303518Y-944295D02*
X303517Y-979695D01*
G54D34*
X290717Y-944295D02*
X290717Y-979695D01*
G54D34*
X278017Y-944295D02*
X278017Y-979695D01*
G54D34*
X265417Y-944295D02*
X265417Y-979695D01*
G54D34*
X239917Y-944295D02*
X239917Y-979695D01*
G54D34*
X316117Y-944295D02*
X316117Y-979695D01*
G54D34*
X227217Y-944295D02*
X227217Y-979695D01*
G54D34*
X214617Y-944295D02*
X214617Y-979695D01*
G54D34*
X201817Y-944295D02*
X201817Y-979695D01*
G54D34*
X189117Y-944295D02*
X189117Y-979695D01*
G54D34*
X468618Y-944295D02*
X468617Y-979695D01*
G54D34*
X455817Y-944295D02*
X455817Y-979695D01*
G54D34*
X443117Y-944295D02*
X443117Y-979695D01*
G54D34*
X430517Y-944295D02*
X430517Y-979695D01*
G54D34*
X405017Y-944295D02*
X405017Y-979695D01*
G54D34*
X481217Y-944295D02*
X481217Y-979695D01*
G54D34*
X392317Y-944295D02*
X392317Y-979695D01*
G54D34*
X379717Y-944295D02*
X379717Y-979695D01*
G54D34*
X366917Y-944295D02*
X366917Y-979695D01*
G54D34*
X354217Y-944295D02*
X354217Y-979695D01*
G54D34*
X633718Y-944295D02*
X633718Y-979695D01*
G54D34*
X620918Y-944295D02*
X620918Y-979695D01*
G54D34*
X608218Y-944295D02*
X608218Y-979695D01*
G54D34*
X595618Y-944295D02*
X595618Y-979695D01*
G54D34*
X570118Y-944295D02*
X570118Y-979695D01*
G54D34*
X646318Y-944295D02*
X646318Y-979695D01*
G54D34*
X557418Y-944295D02*
X557418Y-979695D01*
G54D34*
X544818Y-944295D02*
X544818Y-979695D01*
G54D34*
X532018Y-944295D02*
X532018Y-979695D01*
G54D34*
X519318Y-944295D02*
X519318Y-979695D01*
G54D34*
X798818Y-944295D02*
X798817Y-979695D01*
G54D34*
X786017Y-944295D02*
X786017Y-979695D01*
G54D34*
X773317Y-944295D02*
X773317Y-979695D01*
G54D34*
X760717Y-944295D02*
X760717Y-979695D01*
G54D34*
X735217Y-944295D02*
X735217Y-979695D01*
G54D34*
X811417Y-944295D02*
X811417Y-979695D01*
G54D34*
X722517Y-944295D02*
X722517Y-979695D01*
G54D34*
X709917Y-944295D02*
X709917Y-979695D01*
G54D34*
X697117Y-944295D02*
X697117Y-979695D01*
G54D34*
X684417Y-944295D02*
X684417Y-979695D01*
G54D34*
X963918Y-944295D02*
X963918Y-979695D01*
G54D34*
X951118Y-944295D02*
X951118Y-979695D01*
G54D34*
X938418Y-944295D02*
X938418Y-979695D01*
G54D34*
X925818Y-944295D02*
X925818Y-979695D01*
G54D34*
X900318Y-944295D02*
X900318Y-979695D01*
G54D34*
X976518Y-944295D02*
X976518Y-979695D01*
G54D34*
X887618Y-944295D02*
X887618Y-979695D01*
G54D34*
X875018Y-944295D02*
X875018Y-979695D01*
G54D34*
X862218Y-944295D02*
X862218Y-979695D01*
G54D34*
X849518Y-944295D02*
X849518Y-979695D01*
G54D34*
X963727Y-744751D02*
X963726Y-780151D01*
G54D34*
X950927Y-744751D02*
X950927Y-780151D01*
G54D34*
X938227Y-744751D02*
X938227Y-780151D01*
G54D34*
X925627Y-744751D02*
X925627Y-780151D01*
G54D34*
X900127Y-744751D02*
X900127Y-780151D01*
G54D34*
X976326Y-744751D02*
X976326Y-780151D01*
G54D34*
X887427Y-744751D02*
X887427Y-780151D01*
G54D34*
X874827Y-744751D02*
X874827Y-780151D01*
G54D34*
X862027Y-744751D02*
X862027Y-780151D01*
G54D34*
X849327Y-744751D02*
X849327Y-780151D01*
G54D34*
X798230Y-745545D02*
X798230Y-780945D01*
G54D34*
X785430Y-745545D02*
X785430Y-780945D01*
G54D34*
X772730Y-745545D02*
X772730Y-780945D01*
G54D34*
X760130Y-745545D02*
X760130Y-780945D01*
G54D34*
X734630Y-745545D02*
X734630Y-780945D01*
G54D34*
X810830Y-745545D02*
X810830Y-780945D01*
G54D34*
X721930Y-745545D02*
X721930Y-780945D01*
G54D34*
X709330Y-745545D02*
X709330Y-780945D01*
G54D34*
X696530Y-745545D02*
X696530Y-780945D01*
G54D34*
X683830Y-745545D02*
X683830Y-780945D01*
G54D34*
X964918Y-547504D02*
X964917Y-582904D01*
G54D34*
X952117Y-547504D02*
X952117Y-582904D01*
G54D34*
X939417Y-547504D02*
X939417Y-582904D01*
G54D34*
X926817Y-547504D02*
X926817Y-582904D01*
G54D34*
X901317Y-547504D02*
X901317Y-582904D01*
G54D34*
X977517Y-547504D02*
X977517Y-582904D01*
G54D34*
X888617Y-547504D02*
X888617Y-582904D01*
G54D34*
X876017Y-547504D02*
X876017Y-582904D01*
G54D34*
X863217Y-547504D02*
X863217Y-582904D01*
G54D34*
X850517Y-547504D02*
X850517Y-582904D01*
G54D34*
X798399Y-548151D02*
X798398Y-583551D01*
G54D34*
X785599Y-548151D02*
X785599Y-583551D01*
G54D34*
X772899Y-548151D02*
X772899Y-583551D01*
G54D34*
X760299Y-548151D02*
X760299Y-583551D01*
G54D34*
X734799Y-548151D02*
X734799Y-583551D01*
G54D34*
X810998Y-548151D02*
X810998Y-583551D01*
G54D34*
X722099Y-548151D02*
X722099Y-583551D01*
G54D34*
X709499Y-548151D02*
X709499Y-583551D01*
G54D34*
X696699Y-548151D02*
X696699Y-583551D01*
G54D34*
X683999Y-548151D02*
X683999Y-583551D01*
G54D34*
X964124Y-351448D02*
X964123Y-386848D01*
G54D34*
X951324Y-351448D02*
X951324Y-386848D01*
G54D34*
X938624Y-351448D02*
X938624Y-386848D01*
G54D34*
X926024Y-351448D02*
X926024Y-386848D01*
G54D34*
X900524Y-351448D02*
X900524Y-386848D01*
G54D34*
X976723Y-351448D02*
X976723Y-386848D01*
G54D34*
X887824Y-351448D02*
X887824Y-386848D01*
G54D34*
X875224Y-351448D02*
X875224Y-386848D01*
G54D34*
X862424Y-351448D02*
X862424Y-386848D01*
G54D34*
X849724Y-351448D02*
X849724Y-386848D01*
G54D34*
X799818Y-350654D02*
X799817Y-386054D01*
G54D34*
X787017Y-350654D02*
X787017Y-386054D01*
G54D34*
X774317Y-350654D02*
X774317Y-386054D01*
G54D34*
X761717Y-350654D02*
X761717Y-386054D01*
G54D34*
X736217Y-350654D02*
X736217Y-386054D01*
G54D34*
X812417Y-350654D02*
X812417Y-386054D01*
G54D34*
X723517Y-350654D02*
X723517Y-386054D01*
G54D34*
X710917Y-350654D02*
X710917Y-386054D01*
G54D34*
X698117Y-350654D02*
X698117Y-386054D01*
G54D34*
X685417Y-350654D02*
X685417Y-386054D01*
G54D34*
X637098Y-739931D02*
X637098Y-781681D01*
G54D34*
X624298Y-739932D02*
X624298Y-781682D01*
G54D34*
X611598Y-739932D02*
X611598Y-781682D01*
G54D34*
X598998Y-739932D02*
X598998Y-781682D01*
G54D34*
X586198Y-739932D02*
X586198Y-781681D01*
G54D34*
X573498Y-739932D02*
X573498Y-781681D01*
G54D34*
X649698Y-739931D02*
X649698Y-781682D01*
G54D34*
X637098Y-517681D02*
X637098Y-559431D01*
G54D34*
X624298Y-517682D02*
X624298Y-559432D01*
G54D34*
X611598Y-517682D02*
X611598Y-559432D01*
G54D34*
X598998Y-517682D02*
X598998Y-559432D01*
G54D34*
X586198Y-517682D02*
X586198Y-559431D01*
G54D34*
X573498Y-517682D02*
X573498Y-559431D01*
G54D34*
X649698Y-517681D02*
X649698Y-559432D01*
G54D34*
X637098Y-282731D02*
X637098Y-324481D01*
G54D34*
X624298Y-282732D02*
X624298Y-324482D01*
G54D34*
X611598Y-282732D02*
X611598Y-324482D01*
G54D34*
X598998Y-282732D02*
X598998Y-324482D01*
G54D34*
X586198Y-282732D02*
X586198Y-324481D01*
G54D34*
X573498Y-282732D02*
X573498Y-324481D01*
G54D34*
X649698Y-282731D02*
X649698Y-324482D01*
G54D34*
X964124Y-141898D02*
X964123Y-177298D01*
G54D34*
X951324Y-141898D02*
X951324Y-177298D01*
G54D34*
X938624Y-141898D02*
X938624Y-177298D01*
G54D34*
X926024Y-141898D02*
X926024Y-177298D01*
G54D34*
X900524Y-141898D02*
X900524Y-177298D01*
G54D34*
X976723Y-141898D02*
X976723Y-177298D01*
G54D34*
X887824Y-141898D02*
X887824Y-177298D01*
G54D34*
X875224Y-141898D02*
X875224Y-177298D01*
G54D34*
X862424Y-141898D02*
X862424Y-177298D01*
G54D34*
X849724Y-141898D02*
X849724Y-177298D01*
G54D34*
X798818Y-144194D02*
X798818Y-179594D01*
G54D34*
X786018Y-144194D02*
X786018Y-179594D01*
G54D34*
X773318Y-144194D02*
X773318Y-179594D01*
G54D34*
X760718Y-144194D02*
X760718Y-179594D01*
G54D34*
X735218Y-144194D02*
X735218Y-179594D01*
G54D34*
X811418Y-144194D02*
X811418Y-179594D01*
G54D34*
X722518Y-144194D02*
X722518Y-179594D01*
G54D34*
X709918Y-144194D02*
X709918Y-179594D01*
G54D34*
X697118Y-144194D02*
X697118Y-179594D01*
G54D34*
X684418Y-144194D02*
X684418Y-179594D01*
M02*
