%FSLAX34Y34*%
%MOMM*%
%LNSOLDERMASK_TOP*%
G71*
G01*
%ADD10C, 1.900*%
%ADD11C, 2.100*%
%ADD12R, 1.800X1.800*%
%ADD13R, 1.600X1.600*%
%ADD14R, 1.600X1.500*%
%ADD15R, 1.100X1.100*%
%ADD16R, 0.500X0.500*%
%ADD17C, 0.200*%
%ADD18C, 0.500*%
%ADD19R, 1.300X1.400*%
%ADD20R, 1.400X1.400*%
%ADD21R, 2.600X1.000*%
%ADD22R, 1.400X1.300*%
%ADD23R, 1.500X1.800*%
%ADD24R, 1.800X1.600*%
%ADD25C, 2.400*%
%ADD26R, 1.200X1.400*%
%ADD27C, 2.700*%
%ADD28R, 1.000X1.100*%
%ADD29R, 1.500X1.600*%
%ADD30R, 2.200X1.000*%
%ADD31R, 1.300X1.300*%
%ADD32R, 1.100X1.000*%
%ADD33R, 1.100X1.600*%
%ADD34R, 1.000X2.600*%
%ADD35C, 0.950*%
%ADD36R, 1.400X1.600*%
%LPD*%
X39552Y-654101D02*
G54D10*
D03*
X141552Y-654101D02*
G54D10*
D03*
X243552Y-654101D02*
G54D10*
D03*
X345552Y-654101D02*
G54D10*
D03*
X447552Y-654102D02*
G54D10*
D03*
X524052Y-654101D02*
G54D10*
D03*
X39552Y-611825D02*
G54D10*
D03*
X65052Y-611826D02*
G54D10*
D03*
X90553Y-611825D02*
G54D11*
D03*
X116052Y-611826D02*
G54D10*
D03*
X141552Y-611826D02*
G54D10*
D03*
X167052Y-611826D02*
G54D10*
D03*
X192552Y-611826D02*
G54D10*
D03*
X218052Y-611826D02*
G54D10*
D03*
X243552Y-611826D02*
G54D10*
D03*
X269052Y-611826D02*
G54D10*
D03*
X294552Y-611826D02*
G54D10*
D03*
X320052Y-611826D02*
G54D10*
D03*
X345552Y-611826D02*
G54D10*
D03*
X371052Y-611826D02*
G54D10*
D03*
X396552Y-611826D02*
G54D10*
D03*
X422052Y-611826D02*
G54D10*
D03*
X447552Y-611826D02*
G54D10*
D03*
X473052Y-611826D02*
G54D10*
D03*
X498552Y-611826D02*
G54D10*
D03*
X524052Y-611826D02*
G54D10*
D03*
X52302Y-591825D02*
G54D10*
D03*
X77802Y-591825D02*
G54D10*
D03*
X103302Y-591826D02*
G54D10*
D03*
X154302Y-591826D02*
G54D10*
D03*
X179802Y-591826D02*
G54D10*
D03*
X205302Y-591826D02*
G54D10*
D03*
X256302Y-591826D02*
G54D10*
D03*
X281802Y-591826D02*
G54D10*
D03*
X307302Y-591826D02*
G54D10*
D03*
X358302Y-591826D02*
G54D10*
D03*
X383802Y-591826D02*
G54D10*
D03*
X409302Y-591826D02*
G54D10*
D03*
X460302Y-591826D02*
G54D10*
D03*
X485802Y-591826D02*
G54D10*
D03*
X511302Y-591826D02*
G54D10*
D03*
X77724Y-670851D02*
G54D12*
D03*
X103124Y-670851D02*
G54D12*
D03*
X179724Y-670851D02*
G54D12*
D03*
X205124Y-670851D02*
G54D12*
D03*
X281724Y-670851D02*
G54D12*
D03*
X307124Y-670851D02*
G54D12*
D03*
X383724Y-670851D02*
G54D12*
D03*
X409124Y-670851D02*
G54D12*
D03*
X485724Y-670851D02*
G54D12*
D03*
X511124Y-670851D02*
G54D12*
D03*
X107260Y-581877D02*
G54D13*
D03*
X85035Y-581877D02*
G54D13*
D03*
X59635Y-581877D02*
G54D13*
D03*
X36220Y-581877D02*
G54D13*
D03*
X93049Y-216196D02*
G54D14*
D03*
X93049Y-195196D02*
G54D14*
D03*
X52944Y-196793D02*
G54D15*
D03*
X52944Y-215843D02*
G54D15*
D03*
X79059Y-215843D02*
G54D15*
D03*
X79106Y-196734D02*
G54D15*
D03*
G36*
X273223Y-100752D02*
X278223Y-100752D01*
X278224Y-105752D01*
X273224Y-105752D01*
X273223Y-100752D01*
G37*
G36*
X268223Y-100752D02*
X273223Y-100752D01*
X273224Y-105752D01*
X268224Y-105752D01*
X268223Y-100752D01*
G37*
X265724Y-103252D02*
G54D16*
D03*
X260724Y-103252D02*
G54D16*
D03*
X255724Y-103252D02*
G54D16*
D03*
X250724Y-103252D02*
G54D16*
D03*
G36*
X243223Y-100752D02*
X248223Y-100751D01*
X248224Y-105751D01*
X243224Y-105752D01*
X243223Y-100752D01*
G37*
X240724Y-103252D02*
G54D16*
D03*
X235724Y-103252D02*
G54D16*
D03*
X230724Y-103252D02*
G54D16*
D03*
X225723Y-103252D02*
G54D16*
D03*
G36*
X218223Y-100752D02*
X223223Y-100752D01*
X223224Y-105752D01*
X218224Y-105752D01*
X218223Y-100752D01*
G37*
X215724Y-103252D02*
G54D16*
D03*
X210724Y-103252D02*
G54D16*
D03*
X205724Y-103252D02*
G54D16*
D03*
X200724Y-103252D02*
G54D16*
D03*
X195724Y-103252D02*
G54D16*
D03*
G36*
X188223Y-100752D02*
X193223Y-100752D01*
X193224Y-105752D01*
X188224Y-105752D01*
X188223Y-100752D01*
G37*
G36*
X183223Y-100752D02*
X188223Y-100751D01*
X188224Y-105751D01*
X183224Y-105752D01*
X183223Y-100752D01*
G37*
X180724Y-103252D02*
G54D16*
D03*
X175724Y-103252D02*
G54D16*
D03*
X170724Y-103252D02*
G54D16*
D03*
G36*
X163223Y-100752D02*
X168223Y-100752D01*
X168224Y-105752D01*
X163224Y-105752D01*
X163223Y-100752D01*
G37*
X160724Y-103252D02*
G54D16*
D03*
G36*
X153223Y-100752D02*
X158223Y-100752D01*
X158224Y-105752D01*
X153224Y-105752D01*
X153223Y-100752D01*
G37*
G36*
X276219Y-100221D02*
X277218Y-101221D01*
X277219Y-105721D01*
X276719Y-106221D01*
X274718Y-106221D01*
X274218Y-105721D01*
X274219Y-101221D01*
X275218Y-100221D01*
X276219Y-100221D01*
G37*
G54D17*
X276219Y-100221D02*
X277218Y-101221D01*
X277219Y-105721D01*
X276719Y-106221D01*
X274718Y-106221D01*
X274218Y-105721D01*
X274219Y-101221D01*
X275218Y-100221D01*
X276219Y-100221D01*
G36*
X156218Y-100221D02*
X157218Y-101221D01*
X157219Y-105721D01*
X156718Y-106221D01*
X154719Y-106221D01*
X154219Y-105721D01*
X154219Y-101221D01*
X155219Y-100221D01*
X156218Y-100221D01*
G37*
G54D17*
X156218Y-100221D02*
X157218Y-101221D01*
X157219Y-105721D01*
X156718Y-106221D01*
X154719Y-106221D01*
X154219Y-105721D01*
X154219Y-101221D01*
X155219Y-100221D01*
X156218Y-100221D01*
G36*
X266219Y-96221D02*
X267218Y-97221D01*
X267218Y-108721D01*
X266719Y-109221D01*
X264719Y-109221D01*
X264219Y-108721D01*
X264218Y-97221D01*
X265218Y-96221D01*
X266219Y-96221D01*
G37*
G54D17*
X266219Y-96221D02*
X267218Y-97221D01*
X267218Y-108721D01*
X266719Y-109221D01*
X264719Y-109221D01*
X264219Y-108721D01*
X264218Y-97221D01*
X265218Y-96221D01*
X266219Y-96221D01*
G36*
X261219Y-96221D02*
X262219Y-97221D01*
X262219Y-108721D01*
X261719Y-109221D01*
X259719Y-109221D01*
X259219Y-108721D01*
X259219Y-97221D01*
X260218Y-96221D01*
X261219Y-96221D01*
G37*
G54D17*
X261219Y-96221D02*
X262219Y-97221D01*
X262219Y-108721D01*
X261719Y-109221D01*
X259719Y-109221D01*
X259219Y-108721D01*
X259219Y-97221D01*
X260218Y-96221D01*
X261219Y-96221D01*
G36*
X256219Y-96221D02*
X257218Y-97221D01*
X257219Y-108721D01*
X256718Y-109221D01*
X254718Y-109221D01*
X254218Y-108721D01*
X254219Y-97221D01*
X255218Y-96221D01*
X256219Y-96221D01*
G37*
G54D17*
X256219Y-96221D02*
X257218Y-97221D01*
X257219Y-108721D01*
X256718Y-109221D01*
X254718Y-109221D01*
X254218Y-108721D01*
X254219Y-97221D01*
X255218Y-96221D01*
X256219Y-96221D01*
G36*
X251219Y-96221D02*
X252219Y-97221D01*
X252219Y-108721D01*
X251719Y-109221D01*
X249719Y-109221D01*
X249219Y-108721D01*
X249219Y-97221D01*
X250218Y-96221D01*
X251219Y-96221D01*
G37*
G54D17*
X251219Y-96221D02*
X252219Y-97221D01*
X252219Y-108721D01*
X251719Y-109221D01*
X249719Y-109221D01*
X249219Y-108721D01*
X249219Y-97221D01*
X250218Y-96221D01*
X251219Y-96221D01*
G36*
X246219Y-96221D02*
X247218Y-97221D01*
X247218Y-108721D01*
X246719Y-109221D01*
X244718Y-109221D01*
X244219Y-108721D01*
X244219Y-97221D01*
X245219Y-96221D01*
X246219Y-96221D01*
G37*
G54D17*
X246219Y-96221D02*
X247218Y-97221D01*
X247218Y-108721D01*
X246719Y-109221D01*
X244718Y-109221D01*
X244219Y-108721D01*
X244219Y-97221D01*
X245219Y-96221D01*
X246219Y-96221D01*
G36*
X241218Y-96221D02*
X242219Y-97221D01*
X242218Y-108721D01*
X241719Y-109221D01*
X239718Y-109221D01*
X239218Y-108721D01*
X239219Y-97221D01*
X240219Y-96221D01*
X241218Y-96221D01*
G37*
G54D17*
X241218Y-96221D02*
X242219Y-97221D01*
X242218Y-108721D01*
X241719Y-109221D01*
X239718Y-109221D01*
X239218Y-108721D01*
X239219Y-97221D01*
X240219Y-96221D01*
X241218Y-96221D01*
G36*
X236218Y-96221D02*
X237219Y-97221D01*
X237218Y-108721D01*
X236718Y-109221D01*
X234719Y-109221D01*
X234219Y-108721D01*
X234219Y-97221D01*
X235219Y-96221D01*
X236218Y-96221D01*
G37*
G54D17*
X236218Y-96221D02*
X237219Y-97221D01*
X237218Y-108721D01*
X236718Y-109221D01*
X234719Y-109221D01*
X234219Y-108721D01*
X234219Y-97221D01*
X235219Y-96221D01*
X236218Y-96221D01*
G36*
X231218Y-96221D02*
X232218Y-97221D01*
X232219Y-108721D01*
X231718Y-109221D01*
X229719Y-109221D01*
X229218Y-108721D01*
X229218Y-97221D01*
X230218Y-96221D01*
X231218Y-96221D01*
G37*
G54D17*
X231218Y-96221D02*
X232218Y-97221D01*
X232219Y-108721D01*
X231718Y-109221D01*
X229719Y-109221D01*
X229218Y-108721D01*
X229218Y-97221D01*
X230218Y-96221D01*
X231218Y-96221D01*
G36*
X226218Y-96221D02*
X227219Y-97221D01*
X227219Y-108721D01*
X226719Y-109221D01*
X224718Y-109221D01*
X224218Y-108721D01*
X224218Y-97221D01*
X225219Y-96221D01*
X226218Y-96221D01*
G37*
G54D17*
X226218Y-96221D02*
X227219Y-97221D01*
X227219Y-108721D01*
X226719Y-109221D01*
X224718Y-109221D01*
X224218Y-108721D01*
X224218Y-97221D01*
X225219Y-96221D01*
X226218Y-96221D01*
G36*
X221219Y-96221D02*
X222219Y-97221D01*
X222219Y-108721D01*
X221719Y-109221D01*
X219719Y-109221D01*
X219218Y-108721D01*
X219219Y-97221D01*
X220219Y-96221D01*
X221219Y-96221D01*
G37*
G54D17*
X221219Y-96221D02*
X222219Y-97221D01*
X222219Y-108721D01*
X221719Y-109221D01*
X219719Y-109221D01*
X219218Y-108721D01*
X219219Y-97221D01*
X220219Y-96221D01*
X221219Y-96221D01*
G36*
X216219Y-96221D02*
X217219Y-97221D01*
X217219Y-108721D01*
X216718Y-109221D01*
X214718Y-109221D01*
X214219Y-108721D01*
X214219Y-97221D01*
X215219Y-96221D01*
X216219Y-96221D01*
G37*
G54D17*
X216219Y-96221D02*
X217219Y-97221D01*
X217219Y-108721D01*
X216718Y-109221D01*
X214718Y-109221D01*
X214219Y-108721D01*
X214219Y-97221D01*
X215219Y-96221D01*
X216219Y-96221D01*
G36*
X211218Y-96221D02*
X212218Y-97221D01*
X212218Y-108721D01*
X211719Y-109221D01*
X209718Y-109221D01*
X209218Y-108721D01*
X209218Y-97221D01*
X210218Y-96221D01*
X211218Y-96221D01*
G37*
G54D17*
X211218Y-96221D02*
X212218Y-97221D01*
X212218Y-108721D01*
X211719Y-109221D01*
X209718Y-109221D01*
X209218Y-108721D01*
X209218Y-97221D01*
X210218Y-96221D01*
X211218Y-96221D01*
G36*
X206219Y-96221D02*
X207219Y-97221D01*
X207219Y-108721D01*
X206718Y-109221D01*
X204719Y-109221D01*
X204219Y-108721D01*
X204219Y-97221D01*
X205219Y-96221D01*
X206219Y-96221D01*
G37*
G54D17*
X206219Y-96221D02*
X207219Y-97221D01*
X207219Y-108721D01*
X206718Y-109221D01*
X204719Y-109221D01*
X204219Y-108721D01*
X204219Y-97221D01*
X205219Y-96221D01*
X206219Y-96221D01*
G36*
X201219Y-96221D02*
X202219Y-97221D01*
X202218Y-108721D01*
X201719Y-109221D01*
X199719Y-109221D01*
X199218Y-108721D01*
X199219Y-97221D01*
X200218Y-96221D01*
X201219Y-96221D01*
G37*
G54D17*
X201219Y-96221D02*
X202219Y-97221D01*
X202218Y-108721D01*
X201719Y-109221D01*
X199719Y-109221D01*
X199218Y-108721D01*
X199219Y-97221D01*
X200218Y-96221D01*
X201219Y-96221D01*
G36*
X196219Y-96221D02*
X197219Y-97221D01*
X197219Y-108721D01*
X196718Y-109221D01*
X194719Y-109221D01*
X194219Y-108721D01*
X194219Y-97221D01*
X195219Y-96221D01*
X196219Y-96221D01*
G37*
G54D17*
X196219Y-96221D02*
X197219Y-97221D01*
X197219Y-108721D01*
X196718Y-109221D01*
X194719Y-109221D01*
X194219Y-108721D01*
X194219Y-97221D01*
X195219Y-96221D01*
X196219Y-96221D01*
G36*
X191219Y-96221D02*
X192219Y-97221D01*
X192218Y-108721D01*
X191719Y-109221D01*
X189718Y-109221D01*
X189218Y-108721D01*
X189219Y-97221D01*
X190219Y-96221D01*
X191219Y-96221D01*
G37*
G54D17*
X191219Y-96221D02*
X192219Y-97221D01*
X192218Y-108721D01*
X191719Y-109221D01*
X189718Y-109221D01*
X189218Y-108721D01*
X189219Y-97221D01*
X190219Y-96221D01*
X191219Y-96221D01*
G36*
X186218Y-96221D02*
X187219Y-97221D01*
X187219Y-108721D01*
X186719Y-109221D01*
X184719Y-109221D01*
X184219Y-108721D01*
X184219Y-97221D01*
X185219Y-96221D01*
X186218Y-96221D01*
G37*
G54D17*
X186218Y-96221D02*
X187219Y-97221D01*
X187219Y-108721D01*
X186719Y-109221D01*
X184719Y-109221D01*
X184219Y-108721D01*
X184219Y-97221D01*
X185219Y-96221D01*
X186218Y-96221D01*
G36*
X181219Y-96221D02*
X182218Y-97221D01*
X182218Y-108721D01*
X181719Y-109221D01*
X179718Y-109221D01*
X179219Y-108721D01*
X179219Y-97221D01*
X180218Y-96221D01*
X181219Y-96221D01*
G37*
G54D17*
X181219Y-96221D02*
X182218Y-97221D01*
X182218Y-108721D01*
X181719Y-109221D01*
X179718Y-109221D01*
X179219Y-108721D01*
X179219Y-97221D01*
X180218Y-96221D01*
X181219Y-96221D01*
G36*
X176219Y-96221D02*
X177218Y-97221D01*
X177218Y-108721D01*
X176719Y-109221D01*
X174719Y-109221D01*
X174219Y-108721D01*
X174219Y-97221D01*
X175219Y-96221D01*
X176219Y-96221D01*
G37*
G54D17*
X176219Y-96221D02*
X177218Y-97221D01*
X177218Y-108721D01*
X176719Y-109221D01*
X174719Y-109221D01*
X174219Y-108721D01*
X174219Y-97221D01*
X175219Y-96221D01*
X176219Y-96221D01*
G36*
X171219Y-96221D02*
X172219Y-97221D01*
X172219Y-108721D01*
X171719Y-109221D01*
X169718Y-109221D01*
X169219Y-108721D01*
X169219Y-97221D01*
X170218Y-96221D01*
X171219Y-96221D01*
G37*
G54D17*
X171219Y-96221D02*
X172219Y-97221D01*
X172219Y-108721D01*
X171719Y-109221D01*
X169718Y-109221D01*
X169219Y-108721D01*
X169219Y-97221D01*
X170218Y-96221D01*
X171219Y-96221D01*
G36*
X166219Y-96221D02*
X167218Y-97221D01*
X167219Y-108721D01*
X166719Y-109221D01*
X164718Y-109221D01*
X164218Y-108721D01*
X164218Y-97221D01*
X165219Y-96221D01*
X166219Y-96221D01*
G37*
G54D17*
X166219Y-96221D02*
X167218Y-97221D01*
X167219Y-108721D01*
X166719Y-109221D01*
X164718Y-109221D01*
X164218Y-108721D01*
X164218Y-97221D01*
X165219Y-96221D01*
X166219Y-96221D01*
G36*
X161218Y-96221D02*
X162219Y-97221D01*
X162219Y-108721D01*
X161718Y-109221D01*
X159719Y-109221D01*
X159219Y-108721D01*
X159219Y-97221D01*
X160219Y-96221D01*
X161218Y-96221D01*
G37*
G54D17*
X161218Y-96221D02*
X162219Y-97221D01*
X162219Y-108721D01*
X161718Y-109221D01*
X159719Y-109221D01*
X159219Y-108721D01*
X159219Y-97221D01*
X160219Y-96221D01*
X161218Y-96221D01*
G36*
X271219Y-96221D02*
X272218Y-97221D01*
X272218Y-108721D01*
X271719Y-109221D01*
X269719Y-109221D01*
X269219Y-108721D01*
X269219Y-97221D01*
X270219Y-96221D01*
X271219Y-96221D01*
G37*
G54D17*
X271219Y-96221D02*
X272218Y-97221D01*
X272218Y-108721D01*
X271719Y-109221D01*
X269719Y-109221D01*
X269219Y-108721D01*
X269219Y-97221D01*
X270219Y-96221D01*
X271219Y-96221D01*
X293687Y-241216D02*
G54D16*
D03*
X293687Y-236216D02*
G54D16*
D03*
X293687Y-231216D02*
G54D16*
D03*
X293687Y-226216D02*
G54D16*
D03*
X293687Y-221216D02*
G54D16*
D03*
X293687Y-216216D02*
G54D16*
D03*
X293687Y-211216D02*
G54D16*
D03*
X293687Y-206216D02*
G54D16*
D03*
X293687Y-201216D02*
G54D16*
D03*
X293687Y-196216D02*
G54D16*
D03*
X293687Y-191216D02*
G54D16*
D03*
X293688Y-186216D02*
G54D16*
D03*
X293688Y-181216D02*
G54D16*
D03*
X293687Y-176216D02*
G54D16*
D03*
X293687Y-171216D02*
G54D16*
D03*
X293687Y-166216D02*
G54D16*
D03*
X293688Y-161216D02*
G54D16*
D03*
X293687Y-156216D02*
G54D16*
D03*
X293687Y-151216D02*
G54D16*
D03*
X293687Y-146216D02*
G54D16*
D03*
X293687Y-141216D02*
G54D16*
D03*
X293687Y-136216D02*
G54D16*
D03*
X293687Y-131216D02*
G54D16*
D03*
X293687Y-126216D02*
G54D16*
D03*
X293687Y-121216D02*
G54D16*
D03*
G36*
X296718Y-241721D02*
X295719Y-242721D01*
X291219Y-242721D01*
X290718Y-242221D01*
X290718Y-240221D01*
X291218Y-239721D01*
X295719Y-239721D01*
X296718Y-240721D01*
X296718Y-241721D01*
G37*
G54D17*
X296718Y-241721D02*
X295719Y-242721D01*
X291219Y-242721D01*
X290718Y-242221D01*
X290718Y-240221D01*
X291218Y-239721D01*
X295719Y-239721D01*
X296718Y-240721D01*
X296718Y-241721D01*
G36*
X296719Y-121721D02*
X295718Y-122721D01*
X291218Y-122721D01*
X290719Y-122221D01*
X290719Y-120221D01*
X291218Y-119721D01*
X295718Y-119721D01*
X296718Y-120721D01*
X296719Y-121721D01*
G37*
G54D17*
X296719Y-121721D02*
X295718Y-122721D01*
X291218Y-122721D01*
X290719Y-122221D01*
X290719Y-120221D01*
X291218Y-119721D01*
X295718Y-119721D01*
X296718Y-120721D01*
X296719Y-121721D01*
G36*
X300719Y-231721D02*
X299719Y-232721D01*
X288218Y-232721D01*
X287719Y-232221D01*
X287718Y-230221D01*
X288218Y-229721D01*
X299718Y-229721D01*
X300719Y-230721D01*
X300719Y-231721D01*
G37*
G54D17*
X300719Y-231721D02*
X299719Y-232721D01*
X288218Y-232721D01*
X287719Y-232221D01*
X287718Y-230221D01*
X288218Y-229721D01*
X299718Y-229721D01*
X300719Y-230721D01*
X300719Y-231721D01*
G36*
X300719Y-226721D02*
X299718Y-227721D01*
X288218Y-227721D01*
X287718Y-227221D01*
X287719Y-225221D01*
X288218Y-224721D01*
X299719Y-224721D01*
X300718Y-225721D01*
X300719Y-226721D01*
G37*
G54D17*
X300719Y-226721D02*
X299718Y-227721D01*
X288218Y-227721D01*
X287718Y-227221D01*
X287719Y-225221D01*
X288218Y-224721D01*
X299719Y-224721D01*
X300718Y-225721D01*
X300719Y-226721D01*
G36*
X300719Y-221721D02*
X299719Y-222721D01*
X288218Y-222721D01*
X287719Y-222221D01*
X287719Y-220221D01*
X288219Y-219721D01*
X299718Y-219721D01*
X300719Y-220721D01*
X300719Y-221721D01*
G37*
G54D17*
X300719Y-221721D02*
X299719Y-222721D01*
X288218Y-222721D01*
X287719Y-222221D01*
X287719Y-220221D01*
X288219Y-219721D01*
X299718Y-219721D01*
X300719Y-220721D01*
X300719Y-221721D01*
G36*
X300719Y-216721D02*
X299718Y-217721D01*
X288218Y-217721D01*
X287719Y-217221D01*
X287718Y-215221D01*
X288219Y-214721D01*
X299718Y-214721D01*
X300719Y-215721D01*
X300719Y-216721D01*
G37*
G54D17*
X300719Y-216721D02*
X299718Y-217721D01*
X288218Y-217721D01*
X287719Y-217221D01*
X287718Y-215221D01*
X288219Y-214721D01*
X299718Y-214721D01*
X300719Y-215721D01*
X300719Y-216721D01*
G36*
X300719Y-211721D02*
X299718Y-212721D01*
X288219Y-212721D01*
X287718Y-212221D01*
X287719Y-210221D01*
X288219Y-209721D01*
X299718Y-209721D01*
X300719Y-210721D01*
X300719Y-211721D01*
G37*
G54D17*
X300719Y-211721D02*
X299718Y-212721D01*
X288219Y-212721D01*
X287718Y-212221D01*
X287719Y-210221D01*
X288219Y-209721D01*
X299718Y-209721D01*
X300719Y-210721D01*
X300719Y-211721D01*
G36*
X300719Y-206721D02*
X299719Y-207721D01*
X288219Y-207721D01*
X287719Y-207221D01*
X287718Y-205221D01*
X288218Y-204721D01*
X299719Y-204721D01*
X300719Y-205721D01*
X300719Y-206721D01*
G37*
G54D17*
X300719Y-206721D02*
X299719Y-207721D01*
X288219Y-207721D01*
X287719Y-207221D01*
X287718Y-205221D01*
X288218Y-204721D01*
X299719Y-204721D01*
X300719Y-205721D01*
X300719Y-206721D01*
G36*
X300718Y-201721D02*
X299718Y-202721D01*
X288219Y-202721D01*
X287718Y-202221D01*
X287718Y-200221D01*
X288219Y-199721D01*
X299719Y-199721D01*
X300718Y-200721D01*
X300718Y-201721D01*
G37*
G54D17*
X300718Y-201721D02*
X299718Y-202721D01*
X288219Y-202721D01*
X287718Y-202221D01*
X287718Y-200221D01*
X288219Y-199721D01*
X299719Y-199721D01*
X300718Y-200721D01*
X300718Y-201721D01*
G36*
X300719Y-196721D02*
X299719Y-197721D01*
X288218Y-197721D01*
X287718Y-197221D01*
X287719Y-195221D01*
X288219Y-194721D01*
X299719Y-194721D01*
X300719Y-195721D01*
X300719Y-196721D01*
G37*
G54D17*
X300719Y-196721D02*
X299719Y-197721D01*
X288218Y-197721D01*
X287718Y-197221D01*
X287719Y-195221D01*
X288219Y-194721D01*
X299719Y-194721D01*
X300719Y-195721D01*
X300719Y-196721D01*
G36*
X300719Y-191721D02*
X299718Y-192721D01*
X288218Y-192721D01*
X287718Y-192221D01*
X287718Y-190221D01*
X288218Y-189721D01*
X299718Y-189721D01*
X300719Y-190721D01*
X300719Y-191721D01*
G37*
G54D17*
X300719Y-191721D02*
X299718Y-192721D01*
X288218Y-192721D01*
X287718Y-192221D01*
X287718Y-190221D01*
X288218Y-189721D01*
X299718Y-189721D01*
X300719Y-190721D01*
X300719Y-191721D01*
G36*
X300718Y-186721D02*
X299719Y-187721D01*
X288218Y-187721D01*
X287718Y-187221D01*
X287718Y-185221D01*
X288218Y-184721D01*
X299719Y-184721D01*
X300719Y-185721D01*
X300718Y-186721D01*
G37*
G54D17*
X300718Y-186721D02*
X299719Y-187721D01*
X288218Y-187721D01*
X287718Y-187221D01*
X287718Y-185221D01*
X288218Y-184721D01*
X299719Y-184721D01*
X300719Y-185721D01*
X300718Y-186721D01*
G36*
X300719Y-181721D02*
X299719Y-182721D01*
X288219Y-182721D01*
X287718Y-182221D01*
X287718Y-180221D01*
X288218Y-179721D01*
X299718Y-179721D01*
X300719Y-180721D01*
X300719Y-181721D01*
G37*
G54D17*
X300719Y-181721D02*
X299719Y-182721D01*
X288219Y-182721D01*
X287718Y-182221D01*
X287718Y-180221D01*
X288218Y-179721D01*
X299718Y-179721D01*
X300719Y-180721D01*
X300719Y-181721D01*
G36*
X300718Y-176721D02*
X299718Y-177721D01*
X288218Y-177721D01*
X287718Y-177221D01*
X287719Y-175221D01*
X288219Y-174721D01*
X299719Y-174721D01*
X300719Y-175721D01*
X300718Y-176721D01*
G37*
G54D17*
X300718Y-176721D02*
X299718Y-177721D01*
X288218Y-177721D01*
X287718Y-177221D01*
X287719Y-175221D01*
X288219Y-174721D01*
X299719Y-174721D01*
X300719Y-175721D01*
X300718Y-176721D01*
G36*
X300719Y-171721D02*
X299718Y-172721D01*
X288218Y-172721D01*
X287719Y-172221D01*
X287718Y-170221D01*
X288218Y-169721D01*
X299719Y-169721D01*
X300719Y-170721D01*
X300719Y-171721D01*
G37*
G54D17*
X300719Y-171721D02*
X299718Y-172721D01*
X288218Y-172721D01*
X287719Y-172221D01*
X287718Y-170221D01*
X288218Y-169721D01*
X299719Y-169721D01*
X300719Y-170721D01*
X300719Y-171721D01*
G36*
X300719Y-166721D02*
X299718Y-167721D01*
X288218Y-167721D01*
X287718Y-167221D01*
X287719Y-165221D01*
X288219Y-164721D01*
X299718Y-164721D01*
X300719Y-165721D01*
X300719Y-166721D01*
G37*
G54D17*
X300719Y-166721D02*
X299718Y-167721D01*
X288218Y-167721D01*
X287718Y-167221D01*
X287719Y-165221D01*
X288219Y-164721D01*
X299718Y-164721D01*
X300719Y-165721D01*
X300719Y-166721D01*
G36*
X300719Y-161721D02*
X299718Y-162721D01*
X288219Y-162721D01*
X287719Y-162221D01*
X287718Y-160221D01*
X288219Y-159721D01*
X299719Y-159721D01*
X300719Y-160721D01*
X300719Y-161721D01*
G37*
G54D17*
X300719Y-161721D02*
X299718Y-162721D01*
X288219Y-162721D01*
X287719Y-162221D01*
X287718Y-160221D01*
X288219Y-159721D01*
X299719Y-159721D01*
X300719Y-160721D01*
X300719Y-161721D01*
G36*
X300718Y-156721D02*
X299718Y-157721D01*
X288219Y-157721D01*
X287718Y-157221D01*
X287718Y-155221D01*
X288219Y-154721D01*
X299718Y-154721D01*
X300719Y-155721D01*
X300718Y-156721D01*
G37*
G54D17*
X300718Y-156721D02*
X299718Y-157721D01*
X288219Y-157721D01*
X287718Y-157221D01*
X287718Y-155221D01*
X288219Y-154721D01*
X299718Y-154721D01*
X300719Y-155721D01*
X300718Y-156721D01*
G36*
X300719Y-151721D02*
X299718Y-152721D01*
X288218Y-152721D01*
X287718Y-152221D01*
X287718Y-150221D01*
X288218Y-149721D01*
X299719Y-149721D01*
X300719Y-150721D01*
X300719Y-151721D01*
G37*
G54D17*
X300719Y-151721D02*
X299718Y-152721D01*
X288218Y-152721D01*
X287718Y-152221D01*
X287718Y-150221D01*
X288218Y-149721D01*
X299719Y-149721D01*
X300719Y-150721D01*
X300719Y-151721D01*
G36*
X300719Y-146721D02*
X299718Y-147721D01*
X288219Y-147721D01*
X287718Y-147221D01*
X287718Y-145221D01*
X288218Y-144721D01*
X299718Y-144721D01*
X300718Y-145721D01*
X300719Y-146721D01*
G37*
G54D17*
X300719Y-146721D02*
X299718Y-147721D01*
X288219Y-147721D01*
X287718Y-147221D01*
X287718Y-145221D01*
X288218Y-144721D01*
X299718Y-144721D01*
X300718Y-145721D01*
X300719Y-146721D01*
G36*
X300719Y-141721D02*
X299718Y-142721D01*
X288219Y-142721D01*
X287718Y-142221D01*
X287718Y-140221D01*
X288219Y-139721D01*
X299718Y-139721D01*
X300718Y-140721D01*
X300719Y-141721D01*
G37*
G54D17*
X300719Y-141721D02*
X299718Y-142721D01*
X288219Y-142721D01*
X287718Y-142221D01*
X287718Y-140221D01*
X288219Y-139721D01*
X299718Y-139721D01*
X300718Y-140721D01*
X300719Y-141721D01*
G36*
X300719Y-136721D02*
X299718Y-137721D01*
X288218Y-137721D01*
X287718Y-137221D01*
X287719Y-135221D01*
X288218Y-134721D01*
X299718Y-134721D01*
X300719Y-135721D01*
X300719Y-136721D01*
G37*
G54D17*
X300719Y-136721D02*
X299718Y-137721D01*
X288218Y-137721D01*
X287718Y-137221D01*
X287719Y-135221D01*
X288218Y-134721D01*
X299718Y-134721D01*
X300719Y-135721D01*
X300719Y-136721D01*
G36*
X300719Y-131721D02*
X299719Y-132721D01*
X288219Y-132721D01*
X287718Y-132221D01*
X287718Y-130221D01*
X288218Y-129721D01*
X299718Y-129721D01*
X300719Y-130721D01*
X300719Y-131721D01*
G37*
G54D17*
X300719Y-131721D02*
X299719Y-132721D01*
X288219Y-132721D01*
X287718Y-132221D01*
X287718Y-130221D01*
X288218Y-129721D01*
X299718Y-129721D01*
X300719Y-130721D01*
X300719Y-131721D01*
G36*
X300719Y-126721D02*
X299718Y-127721D01*
X288218Y-127721D01*
X287718Y-127221D01*
X287718Y-125221D01*
X288219Y-124721D01*
X299718Y-124721D01*
X300718Y-125721D01*
X300719Y-126721D01*
G37*
G54D17*
X300719Y-126721D02*
X299718Y-127721D01*
X288218Y-127721D01*
X287718Y-127221D01*
X287718Y-125221D01*
X288219Y-124721D01*
X299718Y-124721D01*
X300718Y-125721D01*
X300719Y-126721D01*
G36*
X300719Y-236721D02*
X299718Y-237721D01*
X288219Y-237721D01*
X287718Y-237221D01*
X287718Y-235221D01*
X288218Y-234721D01*
X299718Y-234721D01*
X300719Y-235721D01*
X300719Y-236721D01*
G37*
G54D17*
X300719Y-236721D02*
X299718Y-237721D01*
X288219Y-237721D01*
X287718Y-237221D01*
X287718Y-235221D01*
X288218Y-234721D01*
X299718Y-234721D01*
X300719Y-235721D01*
X300719Y-236721D01*
X155724Y-259189D02*
G54D16*
D03*
X160723Y-259190D02*
G54D16*
D03*
X165724Y-259190D02*
G54D16*
D03*
X170724Y-259189D02*
G54D16*
D03*
X175724Y-259190D02*
G54D16*
D03*
X180724Y-259190D02*
G54D16*
D03*
X185724Y-259190D02*
G54D16*
D03*
X190724Y-259189D02*
G54D16*
D03*
X195724Y-259189D02*
G54D16*
D03*
X200723Y-259190D02*
G54D16*
D03*
X205724Y-259190D02*
G54D16*
D03*
X210724Y-259190D02*
G54D16*
D03*
X215723Y-259190D02*
G54D16*
D03*
X220724Y-259190D02*
G54D16*
D03*
X225724Y-259189D02*
G54D16*
D03*
X230724Y-259190D02*
G54D16*
D03*
X235724Y-259190D02*
G54D16*
D03*
X240724Y-259190D02*
G54D16*
D03*
X245724Y-259190D02*
G54D16*
D03*
X250723Y-259190D02*
G54D16*
D03*
X255723Y-259190D02*
G54D16*
D03*
X260724Y-259190D02*
G54D16*
D03*
X265723Y-259190D02*
G54D16*
D03*
X270723Y-259190D02*
G54D16*
D03*
X275724Y-259190D02*
G54D16*
D03*
G36*
X155219Y-262221D02*
X154218Y-261221D01*
X154219Y-256721D01*
X154719Y-256221D01*
X156718Y-256221D01*
X157218Y-256721D01*
X157219Y-261221D01*
X156218Y-262221D01*
X155219Y-262221D01*
G37*
G54D17*
X155219Y-262221D02*
X154218Y-261221D01*
X154219Y-256721D01*
X154719Y-256221D01*
X156718Y-256221D01*
X157218Y-256721D01*
X157219Y-261221D01*
X156218Y-262221D01*
X155219Y-262221D01*
G36*
X275219Y-262221D02*
X274219Y-261221D01*
X274218Y-256721D01*
X274719Y-256221D01*
X276719Y-256221D01*
X277219Y-256721D01*
X277219Y-261221D01*
X276219Y-262221D01*
X275219Y-262221D01*
G37*
G54D17*
X275219Y-262221D02*
X274219Y-261221D01*
X274218Y-256721D01*
X274719Y-256221D01*
X276719Y-256221D01*
X277219Y-256721D01*
X277219Y-261221D01*
X276219Y-262221D01*
X275219Y-262221D01*
G36*
X165219Y-266221D02*
X164219Y-265221D01*
X164218Y-253721D01*
X164718Y-253221D01*
X166718Y-253221D01*
X167219Y-253721D01*
X167219Y-265221D01*
X166219Y-266221D01*
X165219Y-266221D01*
G37*
G54D17*
X165219Y-266221D02*
X164219Y-265221D01*
X164218Y-253721D01*
X164718Y-253221D01*
X166718Y-253221D01*
X167219Y-253721D01*
X167219Y-265221D01*
X166219Y-266221D01*
X165219Y-266221D01*
G36*
X170219Y-266221D02*
X169219Y-265221D01*
X169219Y-253721D01*
X169719Y-253221D01*
X171719Y-253221D01*
X172218Y-253721D01*
X172219Y-265221D01*
X171219Y-266221D01*
X170219Y-266221D01*
G37*
G54D17*
X170219Y-266221D02*
X169219Y-265221D01*
X169219Y-253721D01*
X169719Y-253221D01*
X171719Y-253221D01*
X172218Y-253721D01*
X172219Y-265221D01*
X171219Y-266221D01*
X170219Y-266221D01*
G36*
X175218Y-266221D02*
X174219Y-265221D01*
X174219Y-253721D01*
X174719Y-253221D01*
X176719Y-253221D01*
X177219Y-253721D01*
X177219Y-265221D01*
X176218Y-266221D01*
X175218Y-266221D01*
G37*
G54D17*
X175218Y-266221D02*
X174219Y-265221D01*
X174219Y-253721D01*
X174719Y-253221D01*
X176719Y-253221D01*
X177219Y-253721D01*
X177219Y-265221D01*
X176218Y-266221D01*
X175218Y-266221D01*
G36*
X180219Y-266221D02*
X179219Y-265221D01*
X179218Y-253721D01*
X179718Y-253221D01*
X181719Y-253221D01*
X182219Y-253721D01*
X182219Y-265221D01*
X181219Y-266221D01*
X180219Y-266221D01*
G37*
G54D17*
X180219Y-266221D02*
X179219Y-265221D01*
X179218Y-253721D01*
X179718Y-253221D01*
X181719Y-253221D01*
X182219Y-253721D01*
X182219Y-265221D01*
X181219Y-266221D01*
X180219Y-266221D01*
G36*
X185219Y-266221D02*
X184218Y-265221D01*
X184219Y-253721D01*
X184719Y-253221D01*
X186718Y-253221D01*
X187219Y-253721D01*
X187218Y-265221D01*
X186219Y-266221D01*
X185219Y-266221D01*
G37*
G54D17*
X185219Y-266221D02*
X184218Y-265221D01*
X184219Y-253721D01*
X184719Y-253221D01*
X186718Y-253221D01*
X187219Y-253721D01*
X187218Y-265221D01*
X186219Y-266221D01*
X185219Y-266221D01*
G36*
X190219Y-266221D02*
X189218Y-265221D01*
X189218Y-253721D01*
X189718Y-253221D01*
X191719Y-253221D01*
X192219Y-253721D01*
X192219Y-265221D01*
X191219Y-266221D01*
X190219Y-266221D01*
G37*
G54D17*
X190219Y-266221D02*
X189218Y-265221D01*
X189218Y-253721D01*
X189718Y-253221D01*
X191719Y-253221D01*
X192219Y-253721D01*
X192219Y-265221D01*
X191219Y-266221D01*
X190219Y-266221D01*
G36*
X195218Y-266221D02*
X194218Y-265221D01*
X194218Y-253721D01*
X194719Y-253221D01*
X196718Y-253221D01*
X197219Y-253721D01*
X197218Y-265221D01*
X196219Y-266221D01*
X195218Y-266221D01*
G37*
G54D17*
X195218Y-266221D02*
X194218Y-265221D01*
X194218Y-253721D01*
X194719Y-253221D01*
X196718Y-253221D01*
X197219Y-253721D01*
X197218Y-265221D01*
X196219Y-266221D01*
X195218Y-266221D01*
G36*
X200218Y-266221D02*
X199218Y-265221D01*
X199219Y-253721D01*
X199719Y-253221D01*
X201719Y-253221D01*
X202219Y-253721D01*
X202219Y-265221D01*
X201219Y-266221D01*
X200218Y-266221D01*
G37*
G54D17*
X200218Y-266221D02*
X199218Y-265221D01*
X199219Y-253721D01*
X199719Y-253221D01*
X201719Y-253221D01*
X202219Y-253721D01*
X202219Y-265221D01*
X201219Y-266221D01*
X200218Y-266221D01*
G36*
X205219Y-266221D02*
X204218Y-265221D01*
X204219Y-253721D01*
X204719Y-253221D01*
X206719Y-253221D01*
X207219Y-253721D01*
X207219Y-265221D01*
X206219Y-266221D01*
X205219Y-266221D01*
G37*
G54D17*
X205219Y-266221D02*
X204218Y-265221D01*
X204219Y-253721D01*
X204719Y-253221D01*
X206719Y-253221D01*
X207219Y-253721D01*
X207219Y-265221D01*
X206219Y-266221D01*
X205219Y-266221D01*
G36*
X210219Y-266221D02*
X209219Y-265221D01*
X209219Y-253721D01*
X209718Y-253221D01*
X211719Y-253221D01*
X212218Y-253721D01*
X212218Y-265221D01*
X211219Y-266221D01*
X210219Y-266221D01*
G37*
G54D17*
X210219Y-266221D02*
X209219Y-265221D01*
X209219Y-253721D01*
X209718Y-253221D01*
X211719Y-253221D01*
X212218Y-253721D01*
X212218Y-265221D01*
X211219Y-266221D01*
X210219Y-266221D01*
G36*
X215219Y-266221D02*
X214219Y-265221D01*
X214218Y-253721D01*
X214718Y-253221D01*
X216719Y-253221D01*
X217218Y-253721D01*
X217219Y-265221D01*
X216219Y-266221D01*
X215219Y-266221D01*
G37*
G54D17*
X215219Y-266221D02*
X214219Y-265221D01*
X214218Y-253721D01*
X214718Y-253221D01*
X216719Y-253221D01*
X217218Y-253721D01*
X217219Y-265221D01*
X216219Y-266221D01*
X215219Y-266221D01*
G36*
X220218Y-266221D02*
X219218Y-265221D01*
X219219Y-253721D01*
X219718Y-253221D01*
X221719Y-253221D01*
X222219Y-253721D01*
X222219Y-265221D01*
X221219Y-266221D01*
X220218Y-266221D01*
G37*
G54D17*
X220218Y-266221D02*
X219218Y-265221D01*
X219219Y-253721D01*
X219718Y-253221D01*
X221719Y-253221D01*
X222219Y-253721D01*
X222219Y-265221D01*
X221219Y-266221D01*
X220218Y-266221D01*
G36*
X225219Y-266221D02*
X224219Y-265221D01*
X224218Y-253721D01*
X224719Y-253221D01*
X226718Y-253221D01*
X227218Y-253721D01*
X227219Y-265221D01*
X226219Y-266221D01*
X225219Y-266221D01*
G37*
G54D17*
X225219Y-266221D02*
X224219Y-265221D01*
X224218Y-253721D01*
X224719Y-253221D01*
X226718Y-253221D01*
X227218Y-253721D01*
X227219Y-265221D01*
X226219Y-266221D01*
X225219Y-266221D01*
G36*
X230219Y-266221D02*
X229218Y-265221D01*
X229219Y-253721D01*
X229719Y-253221D01*
X231719Y-253221D01*
X232219Y-253721D01*
X232219Y-265221D01*
X231218Y-266221D01*
X230219Y-266221D01*
G37*
G54D17*
X230219Y-266221D02*
X229218Y-265221D01*
X229219Y-253721D01*
X229719Y-253221D01*
X231719Y-253221D01*
X232219Y-253721D01*
X232219Y-265221D01*
X231218Y-266221D01*
X230219Y-266221D01*
G36*
X235219Y-266221D02*
X234219Y-265221D01*
X234218Y-253721D01*
X234718Y-253221D01*
X236718Y-253221D01*
X237218Y-253721D01*
X237219Y-265221D01*
X236219Y-266221D01*
X235219Y-266221D01*
G37*
G54D17*
X235219Y-266221D02*
X234219Y-265221D01*
X234218Y-253721D01*
X234718Y-253221D01*
X236718Y-253221D01*
X237218Y-253721D01*
X237219Y-265221D01*
X236219Y-266221D01*
X235219Y-266221D01*
G36*
X240219Y-266221D02*
X239219Y-265221D01*
X239219Y-253721D01*
X239719Y-253221D01*
X241719Y-253221D01*
X242219Y-253721D01*
X242218Y-265221D01*
X241219Y-266221D01*
X240219Y-266221D01*
G37*
G54D17*
X240219Y-266221D02*
X239219Y-265221D01*
X239219Y-253721D01*
X239719Y-253221D01*
X241719Y-253221D01*
X242219Y-253721D01*
X242218Y-265221D01*
X241219Y-266221D01*
X240219Y-266221D01*
G36*
X245219Y-266221D02*
X244219Y-265221D01*
X244218Y-253721D01*
X244718Y-253221D01*
X246719Y-253221D01*
X247219Y-253721D01*
X247219Y-265221D01*
X246219Y-266221D01*
X245219Y-266221D01*
G37*
G54D17*
X245219Y-266221D02*
X244219Y-265221D01*
X244218Y-253721D01*
X244718Y-253221D01*
X246719Y-253221D01*
X247219Y-253721D01*
X247219Y-265221D01*
X246219Y-266221D01*
X245219Y-266221D01*
G36*
X250219Y-266221D02*
X249218Y-265221D01*
X249219Y-253721D01*
X249719Y-253221D01*
X251719Y-253221D01*
X252219Y-253721D01*
X252218Y-265221D01*
X251219Y-266221D01*
X250219Y-266221D01*
G37*
G54D17*
X250219Y-266221D02*
X249218Y-265221D01*
X249219Y-253721D01*
X249719Y-253221D01*
X251719Y-253221D01*
X252219Y-253721D01*
X252218Y-265221D01*
X251219Y-266221D01*
X250219Y-266221D01*
G36*
X255219Y-266221D02*
X254219Y-265221D01*
X254219Y-253721D01*
X254719Y-253221D01*
X256719Y-253221D01*
X257219Y-253721D01*
X257219Y-265221D01*
X256219Y-266221D01*
X255219Y-266221D01*
G37*
G54D17*
X255219Y-266221D02*
X254219Y-265221D01*
X254219Y-253721D01*
X254719Y-253221D01*
X256719Y-253221D01*
X257219Y-253721D01*
X257219Y-265221D01*
X256219Y-266221D01*
X255219Y-266221D01*
G36*
X260219Y-266221D02*
X259218Y-265221D01*
X259219Y-253721D01*
X259719Y-253221D01*
X261718Y-253221D01*
X262218Y-253721D01*
X262219Y-265221D01*
X261219Y-266221D01*
X260219Y-266221D01*
G37*
G54D17*
X260219Y-266221D02*
X259218Y-265221D01*
X259219Y-253721D01*
X259719Y-253221D01*
X261718Y-253221D01*
X262218Y-253721D01*
X262219Y-265221D01*
X261219Y-266221D01*
X260219Y-266221D01*
G36*
X265219Y-266221D02*
X264219Y-265221D01*
X264219Y-253721D01*
X264719Y-253221D01*
X266719Y-253221D01*
X267218Y-253721D01*
X267218Y-265221D01*
X266219Y-266221D01*
X265219Y-266221D01*
G37*
G54D17*
X265219Y-266221D02*
X264219Y-265221D01*
X264219Y-253721D01*
X264719Y-253221D01*
X266719Y-253221D01*
X267218Y-253721D01*
X267218Y-265221D01*
X266219Y-266221D01*
X265219Y-266221D01*
G36*
X270219Y-266221D02*
X269219Y-265221D01*
X269219Y-253721D01*
X269719Y-253221D01*
X271719Y-253221D01*
X272219Y-253720D01*
X272218Y-265221D01*
X271219Y-266221D01*
X270219Y-266221D01*
G37*
G54D17*
X270219Y-266221D02*
X269219Y-265221D01*
X269219Y-253721D01*
X269719Y-253221D01*
X271719Y-253221D01*
X272219Y-253720D01*
X272218Y-265221D01*
X271219Y-266221D01*
X270219Y-266221D01*
G36*
X160219Y-266221D02*
X159219Y-265221D01*
X159219Y-253721D01*
X159719Y-253221D01*
X161719Y-253221D01*
X162218Y-253721D01*
X162219Y-265221D01*
X161219Y-266221D01*
X160219Y-266221D01*
G37*
G54D17*
X160219Y-266221D02*
X159219Y-265221D01*
X159219Y-253721D01*
X159719Y-253221D01*
X161719Y-253221D01*
X162218Y-253721D01*
X162219Y-265221D01*
X161219Y-266221D01*
X160219Y-266221D01*
X137750Y-121226D02*
G54D16*
D03*
X137750Y-126226D02*
G54D16*
D03*
X137750Y-131226D02*
G54D16*
D03*
X137750Y-136226D02*
G54D16*
D03*
X137750Y-141226D02*
G54D16*
D03*
X137750Y-146226D02*
G54D16*
D03*
X137750Y-151226D02*
G54D16*
D03*
X137750Y-156226D02*
G54D16*
D03*
X137750Y-161226D02*
G54D16*
D03*
X137750Y-166226D02*
G54D16*
D03*
X137750Y-171226D02*
G54D16*
D03*
X137750Y-176226D02*
G54D16*
D03*
X137750Y-181226D02*
G54D16*
D03*
X137750Y-186226D02*
G54D16*
D03*
X137750Y-191226D02*
G54D16*
D03*
X137750Y-196226D02*
G54D16*
D03*
X137750Y-201226D02*
G54D16*
D03*
X137750Y-206226D02*
G54D16*
D03*
X137750Y-211226D02*
G54D16*
D03*
X137750Y-216226D02*
G54D16*
D03*
X137750Y-221226D02*
G54D16*
D03*
X137750Y-226226D02*
G54D16*
D03*
X137750Y-231226D02*
G54D16*
D03*
X137750Y-236226D02*
G54D16*
D03*
X137750Y-241226D02*
G54D16*
D03*
G36*
X134719Y-120721D02*
X135719Y-119721D01*
X140219Y-119721D01*
X140719Y-120221D01*
X140718Y-122221D01*
X140219Y-122721D01*
X135719Y-122721D01*
X134719Y-121721D01*
X134719Y-120721D01*
G37*
G54D17*
X134719Y-120721D02*
X135719Y-119721D01*
X140219Y-119721D01*
X140719Y-120221D01*
X140718Y-122221D01*
X140219Y-122721D01*
X135719Y-122721D01*
X134719Y-121721D01*
X134719Y-120721D01*
G36*
X134718Y-240721D02*
X135718Y-239721D01*
X140219Y-239721D01*
X140718Y-240221D01*
X140719Y-242221D01*
X140219Y-242721D01*
X135719Y-242721D01*
X134719Y-241721D01*
X134718Y-240721D01*
G37*
G54D17*
X134718Y-240721D02*
X135718Y-239721D01*
X140219Y-239721D01*
X140718Y-240221D01*
X140719Y-242221D01*
X140219Y-242721D01*
X135719Y-242721D01*
X134719Y-241721D01*
X134718Y-240721D01*
G36*
X130719Y-130721D02*
X131718Y-129721D01*
X143218Y-129721D01*
X143718Y-130221D01*
X143719Y-132221D01*
X143219Y-132721D01*
X131718Y-132721D01*
X130719Y-131721D01*
X130719Y-130721D01*
G37*
G54D17*
X130719Y-130721D02*
X131718Y-129721D01*
X143218Y-129721D01*
X143718Y-130221D01*
X143719Y-132221D01*
X143219Y-132721D01*
X131718Y-132721D01*
X130719Y-131721D01*
X130719Y-130721D01*
G36*
X130718Y-135721D02*
X131719Y-134721D01*
X143218Y-134721D01*
X143718Y-135221D01*
X143719Y-137221D01*
X143218Y-137721D01*
X131718Y-137721D01*
X130719Y-136721D01*
X130718Y-135721D01*
G37*
G54D17*
X130718Y-135721D02*
X131719Y-134721D01*
X143218Y-134721D01*
X143718Y-135221D01*
X143719Y-137221D01*
X143218Y-137721D01*
X131718Y-137721D01*
X130719Y-136721D01*
X130718Y-135721D01*
G36*
X130718Y-140721D02*
X131718Y-139721D01*
X143219Y-139721D01*
X143719Y-140221D01*
X143719Y-142221D01*
X143219Y-142721D01*
X131719Y-142721D01*
X130719Y-141721D01*
X130718Y-140721D01*
G37*
G54D17*
X130718Y-140721D02*
X131718Y-139721D01*
X143219Y-139721D01*
X143719Y-140221D01*
X143719Y-142221D01*
X143219Y-142721D01*
X131719Y-142721D01*
X130719Y-141721D01*
X130718Y-140721D01*
G36*
X130719Y-145721D02*
X131718Y-144721D01*
X143218Y-144721D01*
X143718Y-145221D01*
X143719Y-147221D01*
X143219Y-147721D01*
X131718Y-147721D01*
X130718Y-146721D01*
X130719Y-145721D01*
G37*
G54D17*
X130719Y-145721D02*
X131718Y-144721D01*
X143218Y-144721D01*
X143718Y-145221D01*
X143719Y-147221D01*
X143219Y-147721D01*
X131718Y-147721D01*
X130718Y-146721D01*
X130719Y-145721D01*
G36*
X130719Y-150721D02*
X131719Y-149721D01*
X143219Y-149721D01*
X143719Y-150221D01*
X143719Y-152221D01*
X143218Y-152721D01*
X131719Y-152721D01*
X130719Y-151721D01*
X130719Y-150721D01*
G37*
G54D17*
X130719Y-150721D02*
X131719Y-149721D01*
X143219Y-149721D01*
X143719Y-150221D01*
X143719Y-152221D01*
X143218Y-152721D01*
X131719Y-152721D01*
X130719Y-151721D01*
X130719Y-150721D01*
G36*
X130718Y-155721D02*
X131719Y-154721D01*
X143219Y-154721D01*
X143718Y-155221D01*
X143719Y-157221D01*
X143219Y-157721D01*
X131719Y-157721D01*
X130719Y-156721D01*
X130718Y-155721D01*
G37*
G54D17*
X130718Y-155721D02*
X131719Y-154721D01*
X143219Y-154721D01*
X143718Y-155221D01*
X143719Y-157221D01*
X143219Y-157721D01*
X131719Y-157721D01*
X130719Y-156721D01*
X130718Y-155721D01*
G36*
X130719Y-160721D02*
X131718Y-159721D01*
X143218Y-159721D01*
X143718Y-160221D01*
X143719Y-162221D01*
X143219Y-162721D01*
X131718Y-162721D01*
X130719Y-161721D01*
X130719Y-160721D01*
G37*
G54D17*
X130719Y-160721D02*
X131718Y-159721D01*
X143218Y-159721D01*
X143718Y-160221D01*
X143719Y-162221D01*
X143219Y-162721D01*
X131718Y-162721D01*
X130719Y-161721D01*
X130719Y-160721D01*
G36*
X130719Y-165721D02*
X131718Y-164721D01*
X143219Y-164721D01*
X143719Y-165221D01*
X143719Y-167221D01*
X143219Y-167721D01*
X131719Y-167721D01*
X130719Y-166721D01*
X130719Y-165721D01*
G37*
G54D17*
X130719Y-165721D02*
X131718Y-164721D01*
X143219Y-164721D01*
X143719Y-165221D01*
X143719Y-167221D01*
X143219Y-167721D01*
X131719Y-167721D01*
X130719Y-166721D01*
X130719Y-165721D01*
G36*
X130718Y-170721D02*
X131718Y-169721D01*
X143218Y-169721D01*
X143718Y-170221D01*
X143718Y-172221D01*
X143218Y-172721D01*
X131719Y-172721D01*
X130718Y-171721D01*
X130718Y-170721D01*
G37*
G54D17*
X130718Y-170721D02*
X131718Y-169721D01*
X143218Y-169721D01*
X143718Y-170221D01*
X143718Y-172221D01*
X143218Y-172721D01*
X131719Y-172721D01*
X130718Y-171721D01*
X130718Y-170721D01*
G36*
X130719Y-175721D02*
X131719Y-174721D01*
X143219Y-174721D01*
X143718Y-175221D01*
X143719Y-177221D01*
X143219Y-177721D01*
X131718Y-177721D01*
X130719Y-176721D01*
X130719Y-175721D01*
G37*
G54D17*
X130719Y-175721D02*
X131719Y-174721D01*
X143219Y-174721D01*
X143718Y-175221D01*
X143719Y-177221D01*
X143219Y-177721D01*
X131718Y-177721D01*
X130719Y-176721D01*
X130719Y-175721D01*
G36*
X130719Y-180721D02*
X131719Y-179721D01*
X143218Y-179721D01*
X143718Y-180221D01*
X143719Y-182221D01*
X143218Y-182721D01*
X131719Y-182721D01*
X130719Y-181721D01*
X130719Y-180721D01*
G37*
G54D17*
X130719Y-180721D02*
X131719Y-179721D01*
X143218Y-179721D01*
X143718Y-180221D01*
X143719Y-182221D01*
X143218Y-182721D01*
X131719Y-182721D01*
X130719Y-181721D01*
X130719Y-180721D01*
G36*
X130719Y-185721D02*
X131718Y-184721D01*
X143219Y-184721D01*
X143718Y-185221D01*
X143718Y-187221D01*
X143219Y-187721D01*
X131719Y-187721D01*
X130719Y-186721D01*
X130719Y-185721D01*
G37*
G54D17*
X130719Y-185721D02*
X131718Y-184721D01*
X143219Y-184721D01*
X143718Y-185221D01*
X143718Y-187221D01*
X143219Y-187721D01*
X131719Y-187721D01*
X130719Y-186721D01*
X130719Y-185721D01*
G36*
X130719Y-190721D02*
X131719Y-189721D01*
X143219Y-189721D01*
X143718Y-190221D01*
X143719Y-192221D01*
X143219Y-192721D01*
X131718Y-192721D01*
X130719Y-191721D01*
X130719Y-190721D01*
G37*
G54D17*
X130719Y-190721D02*
X131719Y-189721D01*
X143219Y-189721D01*
X143718Y-190221D01*
X143719Y-192221D01*
X143219Y-192721D01*
X131718Y-192721D01*
X130719Y-191721D01*
X130719Y-190721D01*
G36*
X130719Y-195721D02*
X131718Y-194721D01*
X143219Y-194721D01*
X143718Y-195221D01*
X143719Y-197221D01*
X143219Y-197721D01*
X131719Y-197721D01*
X130719Y-196721D01*
X130719Y-195721D01*
G37*
G54D17*
X130719Y-195721D02*
X131718Y-194721D01*
X143219Y-194721D01*
X143718Y-195221D01*
X143719Y-197221D01*
X143219Y-197721D01*
X131719Y-197721D01*
X130719Y-196721D01*
X130719Y-195721D01*
G36*
X130719Y-200721D02*
X131718Y-199721D01*
X143219Y-199721D01*
X143719Y-200221D01*
X143719Y-202221D01*
X143218Y-202721D01*
X131718Y-202721D01*
X130719Y-201721D01*
X130719Y-200721D01*
G37*
G54D17*
X130719Y-200721D02*
X131718Y-199721D01*
X143219Y-199721D01*
X143719Y-200221D01*
X143719Y-202221D01*
X143218Y-202721D01*
X131718Y-202721D01*
X130719Y-201721D01*
X130719Y-200721D01*
G36*
X130719Y-205721D02*
X131719Y-204721D01*
X143219Y-204721D01*
X143719Y-205221D01*
X143719Y-207221D01*
X143218Y-207721D01*
X131719Y-207721D01*
X130719Y-206721D01*
X130719Y-205721D01*
G37*
G54D17*
X130719Y-205721D02*
X131719Y-204721D01*
X143219Y-204721D01*
X143719Y-205221D01*
X143719Y-207221D01*
X143218Y-207721D01*
X131719Y-207721D01*
X130719Y-206721D01*
X130719Y-205721D01*
G36*
X130719Y-210721D02*
X131718Y-209721D01*
X143218Y-209721D01*
X143718Y-210221D01*
X143719Y-212221D01*
X143219Y-212721D01*
X131719Y-212721D01*
X130718Y-211721D01*
X130719Y-210721D01*
G37*
G54D17*
X130719Y-210721D02*
X131718Y-209721D01*
X143218Y-209721D01*
X143718Y-210221D01*
X143719Y-212221D01*
X143219Y-212721D01*
X131719Y-212721D01*
X130718Y-211721D01*
X130719Y-210721D01*
G36*
X130719Y-215721D02*
X131718Y-214721D01*
X143219Y-214721D01*
X143719Y-215221D01*
X143719Y-217221D01*
X143218Y-217721D01*
X131718Y-217721D01*
X130719Y-216721D01*
X130719Y-215721D01*
G37*
G54D17*
X130719Y-215721D02*
X131718Y-214721D01*
X143219Y-214721D01*
X143719Y-215221D01*
X143719Y-217221D01*
X143218Y-217721D01*
X131718Y-217721D01*
X130719Y-216721D01*
X130719Y-215721D01*
G36*
X130719Y-220721D02*
X131719Y-219721D01*
X143219Y-219721D01*
X143719Y-220221D01*
X143719Y-222221D01*
X143219Y-222721D01*
X131718Y-222721D01*
X130719Y-221721D01*
X130719Y-220721D01*
G37*
G54D17*
X130719Y-220721D02*
X131719Y-219721D01*
X143219Y-219721D01*
X143719Y-220221D01*
X143719Y-222221D01*
X143219Y-222721D01*
X131718Y-222721D01*
X130719Y-221721D01*
X130719Y-220721D01*
G36*
X130719Y-225721D02*
X131718Y-224721D01*
X143218Y-224721D01*
X143719Y-225221D01*
X143718Y-227221D01*
X143218Y-227721D01*
X131719Y-227721D01*
X130719Y-226721D01*
X130719Y-225721D01*
G37*
G54D17*
X130719Y-225721D02*
X131718Y-224721D01*
X143218Y-224721D01*
X143719Y-225221D01*
X143718Y-227221D01*
X143218Y-227721D01*
X131719Y-227721D01*
X130719Y-226721D01*
X130719Y-225721D01*
G36*
X130719Y-230721D02*
X131718Y-229721D01*
X143219Y-229721D01*
X143718Y-230221D01*
X143719Y-232221D01*
X143219Y-232721D01*
X131719Y-232721D01*
X130719Y-231721D01*
X130719Y-230721D01*
G37*
G54D17*
X130719Y-230721D02*
X131718Y-229721D01*
X143219Y-229721D01*
X143718Y-230221D01*
X143719Y-232221D01*
X143219Y-232721D01*
X131719Y-232721D01*
X130719Y-231721D01*
X130719Y-230721D01*
G36*
X130719Y-235721D02*
X131718Y-234721D01*
X143218Y-234721D01*
X143718Y-235221D01*
X143719Y-237221D01*
X143219Y-237721D01*
X131719Y-237721D01*
X130719Y-236721D01*
X130719Y-235721D01*
G37*
G54D17*
X130719Y-235721D02*
X131718Y-234721D01*
X143218Y-234721D01*
X143718Y-235221D01*
X143719Y-237221D01*
X143219Y-237721D01*
X131719Y-237721D01*
X130719Y-236721D01*
X130719Y-235721D01*
G36*
X130718Y-125721D02*
X131719Y-124721D01*
X143218Y-124721D01*
X143718Y-125221D01*
X143718Y-127221D01*
X143218Y-127721D01*
X131718Y-127721D01*
X130719Y-126721D01*
X130718Y-125721D01*
G37*
G54D17*
X130718Y-125721D02*
X131719Y-124721D01*
X143218Y-124721D01*
X143718Y-125221D01*
X143718Y-127221D01*
X143218Y-127721D01*
X131718Y-127721D01*
X130719Y-126721D01*
X130718Y-125721D01*
G54D18*
G75*
G01X313151Y-410165D02*
G03X313151Y-410165I-5000J0D01*
G01*
G36*
G75*
G01X313151Y-410165D02*
G03X313151Y-410165I-5000J0D01*
G01*
G37*
X313151Y-410165D01*
G54D18*
G75*
G01X313197Y-429860D02*
G03X313197Y-429860I-5000J0D01*
G01*
G36*
G75*
G01X313197Y-429860D02*
G03X313197Y-429860I-5000J0D01*
G01*
G37*
X313197Y-429860D01*
G54D18*
G75*
G01X313197Y-450177D02*
G03X313197Y-450177I-5000J0D01*
G01*
G36*
G75*
G01X313197Y-450177D02*
G03X313197Y-450177I-5000J0D01*
G01*
G37*
X313197Y-450177D01*
G54D18*
G75*
G01X313197Y-470177D02*
G03X313197Y-470177I-5000J0D01*
G01*
G36*
G75*
G01X313197Y-470177D02*
G03X313197Y-470177I-5000J0D01*
G01*
G37*
X313197Y-470177D01*
G54D18*
G75*
G01X313197Y-510177D02*
G03X313197Y-510177I-5000J0D01*
G01*
G36*
G75*
G01X313197Y-510177D02*
G03X313197Y-510177I-5000J0D01*
G01*
G37*
X313197Y-510177D01*
G54D18*
G75*
G01X313197Y-530177D02*
G03X313197Y-530177I-5000J0D01*
G01*
G36*
G75*
G01X313197Y-530177D02*
G03X313197Y-530177I-5000J0D01*
G01*
G37*
X313197Y-530177D01*
G54D18*
G75*
G01X313197Y-490177D02*
G03X313197Y-490177I-5000J0D01*
G01*
G36*
G75*
G01X313197Y-490177D02*
G03X313197Y-490177I-5000J0D01*
G01*
G37*
X313197Y-490177D01*
G54D18*
G75*
G01X509997Y-410165D02*
G03X509997Y-410165I-5000J0D01*
G01*
G36*
G75*
G01X509997Y-410165D02*
G03X509997Y-410165I-5000J0D01*
G01*
G37*
X509997Y-410165D01*
G54D18*
G75*
G01X510042Y-429860D02*
G03X510042Y-429860I-5000J0D01*
G01*
G36*
G75*
G01X510042Y-429860D02*
G03X510042Y-429860I-5000J0D01*
G01*
G37*
X510042Y-429860D01*
G54D18*
G75*
G01X510042Y-450177D02*
G03X510042Y-450177I-5000J0D01*
G01*
G36*
G75*
G01X510042Y-450177D02*
G03X510042Y-450177I-5000J0D01*
G01*
G37*
X510042Y-450177D01*
G54D18*
G75*
G01X510042Y-470177D02*
G03X510042Y-470177I-5000J0D01*
G01*
G36*
G75*
G01X510042Y-470177D02*
G03X510042Y-470177I-5000J0D01*
G01*
G37*
X510042Y-470177D01*
G54D18*
G75*
G01X510042Y-510177D02*
G03X510042Y-510177I-5000J0D01*
G01*
G36*
G75*
G01X510042Y-510177D02*
G03X510042Y-510177I-5000J0D01*
G01*
G37*
X510042Y-510177D01*
X357187Y-211931D02*
G54D19*
D03*
X374187Y-211931D02*
G54D19*
D03*
X461566Y-189772D02*
G54D19*
D03*
X444566Y-189772D02*
G54D19*
D03*
X461566Y-171516D02*
G54D19*
D03*
X444566Y-171516D02*
G54D19*
D03*
X505042Y-490177D02*
G54D10*
D03*
X442978Y-171516D02*
G54D20*
D03*
X442978Y-189772D02*
G54D20*
D03*
G36*
X389577Y-127296D02*
X380385Y-136489D01*
X370485Y-126590D01*
X379678Y-117397D01*
X389577Y-127296D01*
G37*
G36*
X377557Y-139317D02*
X368364Y-148509D01*
X358465Y-138610D01*
X367657Y-129417D01*
X377557Y-139317D01*
G37*
X275498Y-313601D02*
G54D19*
D03*
X292497Y-313597D02*
G54D19*
D03*
G54D18*
G75*
G01X510042Y-490177D02*
G03X510042Y-490177I-5000J0D01*
G01*
G36*
G75*
G01X510042Y-490177D02*
G03X510042Y-490177I-5000J0D01*
G01*
G37*
X510042Y-490177D01*
G36*
X506096Y-544804D02*
X506096Y-514804D01*
X536096Y-514804D01*
X536096Y-544804D01*
X506096Y-544804D01*
G37*
X487018Y-307271D02*
G54D21*
D03*
X487018Y-294571D02*
G54D21*
D03*
X487018Y-281871D02*
G54D21*
D03*
X487018Y-269171D02*
G54D21*
D03*
X170260Y-68785D02*
G54D22*
D03*
X170263Y-85784D02*
G54D22*
D03*
X168284Y-35368D02*
G54D23*
D03*
X188284Y-35368D02*
G54D23*
D03*
X208284Y-35368D02*
G54D23*
D03*
X228284Y-35368D02*
G54D23*
D03*
X248284Y-35368D02*
G54D23*
D03*
X268284Y-35368D02*
G54D23*
D03*
X288284Y-35368D02*
G54D23*
D03*
X308284Y-35338D02*
G54D23*
D03*
G36*
X295513Y-66072D02*
X286321Y-75264D01*
X276421Y-65365D01*
X285614Y-56172D01*
X295513Y-66072D01*
G37*
G36*
X283502Y-78083D02*
X274309Y-87274D01*
X264411Y-77374D01*
X273604Y-68182D01*
X283502Y-78083D01*
G37*
G36*
X214550Y-69644D02*
X205358Y-78836D01*
X195458Y-68936D01*
X204651Y-59744D01*
X214550Y-69644D01*
G37*
G36*
X202537Y-81663D02*
X193344Y-90855D01*
X183445Y-80954D01*
X192639Y-71763D01*
X202537Y-81663D01*
G37*
X341376Y-115248D02*
G54D24*
D03*
G36*
X318241Y-78648D02*
X306927Y-67334D01*
X319655Y-54606D01*
X330969Y-65920D01*
X318241Y-78648D01*
G37*
X159552Y-533927D02*
G54D11*
D03*
X180197Y-533933D02*
G54D11*
D03*
X199247Y-533933D02*
G54D11*
D03*
X199244Y-421093D02*
G54D11*
D03*
G36*
X282262Y-512852D02*
X282262Y-544852D01*
X250262Y-544852D01*
X250262Y-512852D01*
X282262Y-512852D01*
G37*
G54D18*
G75*
G01X185193Y-421094D02*
G03X185193Y-421094I-5000J0D01*
G01*
G36*
G75*
G01X185193Y-421094D02*
G03X185193Y-421094I-5000J0D01*
G01*
G37*
X185193Y-421094D01*
G54D18*
G75*
G01X204243Y-421094D02*
G03X204243Y-421094I-5000J0D01*
G01*
G36*
G75*
G01X204243Y-421094D02*
G03X204243Y-421094I-5000J0D01*
G01*
G37*
X204243Y-421094D01*
G54D18*
G75*
G01X224881Y-421094D02*
G03X224881Y-421094I-5000J0D01*
G01*
G36*
G75*
G01X224881Y-421094D02*
G03X224881Y-421094I-5000J0D01*
G01*
G37*
X224881Y-421094D01*
G54D18*
G75*
G01X243931Y-421094D02*
G03X243931Y-421094I-5000J0D01*
G01*
G36*
G75*
G01X243931Y-421094D02*
G03X243931Y-421094I-5000J0D01*
G01*
G37*
X243931Y-421094D01*
G54D18*
G75*
G01X244941Y-533927D02*
G03X244941Y-533927I-6000J0D01*
G01*
G36*
G75*
G01X244941Y-533927D02*
G03X244941Y-533927I-6000J0D01*
G01*
G37*
X244941Y-533927D01*
G54D18*
G75*
G01X204243Y-533931D02*
G03X204243Y-533931I-5000J0D01*
G01*
G36*
G75*
G01X204243Y-533931D02*
G03X204243Y-533931I-5000J0D01*
G01*
G37*
X204243Y-533931D01*
G54D18*
G75*
G01X185193Y-533931D02*
G03X185193Y-533931I-5000J0D01*
G01*
G36*
G75*
G01X185193Y-533931D02*
G03X185193Y-533931I-5000J0D01*
G01*
G37*
X185193Y-533931D01*
X144323Y-73868D02*
G54D13*
D03*
X105032Y-95299D02*
G54D13*
D03*
X85982Y-77043D02*
G54D13*
D03*
X85982Y-95299D02*
G54D13*
D03*
X105032Y-119906D02*
G54D13*
D03*
X85982Y-144512D02*
G54D13*
D03*
X105032Y-144512D02*
G54D13*
D03*
X85982Y-119906D02*
G54D13*
D03*
X105826Y-171102D02*
G54D13*
D03*
X506659Y-186532D02*
G54D25*
D03*
X506657Y-161132D02*
G54D25*
D03*
X357694Y-28434D02*
G54D12*
D03*
X357694Y-56434D02*
G54D12*
D03*
X380713Y-28434D02*
G54D12*
D03*
X380713Y-56434D02*
G54D12*
D03*
G36*
X299191Y-96904D02*
X287877Y-85590D01*
X300605Y-72862D01*
X311919Y-84176D01*
X299191Y-96904D01*
G37*
G36*
X178677Y-317599D02*
X187871Y-308407D01*
X197769Y-318308D01*
X188576Y-327499D01*
X178677Y-317599D01*
G37*
G36*
X190702Y-305580D02*
X199894Y-296387D01*
X209794Y-306287D01*
X200601Y-315479D01*
X190702Y-305580D01*
G37*
X152569Y-349876D02*
G54D22*
D03*
X152566Y-366878D02*
G54D22*
D03*
X134709Y-349876D02*
G54D22*
D03*
X134706Y-366878D02*
G54D22*
D03*
X152569Y-384008D02*
G54D22*
D03*
X152566Y-401009D02*
G54D22*
D03*
X134709Y-384008D02*
G54D22*
D03*
X134706Y-401009D02*
G54D22*
D03*
X65918Y-239747D02*
G54D20*
D03*
X159556Y-421094D02*
G54D10*
D03*
X219881Y-421094D02*
G54D10*
D03*
X238931Y-421094D02*
G54D10*
D03*
X205721Y-277166D02*
G54D26*
D03*
X79515Y-378368D02*
G54D20*
D03*
X83741Y-359855D02*
G54D26*
D03*
G36*
X116820Y-304528D02*
X106920Y-294628D01*
X116820Y-284729D01*
X126720Y-294629D01*
X116820Y-304528D01*
G37*
X115989Y-454750D02*
G54D22*
D03*
X115982Y-471755D02*
G54D22*
D03*
X134374Y-454819D02*
G54D22*
D03*
X134371Y-471821D02*
G54D22*
D03*
X487558Y-460199D02*
G54D27*
D03*
X436758Y-485599D02*
G54D27*
D03*
X436758Y-434798D02*
G54D27*
D03*
X436758Y-409399D02*
G54D27*
D03*
X436758Y-510999D02*
G54D27*
D03*
X82936Y-423626D02*
G54D28*
D03*
G36*
X67929Y-438121D02*
X77929Y-438120D01*
X77930Y-449120D01*
X67930Y-449121D01*
X67929Y-438121D01*
G37*
X322193Y-141216D02*
G54D20*
D03*
X341799Y-141216D02*
G54D20*
D03*
X416941Y-215006D02*
G54D22*
D03*
X416950Y-232007D02*
G54D22*
D03*
X451492Y-231610D02*
G54D19*
D03*
X434492Y-231610D02*
G54D19*
D03*
G36*
X366686Y-394916D02*
X372244Y-400474D01*
X372244Y-408358D01*
X366686Y-413916D01*
X358802Y-413916D01*
X353244Y-408358D01*
X353244Y-400474D01*
X358802Y-394916D01*
X366686Y-394916D01*
G37*
G36*
X353986Y-382216D02*
X359544Y-387774D01*
X359544Y-395658D01*
X353986Y-401216D01*
X346102Y-401216D01*
X340544Y-395658D01*
X340544Y-387774D01*
X346102Y-382216D01*
X353986Y-382216D01*
G37*
G36*
X386656Y-413172D02*
X392214Y-418730D01*
X392214Y-426614D01*
X386656Y-432172D01*
X378772Y-432172D01*
X373214Y-426614D01*
X373214Y-418730D01*
X378772Y-413172D01*
X386656Y-413172D01*
G37*
X395330Y-320791D02*
G54D19*
D03*
X378333Y-320786D02*
G54D19*
D03*
X353110Y-320786D02*
G54D13*
D03*
X474612Y-345052D02*
G54D13*
D03*
X435768Y-332309D02*
G54D13*
D03*
X511879Y-295762D02*
G54D22*
D03*
X511883Y-278765D02*
G54D22*
D03*
X308197Y-530178D02*
G54D11*
D03*
X83998Y-171102D02*
G54D13*
D03*
X482386Y-235341D02*
G54D14*
D03*
X482386Y-254341D02*
G54D14*
D03*
X474612Y-326231D02*
G54D29*
D03*
X455612Y-326231D02*
G54D29*
D03*
X503023Y-235341D02*
G54D14*
D03*
X503023Y-254341D02*
G54D14*
D03*
X433446Y-269171D02*
G54D30*
D03*
X433446Y-281871D02*
G54D30*
D03*
X433446Y-294571D02*
G54D30*
D03*
X433446Y-307271D02*
G54D30*
D03*
X395330Y-339047D02*
G54D19*
D03*
X378333Y-339043D02*
G54D19*
D03*
X479590Y-189872D02*
G54D22*
D03*
X479591Y-172872D02*
G54D22*
D03*
X410761Y-42471D02*
G54D13*
D03*
X122241Y-49216D02*
G54D13*
D03*
X218262Y-341166D02*
G54D31*
D03*
X237470Y-328942D02*
G54D32*
D03*
X149685Y-26257D02*
G54D19*
D03*
X132684Y-26257D02*
G54D19*
D03*
X116265Y-349897D02*
G54D22*
D03*
X116262Y-366899D02*
G54D22*
D03*
X116262Y-384199D02*
G54D22*
D03*
X116259Y-401201D02*
G54D22*
D03*
X116717Y-436801D02*
G54D19*
D03*
X99713Y-436794D02*
G54D19*
D03*
X134874Y-418944D02*
G54D19*
D03*
X117872Y-418942D02*
G54D19*
D03*
X170031Y-338764D02*
G54D20*
D03*
X357694Y-75484D02*
G54D24*
D03*
X380713Y-75484D02*
G54D24*
D03*
X61916Y-352428D02*
G54D13*
D03*
G36*
X149463Y-271885D02*
X140271Y-281078D01*
X130371Y-271178D01*
X139564Y-261986D01*
X149463Y-271885D01*
G37*
G36*
X137439Y-283906D02*
X128246Y-293098D01*
X118347Y-283198D01*
X127540Y-274006D01*
X137439Y-283906D01*
G37*
X98190Y-418712D02*
G54D22*
D03*
X98193Y-401710D02*
G54D22*
D03*
X62930Y-423620D02*
G54D28*
D03*
X134371Y-491258D02*
G54D20*
D03*
X115982Y-491192D02*
G54D20*
D03*
X81822Y-611825D02*
G54D33*
D03*
G36*
X334962Y-263051D02*
X346276Y-274365D01*
X334962Y-285678D01*
X323648Y-274365D01*
X334962Y-263051D01*
G37*
G36*
X359568Y-238445D02*
X370882Y-249758D01*
X359568Y-261072D01*
X348255Y-249758D01*
X359568Y-238445D01*
G37*
X85918Y-239747D02*
G54D20*
D03*
X65918Y-260144D02*
G54D20*
D03*
X85918Y-260144D02*
G54D20*
D03*
X65918Y-280540D02*
G54D20*
D03*
X85918Y-280540D02*
G54D20*
D03*
G36*
X405281Y-113211D02*
X415887Y-123818D01*
X404573Y-135131D01*
X393967Y-124525D01*
X405281Y-113211D01*
G37*
G36*
X418716Y-126646D02*
X429322Y-137253D01*
X418008Y-148566D01*
X407402Y-137960D01*
X418716Y-126646D01*
G37*
X238941Y-533927D02*
G54D11*
D03*
X505043Y-510178D02*
G54D10*
D03*
X49925Y-180764D02*
G54D19*
D03*
X66925Y-180764D02*
G54D19*
D03*
X39552Y-781101D02*
G54D10*
D03*
X141552Y-781101D02*
G54D10*
D03*
X243552Y-781101D02*
G54D10*
D03*
X345552Y-781101D02*
G54D10*
D03*
X447552Y-781102D02*
G54D10*
D03*
X524052Y-781101D02*
G54D10*
D03*
X39552Y-738825D02*
G54D10*
D03*
X65052Y-738826D02*
G54D10*
D03*
X90553Y-738825D02*
G54D11*
D03*
X116052Y-738826D02*
G54D10*
D03*
X141552Y-738826D02*
G54D10*
D03*
X167052Y-738826D02*
G54D10*
D03*
X192552Y-738826D02*
G54D10*
D03*
X218052Y-738826D02*
G54D10*
D03*
X243552Y-738826D02*
G54D10*
D03*
X269052Y-738826D02*
G54D10*
D03*
X294552Y-738826D02*
G54D10*
D03*
X320052Y-738826D02*
G54D10*
D03*
X345552Y-738826D02*
G54D10*
D03*
X371052Y-738826D02*
G54D10*
D03*
X396552Y-738826D02*
G54D10*
D03*
X422052Y-738826D02*
G54D10*
D03*
X447552Y-738826D02*
G54D10*
D03*
X473052Y-738826D02*
G54D10*
D03*
X498552Y-738826D02*
G54D10*
D03*
X524052Y-738826D02*
G54D10*
D03*
X52302Y-718825D02*
G54D10*
D03*
X77802Y-718825D02*
G54D10*
D03*
X103302Y-718826D02*
G54D10*
D03*
X154302Y-718826D02*
G54D10*
D03*
X179802Y-718826D02*
G54D10*
D03*
X205302Y-718826D02*
G54D10*
D03*
X256302Y-718826D02*
G54D10*
D03*
X281802Y-718826D02*
G54D10*
D03*
X307302Y-718826D02*
G54D10*
D03*
X358302Y-718826D02*
G54D10*
D03*
X383802Y-718826D02*
G54D10*
D03*
X409302Y-718826D02*
G54D10*
D03*
X460302Y-718826D02*
G54D10*
D03*
X485802Y-718826D02*
G54D10*
D03*
X511302Y-718826D02*
G54D10*
D03*
X77724Y-797851D02*
G54D12*
D03*
X103124Y-797851D02*
G54D12*
D03*
X179724Y-797851D02*
G54D12*
D03*
X205124Y-797851D02*
G54D12*
D03*
X281724Y-797851D02*
G54D12*
D03*
X307124Y-797851D02*
G54D12*
D03*
X383724Y-797851D02*
G54D12*
D03*
X409124Y-797851D02*
G54D12*
D03*
X485724Y-797851D02*
G54D12*
D03*
X511124Y-797851D02*
G54D12*
D03*
X107260Y-708877D02*
G54D13*
D03*
X85035Y-708877D02*
G54D13*
D03*
X59635Y-708877D02*
G54D13*
D03*
X36220Y-708877D02*
G54D13*
D03*
X81822Y-738825D02*
G54D33*
D03*
X692278Y-844255D02*
G54D14*
D03*
X692275Y-863260D02*
G54D14*
D03*
X692275Y-871247D02*
G54D14*
D03*
X692268Y-890245D02*
G54D14*
D03*
X747918Y-850294D02*
G54D34*
D03*
X735218Y-850294D02*
G54D34*
D03*
X722518Y-850294D02*
G54D34*
D03*
X709818Y-850294D02*
G54D34*
D03*
X709818Y-900294D02*
G54D34*
D03*
X722518Y-900294D02*
G54D34*
D03*
X735218Y-900294D02*
G54D34*
D03*
X747918Y-900294D02*
G54D34*
D03*
X196978Y-844255D02*
G54D14*
D03*
X196975Y-863260D02*
G54D14*
D03*
X196975Y-871247D02*
G54D14*
D03*
X196968Y-890245D02*
G54D14*
D03*
X252618Y-850294D02*
G54D34*
D03*
X239917Y-850294D02*
G54D34*
D03*
X227217Y-850294D02*
G54D34*
D03*
X214518Y-850294D02*
G54D34*
D03*
X214517Y-900294D02*
G54D34*
D03*
X227218Y-900294D02*
G54D34*
D03*
X239918Y-900294D02*
G54D34*
D03*
X252617Y-900294D02*
G54D34*
D03*
X362078Y-844255D02*
G54D14*
D03*
X362075Y-863260D02*
G54D14*
D03*
X362075Y-871247D02*
G54D14*
D03*
X362068Y-890245D02*
G54D14*
D03*
X417718Y-850294D02*
G54D34*
D03*
X405017Y-850294D02*
G54D34*
D03*
X392317Y-850294D02*
G54D34*
D03*
X379618Y-850294D02*
G54D34*
D03*
X379617Y-900294D02*
G54D34*
D03*
X392318Y-900294D02*
G54D34*
D03*
X405018Y-900294D02*
G54D34*
D03*
X417717Y-900294D02*
G54D34*
D03*
X857378Y-844255D02*
G54D14*
D03*
X857375Y-863260D02*
G54D14*
D03*
X857375Y-871247D02*
G54D14*
D03*
X857368Y-890245D02*
G54D14*
D03*
X913017Y-850294D02*
G54D34*
D03*
X900317Y-850294D02*
G54D34*
D03*
X887617Y-850294D02*
G54D34*
D03*
X874918Y-850294D02*
G54D34*
D03*
X874917Y-900294D02*
G54D34*
D03*
X887618Y-900294D02*
G54D34*
D03*
X900318Y-900294D02*
G54D34*
D03*
X913017Y-900294D02*
G54D34*
D03*
X527178Y-844255D02*
G54D14*
D03*
X527175Y-863260D02*
G54D14*
D03*
X527175Y-871247D02*
G54D14*
D03*
X527168Y-890245D02*
G54D14*
D03*
X582818Y-850294D02*
G54D34*
D03*
X570117Y-850294D02*
G54D34*
D03*
X557417Y-850294D02*
G54D34*
D03*
X544718Y-850294D02*
G54D34*
D03*
X544717Y-900294D02*
G54D34*
D03*
X557418Y-900294D02*
G54D34*
D03*
X570118Y-900294D02*
G54D34*
D03*
X582818Y-900294D02*
G54D34*
D03*
G54D35*
X124824Y-944295D02*
X124824Y-979695D01*
G54D35*
X112124Y-944295D02*
X112124Y-979695D01*
X31084Y-844255D02*
G54D14*
D03*
X31081Y-863260D02*
G54D14*
D03*
X31081Y-871247D02*
G54D14*
D03*
X31074Y-890245D02*
G54D14*
D03*
G54D35*
X137624Y-944295D02*
X137624Y-979695D01*
G54D35*
X124824Y-944295D02*
X124824Y-979695D01*
G54D35*
X112124Y-944295D02*
X112124Y-979695D01*
G54D35*
X99524Y-944295D02*
X99524Y-979695D01*
G54D35*
X74024Y-944295D02*
X74024Y-979695D01*
G54D35*
X150224Y-944295D02*
X150224Y-979695D01*
G54D35*
X61324Y-944295D02*
X61324Y-979695D01*
G54D35*
X48724Y-944295D02*
X48724Y-979695D01*
G54D35*
X35924Y-944295D02*
X35924Y-979695D01*
G54D35*
X23224Y-944295D02*
X23224Y-979695D01*
X86724Y-850294D02*
G54D34*
D03*
X74024Y-850294D02*
G54D34*
D03*
X61324Y-850294D02*
G54D34*
D03*
X48624Y-850294D02*
G54D34*
D03*
X48624Y-900294D02*
G54D34*
D03*
X61324Y-900294D02*
G54D34*
D03*
X74024Y-900294D02*
G54D34*
D03*
X86724Y-900294D02*
G54D34*
D03*
G54D35*
X290717Y-944295D02*
X290717Y-979695D01*
G54D35*
X278017Y-944295D02*
X278017Y-979695D01*
G54D35*
X303518Y-944295D02*
X303517Y-979695D01*
G54D35*
X290717Y-944295D02*
X290717Y-979695D01*
G54D35*
X278017Y-944295D02*
X278017Y-979695D01*
G54D35*
X265417Y-944295D02*
X265417Y-979695D01*
G54D35*
X239917Y-944295D02*
X239917Y-979695D01*
G54D35*
X316117Y-944295D02*
X316117Y-979695D01*
G54D35*
X227217Y-944295D02*
X227217Y-979695D01*
G54D35*
X214617Y-944295D02*
X214617Y-979695D01*
G54D35*
X201817Y-944295D02*
X201817Y-979695D01*
G54D35*
X189117Y-944295D02*
X189117Y-979695D01*
G54D35*
X455817Y-944295D02*
X455817Y-979695D01*
G54D35*
X443117Y-944295D02*
X443117Y-979695D01*
G54D35*
X468618Y-944295D02*
X468617Y-979695D01*
G54D35*
X455817Y-944295D02*
X455817Y-979695D01*
G54D35*
X443117Y-944295D02*
X443117Y-979695D01*
G54D35*
X430517Y-944295D02*
X430517Y-979695D01*
G54D35*
X405017Y-944295D02*
X405017Y-979695D01*
G54D35*
X481217Y-944295D02*
X481217Y-979695D01*
G54D35*
X392317Y-944295D02*
X392317Y-979695D01*
G54D35*
X379717Y-944295D02*
X379717Y-979695D01*
G54D35*
X366917Y-944295D02*
X366917Y-979695D01*
G54D35*
X354217Y-944295D02*
X354217Y-979695D01*
G54D35*
X620918Y-944295D02*
X620918Y-979695D01*
G54D35*
X608218Y-944295D02*
X608218Y-979695D01*
G54D35*
X633718Y-944295D02*
X633718Y-979695D01*
G54D35*
X620918Y-944295D02*
X620918Y-979695D01*
G54D35*
X608218Y-944295D02*
X608218Y-979695D01*
G54D35*
X595618Y-944295D02*
X595618Y-979695D01*
G54D35*
X570118Y-944295D02*
X570118Y-979695D01*
G54D35*
X646318Y-944295D02*
X646318Y-979695D01*
G54D35*
X557418Y-944295D02*
X557418Y-979695D01*
G54D35*
X544818Y-944295D02*
X544818Y-979695D01*
G54D35*
X532018Y-944295D02*
X532018Y-979695D01*
G54D35*
X519318Y-944295D02*
X519318Y-979695D01*
G54D35*
X786017Y-944295D02*
X786017Y-979695D01*
G54D35*
X773317Y-944295D02*
X773317Y-979695D01*
G54D35*
X798818Y-944295D02*
X798817Y-979695D01*
G54D35*
X786017Y-944295D02*
X786017Y-979695D01*
G54D35*
X773317Y-944295D02*
X773317Y-979695D01*
G54D35*
X760717Y-944295D02*
X760717Y-979695D01*
G54D35*
X735217Y-944295D02*
X735217Y-979695D01*
G54D35*
X811417Y-944295D02*
X811417Y-979695D01*
G54D35*
X722517Y-944295D02*
X722517Y-979695D01*
G54D35*
X709917Y-944295D02*
X709917Y-979695D01*
G54D35*
X697117Y-944295D02*
X697117Y-979695D01*
G54D35*
X684417Y-944295D02*
X684417Y-979695D01*
G54D35*
X951118Y-944295D02*
X951118Y-979695D01*
G54D35*
X938418Y-944295D02*
X938418Y-979695D01*
G54D35*
X963918Y-944295D02*
X963918Y-979695D01*
G54D35*
X951118Y-944295D02*
X951118Y-979695D01*
G54D35*
X938418Y-944295D02*
X938418Y-979695D01*
G54D35*
X925818Y-944295D02*
X925818Y-979695D01*
G54D35*
X900318Y-944295D02*
X900318Y-979695D01*
G54D35*
X976518Y-944295D02*
X976518Y-979695D01*
G54D35*
X887618Y-944295D02*
X887618Y-979695D01*
G54D35*
X875018Y-944295D02*
X875018Y-979695D01*
G54D35*
X862218Y-944295D02*
X862218Y-979695D01*
G54D35*
X849518Y-944295D02*
X849518Y-979695D01*
X857187Y-644711D02*
G54D14*
D03*
X857184Y-663716D02*
G54D14*
D03*
X857184Y-671703D02*
G54D14*
D03*
X857177Y-690701D02*
G54D14*
D03*
X912827Y-650750D02*
G54D34*
D03*
X900127Y-650750D02*
G54D34*
D03*
X887427Y-650750D02*
G54D34*
D03*
X874727Y-650750D02*
G54D34*
D03*
X874727Y-700750D02*
G54D34*
D03*
X887427Y-700750D02*
G54D34*
D03*
X900127Y-700750D02*
G54D34*
D03*
X912827Y-700750D02*
G54D34*
D03*
X691690Y-645504D02*
G54D14*
D03*
X691687Y-664510D02*
G54D14*
D03*
X691687Y-672497D02*
G54D14*
D03*
X691680Y-691495D02*
G54D14*
D03*
X747330Y-651544D02*
G54D34*
D03*
X734630Y-651544D02*
G54D34*
D03*
X721930Y-651544D02*
G54D34*
D03*
X709230Y-651544D02*
G54D34*
D03*
X709230Y-701544D02*
G54D34*
D03*
X721930Y-701544D02*
G54D34*
D03*
X734630Y-701544D02*
G54D34*
D03*
X747330Y-701544D02*
G54D34*
D03*
G54D35*
X950927Y-744751D02*
X950927Y-780151D01*
G54D35*
X938227Y-744751D02*
X938227Y-780151D01*
G54D35*
X963727Y-744751D02*
X963726Y-780151D01*
G54D35*
X950927Y-744751D02*
X950927Y-780151D01*
G54D35*
X938227Y-744751D02*
X938227Y-780151D01*
G54D35*
X925627Y-744751D02*
X925627Y-780151D01*
G54D35*
X900127Y-744751D02*
X900127Y-780151D01*
G54D35*
X976326Y-744751D02*
X976326Y-780151D01*
G54D35*
X887427Y-744751D02*
X887427Y-780151D01*
G54D35*
X874827Y-744751D02*
X874827Y-780151D01*
G54D35*
X862027Y-744751D02*
X862027Y-780151D01*
G54D35*
X849327Y-744751D02*
X849327Y-780151D01*
G54D35*
X785430Y-745545D02*
X785430Y-780945D01*
G54D35*
X772730Y-745545D02*
X772730Y-780945D01*
G54D35*
X798230Y-745545D02*
X798230Y-780945D01*
G54D35*
X785430Y-745545D02*
X785430Y-780945D01*
G54D35*
X772730Y-745545D02*
X772730Y-780945D01*
G54D35*
X760130Y-745545D02*
X760130Y-780945D01*
G54D35*
X734630Y-745545D02*
X734630Y-780945D01*
G54D35*
X810830Y-745545D02*
X810830Y-780945D01*
G54D35*
X721930Y-745545D02*
X721930Y-780945D01*
G54D35*
X709330Y-745545D02*
X709330Y-780945D01*
G54D35*
X696530Y-745545D02*
X696530Y-780945D01*
G54D35*
X683830Y-745545D02*
X683830Y-780945D01*
X747499Y-454150D02*
G54D34*
D03*
X734799Y-454150D02*
G54D34*
D03*
X722099Y-454150D02*
G54D34*
D03*
X709399Y-454150D02*
G54D34*
D03*
X709399Y-504150D02*
G54D34*
D03*
X722099Y-504150D02*
G54D34*
D03*
X734799Y-504150D02*
G54D34*
D03*
X747499Y-504150D02*
G54D34*
D03*
X691859Y-448111D02*
G54D14*
D03*
X691856Y-467115D02*
G54D14*
D03*
X691856Y-475103D02*
G54D14*
D03*
X691849Y-494101D02*
G54D14*
D03*
X858378Y-447464D02*
G54D14*
D03*
X858375Y-466469D02*
G54D14*
D03*
X858375Y-474456D02*
G54D14*
D03*
X858368Y-493454D02*
G54D14*
D03*
X914018Y-453503D02*
G54D34*
D03*
X901317Y-453503D02*
G54D34*
D03*
X888617Y-453503D02*
G54D34*
D03*
X875918Y-453503D02*
G54D34*
D03*
X875918Y-503503D02*
G54D34*
D03*
X888618Y-503503D02*
G54D34*
D03*
X901318Y-503503D02*
G54D34*
D03*
X914017Y-503503D02*
G54D34*
D03*
G54D35*
X952117Y-547504D02*
X952117Y-582904D01*
G54D35*
X939417Y-547504D02*
X939417Y-582904D01*
G54D35*
X964918Y-547504D02*
X964917Y-582904D01*
G54D35*
X952117Y-547504D02*
X952117Y-582904D01*
G54D35*
X939417Y-547504D02*
X939417Y-582904D01*
G54D35*
X926817Y-547504D02*
X926817Y-582904D01*
G54D35*
X901317Y-547504D02*
X901317Y-582904D01*
G54D35*
X977517Y-547504D02*
X977517Y-582904D01*
G54D35*
X888617Y-547504D02*
X888617Y-582904D01*
G54D35*
X876017Y-547504D02*
X876017Y-582904D01*
G54D35*
X863217Y-547504D02*
X863217Y-582904D01*
G54D35*
X850517Y-547504D02*
X850517Y-582904D01*
G54D35*
X785599Y-548151D02*
X785599Y-583551D01*
G54D35*
X772899Y-548151D02*
X772899Y-583551D01*
G54D35*
X798399Y-548151D02*
X798398Y-583551D01*
G54D35*
X785599Y-548151D02*
X785599Y-583551D01*
G54D35*
X772899Y-548151D02*
X772899Y-583551D01*
G54D35*
X760299Y-548151D02*
X760299Y-583551D01*
G54D35*
X734799Y-548151D02*
X734799Y-583551D01*
G54D35*
X810998Y-548151D02*
X810998Y-583551D01*
G54D35*
X722099Y-548151D02*
X722099Y-583551D01*
G54D35*
X709499Y-548151D02*
X709499Y-583551D01*
G54D35*
X696699Y-548151D02*
X696699Y-583551D01*
G54D35*
X683999Y-548151D02*
X683999Y-583551D01*
G54D35*
X913224Y-341129D02*
X913224Y-396373D01*
X857584Y-251408D02*
G54D14*
D03*
X857581Y-270413D02*
G54D14*
D03*
X857581Y-278400D02*
G54D14*
D03*
X857574Y-297398D02*
G54D14*
D03*
X913224Y-257447D02*
G54D34*
D03*
X900524Y-257447D02*
G54D34*
D03*
X887824Y-257447D02*
G54D34*
D03*
X875124Y-257447D02*
G54D34*
D03*
X875124Y-307447D02*
G54D34*
D03*
X887824Y-307447D02*
G54D34*
D03*
X900524Y-307447D02*
G54D34*
D03*
X913224Y-307447D02*
G54D34*
D03*
X693278Y-250614D02*
G54D14*
D03*
X693275Y-269619D02*
G54D14*
D03*
X693275Y-277606D02*
G54D14*
D03*
X693268Y-296604D02*
G54D14*
D03*
X748918Y-256653D02*
G54D34*
D03*
X736217Y-256653D02*
G54D34*
D03*
X723517Y-256653D02*
G54D34*
D03*
X710818Y-256653D02*
G54D34*
D03*
X710818Y-306653D02*
G54D34*
D03*
X723518Y-306653D02*
G54D34*
D03*
X736218Y-306653D02*
G54D34*
D03*
X748917Y-306653D02*
G54D34*
D03*
G54D35*
X951324Y-351448D02*
X951324Y-386848D01*
G54D35*
X938624Y-351448D02*
X938624Y-386848D01*
G54D35*
X964124Y-351448D02*
X964123Y-386848D01*
G54D35*
X951324Y-351448D02*
X951324Y-386848D01*
G54D35*
X938624Y-351448D02*
X938624Y-386848D01*
G54D35*
X926024Y-351448D02*
X926024Y-386848D01*
G54D35*
X900524Y-351448D02*
X900524Y-386848D01*
G54D35*
X976723Y-351448D02*
X976723Y-386848D01*
G54D35*
X887824Y-351448D02*
X887824Y-386848D01*
G54D35*
X875224Y-351448D02*
X875224Y-386848D01*
G54D35*
X862424Y-351448D02*
X862424Y-386848D01*
G54D35*
X849724Y-351448D02*
X849724Y-386848D01*
G54D35*
X787017Y-350654D02*
X787017Y-386054D01*
G54D35*
X774317Y-350654D02*
X774317Y-386054D01*
G54D35*
X799818Y-350654D02*
X799817Y-386054D01*
G54D35*
X787017Y-350654D02*
X787017Y-386054D01*
G54D35*
X774317Y-350654D02*
X774317Y-386054D01*
G54D35*
X761717Y-350654D02*
X761717Y-386054D01*
G54D35*
X736217Y-350654D02*
X736217Y-386054D01*
G54D35*
X812417Y-350654D02*
X812417Y-386054D01*
G54D35*
X723517Y-350654D02*
X723517Y-386054D01*
G54D35*
X710917Y-350654D02*
X710917Y-386054D01*
G54D35*
X698117Y-350654D02*
X698117Y-386054D01*
G54D35*
X685417Y-350654D02*
X685417Y-386054D01*
G54D35*
X637098Y-739931D02*
X637098Y-781681D01*
G54D35*
X624298Y-739932D02*
X624298Y-781682D01*
G54D35*
X611598Y-739932D02*
X611598Y-781682D01*
G54D35*
X598998Y-739932D02*
X598998Y-781682D01*
G54D35*
X586198Y-739932D02*
X586198Y-781681D01*
G54D35*
X573498Y-739932D02*
X573498Y-781681D01*
X586905Y-670530D02*
G54D34*
D03*
X599605Y-670530D02*
G54D34*
D03*
X612305Y-670530D02*
G54D34*
D03*
X625005Y-670530D02*
G54D34*
D03*
G36*
X620005Y-607530D02*
X630005Y-607529D01*
X630006Y-633529D01*
X620006Y-633530D01*
X620005Y-607530D01*
G37*
X612305Y-620530D02*
G54D34*
D03*
X599605Y-620530D02*
G54D34*
D03*
X586905Y-620530D02*
G54D34*
D03*
X648317Y-683041D02*
G54D36*
D03*
X626142Y-683042D02*
G54D36*
D03*
G54D35*
X649698Y-739931D02*
X649698Y-781682D01*
X580502Y-704296D02*
G54D19*
D03*
X597502Y-704296D02*
G54D19*
D03*
X648342Y-694888D02*
G54D22*
D03*
X648342Y-711888D02*
G54D22*
D03*
G54D35*
X637098Y-517681D02*
X637098Y-559431D01*
G54D35*
X624298Y-517682D02*
X624298Y-559432D01*
G54D35*
X611598Y-517682D02*
X611598Y-559432D01*
G54D35*
X598998Y-517682D02*
X598998Y-559432D01*
G54D35*
X586198Y-517682D02*
X586198Y-559431D01*
G54D35*
X573498Y-517682D02*
X573498Y-559431D01*
X586905Y-448280D02*
G54D34*
D03*
X599605Y-448280D02*
G54D34*
D03*
X612305Y-448280D02*
G54D34*
D03*
X625005Y-448280D02*
G54D34*
D03*
G36*
X620005Y-385280D02*
X630005Y-385279D01*
X630006Y-411279D01*
X620006Y-411280D01*
X620005Y-385280D01*
G37*
X612305Y-398280D02*
G54D34*
D03*
X599605Y-398280D02*
G54D34*
D03*
X586905Y-398280D02*
G54D34*
D03*
X648317Y-460791D02*
G54D36*
D03*
X626142Y-460792D02*
G54D36*
D03*
G54D35*
X649698Y-517681D02*
X649698Y-559432D01*
X580502Y-482046D02*
G54D19*
D03*
X597502Y-482046D02*
G54D19*
D03*
X648342Y-472638D02*
G54D22*
D03*
X648342Y-489638D02*
G54D22*
D03*
G54D35*
X637098Y-282731D02*
X637098Y-324481D01*
G54D35*
X624298Y-282732D02*
X624298Y-324482D01*
G54D35*
X611598Y-282732D02*
X611598Y-324482D01*
G54D35*
X598998Y-282732D02*
X598998Y-324482D01*
G54D35*
X586198Y-282732D02*
X586198Y-324481D01*
G54D35*
X573498Y-282732D02*
X573498Y-324481D01*
X586905Y-213330D02*
G54D34*
D03*
X599605Y-213330D02*
G54D34*
D03*
X612305Y-213330D02*
G54D34*
D03*
X625005Y-213330D02*
G54D34*
D03*
G36*
X620005Y-150330D02*
X630005Y-150329D01*
X630006Y-176329D01*
X620006Y-176330D01*
X620005Y-150330D01*
G37*
X612305Y-163330D02*
G54D34*
D03*
X599605Y-163330D02*
G54D34*
D03*
X586905Y-163330D02*
G54D34*
D03*
X648317Y-225841D02*
G54D36*
D03*
X626142Y-225842D02*
G54D36*
D03*
G54D35*
X649698Y-282731D02*
X649698Y-324482D01*
X580502Y-247096D02*
G54D19*
D03*
X597502Y-247096D02*
G54D19*
D03*
X648342Y-237688D02*
G54D22*
D03*
X648342Y-254688D02*
G54D22*
D03*
G54D35*
X913224Y-131579D02*
X913224Y-186823D01*
X857584Y-41858D02*
G54D14*
D03*
X857581Y-60863D02*
G54D14*
D03*
X857581Y-68850D02*
G54D14*
D03*
X857574Y-87848D02*
G54D14*
D03*
X913224Y-47897D02*
G54D34*
D03*
X900524Y-47897D02*
G54D34*
D03*
X887824Y-47897D02*
G54D34*
D03*
X875124Y-47897D02*
G54D34*
D03*
X875124Y-97897D02*
G54D34*
D03*
X887824Y-97897D02*
G54D34*
D03*
X900524Y-97897D02*
G54D34*
D03*
X913224Y-97897D02*
G54D34*
D03*
G54D35*
X951324Y-141898D02*
X951324Y-177298D01*
G54D35*
X938624Y-141898D02*
X938624Y-177298D01*
G54D35*
X964124Y-141898D02*
X964123Y-177298D01*
G54D35*
X951324Y-141898D02*
X951324Y-177298D01*
G54D35*
X938624Y-141898D02*
X938624Y-177298D01*
G54D35*
X926024Y-141898D02*
X926024Y-177298D01*
G54D35*
X900524Y-141898D02*
X900524Y-177298D01*
G54D35*
X976723Y-141898D02*
X976723Y-177298D01*
G54D35*
X887824Y-141898D02*
X887824Y-177298D01*
G54D35*
X875224Y-141898D02*
X875224Y-177298D01*
G54D35*
X862424Y-141898D02*
X862424Y-177298D01*
G54D35*
X849724Y-141898D02*
X849724Y-177298D01*
X692278Y-44154D02*
G54D14*
D03*
X692275Y-63160D02*
G54D14*
D03*
X692275Y-71147D02*
G54D14*
D03*
X692268Y-90144D02*
G54D14*
D03*
X747918Y-50194D02*
G54D34*
D03*
X735217Y-50194D02*
G54D34*
D03*
X722517Y-50194D02*
G54D34*
D03*
X709818Y-50194D02*
G54D34*
D03*
X709817Y-100194D02*
G54D34*
D03*
X722518Y-100194D02*
G54D34*
D03*
X735218Y-100194D02*
G54D34*
D03*
X747918Y-100194D02*
G54D34*
D03*
G54D35*
X786018Y-144194D02*
X786018Y-179594D01*
G54D35*
X773318Y-144194D02*
X773318Y-179594D01*
G54D35*
X798818Y-144194D02*
X798818Y-179594D01*
G54D35*
X786018Y-144194D02*
X786018Y-179594D01*
G54D35*
X773318Y-144194D02*
X773318Y-179594D01*
G54D35*
X760718Y-144194D02*
X760718Y-179594D01*
G54D35*
X735218Y-144194D02*
X735218Y-179594D01*
G54D35*
X811418Y-144194D02*
X811418Y-179594D01*
G54D35*
X722518Y-144194D02*
X722518Y-179594D01*
G54D35*
X709918Y-144194D02*
X709918Y-179594D01*
G54D35*
X697118Y-144194D02*
X697118Y-179594D01*
G54D35*
X684418Y-144194D02*
X684418Y-179594D01*
M02*
