%FSLAX34Y34*%
%MOMM*%
%LNSILK_BOTTOM*%
G71*
G01*
%ADD10C, 0.150*%
%ADD11C, 0.300*%
%ADD12C, 0.200*%
%ADD13C, 0.000*%
%LPD*%
G54D10*
X484194Y-348302D02*
X484194Y-322301D01*
X434194Y-322301D01*
X434194Y-348301D01*
X484194Y-348302D01*
G54D10*
X392971Y-284140D02*
X382272Y-284140D01*
X382271Y-314340D01*
X392971Y-314340D01*
X392971Y-284140D01*
G54D10*
X390172Y-284140D02*
X385071Y-284140D01*
X385071Y-289740D01*
X390171Y-289740D01*
X390172Y-284140D01*
G54D10*
X409620Y-322348D02*
X409620Y-344348D01*
X359620Y-344348D01*
X359620Y-322348D01*
X409620Y-322348D01*
G54D10*
X358900Y-344351D02*
X338900Y-344351D01*
X338900Y-306351D01*
X358900Y-306351D01*
X358900Y-344351D01*
G54D10*
X412221Y-229454D02*
X432221Y-229454D01*
X432221Y-267454D01*
X412221Y-267454D01*
X412221Y-229454D01*
G54D10*
X289617Y-82593D02*
X289617Y-64593D01*
X323617Y-64593D01*
X323617Y-82593D01*
X289617Y-82593D01*
G54D10*
X315850Y-499508D02*
X315850Y-449508D01*
X277850Y-449508D01*
X277850Y-499508D01*
X315850Y-499508D01*
G54D10*
X302350Y-456108D02*
X302349Y-449508D01*
X291350Y-449508D01*
X291350Y-456108D01*
X302350Y-456108D01*
G54D11*
G75*
G01X311846Y-454082D02*
G03X311846Y-454082I-1000J0D01*
G01*
G36*
G75*
G01X311846Y-454082D02*
G03X311846Y-454082I-1000J0D01*
G01*
G37*
X311846Y-454082D01*
G54D10*
X342771Y-446280D02*
X354818Y-446280D01*
X354818Y-480280D01*
G54D10*
X373783Y-500614D02*
X355783Y-500614D01*
X355783Y-466614D01*
X373783Y-466614D01*
X373783Y-500614D01*
G54D10*
X154202Y-403912D02*
X140060Y-389769D01*
X176193Y-353636D01*
X190336Y-367778D01*
X154202Y-403912D01*
G54D10*
X150667Y-400376D02*
X143596Y-393305D01*
X147131Y-389769D01*
X154202Y-396840D01*
X150667Y-400376D01*
G54D10*
X240197Y-522147D02*
X240197Y-504147D01*
X206197Y-504147D01*
X206197Y-522147D01*
X240197Y-522147D01*
G54D10*
X336817Y-450249D02*
X336818Y-480280D01*
G54D10*
X336817Y-470424D02*
X336817Y-504424D01*
X354817Y-504424D01*
X354818Y-470424D01*
G54D12*
X411358Y-472799D02*
X411358Y-396598D01*
G54D12*
X512958Y-396599D02*
X411358Y-396598D01*
G54D12*
X525658Y-396599D02*
X424058Y-396599D01*
G54D12*
X525658Y-415598D02*
X525658Y-402999D01*
G54D12*
X525658Y-409198D02*
X525658Y-396599D01*
G54D10*
X412221Y-190957D02*
X432222Y-190957D01*
X432221Y-228957D01*
X412221Y-228957D01*
X412221Y-190957D01*
G54D10*
X432859Y-218659D02*
X452859Y-218659D01*
X452859Y-256659D01*
X432859Y-256659D01*
X432859Y-218659D01*
G54D10*
X432859Y-180162D02*
X452859Y-180162D01*
X452859Y-218162D01*
X432859Y-218162D01*
X432859Y-180162D01*
G54D10*
X453496Y-180162D02*
X473496Y-180162D01*
X473496Y-218162D01*
X453496Y-218162D01*
X453496Y-180162D01*
G54D10*
X492956Y-288859D02*
X474956Y-288859D01*
X474956Y-254859D01*
X492956Y-254859D01*
X492956Y-288859D01*
G54D10*
X474700Y-288859D02*
X456700Y-288859D01*
X456700Y-254859D01*
X474700Y-254859D01*
X474700Y-288859D01*
G54D10*
X171699Y-504147D02*
X171698Y-522147D01*
X205698Y-522147D01*
X205699Y-504147D01*
X171699Y-504147D01*
G54D10*
X230265Y-252230D02*
X250264Y-252230D01*
X250265Y-303330D01*
X230265Y-303330D01*
X230265Y-252230D01*
G54D10*
X235264Y-252230D02*
X245265Y-252230D01*
X245265Y-257230D01*
X235264Y-257230D01*
X235264Y-252230D01*
G54D10*
X317287Y-539177D02*
X317287Y-521177D01*
X351287Y-521177D01*
X351287Y-539177D01*
X317287Y-539177D01*
G54D13*
G75*
G01X137437Y-390129D02*
G03X137437Y-390129I-2500J0D01*
G01*
G36*
G75*
G01X137437Y-390129D02*
G03X137437Y-390129I-2500J0D01*
G01*
G37*
X137437Y-390129D01*
G54D13*
G75*
G01X257294Y-248048D02*
G03X257294Y-248048I-2500J0D01*
G01*
G36*
G75*
G01X257294Y-248048D02*
G03X257294Y-248048I-2500J0D01*
G01*
G37*
X257294Y-248048D01*
G54D10*
X229675Y-423519D02*
X229675Y-457519D01*
X247675Y-457519D01*
X247675Y-423519D01*
G54D10*
X228625Y-423519D02*
X228625Y-457519D01*
X210625Y-457519D01*
X210625Y-423519D01*
G54D10*
X441953Y-366306D02*
X441953Y-348307D01*
X475953Y-348306D01*
X475953Y-366307D01*
X441953Y-366306D01*
M02*
