%FSLAX34Y34*%
%MOMM*%
%LNCOPPER_BOTTOM*%
G71*
G01*
%ADD10C, 2.100*%
%ADD11C, 2.300*%
%ADD12C, 1.200*%
%ADD13R, 2.400X2.800*%
%ADD14R, 1.590X1.200*%
%ADD15C, 1.150*%
%ADD16R, 4.200X2.300*%
%ADD17C, 1.600*%
%ADD18C, 0.500*%
%ADD19R, 2.200X2.200*%
%ADD20R, 2.200X2.100*%
%ADD21C, 2.400*%
%ADD22C, 1.900*%
%ADD23R, 2.200X2.800*%
%ADD24R, 1.900X2.000*%
%ADD25C, 2.500*%
%ADD26C, 2.600*%
%ADD27R, 2.800X1.870*%
%ADD28R, 2.000X1.900*%
%ADD29R, 2.300X2.500*%
%ADD30C, 2.900*%
%ADD31C, 1.300*%
%ADD32R, 1.950X1.000*%
%ADD33R, 2.500X2.900*%
%ADD34C, 2.200*%
%ADD35C, 0.950*%
%ADD36C, 2.000*%
%ADD37C, 1.000*%
%ADD38C, 0.300*%
%ADD39C, 0.400*%
%ADD40C, 1.350*%
%ADD41C, 1.900*%
%ADD42C, 1.700*%
%ADD43C, 1.800*%
%ADD44R, 3.200X1.600*%
%ADD45C, 1.100*%
%ADD46R, 1.100X1.800*%
%ADD47C, 0.150*%
%ADD48R, 4.100X1.600*%
%ADD49R, 3.100X1.600*%
%ADD50C, 0.827*%
%ADD51C, 0.498*%
%ADD52C, 0.467*%
%ADD53C, 0.433*%
%ADD54C, 0.333*%
%ADD55C, 0.372*%
%ADD56C, 0.325*%
%ADD57C, 0.304*%
%ADD58C, 1.300*%
%ADD59C, 1.500*%
%ADD60R, 1.600X2.000*%
%ADD61R, 0.990X0.600*%
%ADD62C, 0.550*%
%ADD63R, 3.600X1.700*%
%ADD64C, 0.800*%
%ADD65R, 1.600X1.600*%
%ADD66R, 1.400X1.300*%
%ADD67R, 1.400X1.400*%
%ADD68C, 1.600*%
%ADD69C, 0.700*%
%ADD70R, 1.000X1.600*%
%ADD71R, 1.100X1.200*%
%ADD72C, 1.800*%
%ADD73R, 1.600X0.670*%
%ADD74R, 1.200X1.100*%
%ADD75R, 1.300X1.500*%
%ADD76C, 2.100*%
%ADD77R, 1.350X0.400*%
%ADD78R, 1.900X2.300*%
%ADD79C, 1.400*%
%ADD80C, 0.350*%
%ADD81C, 1.100*%
%ADD82C, 0.250*%
%ADD83C, 0.600*%
%ADD84C, 0.280*%
%ADD85C, 2.600*%
%ADD86R, 2.400X0.800*%
%ADD87R, 0.300X1.000*%
%ADD88R, 3.300X0.800*%
%ADD89R, 2.300X0.800*%
%ADD90C, 0.900*%
%ADD91C, 0.750*%
%LPD*%
G36*
X250Y50D02*
X1000250Y50D01*
X1000250Y-999950D01*
X250Y-999950D01*
X250Y50D01*
G37*
%LPC*%
X39552Y-654101D02*
G54D10*
D03*
X65052Y-654101D02*
G54D10*
D03*
X90552Y-654101D02*
G54D10*
D03*
X116052Y-654101D02*
G54D10*
D03*
X141552Y-654101D02*
G54D10*
D03*
X167052Y-654101D02*
G54D10*
D03*
X192552Y-654101D02*
G54D10*
D03*
X218052Y-654101D02*
G54D10*
D03*
X243552Y-654101D02*
G54D10*
D03*
X269052Y-654101D02*
G54D10*
D03*
X294552Y-654101D02*
G54D10*
D03*
X320052Y-654101D02*
G54D10*
D03*
X345552Y-654101D02*
G54D10*
D03*
X371052Y-654101D02*
G54D10*
D03*
X396552Y-654101D02*
G54D10*
D03*
X422052Y-654101D02*
G54D10*
D03*
X447552Y-654102D02*
G54D10*
D03*
X473052Y-654101D02*
G54D10*
D03*
X498552Y-654101D02*
G54D10*
D03*
X524052Y-654101D02*
G54D10*
D03*
X39552Y-611825D02*
G54D10*
D03*
X65052Y-611826D02*
G54D10*
D03*
X90553Y-611825D02*
G54D11*
D03*
X116052Y-611826D02*
G54D10*
D03*
X141552Y-611826D02*
G54D10*
D03*
X167052Y-611826D02*
G54D10*
D03*
X192552Y-611826D02*
G54D10*
D03*
X218052Y-611826D02*
G54D10*
D03*
X243552Y-611826D02*
G54D10*
D03*
X269052Y-611826D02*
G54D10*
D03*
X294552Y-611826D02*
G54D10*
D03*
X320052Y-611826D02*
G54D10*
D03*
X345552Y-611826D02*
G54D10*
D03*
X371052Y-611826D02*
G54D10*
D03*
X396552Y-611826D02*
G54D10*
D03*
X422052Y-611826D02*
G54D10*
D03*
X447552Y-611826D02*
G54D10*
D03*
X473052Y-611826D02*
G54D10*
D03*
X498552Y-611826D02*
G54D10*
D03*
X524052Y-611826D02*
G54D10*
D03*
X52302Y-631826D02*
G54D10*
D03*
X77802Y-631826D02*
G54D10*
D03*
X103302Y-631826D02*
G54D10*
D03*
X154302Y-631826D02*
G54D10*
D03*
X179802Y-631826D02*
G54D10*
D03*
X205302Y-631826D02*
G54D10*
D03*
X256302Y-631826D02*
G54D10*
D03*
X281802Y-631826D02*
G54D10*
D03*
X307302Y-631826D02*
G54D10*
D03*
X358302Y-631826D02*
G54D10*
D03*
X383802Y-631826D02*
G54D10*
D03*
X409302Y-631826D02*
G54D10*
D03*
X460302Y-631826D02*
G54D10*
D03*
X485802Y-631826D02*
G54D10*
D03*
X511302Y-631826D02*
G54D10*
D03*
X52302Y-591825D02*
G54D10*
D03*
X77802Y-591825D02*
G54D10*
D03*
X103302Y-591826D02*
G54D10*
D03*
X154302Y-591826D02*
G54D10*
D03*
X179802Y-591826D02*
G54D10*
D03*
X205302Y-591826D02*
G54D10*
D03*
X256302Y-591826D02*
G54D10*
D03*
X281802Y-591826D02*
G54D10*
D03*
X307302Y-591826D02*
G54D10*
D03*
X358302Y-591826D02*
G54D10*
D03*
X383802Y-591826D02*
G54D10*
D03*
X409302Y-591826D02*
G54D10*
D03*
X460302Y-591826D02*
G54D10*
D03*
X485802Y-591826D02*
G54D10*
D03*
X511302Y-591826D02*
G54D10*
D03*
G54D12*
X179802Y-591826D02*
X179802Y-576698D01*
G54D12*
X281802Y-591826D02*
X281802Y-576698D01*
G54D12*
X485802Y-591826D02*
X485802Y-576698D01*
G54D12*
X383802Y-591826D02*
X383802Y-576698D01*
G54D12*
X485802Y-576698D02*
X92930Y-576698D01*
X77802Y-591826D01*
X473189Y-335303D02*
G54D13*
D03*
X445197Y-335296D02*
G54D13*
D03*
X374672Y-289740D02*
G54D14*
D03*
X374674Y-299145D02*
G54D14*
D03*
X374672Y-308740D02*
G54D14*
D03*
X400571Y-308740D02*
G54D14*
D03*
X400572Y-289740D02*
G54D14*
D03*
G54D15*
X374671Y-308740D02*
X363411Y-308740D01*
X361272Y-306601D01*
X361272Y-293504D01*
X365037Y-289740D01*
X374672Y-289740D01*
X430792Y-310225D02*
G54D16*
D03*
X430792Y-287225D02*
G54D16*
D03*
G54D15*
X400572Y-289740D02*
X436611Y-289740D01*
X438730Y-287622D01*
G54D15*
X400571Y-308740D02*
X436848Y-308740D01*
X438730Y-310622D01*
G54D17*
X445189Y-380681D02*
X445193Y-344823D01*
G36*
X407792Y-290372D02*
X395092Y-290372D01*
X395092Y-309422D01*
X407792Y-309422D01*
X407792Y-290372D01*
G37*
G54D18*
X407792Y-290372D02*
X395092Y-290372D01*
X395092Y-309422D01*
X407792Y-309422D01*
X407792Y-290372D01*
X398620Y-333348D02*
G54D19*
D03*
X370620Y-333348D02*
G54D19*
D03*
X348898Y-334856D02*
G54D20*
D03*
X348900Y-315851D02*
G54D20*
D03*
X422222Y-237667D02*
G54D20*
D03*
X422222Y-259241D02*
G54D20*
D03*
X417493Y-329657D02*
G54D10*
D03*
X445189Y-380681D02*
G54D19*
D03*
X501759Y-343012D02*
G54D21*
D03*
X244872Y-355434D02*
G54D10*
D03*
X259164Y-348064D02*
G54D10*
D03*
X246440Y-370932D02*
G54D22*
D03*
X505042Y-490177D02*
G54D22*
D03*
G36*
X503096Y-547804D02*
X503096Y-511804D01*
X539096Y-511804D01*
X539096Y-547804D01*
X503096Y-547804D01*
G37*
X225885Y-53213D02*
G54D23*
D03*
X240964Y-53212D02*
G54D23*
D03*
X255252Y-53211D02*
G54D23*
D03*
X269539Y-53212D02*
G54D23*
D03*
X283827Y-53212D02*
G54D23*
D03*
X298117Y-53213D02*
G54D23*
D03*
X312402Y-53212D02*
G54D23*
D03*
X326689Y-53212D02*
G54D23*
D03*
X298117Y-73593D02*
G54D24*
D03*
X315117Y-73593D02*
G54D24*
D03*
G54D12*
X312402Y-53212D02*
X312402Y-73259D01*
X315117Y-75974D01*
X234156Y-342337D02*
G54D10*
D03*
X159552Y-533927D02*
G54D25*
D03*
X180197Y-533933D02*
G54D25*
D03*
X199247Y-533933D02*
G54D25*
D03*
X199244Y-421093D02*
G54D25*
D03*
G36*
X284262Y-510852D02*
X284262Y-546852D01*
X248262Y-546852D01*
X248262Y-510852D01*
X284262Y-510852D01*
G37*
X506659Y-186532D02*
G54D26*
D03*
X506657Y-161132D02*
G54D26*
D03*
X148959Y-47484D02*
G54D21*
D03*
X325350Y-455508D02*
G54D27*
D03*
X325349Y-468208D02*
G54D27*
D03*
X325350Y-480908D02*
G54D27*
D03*
X325349Y-493608D02*
G54D27*
D03*
X268350Y-493608D02*
G54D27*
D03*
X268350Y-480908D02*
G54D27*
D03*
X268350Y-468208D02*
G54D27*
D03*
X268350Y-455508D02*
G54D27*
D03*
X345818Y-478924D02*
G54D28*
D03*
X345818Y-495924D02*
G54D28*
D03*
X345818Y-454780D02*
G54D28*
D03*
X345817Y-471780D02*
G54D28*
D03*
X364783Y-492114D02*
G54D28*
D03*
X364783Y-475114D02*
G54D28*
D03*
X137319Y-435769D02*
G54D22*
D03*
X455612Y-528636D02*
G54D29*
D03*
X159556Y-421094D02*
G54D10*
D03*
X219881Y-421094D02*
G54D10*
D03*
X238931Y-421094D02*
G54D10*
D03*
G36*
X117433Y-368555D02*
X128748Y-357242D01*
X151374Y-379871D01*
X140059Y-391184D01*
X117433Y-368555D01*
G37*
G36*
X126413Y-359575D02*
X137728Y-348262D01*
X160354Y-370890D01*
X149039Y-382204D01*
X126413Y-359575D01*
G37*
G36*
X135394Y-350593D02*
X146709Y-339281D01*
X169333Y-361912D01*
X158018Y-373224D01*
X135394Y-350593D01*
G37*
G36*
X144373Y-341616D02*
X155686Y-330302D01*
X178315Y-352928D01*
X167002Y-364242D01*
X144373Y-341616D01*
G37*
G36*
X179729Y-376971D02*
X191042Y-365657D01*
X213670Y-388284D01*
X202357Y-399598D01*
X179729Y-376971D01*
G37*
G36*
X170749Y-385952D02*
X182062Y-374638D01*
X204690Y-397264D01*
X193377Y-408578D01*
X170749Y-385952D01*
G37*
G36*
X161768Y-394932D02*
X173082Y-383618D01*
X195710Y-406244D01*
X184396Y-417558D01*
X161768Y-394932D01*
G37*
G36*
X152789Y-403911D02*
X164103Y-392598D01*
X186729Y-415226D01*
X175415Y-426539D01*
X152789Y-403911D01*
G37*
X231699Y-513150D02*
G54D24*
D03*
X214697Y-513147D02*
G54D24*
D03*
X475453Y-528638D02*
G54D29*
D03*
X487558Y-460199D02*
G54D30*
D03*
X436758Y-485599D02*
G54D30*
D03*
X436758Y-434798D02*
G54D30*
D03*
X436758Y-409399D02*
G54D30*
D03*
X436758Y-510999D02*
G54D30*
D03*
G54D31*
X409770Y-485599D02*
X452658Y-485599D01*
X475453Y-508394D01*
X475453Y-530225D01*
X501033Y-233343D02*
G54D32*
D03*
X501033Y-239843D02*
G54D32*
D03*
X501033Y-246343D02*
G54D32*
D03*
X501033Y-252843D02*
G54D32*
D03*
X501033Y-259343D02*
G54D32*
D03*
X527783Y-283843D02*
G54D33*
D03*
X527783Y-208843D02*
G54D33*
D03*
X400458Y-219430D02*
G54D34*
D03*
X422222Y-199170D02*
G54D20*
D03*
X422222Y-220744D02*
G54D20*
D03*
X442859Y-226872D02*
G54D20*
D03*
X442859Y-248446D02*
G54D20*
D03*
X442859Y-188375D02*
G54D20*
D03*
X442859Y-209949D02*
G54D20*
D03*
G54D31*
X422222Y-237667D02*
X422221Y-220744D01*
G54D12*
X442859Y-226872D02*
X442859Y-209949D01*
G54D15*
X409165Y-208738D02*
X410368Y-209942D01*
X440002Y-209944D01*
G36*
X502037Y-222612D02*
X496626Y-228022D01*
X488948Y-228022D01*
X483537Y-222612D01*
X483537Y-214934D01*
X488948Y-209522D01*
X496626Y-209522D01*
X502037Y-214934D01*
X502037Y-222612D01*
G37*
G54D31*
X527783Y-208843D02*
X527783Y-283843D01*
G54D35*
X501033Y-252843D02*
X471851Y-252843D01*
X404209Y-251074D02*
G54D36*
D03*
G36*
X366686Y-394916D02*
X372244Y-400474D01*
X372244Y-408358D01*
X366686Y-413916D01*
X358802Y-413916D01*
X353244Y-408358D01*
X353244Y-400474D01*
X358802Y-394916D01*
X366686Y-394916D01*
G37*
G36*
X353986Y-382216D02*
X359544Y-387774D01*
X359544Y-395658D01*
X353986Y-401216D01*
X346102Y-401216D01*
X340544Y-395658D01*
X340544Y-387774D01*
X346102Y-382216D01*
X353986Y-382216D01*
G37*
G36*
X386656Y-413172D02*
X392214Y-418730D01*
X392214Y-426614D01*
X386656Y-432172D01*
X378772Y-432172D01*
X373214Y-426614D01*
X373214Y-418730D01*
X378772Y-413172D01*
X386656Y-413172D01*
G37*
G54D17*
X473184Y-366824D02*
X473189Y-344828D01*
G54D15*
X422222Y-237667D02*
X459123Y-237667D01*
X467799Y-246343D01*
X501033Y-246343D01*
G54D15*
X501033Y-239843D02*
X474396Y-239843D01*
X461425Y-226872D01*
X442859Y-226872D01*
X463497Y-188375D02*
G54D20*
D03*
X463496Y-209949D02*
G54D20*
D03*
G54D37*
X501033Y-233343D02*
X478215Y-233343D01*
X463496Y-218624D01*
X463496Y-209949D01*
G54D31*
X527783Y-208843D02*
X500149Y-208843D01*
X488950Y-197644D01*
X481806Y-197644D01*
X474522Y-190359D01*
X463497Y-190359D01*
G54D31*
X463497Y-188851D02*
X442859Y-188851D01*
X483956Y-280359D02*
G54D28*
D03*
X483956Y-263359D02*
G54D28*
D03*
X465700Y-280359D02*
G54D28*
D03*
X465700Y-263359D02*
G54D28*
D03*
G36*
X480384Y-257455D02*
X441668Y-257455D01*
X405796Y-249884D01*
X441668Y-228237D01*
X480384Y-228237D01*
X480384Y-257455D01*
G37*
G54D38*
X480384Y-257455D02*
X441668Y-257455D01*
X405796Y-249884D01*
X441668Y-228237D01*
X480384Y-228237D01*
X480384Y-257455D01*
G54D12*
X465700Y-280359D02*
X524299Y-280359D01*
X527783Y-283843D01*
G36*
X486946Y-233343D02*
X454013Y-233343D01*
X422222Y-220744D01*
X437700Y-183295D01*
X467854Y-183692D01*
X481806Y-197644D01*
X488950Y-197644D01*
X495387Y-204080D01*
X486946Y-233343D01*
G37*
G54D39*
X486946Y-233343D02*
X454013Y-233343D01*
X422222Y-220744D01*
X437700Y-183295D01*
X467854Y-183692D01*
X481806Y-197644D01*
X488950Y-197644D01*
X495387Y-204080D01*
X486946Y-233343D01*
X386987Y-232900D02*
G54D34*
D03*
G54D31*
X416302Y-329657D02*
X397827Y-329657D01*
G54D39*
X354012Y-201612D02*
X329787Y-225838D01*
X329787Y-351218D01*
X339328Y-360759D01*
X483415Y-360759D01*
X533876Y-310298D01*
X533876Y-202486D01*
X533003Y-201612D01*
X354012Y-201612D01*
G54D31*
X368636Y-337197D02*
X368636Y-327361D01*
X359904Y-318629D01*
X347312Y-318629D01*
G54D40*
X349297Y-317042D02*
X349297Y-304753D01*
X354806Y-299244D01*
X360759Y-299244D01*
G54D17*
X473189Y-335303D02*
X473189Y-324758D01*
X457466Y-309034D01*
X435158Y-309034D01*
G54D31*
X345817Y-455970D02*
X354767Y-455970D01*
X364783Y-465986D01*
X364783Y-475114D01*
G54D12*
X219881Y-421094D02*
X219881Y-417922D01*
X209153Y-407194D01*
X203305Y-407194D01*
X187719Y-391608D01*
G54D12*
X238931Y-421094D02*
X238931Y-418318D01*
X225425Y-404812D01*
X218884Y-404812D01*
X196699Y-382628D01*
G54D31*
X159556Y-421094D02*
X159556Y-419771D01*
X169759Y-409568D01*
X308197Y-530178D02*
G54D11*
D03*
X406595Y-485599D02*
G54D34*
D03*
X406747Y-510999D02*
G54D34*
D03*
X122706Y-161528D02*
G54D41*
D03*
X122702Y-175812D02*
G54D41*
D03*
G36*
X153411Y-153335D02*
X235961Y-153335D01*
X235961Y-185085D01*
X153411Y-185085D01*
X153411Y-153335D01*
G37*
G54D42*
X153411Y-153335D02*
X235961Y-153335D01*
X235961Y-185085D01*
X153411Y-185085D01*
X153411Y-153335D01*
G54D43*
X140853Y-175021D02*
X122706Y-175021D01*
G54D43*
X140853Y-162321D02*
X122706Y-162321D01*
X285480Y-440531D02*
G54D22*
D03*
X180197Y-513144D02*
G54D24*
D03*
X197199Y-513147D02*
G54D24*
D03*
G54D31*
X180197Y-533933D02*
X180197Y-511556D01*
G54D31*
X197199Y-513147D02*
X214697Y-513147D01*
X383778Y-147241D02*
G54D36*
D03*
X370200Y-160025D02*
G54D36*
D03*
X396478Y-159147D02*
G54D36*
D03*
X403622Y-174228D02*
G54D36*
D03*
X422275Y-163116D02*
G54D36*
D03*
G54D12*
G75*
G01X396278Y-147241D02*
G03X374939Y-138402I-12500J0D01*
G01*
G54D12*
X370200Y-160025D02*
X367422Y-157247D01*
X308456Y-157247D01*
X240964Y-89755D01*
X240964Y-53212D01*
G54D12*
X383778Y-147241D02*
X310356Y-146844D01*
X255252Y-91739D01*
X255252Y-53211D01*
G54D12*
X396278Y-147241D02*
X396278Y-158947D01*
X396478Y-159147D01*
G54D12*
X374939Y-138402D02*
X314614Y-138402D01*
X269539Y-93327D01*
X269539Y-53212D01*
G54D12*
G75*
G01X404416Y-147241D02*
G03X373459Y-129368I-20638J0D01*
G01*
G54D12*
X373459Y-129368D02*
X317533Y-129368D01*
X283827Y-95661D01*
X283827Y-53212D01*
G54D12*
X403622Y-174228D02*
X409575Y-168275D01*
X409575Y-152400D01*
X404416Y-147241D01*
G54D12*
G75*
G01X409165Y-208738D02*
G03X388143Y-217446I-8708J-8708D01*
G01*
G54D12*
X388144Y-217445D02*
X388144Y-231744D01*
X386987Y-232900D01*
X265265Y-259230D02*
G54D44*
D03*
X265265Y-271930D02*
G54D44*
D03*
X265264Y-284630D02*
G54D44*
D03*
X265265Y-297330D02*
G54D44*
D03*
X215264Y-297330D02*
G54D44*
D03*
X215264Y-284630D02*
G54D44*
D03*
X215265Y-271930D02*
G54D44*
D03*
X215265Y-259230D02*
G54D44*
D03*
G54D12*
X215265Y-259230D02*
X215265Y-271930D01*
G54D12*
G75*
G01X411695Y-139773D02*
G03X376239Y-119302I-27964J-7493D01*
G01*
G54D12*
X326689Y-53212D02*
X326689Y-101264D01*
X344727Y-119302D01*
X376239Y-119302D01*
G54D37*
X422275Y-163116D02*
X422275Y-150353D01*
X411695Y-139773D01*
G36*
X225885Y-53213D02*
X225885Y-87772D01*
X283827Y-95661D01*
X283827Y-53212D01*
X225885Y-53213D01*
G37*
G54D39*
X225885Y-53213D02*
X225885Y-87772D01*
X283827Y-95661D01*
X283827Y-53212D01*
X225885Y-53213D01*
G36*
X419497Y-159544D02*
X401637Y-159544D01*
X401637Y-149622D01*
X419497Y-149622D01*
X419497Y-159544D01*
G37*
G54D39*
X419497Y-159544D02*
X401637Y-159544D01*
X401637Y-149622D01*
X419497Y-149622D01*
X419497Y-159544D01*
G54D45*
X422221Y-259241D02*
X432064Y-259241D01*
X442859Y-248446D01*
G54D45*
X442859Y-188375D02*
X433017Y-188375D01*
X422222Y-199170D01*
G36*
X483956Y-280478D02*
X522684Y-280478D01*
X522684Y-287853D01*
X483956Y-287853D01*
X483956Y-280478D01*
G37*
G54D39*
X483956Y-280478D02*
X522684Y-280478D01*
X522684Y-287853D01*
X483956Y-287853D01*
X483956Y-280478D01*
X325787Y-530177D02*
G54D24*
D03*
X342786Y-530178D02*
G54D24*
D03*
G54D31*
X308197Y-530177D02*
X325787Y-530177D01*
G54D12*
X234156Y-342337D02*
X234156Y-265906D01*
X240109Y-259953D01*
G54D12*
X266058Y-259230D02*
X240832Y-259230D01*
X240109Y-259953D01*
G54D12*
X220821Y-348614D02*
X228850Y-356644D01*
X243662Y-356644D01*
X244872Y-355434D01*
G54D12*
X259164Y-348064D02*
X244475Y-333375D01*
X244475Y-280194D01*
X252738Y-271930D01*
X265265Y-271930D01*
G54D12*
X334300Y-401638D02*
X285353Y-401638D01*
X254647Y-370932D01*
X246043Y-370932D01*
G54D12*
X362744Y-404416D02*
X362744Y-386159D01*
X356394Y-379809D01*
X342305Y-379809D01*
X340221Y-381893D01*
X292993Y-381893D01*
X259164Y-348064D01*
G54D12*
X350044Y-391716D02*
X290116Y-391716D01*
X260747Y-362347D01*
X244872Y-355434D01*
G36*
X191620Y-284630D02*
X184944Y-302419D01*
X246440Y-370932D01*
X259164Y-348064D01*
X244475Y-333375D01*
X244475Y-313531D01*
X227409Y-296466D01*
X191620Y-284630D01*
G37*
G54D39*
X191620Y-284630D02*
X184944Y-302419D01*
X246440Y-370932D01*
X259164Y-348064D01*
X244475Y-333375D01*
X244475Y-313531D01*
X227409Y-296466D01*
X191620Y-284630D01*
G36*
X216297Y-246459D02*
X265264Y-246459D01*
X265264Y-284630D01*
X216297Y-284630D01*
X216297Y-246459D01*
G37*
G54D39*
X216297Y-246459D02*
X265264Y-246459D01*
X265264Y-284630D01*
X216297Y-284630D01*
X216297Y-246459D01*
G54D31*
X225885Y-77057D02*
X225885Y-87772D01*
X265112Y-127000D01*
G54D17*
X466263Y-357307D02*
X487464Y-357307D01*
X501759Y-343012D01*
G54D12*
X334300Y-401638D02*
X341312Y-401638D01*
X357584Y-417909D01*
X377952Y-417909D01*
X382714Y-422672D01*
G36*
X350044Y-391716D02*
X362744Y-391716D01*
X362744Y-404416D01*
X350044Y-404416D01*
X350044Y-391716D01*
G37*
G54D39*
X350044Y-391716D02*
X362744Y-391716D01*
X362744Y-404416D01*
X350044Y-404416D01*
X350044Y-391716D01*
G54D31*
X406747Y-510999D02*
X372555Y-510999D01*
X364783Y-503227D01*
X364783Y-492114D01*
X219622Y-449021D02*
G54D28*
D03*
X219625Y-432019D02*
G54D28*
D03*
X238672Y-449021D02*
G54D28*
D03*
X238675Y-432019D02*
G54D28*
D03*
G54D31*
X237482Y-449021D02*
X187483Y-449021D01*
X159556Y-421094D01*
G54D12*
X325350Y-455508D02*
X345355Y-455508D01*
X345817Y-455970D01*
G54D12*
X325349Y-468208D02*
X341055Y-468208D01*
X345817Y-472970D01*
G54D12*
X325349Y-493608D02*
X342311Y-493608D01*
X345817Y-497114D01*
G54D12*
X325350Y-480908D02*
X313239Y-480908D01*
X289322Y-504825D01*
X240024Y-504825D01*
X231699Y-513150D01*
G54D12*
X240197Y-504147D02*
X233334Y-497284D01*
G54D31*
X269540Y-455508D02*
X270503Y-455508D01*
X285480Y-440531D01*
G54D31*
X268350Y-455508D02*
X245160Y-455508D01*
X238672Y-449021D01*
G54D12*
X233334Y-497284D02*
X198834Y-497284D01*
X137319Y-435769D01*
G54D31*
X285480Y-440531D02*
X287861Y-442912D01*
X358378Y-442912D01*
X369094Y-453628D01*
X455612Y-453628D01*
X473184Y-436056D01*
X473184Y-366824D01*
G36*
X440953Y-347307D02*
X459953Y-347306D01*
X459953Y-367306D01*
X440953Y-367307D01*
X440953Y-347307D01*
G37*
X467453Y-357306D02*
G54D24*
D03*
X395531Y-53166D02*
G54D46*
D03*
X400531Y-53166D02*
G54D46*
D03*
X405531Y-53166D02*
G54D46*
D03*
X410531Y-53166D02*
G54D46*
D03*
X415531Y-53166D02*
G54D46*
D03*
X420531Y-53166D02*
G54D46*
D03*
X425531Y-53166D02*
G54D46*
D03*
X430531Y-53166D02*
G54D46*
D03*
G54D12*
G75*
G01X99038Y-603339D02*
G03X82067Y-603339I-8485J-8486D01*
G01*
G54D12*
G75*
G01X116052Y-599827D02*
G03X107566Y-603341I0J-12000D01*
G01*
G54D12*
X99038Y-603339D02*
X107566Y-603341D01*
G54D12*
G75*
G01X73537Y-603341D02*
G03X61946Y-600236I-8485J-8486D01*
G01*
G54D12*
X73537Y-603341D02*
X82067Y-603339D01*
G54D12*
G75*
G01X82067Y-620310D02*
G03X99038Y-620310I8486J8485D01*
G01*
G54D12*
G75*
G01X107566Y-620308D02*
G03X124537Y-620308I8486J8485D01*
G01*
G54D12*
X99038Y-620310D02*
X107566Y-620308D01*
G54D12*
G75*
G01X54659Y-617823D02*
G03X73537Y-620308I10393J6000D01*
G01*
G54D12*
X73537Y-620308D02*
X82067Y-620310D01*
G54D12*
X61946Y-600236D02*
X60713Y-600236D01*
X52302Y-591825D01*
G54D12*
X116052Y-599827D02*
X146301Y-599827D01*
X154302Y-591826D01*
G54D12*
G75*
G01X201037Y-603341D02*
G03X184067Y-603341I-8485J-8485D01*
G01*
G54D12*
G75*
G01X218051Y-599828D02*
G03X209566Y-603343I0J-12000D01*
G01*
G54D12*
X201037Y-603341D02*
X209566Y-603343D01*
G54D12*
G75*
G01X175536Y-603343D02*
G03X163945Y-600237I-8485J-8485D01*
G01*
G54D12*
X175536Y-603343D02*
X184067Y-603341D01*
G54D12*
X163945Y-600237D02*
X162713Y-600237D01*
X154302Y-591826D01*
G54D12*
X218051Y-599828D02*
X248301Y-599828D01*
X256301Y-591828D01*
G54D12*
G75*
G01X303037Y-603341D02*
G03X286067Y-603341I-8485J-8485D01*
G01*
G54D12*
G75*
G01X320051Y-599828D02*
G03X311566Y-603343I0J-12000D01*
G01*
G54D12*
X303037Y-603341D02*
X311566Y-603343D01*
G54D12*
G75*
G01X277536Y-603343D02*
G03X265945Y-600237I-8485J-8485D01*
G01*
G54D12*
X277536Y-603343D02*
X286067Y-603341D01*
G54D12*
X265945Y-600237D02*
X264713Y-600237D01*
X256302Y-591826D01*
G54D12*
X320051Y-599828D02*
X350301Y-599828D01*
X358301Y-591828D01*
G54D12*
G75*
G01X405037Y-603341D02*
G03X388067Y-603341I-8485J-8485D01*
G01*
G54D12*
G75*
G01X422051Y-599828D02*
G03X413566Y-603343I0J-12000D01*
G01*
G54D12*
X405037Y-603341D02*
X413566Y-603343D01*
G54D12*
G75*
G01X379536Y-603343D02*
G03X367945Y-600237I-8485J-8485D01*
G01*
G54D12*
X379536Y-603343D02*
X388067Y-603341D01*
G54D12*
X367945Y-600237D02*
X366713Y-600237D01*
X358302Y-591826D01*
G54D12*
X422051Y-599828D02*
X452301Y-599828D01*
X460301Y-591828D01*
G54D12*
X124537Y-620308D02*
X133070Y-620308D01*
X141552Y-611826D01*
G54D12*
X54659Y-617823D02*
X45550Y-617823D01*
X39552Y-611825D01*
G54D12*
G75*
G01X184067Y-620311D02*
G03X201037Y-620311I8485J8485D01*
G01*
G54D12*
G75*
G01X209566Y-620309D02*
G03X226536Y-620309I8485J8485D01*
G01*
G54D12*
X201037Y-620311D02*
X209566Y-620309D01*
G54D12*
G75*
G01X156659Y-617824D02*
G03X175536Y-620309I10392J6000D01*
G01*
G54D12*
X175536Y-620309D02*
X184067Y-620311D01*
G54D12*
X226536Y-620309D02*
X235069Y-620309D01*
X243551Y-611828D01*
G54D12*
X156659Y-617824D02*
X147550Y-617824D01*
X141552Y-611826D01*
G54D12*
G75*
G01X286067Y-620311D02*
G03X303037Y-620311I8485J8485D01*
G01*
G54D12*
G75*
G01X311566Y-620309D02*
G03X328536Y-620309I8485J8485D01*
G01*
G54D12*
X303037Y-620311D02*
X311566Y-620309D01*
G54D12*
G75*
G01X258659Y-617824D02*
G03X277536Y-620309I10392J6000D01*
G01*
G54D12*
X277536Y-620309D02*
X286067Y-620311D01*
G54D12*
X328536Y-620309D02*
X337070Y-620309D01*
X345551Y-611828D01*
G54D12*
X258659Y-617824D02*
X249550Y-617824D01*
X243552Y-611826D01*
G54D12*
G75*
G01X388067Y-620311D02*
G03X405037Y-620311I8485J8485D01*
G01*
G54D12*
G75*
G01X413566Y-620309D02*
G03X430536Y-620309I8485J8485D01*
G01*
G54D12*
X405037Y-620311D02*
X413566Y-620309D01*
G54D12*
G75*
G01X360659Y-617824D02*
G03X379536Y-620309I10392J6000D01*
G01*
G54D12*
X379536Y-620309D02*
X388067Y-620311D01*
G54D12*
X430536Y-620309D02*
X439069Y-620309D01*
X447551Y-611828D01*
G54D12*
X360659Y-617824D02*
X351550Y-617824D01*
X345552Y-611826D01*
G54D31*
X225885Y-53213D02*
X225885Y-77057D01*
G54D31*
X225885Y-53213D02*
X154688Y-53213D01*
X148959Y-47484D01*
G54D45*
X422222Y-220744D02*
X401772Y-220744D01*
X400458Y-219430D01*
X455612Y-528636D02*
G54D29*
D03*
X475453Y-528638D02*
G54D29*
D03*
G54D31*
X406595Y-485599D02*
X452658Y-485599D01*
X475453Y-508394D01*
X475453Y-530225D01*
G54D31*
X265112Y-245666D02*
X265112Y-127000D01*
G54D12*
X463496Y-209949D02*
X483963Y-209949D01*
X492787Y-218772D01*
X238941Y-533927D02*
G54D11*
D03*
X505043Y-510178D02*
G54D22*
D03*
G54D12*
X220821Y-348614D02*
X220821Y-302887D01*
X215264Y-297330D01*
G54D12*
X246043Y-370932D02*
X243662Y-368550D01*
X227057Y-368550D01*
X212328Y-353821D01*
X212328Y-329803D01*
X184944Y-302419D01*
X184944Y-291306D01*
X191620Y-284630D01*
X204152Y-284630D01*
G54D17*
X505043Y-510178D02*
X515338Y-510178D01*
X521098Y-515938D01*
X521097Y-529804D01*
G54D17*
X238941Y-533927D02*
X261187Y-533927D01*
X266262Y-528852D01*
G36*
X238941Y-533927D02*
X257969Y-533927D01*
X257969Y-506016D01*
X238941Y-506016D01*
X238941Y-533927D01*
G37*
G54D47*
X238941Y-533927D02*
X257969Y-533927D01*
X257969Y-506016D01*
X238941Y-506016D01*
X238941Y-533927D01*
X270027Y-259230D02*
G54D48*
D03*
X215265Y-259230D02*
G54D49*
D03*
X270027Y-271930D02*
G54D48*
D03*
X270027Y-284630D02*
G54D48*
D03*
X270027Y-297330D02*
G54D48*
D03*
X210502Y-297330D02*
G54D48*
D03*
X210502Y-284630D02*
G54D48*
D03*
X210502Y-271930D02*
G54D48*
D03*
X210502Y-259230D02*
G54D48*
D03*
G54D12*
X215265Y-259230D02*
X215265Y-247492D01*
X216297Y-246459D01*
X288925Y-246459D01*
X292497Y-250031D01*
X292497Y-281781D01*
X290045Y-284630D01*
X273996Y-284630D01*
X39552Y-781101D02*
G54D10*
D03*
X65052Y-781101D02*
G54D10*
D03*
X90552Y-781101D02*
G54D10*
D03*
X116052Y-781101D02*
G54D10*
D03*
X141552Y-781101D02*
G54D10*
D03*
X167052Y-781101D02*
G54D10*
D03*
X192552Y-781101D02*
G54D10*
D03*
X218052Y-781101D02*
G54D10*
D03*
X243552Y-781101D02*
G54D10*
D03*
X269052Y-781101D02*
G54D10*
D03*
X294552Y-781101D02*
G54D10*
D03*
X320052Y-781101D02*
G54D10*
D03*
X345552Y-781101D02*
G54D10*
D03*
X371052Y-781101D02*
G54D10*
D03*
X396552Y-781101D02*
G54D10*
D03*
X422052Y-781101D02*
G54D10*
D03*
X447552Y-781102D02*
G54D10*
D03*
X473052Y-781101D02*
G54D10*
D03*
X498552Y-781101D02*
G54D10*
D03*
X524052Y-781101D02*
G54D10*
D03*
X39552Y-738825D02*
G54D10*
D03*
X65052Y-738826D02*
G54D10*
D03*
X90553Y-738825D02*
G54D11*
D03*
X116052Y-738826D02*
G54D10*
D03*
X141552Y-738826D02*
G54D10*
D03*
X167052Y-738826D02*
G54D10*
D03*
X192552Y-738826D02*
G54D10*
D03*
X218052Y-738826D02*
G54D10*
D03*
X243552Y-738826D02*
G54D10*
D03*
X269052Y-738826D02*
G54D10*
D03*
X294552Y-738826D02*
G54D10*
D03*
X320052Y-738826D02*
G54D10*
D03*
X345552Y-738826D02*
G54D10*
D03*
X371052Y-738826D02*
G54D10*
D03*
X396552Y-738826D02*
G54D10*
D03*
X422052Y-738826D02*
G54D10*
D03*
X447552Y-738826D02*
G54D10*
D03*
X473052Y-738826D02*
G54D10*
D03*
X498552Y-738826D02*
G54D10*
D03*
X524052Y-738826D02*
G54D10*
D03*
X52302Y-758826D02*
G54D10*
D03*
X77802Y-758826D02*
G54D10*
D03*
X103302Y-758826D02*
G54D10*
D03*
X154302Y-758826D02*
G54D10*
D03*
X179802Y-758826D02*
G54D10*
D03*
X205302Y-758826D02*
G54D10*
D03*
X256302Y-758826D02*
G54D10*
D03*
X281802Y-758826D02*
G54D10*
D03*
X307302Y-758826D02*
G54D10*
D03*
X358302Y-758826D02*
G54D10*
D03*
X383802Y-758826D02*
G54D10*
D03*
X409302Y-758826D02*
G54D10*
D03*
X460302Y-758826D02*
G54D10*
D03*
X485802Y-758826D02*
G54D10*
D03*
X511302Y-758826D02*
G54D10*
D03*
X52302Y-718825D02*
G54D10*
D03*
X77802Y-718825D02*
G54D10*
D03*
X103302Y-718826D02*
G54D10*
D03*
X154302Y-718826D02*
G54D10*
D03*
X179802Y-718826D02*
G54D10*
D03*
X205302Y-718826D02*
G54D10*
D03*
X256302Y-718826D02*
G54D10*
D03*
X281802Y-718826D02*
G54D10*
D03*
X307302Y-718826D02*
G54D10*
D03*
X358302Y-718826D02*
G54D10*
D03*
X383802Y-718826D02*
G54D10*
D03*
X409302Y-718826D02*
G54D10*
D03*
X460302Y-718826D02*
G54D10*
D03*
X485802Y-718826D02*
G54D10*
D03*
X511302Y-718826D02*
G54D10*
D03*
G54D12*
X179802Y-718826D02*
X179802Y-703698D01*
G54D12*
X281802Y-718826D02*
X281802Y-703698D01*
G54D12*
X485802Y-718826D02*
X485802Y-703698D01*
G54D12*
X383802Y-718826D02*
X383802Y-703698D01*
G54D12*
X485802Y-703698D02*
X92930Y-703698D01*
X77802Y-718826D01*
G54D12*
G75*
G01X99038Y-730339D02*
G03X82067Y-730339I-8485J-8486D01*
G01*
G54D12*
G75*
G01X116052Y-726827D02*
G03X107566Y-730341I0J-12000D01*
G01*
G54D12*
X99038Y-730339D02*
X107566Y-730341D01*
G54D12*
G75*
G01X73537Y-730341D02*
G03X61946Y-727236I-8485J-8486D01*
G01*
G54D12*
X73537Y-730341D02*
X82067Y-730339D01*
G54D12*
G75*
G01X82067Y-747310D02*
G03X99038Y-747310I8486J8485D01*
G01*
G54D12*
G75*
G01X107566Y-747308D02*
G03X124537Y-747308I8486J8485D01*
G01*
G54D12*
X99038Y-747310D02*
X107566Y-747308D01*
G54D12*
G75*
G01X54659Y-744823D02*
G03X73537Y-747308I10393J6000D01*
G01*
G54D12*
X73537Y-747308D02*
X82067Y-747310D01*
G54D12*
X61946Y-727236D02*
X60713Y-727236D01*
X52302Y-718825D01*
G54D12*
X116052Y-726827D02*
X146301Y-726827D01*
X154302Y-718826D01*
G54D12*
G75*
G01X201037Y-730341D02*
G03X184067Y-730341I-8485J-8485D01*
G01*
G54D12*
G75*
G01X218051Y-726828D02*
G03X209566Y-730343I0J-12000D01*
G01*
G54D12*
X201037Y-730341D02*
X209566Y-730343D01*
G54D12*
G75*
G01X175536Y-730343D02*
G03X163945Y-727237I-8485J-8485D01*
G01*
G54D12*
X175536Y-730343D02*
X184067Y-730341D01*
G54D12*
X163945Y-727237D02*
X162713Y-727237D01*
X154302Y-718826D01*
G54D12*
X218051Y-726828D02*
X248301Y-726828D01*
X256301Y-718828D01*
G54D12*
G75*
G01X303037Y-730341D02*
G03X286067Y-730341I-8485J-8485D01*
G01*
G54D12*
G75*
G01X320051Y-726828D02*
G03X311566Y-730343I0J-12000D01*
G01*
G54D12*
X303037Y-730341D02*
X311566Y-730343D01*
G54D12*
G75*
G01X277536Y-730343D02*
G03X265945Y-727237I-8485J-8485D01*
G01*
G54D12*
X277536Y-730343D02*
X286067Y-730341D01*
G54D12*
X265945Y-727237D02*
X264713Y-727237D01*
X256302Y-718826D01*
G54D12*
X320051Y-726828D02*
X350301Y-726828D01*
X358301Y-718828D01*
G54D12*
G75*
G01X405037Y-730341D02*
G03X388067Y-730341I-8485J-8485D01*
G01*
G54D12*
G75*
G01X422051Y-726828D02*
G03X413566Y-730343I0J-12000D01*
G01*
G54D12*
X405037Y-730341D02*
X413566Y-730343D01*
G54D12*
G75*
G01X379536Y-730343D02*
G03X367945Y-727237I-8485J-8485D01*
G01*
G54D12*
X379536Y-730343D02*
X388067Y-730341D01*
G54D12*
X367945Y-727237D02*
X366713Y-727237D01*
X358302Y-718826D01*
G54D12*
X422051Y-726828D02*
X452301Y-726828D01*
X460301Y-718828D01*
G54D12*
X124537Y-747308D02*
X133070Y-747308D01*
X141552Y-738826D01*
G54D12*
X54659Y-744823D02*
X45550Y-744823D01*
X39552Y-738825D01*
G54D12*
G75*
G01X184067Y-747311D02*
G03X201037Y-747311I8485J8485D01*
G01*
G54D12*
G75*
G01X209566Y-747309D02*
G03X226536Y-747309I8485J8485D01*
G01*
G54D12*
X201037Y-747311D02*
X209566Y-747309D01*
G54D12*
G75*
G01X156659Y-744824D02*
G03X175536Y-747309I10392J6000D01*
G01*
G54D12*
X175536Y-747309D02*
X184067Y-747311D01*
G54D12*
X226536Y-747309D02*
X235069Y-747309D01*
X243551Y-738828D01*
G54D12*
X156659Y-744824D02*
X147550Y-744824D01*
X141552Y-738826D01*
G54D12*
G75*
G01X286067Y-747311D02*
G03X303037Y-747311I8485J8485D01*
G01*
G54D12*
G75*
G01X311566Y-747309D02*
G03X328536Y-747309I8485J8485D01*
G01*
G54D12*
X303037Y-747311D02*
X311566Y-747309D01*
G54D12*
G75*
G01X258659Y-744824D02*
G03X277536Y-747309I10392J6000D01*
G01*
G54D12*
X277536Y-747309D02*
X286067Y-747311D01*
G54D12*
X328536Y-747309D02*
X337070Y-747309D01*
X345551Y-738828D01*
G54D12*
X258659Y-744824D02*
X249550Y-744824D01*
X243552Y-738826D01*
G54D12*
G75*
G01X388067Y-747311D02*
G03X405037Y-747311I8485J8485D01*
G01*
G54D12*
G75*
G01X413566Y-747309D02*
G03X430536Y-747309I8485J8485D01*
G01*
G54D12*
X405037Y-747311D02*
X413566Y-747309D01*
G54D12*
G75*
G01X360659Y-744824D02*
G03X379536Y-747309I10392J6000D01*
G01*
G54D12*
X379536Y-747309D02*
X388067Y-747311D01*
G54D12*
X430536Y-747309D02*
X439069Y-747309D01*
X447551Y-738828D01*
G54D12*
X360659Y-744824D02*
X351550Y-744824D01*
X345552Y-738826D01*
G36*
X16818Y-996713D02*
X16818Y-931713D01*
X156268Y-931713D01*
X156268Y-996713D01*
X16818Y-996713D01*
G37*
G36*
X182712Y-996713D02*
X182712Y-931713D01*
X322162Y-931713D01*
X322162Y-996713D01*
X182712Y-996713D01*
G37*
G36*
X347812Y-996713D02*
X347812Y-931713D01*
X487262Y-931713D01*
X487262Y-996713D01*
X347812Y-996713D01*
G37*
G36*
X512912Y-996713D02*
X512912Y-931713D01*
X652362Y-931713D01*
X652362Y-996713D01*
X512912Y-996713D01*
G37*
G36*
X678012Y-996713D02*
X678012Y-931713D01*
X817462Y-931713D01*
X817462Y-996713D01*
X678012Y-996713D01*
G37*
G36*
X843112Y-996713D02*
X843112Y-931713D01*
X982562Y-931713D01*
X982562Y-996713D01*
X843112Y-996713D01*
G37*
G54D38*
X3175Y-817166D02*
X997347Y-817166D01*
G54D38*
X3175Y-690959D02*
X554434Y-690959D01*
G36*
X842921Y-797169D02*
X842921Y-732169D01*
X982372Y-732169D01*
X982372Y-797169D01*
X842921Y-797169D01*
G37*
G36*
X677424Y-797963D02*
X677424Y-732963D01*
X816875Y-732963D01*
X816875Y-797963D01*
X677424Y-797963D01*
G37*
G36*
X844112Y-599922D02*
X844112Y-534922D01*
X983562Y-534922D01*
X983562Y-599922D01*
X844112Y-599922D01*
G37*
G36*
X677593Y-600569D02*
X677593Y-535569D01*
X817043Y-535569D01*
X817043Y-600569D01*
X677593Y-600569D01*
G37*
G36*
X843318Y-403866D02*
X843318Y-338866D01*
X982768Y-338866D01*
X982768Y-403866D01*
X843318Y-403866D01*
G37*
G36*
X679012Y-403072D02*
X679012Y-338072D01*
X818462Y-338072D01*
X818462Y-403072D01*
X679012Y-403072D01*
G37*
G36*
X567092Y-798699D02*
X567093Y-720999D01*
X655742Y-720999D01*
X655743Y-798699D01*
X567092Y-798699D01*
G37*
G36*
X567092Y-576449D02*
X567093Y-498749D01*
X655742Y-498749D01*
X655743Y-576449D01*
X567092Y-576449D01*
G37*
G36*
X567092Y-341499D02*
X567093Y-263799D01*
X655742Y-263799D01*
X655743Y-341499D01*
X567092Y-341499D01*
G37*
G36*
X843318Y-194316D02*
X843318Y-129316D01*
X982768Y-129316D01*
X982768Y-194316D01*
X843318Y-194316D01*
G37*
G36*
X678012Y-196612D02*
X678012Y-131612D01*
X817462Y-131612D01*
X817462Y-196612D01*
X678012Y-196612D01*
G37*
G54D31*
X422222Y-259241D02*
X412375Y-259241D01*
X404209Y-251074D01*
%LPD*%
G54D50*
G36*
X445198Y-339429D02*
X432698Y-339430D01*
X432697Y-331163D01*
X445197Y-331162D01*
X445198Y-339429D01*
G37*
G36*
X445197Y-331162D02*
X457697Y-331161D01*
X457698Y-339428D01*
X445198Y-339429D01*
X445197Y-331162D01*
G37*
G54D51*
G36*
X348898Y-337347D02*
X337398Y-337347D01*
X337398Y-332364D01*
X348898Y-332364D01*
X348898Y-337347D01*
G37*
G36*
X351390Y-334856D02*
X351390Y-345856D01*
X346406Y-345856D01*
X346406Y-334856D01*
X351390Y-334856D01*
G37*
G54D52*
G36*
X445189Y-378348D02*
X456689Y-378348D01*
X456689Y-383015D01*
X445189Y-383014D01*
X445189Y-378348D01*
G37*
G36*
X447522Y-380681D02*
X447522Y-392181D01*
X442855Y-392181D01*
X442856Y-380681D01*
X447522Y-380681D01*
G37*
G36*
X445189Y-383014D02*
X433689Y-383014D01*
X433689Y-378347D01*
X445189Y-378348D01*
X445189Y-383014D01*
G37*
G36*
X442856Y-380681D02*
X442856Y-369181D01*
X447523Y-369181D01*
X447522Y-380681D01*
X442856Y-380681D01*
G37*
G54D53*
G36*
X505042Y-488011D02*
X515042Y-488011D01*
X515042Y-492344D01*
X505042Y-492344D01*
X505042Y-488011D01*
G37*
G36*
X505042Y-492344D02*
X495042Y-492344D01*
X495042Y-488011D01*
X505042Y-488011D01*
X505042Y-492344D01*
G37*
G54D54*
G36*
X299784Y-53213D02*
X299784Y-67713D01*
X296451Y-67713D01*
X296451Y-53213D01*
X299784Y-53213D01*
G37*
G36*
X296451Y-53213D02*
X296450Y-38713D01*
X299783Y-38713D01*
X299784Y-53213D01*
X296451Y-53213D01*
G37*
G54D18*
G36*
X157052Y-533927D02*
X157052Y-520927D01*
X162052Y-520927D01*
X162052Y-533927D01*
X157052Y-533927D01*
G37*
G36*
X162052Y-533927D02*
X162052Y-546927D01*
X157052Y-546927D01*
X157052Y-533927D01*
X162052Y-533927D01*
G37*
G54D55*
G36*
X506659Y-188392D02*
X493159Y-188392D01*
X493159Y-184672D01*
X506659Y-184672D01*
X506659Y-188392D01*
G37*
G36*
X506659Y-184672D02*
X520159Y-184672D01*
X520159Y-188392D01*
X506659Y-188392D01*
X506659Y-184672D01*
G37*
G54D56*
G36*
X457237Y-528636D02*
X457237Y-541636D01*
X453987Y-541636D01*
X453987Y-528636D01*
X457237Y-528636D01*
G37*
G36*
X455612Y-530261D02*
X443612Y-530261D01*
X443612Y-527011D01*
X455612Y-527011D01*
X455612Y-530261D01*
G37*
G36*
X453987Y-528636D02*
X453987Y-515636D01*
X457237Y-515636D01*
X457237Y-528636D01*
X453987Y-528636D01*
G37*
G54D57*
G36*
X341265Y-530178D02*
X341265Y-519678D01*
X344308Y-519678D01*
X344308Y-530178D01*
X341265Y-530178D01*
G37*
G36*
X342786Y-528656D02*
X352786Y-528656D01*
X352786Y-531699D01*
X342786Y-531699D01*
X342786Y-528656D01*
G37*
G36*
X344308Y-530178D02*
X344308Y-540678D01*
X341265Y-540678D01*
X341265Y-530178D01*
X344308Y-530178D01*
G37*
G54D56*
G36*
X457237Y-528636D02*
X457237Y-541636D01*
X453987Y-541636D01*
X453987Y-528636D01*
X457237Y-528636D01*
G37*
G36*
X455612Y-530261D02*
X443612Y-530261D01*
X443612Y-527011D01*
X455612Y-527011D01*
X455612Y-530261D01*
G37*
G36*
X453987Y-528636D02*
X453987Y-515636D01*
X457237Y-515636D01*
X457237Y-528636D01*
X453987Y-528636D01*
G37*
X39552Y-654101D02*
G54D58*
D03*
X65052Y-654101D02*
G54D58*
D03*
X90552Y-654101D02*
G54D58*
D03*
X116052Y-654101D02*
G54D58*
D03*
X141552Y-654101D02*
G54D58*
D03*
X167052Y-654101D02*
G54D58*
D03*
X192552Y-654101D02*
G54D58*
D03*
X218052Y-654101D02*
G54D58*
D03*
X243552Y-654101D02*
G54D58*
D03*
X269052Y-654101D02*
G54D58*
D03*
X294552Y-654101D02*
G54D58*
D03*
X320052Y-654101D02*
G54D58*
D03*
X345552Y-654101D02*
G54D58*
D03*
X371052Y-654101D02*
G54D58*
D03*
X396552Y-654101D02*
G54D58*
D03*
X422052Y-654101D02*
G54D58*
D03*
X447552Y-654102D02*
G54D58*
D03*
X473052Y-654101D02*
G54D58*
D03*
X498552Y-654101D02*
G54D58*
D03*
X524052Y-654101D02*
G54D58*
D03*
X39552Y-611825D02*
G54D58*
D03*
X65052Y-611826D02*
G54D58*
D03*
X90553Y-611825D02*
G54D59*
D03*
X116052Y-611826D02*
G54D58*
D03*
X141552Y-611826D02*
G54D58*
D03*
X167052Y-611826D02*
G54D58*
D03*
X192552Y-611826D02*
G54D58*
D03*
X218052Y-611826D02*
G54D58*
D03*
X243552Y-611826D02*
G54D58*
D03*
X269052Y-611826D02*
G54D58*
D03*
X294552Y-611826D02*
G54D58*
D03*
X320052Y-611826D02*
G54D58*
D03*
X345552Y-611826D02*
G54D58*
D03*
X371052Y-611826D02*
G54D58*
D03*
X396552Y-611826D02*
G54D58*
D03*
X422052Y-611826D02*
G54D58*
D03*
X447552Y-611826D02*
G54D58*
D03*
X473052Y-611826D02*
G54D58*
D03*
X498552Y-611826D02*
G54D58*
D03*
X524052Y-611826D02*
G54D58*
D03*
X52302Y-631826D02*
G54D58*
D03*
X77802Y-631826D02*
G54D58*
D03*
X103302Y-631826D02*
G54D58*
D03*
X154302Y-631826D02*
G54D58*
D03*
X179802Y-631826D02*
G54D58*
D03*
X205302Y-631826D02*
G54D58*
D03*
X256302Y-631826D02*
G54D58*
D03*
X281802Y-631826D02*
G54D58*
D03*
X307302Y-631826D02*
G54D58*
D03*
X358302Y-631826D02*
G54D58*
D03*
X383802Y-631826D02*
G54D58*
D03*
X409302Y-631826D02*
G54D58*
D03*
X460302Y-631826D02*
G54D58*
D03*
X485802Y-631826D02*
G54D58*
D03*
X511302Y-631826D02*
G54D58*
D03*
X52302Y-591825D02*
G54D58*
D03*
X77802Y-591825D02*
G54D58*
D03*
X103302Y-591826D02*
G54D58*
D03*
X154302Y-591826D02*
G54D58*
D03*
X179802Y-591826D02*
G54D58*
D03*
X205302Y-591826D02*
G54D58*
D03*
X256302Y-591826D02*
G54D58*
D03*
X281802Y-591826D02*
G54D58*
D03*
X307302Y-591826D02*
G54D58*
D03*
X358302Y-591826D02*
G54D58*
D03*
X383802Y-591826D02*
G54D58*
D03*
X409302Y-591826D02*
G54D58*
D03*
X460302Y-591826D02*
G54D58*
D03*
X485802Y-591826D02*
G54D58*
D03*
X511302Y-591826D02*
G54D58*
D03*
G54D39*
X179802Y-591826D02*
X179802Y-576698D01*
G54D39*
X281802Y-591826D02*
X281802Y-576698D01*
G54D39*
X485802Y-591826D02*
X485802Y-576698D01*
G54D39*
X383802Y-591826D02*
X383802Y-576698D01*
G54D39*
X485802Y-576698D02*
X92930Y-576698D01*
X77802Y-591826D01*
X473189Y-335303D02*
G54D60*
D03*
X445197Y-335296D02*
G54D60*
D03*
X374672Y-289740D02*
G54D61*
D03*
X374674Y-299145D02*
G54D61*
D03*
X374672Y-308740D02*
G54D61*
D03*
X400571Y-308740D02*
G54D61*
D03*
X400572Y-289740D02*
G54D61*
D03*
G54D62*
X374671Y-308740D02*
X363411Y-308740D01*
X361272Y-306601D01*
X361272Y-293504D01*
X365037Y-289740D01*
X374672Y-289740D01*
X430792Y-310225D02*
G54D63*
D03*
X430792Y-287225D02*
G54D63*
D03*
G54D62*
X400572Y-289740D02*
X436611Y-289740D01*
X438730Y-287622D01*
G54D62*
X400571Y-308740D02*
X436848Y-308740D01*
X438730Y-310622D01*
G54D64*
X445189Y-380681D02*
X445193Y-344823D01*
X398620Y-333348D02*
G54D65*
D03*
X370620Y-333348D02*
G54D65*
D03*
X348898Y-334856D02*
G54D66*
D03*
X348900Y-315851D02*
G54D66*
D03*
X422222Y-237667D02*
G54D66*
D03*
X422222Y-259241D02*
G54D66*
D03*
X417493Y-329657D02*
G54D58*
D03*
X445189Y-380681D02*
G54D67*
D03*
X501759Y-343012D02*
G54D68*
D03*
X244872Y-355434D02*
G54D58*
D03*
X259164Y-348064D02*
G54D58*
D03*
X246440Y-370932D02*
G54D58*
D03*
X505042Y-490177D02*
G54D58*
D03*
G36*
X509096Y-541804D02*
X509096Y-517804D01*
X533096Y-517804D01*
X533096Y-541804D01*
X509096Y-541804D01*
G37*
X250967Y-184291D02*
G54D69*
D03*
X244336Y-127264D02*
G54D69*
D03*
X193536Y-133217D02*
G54D69*
D03*
X204649Y-210608D02*
G54D69*
D03*
X225885Y-53213D02*
G54D70*
D03*
X240964Y-53212D02*
G54D70*
D03*
X255252Y-53211D02*
G54D70*
D03*
X269539Y-53212D02*
G54D70*
D03*
X283827Y-53212D02*
G54D70*
D03*
X298117Y-53213D02*
G54D70*
D03*
X312402Y-53212D02*
G54D70*
D03*
X326689Y-53212D02*
G54D70*
D03*
X298117Y-73593D02*
G54D71*
D03*
X315117Y-73593D02*
G54D71*
D03*
G54D39*
X298117Y-53213D02*
X298117Y-86293D01*
G54D39*
X312402Y-53212D02*
X312402Y-73259D01*
X315117Y-75974D01*
X234156Y-342337D02*
G54D58*
D03*
X159552Y-533927D02*
G54D59*
D03*
X180197Y-533933D02*
G54D59*
D03*
X199247Y-533933D02*
G54D59*
D03*
X199244Y-421093D02*
G54D59*
D03*
G36*
X279262Y-515852D02*
X279262Y-541852D01*
X253262Y-541852D01*
X253262Y-515852D01*
X279262Y-515852D01*
G37*
X506659Y-186532D02*
G54D72*
D03*
X506657Y-161132D02*
G54D72*
D03*
X273308Y-423332D02*
G54D69*
D03*
X148959Y-47484D02*
G54D68*
D03*
X325350Y-455508D02*
G54D73*
D03*
X325349Y-468208D02*
G54D73*
D03*
X325350Y-480908D02*
G54D73*
D03*
X325349Y-493608D02*
G54D73*
D03*
X268350Y-493608D02*
G54D73*
D03*
X268350Y-480908D02*
G54D73*
D03*
X268350Y-468208D02*
G54D73*
D03*
X268350Y-455508D02*
G54D73*
D03*
X345818Y-478924D02*
G54D74*
D03*
X345818Y-495924D02*
G54D74*
D03*
X345818Y-454780D02*
G54D74*
D03*
X345817Y-471780D02*
G54D74*
D03*
X364783Y-492114D02*
G54D74*
D03*
X364783Y-475114D02*
G54D74*
D03*
G54D39*
X345818Y-497114D02*
X345818Y-508950D01*
X137319Y-435769D02*
G54D58*
D03*
X455612Y-528636D02*
G54D75*
D03*
X102652Y-308239D02*
G54D69*
D03*
X159556Y-421094D02*
G54D58*
D03*
X219881Y-421094D02*
G54D58*
D03*
X238931Y-421094D02*
G54D58*
D03*
G36*
X123090Y-368555D02*
X128748Y-362899D01*
X145717Y-379871D01*
X140059Y-385527D01*
X123090Y-368555D01*
G37*
G36*
X132070Y-359575D02*
X137727Y-353918D01*
X154697Y-370890D01*
X149040Y-376547D01*
X132070Y-359575D01*
G37*
G36*
X141051Y-350594D02*
X146708Y-344938D01*
X163677Y-361911D01*
X158019Y-367567D01*
X141051Y-350594D01*
G37*
G36*
X150030Y-341616D02*
X155687Y-335959D01*
X172658Y-352928D01*
X167002Y-358586D01*
X150030Y-341616D01*
G37*
G36*
X185386Y-376971D02*
X191042Y-371314D01*
X208013Y-388284D01*
X202357Y-393941D01*
X185386Y-376971D01*
G37*
G36*
X176405Y-385951D02*
X182062Y-380294D01*
X199033Y-397265D01*
X193376Y-402922D01*
X176405Y-385951D01*
G37*
G36*
X167425Y-394932D02*
X173082Y-389274D01*
X190053Y-406245D01*
X184396Y-411902D01*
X167425Y-394932D01*
G37*
G36*
X158445Y-403911D02*
X164102Y-398254D01*
X181072Y-415226D01*
X175415Y-420882D01*
X158445Y-403911D01*
G37*
G54D39*
X199244Y-436178D02*
X199244Y-421093D01*
X123143Y-344992D01*
G54D39*
X175679Y-340817D02*
X116850Y-399645D01*
X239574Y-224498D02*
G54D69*
D03*
X172628Y-199761D02*
G54D69*
D03*
X159008Y-233626D02*
G54D69*
D03*
X142736Y-100673D02*
G54D69*
D03*
X483255Y-376104D02*
G54D69*
D03*
X398800Y-432064D02*
G54D69*
D03*
G54D62*
X374674Y-299145D02*
X387834Y-299145D01*
X231699Y-513150D02*
G54D71*
D03*
X214697Y-513147D02*
G54D71*
D03*
X475453Y-528638D02*
G54D75*
D03*
X80824Y-483261D02*
G54D69*
D03*
X151467Y-509851D02*
G54D69*
D03*
X97492Y-456670D02*
G54D69*
D03*
X403483Y-85195D02*
G54D69*
D03*
X487558Y-460199D02*
G54D76*
D03*
X436758Y-485599D02*
G54D76*
D03*
X436758Y-434798D02*
G54D76*
D03*
X436758Y-409399D02*
G54D76*
D03*
X436758Y-510999D02*
G54D76*
D03*
G54D39*
X487577Y-441571D02*
X487577Y-477661D01*
G54D39*
X505039Y-460199D02*
X470095Y-460199D01*
G54D18*
X409770Y-485599D02*
X452658Y-485599D01*
X475453Y-508394D01*
X475453Y-530225D01*
G54D39*
X327291Y-506711D02*
X327291Y-495550D01*
X325349Y-493608D01*
X275292Y-220529D02*
G54D69*
D03*
X501033Y-233343D02*
G54D77*
D03*
X501033Y-239843D02*
G54D77*
D03*
X501033Y-246343D02*
G54D77*
D03*
X501033Y-252843D02*
G54D77*
D03*
X501033Y-259343D02*
G54D77*
D03*
X527783Y-283843D02*
G54D78*
D03*
X527783Y-208843D02*
G54D78*
D03*
X400458Y-219430D02*
G54D79*
D03*
X422222Y-199170D02*
G54D66*
D03*
X422222Y-220744D02*
G54D66*
D03*
X442859Y-226872D02*
G54D66*
D03*
X442859Y-248446D02*
G54D66*
D03*
X442859Y-188375D02*
G54D66*
D03*
X442859Y-209949D02*
G54D66*
D03*
G54D18*
X422222Y-237667D02*
X422221Y-220744D01*
G54D39*
X442859Y-226872D02*
X442859Y-209949D01*
G54D80*
X409165Y-208738D02*
X410368Y-209942D01*
X440002Y-209944D01*
G36*
X499037Y-221366D02*
X495381Y-225022D01*
X490193Y-225022D01*
X486537Y-221366D01*
X486537Y-216178D01*
X490193Y-212522D01*
X495381Y-212522D01*
X499037Y-216178D01*
X499037Y-221366D01*
G37*
G54D18*
X527783Y-208843D02*
X527783Y-283843D01*
G54D39*
X516114Y-259343D02*
X480335Y-259343D01*
G54D80*
X501033Y-252843D02*
X471851Y-252843D01*
X404209Y-251074D02*
G54D79*
D03*
G36*
X365442Y-397916D02*
X369244Y-401718D01*
X369244Y-407114D01*
X365442Y-410916D01*
X360046Y-410916D01*
X356244Y-407114D01*
X356244Y-401718D01*
X360046Y-397916D01*
X365442Y-397916D01*
G37*
G36*
X352742Y-385216D02*
X356544Y-389018D01*
X356544Y-394414D01*
X352742Y-398216D01*
X347346Y-398216D01*
X343544Y-394414D01*
X343544Y-389018D01*
X347346Y-385216D01*
X352742Y-385216D01*
G37*
G36*
X385412Y-416172D02*
X389214Y-419974D01*
X389214Y-425370D01*
X385412Y-429172D01*
X380016Y-429172D01*
X376214Y-425370D01*
X376214Y-419974D01*
X380016Y-416172D01*
X385412Y-416172D01*
G37*
G54D64*
X473184Y-366824D02*
X473189Y-344828D01*
X418564Y-349911D02*
G54D69*
D03*
G54D80*
X422222Y-237667D02*
X459123Y-237667D01*
X467799Y-246343D01*
X501033Y-246343D01*
G54D80*
X501033Y-239843D02*
X474396Y-239843D01*
X461425Y-226872D01*
X442859Y-226872D01*
X463497Y-188375D02*
G54D66*
D03*
X463496Y-209949D02*
G54D66*
D03*
G54D39*
X501033Y-233343D02*
X478215Y-233343D01*
X463496Y-218624D01*
X463496Y-209949D01*
G54D18*
X527783Y-208843D02*
X500149Y-208843D01*
X488950Y-197644D01*
X481806Y-197644D01*
X474522Y-190359D01*
X463497Y-190359D01*
G54D18*
X463497Y-188851D02*
X442859Y-188851D01*
X483956Y-280359D02*
G54D74*
D03*
X483956Y-263359D02*
G54D74*
D03*
X465700Y-280359D02*
G54D74*
D03*
X465700Y-263359D02*
G54D74*
D03*
G54D39*
X483956Y-263359D02*
X465700Y-263359D01*
X450619Y-263359D01*
G54D39*
X465700Y-280359D02*
X524299Y-280359D01*
X527783Y-283843D01*
G54D80*
X465700Y-263359D02*
X465700Y-258994D01*
X471851Y-252843D01*
X386987Y-232900D02*
G54D79*
D03*
G54D18*
X416302Y-329657D02*
X397827Y-329657D01*
X398721Y-267758D02*
G54D69*
D03*
G54D18*
X368636Y-337197D02*
X368636Y-327361D01*
X359904Y-318629D01*
X347312Y-318629D01*
G54D62*
X349297Y-317042D02*
X349297Y-304753D01*
X354806Y-299244D01*
X360759Y-299244D01*
G54D64*
X473189Y-335303D02*
X473189Y-324758D01*
X457466Y-309034D01*
X435158Y-309034D01*
X498336Y-322923D02*
G54D69*
D03*
G54D18*
X345817Y-455970D02*
X354767Y-455970D01*
X364783Y-465986D01*
X364783Y-475114D01*
G54D39*
X219881Y-421094D02*
X219881Y-417922D01*
X209153Y-407194D01*
X203305Y-407194D01*
X187719Y-391608D01*
G54D39*
X238931Y-421094D02*
X238931Y-418318D01*
X225425Y-404812D01*
X218884Y-404812D01*
X196699Y-382628D01*
G54D18*
X159556Y-421094D02*
X159556Y-419771D01*
X169759Y-409568D01*
X308197Y-530178D02*
G54D59*
D03*
X216952Y-486436D02*
G54D69*
D03*
X406595Y-485599D02*
G54D79*
D03*
X406747Y-510999D02*
G54D79*
D03*
X122706Y-161528D02*
G54D81*
D03*
X122702Y-175812D02*
G54D81*
D03*
G54D82*
X155000Y-185085D02*
X155000Y-153335D01*
X160000Y-185085D02*
X160000Y-153335D01*
X165000Y-185085D02*
X165000Y-153335D01*
X170000Y-185085D02*
X170000Y-153335D01*
X175000Y-185085D02*
X175000Y-153335D01*
X180000Y-185085D02*
X180000Y-153335D01*
X185000Y-185085D02*
X185000Y-153335D01*
X190000Y-185085D02*
X190000Y-153335D01*
X195000Y-185085D02*
X195000Y-153335D01*
X200000Y-185085D02*
X200000Y-153335D01*
X205000Y-185085D02*
X205000Y-153335D01*
X210000Y-185085D02*
X210000Y-153335D01*
X215000Y-185085D02*
X215000Y-153335D01*
X220000Y-185085D02*
X220000Y-153335D01*
X225000Y-185085D02*
X225000Y-153335D01*
X230000Y-185085D02*
X230000Y-153335D01*
X235000Y-185085D02*
X235000Y-153335D01*
X153411Y-185000D02*
X235961Y-185000D01*
X153411Y-180000D02*
X235961Y-180000D01*
X153411Y-175000D02*
X235961Y-175000D01*
X153411Y-170000D02*
X235961Y-170000D01*
X153411Y-165000D02*
X235961Y-165000D01*
X153411Y-160000D02*
X235961Y-160000D01*
X153411Y-155000D02*
X235961Y-155000D01*
G54D18*
X153411Y-153335D02*
X235961Y-153335D01*
X235961Y-185085D01*
X153411Y-185085D01*
X153411Y-153335D01*
G54D83*
X140853Y-175021D02*
X122706Y-175021D01*
G54D83*
X140853Y-162321D02*
X122706Y-162321D01*
G54D84*
X153411Y-153335D02*
X153411Y-139329D01*
G54D84*
X235961Y-153335D02*
X235961Y-139330D01*
G54D84*
X153411Y-195328D02*
X153411Y-185085D01*
G54D84*
X235961Y-196122D02*
X235961Y-185085D01*
G54D84*
X235961Y-153335D02*
X250967Y-153335D01*
G54D84*
X235961Y-185085D02*
X250967Y-185085D01*
X386100Y-486039D02*
G54D69*
D03*
X362287Y-525726D02*
G54D69*
D03*
X64155Y-155045D02*
G54D69*
D03*
G54D18*
X246125Y-493608D02*
X285457Y-493608D01*
X285480Y-440531D02*
G54D58*
D03*
X403562Y-413014D02*
G54D69*
D03*
X455156Y-420158D02*
G54D69*
D03*
X457934Y-476117D02*
G54D69*
D03*
X379671Y-255058D02*
G54D69*
D03*
X180197Y-513144D02*
G54D71*
D03*
X197199Y-513147D02*
G54D71*
D03*
G54D18*
X180197Y-533933D02*
X180197Y-511556D01*
G54D18*
X197199Y-513147D02*
X214697Y-513147D01*
X184805Y-463020D02*
G54D69*
D03*
X383778Y-147241D02*
G54D79*
D03*
X370200Y-160025D02*
G54D79*
D03*
X396478Y-159147D02*
G54D79*
D03*
X403622Y-174228D02*
G54D79*
D03*
X422275Y-163116D02*
G54D79*
D03*
G54D39*
G75*
G01X396278Y-147241D02*
G03X374939Y-138402I-12500J0D01*
G01*
G54D39*
X370200Y-160025D02*
X367422Y-157247D01*
X308456Y-157247D01*
X240964Y-89755D01*
X240964Y-53212D01*
G54D39*
X383778Y-147241D02*
X310356Y-146844D01*
X255252Y-91739D01*
X255252Y-53211D01*
G54D39*
X396278Y-147241D02*
X396278Y-158947D01*
X396478Y-159147D01*
G54D39*
X374939Y-138402D02*
X314614Y-138402D01*
X269539Y-93327D01*
X269539Y-53212D01*
G54D39*
G75*
G01X404416Y-147241D02*
G03X373459Y-129368I-20638J0D01*
G01*
G54D39*
X373459Y-129368D02*
X317533Y-129368D01*
X283827Y-95661D01*
X283827Y-53212D01*
G54D39*
X403622Y-174228D02*
X409575Y-168275D01*
X409575Y-152400D01*
X404416Y-147241D01*
X310614Y-101864D02*
G54D69*
D03*
G54D39*
G75*
G01X409165Y-208738D02*
G03X388143Y-217446I-8708J-8708D01*
G01*
G54D39*
X388144Y-217445D02*
X388144Y-231744D01*
X386987Y-232900D01*
X292358Y-541204D02*
G54D69*
D03*
X99477Y-51858D02*
G54D69*
D03*
X474127Y-125280D02*
G54D85*
D03*
X265265Y-259230D02*
G54D86*
D03*
X265265Y-271930D02*
G54D86*
D03*
X265264Y-284630D02*
G54D86*
D03*
X265265Y-297330D02*
G54D86*
D03*
X215264Y-297330D02*
G54D86*
D03*
X215264Y-284630D02*
G54D86*
D03*
X215265Y-271930D02*
G54D86*
D03*
X215265Y-259230D02*
G54D86*
D03*
G54D39*
X215265Y-259230D02*
X215265Y-271930D01*
G54D39*
X265265Y-317485D02*
X265265Y-297330D01*
G54D39*
G75*
G01X411695Y-139773D02*
G03X376239Y-119302I-27964J-7493D01*
G01*
G54D39*
X326689Y-53212D02*
X326689Y-101264D01*
X344727Y-119302D01*
X376239Y-119302D01*
G54D39*
X422275Y-163116D02*
X422275Y-150353D01*
X411695Y-139773D01*
G54D18*
X422221Y-259241D02*
X432064Y-259241D01*
X442859Y-248446D01*
G54D18*
X442859Y-188375D02*
X433017Y-188375D01*
X422222Y-199170D01*
X359827Y-349911D02*
G54D69*
D03*
X269736Y-327686D02*
G54D69*
D03*
X314186Y-366182D02*
G54D69*
D03*
X325787Y-530177D02*
G54D71*
D03*
X342786Y-530178D02*
G54D71*
D03*
G54D18*
X308197Y-530177D02*
X325787Y-530177D01*
G54D39*
X234156Y-342337D02*
X234156Y-265906D01*
X240109Y-259953D01*
G54D39*
X266058Y-259230D02*
X240832Y-259230D01*
X240109Y-259953D01*
G54D39*
X220821Y-348614D02*
X228850Y-356644D01*
X243662Y-356644D01*
X244872Y-355434D01*
G54D39*
X259164Y-348064D02*
X244475Y-333375D01*
X244475Y-280194D01*
X252738Y-271930D01*
X265265Y-271930D01*
G54D39*
X334300Y-401638D02*
X285353Y-401638D01*
X254647Y-370932D01*
X246043Y-370932D01*
G54D39*
X362744Y-404416D02*
X362744Y-386159D01*
X356394Y-379809D01*
X342305Y-379809D01*
X340221Y-381893D01*
X292993Y-381893D01*
X259164Y-348064D01*
G54D39*
X350044Y-391716D02*
X290116Y-391716D01*
X260747Y-362347D01*
X244872Y-355434D01*
G54D18*
X225885Y-77057D02*
X225885Y-87772D01*
X265112Y-127000D01*
X276880Y-144726D02*
G54D69*
D03*
X61774Y-370548D02*
G54D69*
D03*
G54D64*
X466263Y-357307D02*
X487464Y-357307D01*
X501759Y-343012D01*
G54D39*
X334300Y-401638D02*
X341312Y-401638D01*
X357584Y-417909D01*
X377952Y-417909D01*
X382714Y-422672D01*
G54D18*
X406747Y-510999D02*
X372555Y-510999D01*
X364783Y-503227D01*
X364783Y-492114D01*
X219622Y-449021D02*
G54D74*
D03*
X219625Y-432019D02*
G54D74*
D03*
X238672Y-449021D02*
G54D74*
D03*
X238675Y-432019D02*
G54D74*
D03*
G54D18*
X237482Y-449021D02*
X187483Y-449021D01*
X159556Y-421094D01*
X220921Y-390392D02*
G54D69*
D03*
G54D39*
X325350Y-455508D02*
X345355Y-455508D01*
X345817Y-455970D01*
G54D39*
X325349Y-468208D02*
X341055Y-468208D01*
X345817Y-472970D01*
G54D39*
X325349Y-493608D02*
X342311Y-493608D01*
X345817Y-497114D01*
G54D39*
X325350Y-480908D02*
X313239Y-480908D01*
X289322Y-504825D01*
X240024Y-504825D01*
X231699Y-513150D01*
G54D39*
X240197Y-504147D02*
X233334Y-497284D01*
G54D18*
X269540Y-455508D02*
X270503Y-455508D01*
X285480Y-440531D01*
G54D18*
X268350Y-455508D02*
X245160Y-455508D01*
X238672Y-449021D01*
G54D39*
X233334Y-497284D02*
X198834Y-497284D01*
X137319Y-435769D01*
G54D18*
X285480Y-440531D02*
X287861Y-442912D01*
X358378Y-442912D01*
X369094Y-453628D01*
X455612Y-453628D01*
X473184Y-436056D01*
X473184Y-366824D01*
G36*
X444953Y-351307D02*
X455953Y-351306D01*
X455953Y-363306D01*
X444953Y-363307D01*
X444953Y-351307D01*
G37*
X467453Y-357306D02*
G54D71*
D03*
X395531Y-53166D02*
G54D87*
D03*
X400531Y-53166D02*
G54D87*
D03*
X405531Y-53166D02*
G54D87*
D03*
X410531Y-53166D02*
G54D87*
D03*
X415531Y-53166D02*
G54D87*
D03*
X420531Y-53166D02*
G54D87*
D03*
X425531Y-53166D02*
G54D87*
D03*
X430531Y-53166D02*
G54D87*
D03*
G54D39*
G75*
G01X99038Y-603339D02*
G03X82067Y-603339I-8485J-8486D01*
G01*
G54D39*
G75*
G01X116052Y-599827D02*
G03X107566Y-603341I0J-12000D01*
G01*
G54D39*
X99038Y-603339D02*
X107566Y-603341D01*
G54D39*
G75*
G01X73537Y-603341D02*
G03X61946Y-600236I-8485J-8486D01*
G01*
G54D39*
X73537Y-603341D02*
X82067Y-603339D01*
G54D39*
G75*
G01X82067Y-620310D02*
G03X99038Y-620310I8486J8485D01*
G01*
G54D39*
G75*
G01X107566Y-620308D02*
G03X124537Y-620308I8486J8485D01*
G01*
G54D39*
X99038Y-620310D02*
X107566Y-620308D01*
G54D39*
G75*
G01X54659Y-617823D02*
G03X73537Y-620308I10393J6000D01*
G01*
G54D39*
X73537Y-620308D02*
X82067Y-620310D01*
G54D39*
X61946Y-600236D02*
X60713Y-600236D01*
X52302Y-591825D01*
G54D39*
X116052Y-599827D02*
X146301Y-599827D01*
X154302Y-591826D01*
G54D39*
G75*
G01X201037Y-603341D02*
G03X184067Y-603341I-8485J-8485D01*
G01*
G54D39*
G75*
G01X218051Y-599828D02*
G03X209566Y-603343I0J-12000D01*
G01*
G54D39*
X201037Y-603341D02*
X209566Y-603343D01*
G54D39*
G75*
G01X175536Y-603343D02*
G03X163945Y-600237I-8485J-8485D01*
G01*
G54D39*
X175536Y-603343D02*
X184067Y-603341D01*
G54D39*
X163945Y-600237D02*
X162713Y-600237D01*
X154302Y-591826D01*
G54D39*
X218051Y-599828D02*
X248301Y-599828D01*
X256301Y-591828D01*
G54D39*
G75*
G01X303037Y-603341D02*
G03X286067Y-603341I-8485J-8485D01*
G01*
G54D39*
G75*
G01X320051Y-599828D02*
G03X311566Y-603343I0J-12000D01*
G01*
G54D39*
X303037Y-603341D02*
X311566Y-603343D01*
G54D39*
G75*
G01X277536Y-603343D02*
G03X265945Y-600237I-8485J-8485D01*
G01*
G54D39*
X277536Y-603343D02*
X286067Y-603341D01*
G54D39*
X265945Y-600237D02*
X264713Y-600237D01*
X256302Y-591826D01*
G54D39*
X320051Y-599828D02*
X350301Y-599828D01*
X358301Y-591828D01*
G54D39*
G75*
G01X405037Y-603341D02*
G03X388067Y-603341I-8485J-8485D01*
G01*
G54D39*
G75*
G01X422051Y-599828D02*
G03X413566Y-603343I0J-12000D01*
G01*
G54D39*
X405037Y-603341D02*
X413566Y-603343D01*
G54D39*
G75*
G01X379536Y-603343D02*
G03X367945Y-600237I-8485J-8485D01*
G01*
G54D39*
X379536Y-603343D02*
X388067Y-603341D01*
G54D39*
X367945Y-600237D02*
X366713Y-600237D01*
X358302Y-591826D01*
G54D39*
X422051Y-599828D02*
X452301Y-599828D01*
X460301Y-591828D01*
G54D39*
X124537Y-620308D02*
X133070Y-620308D01*
X141552Y-611826D01*
G54D39*
X54659Y-617823D02*
X45550Y-617823D01*
X39552Y-611825D01*
G54D39*
G75*
G01X184067Y-620311D02*
G03X201037Y-620311I8485J8485D01*
G01*
G54D39*
G75*
G01X209566Y-620309D02*
G03X226536Y-620309I8485J8485D01*
G01*
G54D39*
X201037Y-620311D02*
X209566Y-620309D01*
G54D39*
G75*
G01X156659Y-617824D02*
G03X175536Y-620309I10392J6000D01*
G01*
G54D39*
X175536Y-620309D02*
X184067Y-620311D01*
G54D39*
X226536Y-620309D02*
X235069Y-620309D01*
X243551Y-611828D01*
G54D39*
X156659Y-617824D02*
X147550Y-617824D01*
X141552Y-611826D01*
G54D39*
G75*
G01X286067Y-620311D02*
G03X303037Y-620311I8485J8485D01*
G01*
G54D39*
G75*
G01X311566Y-620309D02*
G03X328536Y-620309I8485J8485D01*
G01*
G54D39*
X303037Y-620311D02*
X311566Y-620309D01*
G54D39*
G75*
G01X258659Y-617824D02*
G03X277536Y-620309I10392J6000D01*
G01*
G54D39*
X277536Y-620309D02*
X286067Y-620311D01*
G54D39*
X328536Y-620309D02*
X337070Y-620309D01*
X345551Y-611828D01*
G54D39*
X258659Y-617824D02*
X249550Y-617824D01*
X243552Y-611826D01*
G54D39*
G75*
G01X388067Y-620311D02*
G03X405037Y-620311I8485J8485D01*
G01*
G54D39*
G75*
G01X413566Y-620309D02*
G03X430536Y-620309I8485J8485D01*
G01*
G54D39*
X405037Y-620311D02*
X413566Y-620309D01*
G54D39*
G75*
G01X360659Y-617824D02*
G03X379536Y-620309I10392J6000D01*
G01*
G54D39*
X379536Y-620309D02*
X388067Y-620311D01*
G54D39*
X430536Y-620309D02*
X439069Y-620309D01*
X447551Y-611828D01*
G54D39*
X360659Y-617824D02*
X351550Y-617824D01*
X345552Y-611826D01*
X141546Y-669792D02*
G54D69*
D03*
X345539Y-670982D02*
G54D69*
D03*
X447536Y-671776D02*
G54D69*
D03*
X52249Y-667808D02*
G54D69*
D03*
G54D18*
X225885Y-53213D02*
X225885Y-77057D01*
G54D18*
X225885Y-53213D02*
X154688Y-53213D01*
X148959Y-47484D01*
X524927Y-339592D02*
G54D69*
D03*
G54D18*
X422222Y-220744D02*
X401772Y-220744D01*
X400458Y-219430D01*
X455612Y-528636D02*
G54D75*
D03*
X475453Y-528638D02*
G54D75*
D03*
G54D18*
X406595Y-485599D02*
X452658Y-485599D01*
X475453Y-508394D01*
X475453Y-530225D01*
G54D18*
X265112Y-245666D02*
X265112Y-127000D01*
G54D39*
X463496Y-209949D02*
X483963Y-209949D01*
X492787Y-218772D01*
X238941Y-533927D02*
G54D59*
D03*
X505043Y-510178D02*
G54D58*
D03*
G54D39*
X220821Y-348614D02*
X220821Y-302887D01*
X215264Y-297330D01*
G54D39*
X246043Y-370932D02*
X243662Y-368550D01*
X227057Y-368550D01*
X212328Y-353821D01*
X212328Y-329803D01*
X184944Y-302419D01*
X184944Y-291306D01*
X191620Y-284630D01*
X204152Y-284630D01*
G54D64*
X505043Y-510178D02*
X515338Y-510178D01*
X521098Y-515938D01*
X521097Y-529804D01*
G54D64*
X238941Y-533927D02*
X261187Y-533927D01*
X266262Y-528852D01*
X270027Y-259230D02*
G54D88*
D03*
X215265Y-259230D02*
G54D89*
D03*
X270027Y-271930D02*
G54D88*
D03*
X270027Y-284630D02*
G54D88*
D03*
X270027Y-297330D02*
G54D88*
D03*
X210502Y-297330D02*
G54D88*
D03*
X210502Y-284630D02*
G54D88*
D03*
X210502Y-271930D02*
G54D88*
D03*
X210502Y-259230D02*
G54D88*
D03*
G54D39*
X215265Y-259230D02*
X215265Y-247492D01*
X216297Y-246459D01*
X288925Y-246459D01*
X292497Y-250031D01*
X292497Y-281781D01*
X290045Y-284630D01*
X273996Y-284630D01*
X39552Y-781101D02*
G54D58*
D03*
X65052Y-781101D02*
G54D58*
D03*
X90552Y-781101D02*
G54D58*
D03*
X116052Y-781101D02*
G54D58*
D03*
X141552Y-781101D02*
G54D58*
D03*
X167052Y-781101D02*
G54D58*
D03*
X192552Y-781101D02*
G54D58*
D03*
X218052Y-781101D02*
G54D58*
D03*
X243552Y-781101D02*
G54D58*
D03*
X269052Y-781101D02*
G54D58*
D03*
X294552Y-781101D02*
G54D58*
D03*
X320052Y-781101D02*
G54D58*
D03*
X345552Y-781101D02*
G54D58*
D03*
X371052Y-781101D02*
G54D58*
D03*
X396552Y-781101D02*
G54D58*
D03*
X422052Y-781101D02*
G54D58*
D03*
X447552Y-781102D02*
G54D58*
D03*
X473052Y-781101D02*
G54D58*
D03*
X498552Y-781101D02*
G54D58*
D03*
X524052Y-781101D02*
G54D58*
D03*
X39552Y-738825D02*
G54D58*
D03*
X65052Y-738826D02*
G54D58*
D03*
X90553Y-738825D02*
G54D59*
D03*
X116052Y-738826D02*
G54D58*
D03*
X141552Y-738826D02*
G54D58*
D03*
X167052Y-738826D02*
G54D58*
D03*
X192552Y-738826D02*
G54D58*
D03*
X218052Y-738826D02*
G54D58*
D03*
X243552Y-738826D02*
G54D58*
D03*
X269052Y-738826D02*
G54D58*
D03*
X294552Y-738826D02*
G54D58*
D03*
X320052Y-738826D02*
G54D58*
D03*
X345552Y-738826D02*
G54D58*
D03*
X371052Y-738826D02*
G54D58*
D03*
X396552Y-738826D02*
G54D58*
D03*
X422052Y-738826D02*
G54D58*
D03*
X447552Y-738826D02*
G54D58*
D03*
X473052Y-738826D02*
G54D58*
D03*
X498552Y-738826D02*
G54D58*
D03*
X524052Y-738826D02*
G54D58*
D03*
X52302Y-758826D02*
G54D58*
D03*
X77802Y-758826D02*
G54D58*
D03*
X103302Y-758826D02*
G54D58*
D03*
X154302Y-758826D02*
G54D58*
D03*
X179802Y-758826D02*
G54D58*
D03*
X205302Y-758826D02*
G54D58*
D03*
X256302Y-758826D02*
G54D58*
D03*
X281802Y-758826D02*
G54D58*
D03*
X307302Y-758826D02*
G54D58*
D03*
X358302Y-758826D02*
G54D58*
D03*
X383802Y-758826D02*
G54D58*
D03*
X409302Y-758826D02*
G54D58*
D03*
X460302Y-758826D02*
G54D58*
D03*
X485802Y-758826D02*
G54D58*
D03*
X511302Y-758826D02*
G54D58*
D03*
X52302Y-718825D02*
G54D58*
D03*
X77802Y-718825D02*
G54D58*
D03*
X103302Y-718826D02*
G54D58*
D03*
X154302Y-718826D02*
G54D58*
D03*
X179802Y-718826D02*
G54D58*
D03*
X205302Y-718826D02*
G54D58*
D03*
X256302Y-718826D02*
G54D58*
D03*
X281802Y-718826D02*
G54D58*
D03*
X307302Y-718826D02*
G54D58*
D03*
X358302Y-718826D02*
G54D58*
D03*
X383802Y-718826D02*
G54D58*
D03*
X409302Y-718826D02*
G54D58*
D03*
X460302Y-718826D02*
G54D58*
D03*
X485802Y-718826D02*
G54D58*
D03*
X511302Y-718826D02*
G54D58*
D03*
G54D39*
X179802Y-718826D02*
X179802Y-703698D01*
G54D39*
X281802Y-718826D02*
X281802Y-703698D01*
G54D39*
X485802Y-718826D02*
X485802Y-703698D01*
G54D39*
X383802Y-718826D02*
X383802Y-703698D01*
G54D39*
X485802Y-703698D02*
X92930Y-703698D01*
X77802Y-718826D01*
G54D39*
G75*
G01X99038Y-730339D02*
G03X82067Y-730339I-8485J-8486D01*
G01*
G54D39*
G75*
G01X116052Y-726827D02*
G03X107566Y-730341I0J-12000D01*
G01*
G54D39*
X99038Y-730339D02*
X107566Y-730341D01*
G54D39*
G75*
G01X73537Y-730341D02*
G03X61946Y-727236I-8485J-8486D01*
G01*
G54D39*
X73537Y-730341D02*
X82067Y-730339D01*
G54D39*
G75*
G01X82067Y-747310D02*
G03X99038Y-747310I8486J8485D01*
G01*
G54D39*
G75*
G01X107566Y-747308D02*
G03X124537Y-747308I8486J8485D01*
G01*
G54D39*
X99038Y-747310D02*
X107566Y-747308D01*
G54D39*
G75*
G01X54659Y-744823D02*
G03X73537Y-747308I10393J6000D01*
G01*
G54D39*
X73537Y-747308D02*
X82067Y-747310D01*
G54D39*
X61946Y-727236D02*
X60713Y-727236D01*
X52302Y-718825D01*
G54D39*
X116052Y-726827D02*
X146301Y-726827D01*
X154302Y-718826D01*
G54D39*
G75*
G01X201037Y-730341D02*
G03X184067Y-730341I-8485J-8485D01*
G01*
G54D39*
G75*
G01X218051Y-726828D02*
G03X209566Y-730343I0J-12000D01*
G01*
G54D39*
X201037Y-730341D02*
X209566Y-730343D01*
G54D39*
G75*
G01X175536Y-730343D02*
G03X163945Y-727237I-8485J-8485D01*
G01*
G54D39*
X175536Y-730343D02*
X184067Y-730341D01*
G54D39*
X163945Y-727237D02*
X162713Y-727237D01*
X154302Y-718826D01*
G54D39*
X218051Y-726828D02*
X248301Y-726828D01*
X256301Y-718828D01*
G54D39*
G75*
G01X303037Y-730341D02*
G03X286067Y-730341I-8485J-8485D01*
G01*
G54D39*
G75*
G01X320051Y-726828D02*
G03X311566Y-730343I0J-12000D01*
G01*
G54D39*
X303037Y-730341D02*
X311566Y-730343D01*
G54D39*
G75*
G01X277536Y-730343D02*
G03X265945Y-727237I-8485J-8485D01*
G01*
G54D39*
X277536Y-730343D02*
X286067Y-730341D01*
G54D39*
X265945Y-727237D02*
X264713Y-727237D01*
X256302Y-718826D01*
G54D39*
X320051Y-726828D02*
X350301Y-726828D01*
X358301Y-718828D01*
G54D39*
G75*
G01X405037Y-730341D02*
G03X388067Y-730341I-8485J-8485D01*
G01*
G54D39*
G75*
G01X422051Y-726828D02*
G03X413566Y-730343I0J-12000D01*
G01*
G54D39*
X405037Y-730341D02*
X413566Y-730343D01*
G54D39*
G75*
G01X379536Y-730343D02*
G03X367945Y-727237I-8485J-8485D01*
G01*
G54D39*
X379536Y-730343D02*
X388067Y-730341D01*
G54D39*
X367945Y-727237D02*
X366713Y-727237D01*
X358302Y-718826D01*
G54D39*
X422051Y-726828D02*
X452301Y-726828D01*
X460301Y-718828D01*
G54D39*
X124537Y-747308D02*
X133070Y-747308D01*
X141552Y-738826D01*
G54D39*
X54659Y-744823D02*
X45550Y-744823D01*
X39552Y-738825D01*
G54D39*
G75*
G01X184067Y-747311D02*
G03X201037Y-747311I8485J8485D01*
G01*
G54D39*
G75*
G01X209566Y-747309D02*
G03X226536Y-747309I8485J8485D01*
G01*
G54D39*
X201037Y-747311D02*
X209566Y-747309D01*
G54D39*
G75*
G01X156659Y-744824D02*
G03X175536Y-747309I10392J6000D01*
G01*
G54D39*
X175536Y-747309D02*
X184067Y-747311D01*
G54D39*
X226536Y-747309D02*
X235069Y-747309D01*
X243551Y-738828D01*
G54D39*
X156659Y-744824D02*
X147550Y-744824D01*
X141552Y-738826D01*
G54D39*
G75*
G01X286067Y-747311D02*
G03X303037Y-747311I8485J8485D01*
G01*
G54D39*
G75*
G01X311566Y-747309D02*
G03X328536Y-747309I8485J8485D01*
G01*
G54D39*
X303037Y-747311D02*
X311566Y-747309D01*
G54D39*
G75*
G01X258659Y-744824D02*
G03X277536Y-747309I10392J6000D01*
G01*
G54D39*
X277536Y-747309D02*
X286067Y-747311D01*
G54D39*
X328536Y-747309D02*
X337070Y-747309D01*
X345551Y-738828D01*
G54D39*
X258659Y-744824D02*
X249550Y-744824D01*
X243552Y-738826D01*
G54D39*
G75*
G01X388067Y-747311D02*
G03X405037Y-747311I8485J8485D01*
G01*
G54D39*
G75*
G01X413566Y-747309D02*
G03X430536Y-747309I8485J8485D01*
G01*
G54D39*
X405037Y-747311D02*
X413566Y-747309D01*
G54D39*
G75*
G01X360659Y-744824D02*
G03X379536Y-747309I10392J6000D01*
G01*
G54D39*
X379536Y-747309D02*
X388067Y-747311D01*
G54D39*
X430536Y-747309D02*
X439069Y-747309D01*
X447551Y-738828D01*
G54D39*
X360659Y-744824D02*
X351550Y-744824D01*
X345552Y-738826D01*
X141546Y-796792D02*
G54D69*
D03*
X345539Y-797983D02*
G54D69*
D03*
X447536Y-798776D02*
G54D69*
D03*
X52249Y-794808D02*
G54D69*
D03*
X976518Y-830687D02*
G54D69*
D03*
G54D39*
X976518Y-944295D02*
X976518Y-830687D01*
X811417Y-830687D02*
G54D90*
D03*
X684417Y-830687D02*
G54D90*
D03*
G54D18*
X811417Y-944295D02*
X811417Y-830687D01*
G54D18*
X684417Y-944295D02*
X684417Y-830687D01*
X316117Y-830687D02*
G54D90*
D03*
X189117Y-830687D02*
G54D90*
D03*
G54D18*
X316117Y-944295D02*
X316117Y-830687D01*
G54D18*
X189117Y-944295D02*
X189117Y-830687D01*
X481217Y-830687D02*
G54D90*
D03*
X354217Y-830687D02*
G54D90*
D03*
G54D18*
X481217Y-944295D02*
X481217Y-830687D01*
G54D18*
X354217Y-944295D02*
X354217Y-830687D01*
X976518Y-830687D02*
G54D90*
D03*
X849517Y-830687D02*
G54D90*
D03*
G54D18*
X976518Y-944295D02*
X976518Y-830687D01*
G54D18*
X849517Y-944295D02*
X849517Y-830687D01*
X646318Y-830687D02*
G54D90*
D03*
X519317Y-830687D02*
G54D90*
D03*
G54D91*
X137624Y-944295D02*
X137624Y-979695D01*
G54D91*
X124824Y-944295D02*
X124824Y-979695D01*
G54D91*
X112124Y-944295D02*
X112124Y-979695D01*
G54D91*
X99524Y-944295D02*
X99524Y-979695D01*
G54D91*
X74024Y-944295D02*
X74024Y-979695D01*
G54D91*
X150224Y-944295D02*
X150224Y-979695D01*
G54D91*
X61324Y-944295D02*
X61324Y-979695D01*
G54D91*
X48724Y-944295D02*
X48724Y-979695D01*
G54D91*
X35924Y-944295D02*
X35924Y-979695D01*
G54D91*
X23224Y-944295D02*
X23224Y-979695D01*
X150224Y-830687D02*
G54D90*
D03*
X23224Y-830687D02*
G54D90*
D03*
G54D18*
X150224Y-944295D02*
X150224Y-830687D01*
G54D18*
X23224Y-944295D02*
X23224Y-830687D01*
G54D18*
X519317Y-944295D02*
X519317Y-830687D01*
G54D18*
X646318Y-944295D02*
X646318Y-830687D01*
G54D91*
X303518Y-944295D02*
X303517Y-979695D01*
G54D91*
X290717Y-944295D02*
X290717Y-979695D01*
G54D91*
X278017Y-944295D02*
X278017Y-979695D01*
G54D91*
X265417Y-944295D02*
X265417Y-979695D01*
G54D91*
X239917Y-944295D02*
X239917Y-979695D01*
G54D91*
X316117Y-944295D02*
X316117Y-979695D01*
G54D91*
X227217Y-944295D02*
X227217Y-979695D01*
G54D91*
X214617Y-944295D02*
X214617Y-979695D01*
G54D91*
X201817Y-944295D02*
X201817Y-979695D01*
G54D91*
X189117Y-944295D02*
X189117Y-979695D01*
G54D91*
X468618Y-944295D02*
X468617Y-979695D01*
G54D91*
X455817Y-944295D02*
X455817Y-979695D01*
G54D91*
X443117Y-944295D02*
X443117Y-979695D01*
G54D91*
X430517Y-944295D02*
X430517Y-979695D01*
G54D91*
X405017Y-944295D02*
X405017Y-979695D01*
G54D91*
X481217Y-944295D02*
X481217Y-979695D01*
G54D91*
X392317Y-944295D02*
X392317Y-979695D01*
G54D91*
X379717Y-944295D02*
X379717Y-979695D01*
G54D91*
X366917Y-944295D02*
X366917Y-979695D01*
G54D91*
X354217Y-944295D02*
X354217Y-979695D01*
G54D91*
X633718Y-944295D02*
X633718Y-979695D01*
G54D91*
X620918Y-944295D02*
X620918Y-979695D01*
G54D91*
X608218Y-944295D02*
X608218Y-979695D01*
G54D91*
X595618Y-944295D02*
X595618Y-979695D01*
G54D91*
X570118Y-944295D02*
X570118Y-979695D01*
G54D91*
X646318Y-944295D02*
X646318Y-979695D01*
G54D91*
X557418Y-944295D02*
X557418Y-979695D01*
G54D91*
X544818Y-944295D02*
X544818Y-979695D01*
G54D91*
X532018Y-944295D02*
X532018Y-979695D01*
G54D91*
X519318Y-944295D02*
X519318Y-979695D01*
G54D91*
X798818Y-944295D02*
X798817Y-979695D01*
G54D91*
X786017Y-944295D02*
X786017Y-979695D01*
G54D91*
X773317Y-944295D02*
X773317Y-979695D01*
G54D91*
X760717Y-944295D02*
X760717Y-979695D01*
G54D91*
X735217Y-944295D02*
X735217Y-979695D01*
G54D91*
X811417Y-944295D02*
X811417Y-979695D01*
G54D91*
X722517Y-944295D02*
X722517Y-979695D01*
G54D91*
X709917Y-944295D02*
X709917Y-979695D01*
G54D91*
X697117Y-944295D02*
X697117Y-979695D01*
G54D91*
X684417Y-944295D02*
X684417Y-979695D01*
G54D91*
X963918Y-944295D02*
X963918Y-979695D01*
G54D91*
X951118Y-944295D02*
X951118Y-979695D01*
G54D91*
X938418Y-944295D02*
X938418Y-979695D01*
G54D91*
X925818Y-944295D02*
X925818Y-979695D01*
G54D91*
X900318Y-944295D02*
X900318Y-979695D01*
G54D91*
X976518Y-944295D02*
X976518Y-979695D01*
G54D91*
X887618Y-944295D02*
X887618Y-979695D01*
G54D91*
X875018Y-944295D02*
X875018Y-979695D01*
G54D91*
X862218Y-944295D02*
X862218Y-979695D01*
G54D91*
X849518Y-944295D02*
X849518Y-979695D01*
X976327Y-631143D02*
G54D90*
D03*
X849327Y-631143D02*
G54D90*
D03*
G54D18*
X976327Y-744751D02*
X976327Y-631143D01*
G54D18*
X849327Y-744751D02*
X849327Y-631143D01*
X810830Y-631936D02*
G54D90*
D03*
X683830Y-631936D02*
G54D90*
D03*
G54D18*
X810830Y-745545D02*
X810830Y-631936D01*
G54D18*
X683830Y-745545D02*
X683830Y-631936D01*
G54D91*
X963727Y-744751D02*
X963726Y-780151D01*
G54D91*
X950927Y-744751D02*
X950927Y-780151D01*
G54D91*
X938227Y-744751D02*
X938227Y-780151D01*
G54D91*
X925627Y-744751D02*
X925627Y-780151D01*
G54D91*
X900127Y-744751D02*
X900127Y-780151D01*
G54D91*
X976326Y-744751D02*
X976326Y-780151D01*
G54D91*
X887427Y-744751D02*
X887427Y-780151D01*
G54D91*
X874827Y-744751D02*
X874827Y-780151D01*
G54D91*
X862027Y-744751D02*
X862027Y-780151D01*
G54D91*
X849327Y-744751D02*
X849327Y-780151D01*
G54D91*
X798230Y-745545D02*
X798230Y-780945D01*
G54D91*
X785430Y-745545D02*
X785430Y-780945D01*
G54D91*
X772730Y-745545D02*
X772730Y-780945D01*
G54D91*
X760130Y-745545D02*
X760130Y-780945D01*
G54D91*
X734630Y-745545D02*
X734630Y-780945D01*
G54D91*
X810830Y-745545D02*
X810830Y-780945D01*
G54D91*
X721930Y-745545D02*
X721930Y-780945D01*
G54D91*
X709330Y-745545D02*
X709330Y-780945D01*
G54D91*
X696530Y-745545D02*
X696530Y-780945D01*
G54D91*
X683830Y-745545D02*
X683830Y-780945D01*
X810999Y-434543D02*
G54D90*
D03*
X683999Y-434543D02*
G54D90*
D03*
G54D18*
X810999Y-548151D02*
X810999Y-434543D01*
G54D18*
X683999Y-548151D02*
X683999Y-434543D01*
G54D18*
X850517Y-547504D02*
X850517Y-433896D01*
X977517Y-433896D02*
G54D90*
D03*
G54D18*
X977517Y-547504D02*
X977517Y-433896D01*
X850517Y-433896D02*
G54D90*
D03*
G54D91*
X964918Y-547504D02*
X964917Y-582904D01*
G54D91*
X952117Y-547504D02*
X952117Y-582904D01*
G54D91*
X939417Y-547504D02*
X939417Y-582904D01*
G54D91*
X926817Y-547504D02*
X926817Y-582904D01*
G54D91*
X901317Y-547504D02*
X901317Y-582904D01*
G54D91*
X977517Y-547504D02*
X977517Y-582904D01*
G54D91*
X888617Y-547504D02*
X888617Y-582904D01*
G54D91*
X876017Y-547504D02*
X876017Y-582904D01*
G54D91*
X863217Y-547504D02*
X863217Y-582904D01*
G54D91*
X850517Y-547504D02*
X850517Y-582904D01*
G54D91*
X798399Y-548151D02*
X798398Y-583551D01*
G54D91*
X785599Y-548151D02*
X785599Y-583551D01*
G54D91*
X772899Y-548151D02*
X772899Y-583551D01*
G54D91*
X760299Y-548151D02*
X760299Y-583551D01*
G54D91*
X734799Y-548151D02*
X734799Y-583551D01*
G54D91*
X810998Y-548151D02*
X810998Y-583551D01*
G54D91*
X722099Y-548151D02*
X722099Y-583551D01*
G54D91*
X709499Y-548151D02*
X709499Y-583551D01*
G54D91*
X696699Y-548151D02*
X696699Y-583551D01*
G54D91*
X683999Y-548151D02*
X683999Y-583551D01*
X976724Y-237840D02*
G54D90*
D03*
X849724Y-237840D02*
G54D90*
D03*
G54D18*
X976724Y-351448D02*
X976724Y-237840D01*
G54D18*
X849724Y-351448D02*
X849724Y-237840D01*
G54D18*
X685417Y-350654D02*
X685417Y-237046D01*
X812417Y-237046D02*
G54D90*
D03*
G54D18*
X812417Y-350654D02*
X812417Y-237046D01*
X685417Y-237046D02*
G54D90*
D03*
G54D91*
X964124Y-351448D02*
X964123Y-386848D01*
G54D91*
X951324Y-351448D02*
X951324Y-386848D01*
G54D91*
X938624Y-351448D02*
X938624Y-386848D01*
G54D91*
X926024Y-351448D02*
X926024Y-386848D01*
G54D91*
X900524Y-351448D02*
X900524Y-386848D01*
G54D91*
X976723Y-351448D02*
X976723Y-386848D01*
G54D91*
X887824Y-351448D02*
X887824Y-386848D01*
G54D91*
X875224Y-351448D02*
X875224Y-386848D01*
G54D91*
X862424Y-351448D02*
X862424Y-386848D01*
G54D91*
X849724Y-351448D02*
X849724Y-386848D01*
G54D91*
X799818Y-350654D02*
X799817Y-386054D01*
G54D91*
X787017Y-350654D02*
X787017Y-386054D01*
G54D91*
X774317Y-350654D02*
X774317Y-386054D01*
G54D91*
X761717Y-350654D02*
X761717Y-386054D01*
G54D91*
X736217Y-350654D02*
X736217Y-386054D01*
G54D91*
X812417Y-350654D02*
X812417Y-386054D01*
G54D91*
X723517Y-350654D02*
X723517Y-386054D01*
G54D91*
X710917Y-350654D02*
X710917Y-386054D01*
G54D91*
X698117Y-350654D02*
X698117Y-386054D01*
G54D91*
X685417Y-350654D02*
X685417Y-386054D01*
G54D91*
X637098Y-739931D02*
X637098Y-781681D01*
G54D91*
X624298Y-739932D02*
X624298Y-781682D01*
G54D91*
X611598Y-739932D02*
X611598Y-781682D01*
G54D91*
X598998Y-739932D02*
X598998Y-781682D01*
G54D91*
X586198Y-739932D02*
X586198Y-781681D01*
G54D91*
X573498Y-739932D02*
X573498Y-781681D01*
G54D91*
X649698Y-739931D02*
X649698Y-781682D01*
X590178Y-645366D02*
G54D69*
D03*
X648916Y-657669D02*
G54D69*
D03*
X620738Y-644969D02*
G54D69*
D03*
G54D91*
X637098Y-517681D02*
X637098Y-559431D01*
G54D91*
X624298Y-517682D02*
X624298Y-559432D01*
G54D91*
X611598Y-517682D02*
X611598Y-559432D01*
G54D91*
X598998Y-517682D02*
X598998Y-559432D01*
G54D91*
X586198Y-517682D02*
X586198Y-559431D01*
G54D91*
X573498Y-517682D02*
X573498Y-559431D01*
G54D91*
X649698Y-517681D02*
X649698Y-559432D01*
X590178Y-423116D02*
G54D69*
D03*
X648916Y-435419D02*
G54D69*
D03*
X620738Y-422719D02*
G54D69*
D03*
G54D91*
X637098Y-282731D02*
X637098Y-324481D01*
G54D91*
X624298Y-282732D02*
X624298Y-324482D01*
G54D91*
X611598Y-282732D02*
X611598Y-324482D01*
G54D91*
X598998Y-282732D02*
X598998Y-324482D01*
G54D91*
X586198Y-282732D02*
X586198Y-324481D01*
G54D91*
X573498Y-282732D02*
X573498Y-324481D01*
G54D91*
X649698Y-282731D02*
X649698Y-324482D01*
X590178Y-188166D02*
G54D69*
D03*
X648916Y-200469D02*
G54D69*
D03*
X620738Y-187769D02*
G54D69*
D03*
X976724Y-28290D02*
G54D90*
D03*
X849724Y-28290D02*
G54D90*
D03*
G54D18*
X976724Y-141898D02*
X976724Y-28290D01*
G54D18*
X849724Y-141898D02*
X849724Y-28290D01*
G54D91*
X964124Y-141898D02*
X964123Y-177298D01*
G54D91*
X951324Y-141898D02*
X951324Y-177298D01*
G54D91*
X938624Y-141898D02*
X938624Y-177298D01*
G54D91*
X926024Y-141898D02*
X926024Y-177298D01*
G54D91*
X900524Y-141898D02*
X900524Y-177298D01*
G54D91*
X976723Y-141898D02*
X976723Y-177298D01*
G54D91*
X887824Y-141898D02*
X887824Y-177298D01*
G54D91*
X875224Y-141898D02*
X875224Y-177298D01*
G54D91*
X862424Y-141898D02*
X862424Y-177298D01*
G54D91*
X849724Y-141898D02*
X849724Y-177298D01*
X811418Y-30586D02*
G54D69*
D03*
G54D39*
X811418Y-144194D02*
X811418Y-30586D01*
X811418Y-30586D02*
G54D90*
D03*
X684417Y-30586D02*
G54D90*
D03*
G54D18*
X811418Y-144194D02*
X811418Y-30586D01*
G54D18*
X684417Y-144194D02*
X684417Y-30586D01*
G54D91*
X798818Y-144194D02*
X798818Y-179594D01*
G54D91*
X786018Y-144194D02*
X786018Y-179594D01*
G54D91*
X773318Y-144194D02*
X773318Y-179594D01*
G54D91*
X760718Y-144194D02*
X760718Y-179594D01*
G54D91*
X735218Y-144194D02*
X735218Y-179594D01*
G54D91*
X811418Y-144194D02*
X811418Y-179594D01*
G54D91*
X722518Y-144194D02*
X722518Y-179594D01*
G54D91*
X709918Y-144194D02*
X709918Y-179594D01*
G54D91*
X697118Y-144194D02*
X697118Y-179594D01*
G54D91*
X684418Y-144194D02*
X684418Y-179594D01*
G54D18*
X422222Y-259241D02*
X412375Y-259241D01*
X404209Y-251074D01*
M02*
