; Drill file
; Format: 2.4 (00.0000)
M48
INCH
T01C0.0197
T02C0.0236
T03C0.0276
T04C0.0413
T05C0.0433
T06C0.0984
%
G05
G90
T01
X000910Y-032700
X002060Y-031290
X005570Y-031370
X005910Y-032700
X007450Y-032700
X012450Y-032700
X013950Y-032700
X013600Y-031420
X017620Y-031450
X018950Y-032700
X020450Y-032700
X025450Y-032700
X026950Y-032700
X031950Y-032700
X033450Y-032700
X038450Y-032700
X038440Y-024850
X033440Y-024850
X031920Y-024880
X026920Y-024880
X025550Y-025890
X024440Y-025390
X023240Y-025410
X017620Y-026450
X013600Y-026420
X011510Y-021310
X014260Y-020700
X015200Y-019140
X015700Y-017010
X015890Y-016260
X017920Y-016540
X019030Y-014810
X019620Y-012710
X020670Y-013370
X023240Y-016660
X024440Y-016640
X025550Y-017140
X026930Y-017110
X031930Y-017110
X033480Y-017080
X038480Y-017080
X038450Y-009360
X033450Y-009360
X031980Y-009330
X026980Y-009330
X025550Y-007890
X024440Y-007390
X023240Y-007410
X026950Y-001200
X031950Y-001200
X033450Y-001110
X038450Y-001110
X015890Y-003350
X012230Y-004010
X010900Y-005700
X009620Y-005010
X007620Y-005240
X005620Y-003960
X004830Y-006360
X004830Y-006920
X006800Y-007860
X008060Y-008290
X009430Y-008840
X010840Y-008680
X009880Y-007260
X006260Y-009200
X004040Y-012140
X002430Y-014590
X003840Y-017980
X003180Y-019030
X005960Y-020070
X007280Y-018230
X008540Y-019150
X010760Y-016670
X008700Y-015370
X010620Y-012900
X012370Y-014420
X014170Y-013780
X016480Y-013780
X015700Y-010540
X014950Y-010040
X018030Y-018740
X005570Y-026370
X002060Y-026290
X002530Y-006100
X003920Y-002040
T02
X001560Y-030750
X002560Y-030750
X003570Y-030750
X004570Y-030750
X005570Y-030750
X006580Y-030750
X007580Y-030750
X008580Y-030750
X009590Y-030750
X010590Y-030750
X011600Y-030750
X012600Y-030750
X013600Y-030750
X014610Y-030750
X015610Y-030750
X016620Y-030750
X017620Y-030750
X018620Y-030750
X019630Y-030750
X020630Y-030750
X020130Y-029880
X019630Y-029090
X019130Y-028300
X018620Y-029090
X018120Y-028300
X017620Y-029090
X018120Y-029880
X019130Y-029880
X020630Y-029090
X020130Y-028300
X020630Y-025750
X019630Y-025750
X018620Y-025750
X017620Y-025750
X016620Y-025750
X015610Y-025750
X014610Y-025750
X013600Y-025750
X012600Y-025750
X011600Y-025750
X010590Y-025750
X009590Y-025750
X008580Y-025750
X007580Y-025750
X006580Y-025750
X005570Y-025750
X004570Y-025750
X003570Y-025750
X002560Y-025750
X001560Y-025750
X002060Y-024880
X002560Y-024090
X003060Y-024880
X003570Y-024090
X004070Y-023300
X004570Y-024090
X004070Y-024880
X005570Y-024090
X006070Y-024880
X006580Y-024090
X007080Y-024880
X007580Y-024090
X008080Y-024880
X008580Y-024090
X008080Y-023300
X007080Y-023300
X006070Y-023300
X006280Y-021020
X007090Y-021020
X007840Y-021020
X009410Y-021020
X010090Y-023300
X009590Y-024090
X010090Y-024880
X010590Y-024090
X011090Y-024880
X011600Y-024090
X012100Y-024880
X012600Y-024090
X012100Y-023300
X011090Y-023300
X013600Y-024090
X014110Y-024880
X014610Y-024090
X015110Y-024880
X015610Y-024090
X016110Y-024880
X016620Y-024090
X016110Y-023300
X015110Y-023300
X014110Y-023300
X012130Y-020870
X011240Y-017340
X009410Y-016580
X008660Y-016580
X007840Y-016580
X006280Y-016580
X005410Y-017160
X009700Y-014600
X009640Y-013990
X010200Y-013700
X009220Y-013480
X013780Y-015420
X014280Y-015920
X015070Y-016640
X016010Y-019120
X016010Y-020120
X018120Y-023300
X018620Y-024090
X018120Y-024880
X017620Y-024090
X019130Y-024880
X019630Y-024090
X020130Y-024880
X020630Y-024090
X020130Y-023300
X019130Y-023300
X019880Y-020090
X019880Y-019300
X019750Y-013500
X016440Y-012980
X015910Y-009880
X015240Y-009170
X015770Y-008640
X015890Y-006860
X015610Y-006270
X015110Y-005800
X014570Y-006300
X016630Y-006420
X019400Y-008610
X005860Y-001870
X003060Y-023300
X002060Y-023300
X001560Y-024090
X002060Y-028300
X001560Y-029090
X002060Y-029880
X002560Y-029090
X003060Y-029880
X003570Y-029090
X004070Y-028300
X004570Y-029090
X004070Y-029880
X005570Y-029090
X006070Y-028300
X006580Y-029090
X007080Y-028300
X007580Y-029090
X008080Y-028300
X008580Y-029090
X008080Y-029880
X007080Y-029880
X006070Y-029880
X003060Y-028300
X009590Y-029090
X010090Y-028300
X010590Y-029090
X011090Y-028300
X011600Y-029090
X012100Y-028300
X012600Y-029090
X012100Y-029880
X011090Y-029880
X010090Y-029880
X013600Y-029090
X014110Y-028300
X014610Y-029090
X015110Y-028300
X015610Y-029090
X016110Y-028300
X016620Y-029090
X016110Y-029880
X015110Y-029880
X014110Y-029880
T03
X000220Y-005390
X019950Y-006340
X019950Y-007340
X019940Y-008910
X019940Y-010490
T04
X010480Y-020820
X020520Y-020860
T05
X017200Y-020120
X017200Y-019120
X017200Y-017120
X017200Y-016120
X019200Y-018120
T06
X018670Y-004930
M30
